<?xml version="1.0" encoding="utf-8"?>
<!-- Generator: Adobe Illustrator 16.0.0, SVG Export Plug-In . SVG Version: 6.00 Build 0)  -->
<!DOCTYPE svg PUBLIC "-//W3C//DTD SVG 1.1//EN" "http://www.w3.org/Graphics/SVG/1.1/DTD/svg11.dtd">
<svg version="1.1" id="Layer_1" xmlns="http://www.w3.org/2000/svg" xmlns:xlink="http://www.w3.org/1999/xlink" x="0px" y="0px"
	 width="24px" height="14px" viewBox="0 0 24 14" enable-background="new 0 0 24 14" xml:space="preserve">
<g>
	<g>
		<path fill-rule="evenodd" clip-rule="evenodd" fill="#CFBF30" d="M8.905,1.133"/>
		<path fill="none" stroke="#DED325" stroke-width="0.25" stroke-linecap="round" stroke-miterlimit="2.818" d="M8.901,1.137"/>
		<polygon fill="#CFBF30" points="8.901,12.859 10.833,12.859 10.833,1.135 8.911,1.135 8.901,1.137 		"/>
		<polygon fill="#CFBF30" points="2.91,12.859 8.901,12.859 8.901,1.137 8.911,1.135 2.91,1.135 		"/>
		<path fill="none" stroke="#DED325" stroke-width="0.25" stroke-linecap="round" stroke-miterlimit="2.818" d="M8.901,1.137v11.726
			 M10.831,12.863H2.908V1.137h7.923"/>
		<polygon fill="#CFBF30" points="17.355,2.482 17.359,2.483 17.355,2.482 13.592,2.482 13.592,11.582 23,11.582 23,2.482 		"/>
		<path fill="none" stroke="#231F20" stroke-linecap="round" stroke-miterlimit="2.818" d="M22.996,11.584"/>
		
			<rect x="13.592" y="2.483" fill="none" stroke="#231F20" stroke-linecap="round" stroke-miterlimit="2.818" width="9.404" height="9.101"/>
		<polyline fill-rule="evenodd" clip-rule="evenodd" fill="#CFBF30" points="17.361,11.514 13.277,13.12 8.903,12.859 11.677,2.773 
					"/>
		<path fill="none" stroke="#231F20" stroke-linecap="round" stroke-miterlimit="2.818" d="M2.908,1.137h5.993 M2.908,12.863V1.137
			 M8.901,12.863H2.908 M17.36,11.518c-2.495,1.673-5.579,2.162-8.459,1.346"/>
		<rect x="1.004" y="2.446" fill="#CFBF30" width="1.906" height="9.13"/>
		<path fill="none" stroke="#231F20" stroke-linecap="round" stroke-miterlimit="2.818" d="M2.908,11.582 M2.908,2.45v9.132H1V2.45
			H2.908z"/>
		<polygon fill-rule="evenodd" clip-rule="evenodd" fill="#CFBF30" points="8.903,1.135 8.904,1.136 8.915,1.134 		"/>
		<path fill-rule="evenodd" clip-rule="evenodd" fill="#CFBF30" d="M13.303,0.883c-0.018-0.003-0.035-0.006-0.054-0.009L8.915,1.134
			C8.911,1.135,8.907,1.135,8.904,1.136l2.772,10.083l5.683-8.736c-0.005-0.004-0.012-0.006-0.017-0.01L13.303,0.883z"/>
		<polygon fill-rule="evenodd" clip-rule="evenodd" fill="#CFBF30" points="17.343,2.474 17.359,2.483 17.361,2.482 		"/>
		<path fill-rule="evenodd" clip-rule="evenodd" fill="#CFBF30" d="M13.277,0.873l-0.028,0.001c0.019,0.003,0.036,0.006,0.054,0.009
			L13.277,0.873z"/>
		<path fill="#FFFFFF" stroke="#231F20" stroke-width="0.3" stroke-miterlimit="2.818" d="M17.36,2.483v9.032"/>
	</g>
	<path fill="none" d="M8.901,1.137c2.88-0.818,5.964-0.325,8.459,1.346C14.865,0.812,11.781,0.319,8.901,1.137z"/>
	<path fill="none" d="M8.901,12.863V1.137V12.863z"/>
	<path fill="none" d="M8.901,1.137c2.88-0.818,5.964-0.325,8.459,1.346C14.865,0.812,11.781,0.319,8.901,1.137z"/>
	<path fill="none" d="M8.901,12.863V1.137V12.863z"/>
	<path fill="none" d="M8.901,1.137c2.88-0.818,5.964-0.325,8.459,1.346C14.865,0.812,11.781,0.319,8.901,1.137z"/>
	<path fill="none" d="M8.901,12.863V1.137V12.863z"/>
	<path fill="none" d="M8.901,1.137c2.88-0.818,5.964-0.325,8.459,1.346C14.865,0.812,11.781,0.319,8.901,1.137z"/>
	<path fill="none" d="M8.901,12.863V1.137V12.863z"/>
	<path fill="none" d="M8.901,1.137c2.88-0.818,5.964-0.325,8.459,1.346C14.865,0.812,11.781,0.319,8.901,1.137z"/>
	<path fill="none" d="M8.901,12.863V1.137V12.863z"/>
	<path fill="none" d="M8.901,1.137c2.88-0.818,5.964-0.325,8.459,1.346C14.865,0.812,11.781,0.319,8.901,1.137z"/>
	<path fill="none" d="M8.901,12.863V1.137V12.863z"/>
	<path fill="none" d="M8.901,1.137c2.88-0.818,5.964-0.325,8.459,1.346C14.865,0.812,11.781,0.319,8.901,1.137z"/>
	<path fill="none" d="M8.901,12.863V1.137V12.863z"/>
	<path fill="none" d="M8.901,1.137c2.88-0.818,5.964-0.325,8.459,1.346C14.865,0.812,11.781,0.319,8.901,1.137z"/>
	<path fill="none" d="M8.901,12.863V1.137V12.863z"/>
	<path fill="none" d="M8.901,1.137c2.88-0.818,5.964-0.325,8.459,1.346C14.865,0.812,11.781,0.319,8.901,1.137z"/>
	<path fill="none" d="M8.901,12.863V1.137V12.863z"/>
	<path fill="none" d="M8.901,1.137c2.88-0.818,5.964-0.325,8.459,1.346C14.865,0.812,11.781,0.319,8.901,1.137z"/>
	<path fill="none" d="M8.901,12.863V1.137V12.863z"/>
	<path fill="none" d="M8.901,1.137c2.88-0.818,5.964-0.325,8.459,1.346C14.865,0.812,11.781,0.319,8.901,1.137z"/>
	<path fill="none" d="M8.901,12.863V1.137V12.863z"/>
	<path fill="none" d="M8.901,1.137c2.88-0.818,5.964-0.325,8.459,1.346C14.865,0.812,11.781,0.319,8.901,1.137z"/>
	<path fill="none" d="M8.901,12.863V1.137V12.863z"/>
	<path fill="none" d="M8.901,1.137c2.88-0.818,5.964-0.325,8.459,1.346C14.865,0.812,11.781,0.319,8.901,1.137z"/>
	<path fill="none" d="M8.901,12.863V1.137V12.863z"/>
	<path fill="none" d="M8.901,1.137c2.88-0.818,5.964-0.325,8.459,1.346C14.865,0.812,11.781,0.319,8.901,1.137z"/>
	<path fill="none" d="M8.901,12.863V1.137V12.863z"/>
	<path fill="none" d="M8.901,1.137c2.88-0.818,5.964-0.325,8.459,1.346C14.865,0.812,11.781,0.319,8.901,1.137z"/>
	<path fill="none" d="M8.901,12.863V1.137V12.863z"/>
	<path fill="none" d="M8.901,1.137c2.88-0.818,5.964-0.325,8.459,1.346C14.865,0.812,11.781,0.319,8.901,1.137z"/>
	<path fill="none" d="M8.901,12.863V1.137V12.863z"/>
	<path fill="none" d="M8.901,1.137c2.88-0.818,5.964-0.325,8.459,1.346C14.865,0.812,11.781,0.319,8.901,1.137z"/>
	<path fill="none" d="M8.901,12.863V1.137V12.863z"/>
	<path fill="none" d="M8.901,1.137c2.88-0.818,5.964-0.325,8.459,1.346C14.865,0.812,11.781,0.319,8.901,1.137z"/>
	<path fill="none" d="M8.901,12.863V1.137V12.863z"/>
	<path fill="none" d="M8.901,1.137c2.88-0.818,5.964-0.325,8.459,1.346C14.865,0.812,11.781,0.319,8.901,1.137z"/>
	<path fill="none" d="M8.901,12.863V1.137V12.863z"/>
	<path fill="none" d="M8.901,1.137c2.88-0.818,5.964-0.325,8.459,1.346C14.865,0.812,11.781,0.319,8.901,1.137z"/>
	<path fill="none" d="M8.901,12.863V1.137V12.863z"/>
	<path fill="none" d="M8.901,1.137c2.88-0.818,5.964-0.325,8.459,1.346C14.865,0.812,11.781,0.319,8.901,1.137z"/>
	<path fill="none" d="M8.901,12.863V1.137V12.863z"/>
	<path fill="none" d="M8.901,1.137c2.88-0.818,5.964-0.325,8.459,1.346C14.865,0.812,11.781,0.319,8.901,1.137z"/>
	<path fill="none" d="M8.901,12.863V1.137V12.863z"/>
	<path fill="none" d="M8.901,1.137c2.88-0.818,5.964-0.325,8.459,1.346C14.865,0.812,11.781,0.319,8.901,1.137z"/>
	<path fill="none" d="M8.901,12.863V1.137V12.863z"/>
	<path fill="none" d="M8.901,1.137c2.88-0.818,5.964-0.325,8.459,1.346C14.865,0.812,11.781,0.319,8.901,1.137z"/>
	<path fill="none" d="M8.901,12.863V1.137V12.863z"/>
	<path fill="none" d="M8.901,1.137c2.88-0.818,5.964-0.325,8.459,1.346C14.865,0.812,11.781,0.319,8.901,1.137z"/>
	<path fill="none" d="M8.901,12.863V1.137V12.863z"/>
	<path fill="none" d="M8.901,1.137c2.88-0.818,5.964-0.325,8.459,1.346C14.865,0.812,11.781,0.319,8.901,1.137z"/>
	<path fill="none" d="M8.901,12.863V1.137V12.863z"/>
	<path fill="none" d="M8.901,1.137c2.88-0.818,5.964-0.325,8.459,1.346C14.865,0.812,11.781,0.319,8.901,1.137z"/>
	<path fill="none" d="M8.901,12.863V1.137V12.863z"/>
	<path fill="none" d="M8.901,1.137c2.88-0.818,5.964-0.325,8.459,1.346C14.865,0.812,11.781,0.319,8.901,1.137z"/>
	<path fill="none" d="M8.901,12.863V1.137V12.863z"/>
	<path fill="none" d="M8.901,1.137c2.88-0.818,5.964-0.325,8.459,1.346C14.865,0.812,11.781,0.319,8.901,1.137z"/>
	<path fill="none" d="M8.901,12.863V1.137V12.863z"/>
	<path fill="none" d="M8.901,1.137c2.88-0.818,5.964-0.325,8.459,1.346C14.865,0.812,11.781,0.319,8.901,1.137z"/>
	<path fill="none" d="M8.901,12.863V1.137V12.863z"/>
	<path fill="none" d="M8.901,1.137c2.88-0.818,5.964-0.325,8.459,1.346C14.865,0.812,11.781,0.319,8.901,1.137z"/>
	<path fill="none" d="M8.901,12.863V1.137V12.863z"/>
	<path fill="none" d="M8.901,1.137c2.88-0.818,5.964-0.325,8.459,1.346C14.865,0.812,11.781,0.319,8.901,1.137z"/>
	<path fill="none" d="M8.901,12.863V1.137V12.863z"/>
	<path fill="none" d="M8.901,1.137c2.88-0.818,5.964-0.325,8.459,1.346C14.865,0.812,11.781,0.319,8.901,1.137z"/>
	<path fill="none" d="M8.901,12.863V1.137V12.863z"/>
	<path fill="none" d="M8.901,1.137c2.88-0.818,5.964-0.325,8.459,1.346C14.865,0.812,11.781,0.319,8.901,1.137z"/>
	<path fill="none" d="M8.901,12.863V1.137V12.863z"/>
	<path fill="none" d="M8.901,1.137c2.88-0.818,5.964-0.325,8.459,1.346C14.865,0.812,11.781,0.319,8.901,1.137z"/>
	<path fill="none" d="M8.901,12.863V1.137V12.863z"/>
	<path fill="none" d="M8.901,1.137c2.88-0.818,5.964-0.325,8.459,1.346C14.865,0.812,11.781,0.319,8.901,1.137z"/>
	<path fill="none" d="M8.901,12.863V1.137V12.863z"/>
	<path fill="none" d="M8.901,1.137c2.88-0.818,5.964-0.325,8.459,1.346C14.865,0.812,11.781,0.319,8.901,1.137z"/>
	<path fill="none" d="M8.901,12.863V1.137V12.863z"/>
	<path fill="none" stroke="#231F20" stroke-miterlimit="2.818" d="M8.901,1.137c2.88-0.818,5.964-0.325,8.459,1.346
		C14.865,0.812,11.781,0.319,8.901,1.137z"/>
	<path fill="none" stroke="#231F20" stroke-width="0.3" stroke-miterlimit="2.818" d="M8.901,12.863V1.137V12.863z"/>
	<g>
		<g>
			<line fill="none" stroke="#231F20" stroke-width="2" x1="8.216" y1="6.663" x2="12.744" y2="6.663"/>
			<polygon fill="#231F20" points="11.555,8.384 18.06,6.642 11.555,4.898 			"/>
		</g>
	</g>
</g>
</svg>
