<?xml version="1.0" encoding="utf-8"?>
<!-- Generator: Adobe Illustrator 16.0.0, SVG Export Plug-In . SVG Version: 6.00 Build 0)  -->
<!DOCTYPE svg PUBLIC "-//W3C//DTD SVG 1.1//EN" "http://www.w3.org/Graphics/SVG/1.1/DTD/svg11.dtd">
<svg version="1.1" id="Layer_1" xmlns="http://www.w3.org/2000/svg" xmlns:xlink="http://www.w3.org/1999/xlink" x="0px" y="0px"
	 width="24px" height="28px" viewBox="0 0 24 28" enable-background="new 0 0 24 28" xml:space="preserve">
<g>
	
		<polyline fill-rule="evenodd" clip-rule="evenodd" fill="#CFBF30" stroke="#231F20" stroke-width="0.5466" stroke-miterlimit="2.818" points="
		0.455,19.688 3.647,19.688 3.647,19.401 5.374,19.401 5.374,17.303 18.619,17.303 18.619,19.401 20.344,19.401 20.344,19.688 
		23.537,19.688 23.537,25.412 20.344,25.412 20.344,25.698 18.619,25.698 18.619,27.628 5.374,27.628 5.374,25.698 3.647,25.698 
		3.647,25.412 0.455,25.412 	"/>
	
		<line fill="none" stroke="#231F20" stroke-width="0.2733" stroke-linecap="round" stroke-miterlimit="2.818" x1="18.626" y1="27.634" x2="5.38" y2="27.634"/>
	
		<line fill="none" stroke="#231F20" stroke-width="0.2733" stroke-linecap="round" stroke-miterlimit="2.818" x1="6.695" y1="15.983" x2="17.313" y2="15.983"/>
	<polygon fill="none" stroke="#231F20" stroke-width="0.2733" stroke-linecap="round" stroke-miterlimit="2.818" points="
		0.461,19.69 3.655,19.69 3.655,19.405 5.38,19.405 5.38,17.311 18.626,17.311 18.626,19.405 20.351,19.405 20.351,19.69 
		23.545,19.69 23.545,25.414 20.351,25.414 20.351,25.7 18.626,25.7 18.626,27.633 5.38,27.633 5.38,25.7 3.655,25.7 3.655,25.414 
		0.461,25.414 	"/>
	<rect x="5.374" y="27.628" fill="#CFBF30" width="13.246" height="0.365"/>
	
		<line fill="none" stroke="#231F20" stroke-width="0.2733" stroke-linecap="round" stroke-miterlimit="2.818" x1="3.655" y1="25.702" x2="3.655" y2="19.405"/>
	
		<rect x="5.38" y="27.634" fill="none" stroke="#231F20" stroke-width="0.2733" stroke-linecap="round" stroke-miterlimit="2.818" width="13.246" height="0.366"/>
	<rect x="10.496" y="15.145" fill="#CFBF30" width="3.005" height="0.834"/>
	
		<line fill="none" stroke="#231F20" stroke-width="0.2733" stroke-linecap="round" stroke-miterlimit="2.818" x1="20.351" y1="25.702" x2="20.351" y2="19.405"/>
	<path fill="none" stroke="#231F20" stroke-width="0.2733" stroke-linecap="round" stroke-miterlimit="2.818" d="M18.626,19.405
		c-1.725,1.476-1.934,4.087-0.467,5.826c0.144,0.17,0.3,0.325,0.467,0.469"/>
	<path fill="none" stroke="#231F20" stroke-width="0.2733" stroke-linecap="round" stroke-miterlimit="2.818" d="M5.38,19.405
		c1.723,1.476,1.933,4.087,0.465,5.826c-0.142,0.17-0.296,0.325-0.465,0.469"/>
	
		<line fill="none" stroke="#231F20" stroke-width="0.2733" stroke-linecap="round" stroke-miterlimit="2.818" x1="5.38" y1="17.311" x2="18.626" y2="17.311"/>
	
		<line fill="none" stroke="#231F20" stroke-width="0.2733" stroke-linecap="round" stroke-miterlimit="2.818" x1="18.626" y1="17.311" x2="17.312" y2="15.983"/>
	
		<line fill="none" stroke="#231F20" stroke-width="0.2733" stroke-linecap="round" stroke-miterlimit="2.818" x1="5.38" y1="17.311" x2="6.695" y2="15.983"/>
	
		<rect x="10.5" y="15.148" fill="none" stroke="#231F20" stroke-width="0.2733" stroke-linecap="round" stroke-miterlimit="2.818" width="3.006" height="0.837"/>
	<polyline fill-rule="evenodd" clip-rule="evenodd" fill="#CFBF30" points="6.688,15.979 17.306,15.979 18.619,17.307 5.374,17.307 
			"/>
	
		<line fill="none" stroke="#231F20" stroke-width="0.2733" stroke-linecap="round" stroke-miterlimit="2.818" x1="0.006" y1="7.577" x2="24" y2="7.577"/>
	
		<line fill="none" stroke="#231F20" stroke-width="0.2733" stroke-linecap="round" stroke-miterlimit="2.818" x1="0.651" y1="0.004" x2="23.354" y2="0.004"/>
	
		<line fill="none" stroke="#231F20" stroke-width="0.2733" stroke-linecap="round" stroke-miterlimit="2.818" x1="0.006" y1="7.577" x2="0.651" y2="0.004"/>
	
		<line fill="none" stroke="#231F20" stroke-width="0.2733" stroke-linecap="round" stroke-miterlimit="2.818" x1="24" y1="7.577" x2="23.355" y2="0.004"/>
	
		<line fill="none" stroke="#231F20" stroke-width="0.2733" stroke-linecap="round" stroke-miterlimit="2.818" x1="23.355" y1="15.148" x2="24" y2="7.577"/>
	
		<line fill="none" stroke="#231F20" stroke-width="0.2733" stroke-linecap="round" stroke-miterlimit="2.818" x1="0.651" y1="15.148" x2="0.006" y2="7.577"/>
	
		<line fill="none" stroke="#231F20" stroke-width="0.2733" stroke-linecap="round" stroke-miterlimit="2.818" x1="0.651" y1="15.148" x2="23.354" y2="15.148"/>
	
		<polygon fill="none" stroke="#231F20" stroke-width="0.5466" stroke-linecap="round" stroke-linejoin="round" stroke-miterlimit="2.818" points="
		6.695,15.983 17.313,15.983 18.626,17.311 5.38,17.311 	"/>
	<polyline fill-rule="evenodd" clip-rule="evenodd" fill="#696A6A" points="0,7.574 23.993,7.574 23.351,15.146 0.645,15.146 	"/>
	<polygon fill="none" stroke="#231F20" stroke-width="0.2733" stroke-linecap="round" stroke-miterlimit="2.818" points="
		0.006,7.577 24,7.577 23.355,15.147 0.651,15.147 	"/>
	<polyline fill-rule="evenodd" clip-rule="evenodd" fill="#D5D6D4" points="23.993,7.574 0,7.574 0.645,0 23.351,0 	"/>
	<polygon fill="none" stroke="#231F20" stroke-width="0.2733" stroke-linecap="round" stroke-miterlimit="2.818" points="24,7.577 
		0.006,7.577 0.651,0.004 23.355,0.004 	"/>
</g>
</svg>
