<?xml version="1.0" encoding="utf-8"?>
<!-- Generator: Adobe Illustrator 16.0.0, SVG Export Plug-In . SVG Version: 6.00 Build 0)  -->
<!DOCTYPE svg PUBLIC "-//W3C//DTD SVG 1.1//EN" "http://www.w3.org/Graphics/SVG/1.1/DTD/svg11.dtd">
<svg version="1.1" id="Layer_1" xmlns="http://www.w3.org/2000/svg" xmlns:xlink="http://www.w3.org/1999/xlink" x="0px" y="0px"
	 width="84px" height="34px" viewBox="0 0 84 34" enable-background="new 0 0 84 34" xml:space="preserve">
<g>
	<g>
		<g>
			
				<path fill-rule="evenodd" clip-rule="evenodd" fill="#B25A5A" stroke="#231F20" stroke-width="0.5" stroke-miterlimit="2.818" d="
				M35.234,9.068c0.145-1.928-0.533-2.11-2.276-2l-0.795-0.336l-0.327-0.813V1.148l0.327-0.813L32.958,0h18.079l0.561,0.153
				l0.411,0.42l0.151,0.575v4.771l-0.151,0.574l-0.411,0.422c-1.262,0.548-3.047-0.738-2.835,2.153l-6.765-0.538"/>
			<path fill="none" stroke="#231F20" stroke-width="0.25" stroke-linecap="round" stroke-miterlimit="2.818" d="M35.237,9.07
				c0.145-1.933-0.531-2.107-2.275-2l-0.795-0.338l-0.329-0.81V1.15l0.329-0.814l0.795-0.335H51.04l0.563,0.154l0.411,0.419
				l0.147,0.577v4.772l-0.147,0.572l-0.411,0.42c-1.256,0.558-3.053-0.742-2.839,2.155L42,8.532L35.237,9.07z"/>
			
				<path fill-rule="evenodd" clip-rule="evenodd" fill="#B25A5A" stroke="#231F20" stroke-width="0.5" stroke-miterlimit="2.818" d="
				M31.458,10.017c5.276-2.055,14.926-1.76,20.434-0.329l0.649,0.329l0.311,0.595l0.618,3.269l0.525,6.911l-0.525,6.911
				l-0.606,3.199l-0.322,0.664l-0.582,0.316l-3.196,0.632L42,33.05l-6.764-0.536l-3.128-0.619l-0.65-0.329
				c-2.012-5.401-1.723-15.258-0.325-20.883"/>
			<path fill="none" stroke="#231F20" stroke-width="0.5" stroke-linecap="round" stroke-miterlimit="2.818" d="M31.458,10.019
				c5.292-2.057,14.916-1.762,20.436-0.33l0.649,0.33l0.311,0.594l0.617,3.268l0.526,6.913l-0.526,6.911l-0.605,3.197l-0.322,0.664
				l-0.582,0.316l-3.198,0.634L42,33.053l-6.763-0.537l-3.127-0.62l-0.652-0.33c-2.012-5.417-1.723-15.239-0.323-20.881
				L31.458,10.019z"/>
			<path fill-rule="evenodd" clip-rule="evenodd" fill="#5A2E2E" d="M53.424,20.791c0-6.447-5.117-11.676-11.426-11.676
				c-6.309,0-11.424,5.229-11.424,11.676c0,6.447,5.115,11.676,11.424,11.676C48.307,32.467,53.424,27.238,53.424,20.791"/>
			
				<ellipse fill="none" stroke="#231F20" stroke-width="0.25" stroke-linecap="round" stroke-miterlimit="2.818" cx="42.001" cy="20.791" rx="11.424" ry="11.676"/>
			<path fill-rule="evenodd" clip-rule="evenodd" fill="#B07D7D" d="M51.55,20.791c0-5.392-4.276-9.762-9.552-9.762
				s-9.552,4.371-9.552,9.762c0,5.391,4.277,9.762,9.552,9.762S51.55,26.182,51.55,20.791"/>
			<path fill="none" stroke="#231F20" stroke-width="0.25" stroke-linecap="round" stroke-miterlimit="2.818" d="M31.458,31.565
				l-0.308-0.594 M32.039,31.882l-0.581-0.316 M52.543,31.565l-0.582,0.316 M52.854,30.972l-0.309,0.594 M52.543,10.019l0.309,0.594
				 M51.961,9.702l0.582,0.315 M31.458,10.019l0.581-0.315 M31.148,10.612l0.31-0.594 M30.53,27.704l-0.525-6.913 M31.135,30.901
				l-0.605-3.197 M30.53,13.88l-0.525,6.913 M31.135,10.683L30.53,13.88 M53.471,13.88l0.526,6.913 M52.865,10.683l0.605,3.198
				 M53.471,27.704l0.526-6.913 M52.865,30.901l0.605-3.197 M35.237,32.516L42,33.053 M32.11,31.896l3.127,0.62 M48.763,32.516
				L42,33.053 M51.892,31.896l-3.129,0.62 M48.763,9.07L42,8.532 M51.892,9.689L48.763,9.07 M35.237,9.07L42,8.532 M32.11,9.689
				l3.127-0.619 M51.382,11.979l-0.614-0.364v-0.728l0.614-0.365l0.617,0.365v0.728L51.382,11.979z M52.44,11.252
				c0-0.597-0.474-1.081-1.059-1.081c-0.582,0-1.056,0.484-1.056,1.081s0.474,1.079,1.056,1.079
				C51.967,12.331,52.44,11.849,52.44,11.252z M32.615,11.781l-0.616-0.363V10.69l0.616-0.364l0.616,0.364v0.728L32.615,11.781z
				 M33.672,11.054c0-0.597-0.472-1.081-1.058-1.081c-0.584,0-1.057,0.483-1.057,1.081c0,0.595,0.473,1.08,1.057,1.08
				C33.2,12.134,33.672,11.649,33.672,11.054z M51.454,31.18l-0.616-0.363v-0.728l0.616-0.365l0.615,0.365v0.728L51.454,31.18z
				 M52.512,30.452c0-0.597-0.475-1.081-1.058-1.081c-0.585,0-1.06,0.484-1.06,1.081c0,0.596,0.475,1.081,1.06,1.081
				C52.037,31.533,52.512,31.048,52.512,30.452z M32.567,31.077l-0.616-0.361v-0.729l0.616-0.364l0.616,0.364v0.729L32.567,31.077z
				 M33.622,30.352c0-0.598-0.474-1.08-1.056-1.08c-0.584,0-1.058,0.482-1.058,1.08c0,0.596,0.473,1.08,1.058,1.08
				C33.148,31.432,33.622,30.947,33.622,30.352z M31.838,1.15h20.324 M34.114,7.071h15.775 M37.226,12.337v16.91 M51.552,20.791
				l-14.326,8.454 M37.226,12.337l14.326,8.454 M31.838,5.92V1.15 M52.162,5.92V1.15 M32.962,0.001H51.04 M51.6,0.155l-0.56-0.154
				 M52.013,0.574L51.6,0.155 M52.162,1.15l-0.147-0.577 M32.167,0.336L32.962,0 M31.838,1.15l0.329-0.814 M34.114,7.071h-1.152
				 M32.167,6.732L31.838,5.92 M32.962,7.071l-0.796-0.338 M49.889,7.071h1.151 M51.6,6.916l-0.56,0.153 M52.013,6.495L51.6,6.916
				 M52.162,5.92l-0.147,0.575 M35.237,8.217V9.07 M35.086,7.644l0.15,0.574 M34.676,7.223l0.411,0.421 M34.114,7.071l0.562,0.152
				 M48.763,8.217V9.07 M48.914,7.644l-0.149,0.574 M49.324,7.223l-0.41,0.421 M49.889,7.071l-0.564,0.152 M51.552,20.791
				c0-5.392-4.275-9.762-9.552-9.762c-5.275,0-9.55,4.371-9.55,9.762c0,5.391,4.275,9.762,9.55,9.762
				C47.276,30.553,51.552,26.182,51.552,20.791z"/>
			<polyline fill-rule="evenodd" clip-rule="evenodd" fill="#5A2E2E" points="37.224,12.337 51.55,20.789 37.224,29.244 			"/>
			<path fill="none" stroke="#231F20" stroke-width="0.25" stroke-linecap="round" stroke-miterlimit="2.818" d="M58.791,34v-6.741
				 M58.791,7.567v6.76 M61.201,34h-2.41 M61.201,7.567V34 M58.791,7.567h2.41 M53.646,26.108h4.023 M53.594,15.475h4.075
				 M37.226,12.337l14.326,8.454l-14.326,8.456V12.337z"/>
			
				<line fill="none" stroke="#231F20" stroke-width="0.25" stroke-miterlimit="2.818" x1="61.458" y1="26.107" x2="61.458" y2="15.475"/>
			
				<rect x="61.201" y="15.475" fill="none" stroke="#231F20" stroke-width="0.25" stroke-linecap="round" stroke-miterlimit="2.818" width="0.518" height="10.633"/>
			
				<polyline fill-rule="evenodd" clip-rule="evenodd" fill="#B25A5A" stroke="#231F20" stroke-width="0.5" stroke-miterlimit="2.818" points="
				53.592,15.475 57.665,15.475 58.789,14.327 58.789,7.564 61.199,7.564 61.199,33.998 58.789,33.998 58.789,27.257 57.665,26.107 
				53.644,26.107 53.995,20.791 			"/>
			<polygon fill="none" stroke="#231F20" stroke-width="0.25" stroke-linecap="round" stroke-miterlimit="2.818" points="
				53.594,15.475 57.669,15.475 58.791,14.329 58.791,7.567 61.201,7.567 61.201,34 58.791,34 58.791,27.259 57.669,26.108 
				53.646,26.108 53.995,20.793 			"/>
			<polyline fill-rule="evenodd" clip-rule="evenodd" fill="#E3E4E2" points="56.928,12.462 57.288,12.885 58.789,12.885 
				58.789,8.097 57.288,8.097 56.928,8.522 			"/>
			<polygon fill="none" stroke="#231F20" stroke-width="0.25" stroke-linecap="round" stroke-miterlimit="2.818" points="
				56.93,12.462 57.294,12.885 58.791,12.885 58.791,8.098 57.294,8.098 56.93,8.52 			"/>
			<polyline fill-rule="evenodd" clip-rule="evenodd" fill="#E3E4E2" points="65.991,12.462 65.631,12.885 64.13,12.885 
				64.13,8.097 65.631,8.097 65.991,8.522 			"/>
			<path fill="none" stroke="#231F20" stroke-width="0.25" stroke-linecap="round" stroke-miterlimit="2.818" d="M64.131,11.86
				V9.124 M65.992,12.27l-0.376-0.684 M65.992,10.901l-0.376,0.685 M64.131,11.586h1.485 M65.992,8.713l-0.376,0.685 M65.992,10.081
				l-0.376-0.685 M64.131,9.398h1.485 M58.791,11.86V9.124 M56.93,12.27l0.378-0.684 M56.93,10.901l0.378,0.685 M58.791,11.586
				h-1.487 M56.93,8.713l0.378,0.685 M56.93,10.081l0.378-0.685 M58.791,9.398h-1.487 M65.992,12.462l-0.361,0.423h-1.5V8.098h1.5
				l0.361,0.422V12.462z"/>
			<rect x="61.199" y="9.379" fill="#F3F0F1" width="0.52" height="2.207"/>
			
				<rect x="61.201" y="9.379" fill="none" stroke="#231F20" stroke-width="0.25" stroke-linecap="round" stroke-miterlimit="2.818" width="0.518" height="2.207"/>
			<polyline fill-rule="evenodd" clip-rule="evenodd" fill="#E3E4E2" points="56.928,33.041 57.288,33.465 58.789,33.465 
				58.789,28.677 57.288,28.677 56.928,29.103 			"/>
			<polygon fill="none" stroke="#231F20" stroke-width="0.25" stroke-linecap="round" stroke-miterlimit="2.818" points="
				56.93,33.045 57.294,33.468 58.791,33.468 58.791,28.68 57.294,28.68 56.93,29.103 			"/>
			<polyline fill-rule="evenodd" clip-rule="evenodd" fill="#E3E4E2" points="65.991,33.041 65.631,33.465 64.13,33.465 
				64.13,28.677 65.631,28.677 65.991,29.103 			"/>
			<path fill="none" stroke="#231F20" stroke-width="0.25" stroke-linecap="round" stroke-miterlimit="2.818" d="M64.131,32.44
				v-2.733 M65.992,32.852l-0.376-0.685 M65.992,31.483l-0.376,0.685 M64.131,32.167h1.485 M65.992,29.295l-0.376,0.685
				 M65.992,30.664l-0.376-0.685 M64.131,29.979h1.485 M58.791,32.44v-2.733 M56.93,32.852l0.378-0.685 M56.93,31.483l0.378,0.685
				 M58.791,32.167h-1.487 M56.93,29.295l0.378,0.685 M56.93,30.664l0.378-0.685 M58.791,29.979h-1.487 M65.992,33.045l-0.361,0.423
				h-1.5V28.68h1.5l0.361,0.423V33.045z"/>
			<rect x="61.199" y="29.959" fill="#F3F0F1" width="0.52" height="2.207"/>
			<path fill="none" stroke="#231F20" stroke-width="0.25" stroke-linecap="round" stroke-miterlimit="2.818" d="M25.209,34v-6.741
				 M25.209,7.567v6.76 M22.8,34h2.413 M22.8,7.567V34 M25.209,7.567H22.8 M30.354,26.108h-4.021 M30.406,15.475h-4.072
				 M57.669,15.475v10.633 M58.791,14.327v12.93 M61.201,29.962h0.518v2.206h-0.518V29.962z"/>
			
				<line fill="none" stroke="#231F20" stroke-width="0.25" stroke-miterlimit="2.818" x1="22.538" y1="26.107" x2="22.538" y2="15.475"/>
			
				<rect x="22.281" y="15.475" fill="none" stroke="#231F20" stroke-width="0.25" stroke-linecap="round" stroke-miterlimit="2.818" width="0.519" height="10.633"/>
			
				<polyline fill-rule="evenodd" clip-rule="evenodd" fill="#B25A5A" stroke="#231F20" stroke-width="0.5" stroke-miterlimit="2.818" points="
				30.403,15.475 26.333,15.475 25.209,14.327 25.209,7.564 22.797,7.564 22.797,33.998 25.209,33.998 25.209,27.257 26.333,26.107 
				30.354,26.107 30.002,20.791 			"/>
			<polygon fill="none" stroke="#231F20" stroke-width="0.5" stroke-linecap="round" stroke-miterlimit="2.818" points="
				30.406,15.475 26.334,15.475 25.212,14.329 25.212,7.567 22.8,7.567 22.8,34 25.212,34 25.212,27.259 26.334,26.108 
				30.356,26.108 30.005,20.793 			"/>
			<polyline fill-rule="evenodd" clip-rule="evenodd" fill="#E3E4E2" points="27.069,12.462 26.709,12.885 25.209,12.885 
				25.209,8.097 26.709,8.097 27.069,8.522 			"/>
			<polygon fill="none" stroke="#231F20" stroke-width="0.25" stroke-linecap="round" stroke-miterlimit="2.818" points="
				27.071,12.462 26.709,12.885 25.209,12.885 25.209,8.098 26.709,8.098 27.071,8.52 			"/>
			<polyline fill-rule="evenodd" clip-rule="evenodd" fill="#E3E4E2" points="18.007,12.462 18.367,12.885 19.868,12.885 
				19.868,8.097 18.367,8.097 18.007,8.522 			"/>
			<path fill="none" stroke="#231F20" stroke-width="0.25" stroke-linecap="round" stroke-miterlimit="2.818" d="M19.87,11.86V9.124
				 M18.009,12.27l0.376-0.684 M18.009,10.901l0.376,0.685 M19.87,11.586h-1.485 M18.009,8.713l0.376,0.685 M18.009,10.081
				l0.376-0.685 M19.87,9.398h-1.485 M25.209,11.86V9.124 M27.071,12.27l-0.376-0.684 M27.071,10.901l-0.376,0.685 M25.209,11.586
				h1.486 M27.071,8.713l-0.376,0.685 M27.071,10.081l-0.376-0.685 M25.209,9.398h1.486 M18.009,12.462l0.36,0.423h1.501V8.098
				h-1.501l-0.36,0.422V12.462z"/>
			<rect x="22.278" y="9.379" fill="#F3F0F1" width="0.519" height="2.207"/>
			
				<rect x="22.281" y="9.379" fill="none" stroke="#231F20" stroke-width="0.25" stroke-linecap="round" stroke-miterlimit="2.818" width="0.519" height="2.207"/>
			<polyline fill-rule="evenodd" clip-rule="evenodd" fill="#E3E4E2" points="27.069,33.041 26.709,33.465 25.209,33.465 
				25.209,28.677 26.709,28.677 27.069,29.103 			"/>
			<polygon fill="none" stroke="#231F20" stroke-width="0.25" stroke-linecap="round" stroke-miterlimit="2.818" points="
				27.071,33.045 26.709,33.468 25.209,33.468 25.209,28.68 26.709,28.68 27.071,29.103 			"/>
			<polyline fill-rule="evenodd" clip-rule="evenodd" fill="#E3E4E2" points="18.007,33.041 18.367,33.465 19.868,33.465 
				19.868,28.677 18.367,28.677 18.007,29.103 			"/>
			<path fill="none" stroke="#231F20" stroke-width="0.25" stroke-linecap="round" stroke-miterlimit="2.818" d="M19.87,32.44
				v-2.733 M18.009,32.852l0.376-0.685 M18.009,31.483l0.376,0.685 M19.87,32.167h-1.485 M18.009,29.295l0.376,0.685 M18.009,30.664
				l0.376-0.685 M19.87,29.979h-1.485 M25.209,32.44v-2.733 M27.071,32.852l-0.376-0.685 M27.071,31.483l-0.376,0.685
				 M25.209,32.167h1.486 M27.071,29.295l-0.376,0.685 M27.071,30.664l-0.376-0.685 M25.209,29.979h1.486 M18.009,33.045l0.36,0.423
				h1.501V28.68h-1.501l-0.36,0.423V33.045z"/>
			<rect x="22.278" y="29.959" fill="#F3F0F1" width="0.519" height="2.207"/>
			<path fill="none" stroke="#231F20" stroke-width="0.25" stroke-linecap="round" stroke-miterlimit="2.818" d="M26.334,15.475
				v10.633 M25.209,14.327v12.93 M22.281,29.962H22.8v2.206h-0.519V29.962z"/>
			
				<rect x="61.719" y="7.564" fill="#CFBF30" stroke="#231F20" stroke-width="0.5" stroke-miterlimit="2.818" width="2.411" height="26.434"/>
			
				<rect x="61.719" y="7.567" fill="none" stroke="#231F20" stroke-width="0.25" stroke-linecap="round" stroke-miterlimit="2.818" width="2.412" height="26.433"/>
			
				<rect x="64.13" y="17.72" fill="#CFBF30" stroke="#231F20" stroke-width="0.5" stroke-miterlimit="2.818" width="18.868" height="6.122"/>
			
				<rect x="64.131" y="17.72" fill="none" stroke="#231F20" stroke-width="0.25" stroke-linecap="round" stroke-miterlimit="2.818" width="18.869" height="6.125"/>
			
				<polyline fill-rule="evenodd" clip-rule="evenodd" fill="#CFBF30" stroke="#231F20" stroke-width="0.5" stroke-miterlimit="2.818" points="
				69.407,15.65 77.723,15.65 78.471,15.855 79.02,16.417 79.219,17.182 79.219,24.379 79.02,25.145 78.471,25.703 77.723,25.909 
				69.407,25.909 68.656,25.703 68.109,25.145 67.908,24.379 67.908,17.182 68.109,16.417 68.656,15.855 			"/>
			<polygon fill="none" stroke="#231F20" stroke-width="0.5" stroke-linecap="round" stroke-miterlimit="2.818" points="
				69.407,15.652 77.723,15.652 78.473,15.858 79.02,16.417 79.223,17.184 79.223,24.379 79.02,25.146 78.473,25.707 77.723,25.911 
				69.407,25.911 68.658,25.707 68.111,25.146 67.908,24.379 67.908,17.184 68.111,16.417 68.658,15.858 			"/>
			<path fill-rule="evenodd" clip-rule="evenodd" fill="#CFBF30" d="M77.777,20.78c0-2.379-1.885-4.304-4.213-4.304
				c-2.326,0-4.214,1.925-4.214,4.304c0,2.38,1.888,4.306,4.214,4.306C75.893,25.086,77.777,23.16,77.777,20.78"/>
			
				<ellipse fill="none" stroke="#231F20" stroke-width="0.25" stroke-linecap="round" stroke-miterlimit="2.818" cx="73.564" cy="20.782" rx="4.213" ry="4.306"/>
			
				<rect x="19.867" y="7.564" fill="#CFBF30" stroke="#231F20" stroke-width="0.5" stroke-miterlimit="2.818" width="2.411" height="26.434"/>
			
				<rect x="19.87" y="7.567" fill="none" stroke="#231F20" stroke-width="0.25" stroke-linecap="round" stroke-miterlimit="2.818" width="2.411" height="26.433"/>
			
				<rect x="1" y="17.72" fill="#CFBF30" stroke="#231F20" stroke-width="0.5" stroke-miterlimit="2.818" width="18.868" height="6.122"/>
			
				<rect x="1" y="17.72" fill="none" stroke="#231F20" stroke-width="0.25" stroke-linecap="round" stroke-miterlimit="2.818" width="18.87" height="6.125"/>
			
				<polyline fill-rule="evenodd" clip-rule="evenodd" fill="#CFBF30" stroke="#231F20" stroke-width="0.5" stroke-miterlimit="2.818" points="
				14.592,15.65 6.275,15.65 5.526,15.855 4.978,16.417 4.777,17.182 4.777,24.379 4.978,25.145 5.526,25.703 6.275,25.909 
				14.592,25.909 15.343,25.703 15.89,25.145 16.088,24.379 16.088,17.182 15.89,16.417 15.343,15.855 			"/>
			<polygon fill="none" stroke="#231F20" stroke-width="0.5" stroke-linecap="round" stroke-miterlimit="2.818" points="
				14.593,15.652 6.278,15.652 5.527,15.858 4.979,16.417 4.777,17.184 4.777,24.379 4.979,25.146 5.527,25.707 6.278,25.911 
				14.593,25.911 15.343,25.707 15.89,25.146 16.091,24.379 16.091,17.184 15.89,16.417 15.343,15.858 			"/>
			<path fill-rule="evenodd" clip-rule="evenodd" fill="#CFBF30" d="M14.648,20.78c0-2.379-1.888-4.304-4.213-4.304
				c-2.328,0-4.216,1.925-4.216,4.304c0,2.38,1.889,4.306,4.216,4.306C12.76,25.086,14.648,23.16,14.648,20.78"/>
			
				<ellipse fill="none" stroke="#231F20" stroke-width="0.25" stroke-linecap="round" stroke-miterlimit="2.818" cx="10.434" cy="20.782" rx="4.215" ry="4.306"/>
		</g>
	</g>
</g>
</svg>
