<?xml version="1.0" encoding="utf-8"?>
<!-- Generator: Adobe Illustrator 19.2.1, SVG Export Plug-In . SVG Version: 6.00 Build 0)  -->
<svg version="1.1" id="Layer_1" xmlns="http://www.w3.org/2000/svg" xmlns:xlink="http://www.w3.org/1999/xlink" x="0px" y="0px"
	 viewBox="0 0 220 220" style="enable-background:new 0 0 220 220;" xml:space="preserve">
<style type="text/css">
	.st0{fill:#F04D4D;}
	.st1{fill:#FFFFFF;}
</style>
<g>
	<path class="st0" d="M215.6,110L215.6,110c0-29.1-23.6-52.7-52.7-52.8c0,1.3,0,2.7-0.2,4v-4h0h0.2h0c0-29.2-23.7-52.8-52.9-52.8
		C80.9,4.3,57.2,28,57.2,57.2C28.1,57.2,4.4,80.8,4.4,110h0c0,0,0,0,0,0c0,0,0,0,0,0h0c0,29.1,23.7,52.7,52.8,52.8
		c0-1.3-0.1-2.7,0-4v0v4v0c0,29.1,23.6,52.8,52.7,52.8h0.1c29.1,0,52.8-23.7,52.8-52.8v0v0c0,0,0,0,0,0c0,0,0,0,0,0h0c0,0,0,0,0,0
		C191.9,162.7,215.6,139.1,215.6,110z M162.8,161.3c0-0.3,0-0.6,0-0.8v-1.6C162.8,159.6,162.8,160.4,162.8,161.3z"/>
</g>
<g>
	<path class="st1" d="M43.8,108.1h-2.6V97.7H29.5v10.5h-2.6V85.9h2.6v9.5h11.7v-9.5h2.6V108.1z"/>
	<path class="st1" d="M56.5,108.4c-2.5,0-4.4-0.8-5.8-2.2c-1.4-1.5-2.1-3.6-2.1-6.2c0-2.7,0.7-4.8,2-6.4s3.1-2.4,5.3-2.4
		c2.1,0,3.7,0.7,5,2.1c1.2,1.4,1.8,3.2,1.8,5.4v1.6H51.2c0.1,2,0.5,3.4,1.5,4.5c0.9,1,2.3,1.5,4,1.5c1.8,0,3.6-0.4,5.3-1.1v2.3
		c-0.9,0.4-1.7,0.7-2.5,0.8C58.6,108.3,57.6,108.4,56.5,108.4z M55.8,93.3c-1.3,0-2.4,0.4-3.2,1.3c-0.8,0.9-1.3,2.1-1.4,3.6h8.7
		c0-1.6-0.4-2.8-1.1-3.7S57.1,93.3,55.8,93.3z"/>
	<path class="st1" d="M88.2,108.1V97.3c0-1.3-0.3-2.3-0.9-3c-0.6-0.7-1.4-1-2.6-1c-1.6,0-2.7,0.5-3.5,1.4c-0.8,0.9-1.1,2.3-1.1,4.2
		v9.3h-2.5V97.3c0-1.3-0.3-2.3-0.9-3s-1.5-1-2.7-1c-1.6,0-2.7,0.5-3.5,1.4c-0.7,0.9-1.1,2.5-1.1,4.7v8.7h-2.5V91.5H69l0.4,2.3h0.1
		c0.5-0.8,1.1-1.4,2-1.9c0.9-0.5,1.8-0.7,2.9-0.7c2.6,0,4.3,0.9,5.1,2.8h0.1c0.5-0.9,1.2-1.6,2.2-2.1s2-0.8,3.2-0.8
		c1.9,0,3.3,0.5,4.2,1.5s1.4,2.5,1.4,4.6v10.9H88.2z"/>
	<path class="st1" d="M115.7,108.1h-2.6l-4.5-14.9c-0.2-0.7-0.5-1.5-0.7-2.5c-0.3-1-0.4-1.6-0.4-1.8c-0.2,1.3-0.6,2.8-1.1,4.4
		l-4.3,14.8h-2.6l-5.9-22.2h2.7l3.5,13.7c0.5,1.9,0.8,3.7,1.1,5.2c0.3-1.9,0.7-3.7,1.2-5.4l4-13.5h2.7l4.2,13.6
		c0.5,1.6,0.9,3.3,1.2,5.3c0.2-1.4,0.6-3.2,1.1-5.3l3.5-13.7h2.7L115.7,108.1z"/>
	<path class="st1" d="M131.8,108.4c-2.5,0-4.4-0.8-5.8-2.2c-1.4-1.5-2.1-3.6-2.1-6.2c0-2.7,0.7-4.8,2-6.4c1.3-1.6,3.1-2.4,5.3-2.4
		c2.1,0,3.7,0.7,5,2.1c1.2,1.4,1.8,3.2,1.8,5.4v1.6h-11.5c0.1,2,0.5,3.4,1.5,4.5c0.9,1,2.3,1.5,4,1.5c1.8,0,3.6-0.4,5.3-1.1v2.3
		c-0.9,0.4-1.7,0.7-2.5,0.8C133.8,108.3,132.9,108.4,131.8,108.4z M131.1,93.3c-1.3,0-2.4,0.4-3.2,1.3c-0.8,0.9-1.3,2.1-1.4,3.6h8.7
		c0-1.6-0.4-2.8-1.1-3.7C133.4,93.7,132.4,93.3,131.1,93.3z"/>
	<path class="st1" d="M144.7,108.1h-2.5V84.5h2.5V108.1z"/>
	<path class="st1" d="M152.6,108.1h-2.5V84.5h2.5V108.1z"/>
	<path class="st1" d="M169,108.1h-2.6V85.9h12.4v2.3H169v8.1h9.2v2.3H169V108.1z"/>
	<path class="st1" d="M182.5,108.1V85.9h2.6v22.2H182.5z"/>
	<path class="st1" d="M46.2,137.1h-2.6v-19.9h-7v-2.3h16.7v2.3h-7V137.1z"/>
	<path class="st1" d="M70.6,128.8c0,2.7-0.7,4.8-2.1,6.4c-1.4,1.5-3.3,2.3-5.7,2.3c-1.5,0-2.8-0.3-4-1c-1.2-0.7-2-1.7-2.7-3
		c-0.6-1.3-0.9-2.8-0.9-4.6c0-2.7,0.7-4.8,2-6.3c1.4-1.5,3.2-2.3,5.7-2.3c2.3,0,4.2,0.8,5.6,2.3C69.9,124,70.6,126.1,70.6,128.8z
		 M57.9,128.8c0,2.1,0.4,3.8,1.3,4.9c0.9,1.1,2.1,1.7,3.8,1.7c1.7,0,2.9-0.6,3.8-1.7c0.9-1.1,1.3-2.7,1.3-4.9c0-2.1-0.4-3.7-1.3-4.8
		c-0.9-1.1-2.1-1.6-3.8-1.6c-1.7,0-2.9,0.5-3.7,1.6C58.3,125,57.9,126.6,57.9,128.8z"/>
	<path class="st1" d="M80.4,135.3c0.4,0,0.9,0,1.3-0.1c0.4-0.1,0.7-0.1,1-0.2v1.9c-0.3,0.1-0.7,0.2-1.2,0.3c-0.5,0.1-1,0.1-1.4,0.1
		c-3.2,0-4.8-1.7-4.8-5.1v-9.9h-2.4v-1.2l2.4-1l1.1-3.6h1.5v3.9h4.8v2h-4.8v9.8c0,1,0.2,1.8,0.7,2.3S79.5,135.3,80.4,135.3z"/>
	<path class="st1" d="M96.2,137.1l-0.5-2.4h-0.1c-0.8,1-1.7,1.8-2.5,2.1s-1.9,0.6-3.1,0.6c-1.7,0-2.9-0.4-3.9-1.3
		c-0.9-0.9-1.4-2.1-1.4-3.6c0-3.4,2.7-5.1,8.1-5.3l2.8-0.1v-1c0-1.3-0.3-2.3-0.8-2.9c-0.6-0.6-1.5-0.9-2.7-0.9c-1.4,0-3,0.4-4.7,1.3
		l-0.8-1.9c0.8-0.4,1.7-0.8,2.7-1c1-0.3,2-0.4,2.9-0.4c2,0,3.5,0.4,4.4,1.3c1,0.9,1.4,2.3,1.4,4.2v11.4H96.2z M90.5,135.3
		c1.6,0,2.8-0.4,3.7-1.3s1.3-2.1,1.3-3.6v-1.5l-2.5,0.1c-2,0.1-3.5,0.4-4.3,0.9c-0.9,0.6-1.3,1.4-1.3,2.6c0,0.9,0.3,1.6,0.8,2.1
		C88.8,135.1,89.5,135.3,90.5,135.3z"/>
	<path class="st1" d="M105.8,137.1h-2.5v-23.7h2.5V137.1z"/>
	<path class="st1" d="M129.2,116.9c-2.4,0-4.4,0.8-5.8,2.4c-1.4,1.6-2.1,3.9-2.1,6.7c0,2.9,0.7,5.2,2,6.7c1.4,1.6,3.3,2.4,5.8,2.4
		c1.6,0,3.3-0.3,5.3-0.8v2.3c-1.5,0.6-3.4,0.9-5.7,0.9c-3.3,0-5.8-1-7.6-3c-1.8-2-2.7-4.8-2.7-8.5c0-2.3,0.4-4.3,1.3-6s2.1-3,3.7-4
		s3.5-1.4,5.7-1.4c2.3,0,4.4,0.4,6.1,1.3l-1.1,2.2C132.5,117.3,130.8,116.9,129.2,116.9z"/>
	<path class="st1" d="M149.1,137.1l-0.5-2.4h-0.1c-0.8,1-1.7,1.8-2.5,2.1c-0.8,0.4-1.9,0.6-3.1,0.6c-1.7,0-2.9-0.4-3.9-1.3
		c-0.9-0.9-1.4-2.1-1.4-3.6c0-3.4,2.7-5.1,8.1-5.3l2.8-0.1v-1c0-1.3-0.3-2.3-0.8-2.9c-0.6-0.6-1.5-0.9-2.7-0.9c-1.4,0-3,0.4-4.7,1.3
		l-0.8-1.9c0.8-0.4,1.7-0.8,2.7-1c1-0.3,2-0.4,2.9-0.4c2,0,3.5,0.4,4.4,1.3c1,0.9,1.4,2.3,1.4,4.2v11.4H149.1z M143.4,135.3
		c1.6,0,2.8-0.4,3.7-1.3s1.3-2.1,1.3-3.6v-1.5L146,129c-2,0.1-3.5,0.4-4.3,0.9c-0.9,0.6-1.3,1.4-1.3,2.6c0,0.9,0.3,1.6,0.8,2.1
		C141.7,135.1,142.4,135.3,143.4,135.3z"/>
	<path class="st1" d="M163.8,120.1c0.7,0,1.4,0.1,2,0.2l-0.3,2.3c-0.7-0.2-1.3-0.2-1.8-0.2c-1.3,0-2.5,0.5-3.5,1.6
		c-1,1.1-1.4,2.5-1.4,4.1v8.9h-2.5v-16.7h2.1l0.3,3.1h0.1c0.6-1.1,1.4-1.9,2.2-2.5C161.8,120.4,162.8,120.1,163.8,120.1z"/>
	<path class="st1" d="M176,137.4c-2.5,0-4.4-0.8-5.8-2.2c-1.4-1.5-2.1-3.6-2.1-6.2c0-2.7,0.7-4.8,2-6.4c1.3-1.6,3.1-2.4,5.3-2.4
		c2.1,0,3.7,0.7,5,2.1c1.2,1.4,1.8,3.2,1.8,5.4v1.6h-11.5c0.1,2,0.5,3.4,1.5,4.5c0.9,1,2.3,1.5,4,1.5c1.8,0,3.6-0.4,5.3-1.1v2.3
		c-0.9,0.4-1.7,0.7-2.5,0.8C178,137.3,177.1,137.4,176,137.4z M175.3,122.3c-1.3,0-2.4,0.4-3.2,1.3c-0.8,0.9-1.3,2.1-1.4,3.6h8.7
		c0-1.6-0.4-2.8-1.1-3.7C177.6,122.7,176.6,122.3,175.3,122.3z"/>
</g>
</svg>
