<?xml version="1.0" encoding="utf-8"?>
<!-- Generator: Adobe Illustrator 16.0.0, SVG Export Plug-In . SVG Version: 6.00 Build 0)  -->
<!DOCTYPE svg PUBLIC "-//W3C//DTD SVG 1.1//EN" "http://www.w3.org/Graphics/SVG/1.1/DTD/svg11.dtd">
<svg version="1.1" id="Layer_1" xmlns="http://www.w3.org/2000/svg" xmlns:xlink="http://www.w3.org/1999/xlink" x="0px" y="0px"
	 width="57px" height="83px" viewBox="0 0 57 83" enable-background="new 0 0 57 83" xml:space="preserve">
<g>
	<path fill-rule="evenodd" clip-rule="evenodd" fill="#FFFBD9" d="M3.602,0h49.296c1.988,0,3.601,1.669,3.601,3.729v75.039
		c0,2.059-1.612,3.729-3.601,3.729H3.602C1.613,82.497,0,80.827,0,78.769V3.729C0,1.669,1.613,0,3.602,0"/>
	<path fill="none" stroke="#231F20" stroke-width="0.1806" stroke-linecap="round" stroke-miterlimit="2.818" d="M3.604,0.003
		h49.296c1.988,0,3.601,1.669,3.601,3.729v75.039c0,2.06-1.612,3.729-3.601,3.729H3.604c-1.989,0-3.602-1.669-3.602-3.729V3.732
		C0.002,1.672,1.615,0.003,3.604,0.003z"/>
	<rect x="10.892" y="43.197" fill="#DCD5EA" width="34.891" height="34.653"/>
	
		<rect x="10.894" y="43.201" fill="none" stroke="#231F20" stroke-width="0.1806" stroke-linecap="round" stroke-miterlimit="2.818" width="34.891" height="34.653"/>
	<path fill-rule="evenodd" clip-rule="evenodd" fill="#E22E28" d="M40.911,73.953l-0.787-0.898l-0.785-0.896h0.629v-0.673
		l-0.419-1.236c-0.679-1.987-0.508-3.588-0.262-5.609l0.157,0.223l0.157,0.45l0.052,0.225l0.155-1.515l0.159-1.515l0.21,0.673
		l0.208,0.674c-0.001-1.051,0.49-2.913,0.525-4.039"/>
	<path fill="none" stroke="#E22E28" stroke-width="0.1806" stroke-linecap="round" stroke-miterlimit="2.818" d="M40.912,73.956
		l-1.571-1.796h0.629v-0.672l-0.419-1.235c-0.679-1.983-0.507-3.593-0.263-5.609l0.158,0.224l0.156,0.449l0.053,0.225l0.314-3.029
		l0.418,1.347c-0.002-1.053,0.491-2.911,0.524-4.039"/>
	<path fill-rule="evenodd" clip-rule="evenodd" fill="#E22E28" d="M40.911,73.953l0.838-0.898l0.838-0.896h-0.732v-0.673h0.051
		c1.13-2.438,0.957-4.244,0.735-6.846l-0.158,0.223l-0.157,0.45l-0.053,0.225l-0.208-1.515l-0.21-1.515l-0.314,1.347
		c0.03-1.023-0.55-2.996-0.629-4.039"/>
	<path fill="none" stroke="#E22E28" stroke-width="0.1806" stroke-linecap="round" stroke-miterlimit="2.818" d="M40.912,73.956
		l1.677-1.796h-0.733v-0.672h0.052c1.13-2.45,0.955-4.23,0.734-6.845l-0.158,0.224l-0.157,0.449l-0.052,0.225l-0.209-1.516
		l-0.21-1.514l-0.314,1.347c0.03-1.025-0.549-2.997-0.629-4.039"/>
	<path fill-rule="evenodd" clip-rule="evenodd" fill="#F4EA19" d="M40.911,73.729l-0.682-0.729l-0.681-0.729h0.629v-1.01h-0.054
		c-0.83-1.37-0.925-3.515-0.563-5.036l0.092,0.212l0.155,0.504l0.055,0.057l0.157-1.233l0.157-1.235l0.104,0.562l0.104,0.561
		c-0.016-0.735,0.511-2.424,0.525-3.254"/>
	<path fill="none" stroke="#E22E28" stroke-width="0.1806" stroke-linecap="round" stroke-miterlimit="2.818" d="M40.912,73.731
		l-1.361-1.458h0.629v-1.01h-0.054c-0.834-1.379-0.923-3.505-0.563-5.035l0.092,0.211l0.156,0.504l0.054,0.056l0.156-1.233
		l0.158-1.234l0.104,0.561l0.104,0.562c-0.016-0.737,0.512-2.422,0.524-3.255"/>
	<path fill-rule="evenodd" clip-rule="evenodd" fill="#F4EA19" d="M40.806,73.729l0.682-0.729l0.681-0.729h-0.523
		c-0.062-2.13,1.327-3.399,0.51-6.046l-0.091,0.212l-0.158,0.504l-0.051,0.057l-0.105-1.233l-0.104-1.235l-0.314,1.122
		c0.016-0.737-0.511-2.424-0.524-3.254"/>
	<path fill="none" stroke="#E22E28" stroke-width="0.1806" stroke-linecap="round" stroke-miterlimit="2.818" d="M40.808,73.731
		l1.361-1.458h-0.523c-0.065-2.136,1.327-3.351,0.511-6.045l-0.091,0.211l-0.158,0.504l-0.052,0.056l-0.104-1.233l-0.105-1.234
		l-0.157,0.561l-0.157,0.562c0.017-0.737-0.512-2.422-0.523-3.255"/>
	<path fill-rule="evenodd" clip-rule="evenodd" fill="#E22E28" d="M34.624,73.953l-0.786-0.898l-0.786-0.896h0.63v-0.673
		l-0.418-1.236c-0.681-1.987-0.509-3.588-0.264-5.609l0.157,0.223l0.157,0.45l0.053,0.225l0.156-1.515l0.158-1.515l0.209,0.673
		l0.208,0.674c0-1.051,0.491-2.913,0.525-4.039"/>
	<path fill="none" stroke="#E22E28" stroke-width="0.1806" stroke-linecap="round" stroke-miterlimit="2.818" d="M34.625,73.956
		l-1.571-1.796h0.63v-0.672l-0.419-1.235c-0.679-1.981-0.509-3.594-0.263-5.609l0.157,0.224l0.156,0.449l0.054,0.225l0.314-3.029
		l0.418,1.347c-0.003-1.053,0.491-2.911,0.523-4.039"/>
	<path fill-rule="evenodd" clip-rule="evenodd" fill="#E22E28" d="M34.624,73.953l0.838-0.898l0.839-0.896h-0.733v-0.673h0.052
		c1.13-2.438,0.957-4.244,0.733-6.846l-0.157,0.223l-0.157,0.45l-0.052,0.225l-0.209-1.515l-0.21-1.515l-0.313,1.347
		c0.03-1.023-0.551-2.996-0.63-4.039"/>
	<path fill="none" stroke="#E22E28" stroke-width="0.1806" stroke-linecap="round" stroke-miterlimit="2.818" d="M34.625,73.956
		l1.678-1.796h-0.734v-0.672h0.053c1.13-2.45,0.955-4.23,0.732-6.845l-0.157,0.224l-0.157,0.449l-0.051,0.225l-0.21-1.516
		l-0.21-1.514l-0.313,1.347c0.029-1.025-0.55-2.997-0.63-4.039"/>
	<path fill-rule="evenodd" clip-rule="evenodd" fill="#F4EA19" d="M34.624,73.729l-0.681-0.729l-0.68-0.729h0.627v-1.01h-0.053
		c-0.832-1.37-0.924-3.515-0.563-5.036l0.093,0.212l0.156,0.504l0.053,0.057l0.156-1.233l0.158-1.235l0.105,0.562l0.103,0.561
		c-0.016-0.735,0.512-2.424,0.525-3.254"/>
	<path fill="none" stroke="#E22E28" stroke-width="0.1806" stroke-linecap="round" stroke-miterlimit="2.818" d="M34.625,73.731
		l-1.36-1.458h0.628v-1.01H33.84c-0.835-1.379-0.923-3.505-0.563-5.035l0.093,0.211l0.157,0.504l0.051,0.056l0.157-1.233
		l0.158-1.234l0.104,0.561l0.105,0.562c-0.017-0.737,0.511-2.422,0.523-3.255"/>
	<path fill-rule="evenodd" clip-rule="evenodd" fill="#F4EA19" d="M34.519,73.729l0.682-0.729l0.682-0.729h-0.523
		c-0.062-2.13,1.327-3.399,0.51-6.046l-0.092,0.212l-0.157,0.504l-0.052,0.057l-0.105-1.233l-0.104-1.235l-0.316,1.122
		c0.018-0.737-0.509-2.424-0.523-3.254"/>
	<path fill="none" stroke="#E22E28" stroke-width="0.1806" stroke-linecap="round" stroke-miterlimit="2.818" d="M34.521,73.731
		l1.362-1.458h-0.523c-0.065-2.136,1.327-3.351,0.511-6.045l-0.092,0.211l-0.157,0.504l-0.053,0.056l-0.209-2.468l-0.157,0.561
		l-0.158,0.562c0.018-0.737-0.511-2.422-0.523-3.255"/>
	<path fill-rule="evenodd" clip-rule="evenodd" fill="#E22E28" d="M28.338,73.953l-0.787-0.898l-0.786-0.896h0.629v-0.673
		l-0.42-1.236c-0.679-1.987-0.507-3.588-0.261-5.609l0.157,0.223l0.158,0.45l0.052,0.225l0.158-1.515l0.157-1.515l0.419,1.347
		c-0.003-1.053,0.492-2.91,0.524-4.039"/>
	<path fill="none" stroke="#E22E28" stroke-width="0.1806" stroke-linecap="round" stroke-miterlimit="2.818" d="M28.338,73.956
		l-1.571-1.796h0.628v-0.672l-0.419-1.235c-0.678-1.983-0.506-3.593-0.262-5.609l0.158,0.224l0.157,0.449l0.053,0.225l0.314-3.029
		l0.419,1.347c-0.002-1.053,0.491-2.911,0.523-4.039"/>
	<path fill-rule="evenodd" clip-rule="evenodd" fill="#E22E28" d="M28.338,73.953l0.839-0.898l0.837-0.896h-0.732v-0.673h0.052
		c1.129-2.438,0.956-4.244,0.734-6.846l-0.158,0.223l-0.157,0.45l-0.053,0.225l-0.207-1.515l-0.211-1.515l-0.157,0.673l-0.157,0.674
		c0.032-1.024-0.552-2.995-0.629-4.039"/>
	<path fill="none" stroke="#E22E28" stroke-width="0.1806" stroke-linecap="round" stroke-miterlimit="2.818" d="M28.338,73.956
		l1.678-1.796h-0.733v-0.672h0.052c1.131-2.45,0.955-4.23,0.734-6.845l-0.158,0.224l-0.157,0.449l-0.052,0.225l-0.419-3.029
		l-0.158,0.673l-0.156,0.674c0.031-1.025-0.551-2.997-0.63-4.039"/>
	<path fill-rule="evenodd" clip-rule="evenodd" fill="#F4EA19" d="M28.338,73.729l-0.681-0.729l-0.682-0.729h0.629v-1.01h-0.053
		c-0.833-1.369-0.924-3.516-0.562-5.036l0.09,0.212l0.158,0.504l0.052,0.057l0.158-1.233l0.157-1.235l0.209,1.122
		c-0.017-0.737,0.513-2.421,0.524-3.254"/>
	<path fill="none" stroke="#E22E28" stroke-width="0.1806" stroke-linecap="round" stroke-miterlimit="2.818" d="M28.338,73.731
		l-1.361-1.458h0.629v-1.01h-0.053c-0.834-1.379-0.923-3.505-0.563-5.035l0.091,0.211l0.157,0.504l0.053,0.056l0.157-1.233
		l0.158-1.234l0.104,0.561l0.104,0.562c-0.017-0.737,0.512-2.422,0.523-3.255"/>
	<path fill-rule="evenodd" clip-rule="evenodd" fill="#F4EA19" d="M28.231,73.729l0.683-0.729l0.681-0.729h-0.521
		c-0.063-2.13,1.326-3.401,0.508-6.046l-0.091,0.212l-0.157,0.504l-0.052,0.057l-0.105-1.233l-0.103-1.235l-0.159,0.562
		l-0.157,0.561c0.015-0.737-0.51-2.424-0.525-3.254"/>
	<path fill="none" stroke="#E22E28" stroke-width="0.1806" stroke-linecap="round" stroke-miterlimit="2.818" d="M28.233,73.731
		l1.362-1.458h-0.522c-0.066-2.136,1.326-3.351,0.51-6.045l-0.091,0.211l-0.158,0.504l-0.052,0.056l-0.104-1.233l-0.104-1.234
		l-0.158,0.561l-0.158,0.562c0.017-0.737-0.51-2.422-0.523-3.255"/>
	<path fill-rule="evenodd" clip-rule="evenodd" fill="#E22E28" d="M22.051,73.953l-0.786-0.898l-0.787-0.896h0.629v-0.673
		l-0.418-1.236c-0.678-1.981-0.508-3.595-0.261-5.609l0.156,0.223l0.158,0.45l0.052,0.225l0.157-1.515l0.158-1.515l0.419,1.347
		c-0.003-1.053,0.493-2.91,0.524-4.039"/>
	<path fill="none" stroke="#E22E28" stroke-width="0.1806" stroke-linecap="round" stroke-miterlimit="2.818" d="M22.052,73.956
		L20.48,72.16h0.629v-0.672l-0.419-1.235c-0.678-1.983-0.506-3.593-0.261-5.609l0.157,0.224l0.157,0.449l0.053,0.225l0.314-3.029
		l0.418,1.347c-0.002-1.053,0.492-2.911,0.524-4.039"/>
	<path fill-rule="evenodd" clip-rule="evenodd" fill="#E22E28" d="M22.051,73.953l0.838-0.898l0.837-0.896h-0.733v-0.673h0.053
		c1.129-2.438,0.956-4.244,0.733-6.846l-0.157,0.223l-0.157,0.45l-0.053,0.225l-0.209-1.515l-0.21-1.515l-0.156,0.673l-0.158,0.674
		c0.032-1.024-0.55-2.995-0.629-4.039"/>
	<path fill="none" stroke="#E22E28" stroke-width="0.1806" stroke-linecap="round" stroke-miterlimit="2.818" d="M22.052,73.956
		l1.677-1.796h-0.735v-0.672h0.054c1.129-2.45,0.954-4.23,0.733-6.845l-0.158,0.224l-0.157,0.449l-0.052,0.225l-0.421-3.029
		l-0.313,1.347c0.031-1.025-0.55-2.997-0.629-4.039"/>
	<path fill-rule="evenodd" clip-rule="evenodd" fill="#F4EA19" d="M22.051,73.729l-0.681-0.729l-0.681-0.729h0.628v-1.01h-0.052
		c-0.833-1.365-0.924-3.518-0.563-5.036l0.09,0.212l0.157,0.504l0.053,0.057l0.157-1.233l0.158-1.235l0.104,0.562l0.105,0.561
		c-0.018-0.737,0.513-2.421,0.524-3.254"/>
	<path fill="none" stroke="#E22E28" stroke-width="0.1806" stroke-linecap="round" stroke-miterlimit="2.818" d="M22.052,73.731
		l-1.362-1.458h0.629v-1.01h-0.053c-0.834-1.379-0.924-3.505-0.563-5.035l0.091,0.211l0.158,0.504l0.051,0.056l0.157-1.233
		l0.158-1.234l0.104,0.561l0.105,0.562c-0.016-0.737,0.512-2.422,0.524-3.255"/>
	<path fill-rule="evenodd" clip-rule="evenodd" fill="#F4EA19" d="M21.946,73.729l0.681-0.729l0.682-0.729h-0.524
		c-0.063-2.133,1.326-3.376,0.51-6.046l-0.091,0.212l-0.158,0.504l-0.053,0.057l-0.105-1.233l-0.104-1.235l-0.315,1.122
		c0.017-0.737-0.509-2.424-0.523-3.254"/>
	<path fill="none" stroke="#E22E28" stroke-width="0.1806" stroke-linecap="round" stroke-miterlimit="2.818" d="M21.947,73.731
		l1.363-1.458h-0.524c-0.065-2.136,1.326-3.351,0.511-6.045l-0.092,0.211l-0.157,0.504l-0.054,0.056l-0.104-1.233l-0.105-1.234
		l-0.157,0.561l-0.157,0.562c0.017-0.737-0.511-2.422-0.524-3.255"/>
	<path fill-rule="evenodd" clip-rule="evenodd" fill="#E22E28" d="M15.763,73.953l-0.786-0.898l-0.785-0.896h0.628v-0.673
		l-0.419-1.236c-0.678-1.981-0.508-3.595-0.262-5.609l0.156,0.223l0.158,0.45l0.053,0.225l0.156-1.515l0.159-1.515l0.21,0.673
		l0.208,0.674c-0.003-1.053,0.493-2.91,0.524-4.039"/>
	<path fill="none" stroke="#E22E28" stroke-width="0.1806" stroke-linecap="round" stroke-miterlimit="2.818" d="M15.765,73.956
		l-1.571-1.796h0.629v-0.672l-0.419-1.235c-0.678-1.983-0.506-3.593-0.263-5.609l0.158,0.224l0.157,0.449l0.053,0.225l0.314-3.029
		l0.418,1.347c-0.002-1.053,0.492-2.911,0.524-4.039"/>
	<path fill-rule="evenodd" clip-rule="evenodd" fill="#E22E28" d="M15.763,73.953l0.838-0.898l0.838-0.896h-0.734v-0.673h0.054
		c1.128-2.438,0.955-4.244,0.731-6.846l-0.157,0.223l-0.157,0.45l-0.052,0.225l-0.209-1.515l-0.211-1.515l-0.313,1.347
		c0.031-1.023-0.549-2.996-0.629-4.039"/>
	<path fill="none" stroke="#E22E28" stroke-width="0.1806" stroke-linecap="round" stroke-miterlimit="2.818" d="M15.765,73.956
		l1.677-1.796h-0.733v-0.672h0.052c1.13-2.45,0.955-4.23,0.734-6.845l-0.158,0.224l-0.157,0.449l-0.052,0.225l-0.21-1.516
		l-0.209-1.514l-0.314,1.347c0.031-1.025-0.549-2.997-0.629-4.039"/>
	<path fill-rule="evenodd" clip-rule="evenodd" fill="#F4EA19" d="M15.763,73.729l-0.681-0.729l-0.681-0.729h0.629v-1.01h-0.054
		c-0.831-1.375-0.923-3.509-0.563-5.036l0.092,0.212l0.156,0.504l0.053,0.057l0.158-1.233l0.158-1.235l0.104,0.562l0.105,0.561
		c-0.018-0.737,0.513-2.421,0.524-3.254"/>
	<path fill="none" stroke="#E22E28" stroke-width="0.1806" stroke-linecap="round" stroke-miterlimit="2.818" d="M15.765,73.731
		l-1.361-1.458h0.629v-1.01H14.98c-0.834-1.379-0.923-3.505-0.563-5.035l0.091,0.211l0.157,0.504l0.053,0.056l0.314-2.468
		l0.104,0.561l0.104,0.562c-0.017-0.737,0.512-2.422,0.524-3.255"/>
	<path fill-rule="evenodd" clip-rule="evenodd" fill="#F4EA19" d="M15.659,73.729l0.681-0.729l0.681-0.729h-0.524
		c-0.061-2.13,1.328-3.399,0.511-6.046l-0.091,0.212l-0.157,0.504l-0.052,0.057l-0.106-1.233l-0.104-1.235l-0.313,1.122
		c0.017-0.737-0.513-2.421-0.524-3.254"/>
	<path fill="none" stroke="#E22E28" stroke-width="0.1806" stroke-linecap="round" stroke-miterlimit="2.818" d="M15.661,73.731
		l1.361-1.458h-0.524c-0.065-2.136,1.327-3.351,0.511-6.045l-0.092,0.211l-0.158,0.504l-0.052,0.056l-0.105-1.233l-0.105-1.234
		l-0.156,0.561l-0.158,0.562c0.017-0.737-0.511-2.422-0.523-3.255"/>
	<rect x="12.416" y="71.216" fill="#231F20" width="31.842" height="4.433"/>
	
		<rect x="12.418" y="71.219" fill="none" stroke="#231F20" stroke-width="0.1806" stroke-linecap="round" stroke-miterlimit="2.818" width="31.841" height="4.434"/>
	<path fill="none" d="M9.679,5.544C7.267,5.55,5.325,7.56,5.319,10.059V38.62l0.085,0.881l0.249,0.847l0.402,0.781
		c0.813,1.254,2.168,2.006,3.625,2.006h37.052l0.85-0.087l0.817-0.256l0.754-0.417c1.218-0.852,1.932-2.234,1.938-3.755V10.059
		l-0.085-0.88l-0.248-0.848l-0.401-0.78c-0.814-1.255-2.165-2.005-3.624-2.006"/>
	<linearGradient id="SVGID_1_" gradientUnits="userSpaceOnUse" x1="32.5391" y1="42.3623" x2="23.5618" y2="5.0171">
		<stop  offset="0" style="stop-color:#FAC6C4"/>
		<stop  offset="1" style="stop-color:#EB2727"/>
	</linearGradient>
	<path fill="url(#SVGID_1_)" stroke="#231F20" stroke-width="0.1806" stroke-linecap="round" stroke-miterlimit="2.818" d="
		M9.681,5.547h37.052c2.407,0,4.359,2.021,4.359,4.514v28.563c0,2.493-1.952,4.514-4.359,4.514H9.681
		c-2.407,0-4.359-2.021-4.359-4.514V10.062C5.322,7.568,7.274,5.547,9.681,5.547z"/>
	<path fill-rule="evenodd" clip-rule="evenodd" fill="#F3F0F1" d="M49.148,38.205c0-1.565-1.224-2.833-2.735-2.833
		c-1.511,0-2.736,1.268-2.736,2.833c0,1.564,1.226,2.833,2.736,2.833C47.925,41.038,49.148,39.77,49.148,38.205"/>
	
		<ellipse fill="none" stroke="#231F20" stroke-width="0.1806" stroke-linecap="round" stroke-miterlimit="2.818" cx="46.415" cy="38.208" rx="2.735" ry="2.833"/>
	<path fill-rule="evenodd" clip-rule="evenodd" fill="#F3F0F1" d="M12.732,10.475c0-1.565-1.225-2.833-2.736-2.833
		S7.26,8.909,7.26,10.475s1.225,2.833,2.736,2.833S12.732,12.04,12.732,10.475"/>
	
		<ellipse fill="none" stroke="#231F20" stroke-width="0.1806" stroke-linecap="round" stroke-miterlimit="2.818" cx="9.997" cy="10.477" rx="2.736" ry="2.833"/>
</g>
</svg>
