<?xml version="1.0" encoding="utf-8"?>
<!-- Generator: Adobe Illustrator 16.0.0, SVG Export Plug-In . SVG Version: 6.00 Build 0)  -->
<!DOCTYPE svg PUBLIC "-//W3C//DTD SVG 1.1//EN" "http://www.w3.org/Graphics/SVG/1.1/DTD/svg11.dtd">
<svg version="1.1" id="Layer_1" xmlns="http://www.w3.org/2000/svg" xmlns:xlink="http://www.w3.org/1999/xlink" x="0px" y="0px"
	 width="21px" height="21px" viewBox="0 0 21 21" enable-background="new 0 0 21 21" xml:space="preserve">
<g>
	<g>
		<path fill="#99A6BF" d="M14.048,7.61c-1.495,0-2.105,1.306-2.105,2.659s0.61,2.656,2.105,2.656c1.496,0,2.107-1.303,2.107-2.656
			S15.544,7.61,14.048,7.61z M10.5,1C5.253,1,1,5.252,1,10.499C1,15.745,5.253,20,10.5,20c5.246,0,9.5-4.255,9.5-9.501
			C20,5.252,15.746,1,10.5,1z M6.947,14.72c-2.681,0-4.188-2.011-4.188-4.451c0-2.586,1.664-4.454,4.224-4.454
			c1.173,0,2.574,0.335,2.574,1.353c0,0.468-0.335,0.922-0.838,0.922c-0.455,0-0.934-0.407-1.688-0.407
			c-1.568,0-2.189,1.269-2.189,2.586c0,1.353,0.694,2.512,2.022,2.512c1.209,0,1.4-0.395,1.903-0.395
			c0.766,0,0.861,0.646,0.861,0.897C9.628,14.35,8.012,14.72,6.947,14.72z M14.048,14.72c-2.524,0-4.188-1.748-4.188-4.451
			c0-2.706,1.664-4.454,4.188-4.454c2.525,0,4.189,1.748,4.189,4.454C18.237,12.972,16.573,14.72,14.048,14.72z"/>
	</g>
</g>
</svg>
