<?xml version="1.0" encoding="utf-8"?>
<!-- Generator: Adobe Illustrator 16.0.0, SVG Export Plug-In . SVG Version: 6.00 Build 0)  -->
<!DOCTYPE svg PUBLIC "-//W3C//DTD SVG 1.1//EN" "http://www.w3.org/Graphics/SVG/1.1/DTD/svg11.dtd">
<svg version="1.1" id="Layer_1" xmlns="http://www.w3.org/2000/svg" xmlns:xlink="http://www.w3.org/1999/xlink" x="0px" y="0px"
	 width="21px" height="21px" viewBox="0 0 21 21" enable-background="new 0 0 21 21" xml:space="preserve">
<g>
	<g>
		<path fill="#99A6BF" d="M10.499,1C5.253,1,1,5.252,1,10.499C1,15.745,5.253,20,10.499,20S20,15.745,20,10.499
			C20,5.252,15.745,1,10.499,1z M16.008,7.383h-1.271v6.734c0,0.798-0.476,1.203-1.133,1.203s-1.132-0.405-1.132-1.203V7.383h-1.272
			c-0.456,0-0.771-0.167-0.964-0.427c-0.188,0.265-0.497,0.427-0.934,0.427H6.967v1.773h2.041c0.713,0,1.132,0.405,1.132,1.048
			s-0.419,1.048-1.132,1.048H6.967v2.864c0,0.798-0.475,1.203-1.132,1.203c-0.657,0-1.132-0.405-1.132-1.203v-7.7
			c0-0.727,0.546-1.132,1.132-1.132h3.466c0.431,0,0.737,0.166,0.926,0.426c0.191-0.265,0.51-0.426,0.972-0.426h4.809
			c0.754,0,1.174,0.392,1.174,1.048C17.182,6.961,16.762,7.383,16.008,7.383z"/>
	</g>
</g>
</svg>
