<?xml version="1.0" encoding="utf-8"?>
<!-- Generator: Adobe Illustrator 16.0.0, SVG Export Plug-In . SVG Version: 6.00 Build 0)  -->
<!DOCTYPE svg PUBLIC "-//W3C//DTD SVG 1.1//EN" "http://www.w3.org/Graphics/SVG/1.1/DTD/svg11.dtd">
<svg version="1.1" id="Layer_1" xmlns="http://www.w3.org/2000/svg" xmlns:xlink="http://www.w3.org/1999/xlink" x="0px" y="0px"
	 width="21px" height="21px" viewBox="0 0 21 21" enable-background="new 0 0 21 21" xml:space="preserve">
<g>
	<path fill="#99A6BF" d="M12.472,7.093h-1.494v2.195h1.494c0.741,0,1.16-0.489,1.16-1.119C13.632,7.499,13.115,7.093,12.472,7.093z
		 M10.499,1C5.252,1,1,5.252,1,10.499C1,15.745,5.252,20,10.499,20C15.745,20,20,15.745,20,10.499C20,5.252,15.745,1,10.499,1z
		 M7.624,13.83c0,0.797-0.476,1.202-1.132,1.202c-0.657,0-1.132-0.405-1.132-1.202V6.115c0-0.797,0.476-1.203,1.132-1.203
		c0.656,0,1.132,0.405,1.132,1.203V13.83z M14.864,15.032c-0.589,0-0.798-0.21-1.078-0.56l-2.781-3.508h-0.027v2.866
		c0,0.797-0.476,1.202-1.132,1.202s-1.132-0.405-1.132-1.202V6.128c0-0.727,0.546-1.132,1.132-1.132h2.724
		c2.014,0,3.327,1.23,3.327,3.089c0,1.468-0.895,2.53-2.318,2.796l1.97,2.124c0.308,0.335,0.476,0.602,0.476,0.979
		C16.023,14.305,15.729,15.032,14.864,15.032z"/>
</g>
</svg>
