<?xml version="1.0" encoding="utf-8"?>
<!-- Generator: Adobe Illustrator 16.0.0, SVG Export Plug-In . SVG Version: 6.00 Build 0)  -->
<!DOCTYPE svg PUBLIC "-//W3C//DTD SVG 1.1//EN" "http://www.w3.org/Graphics/SVG/1.1/DTD/svg11.dtd">
<svg version="1.1" id="Layer_1" xmlns="http://www.w3.org/2000/svg" xmlns:xlink="http://www.w3.org/1999/xlink" x="0px" y="0px"
	 width="21px" height="21px" viewBox="0 0 21 21" enable-background="new 0 0 21 21" xml:space="preserve">
<g>
	<path fill="#99A6BF" d="M10.796,7.094H9.301v2.195h1.496c0.741,0,1.16-0.489,1.16-1.119C11.956,7.5,11.439,7.094,10.796,7.094z
		 M10.499,1C5.253,1,1,5.252,1,10.499C1,15.745,5.253,20,10.499,20S20,15.745,20,10.499C20,5.252,15.745,1,10.499,1z M13.187,15.033
		c-0.588,0-0.797-0.21-1.076-0.56l-2.782-3.508H9.301v2.865c0,0.798-0.476,1.203-1.132,1.203c-0.657,0-1.133-0.405-1.133-1.203
		V6.129c0-0.727,0.546-1.132,1.133-1.132h2.726c2.012,0,3.327,1.23,3.327,3.089c0,1.468-0.895,2.53-2.32,2.796l1.972,2.124
		c0.307,0.335,0.474,0.602,0.474,0.979C14.346,14.306,14.053,15.033,13.187,15.033z"/>
</g>
</svg>
