<?xml version="1.0" encoding="utf-8"?>
<!-- Generator: Adobe Illustrator 16.0.0, SVG Export Plug-In . SVG Version: 6.00 Build 0)  -->
<!DOCTYPE svg PUBLIC "-//W3C//DTD SVG 1.1//EN" "http://www.w3.org/Graphics/SVG/1.1/DTD/svg11.dtd">
<svg version="1.1" id="Layer_1" xmlns="http://www.w3.org/2000/svg" xmlns:xlink="http://www.w3.org/1999/xlink" x="0px" y="0px"
	 width="21px" height="21px" viewBox="0 0 21 21" enable-background="new 0 0 21 21" xml:space="preserve">
<g>
	<path fill="#99A6BF" d="M10.499,1C5.253,1,1,5.252,1,10.499C1,15.746,5.253,20,10.499,20S20,15.746,20,10.499
		C20,5.252,15.745,1,10.499,1z M12.905,7.525h-1.271v6.737c0,0.796-0.477,1.202-1.133,1.202c-0.657,0-1.132-0.406-1.132-1.202V7.525
		H8.097c-0.754,0-1.173-0.42-1.173-1.049c0-0.657,0.419-1.048,1.173-1.048h4.808c0.754,0,1.175,0.392,1.175,1.048
		C14.08,7.104,13.659,7.525,12.905,7.525z"/>
</g>
</svg>
