<?xml version="1.0" encoding="utf-8"?>
<!-- Generator: Adobe Illustrator 16.0.0, SVG Export Plug-In . SVG Version: 6.00 Build 0)  -->
<!DOCTYPE svg PUBLIC "-//W3C//DTD SVG 1.1//EN" "http://www.w3.org/Graphics/SVG/1.1/DTD/svg11.dtd">
<svg version="1.1" id="Layer_1" xmlns="http://www.w3.org/2000/svg" xmlns:xlink="http://www.w3.org/1999/xlink" x="0px" y="0px"
	 width="21px" height="21px" viewBox="0 0 21 21" enable-background="new 0 0 21 21" xml:space="preserve">
<g>
	<g>
		<path fill="#99A6BF" d="M10.5,1C5.253,1,1,5.254,1,10.501S5.253,20,10.5,20c5.246,0,9.5-4.252,9.5-9.499S15.746,1,10.5,1z
			 M9.372,7.587H8.282v5.769c0,0.683-0.408,1.029-0.969,1.029c-0.563,0-0.97-0.347-0.97-1.029V7.587H5.254
			c-0.646,0-1.005-0.358-1.005-0.896c0-0.563,0.359-0.898,1.005-0.898h4.117c0.646,0,1.004,0.335,1.004,0.898
			C10.376,7.229,10.018,7.587,9.372,7.587z M16.316,13.417c0,0.537-0.384,0.968-0.935,0.968s-0.934-0.431-0.934-0.968V10.46
			c0-0.647-0.383-1.125-1.028-1.125c-0.646,0-1.029,0.477-1.029,1.125v2.957c0,0.537-0.383,0.968-0.934,0.968
			s-0.934-0.431-0.934-0.968v-7.35c0-0.538,0.383-0.969,0.934-0.969s0.934,0.431,0.934,0.969v2.155h0.024
			c0.383-0.239,0.861-0.468,1.579-0.468c1.292,0,2.322,0.67,2.322,2.203V13.417z"/>
	</g>
</g>
</svg>
