<?xml version="1.0" encoding="utf-8"?>
<!-- Generator: Adobe Illustrator 16.0.0, SVG Export Plug-In . SVG Version: 6.00 Build 0)  -->
<!DOCTYPE svg PUBLIC "-//W3C//DTD SVG 1.1//EN" "http://www.w3.org/Graphics/SVG/1.1/DTD/svg11.dtd">
<svg version="1.1" id="Layer_1" xmlns="http://www.w3.org/2000/svg" xmlns:xlink="http://www.w3.org/1999/xlink" x="0px" y="0px"
	 width="21px" height="21px" viewBox="0 0 21 21" enable-background="new 0 0 21 21" xml:space="preserve">
<g>
	<g>
		<path fill="#99A6BF" d="M10.243,9.31c-0.998,0-1.403,0.871-1.403,1.775c0,0.902,0.405,1.775,1.403,1.775
			c0.998,0,1.405-0.873,1.405-1.775C11.647,10.181,11.24,9.31,10.243,9.31z M10.5,1.075c-5.246,0-9.5,4.264-9.5,9.521
			s4.254,9.52,9.5,9.52s9.5-4.262,9.5-9.52S15.746,1.075,10.5,1.075z M7.304,9.294l-1.612,3.998
			c-0.126,0.318-0.238,0.688-0.717,0.688c-0.48,0-0.591-0.369-0.717-0.688L2.677,9.294C2.636,9.198,2.541,8.942,2.541,8.821
			c0-0.328,0.255-0.631,0.632-0.631c0.485,0,0.598,0.287,0.717,0.584l1.101,2.91l1.101-2.91C6.21,8.478,6.323,8.19,6.811,8.19
			c0.374,0,0.629,0.303,0.629,0.631C7.44,8.942,7.345,9.198,7.304,9.294z M10.243,14.06c-1.684,0-2.792-1.168-2.792-2.975
			S8.559,8.11,10.243,8.11s2.792,1.168,2.792,2.975S11.927,14.06,10.243,14.06z M16.166,14.06c-1.788,0-2.794-1.344-2.794-2.975
			c0-1.727,1.109-2.975,2.816-2.975c0.781,0,1.716,0.225,1.716,0.904c0,0.311-0.223,0.615-0.558,0.615
			c-0.305,0-0.622-0.271-1.124-0.271c-1.047,0-1.461,0.848-1.461,1.727c0,0.902,0.462,1.68,1.348,1.68
			c0.807,0,0.933-0.266,1.268-0.266c0.512,0,0.575,0.434,0.575,0.6C17.952,13.812,16.874,14.06,16.166,14.06z"/>
	</g>
</g>
</svg>
