<?xml version="1.0" encoding="utf-8"?>
<!-- Generator: Adobe Illustrator 16.0.0, SVG Export Plug-In . SVG Version: 6.00 Build 0)  -->
<!DOCTYPE svg PUBLIC "-//W3C//DTD SVG 1.1//EN" "http://www.w3.org/Graphics/SVG/1.1/DTD/svg11.dtd">
<svg version="1.1" id="Layer_1" xmlns="http://www.w3.org/2000/svg" xmlns:xlink="http://www.w3.org/1999/xlink" x="0px" y="0px"
	 width="21px" height="21px" viewBox="0 0 21 21" enable-background="new 0 0 21 21" xml:space="preserve">
<g>
	<path fill="#99A6BF" d="M10.499,1C5.253,1,1,5.252,1,10.499C1,15.745,5.253,20,10.499,20S20,15.745,20,10.499
		C20,5.252,15.745,1,10.499,1z M16.682,7.464l-1.51,6.164c-0.266,1.091-0.503,1.691-1.593,1.691c-0.867,0-1.343-0.433-1.607-1.244
		l-1.454-4.557H10.49l-1.454,4.557c-0.267,0.812-0.74,1.244-1.608,1.244c-1.089,0-1.327-0.601-1.594-1.691L4.326,7.464
		c-0.07-0.293-0.225-0.782-0.225-1.161c0-0.601,0.448-1.104,1.132-1.104c0.741,0,1.049,0.448,1.173,1.007l1.162,5.367h0.027
		L9.231,6.36c0.281-0.867,0.67-1.161,1.272-1.161c0.601,0,0.991,0.294,1.271,1.161l1.638,5.213h0.026l1.16-5.367
		c0.126-0.559,0.433-1.007,1.176-1.007c0.684,0,1.132,0.504,1.132,1.104C16.906,6.682,16.752,7.171,16.682,7.464z"/>
</g>
</svg>
