<?xml version="1.0" encoding="utf-8"?>
<!-- Generator: Adobe Illustrator 16.0.0, SVG Export Plug-In . SVG Version: 6.00 Build 0)  -->
<!DOCTYPE svg PUBLIC "-//W3C//DTD SVG 1.1//EN" "http://www.w3.org/Graphics/SVG/1.1/DTD/svg11.dtd">
<svg version="1.1" id="Layer_1" xmlns="http://www.w3.org/2000/svg" xmlns:xlink="http://www.w3.org/1999/xlink" x="0px" y="0px"
	 width="21px" height="21px" viewBox="0 0 21 21" enable-background="new 0 0 21 21" xml:space="preserve">
<g>
	<path fill="#99A6BF" d="M10.499,1C5.253,1,1,5.252,1,10.499C1,15.745,5.253,20,10.499,20S20,15.745,20,10.499
		C20,5.252,15.745,1,10.499,1z M12.494,14.948H8.943c-0.586,0-1.132-0.405-1.132-1.132V6.128c0-0.727,0.546-1.132,1.132-1.132h3.467
		c0.713,0,1.132,0.419,1.132,1.048c0,0.657-0.419,1.048-1.132,1.048h-2.335v1.803h2.14c0.711,0,1.132,0.405,1.132,1.048
		s-0.421,1.048-1.132,1.048h-2.14v1.859h2.419c0.713,0,1.132,0.392,1.132,1.048C13.626,14.529,13.207,14.948,12.494,14.948z"/>
</g>
</svg>
