<?xml version="1.0" encoding="utf-8"?>
<!-- Generator: Adobe Illustrator 16.0.0, SVG Export Plug-In . SVG Version: 6.00 Build 0)  -->
<!DOCTYPE svg PUBLIC "-//W3C//DTD SVG 1.1//EN" "http://www.w3.org/Graphics/SVG/1.1/DTD/svg11.dtd">
<svg version="1.1" id="Layer_1" xmlns="http://www.w3.org/2000/svg" xmlns:xlink="http://www.w3.org/1999/xlink" x="0px" y="0px"
	 width="21px" height="21px" viewBox="0 0 21 21" enable-background="new 0 0 21 21" xml:space="preserve">
<g>
	<path fill="#99A6BF" d="M10.499,1C5.253,1,1,5.252,1,10.499C1,15.745,5.253,20,10.499,20S20,15.745,20,10.499
		C20,5.252,15.745,1,10.499,1z M14.878,13.974c0,0.798-0.475,1.203-1.132,1.203s-1.133-0.405-1.133-1.203v-2.935H8.392v2.935
		c0,0.798-0.475,1.203-1.132,1.203c-0.657,0-1.132-0.405-1.132-1.203V6.259c0-0.797,0.476-1.203,1.132-1.203
		c0.657,0,1.132,0.406,1.132,1.203v2.684h4.221V6.259c0-0.797,0.476-1.203,1.133-1.203s1.132,0.406,1.132,1.203V13.974z"/>
</g>
</svg>
