<?xml version="1.0" encoding="utf-8"?>
<!-- Generator: Adobe Illustrator 16.0.0, SVG Export Plug-In . SVG Version: 6.00 Build 0)  -->
<!DOCTYPE svg PUBLIC "-//W3C//DTD SVG 1.1//EN" "http://www.w3.org/Graphics/SVG/1.1/DTD/svg11.dtd">
<svg version="1.1" id="Layer_1" xmlns="http://www.w3.org/2000/svg" xmlns:xlink="http://www.w3.org/1999/xlink" x="0px" y="0px"
	 width="21px" height="21px" viewBox="0 0 21 21" enable-background="new 0 0 21 21" xml:space="preserve">
<g>
	<path fill="#99A6BF" d="M10.499,1C5.253,1,1,5.254,1,10.501S5.253,20,10.499,20S20,15.748,20,10.501S15.745,1,10.499,1z
		 M10.159,15.174c-1.327,0-3.34-0.518-3.34-1.637c0-0.615,0.377-1.201,1.062-1.201c0.56,0,1.287,0.573,2.446,0.573
		c0.881,0,1.203-0.447,1.203-0.937c0-0.756-0.868-0.909-2.152-1.329C8.203,10.267,6.986,9.763,6.986,7.96
		c0-2.166,1.691-3.186,3.578-3.186c1.819,0,2.823,0.628,2.823,1.496c0,0.615-0.405,1.062-1.004,1.062
		c-0.728,0-0.966-0.378-1.931-0.378c-0.616,0-1.035,0.322-1.035,0.811c0,0.573,0.559,0.643,2.124,1.16
		c1.23,0.406,2.418,1.034,2.418,2.922C13.96,14.138,12.27,15.174,10.159,15.174z"/>
</g>
</svg>
