<?xml version="1.0" encoding="utf-8"?>
<!-- Generator: Adobe Illustrator 16.0.0, SVG Export Plug-In . SVG Version: 6.00 Build 0)  -->
<!DOCTYPE svg PUBLIC "-//W3C//DTD SVG 1.1//EN" "http://www.w3.org/Graphics/SVG/1.1/DTD/svg11.dtd">
<svg version="1.1" id="Layer_1" xmlns="http://www.w3.org/2000/svg" xmlns:xlink="http://www.w3.org/1999/xlink" x="0px" y="0px"
	 width="23px" height="23px" viewBox="0 0 23 23" enable-background="new 0 0 23 23" xml:space="preserve">
<g>
	<g>
		<ellipse fill="#4769B3" cx="8.427" cy="11.5" rx="8.427" ry="8.5"/>
	</g>
</g>
<path fill="#B3B3B3" d="M20,9.672c0-0.244-0.199-0.447-0.439-0.447c-2.313,0-7.353,0-9.665,0c0-0.545,0-1.088,0-1.635
	c0-0.414-0.468-0.557-0.75-0.313c-1.533,1.295-3.061,2.591-4.591,3.891c-0.114,0.096-0.155,0.207-0.147,0.315
	c-0.008,0.108,0.033,0.221,0.145,0.315c1.531,1.3,3.061,2.595,4.592,3.894c0.282,0.242,0.75,0.1,0.75-0.314c0-0.544,0-1.089,0-1.634
	c2.312,0,7.351,0,9.666,0c0.24,0,0.439-0.202,0.439-0.444C20,12.09,20,10.883,20,9.672z"/>
</svg>
