<?xml version="1.0" encoding="utf-8"?>
<!-- Generator: Adobe Illustrator 16.0.0, SVG Export Plug-In . SVG Version: 6.00 Build 0)  -->
<!DOCTYPE svg PUBLIC "-//W3C//DTD SVG 1.1//EN" "http://www.w3.org/Graphics/SVG/1.1/DTD/svg11.dtd">
<svg version="1.1" id="Layer_1" xmlns="http://www.w3.org/2000/svg" xmlns:xlink="http://www.w3.org/1999/xlink" x="0px" y="0px"
	 width="47px" height="44px" viewBox="0 0 47 44" enable-background="new 0 0 47 44" xml:space="preserve">
<g>
	<g>
		<g>
			<path fill="#F2F2F2" d="M34,43.786H12.795c-6.997,0-12.69-5.693-12.69-12.69V13.18c0-6.997,5.693-12.69,12.69-12.69H34
				c6.997,0,12.69,5.693,12.69,12.69v17.916C46.69,38.093,40.997,43.786,34,43.786z M12.795,0.99c-6.722,0-12.19,5.468-12.19,12.19
				v17.916c0,6.722,5.468,12.19,12.19,12.19H34c6.722,0,12.19-5.469,12.19-12.19V13.18c0-6.722-5.469-12.19-12.19-12.19H12.795z"/>
		</g>
		<path fill="#FCD4D1" d="M12.795,2.178H34c6.076,0,11,4.926,11,11v17.918c0,6.074-4.924,11-11,11H12.795c-6.075,0-11-4.926-11-11
			l0,0V13.178C1.795,7.104,6.72,2.178,12.795,2.178L12.795,2.178z"/>
		<path fill="none" stroke="#C72C27" stroke-width="3" stroke-linecap="round" stroke-linejoin="round" stroke-miterlimit="10" d="
			M12.795,2.178H34c6.076,0,11,4.926,11,11v17.918c0,6.074-4.924,11-11,11H12.795c-6.075,0-11-4.926-11-11l0,0V13.178
			C1.795,7.104,6.72,2.178,12.795,2.178L12.795,2.178z"/>
		<text transform="matrix(1 0 0 1 9.9243 25.5596)" fill="#C72729" font-family="'Arial-BoldMT'" style="font-family:Arial;font-weight:bold" font-size="21">72</text>
		<text transform="matrix(1 0 0 1 32.5176 14.5225)" fill="#C72729" font-family="'Arial-BoldMT'" style="font-family:Arial;font-weight:bold" font-size="8">°F</text>
		<path fill="#C72C27" d="M12.372,42.6h21.205c6.075,0,11-4.924,11-11v-0.098H1.372V31.6C1.372,37.676,6.297,42.6,12.372,42.6z"/>
	</g>
	<text transform="matrix(1 0 0 1 8.0127 40.0537)" fill="#FCD4D1" font-family="'Arial-Black'" style="font-family:Arial Black" font-size="8">FLOOR</text>
</g>
</svg>
