<?xml version="1.0" encoding="utf-8"?>
<!-- Generator: Adobe Illustrator 16.0.0, SVG Export Plug-In . SVG Version: 6.00 Build 0)  -->
<!DOCTYPE svg PUBLIC "-//W3C//DTD SVG 1.1//EN" "http://www.w3.org/Graphics/SVG/1.1/DTD/svg11.dtd">
<svg version="1.1" id="Layer_1" xmlns="http://www.w3.org/2000/svg" xmlns:xlink="http://www.w3.org/1999/xlink" x="0px" y="0px"
	 width="47px" height="44px" viewBox="0 0 47 44" enable-background="new 0 0 47 44" xml:space="preserve">
<path fill="#D9E1F3" d="M13.022,2.135h21.206c6.074,0,11,4.925,11,11v17.916c0,6.075-4.926,11-11,11H13.022c-6.075,0-11-4.925-11-11
	l0,0V13.135C2.022,7.06,6.947,2.135,13.022,2.135L13.022,2.135z"/>
<path fill="none" stroke="#1F54A6" stroke-width="3" stroke-linecap="round" stroke-linejoin="round" stroke-miterlimit="10" d="
	M13.022,2.135h21.206c6.074,0,11,4.925,11,11v17.916c0,6.075-4.926,11-11,11H13.022c-6.075,0-11-4.925-11-11l0,0V13.135
	C2.022,7.06,6.947,2.135,13.022,2.135L13.022,2.135z"/>
<text transform="matrix(1 0 0 1 5.6294 24.4268)" fill="#1F54A6" font-family="'Arial-BoldMT'" style="font-family:Arial;font-weight:bold" font-size="18">OFF</text>
<path fill="#1F54A6" d="M2.299,32.159c0.141,4.986,3.905,8.982,8.529,8.982h26.139c4.625,0,8.143-2.021,8.283-7.008v-2.475
	c0,0-4.25,1.986-10.5,1.986s-15.25-4.877-21.5-4.877S2,31.479,2,31.479L2.299,32.159z"/>
<text transform="matrix(1 0 0 1 8.124 40.7139)">
	<tspan x="0" y="0" fill="#D9E1F3" font-family="'Arial-Black'" style="font-family:Arial Black" font-size="8">W</tspan>
	<tspan x="7.568" y="0" fill="#D9E1F3" font-family="'Arial-Black'" style="font-family:Arial Black" font-size="8">A</tspan>
	<tspan x="13.207" y="0" fill="#D9E1F3" font-family="'Arial-Black'" style="font-family:Arial Black" font-size="8">TER</tspan>
</text>
</svg>
