<?xml version="1.0" encoding="utf-8"?>
<!-- Generator: Adobe Illustrator 16.0.0, SVG Export Plug-In . SVG Version: 6.00 Build 0)  -->
<!DOCTYPE svg PUBLIC "-//W3C//DTD SVG 1.1//EN" "http://www.w3.org/Graphics/SVG/1.1/DTD/svg11.dtd">
<svg version="1.1" id="Layer_1" xmlns="http://www.w3.org/2000/svg" xmlns:xlink="http://www.w3.org/1999/xlink" x="0px" y="0px"
	 width="47px" height="44px" viewBox="0 0 47 44" enable-background="new 0 0 47 44" xml:space="preserve">
<g>
	<g>
		<g>
			<path fill="#F2F2F2" d="M34,43.452H12.795c-6.997,0-12.69-5.693-12.69-12.69V12.846c0-6.997,5.693-12.69,12.69-12.69H34
				c6.997,0,12.69,5.693,12.69,12.69v17.916C46.69,37.759,40.997,43.452,34,43.452z M12.795,0.656c-6.722,0-12.19,5.468-12.19,12.19
				v17.916c0,6.722,5.468,12.19,12.19,12.19H34c6.722,0,12.19-5.469,12.19-12.19V12.846c0-6.722-5.469-12.19-12.19-12.19H12.795z"/>
		</g>
		<path fill="#FCD4D1" d="M12.795,1.845H34c6.076,0,11,4.926,11,11v17.917c0,6.075-4.924,11-11,11H12.795c-6.075,0-11-4.925-11-11
			l0,0V12.845C1.795,6.771,6.72,1.845,12.795,1.845L12.795,1.845z"/>
		<path fill="none" stroke="#C72C27" stroke-width="3" stroke-linecap="round" stroke-linejoin="round" stroke-miterlimit="10" d="
			M12.795,1.845H34c6.076,0,11,4.925,11,11v17.917c0,6.075-4.924,11-11,11H12.795c-6.075,0-11-4.925-11-11l0,0V12.845
			C1.795,6.77,6.72,1.845,12.795,1.845L12.795,1.845z"/>
		<text transform="matrix(1 0 0 1 9.9243 25.2256)" fill="#C72729" font-family="'Arial-BoldMT'" style="font-family:Arial;font-weight:bold" font-size="21">72</text>
		<text transform="matrix(1 0 0 1 32.5176 14.1885)" fill="#C72729" font-family="'Arial-BoldMT'" style="font-family:Arial;font-weight:bold" font-size="8">°F</text>
		<path fill="#C72C27" d="M12.372,42.267h21.205c6.075,0,11-4.925,11-11v-0.099H1.372v0.099
			C1.372,37.342,6.297,42.267,12.372,42.267z"/>
	</g>
	<text transform="matrix(1 0 0 1 10.6826 39.7197)" fill="#FCD4D1" font-family="Arial Black" style="font-family:Arial Black" font-size="8">ZONE</text>
</g>
</svg>
