<!-- Generator: Adobe Illustrator 18.0.0, SVG Export Plug-In  -->
<svg version="1.1"
	 xmlns="http://www.w3.org/2000/svg" xmlns:xlink="http://www.w3.org/1999/xlink" xmlns:a="http://ns.adobe.com/AdobeSVGViewerExtensions/3.0/"
	 x="0px" y="0px" width="799.9px" height="791.2px" viewBox="0 0 799.9 791.2" enable-background="new 0 0 799.9 791.2"
	 xml:space="preserve">
<defs>
</defs>
<g>
	<path fill-rule="evenodd" clip-rule="evenodd" fill="#FFFFFF" d="M768.7,434.3c-1.8,0-3.2-1.4-3.2-3.2c0-1.8,1.4-3.2,3.2-3.2
		s3.2,1.4,3.2,3.2C771.9,432.8,770.5,434.3,768.7,434.3L768.7,434.3z"/>
	<path fill-rule="evenodd" clip-rule="evenodd" fill="#FFFFFF" d="M769.7,395.9c-1.8,0-3.2-1.4-3.2-3.2c0-1.8,1.4-3.2,3.2-3.2
		s3.2,1.4,3.2,3.2C772.9,394.5,771.5,395.9,769.7,395.9L769.7,395.9z"/>
	<circle fill="none" stroke="#EDF2F5" stroke-width="3" stroke-miterlimit="10" cx="397.8" cy="397.8" r="383.3"/>
	<circle fill="#FFFFFF" stroke="#EDF2F5" stroke-width="3" stroke-miterlimit="10" cx="211.6" cy="62.1" r="17.3"/>
	<circle fill="#FFFFFF" stroke="#EDF2F5" stroke-width="3" stroke-miterlimit="10" cx="352.3" cy="18.8" r="17.3"/>
	<circle fill="#FFFFFF" stroke="#EDF2F5" stroke-width="3" stroke-miterlimit="10" cx="525.5" cy="36.1" r="17.3"/>
	<circle fill="#FFFFFF" stroke="#EDF2F5" stroke-width="3" stroke-miterlimit="10" cx="711.8" cy="179.1" r="17.3"/>
	<circle fill="#FFFFFF" stroke="#EDF2F5" stroke-width="3" stroke-miterlimit="10" cx="68.6" cy="200.7" r="17.3"/>
	<circle fill="#FFFFFF" stroke="#EDF2F5" stroke-width="3" stroke-miterlimit="10" cx="18.8" cy="345.8" r="17.3"/>
	<path fill="#FFFFFF" stroke="#EDF2F5" stroke-width="3" stroke-miterlimit="10" d="M170.4,287.3c0,9.6-7.8,17.3-17.3,17.3
		s-17.3-7.8-17.3-17.3c0-9.6,7.8-17.3,17.3-17.3S170.4,277.8,170.4,287.3z"/>
	<circle fill="#FFFFFF" stroke="#EDF2F5" stroke-width="3" stroke-miterlimit="10" cx="153.1" cy="423.8" r="17.3"/>
	<circle fill="#FFFFFF" stroke="#EDF2F5" stroke-width="3" stroke-miterlimit="10" cx="150.9" cy="560.2" r="17.3"/>
	<circle fill="#FFFFFF" stroke="#EDF2F5" stroke-width="3" stroke-miterlimit="10" cx="265.7" cy="655.5" r="17.3"/>
	<circle fill="#FFFFFF" stroke="#EDF2F5" stroke-width="3" stroke-miterlimit="10" cx="384.8" cy="607.8" r="17.3"/>
	<circle fill="#FFFFFF" stroke="#EDF2F5" stroke-width="3" stroke-miterlimit="10" cx="508.2" cy="514" r="17.3"/>
	<circle fill="#FFFFFF" stroke="#EDF2F5" stroke-width="3" stroke-miterlimit="10" cx="644.7" cy="542.9" r="17.3"/>
	<circle fill="#FFFFFF" stroke="#EDF2F5" stroke-width="3" stroke-miterlimit="10" cx="547.2" cy="638.2" r="17.3"/>
	<circle fill="#FFFFFF" stroke="#EDF2F5" stroke-width="3" stroke-miterlimit="10" cx="380.5" cy="713.9" r="17.3"/>
	<circle fill="#FFFFFF" stroke="#EDF2F5" stroke-width="3" stroke-miterlimit="10" cx="566.7" cy="415.1" r="17.3"/>
	<circle fill="#FFFFFF" stroke="#EDF2F5" stroke-width="3" stroke-miterlimit="10" cx="479.2" cy="237.5" r="17.3"/>
	<circle fill="#FFFFFF" stroke="#EDF2F5" stroke-width="3" stroke-miterlimit="10" cx="328.5" cy="237.5" r="17.3"/>
	<circle fill="#FFFFFF" stroke="#EDF2F5" stroke-width="3" stroke-miterlimit="10" cx="683.6" cy="374" r="17.3"/>
	<circle fill="#FFFFFF" stroke="#EDF2F5" stroke-width="3" stroke-miterlimit="10" cx="592.7" cy="148.8" r="17.3"/>
	<circle fill="#FFFFFF" stroke="#EDF2F5" stroke-width="3" stroke-miterlimit="10" cx="406.4" cy="109.8" r="17.3"/>
	<circle fill="#FFFFFF" stroke="#EDF2F5" stroke-width="3" stroke-miterlimit="10" cx="228.9" cy="159.6" r="17.3"/>
	<circle fill="#FFFFFF" stroke="#EDF2F5" stroke-width="3" stroke-miterlimit="10" cx="31.8" cy="514.7" r="17.3"/>
	<circle fill="#FFFFFF" stroke="#EDF2F5" stroke-width="3" stroke-miterlimit="10" cx="144.4" cy="685.8" r="17.3"/>
	<circle fill="#FFFFFF" stroke="#EDF2F5" stroke-width="3" stroke-miterlimit="10" cx="311.2" cy="772.4" r="17.3"/>
	<circle fill="#FFFFFF" stroke="#EDF2F5" stroke-width="3" stroke-miterlimit="10" cx="536.4" cy="755.1" r="17.3"/>
	<circle fill="#FFFFFF" stroke="#EDF2F5" stroke-width="3" stroke-miterlimit="10" cx="677.1" cy="662" r="17.3"/>
	<circle fill="#FFFFFF" stroke="#EDF2F5" stroke-width="3" stroke-miterlimit="10" cx="757.3" cy="536.4" r="17.3"/>
	<circle fill="#FFFFFF" stroke="#EDF2F5" stroke-width="3" stroke-miterlimit="10" cx="781.1" cy="387" r="17.3"/>
	<line fill="#FFFFFF" stroke="#EDF2F5" stroke-width="3" stroke-miterlimit="10" x1="763.8" y1="387" x2="701" y2="374"/>
	<line fill="#FFFFFF" stroke="#EDF2F5" stroke-width="3" stroke-miterlimit="10" x1="771.5" y1="401.4" x2="658.2" y2="532"/>
	<line fill="#FFFFFF" stroke="#EDF2F5" stroke-width="3" stroke-miterlimit="10" x1="677.1" y1="390" x2="648.9" y2="526.1"/>
	<line fill="#FFFFFF" stroke="#EDF2F5" stroke-width="3" stroke-miterlimit="10" x1="661.7" y1="539.6" x2="739.9" y2="536.4"/>
	<line fill="#FFFFFF" stroke="#EDF2F5" stroke-width="3" stroke-miterlimit="10" x1="648.9" y1="560.2" x2="670.1" y2="646.1"/>
	<line fill="none" stroke="#EDF2F5" stroke-width="3" stroke-miterlimit="10" x1="579.2" y1="159.6" x2="492.2" y2="226.1"/>
	<line fill="none" stroke="#EDF2F5" stroke-width="3" stroke-miterlimit="10" x1="693.4" y1="178" x2="608.5" y2="155.8"/>
	<line fill="none" stroke="#EDF2F5" stroke-width="3" stroke-miterlimit="10" x1="631.1" y1="553.7" x2="561.7" y2="628.6"/>
	<line fill="none" stroke="#EDF2F5" stroke-width="3" stroke-miterlimit="10" x1="512.6" y1="530.7" x2="541.5" y2="621.8"/>
	<line fill="none" stroke="#EDF2F5" stroke-width="3" stroke-miterlimit="10" x1="558.5" y1="430.4" x2="512.6" y2="497.2"/>
	<line fill="none" stroke="#EDF2F5" stroke-width="3" stroke-miterlimit="10" x1="525.5" y1="514" x2="627.6" y2="539.6"/>
	<line fill="none" stroke="#EDF2F5" stroke-width="3" stroke-miterlimit="10" x1="683.6" y1="356.6" x2="708.5" y2="196.4"/>
	<line fill="none" stroke="#EDF2F5" stroke-width="3" stroke-miterlimit="10" x1="592.7" y1="166.1" x2="566.7" y2="311.5"/>
	<line fill="none" stroke="#EDF2F5" stroke-width="3" stroke-miterlimit="10" x1="538.5" y1="47.6" x2="584" y2="133.8"/>
	<line fill="none" stroke="#EDF2F5" stroke-width="3" stroke-miterlimit="10" x1="315.9" y1="225.6" x2="242.4" y2="170.4"/>
	<line fill="none" stroke="#EDF2F5" stroke-width="3" stroke-miterlimit="10" x1="84.2" y1="193.1" x2="212.8" y2="166.1"/>
	<line fill="none" stroke="#EDF2F5" stroke-width="3" stroke-miterlimit="10" x1="82.6" y1="210.9" x2="144.4" y2="272.4"/>
	<line fill="none" stroke="#EDF2F5" stroke-width="3" stroke-miterlimit="10" x1="170.4" y1="293.8" x2="315.9" y2="347.3"/>
	<line fill="none" stroke="#EDF2F5" stroke-width="3" stroke-miterlimit="10" x1="324.4" y1="254.4" x2="315.9" y2="347.3"/>
	<line fill="none" stroke="#EDF2F5" stroke-width="3" stroke-miterlimit="10" x1="459.8" y1="345.8" x2="315.9" y2="347.3"/>
	<line fill="none" stroke="#EDF2F5" stroke-width="3" stroke-miterlimit="10" x1="463.1" y1="328.8" x2="475.9" y2="254.9"/>
	<line fill="none" stroke="#EDF2F5" stroke-width="3" stroke-miterlimit="10" x1="459.8" y1="345.8" x2="564.5" y2="330"/>
	<line fill="none" stroke="#EDF2F5" stroke-width="3" stroke-miterlimit="10" x1="468.3" y1="224" x2="414.6" y2="125"/>
	<line fill="none" stroke="#EDF2F5" stroke-width="3" stroke-miterlimit="10" x1="461.9" y1="237.5" x2="345.5" y2="234.2"/>
	<line fill="none" stroke="#EDF2F5" stroke-width="3" stroke-miterlimit="10" x1="389.7" y1="114.2" x2="246.2" y2="155.8"/>
	<line fill="none" stroke="#EDF2F5" stroke-width="3" stroke-miterlimit="10" x1="224.1" y1="142.9" x2="211.6" y2="79.5"/>
	<line fill="none" stroke="#EDF2F5" stroke-width="3" stroke-miterlimit="10" x1="228.9" y1="62.1" x2="389.7" y2="105.3"/>
	<line fill="none" stroke="#EDF2F5" stroke-width="3" stroke-miterlimit="10" x1="397.8" y1="94.8" x2="359.9" y2="34.4"/>
	<line fill="none" stroke="#EDF2F5" stroke-width="3" stroke-miterlimit="10" x1="421.2" y1="100.8" x2="509" y2="41.1"/>
	<line fill="none" stroke="#EDF2F5" stroke-width="3" stroke-miterlimit="10" x1="459.8" y1="345.8" x2="551.7" y2="406.4"/>
	<line fill="none" stroke="#EDF2F5" stroke-width="3" stroke-miterlimit="10" x1="583.1" y1="409.6" x2="667.6" y2="380.5"/>
	<line fill="none" stroke="#EDF2F5" stroke-width="3" stroke-miterlimit="10" x1="492.2" y1="507.5" x2="434.9" y2="492.3"/>
	<line fill="none" stroke="#EDF2F5" stroke-width="3" stroke-miterlimit="10" x1="414.6" y1="501" x2="389.7" y2="591.2"/>
	<line fill="none" stroke="#EDF2F5" stroke-width="3" stroke-miterlimit="10" x1="459.8" y1="345.8" x2="286.5" y2="492.3"/>
	<line fill="none" stroke="#EDF2F5" stroke-width="3" stroke-miterlimit="10" x1="315.9" y1="347.3" x2="273.4" y2="480.4"/>
	<line fill="none" stroke="#EDF2F5" stroke-width="3" stroke-miterlimit="10" x1="254.8" y1="489.2" x2="168.2" y2="432.2"/>
	<line fill="none" stroke="#EDF2F5" stroke-width="3" stroke-miterlimit="10" x1="156.4" y1="406.8" x2="152" y2="303.6"/>
	<line fill="none" stroke="#EDF2F5" stroke-width="3" stroke-miterlimit="10" x1="137" y1="293.8" x2="33.6" y2="336.8"/>
	<line fill="none" stroke="#EDF2F5" stroke-width="3" stroke-miterlimit="10" x1="48.1" y1="508.9" x2="140.8" y2="436"/>
	<line fill="none" stroke="#EDF2F5" stroke-width="3" stroke-miterlimit="10" x1="542.9" y1="654.9" x2="536.4" y2="737.8"/>
	<line fill="none" stroke="#EDF2F5" stroke-width="3" stroke-miterlimit="10" x1="396.7" y1="719.8" x2="519.1" y2="755.1"/>
	<line fill="none" stroke="#EDF2F5" stroke-width="3" stroke-miterlimit="10" x1="384.8" y1="697.2" x2="384.8" y2="625.2"/>
	<line fill="none" stroke="#EDF2F5" stroke-width="3" stroke-miterlimit="10" x1="401.2" y1="613.3" x2="530.3" y2="634.2"/>
	<line fill="none" stroke="#EDF2F5" stroke-width="3" stroke-miterlimit="10" x1="262.4" y1="638.5" x2="270" y2="514.7"/>
	<line fill="none" stroke="#EDF2F5" stroke-width="3" stroke-miterlimit="10" x1="45.3" y1="525.6" x2="134.9" y2="553.7"/>
	<line fill="none" stroke="#EDF2F5" stroke-width="3" stroke-miterlimit="10" x1="167" y1="553.7" x2="257.1" y2="508.9"/>
	<line fill="none" stroke="#EDF2F5" stroke-width="3" stroke-miterlimit="10" x1="249.3" y1="661.2" x2="161.7" y2="685.8"/>
	<line fill="none" stroke="#EDF2F5" stroke-width="3" stroke-miterlimit="10" x1="280.4" y1="664.7" x2="365" y2="706.1"/>
	<line fill="none" stroke="#EDF2F5" stroke-width="3" stroke-miterlimit="10" x1="150.9" y1="577.5" x2="144.4" y2="668.5"/>
	<line fill="none" stroke="#EDF2F5" stroke-width="3" stroke-miterlimit="10" x1="270" y1="672.2" x2="301.4" y2="758.1"/>
	<line fill="none" stroke="#EDF2F5" stroke-width="3" stroke-miterlimit="10" x1="369.6" y1="727.5" x2="324.4" y2="761.2"/>
	<circle fill="#FFFFFF" stroke="#EDF2F5" stroke-width="3" stroke-miterlimit="10" cx="270" cy="497.4" r="17.3"/>
	<circle fill="#FFFFFF" stroke="#EDF2F5" stroke-width="3" stroke-miterlimit="10" cx="419.4" cy="484.4" r="17.3"/>
	<line fill="none" stroke="#EDF2F5" stroke-width="3" stroke-miterlimit="10" x1="286.5" y1="502.8" x2="402.8" y2="489.2"/>
	<circle fill="#FFFFFF" stroke="#00C9FF" stroke-width="3" stroke-miterlimit="10" cx="315.9" cy="347.3" r="17.3"/>
	<circle fill="#FFFFFF" stroke="#00C9FF" stroke-width="3" stroke-miterlimit="10" cx="459.8" cy="345.8" r="17.3"/>
	<circle fill="#FFFFFF" stroke="#EDF2F5" stroke-width="3" stroke-miterlimit="10" cx="566.7" cy="328.8" r="17.3"/>
</g>
<g>
	<path fill="#31C3F1" d="M402.8,43.7c-71.4,0-129.2,58.6-129.2,130.9c0,72.3,57.9,130.9,129.2,130.9c71.4,0,129.2-58.6,129.2-130.9
		C532,102.3,474.2,43.7,402.8,43.7z M383.7,70.6c5.5-5.5,11-11.1,16.4-16.6c0.6-0.6,1-0.8,1.7,0c5.5,5.6,11,11.2,16.5,16.7
		c0.6,0.6,0.6,0.9,0,1.5c-5.2,5.2-10.4,10.5-15.6,15.7c-0.6,0.6-0.8,1.2-0.8,2c0.1,2.1,0,4.3,0,6.4c0,0.7,0.3,1.4-1,1.4
		c-1.2,0-0.9-0.7-0.9-1.4c0-1.1,0-2.2,0-3.3c0.8-3.2-0.8-5.3-3-7.4c-4.6-4.4-8.9-9-13.4-13.4C383.1,71.6,383.1,71.2,383.7,70.6z
		 M488.4,195.3c-7.3,0-14.7,0-22,0c-1,0-1.3,0.3-1.3,1.3c0.1,2.4,0.1,4.9,0,7.3c0,0.9,0.2,1.1,1.1,1.1c7.5,0.2,13.5,6,14.3,13.6
		c0.7,7.3-4.2,14.2-11.4,15.9c0,0-0.1,0-0.1,0c-2.3,0.5-2.3,0.5-2.3,2.8c0,9.6,0,19.1,0,28.7c0,1-0.2,1.4-1.3,1.3
		c-6.5,0-12.9,0-19.4,0c-0.8,0-1.4,0.3-2,0.8c-6.6,6.7-13.2,13.3-19.7,20.1c-0.7,0.7-1.1,0.7-1.7,0c-6.7-6.9-13.5-13.7-20.3-20.5
		c-0.7-0.7-0.7-1,0-1.7c6.5-6.5,12.9-13,19.3-19.5c0.6-0.6,0.9-1.2,0.9-2.1c0-3,0-6.1,0-9.1c0-0.8-0.1-1.2-1.1-1.2
		c-14.3,0-28.6,0-42.9,0c-0.8,0-1.1,0.2-1.1,1.1c0.1,3.2,0,6.3,0,9.5c0,0.7,0.2,1.2,0.7,1.7c6.5,6.6,13,13.1,19.5,19.7
		c0.7,0.7,0.7,1.1,0,1.7c-6.8,6.8-13.5,13.6-20.2,20.4c-0.7,0.7-1.1,0.8-1.8,0c-6.4-6.6-12.9-13.1-19.3-19.7c-0.6-0.6-1.1-0.8-2-0.8
		c-5.1,0-10.3,0-15.4,0c-1.8,0-1.5,0.2-1.5-1.5c0-7.2,0-14.5,0-21.7c0-0.9-0.3-1.5-0.9-2.2c-5.2-5.2-10.3-10.4-15.4-15.6
		c-0.6-0.6-0.6-1,0-1.6c5.2-5.2,10.4-10.5,15.6-15.7c0.5-0.5,0.8-1,0.7-1.8c-0.1-1.3-0.1-2.5,0-3.8c0.1-0.9-0.2-1.1-1.1-1.1
		c-7,0-13.9,0-20.9,0c-1.4,0-1.4,0-1.4-1.5c0-7.2,0-14.4,0-21.6c0-1.1,0.3-1.3,1.3-1.3c6.5,0,13.1,0,19.6,0c1,0,1.3-0.2,1.3-1.3
		c-0.1-4.1,0-8.1,0-12.2c0-0.9-0.2-1.1-1.1-1.1c-6.6,0-13.2,0-19.8,0c-1.1,0-1.3-0.3-1.3-1.4c0-7.3,0-14.6,0-21.9
		c0-0.9,0.2-1.2,1.2-1.2c6.8,0,13.6,0,20.4,0c0.9,0,1.2-0.2,1.2-1.2c-0.1-2.3,0-4.6,0-7c0-0.8-0.1-1.1-1-1.2
		c-7.5-1-13-7.5-12.8-15.1c0.1-7.5,5.8-13.8,13.2-14.6c8-0.9,15,4.6,16.2,12.8c0.1,0.9,0.5,1.1,1.3,1.1c4.6,0,9.2,0,13.8,0
		c1,0,1.3-0.2,1.3-1.3c-0.1-4.7,0-9.4,0-14.2c0-1,0.3-1.2,1.2-1.2c9.5,0,19,0,28.5,0c0.9,0,1.8,0,2.7,0c10.3,0,20.6,0,30.9,0
		c1,0,1.3,0.3,1.3,1.3c-0.1,4,0,8,0,12c0,1,0.3,1.3,1.3,1.3c4,0,8,0,12.1,0c0.8,0,1.4-0.2,2-0.8c5.1-5.2,10.3-10.4,15.4-15.7
		c0.7-0.7,1-0.6,1.7,0c5.5,5.6,11,11.2,16.5,16.7c0.6,0.6,0.6,0.9,0,1.5c-5.2,5.2-10.4,10.5-15.6,15.7c-0.6,0.6-0.9,1.2-0.9,2.1
		c0,4.7,0,9.4,0,14c0,1,0.2,1.3,1.2,1.3c7.1,0,14.3,0,21.4,0c0.9,0,1.3,0.2,1.3,1.2c0,15.3,0,30.5,0,45.8
		C489.7,195.2,489.3,195.3,488.4,195.3z"/>
	<path fill="#FEFEFE" d="M489.7,148.3c0-1.1-0.3-1.2-1.3-1.2c-7.1,0-14.3,0-21.4,0c-1,0-1.2-0.3-1.2-1.3c0.1-4.7,0-9.4,0-14
		c0-0.9,0.2-1.5,0.9-2.1c5.2-5.2,10.4-10.5,15.6-15.7c0.6-0.6,0.6-0.9,0-1.5c-5.5-5.5-11-11.1-16.5-16.7c-0.6-0.7-1-0.7-1.7,0
		c-5.1,5.3-10.3,10.5-15.4,15.7c-0.6,0.6-1.2,0.8-2,0.8c-4,0-8,0-12.1,0c-1,0-1.3-0.2-1.3-1.3c0.1-4,0-8,0-12c0-1-0.3-1.3-1.3-1.3
		c-10.3,0-20.6,0-30.9,0c-0.9,0-1.8,0-2.7,0c-9.5,0-19,0-28.5,0c-0.9,0-1.2,0.3-1.2,1.2c0,4.7,0,9.4,0,14.2c0,1-0.3,1.3-1.3,1.3
		c-4.6,0-9.2,0-13.8,0c-0.8,0-1.1-0.2-1.3-1.1c-1.2-8.1-8.2-13.6-16.2-12.8c-7.4,0.8-13.1,7.1-13.2,14.6
		c-0.1,7.6,5.4,14.1,12.8,15.1c0.9,0.1,1,0.5,1,1.2c0,2.3-0.1,4.6,0,7c0,1-0.3,1.2-1.2,1.2c-6.8,0-13.6,0-20.4,0
		c-0.9,0-1.2,0.3-1.2,1.2c0,7.3,0,14.6,0,21.9c0,1,0.2,1.4,1.3,1.4c6.6-0.1,13.2,0,19.8,0c0.8,0,1.1,0.2,1.1,1.1
		c0,4.1-0.1,8.1,0,12.2c0,1-0.3,1.3-1.3,1.3c-6.5,0-13.1,0-19.6,0c-1,0-1.3,0.2-1.3,1.3c0,7.2,0,14.4,0,21.6c0,1.5,0,1.5,1.4,1.5
		c7,0,13.9,0,20.9,0c0.8,0,1.1,0.2,1.1,1.1c-0.1,1.3-0.1,2.5,0,3.8c0,0.8-0.2,1.3-0.7,1.8c-5.2,5.2-10.4,10.5-15.6,15.7
		c-0.6,0.6-0.6,1,0,1.6c5.2,5.2,10.3,10.4,15.4,15.6c0.6,0.6,0.9,1.3,0.9,2.2c0,7.2,0,14.5,0,21.7c0,1.7-0.2,1.5,1.5,1.5
		c5.1,0,10.3,0,15.4,0c0.8,0,1.4,0.3,2,0.8c6.4,6.6,12.9,13.1,19.3,19.7c0.8,0.8,1.1,0.7,1.8,0c6.7-6.8,13.4-13.6,20.2-20.4
		c0.7-0.7,0.7-1,0-1.7c-6.5-6.5-13-13.1-19.5-19.7c-0.5-0.5-0.7-1-0.7-1.7c0-3.2,0-6.3,0-9.5c0-0.9,0.3-1.1,1.1-1.1
		c14.3,0,28.6,0,42.9,0c1,0,1.1,0.4,1.1,1.2c0,3,0,6.1,0,9.1c0,0.9-0.3,1.5-0.9,2.1c-6.5,6.5-12.9,13-19.3,19.5
		c-0.7,0.7-0.6,1,0,1.7c6.8,6.8,13.5,13.6,20.3,20.5c0.7,0.7,1,0.8,1.7,0c6.6-6.7,13.2-13.4,19.7-20.1c0.6-0.6,1.2-0.8,2-0.8
		c6.5,0,12.9,0,19.4,0c1.1,0,1.3-0.3,1.3-1.3c0-9.6,0-19.1,0-28.7c0-2.3,0-2.3,2.3-2.8c0,0,0.1,0,0.1,0c7.2-1.7,12.2-8.6,11.4-15.9
		c-0.8-7.7-6.8-13.4-14.3-13.6c-0.8,0-1.1-0.2-1.1-1.1c0.1-2.4,0.1-4.9,0-7.3c0-1,0.2-1.3,1.3-1.3c7.3,0,14.7,0,22,0
		c0.9,0,1.3-0.1,1.3-1.2C489.6,178.9,489.6,163.6,489.7,148.3z M450.2,112.7c4.7-4.7,9.4-9.5,14.1-14.3c0.5-0.5,0.8-0.4,1.2,0
		c4.7,4.7,9.3,9.5,14,14.2c0.2,0.2,0.4,0.4,0.6,0.6c-0.2,0.2-0.3,0.4-0.4,0.5c-4.8,4.8-9.5,9.6-14.2,14.4c-0.4,0.4-0.7,0.4-1.1,0
		c-4.7-4.8-9.4-9.6-14.2-14.4C449.7,113.4,449.7,113.1,450.2,112.7z M432,122.2c1,0,1.3-0.2,1.3-1.2c-0.1-1.9,0-3.9,0-5.8
		c0-0.7,0.2-0.9,0.9-0.9c4.3,0,8.6,0,13,0c0.5,0,0.8,0.2,1.2,0.5c5,5.1,10,10.2,15.1,15.3c0.4,0.4,0.5,0.8,0.5,1.3
		c0,4.9,0,9.9,0,14.8c0,0.9-0.3,1-1.1,1c-6.5,0-13.1,0-19.6,0c-1,0-1.3,0.3-1.2,1.3c0,5.5,0,11,0,16.4c0,0.9-0.2,1.2-1.1,1.2
		c-3.3,0-6.5,0-9.8,0c-0.8,0-1-0.3-1-1c1-16-11.1-30-26.8-31.1c-1.1-0.1-1.5-0.4-1.4-1.5c0.1-3,0.1-6.1,0-9.1c0-0.8,0.3-1,1-1
		c4.9,0,9.8,0,14.7,0C422.4,122.2,427.2,122.2,432,122.2z M463.3,204.3c0,0.6-0.1,0.9-0.8,1.1c-6.4,1.7-10.2,6-11.3,12.6
		c-0.1,0.7-0.3,1-1.1,1c-5.2,0-10.5,0-15.7,0c-0.9,0-1.1-0.3-1.1-1.2c0-2.3,0-4.6,0-7c0-0.9-0.3-1.1-1.1-1.1c-4.9,0-9.8,0-14.7,0
		c-4.9,0-9.7,0-14.6,0c-0.8,0-1.1-0.2-1.1-1.1c0-4.9,0-9.9,0-14.8c0-0.7,0.2-1,0.9-1c13.5-1,24.1-10.4,26.8-23.9
		c0.1-0.7,0.4-1,1.2-1c3.4,0,6.8,0.1,10.2,0c0.9,0,1.1,0.3,1.1,1.1c0,8.3,0,16.7,0,25c0,1,0.2,1.3,1.3,1.3c6.3-0.1,12.6,0,18.8-0.1
		c0.9,0,1.2,0.3,1.2,1.2C463.2,199.1,463.2,201.7,463.3,204.3z M377,190.7c-4.8,0.2-9.7,0.3-14.5,0.4c-0.7,0-1-0.2-1-0.9
		c0-3.5,0-6.9,0-10.4c0-1-0.2-1.4-1.3-1.3c-6.9,0-13.8,0-20.7,0c-1.4,0-1.4,0-1.4-1.5c0-3.9,0-7.8,0-11.8c0-1,0.2-1.3,1.2-1.3
		c3.5,0.1,7.1,0,10.6,0s7.1,0,10.6,0c0.8,0,1.1-0.2,1.1-1.1c0-3.2,0-6.5,0-9.7c0-0.8,0.2-1.1,1-1.1c3.4,0.1,6.8,0.1,10.3,0
		c1,0,0.9,0.3,0.7,1.1c-3.8,11.8-1.6,22.3,7,31.2c5,5.2,11.3,7.9,18.5,8.4c0.9,0.1,1,0.3,1,1.2c0,4.9,0,9.8,0,14.7
		c0,0.9-0.2,1.1-1.1,1.1c-6.6,0-13.2,0-19.7,0c-0.8,0-1.1-0.2-1.1-1.1c0-5.6,0-11.2,0-16.8C378.2,190.9,378,190.7,377,190.7z
		 M368.7,223.8c0,1-0.3,1.3-1.3,1.3c-3.7-0.1-7.4,0-11.1,0c-0.7,0-1.2-0.2-1.7-0.7c-4.9-5-9.8-9.9-14.7-14.9c-0.5-0.5-0.8-1-0.8-1.8
		c0-1.2,0.1-2.4,0-3.7c0-0.9,0.2-1.2,1.1-1.2c3.3,0.1,6.7,0,10,0c3.3,0,6.7,0,10,0c0.8,0,1.1-0.2,1.1-1.1c-0.1-2.6,0-5.2,0-7.8
		c0-0.7,0.2-1,0.9-1c4.3-0.1,8.6-0.2,12.8-0.3c0.7,0,1,0.2,1,1c0,5,0,10,0,15.1c0,0.8-0.3,1-1,1c-1.8,0-3.5,0-5.3,0
		c-1,0-1.3,0.2-1.3,1.3C368.7,215.3,368.7,219.6,368.7,223.8z M373.7,163.6c0-15.5,12.1-27.9,27.3-27.9c14.9,0,27.3,12.4,27.3,27.3
		c0,15.5-12.2,28.1-27.3,28C386,190.9,373.7,178.5,373.7,163.6z M371.7,99.6c19.5,0,39.1,0,58.6,0c0.9,0,1.1,0.3,1.1,1.2
		c0,6,0,12.1,0,18.2c0,1-0.3,1.3-1.3,1.3c-9.8,0-19.5,0-29.3,0c-9.6,0-19.2,0-28.9,0c-1.4,0-1.4,0-1.4-1.5c0-6,0-11.9,0-17.9
		C370.6,99.9,370.8,99.6,371.7,99.6z M352.4,117.3c0.1-0.8,0.3-1,1.1-1c4.7,0,9.4,0,14.1,0c0.8,0,1.2,0.2,1.1,1.1
		c-0.1,1.2,0,2.4,0,3.5c-0.1,1,0.2,1.4,1.3,1.3c7.7,0,15.5,0,23.2,0c2,0,3.9,0,5.9,0c0.7,0,1,0.1,1,0.9c0,3.2-0.1,6.5,0,9.7
		c0,1.1-0.7,1-1.3,1c-6,0.4-11.4,2.6-16.1,6.4c-3.2,2.6-5.8,5.8-7.6,9.5c-0.2,0.5-0.4,0.8-1,0.4c-0.3-0.2-0.9,0-1.3,0
		c-3.3,0-6.6,0-9.9,0c-0.9,0-1.2-0.2-1.2-1.2c0.1-2.8,0-5.6,0-8.3c0-0.8-0.2-1.1-1.1-1.1c-3.5,0-6.9,0-10.4,0c-3.5,0-6.9,0-10.4,0
		c-0.8,0-1.1-0.2-1-1c0.1-2.4,0-4.9,0-7.3c0-0.7,0.1-1,0.9-1.1C346.3,129.4,351.6,124.1,352.4,117.3z M324.9,115.3
		c0-7.2,5.8-13,12.8-13c7.2,0,12.9,5.9,12.9,13.2c0,7-5.9,12.9-12.9,12.9C330.7,128.4,324.9,122.5,324.9,115.3z M317.1,162
		c-1,0-1.2-0.3-1.2-1.2c0-6,0-12.1,0-18.1c0-0.9,0.2-1.2,1.2-1.2c13.8,0,27.7,0,41.5,0c0.9,0,1.1,0.3,1.1,1.2c0,6.1,0,12.2,0,18.3
		c0,1-0.3,1.2-1.2,1.2c-6.9,0-13.8,0-20.7,0C330.9,162,324,162,317.1,162z M317.1,201c-0.8,0-1.2-0.1-1.2-1.1c0-6.1,0-12.3,0-18.4
		c0-0.9,0.2-1.1,1.1-1.1c13.9,0,27.7,0,41.6,0c0.8,0,1.1,0.2,1.1,1.1c0,6.1,0,12.3,0,18.4c0,0.9-0.3,1.1-1.1,1.1c-7,0-13.9,0-20.9,0
		C330.9,201,324,201,317.1,201z M338.8,241c-0.6,0.6-0.8,0.1-1.1-0.2c-3.1-3.1-6.1-6.2-9.2-9.3c-1.6-1.6-3.2-3.3-4.9-4.9
		c-0.4-0.4-0.5-0.7,0-1.2c4.7-4.8,9.5-9.6,14.2-14.4c0.2-0.2,0.3-0.3,0.5-0.5c0.2,0.2,0.4,0.3,0.5,0.5c4.8,4.8,9.5,9.6,14.3,14.4
		c0.4,0.4,0.4,0.6,0,1C348.4,231.3,343.6,236.2,338.8,241z M356.3,265.2c-0.5,0.5-1,0.6-1.6,0.6c-4.7,0-9.5,0-14.2,0
		c-1,0-1.2-0.3-1.2-1.2c0-3.4,0-6.9,0-10.3c0-3.3,0-6.6,0-9.9c0-0.8,0.2-1.3,0.8-1.9c4.9-4.9,9.7-9.8,14.6-14.8
		c0.5-0.5,1-0.7,1.7-0.7c3.8,0,7.5,0,11.3,0c0.9,0,1.2,0.3,1.1,1.2c-0.1,1.7,0,3.4,0,5.1c0,0.6,0.2,0.9,0.8,0.9c1.7,0,3.5,0,5.2,0
		c0.7,0,0.9,0.2,0.9,0.9c0,3.3,0,6.6,0,9.9c0,0.6-0.2,0.9-0.6,1.3C368.8,252.6,362.5,258.9,356.3,265.2z M395.2,266.4
		c0.2,0.2,0.4,0.3,0.4,0.7c-0.1,0.1-0.3,0.3-0.4,0.5c-6,6.1-12,12.2-18,18.2c-0.5,0.5-0.8,0.5-1.2,0c-6-6.1-12-12.2-18-18.2
		c-0.4-0.4-0.5-0.7,0-1.2c6-6.1,12-12.1,18-18.2c0.5-0.5,0.8-0.5,1.2,0C383.2,254.2,389.2,260.3,395.2,266.4z M371.7,232.2
		c-0.9,0-1.2-0.2-1.2-1.1c0-6.1,0-12.1,0-18.2c0-1,0.3-1.2,1.2-1.2c9.7,0,19.5,0,29.2,0c9.7,0,19.5,0,29.2,0c1,0,1.3,0.2,1.3,1.2
		c-0.1,6,0,12,0,18c0,0.9-0.3,1.2-1.2,1.2C410.7,232.2,391.2,232.2,371.7,232.2z M442.1,267.6c-6,6-12,12.1-18,18.2
		c-0.2,0.2-0.4,0.4-0.6,0.6c-0.2-0.2-0.4-0.3-0.5-0.5c-6.1-6.1-12.1-12.3-18.2-18.4c-0.5-0.6-0.2-0.8,0.1-1.2
		c3.2-3.3,6.5-6.6,9.7-9.8c2.7-2.7,5.4-5.5,8.1-8.2c0.5-0.6,0.8-0.6,1.4,0c5.9,6,11.9,12.1,17.9,18.1
		C442.5,266.7,442.6,267,442.1,267.6z M463.9,265.5c-6.4,0-12.7,0-19.1,0c-0.6,0-1-0.2-1.4-0.6c-6.1-6.2-12.3-12.4-18.4-18.6
		c-0.4-0.4-0.6-0.8-0.6-1.4c0-3.2,0-6.4,0-9.6c0-1,0.3-1.1,1.2-1.1c2.3,0.1,4.5,0,6.8,0c0.7,0,1-0.2,1-1c0-3.7,0-7.5,0-11.2
		c0-0.9,0.3-1.1,1.1-1.1c5.2,0,10.4,0,15.7,0c0.5,0,0.9,0,1,0.8c1.1,7.3,5.7,12,13,13.1c0.8,0.1,0.7,0.6,0.7,1.1c0,4.8,0,9.5,0,14.3
		c0,4.8,0,9.5,0,14.3C464.9,265.2,464.7,265.5,463.9,265.5z M466.4,206.9c6.7,0.2,12.4,6.3,12.2,13.1c-0.2,7.4-6.1,13.1-13.3,12.9
		c-6.9-0.2-12.6-6.2-12.5-13.1C453.1,212.4,459,206.7,466.4,206.9z M486.4,193.4c-13.8,0-27.5,0-41.3,0c-1,0-1.3-0.3-1.3-1.3
		c0-7,0-14,0-21c0-6.9,0-13.9,0-20.8c0-1,0.3-1.3,1.3-1.3c13.8,0,27.5,0,41.3,0c1,0,1.3,0.3,1.3,1.3c0,13.9,0,27.8,0,41.7
		C487.8,193.1,487.4,193.4,486.4,193.4z"/>
	<path fill="#FEFEFE" d="M397.1,85.6c2.2,2.1,3.8,4.2,3,7.4c0,1.1,0,2.2,0,3.3c0,0.6-0.2,1.4,0.9,1.4c1.2,0,1-0.8,1-1.4
		c0-2.1,0-4.3,0-6.4c0-0.8,0.2-1.4,0.8-2c5.2-5.2,10.4-10.5,15.6-15.7c0.6-0.6,0.6-0.9,0-1.5c-5.5-5.5-11-11.1-16.5-16.7
		c-0.7-0.7-1-0.6-1.7,0c-5.4,5.6-10.9,11.1-16.4,16.6c-0.6,0.6-0.6,0.9,0,1.6C388.2,76.7,392.5,81.3,397.1,85.6z M386.3,70.8
		c4.7-4.8,9.5-9.6,14.2-14.4c0.5-0.5,0.7-0.4,1.2,0c4.7,4.8,9.4,9.5,14.1,14.3c0.5,0.5,0.4,0.8,0,1.3c-4.7,4.7-9.4,9.5-14,14.2
		c-0.2,0.2-0.4,0.4-0.6,0.6c-0.2-0.2-0.4-0.3-0.5-0.5c-4.8-4.8-9.5-9.6-14.3-14.4C385.8,71.5,385.9,71.2,386.3,70.8z"/>
	<path fill="#31C3F2" d="M428.3,163c0-15-12.4-27.3-27.3-27.3c-15.2,0-27.3,12.4-27.3,27.9c0,15,12.3,27.3,27.3,27.4
		C416.1,191,428.3,178.5,428.3,163z"/>
	<path fill="#31C3F2" d="M487.8,150.4c0-1.1-0.3-1.3-1.3-1.3c-13.8,0-27.5,0-41.3,0c-1,0-1.3,0.3-1.3,1.3c0,6.9,0,13.8,0,20.8
		c0,7,0,14,0,21c0,1,0.3,1.3,1.3,1.3c13.8,0,27.5,0,41.3,0c1,0,1.3-0.3,1.3-1.3C487.7,178.2,487.7,164.3,487.8,150.4z"/>
	<path fill="#31C3F2" d="M417.6,122.2c-4.9,0-9.8,0-14.7,0c-0.8,0-1,0.2-1,1c0,3,0.1,6.1,0,9.1c0,1.2,0.4,1.5,1.4,1.5
		c15.7,1.1,27.8,15.1,26.8,31.1c0,0.8,0.1,1.1,1,1c3.3,0,6.5,0,9.8,0c0.9,0,1.1-0.3,1.1-1.2c0-5.5,0-11,0-16.4c0-1,0.2-1.3,1.2-1.3
		c6.5,0,13.1,0,19.6,0c0.7,0,1.1-0.1,1.1-1c0-4.9,0-9.9,0-14.8c0-0.5-0.2-0.9-0.5-1.3c-5-5.1-10.1-10.2-15.1-15.3
		c-0.3-0.3-0.7-0.5-1.2-0.5c-4.3,0-8.6,0-13,0c-0.7,0-0.9,0.3-0.9,0.9c0,1.9-0.1,3.9,0,5.8c0,1-0.3,1.3-1.3,1.2
		C427.2,122.2,422.4,122.2,417.6,122.2z"/>
	<path fill="#31C3F2" d="M462.1,195.3c-6.3,0-12.6,0-18.8,0.1c-1.1,0-1.3-0.3-1.3-1.3c0-8.3,0-16.7,0-25c0-0.8-0.2-1.1-1.1-1.1
		c-3.4,0.1-6.8,0-10.2,0c-0.8,0-1,0.3-1.2,1c-2.7,13.5-13.3,22.9-26.8,23.9c-0.8,0.1-0.9,0.3-0.9,1c0,4.9,0,9.9,0,14.8
		c0,0.9,0.3,1.1,1.1,1.1c4.8,0,9.7,0,14.6,0c4.9,0,9.8,0,14.7,0c0.8,0,1.1,0.2,1.1,1.1c-0.1,2.3,0,4.6,0,7c0,0.9,0.2,1.2,1.1,1.2
		c5.2,0,10.5,0,15.7,0c0.8,0,1-0.3,1.1-1c1.1-6.6,4.9-10.9,11.3-12.6c0.7-0.2,0.8-0.5,0.8-1.1c0-2.6-0.1-5.2,0-7.8
		C463.3,195.6,463.1,195.3,462.1,195.3z M440.8,183.8c-4.2,0-8.3,0-12.5,0c-0.9,0-1.1,0.2-1.1,1.2c0,7.7,0,15.4,0,23.2
		c0,0.7,0,1.1-0.9,1.1c-0.9,0-1.1-0.3-1.1-1.1c0-4.2,0-8.4,0-12.7c0-4.2,0-8.4,0-12.6c0-0.9,0.2-1.1,1.1-1.1c4.8,0,9.7,0,14.5,0
		c0.7,0,1.1,0.1,1.1,1C441.9,183.7,441.5,183.8,440.8,183.8z"/>
	<path fill="#31C3F2" d="M464.8,250.2c0-4.8,0-9.5,0-14.3c0-0.5,0.1-1-0.7-1.1c-7.2-1.1-11.8-5.8-13-13.1c-0.1-0.8-0.5-0.8-1-0.8
		c-5.2,0-10.5,0-15.7,0c-0.9,0-1.2,0.2-1.1,1.1c0.1,3.7,0,7.5,0,11.2c0,0.7-0.2,1-1,1c-2.3,0-4.5,0-6.8,0c-0.8,0-1.2,0.1-1.2,1.1
		c0.1,3.2,0,6.4,0,9.6c0,0.6,0.2,1,0.6,1.4c6.2,6.2,12.3,12.4,18.4,18.6c0.4,0.4,0.8,0.6,1.4,0.6c6.4,0,12.7,0,19.1,0
		c0.8,0,1-0.3,1-1C464.8,259.7,464.8,254.9,464.8,250.2z"/>
	<path fill="#31C3F2" d="M379.3,209.8c6.6,0,13.2,0,19.7,0c0.8,0,1.1-0.2,1.1-1.1c0-4.9,0-9.8,0-14.7c0-0.8-0.2-1.1-1-1.2
		c-7.2-0.5-13.5-3.2-18.5-8.4c-8.6-8.9-10.8-19.4-7-31.2c0.3-0.8,0.3-1.1-0.7-1.1c-3.4,0.1-6.8,0.1-10.3,0c-0.9,0-1.1,0.3-1,1.1
		c0,3.2,0,6.5,0,9.7c0,0.9-0.2,1.1-1.1,1.1c-3.5,0-7.1,0-10.6,0s-7.1,0-10.6,0c-1,0-1.2,0.3-1.2,1.3c0.1,3.9,0,7.8,0,11.8
		c0,1.5,0,1.5,1.4,1.5c6.9,0,13.8,0,20.7,0c1.1,0,1.3,0.3,1.3,1.3c-0.1,3.5,0,6.9,0,10.4c0,0.8,0.2,1,1,0.9
		c4.8-0.2,9.7-0.3,14.5-0.4c0.9,0,1.2,0.2,1.2,1.2c0,5.6,0,11.2,0,16.8C378.2,209.5,378.4,209.8,379.3,209.8z"/>
	<path fill="#31C3F2" d="M370.6,118.7c0,1.5,0,1.5,1.4,1.5c9.6,0,19.2,0,28.9,0c9.8,0,19.5,0,29.3,0c1,0,1.3-0.3,1.3-1.3
		c0-6.1,0-12.1,0-18.2c0-0.9-0.2-1.2-1.1-1.2c-19.5,0-39.1,0-58.6,0c-0.9,0-1.1,0.3-1.1,1.2C370.6,106.8,370.6,112.7,370.6,118.7z"
		/>
	<path fill="#31C3F2" d="M431.4,231c0-6,0-12,0-18c0-1-0.3-1.2-1.3-1.2c-9.7,0-19.5,0-29.2,0c-9.7,0-19.5,0-29.2,0
		c-0.9,0-1.2,0.2-1.2,1.2c0,6,0,12.1,0,18.2c0,0.9,0.3,1.1,1.2,1.1c19.5,0,39,0,58.5,0C431.2,232.2,431.4,231.9,431.4,231z"/>
	<path fill="#31C3F2" d="M339.6,130.2c-0.8,0.1-0.9,0.4-0.9,1.1c0,2.4,0,4.9,0,7.3c0,0.8,0.3,1,1,1c3.5,0,6.9,0,10.4,0
		c3.5,0,6.9,0,10.4,0c0.8,0,1.1,0.2,1.1,1.1c0,2.8,0,5.6,0,8.3c0,1,0.3,1.2,1.2,1.2c3.3-0.1,6.6,0,9.9,0c0.5,0,1-0.2,1.3,0
		c0.6,0.4,0.8,0.1,1-0.4c1.9-3.7,4.4-6.9,7.6-9.5c4.7-3.8,10.1-6,16.1-6.4c0.6,0,1.4,0.1,1.3-1c-0.1-3.2,0-6.5,0-9.7
		c0-0.8-0.3-0.9-1-0.9c-2,0-3.9,0-5.9,0c-7.7,0-15.5,0-23.2,0c-1.1,0-1.4-0.3-1.3-1.3c0.1-1.2,0-2.4,0-3.5c0.1-0.9-0.3-1.1-1.1-1.1
		c-4.7,0-9.4,0-14.1,0c-0.8,0-1,0.2-1.1,1C351.6,124.1,346.3,129.4,339.6,130.2z"/>
	<path fill="#31C3F2" d="M375.6,245c0-3.3,0-6.6,0-9.9c0-0.7-0.2-0.9-0.9-0.9c-1.7,0-3.5,0-5.2,0c-0.6,0-0.8-0.2-0.8-0.9
		c0-1.7,0-3.4,0-5.1c0-0.9-0.2-1.2-1.1-1.2c-3.8,0-7.5,0-11.3,0c-0.7,0-1.2,0.2-1.7,0.7c-4.8,4.9-9.7,9.9-14.6,14.8
		c-0.6,0.6-0.8,1.1-0.8,1.9c0,3.3,0,6.6,0,9.9c0,3.4,0,6.9,0,10.3c0,0.9,0.2,1.3,1.2,1.2c4.7,0,9.5,0,14.2,0c0.6,0,1.1-0.2,1.6-0.6
		c6.2-6.3,12.5-12.7,18.7-19C375.4,245.9,375.6,245.5,375.6,245z"/>
	<path fill="#31C3F2" d="M358.5,162c0.9,0,1.2-0.2,1.2-1.2c0-6.1,0-12.2,0-18.3c0-0.9-0.2-1.2-1.1-1.2c-13.8,0-27.7,0-41.5,0
		c-1,0-1.2,0.3-1.2,1.2c0,6,0,12.1,0,18.1c0,0.9,0.2,1.2,1.2,1.2c6.9,0,13.8,0,20.6,0C344.6,162,351.6,162,358.5,162z"/>
	<path fill="#31C3F2" d="M358.6,201c0.8,0,1.1-0.2,1.1-1.1c0-6.1,0-12.3,0-18.4c0-0.9-0.2-1.1-1.1-1.1c-13.9,0-27.7,0-41.6,0
		c-0.8,0-1.1,0.2-1.1,1.1c0,6.1,0,12.3,0,18.4c0,1,0.4,1.1,1.2,1.1c6.9,0,13.8,0,20.6,0C344.7,201,351.7,201,358.6,201z"/>
	<path fill="#31C3F2" d="M424.2,248.1c-0.6-0.6-0.9-0.6-1.4,0c-2.7,2.8-5.4,5.5-8.1,8.2c-3.2,3.3-6.5,6.6-9.7,9.8
		c-0.4,0.4-0.7,0.6-0.1,1.2c6.1,6.1,12.1,12.3,18.2,18.4c0.2,0.2,0.3,0.3,0.5,0.5c0.2-0.2,0.4-0.4,0.6-0.6c6-6.1,12-12.1,18-18.2
		c0.6-0.6,0.5-0.8,0-1.3C436.1,260.2,430.1,254.2,424.2,248.1z"/>
	<path fill="#31C3F2" d="M376,248.1c-6,6.1-12,12.2-18,18.2c-0.5,0.5-0.4,0.7,0,1.2c6,6.1,12,12.1,18,18.2c0.5,0.5,0.7,0.5,1.2,0
		c6-6.1,12-12.2,18-18.2c0.2-0.2,0.3-0.3,0.4-0.5c0-0.3-0.3-0.5-0.4-0.7c-6-6.1-12-12.2-18-18.2C376.7,247.6,376.5,247.6,376,248.1z
		"/>
	<path fill="#31C3F2" d="M370,209.7c1.8,0.1,3.5,0,5.3,0c0.7,0,1-0.2,1-1c0-5,0-10,0-15.1c0-0.7-0.2-1-1-1
		c-4.3,0.1-8.6,0.2-12.8,0.3c-0.8,0-0.9,0.3-0.9,1c0,2.6,0,5.2,0,7.8c0,0.9-0.2,1.1-1.1,1.1c-3.3,0-6.7,0-10,0c-3.3,0-6.7,0-10,0
		c-0.9,0-1.2,0.3-1.1,1.2c0.1,1.2,0.1,2.4,0,3.7c0,0.8,0.2,1.3,0.8,1.8c4.9,4.9,9.8,9.9,14.7,14.9c0.5,0.5,1,0.7,1.7,0.7
		c3.7,0,7.4,0,11.1,0c1,0,1.3-0.2,1.3-1.3c-0.1-4.3,0-8.5-0.1-12.8C368.7,209.9,369,209.7,370,209.7z"/>
	<path fill="#31C3F2" d="M350.7,115.5c0-7.3-5.7-13.2-12.9-13.2c-7,0-12.8,5.8-12.8,13c0,7.2,5.8,13.1,12.9,13.1
		C344.7,128.4,350.6,122.5,350.7,115.5z"/>
	<path fill="#31C3F2" d="M452.9,219.8c-0.1,6.9,5.6,13,12.5,13.1c7.2,0.2,13.1-5.5,13.3-12.9c0.2-6.8-5.5-12.9-12.2-13.1
		C459,206.7,453.1,212.4,452.9,219.8z"/>
	<path fill="#31C3F2" d="M464.3,128.2c0.4,0.4,0.6,0.5,1.1,0c4.7-4.8,9.5-9.6,14.2-14.4c0.2-0.2,0.3-0.3,0.4-0.5
		c-0.2-0.2-0.4-0.4-0.6-0.6c-4.7-4.7-9.4-9.5-14-14.2c-0.5-0.5-0.7-0.6-1.2,0c-4.7,4.8-9.4,9.5-14.1,14.3c-0.4,0.4-0.5,0.7,0,1.2
		C454.9,118.6,459.6,123.4,464.3,128.2z"/>
	<path fill="#31C3F2" d="M353.1,225.5c-4.8-4.8-9.5-9.6-14.3-14.4c-0.2-0.2-0.3-0.3-0.5-0.5c-0.2,0.2-0.4,0.3-0.5,0.5
		c-4.7,4.8-9.5,9.6-14.2,14.4c-0.5,0.5-0.4,0.7,0,1.2c1.6,1.6,3.3,3.3,4.9,4.9c3.1,3.1,6.1,6.2,9.2,9.3c0.3,0.3,0.5,0.8,1.1,0.2
		c4.8-4.9,9.5-9.7,14.3-14.5C353.6,226.1,353.5,225.9,353.1,225.5z"/>
	<path fill="#31C3F2" d="M400.5,86.3c0.2,0.2,0.3,0.3,0.5,0.5c0.2-0.2,0.4-0.4,0.6-0.6c4.7-4.7,9.3-9.5,14-14.2
		c0.5-0.5,0.6-0.7,0-1.3c-4.7-4.7-9.4-9.5-14.1-14.3c-0.4-0.4-0.7-0.5-1.2,0c-4.7,4.8-9.4,9.6-14.2,14.4c-0.4,0.4-0.5,0.6-0.1,1.1
		C391,76.7,395.7,81.5,400.5,86.3z"/>
	<path fill="#FCFDFE" d="M440.8,181.8c-4.8,0-9.7,0-14.5,0c-0.8,0-1.1,0.2-1.1,1.1c0,4.2,0,8.4,0,12.6c0,4.2,0,8.4,0,12.7
		c0,0.8,0.2,1.1,1.1,1.1c0.9,0,0.9-0.5,0.9-1.1c0-7.7,0-15.4,0-23.2c0-0.9,0.3-1.2,1.1-1.2c4.2,0,8.3,0,12.5,0c0.7,0,1.1-0.2,1.1-1
		C441.9,181.9,441.5,181.8,440.8,181.8z"/>
</g>
</svg>
