<!-- Generator: Adobe Illustrator 18.0.0, SVG Export Plug-In  -->
<svg version="1.1"
	 xmlns="http://www.w3.org/2000/svg" xmlns:xlink="http://www.w3.org/1999/xlink" xmlns:a="http://ns.adobe.com/AdobeSVGViewerExtensions/3.0/"
	 x="0px" y="0px" width="83.9px" height="13.7px" viewBox="0 0 83.9 13.7" enable-background="new 0 0 83.9 13.7"
	 xml:space="preserve">
<defs>
</defs>
<g>
	<polygon fill="#BEC8D2" points="4,13.5 0,13.5 0,0.2 7,0.2 15,10.1 15,0.2 19,0.2 19,13.5 12.2,13.5 4,3.4 	"/>
	<path fill="#BEC8D2" d="M37.5,1.2C36.6,0.3,35.4,0,33,0h-6.9c-2.4,0-3.6,0.3-4.5,1.2c-0.6,0.6-0.9,1.2-0.9,3.1v5.1
		c0,1.8,0.3,2.5,0.9,3.1c0.9,0.9,2.1,1.2,4.5,1.2H33c2.4,0,3.7-0.3,4.5-1.2c0.6-0.6,0.9-1.2,0.9-3.1V4.3C38.4,2.4,38,1.8,37.5,1.2
		 M34.6,8.9c0,0.8-0.1,1-0.3,1.2c-0.2,0.2-0.5,0.2-1.5,0.2h-6.6c-0.9,0-1.2-0.1-1.5-0.2c-0.2-0.2-0.3-0.4-0.3-1.2V4.8
		c0-0.8,0.1-1,0.3-1.2c0.2-0.2,0.6-0.2,1.5-0.2h6.6c0.9,0,1.3,0,1.5,0.2c0.2,0.2,0.3,0.4,0.3,1.2V8.9z"/>
	<path fill="#BEC8D2" d="M51.4,0.2h5.6l-7.5,6.2l8.5,7.1h-6l-7.7-6.9L51.4,0.2z M44.2,13.5H40V0.2h4.2V13.5z"/>
	<rect x="58.7" y="0.2" fill="#BEC8D2" width="4.2" height="13.3"/>
	<path fill="#BEC8D2" d="M71.1,8.3h5.2l-2.6-4.8L71.1,8.3z M79,13.5l-1.2-2.3h-8.2l-1.2,2.3h-4.7l7.5-13.3h5.3l7.5,13.3H79z"/>
</g>
</svg>
