<?xml version="1.0" encoding="iso-8859-1"?>
<!-- Generator: Adobe Illustrator 16.0.0, SVG Export Plug-In . SVG Version: 6.00 Build 0)  -->
<!DOCTYPE svg PUBLIC "-//W3C//DTD SVG 1.1//EN" "http://www.w3.org/Graphics/SVG/1.1/DTD/svg11.dtd">
<svg version="1.1" id="Layer_1" xmlns="http://www.w3.org/2000/svg" xmlns:xlink="http://www.w3.org/1999/xlink" x="0px" y="0px"
	 width="45.972px" height="45.972px" viewBox="0 0 45.972 45.972" style="enable-background:new 0 0 45.972 45.972;"
	 xml:space="preserve">
<g>
	<g>
		<path style="fill:#628238;" d="M20.804,25.923c-0.98,0.967-2.339,1.514-3.823,1.514c-1.499,0-2.829-0.547-3.839-1.527
			c-0.98-0.967-1.512-2.241-1.512-3.727c0-1.484,0.531-2.773,1.512-3.739c1.01-0.98,2.34-1.513,3.839-1.513s2.829,0.532,3.838,1.513
			c0.98,0.966,1.513,2.269,1.513,3.739C22.331,23.668,21.799,24.942,20.804,25.923z M18.661,22.183c0-1.162-0.7-1.904-1.681-1.904
			c-0.981,0-1.695,0.742-1.695,1.904c0,1.163,0.714,1.892,1.695,1.892C17.961,24.074,18.661,23.346,18.661,22.183z"/>
		<path style="fill:#628238;" d="M23.837,17.154h3.53l3.11,5.239c-0.099-0.631-0.113-1.163-0.113-1.598c0-0.098,0-0.195,0-0.279
			v-3.362h3.475V27.17H30.28l-3.081-5.196c0.099,0.645,0.112,1.176,0.112,1.582v3.614h-3.475V17.154z"/>
	</g>
	<g>
		<path style="fill:#8F3333;stroke:#8F3333;stroke-width:5;" d="M7.378,9.765"/>
		<radialGradient id="SVGID_1_" cx="28.3438" cy="16.1431" r="19.8701" gradientUnits="userSpaceOnUse">
			<stop  offset="0" style="stop-color:#FFFFFF"/>
			<stop  offset="0.1377" style="stop-color:#EDF8E6"/>
			<stop  offset="0.4098" style="stop-color:#CEECBA"/>
			<stop  offset="0.6539" style="stop-color:#B8E39A"/>
			<stop  offset="0.859" style="stop-color:#AADE87"/>
			<stop  offset="1" style="stop-color:#A5DC80"/>
		</radialGradient>
		<circle style="fill:url(#SVGID_1_);" cx="22.986" cy="22.613" r="20.486"/>
		<circle style="fill:none;stroke:#628238;stroke-width:5;" cx="22.986" cy="22.986" r="20.486"/>
		<path style="fill:#8F3333;stroke:#8F3333;stroke-width:5;" d="M7.306,35.633"/>
	</g>
	<g>
		<g style="opacity:0.35;">
			<path style="fill:#417011;" d="M23.243,3.78h-0.002v18.16l15.023-11.82c0,0-0.123-0.123-0.125-0.125
				C33.903,5.579,29.503,3.78,23.243,3.78z"/>
		</g>
	</g>
	<path style="fill:none;stroke:#75A935;stroke-width:5;stroke-linecap:round;stroke-miterlimit:10;" d="M23.552,2.508
		c5.484,0.122,10.313,2.388,13.824,5.898"/>
	<radialGradient id="SVGID_2_" cx="38.583" cy="10.0601" r="3.1013" gradientUnits="userSpaceOnUse">
		<stop  offset="0" style="stop-color:#8CD65A"/>
		<stop  offset="0.43" style="stop-color:#8BD459"/>
		<stop  offset="0.5849" style="stop-color:#86CD55"/>
		<stop  offset="0.6954" style="stop-color:#7DC24D"/>
		<stop  offset="0.7846" style="stop-color:#70B143"/>
		<stop  offset="0.8611" style="stop-color:#609B35"/>
		<stop  offset="0.9287" style="stop-color:#4C7F25"/>
		<stop  offset="0.9885" style="stop-color:#346011"/>
		<stop  offset="1" style="stop-color:#2F590D"/>
	</radialGradient>
	
		<circle style="fill:url(#SVGID_2_);stroke:#66823F;stroke-width:1.2739;stroke-linecap:round;stroke-miterlimit:10;" cx="38.583" cy="10.061" r="3.101"/>
</g>
</svg>
