<?xml version="1.0" encoding="utf-8"?>
<!-- Generator: Adobe Illustrator 16.0.0, SVG Export Plug-In . SVG Version: 6.00 Build 0)  -->
<!DOCTYPE svg PUBLIC "-//W3C//DTD SVG 1.1//EN" "http://www.w3.org/Graphics/SVG/1.1/DTD/svg11.dtd">
<svg version="1.1" id="Layer_1" xmlns="http://www.w3.org/2000/svg" xmlns:xlink="http://www.w3.org/1999/xlink" x="0px" y="0px"
	 width="30px" height="30px" viewBox="0 0 30 30" enable-background="new 0 0 30 30" xml:space="preserve">
<g>
	<g>
		<path fill="#99A6BF" d="M20.228,10.742c-2.203,0-3.104,1.925-3.104,3.917s0.9,3.915,3.104,3.915c2.205,0,3.106-1.922,3.106-3.915
			S22.433,10.742,20.228,10.742z M15,1C7.268,1,1,7.267,1,14.998C1,22.73,7.268,29,15,29c7.732,0,14-6.27,14-14.002
			C29,7.267,22.731,1,15,1z M9.764,21.219c-3.95,0-6.172-2.963-6.172-6.559c0-3.811,2.452-6.563,6.226-6.563
			c1.729,0,3.793,0.494,3.793,1.993c0,0.689-0.494,1.359-1.235,1.359c-0.671,0-1.376-0.6-2.487-0.6
			c-2.311,0-3.227,1.869-3.227,3.811c0,1.993,1.022,3.702,2.98,3.702c1.782,0,2.063-0.58,2.805-0.58c1.128,0,1.27,0.952,1.27,1.321
			C13.715,20.673,11.333,21.219,9.764,21.219z M20.228,21.219c-3.72,0-6.171-2.576-6.171-6.559c0-3.986,2.452-6.563,6.171-6.563
			c3.724,0,6.175,2.577,6.175,6.563C26.402,18.643,23.951,21.219,20.228,21.219z"/>
	</g>
</g>
</svg>
