<?xml version="1.0" encoding="utf-8"?>
<!-- Generator: Adobe Illustrator 16.0.0, SVG Export Plug-In . SVG Version: 6.00 Build 0)  -->
<!DOCTYPE svg PUBLIC "-//W3C//DTD SVG 1.1//EN" "http://www.w3.org/Graphics/SVG/1.1/DTD/svg11.dtd">
<svg version="1.1" id="Layer_1" xmlns="http://www.w3.org/2000/svg" xmlns:xlink="http://www.w3.org/1999/xlink" x="0px" y="0px"
	 width="30px" height="30px" viewBox="0 0 30 30" enable-background="new 0 0 30 30" xml:space="preserve">
<g>
	<path fill="#99A6BF" d="M14.999,1C7.267,1,1,7.252,1,14.964c0,7.714,6.267,13.968,13.999,13.968C22.729,28.933,29,22.679,29,14.964
		C29,7.252,22.729,1,14.999,1z M17.938,21.506h-5.233c-0.864,0-1.669-0.597-1.669-1.664V8.54c0-1.069,0.805-1.665,1.669-1.665h5.108
		c1.053,0,1.67,0.617,1.67,1.542c0,0.965-0.617,1.541-1.67,1.541h-3.44v2.65h3.154c1.048,0,1.669,0.596,1.669,1.542
		c0,0.945-0.621,1.542-1.669,1.542h-3.154v2.731h3.565c1.051,0,1.668,0.576,1.668,1.541C19.606,20.89,18.989,21.506,17.938,21.506z"
		/>
</g>
</svg>
