<?xml version="1.0" encoding="utf-8"?>
<!-- Generator: Adobe Illustrator 16.0.0, SVG Export Plug-In . SVG Version: 6.00 Build 0)  -->
<!DOCTYPE svg PUBLIC "-//W3C//DTD SVG 1.1//EN" "http://www.w3.org/Graphics/SVG/1.1/DTD/svg11.dtd">
<svg version="1.1" id="Layer_1" xmlns="http://www.w3.org/2000/svg" xmlns:xlink="http://www.w3.org/1999/xlink" x="0px" y="0px"
	 width="30px" height="30px" viewBox="0 0 30 30" enable-background="new 0 0 30 30" xml:space="preserve">
<g>
	<path fill="#99A6BF" d="M17.906,9.98h-2.202v3.233h2.202c1.092,0,1.709-0.721,1.709-1.648C19.615,10.577,18.854,9.98,17.906,9.98z
		 M14.999,1C7.267,1,1,7.267,1,14.998C1,22.73,7.267,29,14.999,29C22.729,29,29,22.73,29,14.998C29,7.267,22.729,1,14.999,1z
		 M10.761,19.907c0,1.175-0.701,1.772-1.669,1.772c-0.968,0-1.669-0.598-1.669-1.772V8.538c0-1.174,0.701-1.771,1.669-1.771
		c0.968,0,1.669,0.597,1.669,1.771V19.907z M21.432,21.68c-0.867,0-1.176-0.31-1.59-0.824l-4.097-5.17h-0.041v4.222
		c0,1.175-0.702,1.772-1.668,1.772c-0.969,0-1.669-0.598-1.669-1.772V8.558c0-1.071,0.804-1.668,1.669-1.668h4.013
		c2.967,0,4.903,1.814,4.903,4.553c0,2.163-1.317,3.727-3.417,4.119l2.902,3.13c0.455,0.494,0.702,0.886,0.702,1.443
		C23.14,20.606,22.706,21.68,21.432,21.68z"/>
</g>
</svg>
