<?xml version="1.0" encoding="utf-8"?>
<!-- Generator: Adobe Illustrator 16.0.0, SVG Export Plug-In . SVG Version: 6.00 Build 0)  -->
<!DOCTYPE svg PUBLIC "-//W3C//DTD SVG 1.1//EN" "http://www.w3.org/Graphics/SVG/1.1/DTD/svg11.dtd">
<svg version="1.1" id="Layer_1" xmlns="http://www.w3.org/2000/svg" xmlns:xlink="http://www.w3.org/1999/xlink" x="0px" y="0px"
	 width="30px" height="30px" viewBox="0 0 30 30" enable-background="new 0 0 30 30" xml:space="preserve">
<g>
	<path fill="#99A6BF" d="M15.421,9.981h-2.202v3.233h2.202c1.09,0,1.708-0.721,1.708-1.648C17.129,10.579,16.367,9.981,15.421,9.981
		z M14.984,1C7.26,1,1,7.267,1,14.999C1,22.73,7.26,29,14.984,29c7.724,0,13.986-6.27,13.986-14.001C28.971,7.267,22.708,1,14.984,1
		z M18.94,21.68c-0.865,0-1.174-0.309-1.585-0.822l-4.095-5.17h-0.042v4.221c0,1.175-0.7,1.771-1.667,1.771
		c-0.967,0-1.667-0.597-1.667-1.771V8.56c0-1.072,0.804-1.669,1.667-1.669h4.013c2.963,0,4.898,1.813,4.898,4.552
		c0,2.163-1.317,3.729-3.416,4.12l2.902,3.129c0.451,0.495,0.698,0.887,0.698,1.443C20.647,20.608,20.216,21.68,18.94,21.68z"/>
</g>
</svg>
