<?xml version="1.0" encoding="utf-8"?>
<!-- Generator: Adobe Illustrator 16.0.0, SVG Export Plug-In . SVG Version: 6.00 Build 0)  -->
<!DOCTYPE svg PUBLIC "-//W3C//DTD SVG 1.1//EN" "http://www.w3.org/Graphics/SVG/1.1/DTD/svg11.dtd">
<svg version="1.1" id="Layer_1" xmlns="http://www.w3.org/2000/svg" xmlns:xlink="http://www.w3.org/1999/xlink" x="0px" y="0px"
	 width="30px" height="30px" viewBox="0 0 30 30" enable-background="new 0 0 30 30" xml:space="preserve">
<g>
	<path fill="#99A6BF" d="M14.999,1C7.267,1,1,7.27,1,15.001C1,22.733,7.267,29,14.999,29C22.729,29,29,22.733,29,15.001
		C29,7.27,22.729,1,14.999,1z M14.497,21.888c-1.955,0-4.922-0.763-4.922-2.411c0-0.907,0.558-1.771,1.565-1.771
		c0.825,0,1.896,0.845,3.604,0.845c1.298,0,1.772-0.659,1.772-1.38c0-1.113-1.278-1.34-3.171-1.958
		c-1.732-0.555-3.524-1.298-3.524-3.954c0-3.192,2.492-4.696,5.274-4.696c2.679,0,4.161,0.926,4.161,2.205
		c0,0.906-0.597,1.565-1.481,1.565c-1.071,0-1.422-0.558-2.843-0.558c-0.908,0-1.525,0.475-1.525,1.195
		c0,0.845,0.824,0.948,3.13,1.71c1.813,0.597,3.564,1.523,3.564,4.305C20.101,20.362,17.607,21.888,14.497,21.888z"/>
</g>
</svg>
