<?xml version="1.0" encoding="utf-8"?>
<!-- Generator: Adobe Illustrator 16.0.0, SVG Export Plug-In . SVG Version: 6.00 Build 0)  -->
<!DOCTYPE svg PUBLIC "-//W3C//DTD SVG 1.1//EN" "http://www.w3.org/Graphics/SVG/1.1/DTD/svg11.dtd">
<svg version="1.1" id="Layer_1" xmlns="http://www.w3.org/2000/svg" xmlns:xlink="http://www.w3.org/1999/xlink" x="0px" y="0px"
	 width="30px" height="30px" viewBox="0 0 30 30" enable-background="new 0 0 30 30" xml:space="preserve">
<g>
	<path fill="#99A6BF" d="M14.998,1C7.267,1,1,7.267,1,14.999C1,22.729,7.267,29,14.998,29C22.73,29,29,22.729,29,14.999
		C29,7.267,22.73,1,14.998,1z M18.543,10.616h-1.871v9.927c0,1.175-0.701,1.772-1.669,1.772s-1.668-0.598-1.668-1.772v-9.927h-1.876
		c-1.112,0-1.729-0.619-1.729-1.545c0-0.968,0.617-1.545,1.729-1.545h7.084c1.112,0,1.733,0.577,1.733,1.545
		C20.276,9.997,19.655,10.616,18.543,10.616z"/>
</g>
</svg>
