<?xml version="1.0" encoding="utf-8"?>
<!-- Generator: Adobe Illustrator 16.0.0, SVG Export Plug-In . SVG Version: 6.00 Build 0)  -->
<!DOCTYPE svg PUBLIC "-//W3C//DTD SVG 1.1//EN" "http://www.w3.org/Graphics/SVG/1.1/DTD/svg11.dtd">
<svg version="1.1" id="Layer_1" xmlns="http://www.w3.org/2000/svg" xmlns:xlink="http://www.w3.org/1999/xlink" x="0px" y="0px"
	 width="30px" height="30px" viewBox="0 0 30 30" enable-background="new 0 0 30 30" xml:space="preserve">
<g>
	<g>
		<path fill="#99A6BF" d="M15,1C7.268,1,1,7.27,1,15.001C1,22.733,7.268,29,15,29c7.731,0,14-6.267,14-13.999C29,7.27,22.731,1,15,1
			z M13.337,10.708h-1.605v8.501c0,1.005-0.601,1.518-1.429,1.518c-0.829,0-1.428-0.513-1.428-1.518v-8.501H7.27
			c-0.952,0-1.482-0.528-1.482-1.321c0-0.83,0.53-1.324,1.482-1.324h6.067c0.952,0,1.48,0.494,1.48,1.324
			C14.817,10.18,14.289,10.708,13.337,10.708z M23.569,19.299c0,0.792-0.563,1.428-1.375,1.428s-1.376-0.636-1.376-1.428v-4.357
			c0-0.954-0.563-1.658-1.516-1.658s-1.517,0.704-1.517,1.658v4.357c0,0.792-0.564,1.428-1.377,1.428
			c-0.811,0-1.375-0.636-1.375-1.428V8.468c0-0.793,0.563-1.428,1.375-1.428c0.813,0,1.377,0.635,1.377,1.428v3.176h0.034
			c0.565-0.354,1.271-0.69,2.329-0.69c1.904,0,3.42,0.989,3.42,3.246V19.299z"/>
	</g>
</g>
</svg>
