<?xml version="1.0" encoding="utf-8"?>
<!-- Generator: Adobe Illustrator 16.0.0, SVG Export Plug-In . SVG Version: 6.00 Build 0)  -->
<!DOCTYPE svg PUBLIC "-//W3C//DTD SVG 1.1//EN" "http://www.w3.org/Graphics/SVG/1.1/DTD/svg11.dtd">
<svg version="1.1" id="Layer_1" xmlns="http://www.w3.org/2000/svg" xmlns:xlink="http://www.w3.org/1999/xlink" x="0px" y="0px"
	 width="30px" height="30px" viewBox="0 0 30 30" enable-background="new 0 0 30 30" xml:space="preserve">
<g>
	<g>
		<path fill="#99A6BF" d="M14.535,13.234c-1.472,0-2.071,1.27-2.071,2.589c0,1.317,0.599,2.591,2.071,2.591
			c1.473,0,2.074-1.273,2.074-2.591C16.609,14.504,16.008,13.234,14.535,13.234z M14.915,1.22c-7.744,0-14.021,6.22-14.021,13.891
			C0.895,22.782,7.171,29,14.915,29c7.743,0,14.021-6.218,14.021-13.889C28.936,7.44,22.658,1.22,14.915,1.22z M10.197,13.21
			l-2.378,5.833c-0.188,0.463-0.351,1.003-1.059,1.003c-0.707,0-0.871-0.54-1.058-1.003L3.37,13.21
			c-0.061-0.139-0.202-0.512-0.202-0.689c0-0.479,0.377-0.921,0.932-0.921c0.716,0,0.883,0.419,1.058,0.852l1.625,4.246l1.625-4.246
			c0.176-0.432,0.342-0.852,1.062-0.852c0.552,0,0.929,0.441,0.929,0.921C10.399,12.698,10.259,13.071,10.197,13.21z M14.535,20.163
			c-2.485,0-4.122-1.703-4.122-4.34c0-2.636,1.637-4.339,4.122-4.339c2.485,0,4.122,1.704,4.122,4.339
			C18.657,18.46,17.021,20.163,14.535,20.163z M23.276,20.163c-2.638,0-4.122-1.96-4.122-4.34c0-2.518,1.638-4.339,4.157-4.339
			c1.153,0,2.53,0.327,2.53,1.319c0,0.453-0.328,0.897-0.822,0.897c-0.448,0-0.919-0.395-1.66-0.395
			c-1.544,0-2.153,1.236-2.153,2.518c0,1.317,0.682,2.451,1.987,2.451c1.19,0,1.378-0.388,1.872-0.388
			c0.754,0,0.849,0.632,0.849,0.875C25.914,19.802,24.324,20.163,23.276,20.163z"/>
	</g>
</g>
</svg>
