<?xml version="1.0" encoding="utf-8"?>
<!-- Generator: Adobe Illustrator 16.0.0, SVG Export Plug-In . SVG Version: 6.00 Build 0)  -->
<!DOCTYPE svg PUBLIC "-//W3C//DTD SVG 1.1//EN" "http://www.w3.org/Graphics/SVG/1.1/DTD/svg11.dtd">
<svg version="1.1" id="Layer_1" xmlns="http://www.w3.org/2000/svg" xmlns:xlink="http://www.w3.org/1999/xlink" x="0px" y="0px"
	 width="30px" height="30px" viewBox="0 0 30 30" enable-background="new 0 0 30 30" xml:space="preserve">
<g>
	<path fill="#99A6BF" d="M14.999,1C7.267,1,1,7.268,1,14.999S7.267,29,14.999,29C22.73,29,29,22.73,29,14.999S22.73,1,14.999,1z
		 M24.11,10.526l-2.226,9.083c-0.392,1.606-0.742,2.493-2.347,2.493c-1.278,0-1.979-0.638-2.37-1.833l-2.142-6.715h-0.041
		l-2.143,6.715c-0.394,1.195-1.091,1.833-2.369,1.833c-1.606,0-1.957-0.887-2.35-2.493l-2.223-9.083
		c-0.103-0.432-0.33-1.152-0.33-1.71c0-0.885,0.66-1.627,1.669-1.627c1.091,0,1.545,0.659,1.729,1.483l1.711,7.909h0.041l2.41-7.683
		c0.414-1.278,0.988-1.71,1.875-1.71c0.885,0,1.461,0.432,1.874,1.71l2.412,7.683h0.039l1.711-7.909
		c0.186-0.824,0.637-1.483,1.731-1.483c1.007,0,1.668,0.742,1.668,1.627C24.44,9.374,24.214,10.095,24.11,10.526z"/>
</g>
</svg>
