<?xml version="1.0" encoding="utf-8"?>
<!-- Generator: Adobe Illustrator 19.2.1, SVG Export Plug-In . SVG Version: 6.00 Build 0)  -->
<svg version="1.1" id="Layer_1" xmlns="http://www.w3.org/2000/svg" xmlns:xlink="http://www.w3.org/1999/xlink" x="0px" y="0px"
	 viewBox="0 0 220 220" style="enable-background:new 0 0 220 220;" xml:space="preserve">
<style type="text/css">
	.st0{fill:#FFFFFF;}
	.st1{fill:#25ABCF;}
</style>
<rect x="-5.3" y="-5" class="st0" width="233.2" height="229.2"/>
<g>
	<path class="st1" d="M57.9,120V94.2h3v23.1h11.4v2.7H57.9z"/>
	<path class="st1" d="M91,120H76.6V94.2H91v2.7H79.6v8.3h10.7v2.6H79.6v9.5H91V120z"/>
	<path class="st1" d="M113,120l-3.2-8.2H99.4l-3.2,8.2h-3l10.2-25.9h2.5l10.1,25.9H113z M108.8,109.1l-3-8c-0.4-1-0.8-2.3-1.2-3.7
		c-0.3,1.1-0.6,2.4-1.1,3.7l-3,8H108.8z"/>
	<path class="st1" d="M122.6,109.3V120h-3V94.2h7.1c3.2,0,5.5,0.6,7,1.8c1.5,1.2,2.3,3,2.3,5.5c0,3.4-1.7,5.7-5.2,6.9l7,11.6h-3.5
		l-6.2-10.7H122.6z M122.6,106.7h4.1c2.1,0,3.7-0.4,4.7-1.3c1-0.8,1.5-2.1,1.5-3.8c0-1.7-0.5-2.9-1.5-3.7c-1-0.8-2.6-1.1-4.8-1.1
		h-3.9V106.7z"/>
	<path class="st1" d="M162.1,120h-3.4l-14.1-21.7h-0.1c0.2,2.5,0.3,4.9,0.3,7V120H142V94.2h3.4l14.1,21.6h0.1c0-0.3-0.1-1.3-0.2-3.1
		c-0.1-1.7-0.1-3-0.1-3.7V94.2h2.8V120z"/>
</g>
</svg>
