<?xml version="1.0" encoding="utf-8"?>
<!-- Generator: Adobe Illustrator 19.2.1, SVG Export Plug-In . SVG Version: 6.00 Build 0)  -->
<svg version="1.1" id="Layer_1" xmlns="http://www.w3.org/2000/svg" xmlns:xlink="http://www.w3.org/1999/xlink" x="0px" y="0px"
	 viewBox="0 0 220 220" style="enable-background:new 0 0 220 220;" xml:space="preserve">
<style type="text/css">
	.st0{fill:#F04D4D;}
	.st1{fill:#FFFFFF;}
</style>
<g>
	<path class="st0" d="M215.6,110L215.6,110c0-29.1-23.6-52.7-52.7-52.8c0,1.3,0,2.7-0.2,4v-4h0h0.2h0c0-29.2-23.7-52.8-52.9-52.8
		C80.9,4.3,57.2,28,57.2,57.2C28.1,57.2,4.4,80.8,4.4,110h0c0,0,0,0,0,0c0,0,0,0,0,0h0c0,29.1,23.7,52.7,52.8,52.8
		c0-1.3-0.1-2.7,0-4v0v4v0c0,29.1,23.6,52.8,52.7,52.8h0.1c29.1,0,52.8-23.7,52.8-52.8v0v0c0,0,0,0,0,0c0,0,0,0,0,0h0c0,0,0,0,0,0
		C191.9,162.7,215.6,139.1,215.6,110z M162.8,161.3c0-0.3,0-0.6,0-0.8v-1.6C162.8,159.6,162.8,160.4,162.8,161.3z"/>
</g>
<g>
	<path class="st1" d="M31.5,121.2h-2.6v-19.9h-7v-2.3h16.7v2.3h-7V121.2z"/>
	<path class="st1" d="M44.5,111.9v9.2h-2.6V98.9H48c2.7,0,4.7,0.5,6,1.6c1.3,1,2,2.6,2,4.7c0,2.9-1.5,4.9-4.5,6l6,10h-3.1l-5.4-9.2
		H44.5z M44.5,109.7H48c1.8,0,3.2-0.4,4-1.1c0.9-0.7,1.3-1.8,1.3-3.3c0-1.5-0.4-2.5-1.3-3.2c-0.9-0.6-2.3-1-4.2-1h-3.4V109.7z"/>
	<path class="st1" d="M73.5,121.2H61.1V98.9h12.4v2.3h-9.8v7.2h9.2v2.3h-9.2v8.2h9.8V121.2z"/>
	<path class="st1" d="M92.4,121.2l-2.8-7.1h-8.9l-2.7,7.1h-2.6l8.8-22.3h2.2l8.7,22.3H92.4z M88.8,111.8l-2.6-6.9
		c-0.3-0.9-0.7-1.9-1-3.2c-0.2,1-0.5,2-1,3.2l-2.6,6.9H88.8z"/>
	<path class="st1" d="M105,121.2h-2.6v-19.9h-7v-2.3H112v2.3h-7V121.2z"/>
	<path class="st1" d="M125.2,121.2l-7.5-19.7h-0.1c0.1,1.6,0.2,3.4,0.2,5.6v14.1h-2.4V98.9h3.9l7,18.3h0.1l7.1-18.3h3.9v22.2h-2.6
		v-14.3c0-1.6,0.1-3.4,0.2-5.4h-0.1l-7.6,19.7H125.2z"/>
	<path class="st1" d="M155.9,121.2h-12.4V98.9h12.4v2.3H146v7.2h9.2v2.3H146v8.2h9.8V121.2z"/>
	<path class="st1" d="M178.1,121.2h-2.9L163,102.5h-0.1c0.2,2.2,0.2,4.2,0.2,6v12.6h-2.4V98.9h2.9l12.1,18.6h0.1
		c0-0.3-0.1-1.2-0.1-2.6c-0.1-1.5-0.1-2.5-0.1-3.2V98.9h2.4V121.2z"/>
	<path class="st1" d="M191.1,121.2h-2.6v-19.9h-7v-2.3h16.7v2.3h-7V121.2z"/>
</g>
</svg>
