<?xml version="1.0" encoding="utf-8"?>
<!-- Generator: Adobe Illustrator 19.2.1, SVG Export Plug-In . SVG Version: 6.00 Build 0)  -->
<svg version="1.1" id="Layer_1" xmlns="http://www.w3.org/2000/svg" xmlns:xlink="http://www.w3.org/1999/xlink" x="0px" y="0px"
	 viewBox="0 0 220 220" style="enable-background:new 0 0 220 220;" xml:space="preserve">
<style type="text/css">
	.st0{fill:#25ABCF;}
	.st1{fill:#FFFFFF;}
	.st2{fill:#F04D4D;}
</style>
<rect x="-2.7" y="-2.4" class="st0" width="225.1" height="224.8"/>
<text transform="matrix(1 0 0 1 -182.1846 -192.4189)" class="st0" style="font-family:'OpenSans'; font-size:44.9244px;">LEARN</text>
<g>
	<path class="st1" d="M37.3,98.6c-3.1,0-5.5,1-7.3,3.1c-1.8,2-2.7,4.8-2.7,8.4c0,3.7,0.9,6.5,2.6,8.5c1.7,2,4.2,3,7.3,3
		c1.9,0,4.2-0.3,6.7-1.1v2.8c-1.9,0.7-4.3,1.1-7.2,1.1c-4.1,0-7.3-1.2-9.5-3.7c-2.2-2.5-3.4-6-3.4-10.6c0-2.9,0.5-5.4,1.6-7.6
		c1.1-2.2,2.6-3.8,4.7-5c2-1.2,4.4-1.8,7.2-1.8c2.9,0,5.5,0.5,7.7,1.6l-1.4,2.8C41.5,99.1,39.4,98.6,37.3,98.6z"/>
	<path class="st1" d="M73.3,110c0,4.5-1.1,8-3.4,10.6c-2.3,2.6-5.4,3.8-9.4,3.8c-4.1,0-7.3-1.3-9.5-3.8c-2.2-2.5-3.4-6.1-3.4-10.7
		c0-4.6,1.1-8.1,3.4-10.6c2.2-2.5,5.4-3.8,9.6-3.8c4,0,7.2,1.3,9.4,3.8C72.2,102,73.3,105.5,73.3,110z M51,110
		c0,3.8,0.8,6.7,2.4,8.6c1.6,2,4,2.9,7,2.9c3.1,0,5.4-1,7-2.9c1.6-2,2.4-4.8,2.4-8.6c0-3.8-0.8-6.6-2.4-8.6c-1.6-1.9-3.9-2.9-7-2.9
		c-3.1,0-5.5,1-7.1,2.9C51.8,103.4,51,106.3,51,110z"/>
	<path class="st1" d="M100.4,124h-3.7l-15.3-23.5h-0.2c0.2,2.8,0.3,5.3,0.3,7.6V124h-3v-28h3.7l15.2,23.4h0.2c0-0.3-0.1-1.4-0.2-3.3
		c-0.1-1.9-0.1-3.2-0.1-4v-16h3V124z"/>
	<path class="st1" d="M115.7,124h-3.3V98.9h-8.9v-2.9h21v2.9h-8.9V124z"/>
	<path class="st1" d="M131,112.4V124h-3.2v-28h7.7c3.4,0,6,0.7,7.6,2c1.6,1.3,2.5,3.3,2.5,5.9c0,3.7-1.9,6.2-5.6,7.5l7.6,12.6h-3.8
		l-6.8-11.6H131z M131,109.6h4.5c2.3,0,4-0.5,5-1.4c1.1-0.9,1.6-2.3,1.6-4.1c0-1.8-0.5-3.2-1.6-4c-1.1-0.8-2.8-1.2-5.2-1.2H131
		V109.6z"/>
	<path class="st1" d="M175.3,110c0,4.5-1.1,8-3.4,10.6c-2.3,2.6-5.4,3.8-9.4,3.8c-4.1,0-7.3-1.3-9.5-3.8c-2.2-2.5-3.4-6.1-3.4-10.7
		c0-4.6,1.1-8.1,3.4-10.6c2.2-2.5,5.4-3.8,9.6-3.8c4,0,7.2,1.3,9.4,3.8C174.2,102,175.3,105.5,175.3,110z M153,110
		c0,3.8,0.8,6.7,2.4,8.6c1.6,2,4,2.9,7,2.9c3.1,0,5.4-1,7-2.9c1.6-2,2.4-4.8,2.4-8.6c0-3.8-0.8-6.6-2.4-8.6c-1.6-1.9-3.9-2.9-7-2.9
		c-3.1,0-5.5,1-7.1,2.9C153.8,103.4,153,106.3,153,110z"/>
	<path class="st1" d="M180.5,124v-28h3.2v25h12.3v2.9H180.5z"/>
</g>
<g>
	<path class="st2" d="M409.6-205.6L409.6-205.6c0-29.1-23.6-52.7-52.7-52.8c0,1.3,0,2.7-0.2,4v-4l0,0h0.2h0
		c0-29.2-23.7-52.8-52.9-52.8c-29.2,0-52.8,23.7-52.8,52.8c-29.2,0-52.8,23.6-52.8,52.8h0c0,0,0,0,0,0c0,0,0,0,0,0h0
		c0,29.1,23.7,52.7,52.8,52.8c0-1.3-0.1-2.7,0-4v0v4v0c0,29.1,23.6,52.8,52.7,52.8h0.1c29.1,0,52.8-23.7,52.8-52.8v0v0c0,0,0,0,0,0
		c0,0,0,0,0,0h0c0,0,0,0,0,0C385.9-152.8,409.6-176.5,409.6-205.6z M356.8-154.3c0-0.3,0-0.6,0-0.8v-1.6
		C356.8-156,356.8-155.1,356.8-154.3z"/>
</g>
<g>
	<path class="st1" d="M237.8-207.5h-2.6v-10.5h-11.7v10.5h-2.6v-22.2h2.6v9.5h11.7v-9.5h2.6V-207.5z"/>
	<path class="st1" d="M250.5-207.2c-2.5,0-4.4-0.8-5.8-2.2c-1.4-1.5-2.1-3.6-2.1-6.2c0-2.7,0.7-4.8,2-6.4s3.1-2.4,5.3-2.4
		c2.1,0,3.7,0.7,5,2.1c1.2,1.4,1.8,3.2,1.8,5.4v1.6h-11.5c0.1,2,0.5,3.4,1.5,4.5c0.9,1,2.3,1.5,4,1.5c1.8,0,3.6-0.4,5.3-1.1v2.3
		c-0.9,0.4-1.7,0.7-2.5,0.8C252.6-207.2,251.6-207.2,250.5-207.2z M249.8-222.3c-1.3,0-2.4,0.4-3.2,1.3c-0.8,0.9-1.3,2.1-1.4,3.6
		h8.7c0-1.6-0.4-2.8-1.1-3.7S251.1-222.3,249.8-222.3z"/>
	<path class="st1" d="M282.2-207.5v-10.8c0-1.3-0.3-2.3-0.9-3c-0.6-0.7-1.4-1-2.6-1c-1.6,0-2.7,0.5-3.5,1.4
		c-0.8,0.9-1.1,2.3-1.1,4.2v9.3h-2.5v-10.8c0-1.3-0.3-2.3-0.9-3s-1.5-1-2.7-1c-1.6,0-2.7,0.5-3.5,1.4c-0.7,0.9-1.1,2.5-1.1,4.7v8.7
		h-2.5v-16.7h2.1l0.4,2.3h0.1c0.5-0.8,1.1-1.4,2-1.9c0.9-0.5,1.8-0.7,2.9-0.7c2.6,0,4.3,0.9,5.1,2.8h0.1c0.5-0.9,1.2-1.6,2.2-2.1
		s2-0.8,3.2-0.8c1.9,0,3.3,0.5,4.2,1.5s1.4,2.5,1.4,4.6v10.9H282.2z"/>
	<path class="st1" d="M309.7-207.5h-2.6l-4.5-14.9c-0.2-0.7-0.5-1.5-0.7-2.5c-0.3-1-0.4-1.6-0.4-1.8c-0.2,1.3-0.6,2.8-1.1,4.4
		l-4.3,14.8h-2.6l-5.9-22.2h2.7l3.5,13.7c0.5,1.9,0.8,3.7,1.1,5.2c0.3-1.9,0.7-3.7,1.2-5.4l4-13.5h2.7l4.2,13.6
		c0.5,1.6,0.9,3.3,1.2,5.3c0.2-1.4,0.6-3.2,1.1-5.3l3.5-13.7h2.7L309.7-207.5z"/>
	<path class="st1" d="M325.8-207.2c-2.5,0-4.4-0.8-5.8-2.2c-1.4-1.5-2.1-3.6-2.1-6.2c0-2.7,0.7-4.8,2-6.4c1.3-1.6,3.1-2.4,5.3-2.4
		c2.1,0,3.7,0.7,5,2.1c1.2,1.4,1.8,3.2,1.8,5.4v1.6h-11.5c0.1,2,0.5,3.4,1.5,4.5c0.9,1,2.3,1.5,4,1.5c1.8,0,3.6-0.4,5.3-1.1v2.3
		c-0.9,0.4-1.7,0.7-2.5,0.8C327.8-207.2,326.9-207.2,325.8-207.2z M325.1-222.3c-1.3,0-2.4,0.4-3.2,1.3c-0.8,0.9-1.3,2.1-1.4,3.6
		h8.7c0-1.6-0.4-2.8-1.1-3.7C327.4-221.9,326.4-222.3,325.1-222.3z"/>
	<path class="st1" d="M338.7-207.5h-2.5v-23.7h2.5V-207.5z"/>
	<path class="st1" d="M346.6-207.5h-2.5v-23.7h2.5V-207.5z"/>
	<path class="st1" d="M363-207.5h-2.6v-22.2h12.4v2.3H363v8.1h9.2v2.3H363V-207.5z"/>
	<path class="st1" d="M376.5-207.5v-22.2h2.6v22.2H376.5z"/>
	<path class="st1" d="M240.2-178.5h-2.6v-19.9h-7v-2.3h16.7v2.3h-7V-178.5z"/>
	<path class="st1" d="M264.6-186.8c0,2.7-0.7,4.8-2.1,6.4c-1.4,1.5-3.3,2.3-5.7,2.3c-1.5,0-2.8-0.3-4-1c-1.2-0.7-2-1.7-2.7-3
		c-0.6-1.3-0.9-2.8-0.9-4.6c0-2.7,0.7-4.8,2-6.3c1.4-1.5,3.2-2.3,5.7-2.3c2.3,0,4.2,0.8,5.6,2.3
		C263.9-191.6,264.6-189.5,264.6-186.8z M251.9-186.8c0,2.1,0.4,3.8,1.3,4.9c0.9,1.1,2.1,1.7,3.8,1.7c1.7,0,2.9-0.6,3.8-1.7
		c0.9-1.1,1.3-2.7,1.3-4.9c0-2.1-0.4-3.7-1.3-4.8c-0.9-1.1-2.1-1.6-3.8-1.6c-1.7,0-2.9,0.5-3.7,1.6
		C252.3-190.6,251.9-189,251.9-186.8z"/>
	<path class="st1" d="M274.4-180.2c0.4,0,0.9,0,1.3-0.1c0.4-0.1,0.7-0.1,1-0.2v1.9c-0.3,0.1-0.7,0.2-1.2,0.3c-0.5,0.1-1,0.1-1.4,0.1
		c-3.2,0-4.8-1.7-4.8-5.1v-9.9h-2.4v-1.2l2.4-1l1.1-3.6h1.5v3.9h4.8v2h-4.8v9.8c0,1,0.2,1.8,0.7,2.3S273.5-180.2,274.4-180.2z"/>
	<path class="st1" d="M290.2-178.5l-0.5-2.4h-0.1c-0.8,1-1.7,1.8-2.5,2.1s-1.9,0.6-3.1,0.6c-1.7,0-2.9-0.4-3.9-1.3
		c-0.9-0.9-1.4-2.1-1.4-3.6c0-3.4,2.7-5.1,8.1-5.3l2.8-0.1v-1c0-1.3-0.3-2.3-0.8-2.9c-0.6-0.6-1.5-0.9-2.7-0.9c-1.4,0-3,0.4-4.7,1.3
		l-0.8-1.9c0.8-0.4,1.7-0.8,2.7-1c1-0.3,2-0.4,2.9-0.4c2,0,3.5,0.4,4.4,1.3c1,0.9,1.4,2.3,1.4,4.2v11.4H290.2z M284.5-180.2
		c1.6,0,2.8-0.4,3.7-1.3s1.3-2.1,1.3-3.6v-1.5l-2.5,0.1c-2,0.1-3.5,0.4-4.3,0.9c-0.9,0.6-1.3,1.4-1.3,2.6c0,0.9,0.3,1.6,0.8,2.1
		C282.8-180.5,283.5-180.2,284.5-180.2z"/>
	<path class="st1" d="M299.8-178.5h-2.5v-23.7h2.5V-178.5z"/>
	<path class="st1" d="M323.2-198.7c-2.4,0-4.4,0.8-5.8,2.4c-1.4,1.6-2.1,3.9-2.1,6.7c0,2.9,0.7,5.2,2,6.7c1.4,1.6,3.3,2.4,5.8,2.4
		c1.6,0,3.3-0.3,5.3-0.8v2.3c-1.5,0.6-3.4,0.9-5.7,0.9c-3.3,0-5.8-1-7.6-3c-1.8-2-2.7-4.8-2.7-8.5c0-2.3,0.4-4.3,1.3-6s2.1-3,3.7-4
		s3.5-1.4,5.7-1.4c2.3,0,4.4,0.4,6.1,1.3l-1.1,2.2C326.5-198.3,324.8-198.7,323.2-198.7z"/>
	<path class="st1" d="M343.1-178.5l-0.5-2.4h-0.1c-0.8,1-1.7,1.8-2.5,2.1c-0.8,0.4-1.9,0.6-3.1,0.6c-1.7,0-2.9-0.4-3.9-1.3
		c-0.9-0.9-1.4-2.1-1.4-3.6c0-3.4,2.7-5.1,8.1-5.3l2.8-0.1v-1c0-1.3-0.3-2.3-0.8-2.9c-0.6-0.6-1.5-0.9-2.7-0.9c-1.4,0-3,0.4-4.7,1.3
		l-0.8-1.9c0.8-0.4,1.7-0.8,2.7-1c1-0.3,2-0.4,2.9-0.4c2,0,3.5,0.4,4.4,1.3c1,0.9,1.4,2.3,1.4,4.2v11.4H343.1z M337.4-180.2
		c1.6,0,2.8-0.4,3.7-1.3s1.3-2.1,1.3-3.6v-1.5l-2.5,0.1c-2,0.1-3.5,0.4-4.3,0.9c-0.9,0.6-1.3,1.4-1.3,2.6c0,0.9,0.3,1.6,0.8,2.1
		C335.7-180.5,336.4-180.2,337.4-180.2z"/>
	<path class="st1" d="M357.8-195.4c0.7,0,1.4,0.1,2,0.2l-0.3,2.3c-0.7-0.2-1.3-0.2-1.8-0.2c-1.3,0-2.5,0.5-3.5,1.6
		c-1,1.1-1.4,2.5-1.4,4.1v8.9h-2.5v-16.7h2.1l0.3,3.1h0.1c0.6-1.1,1.4-1.9,2.2-2.5C355.8-195.1,356.8-195.4,357.8-195.4z"/>
	<path class="st1" d="M370-178.2c-2.5,0-4.4-0.8-5.8-2.2c-1.4-1.5-2.1-3.6-2.1-6.2c0-2.7,0.7-4.8,2-6.4c1.3-1.6,3.1-2.4,5.3-2.4
		c2.1,0,3.7,0.7,5,2.1c1.2,1.4,1.8,3.2,1.8,5.4v1.6h-11.5c0.1,2,0.5,3.4,1.5,4.5c0.9,1,2.3,1.5,4,1.5c1.8,0,3.6-0.4,5.3-1.1v2.3
		c-0.9,0.4-1.7,0.7-2.5,0.8C372-178.2,371.1-178.2,370-178.2z M369.3-193.3c-1.3,0-2.4,0.4-3.2,1.3c-0.8,0.9-1.3,2.1-1.4,3.6h8.7
		c0-1.6-0.4-2.8-1.1-3.7C371.6-192.9,370.6-193.3,369.3-193.3z"/>
</g>
<text transform="matrix(1 0 0 1 215.5908 -408.4603)" class="st1" style="font-family:'OpenSans'; font-size:31.1318px;">TREATMENT</text>
</svg>
