<?xml version="1.0" encoding="utf-8"?>
<!-- Generator: Adobe Illustrator 19.2.1, SVG Export Plug-In . SVG Version: 6.00 Build 0)  -->
<svg version="1.1" id="Layer_1" xmlns="http://www.w3.org/2000/svg" xmlns:xlink="http://www.w3.org/1999/xlink" x="0px" y="0px"
	 viewBox="0 0 5184 1641.7" style="enable-background:new 0 0 5184 1641.7;" xml:space="preserve">
<style type="text/css">
	.st0{fill:#34ABCE;}
	.st1{fill:#263B7C;}
	.st2{fill:#F04D4D;}
	.st3{fill:#0C73A6;}
	.st4{fill:#214796;}
	.st5{fill:#253A7B;}
	.st6{fill:#21245C;}
	.st7{fill:#2A9BC4;}
	.st8{fill:#CEE7F2;}
	.st9{fill:#0B699F;}
	.st10{fill:#A8D0E7;}
</style>
<g>
	<path class="st0" d="M1096.6,213.8c0-35.6,28.3-63.8,64.9-63.8c35.6,0,63.8,28.2,63.8,63.8v246H1575v-246
		c0-35.6,28.3-63.8,63.8-63.8c36.6,0,64.9,28.2,64.9,63.8v615.6c0,35.6-28.3,63.9-64.9,63.9c-35.6,0-63.8-28.3-63.8-63.9V579.1
		h-349.6v250.2c0,35.6-28.2,63.9-63.8,63.9c-36.7,0-64.9-28.3-64.9-63.9L1096.6,213.8L1096.6,213.8z"/>
	<path class="st0" d="M2162.2,572.8c-8.4-81.6-56.5-145.5-140.3-145.5c-77.5,0-131.9,59.7-143.4,145.5H2162.2z M2036.6,900.5
		c-160.2,0-283.7-116.2-283.7-286.8v-2.1c0-158.1,112-287.9,270.1-287.9c175.9,0,262.7,144.5,262.7,272.2
		c0,35.6-27.2,60.7-59.6,60.7h-346.5c13.6,90,77.4,140.3,159.1,140.3c53.4,0,95.3-18.8,130.8-48.2c9.4-7.3,17.8-11.5,32.5-11.5
		c28.3,0,50.2,22,50.2,51.3c0,15.7-7.3,29.3-16.7,38.7C2185.3,872.2,2122.5,900.5,2036.6,900.5"/>
	<path class="st0" d="M2321.3,392.8c0-35.6,27.2-63.9,62.8-63.9s63.9,28.3,63.9,63.9V419c35.6-49.2,83.7-95.3,168.5-95.3
		c79.6,0,136.1,38.7,165.4,97.4c43.9-58.6,102.6-97.4,186.3-97.4c120.4,0,193.7,76.4,193.7,211.4v295.2c0,35.6-27.2,62.8-62.8,62.8
		s-63.9-27.2-63.9-62.8V573.9c0-87.9-40.8-135-112-135c-69.1,0-118.3,48.2-118.3,137.1v254.4c0,35.6-28.3,62.8-62.8,62.8
		c-35.6,0-63.9-27.2-63.9-62.8V572.8c0-85.8-41.9-134-112-134s-118.3,52.3-118.3,137.1v254.4c0,35.6-28.3,62.8-63.9,62.8
		c-34.5,0-62.8-27.2-62.8-62.8V392.8H2321.3z"/>
	<path class="st1" d="M3128.4,237.8c-3.1-7.3-5.2-16.7-5.2-25.1c0-35.6,30.4-62.8,66-62.8c31.4,0,55.4,19.9,63.8,47.1l168.5,503.5
		L3587,199.1c10.4-30.4,32.4-51.3,64.9-51.3h9.4c32.5,0,55.5,20.9,64.9,51.3l165.4,501.4L4060.1,196c9.4-26.2,31.4-46.1,62.8-46.1
		c34.6,0,63.9,27.2,63.9,61.8c0,8.4-3.1,18.9-6.2,26.2L3963.8,845c-11.5,32.5-35.6,53.4-67,53.4h-12.6c-31.4,0-54.5-19.9-65.9-53.4
		L3655,366.6L3491.7,845c-11.5,33.5-35.6,53.4-67,53.4h-12.6c-31.4,0-54.4-19.9-67-53.4L3128.4,237.8z"/>
	<path class="st1" d="M4535.9,572.8c-8.4-81.6-56.5-145.5-140.3-145.5c-77.4,0-131.9,59.7-143.4,145.5H4535.9z M4410.2,900.5
		c-160.1,0-283.7-116.2-283.7-286.8v-2.1c0-158.1,112-287.9,270.1-287.9c175.9,0,262.8,144.5,262.8,272.2
		c0,35.6-27.2,60.7-59.7,60.7h-346.5c13.6,90,77.5,140.3,159.1,140.3c53.4,0,95.3-18.8,130.8-48.2c9.4-7.3,17.8-11.5,32.5-11.5
		c28.3,0,50.2,22,50.2,51.3c0,15.7-7.3,29.3-16.7,38.7C4558.9,872.2,4496.1,900.5,4410.2,900.5"/>
	<path class="st1" d="M4724.2,181.3c0-34.6,27.2-62.8,62.8-62.8c35.6,0,63.9,28.3,63.9,62.8v649c0,35.6-28.3,62.8-63.9,62.8
		c-34.6,0-62.8-27.2-62.8-62.8V181.3z"/>
	<path class="st1" d="M4946.7,181.3c0-34.6,27.2-62.8,62.8-62.8c35.6,0,63.9,28.3,63.9,62.8v649c0,35.6-28.3,62.8-63.9,62.8
		c-34.5,0-62.8-27.2-62.8-62.8V181.3z"/>
</g>
<path class="st2" d="M3323.8,1134.4l-39.4-91.2l-39.1,91.2H3323.8z M3266.4,995.2h37.1L3404,1225h-42.4l-23.2-55.1h-107.9L3207,1225
	h-41L3266.4,995.2z"/>
<polygon class="st2" points="3505,996.9 3547.7,996.9 3617.1,1104.8 3686.6,996.9 3729.2,996.9 3729.2,1225 3689.2,1225 
	3689.2,1061.4 3617.1,1169 3615.8,1169 3544.5,1062.1 3544.5,1225 3505,1225 "/>
<polygon class="st2" points="3849.9,996.9 4019,996.9 4019,1032.7 3890,1032.7 3890,1092 4004.4,1092 4004.4,1127.9 3890,1127.9 
	3890,1189.2 4020.6,1189.2 4020.6,1225 3849.9,1225 "/>
<g>
	<path class="st2" d="M4228.9,1110c28.7,0,46.9-15,46.9-38.1v-0.6c0-24.4-17.6-37.8-47.3-37.8h-58.3v76.6L4228.9,1110L4228.9,1110z
		 M4130.2,996.9h101.7c28.7,0,51.2,8.5,65.8,22.8c12.1,12.4,18.9,29.3,18.9,49.2v0.6c0,37.5-22.5,60-54.1,69.1l61.6,86.4h-47.6
		l-56-79.5h-50.2v79.5h-40.1L4130.2,996.9L4130.2,996.9z"/>
</g>
<rect x="4430.1" y="996.9" class="st2" width="40.1" height="228.1"/>
<g>
	<path class="st2" d="M4582.9,1111.6v-0.6c0-64.9,48.6-118,117.7-118c42.1,0,67.4,14.7,89.3,35.5l-25.8,29.7
		c-18.2-16.9-37.8-28.4-63.9-28.4c-43.3,0-75.3,35.8-75.3,80.5v0.6c0,44.7,31.6,80.8,75.3,80.8c28.1,0,46-11.1,65.5-29.3l25.7,26.1
		c-23.8,24.8-49.8,40.4-92.5,40.4C4632.5,1228.9,4582.9,1177.1,4582.9,1111.6"/>
</g>
<path class="st2" d="M5014.2,1134.4l-39.5-91.2l-39.1,91.2H5014.2z M4956.8,995.2h37.2l100.3,229.8H5052l-23.1-55.1H4921l-23.5,55.1
	h-41L4956.8,995.2z"/>
<path class="st3" d="M735.3,280.6c0,5.8-0.2,11.7-0.7,17.4v211.5h228.9C963.5,383.2,861.4,280.9,735.3,280.6"/>
<path class="st4" d="M963.5,509.4H734.6V721c0.4,5.8,0,11.6,0,17.4C860.7,738.1,963.5,635.7,963.5,509.4L963.5,509.4z"/>
<path class="st5" d="M734.6,298C725.8,415.1,628.9,507.6,510,509.4h224.6V298z"/>
<path class="st6" d="M734.6,509.4H510c-1.2,0-2.4,0-3.7,0c120.6,0,219.4,93.2,228.3,211.5V509.4z"/>
<path class="st7" d="M506.3,51.6c-126.4,0-228.9,102.5-228.9,228.9h453.5c1.2,0,2.5,0,3.7,0h0.7C735.3,154.1,632.8,51.6,506.3,51.6"
	/>
<path class="st8" d="M731,280.6H277.4c63.2,0,120.5,25.6,161.9,67.1C478,386.4,503,438.9,506,497.2
	C512.3,377.6,610.3,282.4,731,280.6"/>
<path class="st6" d="M734.6,280.6c-122.3,0-222.2,95.9-228.6,216.6c0.2,4.1,0.3,8.2,0.3,12.3h3.7c142.6,0.1,215.8-94.4,224.6-211.5
	V280.6z"/>
<path class="st7" d="M277.4,280.6v228.9h228.3C379.5,509.1,277.4,406.7,277.4,280.6"/>
<path class="st5" d="M505.7,509.5H277.4V721C286.3,602.7,385.1,509.5,505.7,509.5"/>
<path class="st9" d="M277.4,280.6c0,126.2,79.3,232.4,228.3,228.9l0,0c0-4.1,0.1-8.2,0.3-12.2c-3.1-58.4-28-110.9-66.7-149.7
	C397.9,306.2,340.6,280.6,277.4,280.6"/>
<path class="st4" d="M277.4,280.6C151,280.6,48.5,383,48.5,509.5h228.9V280.6"/>
<path class="st6" d="M277.4,509.5H48.5c0,126.2,102.8,228.6,228.9,228.9c0-5.8-0.4-11.7,0-17.4V509.5z"/>
<path class="st10" d="M506,521.8c-0.1,1.7-0.2,3.4-0.3,5.1v211.5h228.9C612.3,738.4,512.4,642.5,506,521.8"/>
<path class="st6" d="M506.3,509.5c0,4.1-0.1,8.2-0.3,12.3c6.4,120.7,106.3,216.6,228.6,216.6h0.1
	C734.6,612.2,657.6,497.2,506.3,509.5"/>
<path class="st7" d="M505.7,526.9c-3,39.8-16.2,76.8-36.9,108.3c-40.9,62.2-111.3,103.2-191.3,103.2h228.3L505.7,526.9L505.7,526.9z
	"/>
<path class="st6" d="M505.7,509.5c-141.6-3.9-228.3,102.7-228.3,228.9c80,0,150.4-41,191.3-103.2c20.8-31.6,33.9-68.6,36.9-108.5
	v-17.2H505.7z"/>
<path class="st7" d="M734.6,738.4H505.7v228.9h0.3C632.3,967.2,734.6,864.7,734.6,738.4"/>
<path class="st3" d="M505.7,738.4H277.4c0,126.2,102.2,228.6,228.3,228.9V738.4z"/>
<polygon class="st2" points="734.6,466.7 734.6,466.7 734.6,280.6 649.2,280.6 649.2,466.7 362.9,466.7 362.9,280.6 277.4,280.6 
	277.4,466.7 276.8,466.7 276.8,552.2 277.4,552.2 277.4,738.4 362.9,738.4 362.9,552.2 649.2,552.2 649.2,738.4 734.6,738.4 
	734.6,552.2 "/>
<g>
	<path class="st0" d="M2779.2,1528.8l-5.7-13.7h-48.3l-5.7,14c-2.2,5.5-4.1,9.2-5.7,11.1c-1.6,1.9-4.1,2.9-7.7,2.9c-3,0-5.7-1-8-3.1
		s-3.5-4.4-3.5-6.9c0-1.5,0.3-3,0.8-4.6c0.5-1.6,1.4-3.8,2.7-6.6l30.4-71.1c0.9-2,1.9-4.5,3.1-7.4c1.2-2.9,2.5-5.2,3.9-7.1
		c1.4-1.9,3.2-3.4,5.4-4.6c2.2-1.2,5-1.8,8.3-1.8c3.4,0,6.2,0.6,8.4,1.8c2.2,1.2,4.1,2.7,5.4,4.5c1.4,1.8,2.5,3.8,3.5,5.9
		c0.9,2.1,2.1,4.9,3.6,8.5l31.1,70.7c2.4,5.4,3.7,9.3,3.7,11.7c0,2.5-1.1,4.9-3.4,7c-2.3,2.1-5.1,3.2-8.3,3.2
		c-1.9,0-3.5-0.3-4.9-0.9c-1.4-0.6-2.5-1.5-3.4-2.5c-0.9-1.1-1.9-2.7-3-4.9C2780.9,1532.4,2780,1530.5,2779.2,1528.8z
		 M2731.5,1498.4h35.5l-17.9-45.2L2731.5,1498.4z"/>
	<path class="st0" d="M2854,1443.1l46.3,64.5v-65.1c0-4.2,1-7.4,3-9.5c2-2.1,4.6-3.2,8-3.2c3.5,0,6.2,1.1,8.2,3.2c2,2.1,3,5.3,3,9.5
		v86.1c0,9.6-4.3,14.4-13,14.4c-2.2,0-4.1-0.3-5.8-0.9c-1.7-0.6-3.4-1.5-4.9-2.7c-1.5-1.2-2.9-2.7-4.2-4.4c-1.3-1.7-2.6-3.4-3.9-5.1
		l-45.2-63.8v64.2c0,4.2-1.1,7.3-3.2,9.5c-2.1,2.1-4.8,3.2-8.1,3.2c-3.4,0-6.1-1.1-8.2-3.2c-2.1-2.2-3.1-5.3-3.1-9.5v-84.5
		c0-3.6,0.4-6.4,1.3-8.4c1-2.2,2.7-4.1,5.1-5.5c2.4-1.4,4.9-2.1,7.7-2.1c2.2,0,4,0.3,5.6,1c1.5,0.6,2.9,1.5,4.1,2.6
		c1.2,1.1,2.4,2.5,3.6,4.3C2851.4,1439.4,2852.7,1441.2,2854,1443.1z"/>
	<path class="st0" d="M3001.1,1429.8c12.3,0,22.9,2.3,31.8,6.9c8.8,4.6,15.5,11.2,20.1,19.6c4.5,8.5,6.8,18.5,6.8,29.9
		c0,8.5-1.2,16.2-3.7,23.1c-2.5,6.9-6.2,12.9-11.2,18c-5,5.1-11.1,9-18.3,11.7c-7.2,2.7-15.5,4-24.9,4c-9.3,0-17.6-1.4-25-4.1
		c-7.4-2.8-13.5-6.7-18.4-11.7c-4.9-5-8.6-11.1-11.2-18.2c-2.5-7.1-3.8-14.7-3.8-22.9c0-8.4,1.3-16.1,3.9-23.2
		c2.6-7,6.4-13,11.4-17.9c5-4.9,11-8.7,18.2-11.3C2983.9,1431.1,2992,1429.8,3001.1,1429.8z M3035.4,1486.1c0-8-1.4-15-4.2-20.8
		c-2.8-5.9-6.8-10.3-12-13.3c-5.2-3-11.2-4.5-18-4.5c-4.8,0-9.3,0.8-13.3,2.5c-4.1,1.7-7.6,4.1-10.5,7.3c-2.9,3.2-5.3,7.3-7,12.2
		c-1.7,5-2.6,10.5-2.6,16.7c0,6.2,0.9,11.9,2.6,16.9c1.7,5,4.1,9.2,7.2,12.5c3.1,3.3,6.7,5.8,10.7,7.4s8.4,2.5,13.3,2.5
		c6.2,0,11.8-1.4,17-4.3c5.2-2.8,9.3-7.2,12.3-13.1C3033.8,1502.1,3035.4,1494.8,3035.4,1486.1z"/>
	<path class="st0" d="M3112.7,1494.4h-8.4v35.2c0,4.6-1.1,8-3.3,10.2c-2.2,2.2-5.1,3.3-8.7,3.3c-3.8,0-6.8-1.1-8.9-3.4
		c-2.1-2.3-3.2-5.7-3.2-10.1v-84.3c0-4.8,1.2-8.2,3.5-10.4c2.3-2.1,6.1-3.2,11.3-3.2h39.2c5.4,0,10,0.2,13.9,0.6
		c3.8,0.4,7.3,1.3,10.4,2.6c3.7,1.4,7,3.5,9.9,6.2c2.9,2.7,5,5.8,6.5,9.4c1.5,3.6,2.2,7.3,2.2,11.3c0,8.2-2.5,14.7-7.5,19.6
		c-5,4.9-12.6,8.3-22.8,10.4c4.3,2.1,8.4,5.2,12.2,9.3c3.9,4.1,7.4,8.4,10.4,13c3.1,4.6,5.4,8.8,7.1,12.5c1.7,3.7,2.6,6.3,2.6,7.7
		c0,1.4-0.5,2.9-1.5,4.3c-1,1.4-2.4,2.5-4.1,3.4c-1.7,0.8-3.7,1.2-6,1.2c-2.7,0-5-0.6-6.8-1.8c-1.8-1.2-3.4-2.7-4.7-4.4
		c-1.3-1.8-3.1-4.4-5.4-7.9l-9.7-14.8c-3.5-5.4-6.6-9.6-9.3-12.4c-2.7-2.8-5.5-4.8-8.3-5.8S3117,1494.4,3112.7,1494.4z
		 M3126.5,1448.3h-22.2v30.1h21.6c5.8,0,10.7-0.5,14.6-1.4c3.9-0.9,7-2.5,9-4.7c2.1-2.2,3.1-5.3,3.1-9.2c0-3-0.8-5.7-2.5-8
		c-1.7-2.3-4-4-7-5.2C3140.3,1448.9,3134.8,1448.3,3126.5,1448.3z"/>
	<path class="st0" d="M3278.2,1448.8h-54.3v26.9h50c3.7,0,6.4,0.8,8.2,2.3c1.8,1.5,2.7,3.5,2.7,6c0,2.5-0.9,4.5-2.7,6.1
		c-1.8,1.6-4.5,2.4-8.3,2.4h-50v31.2h56.1c3.8,0,6.6,0.8,8.6,2.4c1.9,1.6,2.9,3.8,2.9,6.5c0,2.6-1,4.7-2.9,6.3
		c-1.9,1.6-4.8,2.4-8.6,2.4h-65.5c-5.2,0-9-1.1-11.3-3.2c-2.3-2.1-3.4-5.6-3.4-10.4v-82.3c0-3.2,0.5-5.8,1.5-7.8
		c1-2,2.6-3.5,4.8-4.4c2.2-0.9,5-1.4,8.4-1.4h63.6c3.8,0,6.7,0.8,8.6,2.4c1.9,1.6,2.8,3.6,2.8,6.2c0,2.6-0.9,4.7-2.8,6.2
		C3284.9,1448,3282,1448.8,3278.2,1448.8z"/>
	<path class="st0" d="M3411.9,1506.6c0,3.5-0.9,7.3-2.8,11.3c-1.9,4.1-4.8,8-8.8,12c-4,3.9-9.1,7.1-15.3,9.5
		c-6.2,2.4-13.5,3.7-21.7,3.7c-6.3,0-12-0.5-17.1-1.6c-5.1-1.1-9.8-2.8-14-5.1c-4.2-2.3-8-5.4-11.6-9.2c-3.1-3.4-5.8-7.3-8-11.5
		c-2.2-4.3-3.9-8.8-5-13.6s-1.7-10-1.7-15.4c0-8.8,1.4-16.7,4.2-23.7c2.8-7,6.8-12.9,12-17.9c5.2-5,11.3-8.7,18.2-11.3
		c7-2.6,14.4-3.9,22.3-3.9c9.6,0,18.2,1.8,25.7,5.3c7.5,3.5,13.3,7.9,17.3,13.1c4,5.2,6,10.1,6,14.8c0,2.5-1,4.8-2.9,6.7
		c-1.9,1.9-4.3,2.9-7.1,2.9c-3.1,0-5.4-0.7-6.9-2c-1.5-1.3-3.3-3.7-5.2-6.9c-3.1-5.4-6.8-9.5-11.1-12.2c-4.2-2.7-9.5-4-15.7-4
		c-9.9,0-17.8,3.5-23.6,10.4c-5.9,6.9-8.8,16.8-8.8,29.5c0,8.5,1.3,15.6,3.9,21.3c2.6,5.7,6.3,9.9,11,12.7
		c4.8,2.8,10.3,4.2,16.7,4.2c6.9,0,12.8-1.6,17.6-4.7c4.8-3.2,8.4-7.8,10.8-13.9c1-2.9,2.3-5.2,3.8-7.1c1.5-1.8,3.9-2.7,7.3-2.7
		c2.9,0,5.3,0.9,7.4,2.8C3410.9,1501.6,3411.9,1503.9,3411.9,1506.6z"/>
	<path class="st0" d="M3510.8,1450h-26.3v79.6c0,4.6-1.1,8-3.3,10.2c-2.2,2.2-5.1,3.3-8.6,3.3c-3.6,0-6.5-1.1-8.7-3.4
		c-2.2-2.2-3.4-5.6-3.4-10.2V1450h-26.3c-4.1,0-7.2-0.8-9.2-2.5c-2-1.7-3-3.9-3-6.6c0-2.8,1-5.1,3.1-6.7c2.1-1.6,5.1-2.5,9-2.5h76.6
		c4.2,0,7.3,0.8,9.3,2.5c2,1.7,3,3.9,3,6.6c0,2.7-1,4.9-3.1,6.6C3518,1449.1,3514.9,1450,3510.8,1450z"/>
	<path class="st0" d="M3603,1528.8l-5.7-13.7H3549l-5.7,14c-2.2,5.5-4.1,9.2-5.7,11.1c-1.6,1.9-4.1,2.9-7.7,2.9c-3,0-5.7-1-8-3.1
		s-3.5-4.4-3.5-6.9c0-1.5,0.3-3,0.8-4.6c0.5-1.6,1.4-3.8,2.7-6.6l30.4-71.1c0.9-2,1.9-4.5,3.1-7.4c1.2-2.9,2.5-5.2,3.9-7.1
		c1.4-1.9,3.2-3.4,5.4-4.6c2.2-1.2,5-1.8,8.3-1.8c3.4,0,6.2,0.6,8.4,1.8c2.2,1.2,4.1,2.7,5.4,4.5c1.4,1.8,2.5,3.8,3.5,5.9
		c0.9,2.1,2.1,4.9,3.6,8.5l31.1,70.7c2.4,5.4,3.7,9.3,3.7,11.7c0,2.5-1.1,4.9-3.4,7c-2.3,2.1-5.1,3.2-8.3,3.2
		c-1.9,0-3.5-0.3-4.9-0.9c-1.4-0.6-2.5-1.5-3.4-2.5c-0.9-1.1-1.9-2.7-3-4.9C3604.7,1532.4,3603.8,1530.5,3603,1528.8z
		 M3555.3,1498.4h35.5l-17.9-45.2L3555.3,1498.4z"/>
	<path class="st0" d="M3670,1443.3v79.7h48.8c3.9,0,6.9,0.9,9,2.6c2.1,1.7,3.1,3.9,3.1,6.6c0,2.7-1,4.9-3.1,6.5
		c-2.1,1.7-5.1,2.5-9,2.5h-58.2c-5.2,0-9-1.1-11.3-3.2c-2.3-2.1-3.4-5.6-3.4-10.4v-84.3c0-4.5,1.1-7.8,3.3-10.1
		c2.2-2.2,5.1-3.4,8.6-3.4c3.6,0,6.6,1.1,8.8,3.3C3668.9,1435.4,3670,1438.7,3670,1443.3z"/>
	<path class="st0" d="M3889.6,1506.6c0,3.5-0.9,7.3-2.8,11.3c-1.9,4.1-4.8,8-8.8,12c-4,3.9-9.1,7.1-15.3,9.5
		c-6.2,2.4-13.5,3.7-21.7,3.7c-6.3,0-12-0.5-17.1-1.6c-5.1-1.1-9.8-2.8-14-5.1c-4.2-2.3-8-5.4-11.6-9.2c-3.1-3.4-5.8-7.3-8-11.5
		c-2.2-4.3-3.9-8.8-5-13.6s-1.7-10-1.7-15.4c0-8.8,1.4-16.7,4.2-23.7c2.8-7,6.8-12.9,12-17.9c5.2-5,11.3-8.7,18.2-11.3
		c7-2.6,14.4-3.9,22.3-3.9c9.6,0,18.2,1.8,25.7,5.3c7.5,3.5,13.3,7.9,17.3,13.1c4,5.2,6,10.1,6,14.8c0,2.5-1,4.8-2.9,6.7
		c-1.9,1.9-4.3,2.9-7.1,2.9c-3.1,0-5.4-0.7-6.9-2c-1.5-1.3-3.3-3.7-5.2-6.9c-3.1-5.4-6.8-9.5-11.1-12.2c-4.2-2.7-9.5-4-15.7-4
		c-9.9,0-17.8,3.5-23.6,10.4c-5.9,6.9-8.8,16.8-8.8,29.5c0,8.5,1.3,15.6,3.9,21.3c2.6,5.7,6.3,9.9,11,12.7
		c4.8,2.8,10.3,4.2,16.7,4.2c6.9,0,12.8-1.6,17.6-4.7c4.8-3.2,8.4-7.8,10.8-13.9c1-2.9,2.3-5.2,3.8-7.1c1.5-1.8,3.9-2.7,7.3-2.7
		c2.9,0,5.3,0.9,7.4,2.8C3888.6,1501.6,3889.6,1503.9,3889.6,1506.6z"/>
	<path class="st0" d="M3987.3,1528.8l-5.7-13.7h-48.3l-5.7,14c-2.2,5.5-4.1,9.2-5.7,11.1c-1.6,1.9-4.1,2.9-7.7,2.9c-3,0-5.7-1-8-3.1
		s-3.5-4.4-3.5-6.9c0-1.5,0.3-3,0.8-4.6c0.5-1.6,1.4-3.8,2.7-6.6l30.4-71.1c0.9-2,1.9-4.5,3.1-7.4c1.2-2.9,2.5-5.2,3.9-7.1
		c1.4-1.9,3.2-3.4,5.4-4.6c2.2-1.2,5-1.8,8.3-1.8c3.4,0,6.2,0.6,8.4,1.8c2.2,1.2,4.1,2.7,5.4,4.5c1.4,1.8,2.5,3.8,3.5,5.9
		c0.9,2.1,2.1,4.9,3.6,8.5l31.1,70.7c2.4,5.4,3.7,9.3,3.7,11.7c0,2.5-1.1,4.9-3.4,7c-2.3,2.1-5.1,3.2-8.3,3.2
		c-1.9,0-3.5-0.3-4.9-0.9c-1.4-0.6-2.5-1.5-3.4-2.5c-0.9-1.1-1.9-2.7-3-4.9C3989,1532.4,3988.1,1530.5,3987.3,1528.8z
		 M3939.6,1498.4h35.5l-17.9-45.2L3939.6,1498.4z"/>
	<path class="st0" d="M4063.1,1494.4h-8.4v35.2c0,4.6-1.1,8-3.3,10.2c-2.2,2.2-5.1,3.3-8.7,3.3c-3.8,0-6.8-1.1-8.9-3.4
		c-2.1-2.3-3.2-5.7-3.2-10.1v-84.3c0-4.8,1.2-8.2,3.5-10.4c2.3-2.1,6.1-3.2,11.3-3.2h39.2c5.4,0,10,0.2,13.9,0.6
		c3.8,0.4,7.3,1.3,10.4,2.6c3.7,1.4,7,3.5,9.9,6.2c2.9,2.7,5,5.8,6.5,9.4c1.5,3.6,2.2,7.3,2.2,11.3c0,8.2-2.5,14.7-7.5,19.6
		c-5,4.9-12.6,8.3-22.8,10.4c4.3,2.1,8.4,5.2,12.2,9.3c3.9,4.1,7.4,8.4,10.4,13c3.1,4.6,5.4,8.8,7.1,12.5c1.7,3.7,2.6,6.3,2.6,7.7
		c0,1.4-0.5,2.9-1.5,4.3c-1,1.4-2.4,2.5-4.1,3.4c-1.7,0.8-3.7,1.2-6,1.2c-2.7,0-5-0.6-6.8-1.8c-1.8-1.2-3.4-2.7-4.7-4.4
		c-1.3-1.8-3.1-4.4-5.4-7.9l-9.7-14.8c-3.5-5.4-6.6-9.6-9.3-12.4c-2.7-2.8-5.5-4.8-8.3-5.8S4067.4,1494.4,4063.1,1494.4z
		 M4076.9,1448.3h-22.2v30.1h21.6c5.8,0,10.7-0.5,14.6-1.4c3.9-0.9,7-2.5,9-4.7c2.1-2.2,3.1-5.3,3.1-9.2c0-3-0.8-5.7-2.5-8
		c-1.7-2.3-4-4-7-5.2C4090.7,1448.9,4085.1,1448.3,4076.9,1448.3z"/>
	<path class="st0" d="M4228.5,1448.8h-54.3v26.9h50c3.7,0,6.4,0.8,8.2,2.3c1.8,1.5,2.7,3.5,2.7,6c0,2.5-0.9,4.5-2.7,6.1
		c-1.8,1.6-4.5,2.4-8.3,2.4h-50v31.2h56.1c3.8,0,6.6,0.8,8.6,2.4c1.9,1.6,2.9,3.8,2.9,6.5c0,2.6-1,4.7-2.9,6.3
		c-1.9,1.6-4.8,2.4-8.6,2.4H4165c-5.2,0-9-1.1-11.3-3.2c-2.3-2.1-3.4-5.6-3.4-10.4v-82.3c0-3.2,0.5-5.8,1.5-7.8c1-2,2.6-3.5,4.8-4.4
		c2.2-0.9,5-1.4,8.4-1.4h63.6c3.8,0,6.7,0.8,8.6,2.4c1.9,1.6,2.8,3.6,2.8,6.2c0,2.6-0.9,4.7-2.8,6.2
		C4235.2,1448,4232.4,1448.8,4228.5,1448.8z"/>
	<path class="st0" d="M4403.8,1506.6c0,3.5-0.9,7.3-2.8,11.3c-1.9,4.1-4.8,8-8.8,12c-4,3.9-9.1,7.1-15.3,9.5
		c-6.2,2.4-13.5,3.7-21.7,3.7c-6.3,0-12-0.5-17.1-1.6c-5.1-1.1-9.8-2.8-14-5.1c-4.2-2.3-8-5.4-11.6-9.2c-3.1-3.4-5.8-7.3-8-11.5
		c-2.2-4.3-3.9-8.8-5-13.6s-1.7-10-1.7-15.4c0-8.8,1.4-16.7,4.2-23.7c2.8-7,6.8-12.9,12-17.9c5.2-5,11.3-8.7,18.2-11.3
		c7-2.6,14.4-3.9,22.3-3.9c9.6,0,18.2,1.8,25.7,5.3c7.5,3.5,13.3,7.9,17.3,13.1c4,5.2,6,10.1,6,14.8c0,2.5-1,4.8-2.9,6.7
		c-1.9,1.9-4.3,2.9-7.1,2.9c-3.1,0-5.4-0.7-6.9-2c-1.5-1.3-3.3-3.7-5.2-6.9c-3.1-5.4-6.8-9.5-11.1-12.2c-4.2-2.7-9.5-4-15.7-4
		c-9.9,0-17.8,3.5-23.6,10.4c-5.9,6.9-8.8,16.8-8.8,29.5c0,8.5,1.3,15.6,3.9,21.3c2.6,5.7,6.3,9.9,11,12.7
		c4.8,2.8,10.3,4.2,16.7,4.2c6.9,0,12.8-1.6,17.6-4.7c4.8-3.2,8.4-7.8,10.8-13.9c1-2.9,2.3-5.2,3.8-7.1c1.5-1.8,3.9-2.7,7.3-2.7
		c2.9,0,5.3,0.9,7.4,2.8C4402.8,1501.6,4403.8,1503.9,4403.8,1506.6z"/>
	<path class="st0" d="M4503.8,1448.8h-54.3v26.9h50c3.7,0,6.4,0.8,8.2,2.3c1.8,1.5,2.7,3.5,2.7,6c0,2.5-0.9,4.5-2.7,6.1
		c-1.8,1.6-4.5,2.4-8.3,2.4h-50v31.2h56.1c3.8,0,6.6,0.8,8.6,2.4c1.9,1.6,2.9,3.8,2.9,6.5c0,2.6-1,4.7-2.9,6.3
		c-1.9,1.6-4.8,2.4-8.6,2.4h-65.5c-5.2,0-9-1.1-11.3-3.2c-2.3-2.1-3.4-5.6-3.4-10.4v-82.3c0-3.2,0.5-5.8,1.5-7.8
		c1-2,2.6-3.5,4.8-4.4c2.2-0.9,5-1.4,8.4-1.4h63.6c3.8,0,6.7,0.8,8.6,2.4c1.9,1.6,2.8,3.6,2.8,6.2c0,2.6-0.9,4.7-2.8,6.2
		C4510.5,1448,4507.7,1448.8,4503.8,1448.8z"/>
	<path class="st0" d="M4567.7,1443.1l46.3,64.5v-65.1c0-4.2,1-7.4,3-9.5c2-2.1,4.6-3.2,8-3.2c3.5,0,6.2,1.1,8.2,3.2
		c2,2.1,3,5.3,3,9.5v86.1c0,9.6-4.3,14.4-13,14.4c-2.2,0-4.1-0.3-5.8-0.9c-1.7-0.6-3.4-1.5-4.9-2.7c-1.5-1.2-2.9-2.7-4.2-4.4
		c-1.3-1.7-2.6-3.4-3.9-5.1l-45.2-63.8v64.2c0,4.2-1.1,7.3-3.2,9.5c-2.1,2.1-4.8,3.2-8.1,3.2c-3.4,0-6.1-1.1-8.2-3.2
		c-2.1-2.2-3.1-5.3-3.1-9.5v-84.5c0-3.6,0.4-6.4,1.3-8.4c1-2.2,2.7-4.1,5.1-5.5c2.4-1.4,4.9-2.1,7.7-2.1c2.2,0,4,0.3,5.6,1
		c1.5,0.6,2.9,1.5,4.1,2.6c1.2,1.1,2.4,2.5,3.6,4.3C4565.1,1439.4,4566.4,1441.2,4567.7,1443.1z"/>
	<path class="st0" d="M4739.7,1450h-26.3v79.6c0,4.6-1.1,8-3.3,10.2c-2.2,2.2-5.1,3.3-8.6,3.3c-3.6,0-6.5-1.1-8.7-3.4
		c-2.2-2.2-3.4-5.6-3.4-10.2V1450h-26.3c-4.1,0-7.2-0.8-9.2-2.5c-2-1.7-3-3.9-3-6.6c0-2.8,1-5.1,3.1-6.7c2.1-1.6,5.1-2.5,9-2.5h76.6
		c4.2,0,7.3,0.8,9.3,2.5c2,1.7,3,3.9,3,6.6c0,2.7-1,4.9-3.1,6.6C4746.9,1449.1,4743.8,1450,4739.7,1450z"/>
	<path class="st0" d="M4844.6,1448.8h-54.3v26.9h50c3.7,0,6.4,0.8,8.2,2.3c1.8,1.5,2.7,3.5,2.7,6c0,2.5-0.9,4.5-2.7,6.1
		c-1.8,1.6-4.5,2.4-8.3,2.4h-50v31.2h56.1c3.8,0,6.6,0.8,8.6,2.4c1.9,1.6,2.9,3.8,2.9,6.5c0,2.6-1,4.7-2.9,6.3
		c-1.9,1.6-4.8,2.4-8.6,2.4h-65.5c-5.2,0-9-1.1-11.3-3.2c-2.3-2.1-3.4-5.6-3.4-10.4v-82.3c0-3.2,0.5-5.8,1.5-7.8
		c1-2,2.6-3.5,4.8-4.4c2.2-0.9,5-1.4,8.4-1.4h63.6c3.8,0,6.7,0.8,8.6,2.4c1.9,1.6,2.8,3.6,2.8,6.2c0,2.6-0.9,4.7-2.8,6.2
		C4851.3,1448,4848.5,1448.8,4844.6,1448.8z"/>
	<path class="st0" d="M4909.5,1494.4h-8.4v35.2c0,4.6-1.1,8-3.3,10.2c-2.2,2.2-5.1,3.3-8.7,3.3c-3.8,0-6.8-1.1-8.9-3.4
		c-2.1-2.3-3.2-5.7-3.2-10.1v-84.3c0-4.8,1.2-8.2,3.5-10.4c2.3-2.1,6.1-3.2,11.3-3.2h39.2c5.4,0,10,0.2,13.9,0.6
		c3.8,0.4,7.3,1.3,10.4,2.6c3.7,1.4,7,3.5,9.9,6.2c2.9,2.7,5,5.8,6.5,9.4c1.5,3.6,2.2,7.3,2.2,11.3c0,8.2-2.5,14.7-7.5,19.6
		c-5,4.9-12.6,8.3-22.8,10.4c4.3,2.1,8.4,5.2,12.2,9.3c3.9,4.1,7.4,8.4,10.4,13c3.1,4.6,5.4,8.8,7.1,12.5c1.7,3.7,2.6,6.3,2.6,7.7
		c0,1.4-0.5,2.9-1.5,4.3c-1,1.4-2.4,2.5-4.1,3.4c-1.7,0.8-3.7,1.2-6,1.2c-2.7,0-5-0.6-6.8-1.8c-1.8-1.2-3.4-2.7-4.7-4.4
		c-1.3-1.8-3.1-4.4-5.4-7.9l-9.7-14.8c-3.5-5.4-6.6-9.6-9.3-12.4c-2.7-2.8-5.5-4.8-8.3-5.8S4913.7,1494.4,4909.5,1494.4z
		 M4923.2,1448.3H4901v30.1h21.6c5.8,0,10.7-0.5,14.6-1.4c3.9-0.9,7-2.5,9-4.7c2.1-2.2,3.1-5.3,3.1-9.2c0-3-0.8-5.7-2.5-8
		c-1.7-2.3-4-4-7-5.2C4937.1,1448.9,4931.5,1448.3,4923.2,1448.3z"/>
	<path class="st0" d="M5086.9,1508.3c0,6.6-1.9,12.6-5.6,17.9c-3.7,5.3-9.1,9.4-16.3,12.4s-15.6,4.5-25.4,4.5c-11.7,0-21.4-2-29-6.1
		c-5.4-2.9-9.8-6.9-13.2-11.8c-3.4-4.9-5.1-9.7-5.1-14.3c0-2.7,1-5,3-6.9c2-1.9,4.6-2.9,7.7-2.9c2.5,0,4.7,0.7,6.4,2.2
		c1.8,1.5,3.3,3.7,4.5,6.6c1.5,3.5,3.1,6.4,4.9,8.7c1.8,2.3,4.2,4.3,7.4,5.8c3.2,1.5,7.4,2.3,12.6,2.3c7.1,0,12.9-1.5,17.4-4.6
		c4.5-3.1,6.7-6.9,6.7-11.5c0-3.6-1.2-6.6-3.6-8.9c-2.4-2.3-5.5-4-9.3-5.2c-3.8-1.2-8.9-2.5-15.3-3.8c-8.5-1.8-15.7-4-21.5-6.5
		c-5.8-2.5-10.3-5.8-13.7-10.1c-3.4-4.3-5.1-9.5-5.1-15.9c0-6,1.8-11.4,5.4-16.1c3.6-4.7,8.7-8.3,15.5-10.8
		c6.8-2.5,14.7-3.8,23.8-3.8c7.3,0,13.6,0.8,18.9,2.5c5.3,1.7,9.7,3.9,13.3,6.6c3.5,2.8,6.1,5.7,7.7,8.7c1.6,3,2.4,6,2.4,8.9
		c0,2.6-1,5-3,7.1c-2,2.1-4.6,3.2-7.6,3.2c-2.8,0-4.9-0.6-6.3-1.9c-1.4-1.3-3-3.3-4.7-6.2c-2.2-4.1-4.8-7.4-7.8-9.7
		c-3-2.3-7.9-3.5-14.6-3.5c-6.2,0-11.2,1.3-15,3.8c-3.8,2.5-5.7,5.5-5.7,9.1c0,2.2,0.6,4.1,1.9,5.7c1.3,1.6,3.1,3,5.4,4.1
		c2.3,1.1,4.6,2,6.9,2.7c2.3,0.6,6.2,1.6,11.5,2.8c6.7,1.4,12.8,3,18.2,4.8c5.4,1.7,10.1,3.9,13.9,6.4c3.8,2.5,6.8,5.6,8.9,9.5
		C5085.9,1498.1,5086.9,1502.8,5086.9,1508.3z"/>
</g>
</svg>
