<?xml version="1.0" encoding="utf-8"?>
<!-- Generator: Adobe Illustrator 16.0.0, SVG Export Plug-In . SVG Version: 6.00 Build 0)  -->
<!DOCTYPE svg PUBLIC "-//W3C//DTD SVG 1.1//EN" "http://www.w3.org/Graphics/SVG/1.1/DTD/svg11.dtd">
<svg version="1.1" id="Layer_1" xmlns="http://www.w3.org/2000/svg" xmlns:xlink="http://www.w3.org/1999/xlink" x="0px" y="0px"
	 width="82px" height="59px" viewBox="0 0 82 59" enable-background="new 0 0 82 59" xml:space="preserve">
<g>
	<rect x="5.65" y="0.742" fill="#F3F3F3" stroke="#231F20" stroke-linejoin="round" width="71.307" height="56.884"/>
	<g>
		<g>
			<rect x="77.121" y="2.309" fill="#231F20" stroke="#231F20" stroke-linejoin="round" width="4.618" height="15.75"/>
			<rect x="77.121" y="40.309" fill="#231F20" stroke="#231F20" stroke-linejoin="round" width="4.618" height="15.75"/>
		</g>
		<g>
			<rect x="0.868" y="2.309" fill="#231F20" stroke="#231F20" stroke-linejoin="round" width="4.618" height="15.75"/>
			<rect x="0.868" y="40.309" fill="#231F20" stroke="#231F20" stroke-linejoin="round" width="4.618" height="15.75"/>
		</g>
	</g>
	<g>
		
			<linearGradient id="SVGID_1_" gradientUnits="userSpaceOnUse" x1="41.3037" y1="732.3164" x2="41.3037" y2="732.3164" gradientTransform="matrix(1 0 0 -1 0 761.5)">
			<stop  offset="0" style="stop-color:#477CBE"/>
			<stop  offset="1" style="stop-color:#DA6827"/>
		</linearGradient>
		<path fill="url(#SVGID_1_)" stroke="#231F20" stroke-width="0.5" d="M41.304,29.184"/>
	</g>
	<g>
		<g>
			<linearGradient id="SVGID_2_" gradientUnits="userSpaceOnUse" x1="15.416" y1="29.1836" x2="69.6924" y2="29.1836">
				<stop  offset="0" style="stop-color:#477CBE"/>
				<stop  offset="1" style="stop-color:#DA6827"/>
			</linearGradient>
			<path fill="url(#SVGID_2_)" stroke="#231F20" stroke-width="0.5" d="M69.692,13.969l-7.93-4.602l-0.005,2.377
				c-26.982,0-22.125,25.839-46.342,31.089L15.48,49c19.462-1.81,19.212-35.81,46.269-33.258l-0.007,2.793L69.692,13.969z"/>
		</g>
		<g>
			<linearGradient id="SVGID_3_" gradientUnits="userSpaceOnUse" x1="14.1196" y1="13.0703" x2="67.2874" y2="46.2378">
				<stop  offset="0" style="stop-color:#555CA9"/>
				<stop  offset="1" style="stop-color:#DC2228"/>
			</linearGradient>
			<path fill="url(#SVGID_3_)" stroke="#231F20" stroke-width="0.5" d="M12.916,13.969l7.93-4.602l0.006,2.377
				c12.397,0,16.981,32.363,46.342,31.089L67.127,49c-24.71,0-32.29-30.143-46.268-33.258l0.006,2.793L12.916,13.969z"/>
		</g>
		<g>
			<linearGradient id="SVGID_4_" gradientUnits="userSpaceOnUse" x1="15.416" y1="29.1836" x2="69.6924" y2="29.1836">
				<stop  offset="0" style="stop-color:#477CBE"/>
				<stop  offset="1" style="stop-color:#DA6827"/>
			</linearGradient>
			<path fill="url(#SVGID_4_)" stroke="#231F20" stroke-width="0.5" d="M69.692,13.969l-7.93-4.602l-0.005,2.377
				c-18.685,0-21.767,31.089-46.342,31.089L15.48,49c19.01,0,27.343-33.258,46.269-33.258l-0.007,2.793L69.692,13.969z"/>
		</g>
		<g>
			<linearGradient id="SVGID_5_" gradientUnits="userSpaceOnUse" x1="14.645" y1="12.2285" x2="67.8128" y2="45.396">
				<stop  offset="0" style="stop-color:#555CA9"/>
				<stop  offset="1" style="stop-color:#DC2228"/>
			</linearGradient>
			<path fill="url(#SVGID_5_)" stroke="#231F20" stroke-width="0.5" d="M12.916,13.969l7.93-4.602l0.006,2.377
				c18.683,0,21.767,31.089,46.342,31.089L67.127,49c-19.519,0-27.343-32.727-46.268-33.258l0.006,2.793L12.916,13.969z"/>
		</g>
		<g>
			<linearGradient id="SVGID_6_" gradientUnits="userSpaceOnUse" x1="15.416" y1="29.1836" x2="69.6924" y2="29.1836">
				<stop  offset="0" style="stop-color:#477CBE"/>
				<stop  offset="1" style="stop-color:#DA6827"/>
			</linearGradient>
			<path fill="url(#SVGID_6_)" stroke="#231F20" stroke-width="0.5" d="M69.692,13.969l-7.93-4.602l-0.005,2.377
				c-12.815,0-16.982,32.946-46.342,31.089L15.48,49c24.712,0,32.292-30.143,46.269-33.258l-0.007,2.793L69.692,13.969z"/>
		</g>
		<g>
			<linearGradient id="SVGID_7_" gradientUnits="userSpaceOnUse" x1="15.4521" y1="10.9346" x2="68.62" y2="44.1021">
				<stop  offset="0" style="stop-color:#555CA9"/>
				<stop  offset="1" style="stop-color:#DC2228"/>
			</linearGradient>
			<path fill="url(#SVGID_7_)" stroke="#231F20" stroke-width="0.5" d="M12.916,13.969l7.93-4.602l0.006,2.377
				c26.981,0,21.767,26.196,46.342,31.089L67.127,49c-21.352-2.81-19.211-35.81-46.268-33.258l0.006,2.793L12.916,13.969z"/>
		</g>
	</g>
</g>
</svg>
