<?xml version="1.0" encoding="utf-8"?>
<!-- Generator: Adobe Illustrator 16.0.0, SVG Export Plug-In . SVG Version: 6.00 Build 0)  -->
<!DOCTYPE svg PUBLIC "-//W3C//DTD SVG 1.1//EN" "http://www.w3.org/Graphics/SVG/1.1/DTD/svg11.dtd">
<svg version="1.1" id="Layer_1" xmlns="http://www.w3.org/2000/svg" xmlns:xlink="http://www.w3.org/1999/xlink" x="0px" y="0px"
	 width="71px" height="122px" viewBox="0 0 71 122" enable-background="new 0 0 71 122" xml:space="preserve">
<g>
	
		<rect y="0.363" fill="#DFDCD5" stroke="#070808" stroke-width="0.8963" stroke-linecap="round" stroke-miterlimit="2.818" width="70" height="121.275"/>
	<g>
		<linearGradient id="SVGID_1_" gradientUnits="userSpaceOnUse" x1="34.5381" y1="5.0615" x2="35.4064" y2="116.2114">
			<stop  offset="0" style="stop-color:#F8B7AC"/>
			<stop  offset="0.375" style="stop-color:#DEBCC3"/>
			<stop  offset="0.7619" style="stop-color:#C9C0D7"/>
			<stop  offset="1" style="stop-color:#C0C2E1"/>
		</linearGradient>
		<rect x="3.776" y="3.587" fill="url(#SVGID_1_)" width="62.397" height="114.828"/>
		<rect x="3.777" y="3.587" fill="none" width="62.398" height="114.828"/>
		
			<rect x="3.776" y="3.587" fill="none" stroke="#070808" stroke-width="0.3218" stroke-linecap="round" stroke-miterlimit="2.818" width="62.397" height="114.828"/>
		<g>
			<g>
				<path fill="#F4F4F4" d="M55.854,98.785L55.854,98.785h-41.75h0h0c-2.729-0.008-4.725-1.867-4.73-3.869
					c0.006-2.002,2.002-3.861,4.73-3.869h0h0h41.75c3.563-0.006,6.64-2.471,6.669-5.82c0-0.005-0.003-0.01-0.003-0.015
					c-0.038-3.343-3.107-5.802-6.666-5.808H14.103h0h0c-2.727-0.006-4.724-1.868-4.728-3.869c0.004-2.001,2-3.859,4.725-3.87
					c0.001,0,0.002,0.001,0.004,0.001h41.752c3.559-0.006,6.631-2.466,6.665-5.811c0-0.003,0.002-0.005,0.002-0.008h-0.001
					c0-0.001,0-0.001,0-0.002c0-0.003-0.002-0.005-0.002-0.008c-0.035-3.344-3.103-5.803-6.66-5.812
					c-0.002,0-0.004-0.001-0.006-0.001H14.102v-0.001c-2.729-0.006-4.724-1.865-4.73-3.868c0.007-2.001,2.002-3.862,4.73-3.868
					c0.002,0,0.003-0.001,0.005-0.001h41.74c0.002,0,0.003,0.001,0.005,0.001c3.565-0.006,6.641-2.474,6.668-5.822
					c-0.029-3.35-3.104-5.814-6.67-5.82c-0.004,0-0.006,0.002-0.01,0.002H14.104c-0.002,0-0.003-0.001-0.005-0.001
					c-2.729-0.009-4.724-1.868-4.728-3.87c0.004-2.004,1.998-3.863,4.728-3.869h41.751c3.563-0.006,6.641-2.472,6.669-5.821
					c0-0.002-0.002-0.005-0.002-0.007c-0.031-3.344-3.106-5.809-6.668-5.815H14.102c-0.002,0-0.005,0.001-0.007,0.001
					c-2.727-0.011-4.718-1.87-4.724-3.869c0.006-2.002,2-3.862,4.729-3.871c0,0,0,0,0.001,0s0,0,0.001,0h41.743
					c0.002,0,0.003,0.001,0.005,0.001c3.559-0.007,6.628-2.462,6.669-5.801c0-0.007,0.004-0.014,0.004-0.021V0.977
					C62.522,0.438,62.091,0,61.555,0c-0.538,0-0.971,0.438-0.971,0.977v6.709c0,0.007-0.004,0.013-0.004,0.02
					c-0.006,2.001-2.001,3.861-4.73,3.867c-0.002,0-0.003,0.001-0.005,0.001H14.102c-0.004,0-0.008,0.002-0.012,0.002
					c-3.56,0.008-6.631,2.472-6.658,5.82c0.027,3.35,3.104,5.814,6.668,5.818c0,0,0,0,0.001,0s0,0,0.001,0H55.84
					c0.004,0,0.006,0.002,0.01,0.002c2.729,0.006,4.723,1.866,4.729,3.869c0,0.002,0.001,0.004,0.001,0.006
					c-0.01,2-2.004,3.855-4.729,3.861c-0.003,0-0.006,0.002-0.01,0.002H14.1c-3.563,0.006-6.639,2.472-6.668,5.821
					c0.029,3.346,3.099,5.81,6.656,5.82c0.004,0,0.008,0.002,0.012,0.002h41.75c2.729,0.006,4.725,1.866,4.73,3.867
					c0,0.002,0.001,0.004,0.001,0.006c-0.01,2.002-2.004,3.857-4.729,3.863c-0.002,0-0.003,0.001-0.005,0.001h-41.74
					c-0.002,0-0.003-0.001-0.005-0.001c-3.563,0.007-6.639,2.473-6.668,5.821c0.029,3.348,3.105,5.816,6.668,5.82h41.741
					c0.004,0,0.007,0.002,0.01,0.002c2.729,0.007,4.723,1.866,4.729,3.87c0,0.004,0.002,0.007,0.002,0.011
					c-0.016,1.997-2.007,3.849-4.729,3.854c-0.002,0-0.003,0.001-0.005,0.001H14.103c-0.002,0-0.004,0.001-0.006,0.001
					c-3.561,0.007-6.634,2.473-6.663,5.82c0.029,3.35,3.105,5.814,6.668,5.822h0h0h41.752c2.726,0.006,4.723,1.865,4.729,3.869
					c0,0.002,0.001,0.004,0.001,0.006c-0.011,1.998-2.004,3.855-4.729,3.863h-41.75h0h0c-3.563,0.006-6.64,2.47-6.668,5.82
					c0.028,3.35,3.104,5.814,6.668,5.82h0h0h41.739c0.004,0,0.006,0.002,0.01,0.002c2.729,0.006,4.725,1.865,4.73,3.867
					c0,0.003,0.002,0.006,0.002,0.009c-0.014,1.999-2.006,3.854-4.729,3.86H14.104l0,0c-3.566,0.007-6.639,2.474-6.668,5.82
					c0,0.002,0.001,0.003,0.001,0.005v6.723c0,0.542,0.434,0.978,0.969,0.978c0.537,0,0.971-0.436,0.971-0.978v-6.726v-0.001v-0.001
					c0.004-2.002,1.998-3.861,4.729-3.867c0.003,0,0.006-0.002,0.01-0.002h41.731c0.004,0,0.007,0.002,0.01,0.002
					c3.563-0.006,6.639-2.473,6.666-5.822C62.494,101.257,59.42,98.792,55.854,98.785z"/>
			</g>
			<g>
				<path fill="none" stroke="#231F20" stroke-width="0.4482" stroke-miterlimit="2.818" d="M55.854,98.785L55.854,98.785h-41.75h0
					h0c-2.729-0.008-4.725-1.867-4.73-3.869c0.006-2.002,2.002-3.861,4.73-3.869h0h0h41.75c3.563-0.006,6.64-2.471,6.669-5.82
					c0-0.005-0.003-0.01-0.003-0.015c-0.038-3.343-3.107-5.802-6.666-5.808H14.103h0h0c-2.727-0.006-4.724-1.868-4.728-3.869
					c0.004-2.001,2-3.859,4.725-3.87c0.001,0,0.002,0.001,0.004,0.001h41.752c3.559-0.006,6.631-2.466,6.665-5.811
					c0-0.003,0.002-0.005,0.002-0.008h-0.001c0-0.001,0-0.001,0-0.002c0-0.003-0.002-0.005-0.002-0.008
					c-0.035-3.344-3.103-5.803-6.66-5.812c-0.002,0-0.004-0.001-0.006-0.001H14.102v-0.001c-2.729-0.006-4.724-1.865-4.73-3.868
					c0.007-2.001,2.002-3.862,4.73-3.868c0.002,0,0.003-0.001,0.005-0.001h41.74c0.002,0,0.003,0.001,0.005,0.001
					c3.565-0.006,6.641-2.474,6.668-5.822c-0.029-3.35-3.104-5.814-6.67-5.82c-0.004,0-0.006,0.002-0.01,0.002H14.104
					c-0.002,0-0.003-0.001-0.005-0.001c-2.729-0.009-4.724-1.868-4.728-3.87c0.004-2.004,1.998-3.863,4.728-3.869h41.751
					c3.563-0.006,6.641-2.472,6.669-5.821c0-0.002-0.002-0.005-0.002-0.007c-0.031-3.344-3.106-5.809-6.668-5.815H14.102
					c-0.002,0-0.005,0.001-0.007,0.001c-2.727-0.011-4.718-1.87-4.724-3.869c0.006-2.002,2-3.862,4.729-3.871c0,0,0,0,0.001,0
					s0,0,0.001,0h41.743c0.002,0,0.003,0.001,0.005,0.001c3.559-0.007,6.628-2.462,6.669-5.801c0-0.007,0.004-0.014,0.004-0.021
					V0.977C62.522,0.438,62.091,0,61.555,0c-0.538,0-0.971,0.438-0.971,0.977v6.709c0,0.007-0.004,0.013-0.004,0.02
					c-0.006,2.001-2.001,3.861-4.73,3.867c-0.002,0-0.003,0.001-0.005,0.001H14.102c-0.004,0-0.008,0.002-0.012,0.002
					c-3.56,0.008-6.631,2.472-6.658,5.82c0.027,3.35,3.104,5.814,6.668,5.818c0,0,0,0,0.001,0s0,0,0.001,0H55.84
					c0.004,0,0.006,0.002,0.01,0.002c2.729,0.006,4.723,1.866,4.729,3.869c0,0.002,0.001,0.004,0.001,0.006
					c-0.01,2-2.004,3.855-4.729,3.861c-0.003,0-0.006,0.002-0.01,0.002H14.1c-3.563,0.006-6.639,2.472-6.668,5.821
					c0.029,3.346,3.099,5.81,6.656,5.82c0.004,0,0.008,0.002,0.012,0.002h41.75c2.729,0.006,4.725,1.866,4.73,3.867
					c0,0.002,0.001,0.004,0.001,0.006c-0.01,2.002-2.004,3.857-4.729,3.863c-0.002,0-0.003,0.001-0.005,0.001h-41.74
					c-0.002,0-0.003-0.001-0.005-0.001c-3.563,0.007-6.639,2.473-6.668,5.821c0.029,3.348,3.105,5.816,6.668,5.82h41.741
					c0.004,0,0.007,0.002,0.01,0.002c2.729,0.007,4.723,1.866,4.729,3.87c0,0.004,0.002,0.007,0.002,0.011
					c-0.016,1.997-2.007,3.849-4.729,3.854c-0.002,0-0.003,0.001-0.005,0.001H14.103c-0.002,0-0.004,0.001-0.006,0.001
					c-3.561,0.007-6.634,2.473-6.663,5.82c0.029,3.35,3.105,5.814,6.668,5.822h0h0h41.752c2.726,0.006,4.723,1.865,4.729,3.869
					c0,0.002,0.001,0.004,0.001,0.006c-0.011,1.998-2.004,3.855-4.729,3.863h-41.75h0h0c-3.563,0.006-6.64,2.47-6.668,5.82
					c0.028,3.35,3.104,5.814,6.668,5.82h0h0h41.739c0.004,0,0.006,0.002,0.01,0.002c2.729,0.006,4.725,1.865,4.73,3.867
					c0,0.003,0.002,0.006,0.002,0.009c-0.014,1.999-2.006,3.854-4.729,3.86H14.104l0,0c-3.566,0.007-6.639,2.474-6.668,5.82
					c0,0.002,0.001,0.003,0.001,0.005v6.723c0,0.542,0.434,0.978,0.969,0.978c0.537,0,0.971-0.436,0.971-0.978v-6.726v-0.001v-0.001
					c0.004-2.002,1.998-3.861,4.729-3.867c0.003,0,0.006-0.002,0.01-0.002h41.731c0.004,0,0.007,0.002,0.01,0.002
					c3.563-0.006,6.639-2.473,6.666-5.822C62.494,101.257,59.42,98.792,55.854,98.785z"/>
			</g>
		</g>
	</g>
</g>
</svg>
