<?xml version="1.0" standalone="no"?>
<!DOCTYPE svg PUBLIC "-//W3C//DTD SVG 1.1//EN" "http://www.w3.org/Graphics/SVG/1.1/DTD/svg11.dtd" >
<svg xmlns="http://www.w3.org/2000/svg">
<metadata></metadata>
<defs>
<font id="nokia_pure_h_web_lightlight" horiz-adv-x="1212" >
<font-face units-per-em="2048" ascent="1638" descent="-410" />
<missing-glyph horiz-adv-x="518" />
<glyph unicode="&#xfb01;" d="M70 909v107h200v110q0 202 81 313t265 111q82 0 160 -20l-16 -100q-46 12 -115 12q-145 0 -198.5 -75.5t-53.5 -266.5v-84h645v-1016h-123v909h-522v-909h-123v909h-200zM883 1356q0 44 25.5 72t66.5 28t67.5 -28t26.5 -72q0 -47 -26 -74t-68 -27q-41 0 -66.5 28.5 t-25.5 72.5z" />
<glyph unicode="&#xfb02;" horiz-adv-x="1218" d="M70 909v107h200v110q0 202 81 313t265 111q82 0 160 -20l-16 -100q-46 12 -115 12q-145 0 -198.5 -75.5t-53.5 -266.5v-84h314v-107h-314v-909h-123v909h-200zM932 0v1536h121v-1536h-121z" />
<glyph unicode="&#xfb03;" horiz-adv-x="1849" d="M70 909v107h200v110q0 98 18.5 173t58.5 133t109 88t165 30q85 0 163 -20l-16 -100q-46 12 -119 12q-149 0 -202.5 -75t-53.5 -267v-84h516v110q0 202 81 313t265 111q77 0 160 -20l-16 -100q-46 12 -115 12q-145 0 -198.5 -75.5t-53.5 -266.5v-84h645v-1016h-123v909 h-522v-909h-123v909h-516v-909h-123v909h-200zM1522 1356q0 44 25.5 72t66.5 28t67.5 -28t26.5 -72q0 -47 -26 -74t-68 -27q-41 0 -66.5 28.5t-25.5 72.5z" />
<glyph unicode="&#xfb04;" horiz-adv-x="1857" d="M70 909v107h200v110q0 98 18.5 173t58.5 133t109 88t165 30q85 0 163 -20l-16 -100q-46 12 -119 12q-149 0 -202.5 -75t-53.5 -267v-84h516v110q0 202 81 313t265 111q77 0 160 -20l-16 -100q-46 12 -115 12q-145 0 -198.5 -75.5t-53.5 -266.5v-84h314v-107h-314v-909 h-123v909h-516v-909h-123v909h-200zM1571 0v1536h121v-1536h-121z" />
<glyph horiz-adv-x="682" />
<glyph horiz-adv-x="0" />
<glyph horiz-adv-x="0" />
<glyph unicode="&#xd;" horiz-adv-x="518" />
<glyph unicode=" "  horiz-adv-x="518" />
<glyph unicode="&#x09;" horiz-adv-x="518" />
<glyph unicode="&#xa0;" horiz-adv-x="518" />
<glyph unicode="!" horiz-adv-x="573" d="M186 90q0 49 29 79t72 30q44 0 72 -29.5t28 -79.5q0 -49 -28.5 -78.5t-71.5 -29.5q-44 0 -72.5 29.5t-28.5 78.5zM223 406v1034h123v-1034h-123z" />
<glyph unicode="&#x22;" horiz-adv-x="831" d="M172 1440h135l-16 -512h-105zM524 1440h135l-14 -512h-104z" />
<glyph unicode="#" horiz-adv-x="1187" d="M49 401l19 101h200l86 436h-223l19 100h225l76 375h108l-76 -375h348l76 375h109l-76 -375h199l-19 -100h-200l-86 -436h223l-19 -101h-223l-78 -401h-108l80 401h-353l-77 -401h-109l78 401h-199zM377 502h350l84 436h-348z" />
<glyph unicode="$" d="M131 113l53 100q167 -114 387 -121v580q-45 17 -72 27.5t-65.5 27t-61.5 29t-52 31.5t-46.5 37.5t-36.5 43t-28.5 51t-16 59.5t-6.5 71q0 167 99.5 265.5t285.5 115.5v188h97v-188q105 0 210 -34.5t156 -70.5l-49 -100q-57 36 -142 64t-175 32v-551l69 -25 q157 -57 236.5 -143t79.5 -223q0 -163 -97.5 -266.5t-287.5 -126.5v-209h-97v205q-258 7 -440 131zM311 1057q0 -96 57.5 -150.5t202.5 -105.5v520q-134 -17 -197 -81.5t-63 -182.5zM668 96q121 13 190.5 81.5t69.5 193.5q0 108 -61 166.5t-199 103.5v-545z" />
<glyph unicode="%" horiz-adv-x="1837" d="M127 1028q0 198 78 305t221 107q146 0 219.5 -106t73.5 -306q0 -201 -76.5 -304t-218.5 -103q-297 0 -297 407zM233 1028q0 -165 48.5 -238t142.5 -73t140 72.5t46 238.5q0 172 -46.5 243.5t-139.5 71.5q-191 0 -191 -315zM473 0l770 1413h119l-768 -1413h-121zM1118 383 q0 197 78 303.5t221 106.5q146 0 219.5 -105t73.5 -305q0 -201 -77 -305.5t-216 -104.5q-299 0 -299 410zM1227 383q0 -167 47.5 -240t142.5 -73q91 0 139 74t48 239q0 171 -47 242t-140 71q-60 0 -100 -27.5t-65 -98.5t-25 -187z" />
<glyph unicode="&#x26;" horiz-adv-x="1411" d="M135 373q0 153 84 256t246 176q-31 38 -52 66.5t-48.5 73.5t-41.5 92.5t-14 95.5q0 150 96 245t257 95q142 0 233.5 -83.5t91.5 -222.5q0 -59 -17.5 -109.5t-45.5 -87.5t-76 -73t-94 -62t-115 -59l416 -487q46 37 100 118.5t90 159.5l96 -49q-89 -189 -213 -313l175 -205 h-152l-111 133q-84 -71 -200 -115.5t-244 -44.5q-222 0 -341.5 110t-119.5 290zM260 379q0 -146 88 -221.5t254 -75.5q102 0 202.5 39.5t162.5 93.5l-435 508q-126 -51 -199 -132.5t-73 -211.5zM426 1130q0 -70 38.5 -135.5t106.5 -140.5q137 64 185 98q116 83 116 211 q0 99 -58 154t-157 55q-108 0 -169.5 -67.5t-61.5 -174.5z" />
<glyph unicode="'" horiz-adv-x="479" d="M172 1440h135l-16 -512h-105z" />
<glyph unicode="(" horiz-adv-x="577" d="M160 670q0 150 20.5 293.5t53.5 253.5t64 187t62 132h109q-77 -159 -132.5 -381t-55.5 -485q0 -264 56 -490.5t132 -376.5h-109q-31 55 -62 132t-64 187t-53.5 254t-20.5 294z" />
<glyph unicode=")" horiz-adv-x="575" d="M111 -197q75 155 130.5 379t55.5 488q0 263 -55.5 490t-130.5 376h106q32 -56 63 -132.5t64.5 -186.5t54.5 -253.5t21 -293.5t-21 -294t-54.5 -254t-64.5 -186.5t-63 -132.5h-106z" />
<glyph unicode="*" horiz-adv-x="866" d="M86 1235l43 108l264 -112l-14 305h117l-11 -305l265 123l38 -109l-274 -98l205 -240l-92 -67l-189 254l-186 -254l-92 71l198 234z" />
<glyph unicode="+" d="M154 651v111h395v424h115v-424h395v-111h-395v-424h-115v424h-395z" />
<glyph unicode="," horiz-adv-x="520" d="M92 -283q121 133 137 269q-31 7 -53 32t-22 68q0 52 28.5 82.5t71.5 30.5q49 0 74.5 -32t25.5 -87q0 -98 -51.5 -209t-150.5 -205z" />
<glyph unicode="-" horiz-adv-x="864" d="M137 516v117h588v-117h-588z" />
<glyph unicode="." horiz-adv-x="514" d="M158 88q0 49 28.5 80t71.5 31q44 0 72 -30.5t28 -80.5q0 -48 -29 -77t-73 -29q-43 0 -70.5 28.5t-27.5 77.5z" />
<glyph unicode="/" horiz-adv-x="849" d="M47 -96l639 1632h117l-639 -1632h-117z" />
<glyph unicode="0" d="M125 702q0 732 483 732q244 0 361.5 -183t117.5 -549q0 -364 -122 -546.5t-357 -182.5q-483 0 -483 729zM254 702q0 -323 89.5 -469.5t262.5 -146.5q352 0 352 616q0 221 -43.5 360.5t-119.5 198t-189 58.5t-189 -58.5t-119.5 -198t-43.5 -360.5z" />
<glyph unicode="1" d="M211 1124l461 289h106v-1413h-125v1268l-393 -238z" />
<glyph unicode="2" d="M186 1239q157 195 406 195q100 0 176 -30.5t120.5 -82.5t66.5 -114.5t22 -133.5q0 -72 -25 -137t-74.5 -122.5t-96.5 -99.5t-119 -96q-71 -56 -117.5 -97t-92 -91t-70.5 -95.5t-40.5 -102t-15.5 -119.5h675v-113h-804v35q0 109 21.5 196t70 163.5t113.5 142t165 143.5 q52 42 73.5 60t60.5 52.5t55 53t39.5 49t32.5 54.5t16.5 54.5t7.5 63.5q0 117 -67 185.5t-207 68.5q-197 0 -312 -152z" />
<glyph unicode="3" d="M170 33l29 102q117 -45 282 -45q172 0 270.5 75.5t98.5 219.5q0 127 -89.5 205t-262.5 78h-111v110h105q165 0 248 79t83 204q0 118 -68.5 190t-213.5 72q-178 0 -291 -113l-66 76q52 58 145 103t218 45q101 0 179.5 -28.5t125.5 -78.5t70.5 -112t23.5 -134 q0 -133 -69.5 -225.5t-194.5 -124.5q144 -29 217.5 -118.5t73.5 -225.5q0 -192 -135 -301t-346 -109q-101 0 -187.5 17t-134.5 39z" />
<glyph unicode="4" d="M143 346v86l529 981h133l-514 -956h444v420h121v-420h225v-111h-225v-346h-121v346h-592z" />
<glyph unicode="5" d="M207 33l29 102q118 -45 282 -45q176 0 274.5 90.5t98.5 261.5q0 69 -15.5 125.5t-49 102t-92.5 71t-138 25.5q-143 0 -250 -59l-67 49l77 651h613v-113h-523l-57 -467q77 41 225 41q181 0 291.5 -108t110.5 -316q0 -129 -56.5 -234t-169.5 -169t-264 -64 q-101 0 -185.5 17t-133.5 39z" />
<glyph unicode="6" d="M188 610q0 404 142.5 617t406.5 213q152 0 281 -66l-41 -98q-105 55 -244 55q-130 0 -223.5 -78.5t-139.5 -208.5t-51 -301q54 80 145.5 130.5t201.5 50.5q180 0 295.5 -120t115.5 -339q0 -223 -119 -357.5t-319 -134.5q-222 0 -336.5 159.5t-114.5 477.5zM324 489 q0 -185 84.5 -296t230.5 -111q147 0 229 96.5t82 274.5q0 176 -79.5 268t-219.5 92q-132 0 -229.5 -93.5t-97.5 -230.5z" />
<glyph unicode="7" d="M168 1298v115h852v-94l-533 -1319h-135l533 1298h-717z" />
<glyph unicode="8" d="M162 330q0 148 77 241t232 160q-134 58 -203 139t-69 209q0 156 112.5 258.5t300.5 102.5q197 0 301.5 -96.5t104.5 -251.5q0 -118 -72.5 -208.5t-191.5 -148.5q141 -62 217 -151t76 -226q0 -169 -117 -277t-326 -108q-111 0 -197.5 29t-139 79t-79 113t-26.5 136z M285 350q0 -129 85 -199.5t236 -70.5q147 0 231.5 71.5t84.5 208.5q0 126 -86.5 203.5t-243.5 120.5q-153 -57 -230 -138t-77 -196zM319 1075q0 -60 25 -108.5t71 -83.5t98 -59t120 -44q120 43 191 123t71 187q0 112 -73 178.5t-210 66.5q-141 0 -217 -74t-76 -186z" />
<glyph unicode="9" d="M152 948q0 224 118 358t318 134q452 0 452 -627q0 -417 -138.5 -628.5t-409.5 -211.5q-179 0 -285 52l26 100q103 -43 250 -43q103 0 182.5 41.5t131 120t80 185.5t34.5 243q-54 -78 -147.5 -130.5t-200.5 -52.5q-180 0 -295.5 120t-115.5 339zM279 961q0 -176 79 -268.5 t217 -92.5q134 0 232 92.5t98 231.5q0 200 -83 303.5t-234 103.5q-144 0 -226.5 -96.5t-82.5 -273.5z" />
<glyph unicode=":" horiz-adv-x="514" d="M158 84q0 49 28.5 80t71.5 31q44 0 72 -30.5t28 -80.5q0 -48 -29 -77.5t-73 -29.5q-43 0 -70.5 29t-27.5 78zM158 907q0 49 28.5 80t71.5 31q44 0 72 -30.5t28 -80.5q0 -48 -29 -77t-73 -29q-43 0 -70.5 28.5t-27.5 77.5z" />
<glyph unicode=";" horiz-adv-x="520" d="M92 -283q121 133 137 269q-31 7 -53 32t-22 68q0 52 28.5 82.5t71.5 30.5q49 0 74.5 -32t25.5 -87q0 -98 -51.5 -209t-150.5 -205zM158 907q0 49 28.5 80t71.5 31q44 0 72 -30.5t28 -80.5q0 -48 -29 -77t-73 -29q-43 0 -70.5 28.5t-27.5 77.5z" />
<glyph unicode="&#x3c;" d="M219 666v104l729 377l45 -100l-653 -326l653 -330l-43 -100z" />
<glyph unicode="=" d="M188 438v111h836v-111h-836zM188 862v109h836v-109h-836z" />
<glyph unicode="&#x3e;" d="M219 391l653 326l-653 330l43 100l731 -377v-104l-729 -375z" />
<glyph unicode="?" horiz-adv-x="1118" d="M102 1257q173 216 453 216q195 0 299 -106t104 -267q0 -64 -16 -120t-47.5 -102t-60 -77t-70.5 -68q-51 -43 -79 -71.5t-57.5 -71t-42 -93.5t-12.5 -118h-116q0 78 11 134.5t40.5 107t66.5 90.5t103 98q156 141 156 281q0 127 -74 198.5t-219 71.5q-220 0 -365 -178z M422 90q0 49 28.5 79t71.5 30q44 0 72.5 -29.5t28.5 -79.5q0 -49 -28.5 -78.5t-72.5 -29.5q-43 0 -71.5 29.5t-28.5 78.5z" />
<glyph unicode="@" horiz-adv-x="2066" d="M152 453q0 223 74 418.5t203 335t312 220t394 80.5q389 0 604 -203.5t215 -558.5q0 -163 -45.5 -301.5t-119 -227.5t-164 -138t-183.5 -49q-87 0 -130.5 27t-68.5 73q-41 -34 -111.5 -67t-146.5 -33q-158 0 -255 99.5t-97 283.5q0 134 37 247.5t100 189.5t146.5 118.5 t175.5 42.5q55 0 101.5 -12.5t75.5 -29.5t52 -40t33 -38.5t16 -29.5l33 123h92l-147 -758q-2 -6 -2 -24q0 -78 104 -78q76 0 147 45.5t125 125.5t86.5 197t32.5 252q0 167 -53.5 295t-150.5 207t-224 118.5t-280 39.5q-244 0 -440.5 -119.5t-309.5 -336.5t-113 -492 q0 -244 91.5 -422.5t274.5 -277.5t441 -99q407 0 711 244l61 -84q-127 -110 -332.5 -187.5t-437.5 -77.5q-280 0 -487.5 103.5t-323.5 308.5t-116 490zM752 412q0 -143 66.5 -216t187.5 -73q73 0 136.5 34.5t96.5 71.5l49 265q2 16 16.5 95t14.5 101q0 94 -62.5 158.5 t-171.5 64.5q-143 0 -238 -130.5t-95 -370.5z" />
<glyph unicode="A" horiz-adv-x="1185" d="M39 0l481 1440h144l483 -1440h-133l-131 401h-592l-129 -401h-123zM326 514h520l-258 778z" />
<glyph unicode="B" horiz-adv-x="1226" d="M188 0v1440h404q213 0 319.5 -102.5t106.5 -260.5q0 -126 -65.5 -208.5t-147.5 -112.5q54 -13 103 -40.5t92 -70t68.5 -106.5t25.5 -140q0 -186 -119 -292.5t-357 -106.5h-430zM313 115h322q172 0 250 73t78 213t-97 212.5t-278 72.5h-275v-571zM313 799h256 q165 0 243.5 74t78.5 204q0 68 -25.5 117.5t-71 77t-99 40.5t-117.5 13h-265v-526z" />
<glyph unicode="C" horiz-adv-x="1275" d="M139 713q0 228 66.5 394t206.5 260.5t344 94.5q79 0 152 -15.5t126 -41t88 -48t62 -46.5l-66 -92q-156 131 -358 131q-234 0 -360 -162.5t-126 -474.5q0 -621 486 -621q209 0 375 127l59 -92q-75 -66 -189.5 -108t-252.5 -42q-309 0 -461 188t-152 548z" />
<glyph unicode="D" horiz-adv-x="1396" d="M188 0v1440h428q310 0 474.5 -187.5t164.5 -533.5q0 -345 -169.5 -532t-469.5 -187h-428zM317 119h299q237 0 371.5 155.5t134.5 446.5q0 301 -133 450.5t-373 149.5h-299v-1202z" />
<glyph unicode="E" horiz-adv-x="1069" d="M188 0v1440h795v-119h-666v-512h521v-119h-521v-571h687v-119h-816z" />
<glyph unicode="F" horiz-adv-x="1069" d="M188 0v1440h801v-119h-672v-512h547v-119h-547v-690h-129z" />
<glyph unicode="G" horiz-adv-x="1335" d="M137 713q0 165 38.5 303t113.5 240.5t193 159.5t268 57q258 0 434 -140l-62 -94q-36 24 -48.5 32.5t-53.5 30t-72.5 31t-84 18.5t-109.5 9q-223 0 -352.5 -165t-129.5 -482q0 -323 126 -474t382 -151q176 0 299 49v479h-307v115h426v-665q-35 -20 -82.5 -38.5 t-146.5 -38.5t-205 -20q-314 0 -470.5 187.5t-156.5 556.5z" />
<glyph unicode="H" horiz-adv-x="1366" d="M188 0v1440h129v-611h732v611h129v-1440h-129v709h-732v-709h-129z" />
<glyph unicode="I" horiz-adv-x="505" d="M188 0v1440h129v-1440h-129z" />
<glyph unicode="J" horiz-adv-x="968" d="M55 63l49 101q1 0 10.5 -5t18 -9.5t23.5 -11.5t30 -12.5t34 -12.5t38.5 -12t41.5 -9.5t45 -7t46 -2.5q145 0 209 68t64 241v1049h129v-1065q0 -213 -98 -310.5t-285 -97.5q-91 0 -176 22t-123.5 41.5t-55.5 32.5z" />
<glyph unicode="K" horiz-adv-x="1132" d="M188 0v1440h129v-664l601 664h151l-600 -666l649 -774h-166l-635 754v-754h-129z" />
<glyph unicode="L" horiz-adv-x="1060" d="M188 0v1440h129v-1321h666v-119h-795z" />
<glyph unicode="M" horiz-adv-x="1583" d="M188 0v1440h136l467 -856l464 856h140v-1440h-127v1239l-430 -788h-105l-418 763v-1214h-127z" />
<glyph unicode="N" horiz-adv-x="1351" d="M188 0v1440h136l714 -1221v1221h125v-1440h-125l-725 1227v-1227h-125z" />
<glyph unicode="O" horiz-adv-x="1503" d="M141 721q0 343 161 546t452 203q193 0 331 -94t207.5 -261.5t69.5 -393.5t-69.5 -394t-208 -263t-332.5 -95t-333 95t-208.5 263t-69.5 394zM276 721q0 -294 120.5 -462.5t355.5 -168.5t355 168t120 463q0 294 -120 461.5t-355 167.5t-355.5 -167.5t-120.5 -461.5z" />
<glyph unicode="P" horiz-adv-x="1159" d="M188 0v1440h402q116 0 205 -34.5t143 -95t81.5 -139t27.5 -172.5q0 -89 -28 -165.5t-83.5 -138t-149 -97t-215.5 -35.5h-256v-563h-127zM315 680h252q172 0 261.5 80t89.5 239q0 166 -86 246t-246 80h-271v-645z" />
<glyph unicode="Q" horiz-adv-x="1503" d="M141 721q0 343 160 546t451 203t450.5 -203t159.5 -546q0 -262 -96.5 -448t-274.5 -259q53 -74 154.5 -127.5t218.5 -70.5l-25 -105q-135 17 -269.5 94t-207.5 175q-50 -9 -104 -9q-155 0 -275 58t-194 161t-111 237t-37 294zM276 721q0 -294 120.5 -462.5t355.5 -168.5 t355 168t120 463q0 294 -120 461.5t-355 167.5t-355.5 -167.5t-120.5 -461.5z" />
<glyph unicode="R" horiz-adv-x="1181" d="M188 0v1440h379q99 0 178.5 -24.5t130.5 -64.5t85 -95.5t48.5 -113.5t14.5 -122q0 -152 -79 -253t-206 -146l369 -621h-150l-352 592h-291v-592h-127zM315 705h246q168 0 252 81.5t84 227.5q0 148 -83.5 229.5t-260.5 81.5h-238v-620z" />
<glyph unicode="S" horiz-adv-x="1142" d="M94 96l53 107q181 -115 412 -115q157 0 246.5 69t89.5 205q0 105 -61 174.5t-199 112.5l-129 41q-356 112 -356 381q0 177 117.5 291.5t340.5 114.5q106 0 219 -31t179 -74l-50 -106q-56 36 -150.5 64t-205.5 28q-154 0 -236.5 -71t-82.5 -200q0 -100 57.5 -159 t208.5 -113l147 -51q177 -62 255.5 -153.5t78.5 -237.5q0 -85 -30 -157.5t-87.5 -128t-148.5 -87t-205 -31.5q-154 0 -282.5 43t-180.5 84z" />
<glyph unicode="T" horiz-adv-x="1157" d="M72 1319v121h1011v-121h-440v-1319h-129v1319h-442z" />
<glyph unicode="U" horiz-adv-x="1339" d="M168 565v875h129v-846q0 -193 41.5 -305t120.5 -157.5t211 -45.5q130 0 209 45.5t121 157.5t42 303v848h129v-877q0 -110 -14.5 -197t-50 -163.5t-92.5 -127t-145 -79.5t-203 -29t-202 29t-142.5 80t-90.5 128t-49 164t-14 197z" />
<glyph unicode="V" horiz-adv-x="1165" d="M35 1440h139l414 -1260l407 1260h133l-481 -1440h-123z" />
<glyph unicode="W" horiz-adv-x="1572" d="M31 1440h133l260 -1247l299 1212h127l291 -1210l270 1245h131l-328 -1440h-143l-287 1198l-301 -1198h-141z" />
<glyph unicode="X" horiz-adv-x="1224" d="M68 0l473 764l-406 676h150l331 -568l351 568h141l-416 -672l461 -768h-152l-389 653l-397 -653h-147z" />
<glyph unicode="Y" horiz-adv-x="1114" d="M35 1440h147l375 -688l383 688h139l-463 -807v-633h-129v629z" />
<glyph unicode="Z" horiz-adv-x="1185" d="M102 0v102l807 1219h-786v119h944v-103l-809 -1218h834v-119h-990z" />
<glyph unicode="[" horiz-adv-x="698" d="M190 -209v1745h420v-109h-299v-1527h299v-109h-420z" />
<glyph unicode="\" horiz-adv-x="849" d="M47 1536h117l639 -1632h-117z" />
<glyph unicode="]" horiz-adv-x="827" d="M98 -100h299v1527h-299v109h420v-1745h-420v109z" />
<glyph unicode="^" d="M168 647l389 766h105l382 -766h-122l-314 643l-319 -643h-121z" />
<glyph unicode="_" horiz-adv-x="913" d="M0 -268h913v-113h-913v113z" />
<glyph unicode="`" horiz-adv-x="1052" d="M272 1419l58 115l450 -242l-45 -88z" />
<glyph unicode="a" horiz-adv-x="1060" d="M104 281q0 153 97 243t282 90q96 0 297 -28v100q0 130 -74 189t-219 59q-151 0 -280 -70l-39 90q141 86 350 86q182 0 279.5 -86.5t97.5 -257.5v-696h-109l-4 156q-108 -181 -364 -181q-45 0 -87.5 9.5t-84.5 32t-73 56.5t-50 87.5t-19 120.5zM221 283q0 -103 66 -156 t178 -53q126 0 220.5 84t94.5 188v146q-38 9 -122.5 18.5t-163.5 9.5q-146 0 -209.5 -60.5t-63.5 -176.5z" />
<glyph unicode="b" horiz-adv-x="1185" d="M166 0v1536h121v-713q47 97 139.5 158t214.5 61q134 0 230 -69t142 -186t46 -271q0 -116 -25.5 -208t-68 -151.5t-100.5 -98.5t-118 -55.5t-126 -16.5q-224 0 -342 157q0 -24 -1.5 -71.5t-1.5 -71.5h-110zM287 264q42 -62 123.5 -115t181.5 -53q342 0 342 420 q0 190 -76.5 303t-230.5 113q-141 0 -240.5 -119.5t-99.5 -316.5v-232z" />
<glyph unicode="c" horiz-adv-x="962" d="M127 508q0 240 123.5 387t333.5 147q177 0 305 -98l-55 -90q-37 22 -56.5 32.5t-75.5 27t-112 16.5q-154 0 -246 -106.5t-92 -313.5q0 -210 91.5 -315t246.5 -105q138 0 250 57l45 -90q-101 -80 -303 -80q-217 0 -336 137.5t-119 393.5z" />
<glyph unicode="d" horiz-adv-x="1185" d="M129 508q0 149 49 269t145.5 192.5t223.5 72.5q125 0 216 -59t140 -160v713h121v-1536h-113l-2 143q-137 -157 -354 -157q-68 0 -127.5 15.5t-115 53.5t-95.5 96.5t-64 149.5t-24 207zM254 508q0 -412 344 -412q100 0 182 52t123 114v227q0 198 -100 320.5t-240 122.5 q-153 0 -231 -117t-78 -307z" />
<glyph unicode="e" horiz-adv-x="1116" d="M127 508q0 245 119 389.5t327 144.5q204 0 312 -130.5t108 -415.5v-21h-745q22 -387 381 -387q142 0 264 55l35 -94q-40 -26 -123.5 -49t-188.5 -23q-244 0 -366.5 137t-122.5 394zM250 573h622q-12 179 -84 270t-217 91q-149 0 -226 -91.5t-95 -269.5z" />
<glyph unicode="f" horiz-adv-x="749" d="M70 909v107h200v110q0 98 18.5 173t58.5 133t109 88t165 30q85 0 163 -20l-16 -100q-46 12 -119 12q-149 0 -202.5 -75t-53.5 -267v-84h314v-107h-314v-909h-123v909h-200z" />
<glyph unicode="g" horiz-adv-x="1110" d="M88 -203q0 147 139 256q-92 49 -92 158q0 116 119 215q-115 91 -115 256q0 90 38 161t99.5 113t133 64t145.5 22q60 0 134 -13t108 -13h276v-96h-57q-110 0 -164 10q57 -38 90 -106t33 -144q0 -90 -38 -160.5t-99.5 -110.5t-131.5 -60.5t-143 -20.5q-148 0 -244 53 q-75 -63 -75 -137q0 -71 49 -101t186 -34l226 -5q342 -11 342 -247q0 -143 -139.5 -237.5t-399.5 -94.5q-87 0 -159.5 14t-132.5 44.5t-94 85t-34 128.5zM203 -178q0 -56 25 -96.5t69.5 -62.5t97 -32t117.5 -10q188 0 301 60t113 159q0 72 -45.5 115t-167.5 47l-203 4 q-150 5 -199 17q-43 -32 -75.5 -84t-32.5 -117zM258 684q0 -71 25 -123.5t68 -82t94.5 -43t111.5 -13.5q59 0 110.5 13.5t95 43t68.5 82t25 123.5t-25 123.5t-68 82t-94 43t-110 13.5q-60 0 -112.5 -14.5t-95.5 -44.5t-68 -82t-25 -121z" />
<glyph unicode="h" horiz-adv-x="1150" d="M166 0v1536h121v-715q50 103 141 162t221 59q167 0 255.5 -96.5t88.5 -281.5v-664h-121v647q0 285 -254 285q-75 0 -138.5 -35.5t-105 -93.5t-64.5 -131t-23 -150v-522h-121z" />
<glyph unicode="i" horiz-adv-x="468" d="M141 1356q0 44 25.5 72t66.5 28t68 -28t27 -72q0 -46 -26.5 -73.5t-68.5 -27.5q-41 0 -66.5 28.5t-25.5 72.5zM174 0v1016h121v-1016h-121z" />
<glyph unicode="j" horiz-adv-x="468" d="M-172 -440l14 102q54 -12 103 -12q59 0 99.5 14.5t66 40.5t39.5 73t19 101t5 135v1002h121v-1045q0 -218 -81 -324t-259 -106q-68 0 -127 19zM141 1356q0 44 25.5 72t66.5 28t68 -28t27 -72q0 -46 -26.5 -73.5t-68.5 -27.5q-41 0 -66.5 28.5t-25.5 72.5z" />
<glyph unicode="k" horiz-adv-x="944" d="M166 0v1536h121v-977l434 457h145l-442 -457l483 -559h-155l-465 545v-545h-121z" />
<glyph unicode="l" horiz-adv-x="454" d="M166 0v1536h123v-1536h-123z" />
<glyph unicode="m" horiz-adv-x="1763" d="M166 0v1016h113l4 -201q50 104 138 165.5t210 61.5q111 0 191 -60t102 -177q52 109 144 173t216 64q159 0 240.5 -96.5t81.5 -281.5v-664h-121v649q0 154 -56.5 218.5t-171.5 64.5q-93 0 -166 -58t-109 -146t-36 -185v-543h-121v649q0 154 -56.5 218.5t-170.5 64.5 q-91 0 -164 -62.5t-110 -155t-37 -192.5v-522h-121z" />
<glyph unicode="n" horiz-adv-x="1150" d="M166 0v1016h113l4 -201q50 102 142.5 164.5t215.5 62.5q352 0 352 -378v-664h-121v647q0 285 -254 285q-75 0 -138.5 -35.5t-105 -93.5t-64.5 -131t-23 -150v-522h-121z" />
<glyph unicode="o" horiz-adv-x="1189" d="M127 510q0 238 122.5 385t344.5 147q225 0 346 -146t121 -386q0 -241 -122.5 -387t-344.5 -146q-224 0 -345.5 145.5t-121.5 387.5zM252 510q0 -200 86 -311t256 -111q173 0 258.5 110.5t85.5 311.5q0 196 -87.5 309t-256.5 113q-168 0 -255 -113t-87 -309z" />
<glyph unicode="p" horiz-adv-x="1185" d="M166 -451v1467h113l4 -201q46 99 139.5 163t220.5 64q102 0 182 -39.5t131 -110t77 -164.5t26 -206q0 -116 -26 -208.5t-69.5 -153t-102 -100.5t-120 -57t-127.5 -17q-180 0 -327 118v-555h-121zM287 229q48 -48 132.5 -91.5t172.5 -43.5q164 0 253 104.5t89 323.5 q0 186 -77.5 298t-229.5 112q-62 0 -117 -23.5t-95 -64.5t-69.5 -95t-44 -116t-14.5 -127v-277z" />
<glyph unicode="q" horiz-adv-x="1185" d="M127 508q0 150 48 269.5t145.5 192t230.5 72.5q130 0 218.5 -63.5t131.5 -153.5l6 191h115v-1467h-121v588q-48 -58 -137 -104.5t-211 -46.5q-68 0 -128.5 16t-116 55t-95 97.5t-63 149t-23.5 204.5zM252 508q0 -212 89 -313t245 -101q181 0 315 166v229q0 184 -97 313.5 t-243 129.5q-147 0 -228 -112.5t-81 -311.5z" />
<glyph unicode="r" horiz-adv-x="765" d="M172 0v1016h113l4 -234q44 107 135.5 175.5t218.5 68.5q71 0 84 -8l-10 -111q-23 6 -82 6q-151 0 -246.5 -122.5t-95.5 -327.5v-463h-121z" />
<glyph unicode="s" horiz-adv-x="950" d="M96 70l43 94q143 -82 334 -82q143 0 203.5 47.5t60.5 132.5q0 78 -47.5 123.5t-169.5 67.5l-110 20q-69 13 -119.5 32t-92 50.5t-62.5 79.5t-21 113q0 138 103 216t274 78q183 0 317 -71l-43 -94q-112 59 -268 59q-138 0 -203.5 -43.5t-65.5 -130.5q0 -78 49 -117.5 t179 -64.5l112 -21q285 -57 285 -278q0 -141 -100 -222.5t-279 -81.5q-117 0 -220.5 28.5t-158.5 64.5z" />
<glyph unicode="t" horiz-adv-x="804" d="M70 909v107h211v299l120 33v-332h310v-107h-310v-592q0 -68 14 -112.5t45 -68t69 -32t96 -8.5q63 0 96 8l12 -98q-61 -18 -151 -18q-159 0 -230 75t-71 220v626h-211z" />
<glyph unicode="u" horiz-adv-x="1157" d="M166 352v664h121v-647q0 -283 252 -283q99 0 176.5 60t116 152t38.5 196v522h121v-1016h-112l-5 197q-112 -222 -368 -222q-167 0 -253.5 95.5t-86.5 281.5z" />
<glyph unicode="v" horiz-adv-x="991" d="M45 1016h133l322 -893l317 893h127l-383 -1016h-131z" />
<glyph unicode="w" horiz-adv-x="1400" d="M45 1016h129l250 -881l219 850h125l219 -850l248 881h121l-305 -1016h-131l-218 836l-219 -836h-131z" />
<glyph unicode="x" horiz-adv-x="974" d="M51 0l361 528l-332 488h139l266 -398l267 398h129l-330 -477l371 -539h-142l-305 446l-293 -446h-131z" />
<glyph unicode="y" horiz-adv-x="1003" d="M45 1016h135l324 -830l330 830h124l-612 -1467h-119l211 500z" />
<glyph unicode="z" horiz-adv-x="987" d="M115 0v84l608 838h-600v104h751v-86l-610 -838h617v-102h-766z" />
<glyph unicode="{" horiz-adv-x="690" d="M119 602v121q77 16 112 75t35 140v256q0 342 338 342v-104q-124 0 -171.5 -61t-47.5 -202v-237q0 -91 -39.5 -162t-103.5 -104q66 -31 104.5 -97.5t38.5 -167.5v-243q0 -135 48 -199.5t171 -64.5v-103q-96 0 -163.5 25.5t-105 75.5t-53.5 112.5t-16 145.5v239 q0 80 -35.5 138.5t-111.5 74.5z" />
<glyph unicode="|" horiz-adv-x="512" d="M199 -451v1987h114v-1987h-114z" />
<glyph unicode="}" horiz-adv-x="690" d="M86 -106q123 0 171 64.5t48 199.5v243q0 199 144 263q-66 32 -105 104t-39 164v237q0 141 -47.5 202t-171.5 61v104q338 0 338 -342v-256q0 -81 34.5 -140t110.5 -75v-121q-76 -16 -110.5 -74.5t-34.5 -138.5v-239q0 -83 -16 -145.5t-53.5 -112.5t-105 -75.5 t-163.5 -25.5v103z" />
<glyph unicode="~" d="M98 817q166 166 330 166q45 0 91 -13.5t74.5 -28.5t68.5 -40q96 -61 165 -61q66 0 113.5 25.5t106.5 80.5l65 -74q-130 -141 -289 -141q-64 0 -117.5 21.5t-115.5 60.5q-32 20 -51 30.5t-51 20.5t-64 10q-120 0 -260 -137z" />
<glyph unicode="&#xa1;" horiz-adv-x="573" d="M186 932q0 49 28.5 78.5t72.5 29.5q43 0 71.5 -29.5t28.5 -78.5q0 -50 -28 -79.5t-72 -29.5q-43 0 -72 30t-29 79zM223 -418v1034h123v-1034h-123z" />
<glyph unicode="&#xa2;" d="M213 705q0 228 117 367.5t307 160.5v207h96v-203q99 -4 180.5 -33t116.5 -59l-49 -90q-41 25 -110 50t-138 25v-851q126 2 250 63l43 -86q-42 -27 -119 -53t-174 -31v-199h-96v201q-194 18 -309 156t-115 375zM334 705q0 -371 303 -420v841q-137 -22 -220 -123.5 t-83 -297.5z" />
<glyph unicode="&#xa3;" d="M176 731v107h160q-19 171 -19 206q0 187 110.5 303.5t326.5 116.5q115 0 206 -42t136 -87l-66 -88q-25 22 -56.5 42.5t-93.5 42.5t-124 22q-158 0 -235 -87t-77 -225q0 -70 17 -204h364v-107h-346q21 -108 21 -231q0 -193 -156 -387h713v-113h-852v96q168 202 168 414 q0 96 -19 221h-178z" />
<glyph unicode="&#xa4;" d="M131 301l168 166q-72 97 -72 233t78 240l-174 176l68 70l174 -180q100 75 233 75q139 0 234 -71l174 176l69 -68l-174 -176q78 -96 78 -240q0 -136 -74 -231l168 -170l-65 -68l-170 170q-100 -81 -242 -81q-145 0 -239 79l-168 -168zM334 702q0 -128 74 -204t198 -76 q125 0 199 75.5t74 204.5q0 125 -74.5 203t-198.5 78q-122 0 -197 -78t-75 -203z" />
<glyph unicode="&#xa5;" d="M90 1440h148l370 -695l383 695h139l-423 -731h321v-105h-362v-209h362v-104h-362v-291h-123v291h-348v104h348v209h-348v105h305z" />
<glyph unicode="&#xa6;" horiz-adv-x="512" d="M199 221h114v-672h-114v672zM199 866v670h114v-670h-114z" />
<glyph unicode="&#xa7;" horiz-adv-x="1144" d="M180 682q0 172 146 297q-54 47 -77.5 103t-23.5 135q0 160 109.5 253t275.5 93q188 0 324 -90l-43 -91q-96 49 -164 64q-52 12 -106 12q-125 0 -203 -57.5t-78 -173.5q0 -160 190 -236l179 -71q132 -53 196 -128.5t64 -193.5q0 -167 -144 -291q101 -88 101 -241 q0 -152 -104 -248.5t-279 -96.5q-167 0 -326 89l45 92q138 -76 281 -76q118 0 193 61t75 181q0 148 -182 221l-189 76q-260 98 -260 317zM289 698q0 -83 51 -137.5t158 -97.5l151 -62q49 -20 92 -45q45 36 82 96.5t37 133.5q0 83 -53.5 140t-155.5 97l-159 64q-47 19 -84 41 q-49 -39 -84 -101t-35 -129z" />
<glyph unicode="&#xa8;" horiz-adv-x="1009" d="M205 1311q0 46 27 74t69 28t68 -27.5t26 -74.5t-26 -75t-68 -28t-69 28t-27 75zM614 1311q0 47 26.5 74.5t68.5 27.5t69 -28t27 -74q0 -47 -27 -75t-69 -28t-68.5 28t-26.5 75z" />
<glyph unicode="&#xa9;" horiz-adv-x="1685" d="M98 723q0 214 94.5 385t265.5 268t388 97q214 0 384 -97t264.5 -268t94.5 -385q0 -162 -55.5 -301.5t-153.5 -238t-236.5 -154.5t-299.5 -56q-214 0 -384.5 95.5t-266 267t-95.5 387.5zM201 721q0 -186 83 -335.5t230 -233.5t330 -84q182 0 328.5 84t229.5 233.5 t83 335.5q0 139 -48.5 261t-133 208.5t-203 136t-254.5 49.5q-182 0 -329.5 -84.5t-231.5 -234.5t-84 -336zM524 719q0 173 94.5 283t251.5 110q62 0 117.5 -16t80.5 -30.5t36 -25.5l-39 -71q-87 53 -195 53q-114 0 -178.5 -78t-64.5 -225q0 -151 63 -226t178 -75 q100 0 199 43l31 -68q-10 -10 -35.5 -23t-81 -26.5t-117.5 -13.5q-164 0 -252 102t-88 287z" />
<glyph unicode="&#xaa;" horiz-adv-x="737" d="M113 1020q0 96 68 146.5t192 50.5q94 0 149 -11v43q0 77 -41.5 111.5t-128.5 34.5q-116 0 -178 -41l-27 69q30 19 89 34.5t126 15.5q130 0 191 -59t61 -183v-391h-79l-7 71q-33 -37 -90.5 -62.5t-113.5 -25.5q-97 0 -154 49t-57 148zM121 639v82h493v-82h-493zM205 1022 q0 -121 131 -121q74 0 130 38.5t56 94.5v99q-2 0 -27 2.5t-59.5 5t-58.5 2.5q-172 0 -172 -121z" />
<glyph unicode="&#xab;" horiz-adv-x="960" d="M117 512l235 395h123l-227 -395l227 -395h-123zM485 512l236 395h123l-228 -395l228 -395h-123z" />
<glyph unicode="&#xac;" d="M205 819v107h801v-492h-111v385h-690z" />
<glyph unicode="&#xad;" horiz-adv-x="864" d="M137 516v117h588v-117h-588z" />
<glyph unicode="&#xae;" horiz-adv-x="1685" d="M98 723q0 214 94.5 385t265.5 268t388 97q214 0 384 -97t264.5 -268t94.5 -385q0 -162 -55.5 -301.5t-153.5 -238t-236.5 -154.5t-299.5 -56q-214 0 -384.5 95.5t-266 267t-95.5 387.5zM201 721q0 -137 48.5 -258t133.5 -208t204.5 -137t256.5 -50q181 0 328.5 86 t230 235.5t82.5 331.5q0 183 -82.5 333t-229 236t-327.5 86q-182 0 -330 -86t-231.5 -236t-83.5 -333zM594 338v764h256q133 0 197.5 -64.5t64.5 -163.5q0 -155 -156 -210l187 -326h-107l-176 303h-168v-303h-98zM692 727h156q77 0 121.5 39t44.5 106q0 144 -160 144h-162 v-289z" />
<glyph unicode="&#xaf;" horiz-adv-x="1034" d="M227 1255v109h582v-109h-582z" />
<glyph unicode="&#xb0;" horiz-adv-x="815" d="M133 1139q0 111 79 188.5t196 77.5q121 0 197.5 -73.5t76.5 -190.5q0 -115 -79 -191t-195 -76q-123 0 -199 74t-76 191zM227 1139q0 -81 51.5 -131t131.5 -50q77 0 127.5 50t50.5 133q0 78 -51 129t-129 51q-79 0 -130 -52t-51 -130z" />
<glyph unicode="&#xb1;" d="M154 0v109h903v-109h-903zM154 709v110h395v402h115v-402h393v-110h-393v-402h-115v402h-395z" />
<glyph unicode="&#xb2;" horiz-adv-x="868" d="M152 1311q32 48 100 88.5t162 40.5q120 0 188 -59.5t68 -155.5q0 -43 -16.5 -81.5t-48 -72.5t-66 -60.5t-82.5 -56.5q-93 -61 -120 -86q-63 -60 -63 -139h408v-90h-516v39q0 116 51 189.5t184 156.5q82 50 120 93t38 104t-39 95t-112 34q-108 0 -195 -97z" />
<glyph unicode="&#xb3;" horiz-adv-x="868" d="M158 1346q42 38 111 66t153 28q130 0 191 -58t61 -145q0 -130 -127 -188q147 -48 147 -195q0 -106 -81 -168.5t-230 -62.5q-116 0 -219 30l18 86q86 -28 189 -28q215 0 215 145q0 141 -185 141h-114v86h110q81 0 127.5 40.5t46.5 109.5q0 59 -42 89t-117 30 q-112 0 -207 -72z" />
<glyph unicode="&#xb4;" horiz-adv-x="1052" d="M272 1292l451 242l57 -115l-465 -215z" />
<glyph unicode="&#xb5;" horiz-adv-x="1155" d="M166 -451v1467h121v-645q0 -148 67.5 -216.5t184.5 -68.5q102 0 178.5 60t114.5 153.5t38 204.5v512h121v-1016h-112l-5 197q-14 -29 -33.5 -57t-50.5 -59t-67.5 -53.5t-87.5 -37.5t-107 -15q-80 0 -145 35t-98 82v-543h-119z" />
<glyph unicode="&#xb6;" horiz-adv-x="1161" d="M109 1059q0 167 104 274t279 107h471v-1719h-119v1604h-240v-1604h-121v957q-178 0 -276 104t-98 277z" />
<glyph unicode="&#xb7;" horiz-adv-x="514" d="M158 709q0 49 28.5 79.5t71.5 30.5q44 0 72 -30t28 -80q0 -48 -29 -77.5t-73 -29.5q-43 0 -70.5 29t-27.5 78z" />
<glyph unicode="&#xb8;" horiz-adv-x="1034" d="M291 -457l22 82q87 -26 154 -26q76 0 117 29t41 85q0 101 -152 101q-21 0 -61 -7l41 193h100l-21 -100q100 -7 151.5 -56t51.5 -129q0 -96 -69.5 -150t-182.5 -54q-117 0 -192 32z" />
<glyph unicode="&#xb9;" horiz-adv-x="868" d="M172 1262l266 163h90v-786h-104v668l-209 -123z" />
<glyph unicode="&#xba;" horiz-adv-x="780" d="M96 1147q0 142 81 234t212 92q138 0 216.5 -90t78.5 -236q0 -144 -80 -234t-215 -90q-139 0 -216 87.5t-77 236.5zM106 639v82h570v-82h-570zM195 1147q0 -242 194 -242q98 0 147.5 62t49.5 180t-50 181t-147 63q-92 0 -143 -63.5t-51 -180.5z" />
<glyph unicode="&#xbb;" horiz-adv-x="960" d="M117 117l227 395l-227 395h123l235 -395l-235 -395h-123zM485 117l228 395l-228 395h123l236 -395l-236 -395h-123z" />
<glyph unicode="&#xbc;" horiz-adv-x="1875" d="M174 1262l266 163h90v-786h-104v668l-209 -123zM473 0l764 1413h125l-764 -1413h-125zM1120 172v59l326 557h108l-309 -528h242v203h92v-203h131v-88h-131v-170h-92v170h-367z" />
<glyph unicode="&#xbd;" horiz-adv-x="1875" d="M172 1262l266 163h90v-786h-104v668l-209 -123zM469 0l764 1413h125l-764 -1413h-125zM1165 674q32 48 100 88.5t162 40.5q120 0 188 -59.5t68 -155.5q0 -43 -16.5 -81.5t-48 -72.5t-66 -60.5t-82.5 -56.5q-93 -61 -120 -87q-62 -59 -62 -138h408v-90h-516v39 q0 116 51 189.5t184 156.5q82 50 120 93t38 104t-39.5 95t-112.5 34q-107 0 -194 -97z" />
<glyph unicode="&#xbe;" horiz-adv-x="1875" d="M188 1346q41 38 111 66t154 28q130 0 191 -58t61 -145q0 -130 -127 -188q147 -48 147 -195q0 -106 -81 -168.5t-230 -62.5q-116 0 -219 30l18 86q86 -28 188 -28q215 0 215 145q0 141 -184 141h-115v86h111q81 0 127.5 40.5t46.5 109.5q0 59 -42.5 89t-117.5 30 q-111 0 -206 -72zM545 0l764 1413h125l-764 -1413h-125zM1182 172v59l325 557h109l-309 -528h241v203h92v-203h132v-88h-132v-170h-92v170h-366z" />
<glyph unicode="&#xbf;" horiz-adv-x="1081" d="M133 -68q0 64 16.5 120t48 102t60 76.5t70.5 68.5q51 43 79 71.5t57 71t41.5 93.5t12.5 118h117q0 -78 -11 -134.5t-40.5 -107t-66.5 -90.5t-103 -98q-29 -27 -51 -50t-49 -60t-41.5 -80.5t-14.5 -89.5q0 -127 74 -199t219 -72q219 0 364 178l74 -75q-30 -39 -68 -73 t-93.5 -68t-130.5 -54t-160 -20q-195 0 -299.5 105.5t-104.5 266.5zM469 942q0 49 28.5 79t71.5 30t72 -30t29 -79t-28.5 -78.5t-72.5 -29.5t-72 29t-28 79z" />
<glyph unicode="&#xc0;" horiz-adv-x="1185" d="M39 0l481 1440h144l483 -1440h-133l-131 401h-592l-129 -401h-123zM317 1763l54 119l465 -229l-41 -90zM326 514h520l-258 778z" />
<glyph unicode="&#xc1;" horiz-adv-x="1185" d="M39 0l481 1440h144l483 -1440h-133l-131 401h-592l-129 -401h-123zM326 514h520l-258 778zM330 1653l465 229l53 -119l-477 -200z" />
<glyph unicode="&#xc2;" horiz-adv-x="1185" d="M39 0l481 1440h144l483 -1440h-133l-131 401h-592l-129 -401h-123zM240 1630l290 252h115l291 -252l-68 -69l-280 198l-281 -198zM326 514h520l-258 778z" />
<glyph unicode="&#xc3;" horiz-adv-x="1185" d="M39 0l481 1440h144l483 -1440h-133l-131 401h-592l-129 -401h-123zM231 1587q0 111 51.5 169.5t153.5 58.5q47 0 91.5 -19t73.5 -41.5t66.5 -41.5t71.5 -19q97 0 97 118h108q0 -114 -53.5 -170.5t-153.5 -56.5q-45 0 -88.5 18.5t-72.5 41t-66 41t-70 18.5 q-100 0 -100 -117h-109zM326 514h520l-258 778z" />
<glyph unicode="&#xc4;" horiz-adv-x="1185" d="M39 0l481 1440h144l483 -1440h-133l-131 401h-592l-129 -401h-123zM285 1708q0 48 28 77.5t70 29.5q43 0 70.5 -29t27.5 -78q0 -47 -27.5 -76.5t-70.5 -29.5q-42 0 -70 29.5t-28 76.5zM326 514h520l-258 778zM690 1708q0 48 28 77.5t70 29.5q44 0 72.5 -29t28.5 -78 q0 -47 -29 -76.5t-72 -29.5q-42 0 -70 29.5t-28 76.5z" />
<glyph unicode="&#xc5;" horiz-adv-x="1185" d="M39 0l467 1401q-64 20 -101.5 72.5t-37.5 123.5q0 95 64.5 155t158.5 60q97 0 158 -58.5t61 -154.5q0 -70 -36.5 -121t-98.5 -75l473 -1403h-133l-131 401h-592l-129 -401h-123zM326 514h520l-258 778zM465 1597q0 -56 34 -90t89 -34q57 0 91 32.5t34 91.5t-34.5 93 t-90.5 34q-53 0 -88 -34t-35 -93z" />
<glyph unicode="&#xc6;" horiz-adv-x="1730" d="M35 0l760 1440h852v-119h-664v-512h518v-119h-518v-571h684v-119h-811v416h-469l-217 -416h-135zM449 526h407v789z" />
<glyph unicode="&#xc7;" horiz-adv-x="1275" d="M139 713q0 228 66.5 394t206.5 260.5t344 94.5q79 0 152 -15.5t126 -41t88 -48t62 -46.5l-66 -92q-156 131 -358 131q-234 0 -360 -162.5t-126 -474.5q0 -621 486 -621q209 0 375 127l59 -92q-75 -66 -189.5 -108t-252.5 -42h-7l-16 -77q99 -7 151 -57.5t52 -127.5 q0 -97 -68.5 -150.5t-183.5 -53.5q-118 0 -193 32l21 88q87 -26 156 -26q149 0 149 106q0 96 -141 96q-47 0 -70 -6l39 185q-502 60 -502 727z" />
<glyph unicode="&#xc8;" horiz-adv-x="1069" d="M188 0v1440h795v-119h-666v-512h521v-119h-521v-571h687v-119h-816zM328 1763l53 119l465 -229l-41 -90z" />
<glyph unicode="&#xc9;" horiz-adv-x="1069" d="M188 0v1440h795v-119h-666v-512h521v-119h-521v-571h687v-119h-816zM350 1653l465 229l53 -119l-477 -200z" />
<glyph unicode="&#xca;" horiz-adv-x="1069" d="M188 0v1440h795v-119h-666v-512h521v-119h-521v-571h687v-119h-816zM256 1630l291 252h115l290 -252l-67 -69l-281 198l-280 -198z" />
<glyph unicode="&#xcb;" horiz-adv-x="1069" d="M188 0v1440h795v-119h-666v-512h521v-119h-521v-571h687v-119h-816zM289 1708q0 48 28 77.5t70 29.5q43 0 70.5 -29t27.5 -78q0 -47 -27.5 -76.5t-70.5 -29.5q-42 0 -70 29.5t-28 76.5zM694 1708q0 48 28.5 77.5t70.5 29.5q44 0 72 -29t28 -78q0 -47 -28.5 -76.5 t-71.5 -29.5q-42 0 -70.5 29.5t-28.5 76.5z" />
<glyph unicode="&#xcc;" horiz-adv-x="505" d="M4 1763l53 119l465 -229l-41 -90zM188 0v1440h129v-1440h-129z" />
<glyph unicode="&#xcd;" horiz-adv-x="505" d="M-4 1653l465 229l53 -119l-477 -200zM188 0v1440h129v-1440h-129z" />
<glyph unicode="&#xce;" horiz-adv-x="505" d="M-94 1630l291 252h114l291 -252l-67 -69l-281 198l-281 -198zM188 0v1440h129v-1440h-129z" />
<glyph unicode="&#xcf;" horiz-adv-x="505" d="M-47 1708q0 48 28 77.5t70 29.5q43 0 71 -29t28 -78q0 -47 -28 -76.5t-71 -29.5q-42 0 -70 29.5t-28 76.5zM188 0v1440h129v-1440h-129zM358 1708q0 48 28.5 77.5t70.5 29.5q44 0 72 -29t28 -78q0 -47 -28.5 -76.5t-71.5 -29.5q-42 0 -70.5 29.5t-28.5 76.5z" />
<glyph unicode="&#xd0;" horiz-adv-x="1411" d="M45 678v110h158v652h428q312 0 476.5 -187.5t164.5 -533.5q0 -344 -171 -531.5t-470 -187.5h-428v678h-158zM332 119h299q238 0 372 155t134 447q0 301 -133 450.5t-373 149.5h-299v-533h332v-110h-332v-559z" />
<glyph unicode="&#xd1;" horiz-adv-x="1351" d="M188 0v1440h136l714 -1221v1221h125v-1440h-125l-725 1227v-1227h-125zM328 1587q0 111 51 169.5t153 58.5q47 0 91.5 -19t73.5 -41.5t67 -41.5t72 -19q96 0 96 118h108q0 -114 -53 -170.5t-153 -56.5q-45 0 -88.5 18.5t-72.5 41t-66 41t-70 18.5q-101 0 -101 -117h-108z " />
<glyph unicode="&#xd2;" horiz-adv-x="1503" d="M141 721q0 343 161 546t452 203q193 0 331 -94t207.5 -261.5t69.5 -393.5t-69.5 -394t-208 -263t-332.5 -95t-333 95t-208.5 263t-69.5 394zM276 721q0 -294 120.5 -462.5t355.5 -168.5t355 168t120 463q0 294 -120 461.5t-355 167.5t-355.5 -167.5t-120.5 -461.5z M516 1763l53 119l465 -229l-41 -90z" />
<glyph unicode="&#xd3;" horiz-adv-x="1503" d="M141 721q0 343 161 546t452 203q193 0 331 -94t207.5 -261.5t69.5 -393.5t-69.5 -394t-208 -263t-332.5 -95t-333 95t-208.5 263t-69.5 394zM276 721q0 -294 120.5 -462.5t355.5 -168.5t355 168t120 463q0 294 -120 461.5t-355 167.5t-355.5 -167.5t-120.5 -461.5z M500 1653l465 229l53 -119l-477 -200z" />
<glyph unicode="&#xd4;" horiz-adv-x="1503" d="M141 721q0 343 161 546t452 203q193 0 331 -94t207.5 -261.5t69.5 -393.5t-69.5 -394t-208 -263t-332.5 -95t-333 95t-208.5 263t-69.5 394zM276 721q0 -294 120.5 -462.5t355.5 -168.5t355 168t120 463q0 294 -120 461.5t-355 167.5t-355.5 -167.5t-120.5 -461.5z M416 1630l291 252h114l291 -252l-68 -69l-280 198l-281 -198z" />
<glyph unicode="&#xd5;" horiz-adv-x="1503" d="M141 721q0 343 161 546t452 203q193 0 331 -94t207.5 -261.5t69.5 -393.5t-69.5 -394t-208 -263t-332.5 -95t-333 95t-208.5 263t-69.5 394zM276 721q0 -294 120.5 -462.5t355.5 -168.5t355 168t120 463q0 294 -120 461.5t-355 167.5t-355.5 -167.5t-120.5 -461.5z M412 1587q0 111 51 169.5t153 58.5q47 0 91.5 -19t73.5 -41.5t67 -41.5t72 -19q96 0 96 118h108q0 -114 -53 -170.5t-153 -56.5q-45 0 -88.5 18.5t-72.5 41t-66 41t-70 18.5q-101 0 -101 -117h-108z" />
<glyph unicode="&#xd6;" horiz-adv-x="1503" d="M141 721q0 343 161 546t452 203q193 0 331 -94t207.5 -261.5t69.5 -393.5t-69.5 -394t-208 -263t-332.5 -95t-333 95t-208.5 263t-69.5 394zM276 721q0 -294 120.5 -462.5t355.5 -168.5t355 168t120 463q0 294 -120 461.5t-355 167.5t-355.5 -167.5t-120.5 -461.5z M461 1708q0 48 28 77.5t70 29.5q43 0 70.5 -29t27.5 -78q0 -47 -27.5 -76.5t-70.5 -29.5q-42 0 -70 29.5t-28 76.5zM866 1708q0 48 28.5 77.5t70.5 29.5q44 0 72 -29t28 -78q0 -47 -28.5 -76.5t-71.5 -29.5q-42 0 -70.5 29.5t-28.5 76.5z" />
<glyph unicode="&#xd7;" d="M231 1018l80 74l295 -324l295 319l80 -71l-303 -322l297 -317l-78 -72l-293 316l-293 -314l-78 72l297 317z" />
<glyph unicode="&#xd8;" horiz-adv-x="1503" d="M141 721q0 343 160 546t451 203q203 0 350 -110l112 176l91 -55l-123 -191q180 -195 180 -569q0 -226 -69.5 -394t-208 -263t-332.5 -95q-206 0 -351 109l-102 -162l-90 57l113 177q-181 196 -181 571zM276 721q0 -297 119 -459l641 993q-119 95 -284 95 q-235 0 -355.5 -167.5t-120.5 -461.5zM471 182q112 -92 281 -92q235 0 355 168t120 463q0 290 -119 455z" />
<glyph unicode="&#xd9;" horiz-adv-x="1339" d="M168 565v875h129v-846q0 -193 41.5 -305t120.5 -157.5t211 -45.5q130 0 209 45.5t121 157.5t42 303v848h129v-877q0 -110 -14.5 -197t-50 -163.5t-92.5 -127t-145 -79.5t-203 -29t-202 29t-142.5 80t-90.5 128t-49 164t-14 197zM408 1763l53 119l465 -229l-41 -90z" />
<glyph unicode="&#xda;" horiz-adv-x="1339" d="M168 565v875h129v-846q0 -193 41.5 -305t120.5 -157.5t211 -45.5q130 0 209 45.5t121 157.5t42 303v848h129v-877q0 -110 -14.5 -197t-50 -163.5t-92.5 -127t-145 -79.5t-203 -29t-202 29t-142.5 80t-90.5 128t-49 164t-14 197zM459 1653l465 229l53 -119l-477 -200z" />
<glyph unicode="&#xdb;" horiz-adv-x="1339" d="M168 565v875h129v-846q0 -193 41.5 -305t120.5 -157.5t211 -45.5q130 0 209 45.5t121 157.5t42 303v848h129v-877q0 -110 -14.5 -197t-50 -163.5t-92.5 -127t-145 -79.5t-203 -29t-202 29t-142.5 80t-90.5 128t-49 164t-14 197zM342 1630l291 252h115l290 -252l-67 -69 l-281 198l-280 -198z" />
<glyph unicode="&#xdc;" horiz-adv-x="1339" d="M168 565v875h129v-846q0 -193 41.5 -305t120.5 -157.5t211 -45.5q130 0 209 45.5t121 157.5t42 303v848h129v-877q0 -110 -14.5 -197t-50 -163.5t-92.5 -127t-145 -79.5t-203 -29t-202 29t-142.5 80t-90.5 128t-49 164t-14 197zM381 1708q0 48 28 77.5t70 29.5 q43 0 71 -29t28 -78q0 -47 -28 -76.5t-71 -29.5q-42 0 -70 29.5t-28 76.5zM786 1708q0 48 28.5 77.5t70.5 29.5q44 0 72 -29t28 -78q0 -47 -28.5 -76.5t-71.5 -29.5q-42 0 -70.5 29.5t-28.5 76.5z" />
<glyph unicode="&#xdd;" horiz-adv-x="1114" d="M35 1440h147l375 -688l383 688h139l-463 -807v-633h-129v629zM369 1653l465 229l53 -119l-477 -200z" />
<glyph unicode="&#xde;" horiz-adv-x="1150" d="M188 0v1440h127v-269h277q210 0 332.5 -116.5t122.5 -321.5q0 -198 -125.5 -318t-337.5 -120h-269v-295h-127zM315 410h260q166 0 254.5 84t88.5 239q0 163 -85.5 243.5t-248.5 80.5h-269v-647z" />
<glyph unicode="&#xdf;" horiz-adv-x="1241" d="M166 0v1042q0 508 418 508q184 0 284.5 -88t100.5 -225q0 -80 -32 -139.5t-95 -124.5q-8 -8 -28 -27.5t-28 -28t-23.5 -25t-22 -27.5t-15 -26t-11.5 -29.5t-3 -29.5q0 -20 8 -38t17.5 -30t31.5 -26.5t36.5 -22.5t47 -24t49.5 -25q88 -47 137 -86.5t78 -98t29 -138.5 q0 -136 -93.5 -227t-263.5 -91q-82 0 -165 22t-117 48l37 92q111 -57 243 -57q115 0 176.5 57t61.5 156q0 81 -46.5 133t-164.5 108q-130 63 -176.5 111.5t-46.5 128.5q0 67 35.5 120.5t103.5 117.5q30 30 46.5 48.5t36.5 47t29 59t9 64.5q0 103 -73 159t-195 56 q-159 0 -226 -102t-67 -308v-1034h-123z" />
<glyph unicode="&#xe0;" horiz-adv-x="1060" d="M104 281q0 153 97 243t282 90q96 0 297 -28v100q0 130 -74 189t-219 59q-151 0 -280 -70l-39 90q141 86 350 86q182 0 279.5 -86.5t97.5 -257.5v-696h-109l-4 156q-108 -181 -364 -181q-45 0 -87.5 9.5t-84.5 32t-73 56.5t-50 87.5t-19 120.5zM221 283q0 -103 66 -156 t178 -53q126 0 220.5 84t94.5 188v146q-38 9 -122.5 18.5t-163.5 9.5q-146 0 -209.5 -60.5t-63.5 -176.5zM276 1419l58 115l450 -242l-45 -88z" />
<glyph unicode="&#xe1;" horiz-adv-x="1060" d="M104 281q0 153 97 243t282 90q96 0 297 -28v100q0 130 -74 189t-219 59q-151 0 -280 -70l-39 90q141 86 350 86q182 0 279.5 -86.5t97.5 -257.5v-696h-109l-4 156q-108 -181 -364 -181q-45 0 -87.5 9.5t-84.5 32t-73 56.5t-50 87.5t-19 120.5zM221 283q0 -103 66 -156 t178 -53q126 0 220.5 84t94.5 188v146q-38 9 -122.5 18.5t-163.5 9.5q-146 0 -209.5 -60.5t-63.5 -176.5zM272 1292l451 242l57 -115l-465 -215z" />
<glyph unicode="&#xe2;" horiz-adv-x="1060" d="M104 281q0 153 97 243t282 90q96 0 297 -28v100q0 130 -74 189t-219 59q-151 0 -280 -70l-39 90q141 86 350 86q182 0 279.5 -86.5t97.5 -257.5v-696h-109l-4 156q-108 -181 -364 -181q-45 0 -87.5 9.5t-84.5 32t-73 56.5t-50 87.5t-19 120.5zM205 1253l276 258h103 l276 -258l-69 -65l-259 201l-258 -201zM221 283q0 -103 66 -156t178 -53q126 0 220.5 84t94.5 188v146q-38 9 -122.5 18.5t-163.5 9.5q-146 0 -209.5 -60.5t-63.5 -176.5z" />
<glyph unicode="&#xe3;" horiz-adv-x="1060" d="M104 281q0 153 97 243t282 90q96 0 297 -28v100q0 130 -74 189t-219 59q-151 0 -280 -70l-39 90q141 86 350 86q182 0 279.5 -86.5t97.5 -257.5v-696h-109l-4 156q-108 -181 -364 -181q-45 0 -87.5 9.5t-84.5 32t-73 56.5t-50 87.5t-19 120.5zM176 1194q0 107 51 167 t148 60q46 0 89 -19t70 -41.5t63.5 -41.5t70.5 -19q92 0 92 119h108q0 -111 -51 -169t-149 -58q-43 0 -86 18.5t-71 41t-64 41t-68 18.5q-94 0 -94 -117h-109zM221 283q0 -103 66 -156t178 -53q126 0 220.5 84t94.5 188v146q-38 9 -122.5 18.5t-163.5 9.5 q-146 0 -209.5 -60.5t-63.5 -176.5z" />
<glyph unicode="&#xe4;" horiz-adv-x="1060" d="M104 281q0 153 97 243t282 90q96 0 297 -28v100q0 130 -74 189t-219 59q-151 0 -280 -70l-39 90q141 86 350 86q182 0 279.5 -86.5t97.5 -257.5v-696h-109l-4 156q-108 -181 -364 -181q-45 0 -87.5 9.5t-84.5 32t-73 56.5t-50 87.5t-19 120.5zM221 283q0 -103 66 -156 t178 -53q126 0 220.5 84t94.5 188v146q-38 9 -122.5 18.5t-163.5 9.5q-146 0 -209.5 -60.5t-63.5 -176.5zM229 1311q0 46 27.5 74t69.5 28t68 -27.5t26 -74.5t-26 -75t-68 -28t-69.5 28.5t-27.5 74.5zM639 1311q0 47 26 74.5t68 27.5t69 -28t27 -74q0 -47 -27 -75t-69 -28 t-68 28t-26 75z" />
<glyph unicode="&#xe5;" horiz-adv-x="1060" d="M104 281q0 153 97 243t282 90q96 0 297 -28v100q0 130 -74 189t-219 59q-151 0 -280 -70l-39 90q141 86 350 86q182 0 279.5 -86.5t97.5 -257.5v-696h-109l-4 156q-108 -181 -364 -181q-45 0 -87.5 9.5t-84.5 32t-73 56.5t-50 87.5t-19 120.5zM221 283q0 -103 66 -156 t178 -53q126 0 220.5 84t94.5 188v146q-38 9 -122.5 18.5t-163.5 9.5q-146 0 -209.5 -60.5t-63.5 -176.5zM315 1378q0 96 62.5 153.5t157.5 57.5q97 0 156 -56.5t59 -152.5q0 -97 -60 -154t-155 -57q-98 0 -159 56.5t-61 152.5zM410 1378q0 -59 33.5 -93t88.5 -34 q56 0 90.5 34t34.5 93t-34.5 93t-90.5 34q-53 0 -87.5 -33.5t-34.5 -93.5z" />
<glyph unicode="&#xe6;" horiz-adv-x="1765" d="M104 281q0 159 101.5 244t288.5 85q149 0 284 -24v96q0 120 -76 186t-208 66q-165 0 -287 -70l-39 90q42 33 132.5 59.5t223.5 26.5q239 0 340 -200q137 202 355 202q423 0 423 -532v-35h-745q8 -181 98.5 -284t276.5 -103q45 0 83.5 3.5t69.5 11.5t48 13.5t41.5 15.5 t27.5 11l35 -94q-37 -26 -116 -49t-201 -23q-295 0 -414 238q-19 -41 -47 -77.5t-75.5 -76t-122 -63t-167.5 -23.5q-151 0 -240.5 80.5t-89.5 225.5zM221 281q0 -99 64 -153t180 -54q134 0 223.5 76.5t89.5 187.5v149q-40 8 -128.5 19.5t-155.5 11.5q-141 0 -207 -56.5 t-66 -180.5zM899 573h621q-11 181 -83 271t-218 90q-145 0 -227 -96t-93 -265z" />
<glyph unicode="&#xe7;" horiz-adv-x="962" d="M127 508q0 240 123.5 387t333.5 147q177 0 305 -98l-55 -90q-37 22 -56.5 32.5t-75.5 27t-112 16.5q-154 0 -246 -106.5t-92 -313.5q0 -210 91.5 -315t246.5 -105q138 0 250 57l45 -90q-101 -80 -303 -80h-2l-17 -77q100 -7 151.5 -56t51.5 -129q0 -96 -69.5 -150 t-182.5 -54q-117 0 -192 32l22 82q87 -26 154 -26q157 0 157 114q0 101 -151 101q-22 0 -62 -7l37 181q-170 29 -261 163t-91 357z" />
<glyph unicode="&#xe8;" horiz-adv-x="1116" d="M127 508q0 245 119 389.5t327 144.5q204 0 312 -130.5t108 -415.5v-21h-745q22 -387 381 -387q142 0 264 55l35 -94q-40 -26 -123.5 -49t-188.5 -23q-244 0 -366.5 137t-122.5 394zM250 573h622q-12 179 -84 270t-217 91q-149 0 -226 -91.5t-95 -269.5zM348 1419l58 115 l450 -242l-45 -88z" />
<glyph unicode="&#xe9;" horiz-adv-x="1116" d="M127 508q0 245 119 389.5t327 144.5q204 0 312 -130.5t108 -415.5v-21h-745q22 -387 381 -387q142 0 264 55l35 -94q-40 -26 -123.5 -49t-188.5 -23q-244 0 -366.5 137t-122.5 394zM250 573h622q-12 179 -84 270t-217 91q-149 0 -226 -91.5t-95 -269.5zM326 1292l450 242 l58 -115l-465 -215z" />
<glyph unicode="&#xea;" horiz-adv-x="1116" d="M127 508q0 245 119 389.5t327 144.5q204 0 312 -130.5t108 -415.5v-21h-745q22 -387 381 -387q142 0 264 55l35 -94q-40 -26 -123.5 -49t-188.5 -23q-244 0 -366.5 137t-122.5 394zM250 573h622q-12 179 -84 270t-217 91q-149 0 -226 -91.5t-95 -269.5zM256 1253l276 258 h103l276 -258l-69 -65l-258 201l-258 -201z" />
<glyph unicode="&#xeb;" horiz-adv-x="1116" d="M127 508q0 245 119 389.5t327 144.5q204 0 312 -130.5t108 -415.5v-21h-745q22 -387 381 -387q142 0 264 55l35 -94q-40 -26 -123.5 -49t-188.5 -23q-244 0 -366.5 137t-122.5 394zM250 573h622q-12 179 -84 270t-217 91q-149 0 -226 -91.5t-95 -269.5zM283 1311 q0 46 27 74t69 28t68 -27.5t26 -74.5t-26 -75t-68 -28t-69 28t-27 75zM692 1311q0 47 26 74.5t68 27.5t69.5 -28t27.5 -74t-27.5 -74.5t-69.5 -28.5t-68 28t-26 75z" />
<glyph unicode="&#xec;" horiz-adv-x="468" d="M-16 1419l57 115l451 -242l-46 -88zM172 0v1016h123v-1016h-123z" />
<glyph unicode="&#xed;" horiz-adv-x="468" d="M0 1292l451 242l57 -115l-465 -215zM172 0v1016h123v-1016h-123z" />
<glyph unicode="&#xee;" horiz-adv-x="468" d="M-84 1253l277 258h102l276 -258l-69 -65l-258 201l-258 -201zM172 0v1016h123v-1016h-123z" />
<glyph unicode="&#xef;" horiz-adv-x="468" d="M-68 1311q0 46 27.5 74t69.5 28t68 -27.5t26 -74.5t-26 -75t-68 -28t-69.5 28.5t-27.5 74.5zM172 0v1016h123v-1016h-123zM342 1311q0 47 26 74.5t68 27.5t69 -28t27 -74q0 -47 -27 -75t-69 -28t-68 28t-26 75z" />
<glyph unicode="&#xf0;" horiz-adv-x="1153" d="M131 471q0 218 119.5 347.5t304.5 129.5q119 0 199.5 -43t140.5 -129q-11 170 -73 295.5t-183 222.5l-213 -178l-64 72l199 162q-100 66 -250 118l33 97q188 -63 303 -146l182 152l62 -74l-166 -131q309 -252 309 -741q0 -652 -454 -652q-223 0 -336 130.5t-113 367.5z M254 469q0 -385 326 -385q158 0 237.5 101.5t79.5 295.5q0 159 -87 259t-239 100q-157 0 -237 -99.5t-80 -271.5z" />
<glyph unicode="&#xf1;" horiz-adv-x="1150" d="M166 0v1016h113l4 -201q50 102 142.5 164.5t215.5 62.5q352 0 352 -378v-664h-121v647q0 285 -254 285q-75 0 -138.5 -35.5t-105 -93.5t-64.5 -131t-23 -150v-522h-121zM240 1194q0 107 50.5 167t147.5 60q46 0 89 -19t70 -41.5t63.5 -41.5t70.5 -19q92 0 92 119h109 q0 -110 -51.5 -168.5t-149.5 -58.5q-43 0 -86 18.5t-71 41t-64 41t-68 18.5q-94 0 -94 -117h-108z" />
<glyph unicode="&#xf2;" horiz-adv-x="1189" d="M127 510q0 238 122.5 385t344.5 147q225 0 346 -146t121 -386q0 -241 -122.5 -387t-344.5 -146q-224 0 -345.5 145.5t-121.5 387.5zM252 510q0 -200 86 -311t256 -111q173 0 258.5 110.5t85.5 311.5q0 196 -87.5 309t-256.5 113q-168 0 -255 -113t-87 -309zM367 1419 l57 115l450 -242l-45 -88z" />
<glyph unicode="&#xf3;" horiz-adv-x="1189" d="M127 510q0 238 122.5 385t344.5 147q225 0 346 -146t121 -386q0 -241 -122.5 -387t-344.5 -146q-224 0 -345.5 145.5t-121.5 387.5zM252 510q0 -200 86 -311t256 -111q173 0 258.5 110.5t85.5 311.5q0 196 -87.5 309t-256.5 113q-168 0 -255 -113t-87 -309zM346 1292 l451 242l57 -115l-465 -215z" />
<glyph unicode="&#xf4;" horiz-adv-x="1189" d="M127 510q0 238 122.5 385t344.5 147q225 0 346 -146t121 -386q0 -241 -122.5 -387t-344.5 -146q-224 0 -345.5 145.5t-121.5 387.5zM252 510q0 -200 86 -311t256 -111q173 0 258.5 110.5t85.5 311.5q0 196 -87.5 309t-256.5 113q-168 0 -255 -113t-87 -309zM283 1253 l276 258h103l276 -258l-70 -65l-258 201l-258 -201z" />
<glyph unicode="&#xf5;" horiz-adv-x="1189" d="M127 510q0 238 122.5 385t344.5 147q225 0 346 -146t121 -386q0 -241 -122.5 -387t-344.5 -146q-224 0 -345.5 145.5t-121.5 387.5zM252 510q0 -200 86 -311t256 -111q173 0 258.5 110.5t85.5 311.5q0 196 -87.5 309t-256.5 113q-168 0 -255 -113t-87 -309zM256 1194 q0 107 51 167t148 60q46 0 89 -19t70 -41.5t63.5 -41.5t70.5 -19q92 0 92 119h108q0 -111 -51 -169t-149 -58q-43 0 -86 18.5t-71 41t-64 41t-68 18.5q-94 0 -94 -117h-109z" />
<glyph unicode="&#xf6;" horiz-adv-x="1189" d="M127 510q0 238 122.5 385t344.5 147q225 0 346 -146t121 -386q0 -241 -122.5 -387t-344.5 -146q-224 0 -345.5 145.5t-121.5 387.5zM252 510q0 -200 86 -311t256 -111q173 0 258.5 110.5t85.5 311.5q0 196 -87.5 309t-256.5 113q-168 0 -255 -113t-87 -309zM303 1311 q0 46 27 74t69 28t68.5 -27.5t26.5 -74.5t-26.5 -75t-68.5 -28t-69 28t-27 75zM713 1311q0 47 26 74.5t68 27.5t69 -28t27 -74q0 -47 -27 -75t-69 -28t-68 28t-26 75z" />
<glyph unicode="&#xf7;" d="M174 655v109h864v-109h-864zM506 365q0 47 28.5 76.5t71.5 29.5q42 0 70.5 -29.5t28.5 -76.5t-28.5 -77t-70.5 -30q-43 0 -71.5 30t-28.5 77zM506 1047q0 47 28.5 76.5t71.5 29.5q42 0 70.5 -29.5t28.5 -76.5q0 -44 -29 -75.5t-70 -31.5q-43 0 -71.5 30t-28.5 77z" />
<glyph unicode="&#xf8;" horiz-adv-x="1189" d="M127 510q0 238 122.5 385t344.5 147q157 0 264 -73l94 135l78 -53l-100 -144q131 -143 131 -397q0 -241 -122.5 -387t-344.5 -146q-154 0 -264 72l-88 -127l-80 51l96 138q-131 143 -131 399zM252 510q0 -190 76 -297l463 661q-79 58 -197 58q-168 0 -255 -112.5 t-87 -309.5zM395 143q77 -57 199 -57q167 0 253 108.5t91 303.5q0 66 -8 118q-18 110 -72 189z" />
<glyph unicode="&#xf9;" horiz-adv-x="1157" d="M166 352v664h121v-647q0 -283 252 -283q99 0 176.5 60t116 152t38.5 196v522h121v-1016h-112l-5 197q-112 -222 -368 -222q-167 0 -253.5 95.5t-86.5 281.5zM285 1419l57 115l451 -242l-45 -88z" />
<glyph unicode="&#xfa;" horiz-adv-x="1157" d="M166 352v664h121v-647q0 -283 252 -283q99 0 176.5 60t116 152t38.5 196v522h121v-1016h-112l-5 197q-112 -222 -368 -222q-167 0 -253.5 95.5t-86.5 281.5zM330 1292l450 242l58 -115l-465 -215z" />
<glyph unicode="&#xfb;" horiz-adv-x="1157" d="M166 352v664h121v-647q0 -283 252 -283q99 0 176.5 60t116 152t38.5 196v522h121v-1016h-112l-5 197q-112 -222 -368 -222q-167 0 -253.5 95.5t-86.5 281.5zM238 1253l276 258h102l277 -258l-70 -65l-258 201l-258 -201z" />
<glyph unicode="&#xfc;" horiz-adv-x="1157" d="M166 352v664h121v-647q0 -283 252 -283q99 0 176.5 60t116 152t38.5 196v522h121v-1016h-112l-5 197q-112 -222 -368 -222q-167 0 -253.5 95.5t-86.5 281.5zM256 1311q0 46 27 74t69 28t68 -27.5t26 -74.5t-26 -75t-68 -28t-69 28t-27 75zM666 1311q0 47 26 74.5t68 27.5 t69 -28t27 -74q0 -47 -27 -75t-69 -28t-68 28t-26 75z" />
<glyph unicode="&#xfd;" horiz-adv-x="1003" d="M45 1016h135l324 -830l330 830h124l-612 -1467h-119l211 500zM307 1292l451 242l57 -115l-465 -215z" />
<glyph unicode="&#xfe;" horiz-adv-x="1185" d="M166 -451v1987h121v-715q47 98 139.5 159.5t216.5 61.5q102 0 182 -39.5t131 -110t77 -164.5t26 -206q0 -116 -26 -208.5t-69.5 -153t-102 -100.5t-120 -57t-127.5 -17q-180 0 -327 118v-555h-121zM287 229q48 -48 132.5 -91.5t172.5 -43.5q164 0 253 104.5t89 323.5 q0 121 -32 211.5t-103 144.5t-174 54q-102 0 -181 -63t-118 -159.5t-39 -207.5v-273z" />
<glyph unicode="&#xff;" horiz-adv-x="1003" d="M45 1016h135l324 -830l330 830h124l-612 -1467h-119l211 500zM215 1311q0 46 27 74t69 28t68.5 -27.5t26.5 -74.5t-26.5 -75t-68.5 -28t-69 28t-27 75zM625 1311q0 47 26 74.5t68 27.5t69 -28t27 -74q0 -47 -27 -75t-69 -28t-68 28t-26 75z" />
<glyph unicode="&#x152;" horiz-adv-x="1820" d="M139 715q0 340 164.5 532.5t484.5 192.5h955v-121h-664v-510h518v-119h-518v-569h684v-121h-977q-328 0 -487.5 179t-159.5 536zM272 715q0 -301 126 -447.5t388 -146.5h166v1200h-161q-262 0 -390.5 -151.5t-128.5 -454.5z" />
<glyph unicode="&#x153;" horiz-adv-x="1935" d="M127 510q0 238 122.5 385t344.5 147q294 0 405 -258q56 122 153 190t230 68q422 0 422 -546v-21h-749q22 -387 383 -387q144 0 266 55l33 -94q-37 -26 -121 -49t-189 -23q-319 0 -430 252q-56 -120 -157.5 -186t-245.5 -66q-224 0 -345.5 145.5t-121.5 387.5zM252 510 q0 -200 86 -311t256 -111q173 0 259.5 111t86.5 311q0 196 -88.5 309t-257.5 113q-168 0 -255 -113t-87 -309zM1057 573h624q-11 179 -82.5 270t-216.5 91q-289 0 -325 -361z" />
<glyph unicode="&#x178;" horiz-adv-x="1114" d="M35 1440h147l375 -688l383 688h139l-463 -807v-633h-129v629zM264 1708q0 48 28 77.5t70 29.5q43 0 71 -29t28 -78q0 -47 -28 -76.5t-71 -29.5q-42 0 -70 29.5t-28 76.5zM670 1708q0 48 28 77.5t70 29.5q44 0 72 -29t28 -78q0 -47 -28.5 -76.5t-71.5 -29.5 q-42 0 -70 29.5t-28 76.5z" />
<glyph unicode="&#x2c6;" horiz-adv-x="1034" d="M195 1253l276 258h102l277 -258l-70 -65l-258 201l-258 -201z" />
<glyph unicode="&#x2dc;" horiz-adv-x="1034" d="M162 1194q0 107 50.5 167t147.5 60q46 0 89 -19t70 -41.5t63.5 -41.5t70.5 -19q92 0 92 119h109q0 -110 -51.5 -168.5t-149.5 -58.5q-43 0 -85.5 18.5t-71 41t-64 41t-67.5 18.5q-95 0 -95 -117h-108z" />
<glyph unicode="&#x2000;" horiz-adv-x="941" />
<glyph unicode="&#x2001;" horiz-adv-x="1882" />
<glyph unicode="&#x2002;" horiz-adv-x="941" />
<glyph unicode="&#x2003;" horiz-adv-x="1882" />
<glyph unicode="&#x2004;" horiz-adv-x="627" />
<glyph unicode="&#x2005;" horiz-adv-x="470" />
<glyph unicode="&#x2006;" horiz-adv-x="313" />
<glyph unicode="&#x2007;" horiz-adv-x="313" />
<glyph unicode="&#x2008;" horiz-adv-x="235" />
<glyph unicode="&#x2009;" horiz-adv-x="376" />
<glyph unicode="&#x200a;" horiz-adv-x="104" />
<glyph unicode="&#x2010;" horiz-adv-x="864" d="M137 516v117h588v-117h-588z" />
<glyph unicode="&#x2011;" horiz-adv-x="864" d="M137 516v117h588v-117h-588z" />
<glyph unicode="&#x2012;" horiz-adv-x="864" d="M137 516v117h588v-117h-588z" />
<glyph unicode="&#x2013;" horiz-adv-x="845" d="M0 522v109h846v-109h-846z" />
<glyph unicode="&#x2014;" horiz-adv-x="1691" d="M0 522v109h1692v-109h-1692z" />
<glyph unicode="&#x2018;" horiz-adv-x="505" d="M150 1135q0 87 48 207.5t121 193.5l66 -47q-43 -60 -74.5 -138.5t-36.5 -133.5q33 -8 54.5 -34t21.5 -65q0 -52 -28.5 -81t-71.5 -29q-48 0 -74 34.5t-26 92.5z" />
<glyph unicode="&#x2019;" horiz-adv-x="505" d="M121 1055q43 60 74 138t36 134q-33 8 -54 33.5t-21 64.5q0 52 28.5 81.5t71.5 29.5q48 0 74 -34.5t26 -92.5q0 -87 -48.5 -207.5t-121.5 -193.5z" />
<glyph unicode="&#x201a;" horiz-adv-x="505" d="M125 -272q42 59 71.5 137t34.5 135q-31 8 -53 35.5t-22 62.5q0 52 28.5 83.5t71.5 31.5q47 0 73.5 -34.5t26.5 -94.5q0 -88 -49.5 -207.5t-122.5 -195.5z" />
<glyph unicode="&#x201c;" horiz-adv-x="874" d="M133 1135q0 87 48.5 207.5t121.5 193.5l66 -47q-43 -60 -74.5 -138.5t-36.5 -133.5q33 -8 54.5 -34t21.5 -65q0 -52 -29 -81t-72 -29q-48 0 -74 34.5t-26 92.5zM500 1135q0 87 48.5 207.5t121.5 193.5l65 -47q-43 -60 -74 -138t-36 -134q33 -8 54 -34t21 -65 q0 -52 -28.5 -81t-71.5 -29q-48 0 -74 34.5t-26 92.5z" />
<glyph unicode="&#x201d;" horiz-adv-x="874" d="M139 1055q43 60 74.5 138.5t36.5 133.5q-33 8 -54.5 33.5t-21.5 64.5q0 52 28.5 81.5t71.5 29.5q49 0 75 -34.5t26 -92.5q0 -87 -48.5 -207.5t-121.5 -193.5zM508 1055q43 60 74 138t36 134q-33 8 -54 33.5t-21 64.5q0 52 28.5 81.5t71.5 29.5q48 0 74 -34.5t26 -92.5 q0 -87 -48.5 -207.5t-121.5 -193.5z" />
<glyph unicode="&#x201e;" horiz-adv-x="874" d="M125 -272q42 59 71.5 137t34.5 135q-31 8 -53 35.5t-22 62.5q0 52 28.5 83.5t71.5 31.5q47 0 73.5 -34.5t26.5 -94.5q0 -88 -49.5 -207.5t-122.5 -195.5zM494 -272q42 59 71.5 137t34.5 135q-31 8 -53.5 35.5t-22.5 62.5q0 52 29 83.5t72 31.5q47 0 73.5 -34.5 t26.5 -94.5q0 -88 -49.5 -207.5t-122.5 -195.5z" />
<glyph unicode="&#x2022;" horiz-adv-x="915" d="M178 694q0 117 81.5 198t199.5 81q117 0 197.5 -81t80.5 -198q0 -120 -80.5 -201t-197.5 -81q-119 0 -200 81t-81 201z" />
<glyph unicode="&#x2026;" horiz-adv-x="1669" d="M213 88q0 49 28.5 80t71.5 31q44 0 72.5 -30.5t28.5 -80.5q0 -48 -29.5 -77t-73.5 -29q-43 0 -70.5 28.5t-27.5 77.5zM735 88q0 49 29 80t72 31q44 0 72 -30.5t28 -80.5q0 -48 -29 -77t-73 -29t-71.5 28.5t-27.5 77.5zM1255 88q0 49 29 80t72 31q44 0 72 -30.5t28 -80.5 q0 -48 -29 -77t-73 -29t-71.5 28.5t-27.5 77.5z" />
<glyph unicode="&#x202f;" horiz-adv-x="376" />
<glyph unicode="&#x2039;" horiz-adv-x="591" d="M117 512l235 395h123l-227 -395l227 -395h-123z" />
<glyph unicode="&#x203a;" horiz-adv-x="591" d="M117 117l227 395l-227 395h123l235 -395l-235 -395h-123z" />
<glyph unicode="&#x205f;" horiz-adv-x="470" />
<glyph unicode="&#x20ac;" d="M59 498v104h140q-4 45 -4 113q0 63 4 112h-138v105h152q17 112 55.5 205t102.5 168t163 117t224 42q238 0 395 -141l-61 -90q-27 21 -49.5 36t-65 37t-98 34t-117.5 12q-101 0 -180 -35.5t-127.5 -97t-76 -133t-36.5 -154.5h590l-33 -105h-569q-2 -63 -2 -112 q0 -50 2 -113h526l-31 -104h-483q9 -84 35.5 -154.5t73 -129.5t123 -92.5t176.5 -33.5q212 0 342 119l61 -88q-148 -144 -408 -144q-243 0 -374 136.5t-162 386.5h-150z" />
<glyph unicode="&#x2122;" horiz-adv-x="1732" d="M78 1346v94h614v-94h-256v-691h-104v691h-254zM858 655v785h111l256 -445l260 445h106v-785h-100v625l-229 -387h-84l-220 379v-617h-100z" />
<glyph unicode="&#xe000;" horiz-adv-x="1013" d="M0 0v1014h1014v-1014h-1014z" />
</font>
</defs>
</svg>
