<?xml version="1.0" encoding="utf-8"?>
<!-- Generator: Adobe Illustrator 16.0.0, SVG Export Plug-In . SVG Version: 6.00 Build 0)  -->
<!DOCTYPE svg PUBLIC "-//W3C//DTD SVG 1.1//EN" "http://www.w3.org/Graphics/SVG/1.1/DTD/svg11.dtd">
<svg version="1.1" id="Layer_1" xmlns="http://www.w3.org/2000/svg" xmlns:xlink="http://www.w3.org/1999/xlink" x="0px" y="0px"
	 width="66px" height="136px" viewBox="0 0 66 136" enable-background="new 0 0 66 136" xml:space="preserve">
<g>
	<g>
		<rect x="1" y="3.735" fill="none" stroke="#231F20" stroke-miterlimit="3.864" width="64" height="126.241"/>
		<linearGradient id="SVGID_1_" gradientUnits="userSpaceOnUse" x1="54.2344" y1="125.9863" x2="11.9757" y2="8.3121">
			<stop  offset="0" style="stop-color:#09A2DB"/>
			<stop  offset="1" style="stop-color:#00589A"/>
		</linearGradient>
		<rect x="1.856" y="4.764" fill="url(#SVGID_1_)" width="62.287" height="124.186"/>
		<path fill="none" stroke="#CDDBE2" stroke-miterlimit="3.864" d="M53.761,97.961h10.383v10.368H53.761V97.961z M43.381,97.961
			h10.38v10.368h-10.38V97.961z M33.001,97.961h10.38v10.368h-10.38V97.961z M22.618,97.961h10.383v10.368H22.618V97.961z
			 M12.238,97.961h10.38v10.368h-10.38V97.961z M1.856,97.961h10.382v10.368H1.856V97.961z M53.761,108.329h10.383v10.368H53.761
			V108.329z M43.381,108.329h10.38v10.368h-10.38V108.329z M33.001,108.329h10.38v10.368h-10.38V108.329z M22.618,108.329h10.383
			v10.368H22.618V108.329z M12.238,108.329h10.38v10.368h-10.38V108.329z M1.856,108.329h10.382v10.368H1.856V108.329z
			 M53.761,118.697h10.383v10.367H53.761V118.697z M43.381,118.697h10.38v10.367h-10.38V118.697z M33.001,118.697h10.38v10.367
			h-10.38V118.697z M22.618,118.697h10.383v10.367H22.618V118.697z M12.238,118.697h10.38v10.367h-10.38V118.697z M1.856,118.697
			h10.382v10.367H1.856V118.697z M1.856,4.647h10.382v10.368H1.856V4.647z M53.761,87.593h10.383v10.368H53.761V87.593z
			 M43.381,87.593h10.38v10.368h-10.38V87.593z M33.001,87.593h10.38v10.368h-10.38V87.593z M22.618,87.593h10.383v10.368H22.618
			V87.593z M12.238,87.593h10.38v10.368h-10.38V87.593z M1.856,87.593h10.382v10.368H1.856V87.593z M53.761,77.224h10.383v10.369
			H53.761V77.224z M43.381,77.224h10.38v10.369h-10.38V77.224z M33.001,77.224h10.38v10.369h-10.38V77.224z M22.618,77.224h10.383
			v10.369H22.618V77.224z M12.238,77.224h10.38v10.369h-10.38V77.224z M1.856,77.224h10.382v10.369H1.856V77.224z M53.761,66.856
			h10.383v10.367H53.761V66.856z M43.381,66.856h10.38v10.367h-10.38V66.856z M33.001,66.856h10.38v10.367h-10.38V66.856z
			 M22.618,66.856h10.383v10.367H22.618V66.856z M12.238,66.856h10.38v10.367h-10.38V66.856z M1.856,66.856h10.382v10.367H1.856
			V66.856z M53.761,56.488h10.383v10.368H53.761V56.488z M43.381,56.488h10.38v10.368h-10.38V56.488z M33.001,56.488h10.38v10.368
			h-10.38V56.488z M22.618,56.488h10.383v10.368H22.618V56.488z M12.238,56.488h10.38v10.368h-10.38V56.488z M1.856,56.488h10.382
			v10.368H1.856V56.488z M53.761,46.12h10.383v10.368H53.761V46.12z M43.381,46.12h10.38v10.368h-10.38V46.12z M33.001,46.12h10.38
			v10.368h-10.38V46.12z M22.618,46.12h10.383v10.368H22.618V46.12z M12.238,46.12h10.38v10.368h-10.38V46.12z M1.856,46.12h10.382
			v10.368H1.856V46.12z M53.761,35.752h10.383V46.12H53.761V35.752z M43.381,35.752h10.38V46.12h-10.38V35.752z M33.001,35.752
			h10.38V46.12h-10.38V35.752z M22.618,35.752h10.383V46.12H22.618V35.752z M12.238,35.752h10.38V46.12h-10.38V35.752z
			 M1.856,35.752h10.382V46.12H1.856V35.752z M53.761,25.384h10.383v10.368H53.761V25.384z M43.381,25.384h10.38v10.368h-10.38
			V25.384z M33.001,25.384h10.38v10.368h-10.38V25.384z M22.618,25.384h10.383v10.368H22.618V25.384z M12.238,25.384h10.38v10.368
			h-10.38V25.384z M1.856,25.384h10.382v10.368H1.856V25.384z M53.761,15.016h10.383v10.368H53.761V15.016z M43.381,15.016h10.38
			v10.368h-10.38V15.016z M33.001,15.016h10.38v10.368h-10.38V15.016z M22.618,15.016h10.383v10.368H22.618V15.016z M12.238,15.016
			h10.38v10.368h-10.38V15.016z M1.856,15.016h10.382v10.368H1.856V15.016z M53.761,4.647h10.383v10.368H53.761V4.647z
			 M43.381,4.647h10.38v10.368h-10.38V4.647z M33.001,4.647h10.38v10.368h-10.38V4.647z M22.618,4.647h10.383v10.368H22.618V4.647z
			 M12.238,4.647h10.38v10.368h-10.38V4.647z"/>
		<path fill="none" stroke="#CDDBE2" stroke-width="0.5" stroke-miterlimit="3.864" d="M61.528,4.647l0.037,124.417 M56.375,4.647
			l-0.037,123.77 M51.184,4.647l-0.035,123.77 M45.993,4.647l-0.035,123.77 M40.804,4.647l-0.035,123.77 M35.613,4.647
			l-0.037,123.77 M30.424,4.647l-0.038,123.77 M25.231,4.647l-0.036,123.77 M20.041,4.647l-0.035,123.77 M14.851,4.647
			l-0.037,123.77 M9.661,4.647l-0.037,123.77 M4.469,4.647l-0.035,123.77"/>
	</g>
	<g>
		<path fill="#FFFFFF" d="M36.605,131.566c0-1.988,1.613-3.6,3.604-3.6s3.604,1.611,3.604,3.6s-1.614,3.6-3.604,3.6
			S36.605,133.555,36.605,131.566"/>
		<circle fill="none" stroke="#231F20" stroke-width="0.5" stroke-miterlimit="3.864" cx="40.209" cy="131.566" r="3.604"/>
		<path fill="none" stroke="#231F20" stroke-width="0.5" stroke-miterlimit="3.864" d="M40.209,133.366v-3.6 M38.406,131.566h3.605"
			/>
		<path fill="#FFFFFF" d="M22.186,131.566c0-1.988,1.613-3.6,3.605-3.6c1.991,0,3.604,1.611,3.604,3.6s-1.613,3.6-3.604,3.6
			C23.799,135.166,22.186,133.555,22.186,131.566"/>
		<circle fill="none" stroke="#231F20" stroke-width="0.5" stroke-miterlimit="3.864" cx="25.791" cy="131.566" r="3.604"/>
		
			<line fill="none" stroke="#231F20" stroke-width="0.5" stroke-miterlimit="3.864" x1="23.989" y1="131.566" x2="27.594" y2="131.566"/>
	</g>
	<path fill="#03A550" d="M31.198,1.967c0-0.994,0.807-1.801,1.802-1.801s1.803,0.807,1.803,1.801c0,0.993-0.808,1.8-1.803,1.8
		S31.198,2.96,31.198,1.967"/>
</g>
</svg>
