<?xml version="1.0" encoding="UTF-8" standalone="no"?>
<svg width="42px" height="39px" viewBox="0 0 42 39" version="1.1" xmlns="http://www.w3.org/2000/svg" xmlns:xlink="http://www.w3.org/1999/xlink">
    <!-- Generator: Sketch 41 (35326) - http://www.bohemiancoding.com/sketch -->
    <title>Group 16</title>
    <desc>Created with Sketch.</desc>
    <defs></defs>
    <g id="Inner" stroke="none" stroke-width="1" fill="none" fill-rule="evenodd" stroke-linejoin="round">
        <g id="Reward-Detail" transform="translate(-537.000000, -653.000000)" stroke="#E53C46">
            <g id="Group-16" transform="translate(537.000000, 654.000000)">
                <g id="Group" stroke-linecap="round">
                    <path d="M30.2376667,1.55102941 L10.3051667,10.2936765 L5.93016667,8.08779412 L0.826,10.2936765 L7.3885,16.9113235 L18.326,12.4995588 L13.951,24.2642647 L19.7843333,21.3230882 L25.6176667,9.55838235 L32.4674583,6.98485294 C33.957875,6.36279412 34.6637083,4.64367647 34.0482917,3.14220588 C33.4299583,1.64220588 31.7251667,0.930441176 30.2376667,1.55102941 L30.2376667,1.55102941 Z" id="Stroke-8265"></path>
                    <polyline id="Stroke-8266" points="23.6808542 4.42617647 13.9741875 0.385 8.5841875 2.63647059 18.4118958 6.73794118"></polyline>
                </g>
                <g id="Group" transform="translate(24.000000, 14.000000)">
                    <path d="M9.5,15 C9.5,15.275 9.276,15.5 9,15.5 C8.724,15.5 8.5,15.275 8.5,15 C8.5,14.723 8.724,14.5 9,14.5 C9.276,14.5 9.5,14.723 9.5,15 L9.5,15 Z" id="Stroke-320"></path>
                    <path d="M9,15.5 L9,18.5" id="Stroke-321" stroke-linecap="round"></path>
                    <polygon id="Stroke-322" points="17.5 9.5 0.5 9.5 0.5 23.5 17.5 23.5"></polygon>
                    <path d="M3.5,6 C3.5,2.962 5.962,0.5 9,0.5 C12.038,0.5 14.5,2.962 14.5,6 L14.5,9.5 L3.5,9.5 L3.5,6 L3.5,6 Z" id="Stroke-323"></path>
                </g>
            </g>
        </g>
    </g>
</svg>