<?xml version="1.0" encoding="utf-8"?>
<!-- Generator: Adobe Illustrator 16.0.0, SVG Export Plug-In . SVG Version: 6.00 Build 0)  -->
<!DOCTYPE svg PUBLIC "-//W3C//DTD SVG 1.1//EN" "http://www.w3.org/Graphics/SVG/1.1/DTD/svg11.dtd">
<svg version="1.1" id="Layer_1" xmlns="http://www.w3.org/2000/svg" xmlns:xlink="http://www.w3.org/1999/xlink" x="0px" y="0px"
	 width="218px" height="187px" viewBox="0 0 218 187" enable-background="new 0 0 218 187" xml:space="preserve">
<pattern  width="25.75" height="18.375" patternUnits="userSpaceOnUse" id="concrete" viewBox="0 -18.375 25.75 18.375" overflow="visible">
	<g>
		<polygon fill="none" points="0,0 25.75,0 25.75,-18.375 0,-18.375 		"/>
		<polygon fill="#D1D1D1" points="25.667,-18.375 0.042,-18.375 0.042,0 25.667,0 		"/>
		
			<path fill="#545454" stroke="#010101" stroke-width="0.25" stroke-linecap="round" stroke-linejoin="round" stroke-miterlimit="10" d="
			M17.834-9.625c0,0.46-0.373,0.833-0.833,0.833c-0.461,0-0.834-0.373-0.834-0.833c0-0.461,0.373-0.834,0.834-0.834
			C17.461-10.459,17.834-10.086,17.834-9.625z"/>
		
			<path fill="#949494" stroke="#010101" stroke-width="0.25" stroke-linecap="round" stroke-linejoin="round" stroke-miterlimit="10" d="
			M5.459-8.75c0,0.322-0.485,0.583-1.083,0.583c-0.599,0-1.084-0.261-1.084-0.583s0.485-0.583,1.084-0.583
			C4.974-9.333,5.459-9.072,5.459-8.75z"/>
		
			<path fill="#D4D4D4" stroke="#010101" stroke-width="0.25" stroke-linecap="round" stroke-linejoin="round" stroke-miterlimit="10" d="
			M12.125-5.916c0,0.321-0.299,0.583-0.667,0.583c-0.367,0-0.666-0.262-0.666-0.583c0-0.322,0.299-0.584,0.666-0.584
			C11.826-6.5,12.125-6.238,12.125-5.916z"/>
		
			<path fill="#545454" stroke="#010101" stroke-width="0.25" stroke-linecap="round" stroke-linejoin="round" stroke-miterlimit="10" d="
			M22.709-0.875c0,0.321-0.299,0.583-0.667,0.583c-0.367,0-0.666-0.262-0.666-0.583c0-0.322,0.299-0.584,0.666-0.584
			C22.41-1.459,22.709-1.197,22.709-0.875z"/>
		
			<path fill="#F2F2F2" stroke="#010101" stroke-width="0.25" stroke-linecap="round" stroke-linejoin="round" stroke-miterlimit="10" d="
			M4.959-15.916c0,0.321-0.299,0.583-0.667,0.583s-0.667-0.262-0.667-0.583c0-0.322,0.299-0.584,0.667-0.584
			S4.959-16.238,4.959-15.916z"/>
		
			<path fill="#F2F2F2" stroke="#010101" stroke-width="0.25" stroke-linecap="round" stroke-linejoin="round" stroke-miterlimit="10" d="
			M11.459-12.917c0,0.138-0.112,0.25-0.25,0.25s-0.25-0.112-0.25-0.25s0.112-0.25,0.25-0.25S11.459-13.055,11.459-12.917z"/>
		
			<path fill="#E6E6E6" stroke="#010101" stroke-width="0.25" stroke-linecap="round" stroke-linejoin="round" stroke-miterlimit="10" d="
			M23.792-14.25c0,0.138-0.187,0.25-0.416,0.25c-0.23,0-0.417-0.112-0.417-0.25s0.187-0.25,0.417-0.25
			C23.605-14.5,23.792-14.388,23.792-14.25z"/>
		
			<path fill="#F2F2F2" stroke="#010101" stroke-width="0.25" stroke-linecap="round" stroke-linejoin="round" stroke-miterlimit="10" d="
			M19.459-4.583c0,0.138-0.112,0.25-0.25,0.25s-0.25-0.112-0.25-0.25s0.112-0.25,0.25-0.25S19.459-4.721,19.459-4.583z"/>
		
			<path fill="#949494" stroke="#010101" stroke-width="0.25" stroke-linecap="round" stroke-linejoin="round" stroke-miterlimit="10" d="
			M3.959-2.333c0,0.276-0.261,0.5-0.583,0.5s-0.584-0.224-0.584-0.5s0.262-0.5,0.584-0.5S3.959-2.609,3.959-2.333z"/>
		
			<path fill="#BDBDBD" stroke="#010101" stroke-width="0.25" stroke-linecap="round" stroke-linejoin="round" stroke-miterlimit="10" d="
			M0.459-12c0,0.276-0.075,0.5-0.167,0.5S0.125-11.724,0.125-12s0.075-0.5,0.167-0.5S0.459-12.276,0.459-12z"/>
		
			<path fill="#545454" stroke="#010101" stroke-width="0.25" stroke-linecap="round" stroke-linejoin="round" stroke-miterlimit="10" d="
			M8.625-11.25c0,0.138-0.112,0.25-0.25,0.25s-0.25-0.112-0.25-0.25s0.112-0.25,0.25-0.25S8.625-11.388,8.625-11.25z"/>
		
			<path fill="#545454" stroke="#010101" stroke-width="0.25" stroke-linecap="round" stroke-linejoin="round" stroke-miterlimit="10" d="
			M9.292-16.666c0,0.184-0.149,0.333-0.334,0.333c-0.184,0-0.333-0.149-0.333-0.333C8.625-16.851,8.774-17,8.958-17
			C9.143-17,9.292-16.851,9.292-16.666z"/>
		
			<path fill="#E6E6E6" stroke="#010101" stroke-width="0.25" stroke-linecap="round" stroke-linejoin="round" stroke-miterlimit="10" d="
			M19.125-16c0,0.092-0.224,0.167-0.5,0.167s-0.5-0.075-0.5-0.167s0.224-0.167,0.5-0.167S19.125-16.092,19.125-16z"/>
		
			<path fill="#F2F2F2" stroke="#010101" stroke-width="0.25" stroke-linecap="round" stroke-linejoin="round" stroke-miterlimit="10" d="
			M14.959-14c0,0.276-0.149,0.5-0.333,0.5c-0.185,0-0.334-0.224-0.334-0.5s0.149-0.5,0.334-0.5C14.81-14.5,14.959-14.276,14.959-14z
			"/>
		
			<path fill="#545454" stroke="#010101" stroke-width="0.25" stroke-linecap="round" stroke-linejoin="round" stroke-miterlimit="10" d="
			M15.625-6.166C15.625-6.074,15.551-6,15.458-6c-0.092,0-0.166-0.074-0.166-0.166c0-0.093,0.074-0.167,0.166-0.167
			C15.551-6.333,15.625-6.259,15.625-6.166z"/>
		
			<path fill="#F2F2F2" stroke="#010101" stroke-width="0.25" stroke-linecap="round" stroke-linejoin="round" stroke-miterlimit="10" d="
			M7.917-4.667c0,0.092-0.112,0.167-0.25,0.167s-0.25-0.075-0.25-0.167s0.112-0.167,0.25-0.167S7.917-4.759,7.917-4.667z"/>
		
			<path fill="#545454" stroke="#010101" stroke-width="0.25" stroke-linecap="round" stroke-linejoin="round" stroke-miterlimit="10" d="
			M23.625-8.666c0,0.184-0.112,0.333-0.25,0.333s-0.25-0.149-0.25-0.333c0-0.185,0.112-0.334,0.25-0.334S23.625-8.851,23.625-8.666z
			"/>
		
			<path fill="#545454" stroke="#010101" stroke-width="0.25" stroke-linecap="round" stroke-linejoin="round" stroke-miterlimit="10" d="
			M23.792-6.125c0,0.092-0.037,0.167-0.084,0.167c-0.046,0-0.083-0.075-0.083-0.167s0.037-0.167,0.083-0.167
			C23.755-6.292,23.792-6.217,23.792-6.125z"/>
		
			<path fill="#F2F2F2" stroke="#010101" stroke-width="0.25" stroke-linecap="round" stroke-linejoin="round" stroke-miterlimit="10" d="
			M11.751-0.833c0,0.092-0.037,0.167-0.084,0.167c-0.046,0-0.083-0.075-0.083-0.167S11.621-1,11.667-1
			C11.714-1,11.751-0.925,11.751-0.833z"/>
		
			<path fill="#545454" stroke="#010101" stroke-width="0.25" stroke-linecap="round" stroke-linejoin="round" stroke-miterlimit="10" d="
			M14.959-2.416C14.959-2.187,14.772-2,14.542-2s-0.417-0.187-0.417-0.416c0-0.23,0.187-0.417,0.417-0.417
			S14.959-2.646,14.959-2.416z"/>
		
			<path fill="#E6E6E6" stroke="#010101" stroke-width="0.25" stroke-linecap="round" stroke-linejoin="round" stroke-miterlimit="10" d="
			M25.625-16.584c0,0.23-0.149,0.417-0.333,0.417s-0.333-0.187-0.333-0.417c0-0.229,0.149-0.416,0.333-0.416
			S25.625-16.813,25.625-16.584z"/>
		
			<path fill="#545454" stroke="#010101" stroke-width="0.25" stroke-linecap="round" stroke-linejoin="round" stroke-miterlimit="10" d="
			M0.792-5.166C0.792-5.074,0.718-5,0.626-5C0.533-5,0.459-5.074,0.459-5.166c0-0.093,0.074-0.167,0.167-0.167
			C0.718-5.333,0.792-5.259,0.792-5.166z"/>
		
			<path fill="#545454" stroke="#010101" stroke-width="0.25" stroke-linecap="round" stroke-linejoin="round" stroke-miterlimit="10" d="
			M12.959-9.666c0,0.092-0.075,0.166-0.167,0.166s-0.167-0.074-0.167-0.166c0-0.093,0.075-0.167,0.167-0.167
			S12.959-9.759,12.959-9.666z"/>
		
			<path fill="#F5F5F5" stroke="#010101" stroke-width="0.25" stroke-linecap="round" stroke-linejoin="round" stroke-miterlimit="10" d="
			M20.959-11.333c0,0.276-0.075,0.5-0.167,0.5s-0.167-0.224-0.167-0.5s0.075-0.5,0.167-0.5S20.959-11.609,20.959-11.333z"/>
	</g>
</pattern>
<g>
	
		<rect x="7.922" y="0.828" fill="url(#concrete)" stroke="#010101" stroke-width="0.9825" stroke-linecap="round" stroke-linejoin="round" stroke-miterlimit="10" width="202.578" height="186.247"/>
	<linearGradient id="SVGID_1_" gradientUnits="userSpaceOnUse" x1="110.7383" y1="13.2886" x2="110.0366" y2="171.1849">
		<stop  offset="0" style="stop-color:#F8B7AC"/>
		<stop  offset="0.375" style="stop-color:#DEBCC3"/>
		<stop  offset="0.7619" style="stop-color:#C9C0D7"/>
		<stop  offset="1" style="stop-color:#C0C2E1"/>
	</linearGradient>
	
		<rect x="22.893" y="13.676" fill="url(#SVGID_1_)" stroke="#010101" stroke-width="0.9675" stroke-linecap="round" stroke-linejoin="round" stroke-miterlimit="10" width="174.977" height="159.534"/>
	<g>
		
			<linearGradient id="SVGID_2_" gradientUnits="userSpaceOnUse" x1="-521.5859" y1="180.5146" x2="-469.3799" y2="180.5146" gradientTransform="matrix(0.9979 -0.0653 -0.0653 -0.9979 672.0034 196.334)">
			<stop  offset="0" style="stop-color:#B3B3B3"/>
			<stop  offset="0.0185" style="stop-color:#B6B6B6"/>
			<stop  offset="0.2268" style="stop-color:#DEDEDE"/>
			<stop  offset="0.3927" style="stop-color:#F6F6F6"/>
			<stop  offset="0.4945" style="stop-color:#FFFFFF"/>
			<stop  offset="0.6034" style="stop-color:#F5F5F5"/>
			<stop  offset="0.7911" style="stop-color:#D9D9D9"/>
			<stop  offset="1" style="stop-color:#B3B3B3"/>
		</linearGradient>
		<path fill="url(#SVGID_2_)" stroke="#231F20" stroke-width="0.379" stroke-dasharray="1.5161,0.758" d="M191.801,46.544
			c-0.082-0.848-0.662-1.496-1.301-1.447l-49.752,3.84c-0.633,0.052-1.081,0.775-1.001,1.628l0,0
			c0.083,0.848,0.663,1.493,1.301,1.444l49.753-3.839C191.434,48.12,191.882,47.394,191.801,46.544L191.801,46.544z"/>
		
			<linearGradient id="SVGID_3_" gradientUnits="userSpaceOnUse" x1="-521.0938" y1="188.043" x2="-468.8877" y2="188.043" gradientTransform="matrix(0.9979 -0.0653 -0.0653 -0.9979 672.0034 196.334)">
			<stop  offset="0" style="stop-color:#B3B3B3"/>
			<stop  offset="0.0185" style="stop-color:#B6B6B6"/>
			<stop  offset="0.2268" style="stop-color:#DEDEDE"/>
			<stop  offset="0.3927" style="stop-color:#F6F6F6"/>
			<stop  offset="0.4945" style="stop-color:#FFFFFF"/>
			<stop  offset="0.6034" style="stop-color:#F5F5F5"/>
			<stop  offset="0.7911" style="stop-color:#D9D9D9"/>
			<stop  offset="1" style="stop-color:#B3B3B3"/>
		</linearGradient>
		<path fill="url(#SVGID_3_)" stroke="#231F20" stroke-width="0.379" stroke-dasharray="1.5161,0.758" d="M191.801,38.999
			c-0.082-0.85-0.662-1.496-1.301-1.447l-49.752,3.839c-0.633,0.052-1.081,0.776-1.001,1.628l0,0
			c0.083,0.85,0.663,1.494,1.301,1.445l49.753-3.84C191.434,40.575,191.882,39.85,191.801,38.999L191.801,38.999z"/>
		
			<linearGradient id="SVGID_4_" gradientUnits="userSpaceOnUse" x1="-520.6006" y1="195.5703" x2="-468.3945" y2="195.5703" gradientTransform="matrix(0.9979 -0.0653 -0.0653 -0.9979 672.0034 196.334)">
			<stop  offset="0" style="stop-color:#B3B3B3"/>
			<stop  offset="0.0185" style="stop-color:#B6B6B6"/>
			<stop  offset="0.2268" style="stop-color:#DEDEDE"/>
			<stop  offset="0.3927" style="stop-color:#F6F6F6"/>
			<stop  offset="0.4945" style="stop-color:#FFFFFF"/>
			<stop  offset="0.6034" style="stop-color:#F5F5F5"/>
			<stop  offset="0.7911" style="stop-color:#D9D9D9"/>
			<stop  offset="1" style="stop-color:#B3B3B3"/>
		</linearGradient>
		<path fill="url(#SVGID_4_)" stroke="#231F20" stroke-width="0.379" stroke-dasharray="1.5161,0.758" d="M191.801,31.454
			c-0.082-0.848-0.662-1.495-1.301-1.446l-49.752,3.84c-0.633,0.051-1.081,0.775-1.001,1.625l0,0
			c0.083,0.849,0.663,1.495,1.301,1.447l49.753-3.84C191.434,33.029,191.882,32.306,191.801,31.454L191.801,31.454z"/>
		
			<linearGradient id="SVGID_5_" gradientUnits="userSpaceOnUse" x1="-520.1055" y1="203.1465" x2="-467.8994" y2="203.1465" gradientTransform="matrix(0.9979 -0.0653 -0.0653 -0.9979 672.0034 196.334)">
			<stop  offset="0" style="stop-color:#B3B3B3"/>
			<stop  offset="0.0185" style="stop-color:#B6B6B6"/>
			<stop  offset="0.2268" style="stop-color:#DEDEDE"/>
			<stop  offset="0.3927" style="stop-color:#F6F6F6"/>
			<stop  offset="0.4945" style="stop-color:#FFFFFF"/>
			<stop  offset="0.6034" style="stop-color:#F5F5F5"/>
			<stop  offset="0.7911" style="stop-color:#D9D9D9"/>
			<stop  offset="1" style="stop-color:#B3B3B3"/>
		</linearGradient>
		<path fill="url(#SVGID_5_)" stroke="#231F20" stroke-width="0.379" stroke-dasharray="1.5161,0.758" d="M191.801,23.864
			c-0.082-0.849-0.662-1.497-1.301-1.448l-49.752,3.84c-0.633,0.051-1.081,0.775-1.001,1.627l0,0
			c0.083,0.848,0.663,1.495,1.301,1.445l49.753-3.839C191.434,25.439,191.882,24.714,191.801,23.864L191.801,23.864z"/>
		
			<linearGradient id="SVGID_6_" gradientUnits="userSpaceOnUse" x1="-504.9834" y1="434.2227" x2="-452.7783" y2="434.2227" gradientTransform="matrix(0.9979 0.0653 -0.0653 0.9979 672.0034 -357.3262)">
			<stop  offset="0" style="stop-color:#D9D9D9"/>
			<stop  offset="0.0029" style="stop-color:#DADADA"/>
			<stop  offset="0.0586" style="stop-color:#EBEBEB"/>
			<stop  offset="0.1276" style="stop-color:#F6F6F6"/>
			<stop  offset="0.2248" style="stop-color:#FDFDFD"/>
			<stop  offset="0.4945" style="stop-color:#FFFFFF"/>
			<stop  offset="0.7703" style="stop-color:#FDFDFD"/>
			<stop  offset="0.8696" style="stop-color:#F6F6F6"/>
			<stop  offset="0.9401" style="stop-color:#EBEBEB"/>
			<stop  offset="0.997" style="stop-color:#DADADA"/>
			<stop  offset="1" style="stop-color:#D9D9D9"/>
		</linearGradient>
		<path fill="url(#SVGID_6_)" stroke="#231F20" stroke-width="0.379" stroke-dasharray="1.5161,0.758" d="M191.801,46.722
			c-0.082,0.848-0.662,1.496-1.301,1.448l-49.752-3.84c-0.633-0.051-1.081-0.776-1.001-1.627l0,0
			c0.083-0.848,0.663-1.495,1.301-1.445l49.753,3.839C191.434,45.147,191.882,45.872,191.801,46.722L191.801,46.722z"/>
		
			<linearGradient id="SVGID_7_" gradientUnits="userSpaceOnUse" x1="-505.4766" y1="426.6934" x2="-453.2705" y2="426.6934" gradientTransform="matrix(0.9979 0.0653 -0.0653 0.9979 672.0034 -357.3262)">
			<stop  offset="0" style="stop-color:#D9D9D9"/>
			<stop  offset="0.0029" style="stop-color:#DADADA"/>
			<stop  offset="0.0586" style="stop-color:#EBEBEB"/>
			<stop  offset="0.1276" style="stop-color:#F6F6F6"/>
			<stop  offset="0.2248" style="stop-color:#FDFDFD"/>
			<stop  offset="0.4945" style="stop-color:#FFFFFF"/>
			<stop  offset="0.7703" style="stop-color:#FDFDFD"/>
			<stop  offset="0.8696" style="stop-color:#F6F6F6"/>
			<stop  offset="0.9401" style="stop-color:#EBEBEB"/>
			<stop  offset="0.997" style="stop-color:#DADADA"/>
			<stop  offset="1" style="stop-color:#D9D9D9"/>
		</linearGradient>
		<path fill="url(#SVGID_7_)" stroke="#231F20" stroke-width="0.379" stroke-dasharray="1.5161,0.758" d="M191.801,39.177
			c-0.082,0.85-0.662,1.498-1.301,1.447l-49.752-3.84c-0.633-0.051-1.081-0.773-1.001-1.625l0,0
			c0.083-0.849,0.663-1.495,1.301-1.446l49.753,3.839C191.434,37.601,191.882,38.325,191.801,39.177L191.801,39.177z"/>
		
			<linearGradient id="SVGID_8_" gradientUnits="userSpaceOnUse" x1="-505.9688" y1="419.165" x2="-453.7627" y2="419.165" gradientTransform="matrix(0.9979 0.0653 -0.0653 0.9979 672.0034 -357.3262)">
			<stop  offset="0" style="stop-color:#D9D9D9"/>
			<stop  offset="0.0029" style="stop-color:#DADADA"/>
			<stop  offset="0.0586" style="stop-color:#EBEBEB"/>
			<stop  offset="0.1276" style="stop-color:#F6F6F6"/>
			<stop  offset="0.2248" style="stop-color:#FDFDFD"/>
			<stop  offset="0.4945" style="stop-color:#FFFFFF"/>
			<stop  offset="0.7703" style="stop-color:#FDFDFD"/>
			<stop  offset="0.8696" style="stop-color:#F6F6F6"/>
			<stop  offset="0.9401" style="stop-color:#EBEBEB"/>
			<stop  offset="0.997" style="stop-color:#DADADA"/>
			<stop  offset="1" style="stop-color:#D9D9D9"/>
		</linearGradient>
		<path fill="url(#SVGID_8_)" stroke="#231F20" stroke-width="0.379" stroke-dasharray="1.5161,0.758" d="M191.801,31.633
			c-0.082,0.848-0.662,1.496-1.301,1.447l-49.752-3.84c-0.633-0.051-1.081-0.775-1.001-1.627l0,0
			c0.083-0.848,0.663-1.494,1.301-1.445l49.753,3.84C191.434,30.058,191.882,30.782,191.801,31.633L191.801,31.633z"/>
		
			<linearGradient id="SVGID_9_" gradientUnits="userSpaceOnUse" x1="-523.5254" y1="150.8711" x2="-471.3203" y2="150.8711" gradientTransform="matrix(0.9979 -0.0653 -0.0653 -0.9979 672.0034 196.334)">
			<stop  offset="0" style="stop-color:#B3B3B3"/>
			<stop  offset="0.0185" style="stop-color:#B6B6B6"/>
			<stop  offset="0.2268" style="stop-color:#DEDEDE"/>
			<stop  offset="0.3927" style="stop-color:#F6F6F6"/>
			<stop  offset="0.4945" style="stop-color:#FFFFFF"/>
			<stop  offset="0.6034" style="stop-color:#F5F5F5"/>
			<stop  offset="0.7911" style="stop-color:#D9D9D9"/>
			<stop  offset="1" style="stop-color:#B3B3B3"/>
		</linearGradient>
		<path fill="url(#SVGID_9_)" stroke="#231F20" stroke-width="0.379" stroke-dasharray="1.5161,0.758" d="M191.801,76.251
			c-0.082-0.847-0.662-1.494-1.301-1.447l-49.752,3.842c-0.633,0.051-1.081,0.774-1.001,1.627l0,0
			c0.083,0.847,0.663,1.494,1.301,1.445l49.753-3.84C191.434,77.827,191.882,77.104,191.801,76.251L191.801,76.251z"/>
		
			<linearGradient id="SVGID_10_" gradientUnits="userSpaceOnUse" x1="-523.0332" y1="158.3984" x2="-470.8271" y2="158.3984" gradientTransform="matrix(0.9979 -0.0653 -0.0653 -0.9979 672.0034 196.334)">
			<stop  offset="0" style="stop-color:#B3B3B3"/>
			<stop  offset="0.0185" style="stop-color:#B6B6B6"/>
			<stop  offset="0.2268" style="stop-color:#DEDEDE"/>
			<stop  offset="0.3927" style="stop-color:#F6F6F6"/>
			<stop  offset="0.4945" style="stop-color:#FFFFFF"/>
			<stop  offset="0.6034" style="stop-color:#F5F5F5"/>
			<stop  offset="0.7911" style="stop-color:#D9D9D9"/>
			<stop  offset="1" style="stop-color:#B3B3B3"/>
		</linearGradient>
		<path fill="url(#SVGID_10_)" stroke="#231F20" stroke-width="0.379" stroke-dasharray="1.5161,0.758" d="M191.801,68.708
			c-0.082-0.848-0.662-1.496-1.301-1.447L140.748,71.1c-0.633,0.05-1.081,0.776-1.001,1.626l0,0c0.083,0.85,0.663,1.496,1.301,1.448
			l49.753-3.842C191.434,70.283,191.882,69.56,191.801,68.708L191.801,68.708z"/>
		
			<linearGradient id="SVGID_11_" gradientUnits="userSpaceOnUse" x1="-522.541" y1="165.9277" x2="-470.335" y2="165.9277" gradientTransform="matrix(0.9979 -0.0653 -0.0653 -0.9979 672.0034 196.334)">
			<stop  offset="0" style="stop-color:#B3B3B3"/>
			<stop  offset="0.0185" style="stop-color:#B6B6B6"/>
			<stop  offset="0.2268" style="stop-color:#DEDEDE"/>
			<stop  offset="0.3927" style="stop-color:#F6F6F6"/>
			<stop  offset="0.4945" style="stop-color:#FFFFFF"/>
			<stop  offset="0.6034" style="stop-color:#F5F5F5"/>
			<stop  offset="0.7911" style="stop-color:#D9D9D9"/>
			<stop  offset="1" style="stop-color:#B3B3B3"/>
		</linearGradient>
		<path fill="url(#SVGID_11_)" stroke="#231F20" stroke-width="0.379" stroke-dasharray="1.5161,0.758" d="M191.801,61.162
			c-0.082-0.847-0.662-1.496-1.301-1.446l-49.752,3.839c-0.633,0.052-1.081,0.776-1.001,1.628l0,0
			c0.083,0.847,0.663,1.494,1.301,1.445l49.753-3.84C191.434,62.739,191.882,62.013,191.801,61.162L191.801,61.162z"/>
		
			<linearGradient id="SVGID_12_" gradientUnits="userSpaceOnUse" x1="-522.0449" y1="173.5029" x2="-469.8389" y2="173.5029" gradientTransform="matrix(0.9979 -0.0653 -0.0653 -0.9979 672.0034 196.334)">
			<stop  offset="0" style="stop-color:#B3B3B3"/>
			<stop  offset="0.0185" style="stop-color:#B6B6B6"/>
			<stop  offset="0.2268" style="stop-color:#DEDEDE"/>
			<stop  offset="0.3927" style="stop-color:#F6F6F6"/>
			<stop  offset="0.4945" style="stop-color:#FFFFFF"/>
			<stop  offset="0.6034" style="stop-color:#F5F5F5"/>
			<stop  offset="0.7911" style="stop-color:#D9D9D9"/>
			<stop  offset="1" style="stop-color:#B3B3B3"/>
		</linearGradient>
		<path fill="url(#SVGID_12_)" stroke="#231F20" stroke-width="0.379" stroke-dasharray="1.5161,0.758" d="M191.801,53.571
			c-0.082-0.848-0.662-1.496-1.301-1.449l-49.752,3.842c-0.633,0.051-1.081,0.775-1.001,1.627l0,0
			c0.083,0.849,0.663,1.494,1.301,1.445l49.753-3.84C191.434,55.147,191.882,54.423,191.801,53.571L191.801,53.571z"/>
		
			<linearGradient id="SVGID_13_" gradientUnits="userSpaceOnUse" x1="-502.5508" y1="471.3945" x2="-450.3457" y2="471.3945" gradientTransform="matrix(0.9979 0.0653 -0.0653 0.9979 672.0034 -357.3262)">
			<stop  offset="0" style="stop-color:#D9D9D9"/>
			<stop  offset="0.0029" style="stop-color:#DADADA"/>
			<stop  offset="0.0586" style="stop-color:#EBEBEB"/>
			<stop  offset="0.1276" style="stop-color:#F6F6F6"/>
			<stop  offset="0.2248" style="stop-color:#FDFDFD"/>
			<stop  offset="0.4945" style="stop-color:#FFFFFF"/>
			<stop  offset="0.7703" style="stop-color:#FDFDFD"/>
			<stop  offset="0.8696" style="stop-color:#F6F6F6"/>
			<stop  offset="0.9401" style="stop-color:#EBEBEB"/>
			<stop  offset="0.997" style="stop-color:#DADADA"/>
			<stop  offset="1" style="stop-color:#D9D9D9"/>
		</linearGradient>
		<path fill="url(#SVGID_13_)" stroke="#231F20" stroke-width="0.379" stroke-dasharray="1.5161,0.758" d="M191.801,83.976
			c-0.082,0.848-0.662,1.495-1.301,1.447l-49.752-3.84c-0.633-0.051-1.081-0.775-1.001-1.627l0,0
			c0.083-0.849,0.663-1.494,1.301-1.445l49.753,3.839C191.434,82.399,191.882,83.126,191.801,83.976L191.801,83.976z"/>
		
			<linearGradient id="SVGID_14_" gradientUnits="userSpaceOnUse" x1="-503.0439" y1="463.8652" x2="-450.8379" y2="463.8652" gradientTransform="matrix(0.9979 0.0653 -0.0653 0.9979 672.0034 -357.3262)">
			<stop  offset="0" style="stop-color:#D9D9D9"/>
			<stop  offset="0.0029" style="stop-color:#DADADA"/>
			<stop  offset="0.0586" style="stop-color:#EBEBEB"/>
			<stop  offset="0.1276" style="stop-color:#F6F6F6"/>
			<stop  offset="0.2248" style="stop-color:#FDFDFD"/>
			<stop  offset="0.4945" style="stop-color:#FFFFFF"/>
			<stop  offset="0.7703" style="stop-color:#FDFDFD"/>
			<stop  offset="0.8696" style="stop-color:#F6F6F6"/>
			<stop  offset="0.9401" style="stop-color:#EBEBEB"/>
			<stop  offset="0.997" style="stop-color:#DADADA"/>
			<stop  offset="1" style="stop-color:#D9D9D9"/>
		</linearGradient>
		<path fill="url(#SVGID_14_)" stroke="#231F20" stroke-width="0.379" stroke-dasharray="1.5161,0.758" d="M191.801,76.43
			c-0.082,0.851-0.662,1.497-1.301,1.448l-49.752-3.84c-0.633-0.049-1.081-0.776-1.001-1.628l0,0
			c0.083-0.847,0.663-1.493,1.301-1.445l49.753,3.839C191.434,74.854,191.882,75.579,191.801,76.43L191.801,76.43z"/>
		
			<linearGradient id="SVGID_15_" gradientUnits="userSpaceOnUse" x1="-503.5361" y1="456.3359" x2="-451.3311" y2="456.3359" gradientTransform="matrix(0.9979 0.0653 -0.0653 0.9979 672.0034 -357.3262)">
			<stop  offset="0" style="stop-color:#D9D9D9"/>
			<stop  offset="0.0029" style="stop-color:#DADADA"/>
			<stop  offset="0.0586" style="stop-color:#EBEBEB"/>
			<stop  offset="0.1276" style="stop-color:#F6F6F6"/>
			<stop  offset="0.2248" style="stop-color:#FDFDFD"/>
			<stop  offset="0.4945" style="stop-color:#FFFFFF"/>
			<stop  offset="0.7703" style="stop-color:#FDFDFD"/>
			<stop  offset="0.8696" style="stop-color:#F6F6F6"/>
			<stop  offset="0.9401" style="stop-color:#EBEBEB"/>
			<stop  offset="0.997" style="stop-color:#DADADA"/>
			<stop  offset="1" style="stop-color:#D9D9D9"/>
		</linearGradient>
		<path fill="url(#SVGID_15_)" stroke="#231F20" stroke-width="0.379" stroke-dasharray="1.5161,0.758" d="M191.801,68.886
			c-0.082,0.848-0.662,1.496-1.301,1.446l-49.752-3.838c-0.633-0.052-1.081-0.777-1.001-1.628l0,0
			c0.083-0.848,0.663-1.494,1.301-1.445l49.753,3.84C191.434,67.31,191.882,68.035,191.801,68.886L191.801,68.886z"/>
		
			<linearGradient id="SVGID_16_" gradientUnits="userSpaceOnUse" x1="-504.0293" y1="448.8086" x2="-451.8232" y2="448.8086" gradientTransform="matrix(0.9979 0.0653 -0.0653 0.9979 672.0034 -357.3262)">
			<stop  offset="0" style="stop-color:#D9D9D9"/>
			<stop  offset="0.0029" style="stop-color:#DADADA"/>
			<stop  offset="0.0586" style="stop-color:#EBEBEB"/>
			<stop  offset="0.1276" style="stop-color:#F6F6F6"/>
			<stop  offset="0.2248" style="stop-color:#FDFDFD"/>
			<stop  offset="0.4945" style="stop-color:#FFFFFF"/>
			<stop  offset="0.7703" style="stop-color:#FDFDFD"/>
			<stop  offset="0.8696" style="stop-color:#F6F6F6"/>
			<stop  offset="0.9401" style="stop-color:#EBEBEB"/>
			<stop  offset="0.997" style="stop-color:#DADADA"/>
			<stop  offset="1" style="stop-color:#D9D9D9"/>
		</linearGradient>
		<path fill="url(#SVGID_16_)" stroke="#231F20" stroke-width="0.379" stroke-dasharray="1.5161,0.758" d="M191.801,61.341
			c-0.082,0.848-0.662,1.495-1.301,1.447l-49.752-3.84c-0.633-0.05-1.081-0.775-1.001-1.627l0,0
			c0.083-0.848,0.663-1.494,1.301-1.445l49.753,3.84C191.434,59.765,191.882,60.491,191.801,61.341L191.801,61.341z"/>
		<path fill="#FFFFFF" stroke="#231F20" stroke-width="0.379" d="M190.438,82.312h26.648c0.34-0.003,0.617,0.685,0.617,1.535l0,0
			c0,0.849-0.277,1.533-0.617,1.533h-26.648"/>
		<path fill="#FFFFFF" stroke="#231F20" stroke-width="0.379" d="M190.438,22.33h26.648c0.34-0.001,0.617,0.687,0.617,1.537l0,0
			c0,0.847-0.277,1.533-0.617,1.533h-26.648"/>
		
			<linearGradient id="SVGID_17_" gradientUnits="userSpaceOnUse" x1="-504.4912" y1="441.75" x2="-452.2852" y2="441.75" gradientTransform="matrix(0.9979 0.0653 -0.0653 0.9979 672.0034 -357.3262)">
			<stop  offset="0" style="stop-color:#D9D9D9"/>
			<stop  offset="0.0029" style="stop-color:#DADADA"/>
			<stop  offset="0.0586" style="stop-color:#EBEBEB"/>
			<stop  offset="0.1276" style="stop-color:#F6F6F6"/>
			<stop  offset="0.2248" style="stop-color:#FDFDFD"/>
			<stop  offset="0.4945" style="stop-color:#FFFFFF"/>
			<stop  offset="0.7703" style="stop-color:#FDFDFD"/>
			<stop  offset="0.8696" style="stop-color:#F6F6F6"/>
			<stop  offset="0.9401" style="stop-color:#EBEBEB"/>
			<stop  offset="0.997" style="stop-color:#DADADA"/>
			<stop  offset="1" style="stop-color:#D9D9D9"/>
		</linearGradient>
		<path fill="url(#SVGID_17_)" stroke="#231F20" stroke-width="0.379" stroke-dasharray="1.5161,0.758" d="M191.801,54.267
			c-0.082,0.85-0.662,1.496-1.301,1.447l-49.752-3.84c-0.633-0.051-1.081-0.775-1.001-1.627l0,0
			c0.083-0.848,0.663-1.493,1.301-1.445l49.753,3.841C191.434,52.69,191.882,53.416,191.801,54.267L191.801,54.267z"/>
	</g>
	<g>
		
			<linearGradient id="SVGID_18_" gradientUnits="userSpaceOnUse" x1="893.957" y1="7.6621" x2="946.1904" y2="7.6621" gradientTransform="matrix(-0.9979 -0.0653 0.0653 -0.9979 969.7485 196.334)">
			<stop  offset="0" style="stop-color:#B3B3B3"/>
			<stop  offset="0.0185" style="stop-color:#B6B6B6"/>
			<stop  offset="0.2268" style="stop-color:#DEDEDE"/>
			<stop  offset="0.3927" style="stop-color:#F6F6F6"/>
			<stop  offset="0.4945" style="stop-color:#FFFFFF"/>
			<stop  offset="0.6034" style="stop-color:#F5F5F5"/>
			<stop  offset="0.7911" style="stop-color:#D9D9D9"/>
			<stop  offset="1" style="stop-color:#B3B3B3"/>
		</linearGradient>
		<path fill="url(#SVGID_18_)" stroke="#231F20" stroke-width="0.379" stroke-dasharray="1.5161,0.758" d="M26.08,126.371
			c0.082-0.942,0.662-1.665,1.301-1.61l49.75,4.271c0.635,0.058,1.082,0.863,1.002,1.811l0,0c-0.082,0.943-0.662,1.661-1.301,1.607
			l-49.752-4.271C26.447,128.124,25.998,127.317,26.08,126.371L26.08,126.371z"/>
		
			<linearGradient id="SVGID_19_" gradientUnits="userSpaceOnUse" x1="894.5059" y1="16.0361" x2="946.7383" y2="16.0361" gradientTransform="matrix(-0.9979 -0.0653 0.0653 -0.9979 969.7485 196.334)">
			<stop  offset="0" style="stop-color:#B3B3B3"/>
			<stop  offset="0.0185" style="stop-color:#B6B6B6"/>
			<stop  offset="0.2268" style="stop-color:#DEDEDE"/>
			<stop  offset="0.3927" style="stop-color:#F6F6F6"/>
			<stop  offset="0.4945" style="stop-color:#FFFFFF"/>
			<stop  offset="0.6034" style="stop-color:#F5F5F5"/>
			<stop  offset="0.7911" style="stop-color:#D9D9D9"/>
			<stop  offset="1" style="stop-color:#B3B3B3"/>
		</linearGradient>
		<path fill="url(#SVGID_19_)" stroke="#231F20" stroke-width="0.379" stroke-dasharray="1.5161,0.758" d="M26.08,117.978
			c0.082-0.945,0.662-1.666,1.301-1.609l49.75,4.27c0.635,0.058,1.082,0.863,1.002,1.813l0,0c-0.082,0.943-0.662,1.661-1.301,1.607
			l-49.752-4.271C26.447,119.731,25.998,118.923,26.08,117.978L26.08,117.978z"/>
		
			<linearGradient id="SVGID_20_" gradientUnits="userSpaceOnUse" x1="895.0537" y1="24.4126" x2="947.2861" y2="24.4126" gradientTransform="matrix(-0.9979 -0.0653 0.0653 -0.9979 969.7485 196.334)">
			<stop  offset="0" style="stop-color:#B3B3B3"/>
			<stop  offset="0.0185" style="stop-color:#B6B6B6"/>
			<stop  offset="0.2268" style="stop-color:#DEDEDE"/>
			<stop  offset="0.3927" style="stop-color:#F6F6F6"/>
			<stop  offset="0.4945" style="stop-color:#FFFFFF"/>
			<stop  offset="0.6034" style="stop-color:#F5F5F5"/>
			<stop  offset="0.7911" style="stop-color:#D9D9D9"/>
			<stop  offset="1" style="stop-color:#B3B3B3"/>
		</linearGradient>
		<path fill="url(#SVGID_20_)" stroke="#231F20" stroke-width="0.379" stroke-dasharray="1.5161,0.758" d="M26.08,109.584
			c0.082-0.943,0.662-1.663,1.301-1.61l49.75,4.272c0.635,0.056,1.082,0.862,1.002,1.81l0,0c-0.082,0.943-0.662,1.662-1.301,1.608
			l-49.752-4.272C26.447,111.337,25.998,110.53,26.08,109.584L26.08,109.584z"/>
		
			<linearGradient id="SVGID_21_" gradientUnits="userSpaceOnUse" x1="895.6055" y1="32.8389" x2="947.8379" y2="32.8389" gradientTransform="matrix(-0.9979 -0.0653 0.0653 -0.9979 969.7485 196.334)">
			<stop  offset="0" style="stop-color:#B3B3B3"/>
			<stop  offset="0.0185" style="stop-color:#B6B6B6"/>
			<stop  offset="0.2268" style="stop-color:#DEDEDE"/>
			<stop  offset="0.3927" style="stop-color:#F6F6F6"/>
			<stop  offset="0.4945" style="stop-color:#FFFFFF"/>
			<stop  offset="0.6034" style="stop-color:#F5F5F5"/>
			<stop  offset="0.7911" style="stop-color:#D9D9D9"/>
			<stop  offset="1" style="stop-color:#B3B3B3"/>
		</linearGradient>
		<path fill="url(#SVGID_21_)" stroke="#231F20" stroke-width="0.379" stroke-dasharray="1.5161,0.758" d="M26.08,101.14
			c0.082-0.943,0.662-1.664,1.301-1.61l49.75,4.271c0.635,0.057,1.082,0.862,1.002,1.81l0,0c-0.082,0.943-0.662,1.664-1.301,1.608
			l-49.752-4.271C26.447,102.894,25.998,102.085,26.08,101.14L26.08,101.14z"/>
		
			<linearGradient id="SVGID_22_" gradientUnits="userSpaceOnUse" x1="920.9863" y1="420.6973" x2="973.2197" y2="420.6973" gradientTransform="matrix(-0.9979 0.0653 0.0653 0.9979 969.7485 -357.3262)">
			<stop  offset="0" style="stop-color:#D9D9D9"/>
			<stop  offset="0.0029" style="stop-color:#DADADA"/>
			<stop  offset="0.0586" style="stop-color:#EBEBEB"/>
			<stop  offset="0.1276" style="stop-color:#F6F6F6"/>
			<stop  offset="0.2248" style="stop-color:#FDFDFD"/>
			<stop  offset="0.4945" style="stop-color:#FFFFFF"/>
			<stop  offset="0.7703" style="stop-color:#FDFDFD"/>
			<stop  offset="0.8696" style="stop-color:#F6F6F6"/>
			<stop  offset="0.9401" style="stop-color:#EBEBEB"/>
			<stop  offset="0.997" style="stop-color:#DADADA"/>
			<stop  offset="1" style="stop-color:#D9D9D9"/>
		</linearGradient>
		<path fill="url(#SVGID_22_)" stroke="#231F20" stroke-width="0.379" stroke-dasharray="1.5161,0.758" d="M26.08,126.57
			c0.082,0.942,0.662,1.662,1.301,1.608l49.75-4.271c0.635-0.056,1.082-0.861,1.002-1.809l0,0c-0.082-0.944-0.662-1.664-1.301-1.609
			l-49.752,4.271C26.447,124.817,25.998,125.624,26.08,126.57L26.08,126.57z"/>
		
			<linearGradient id="SVGID_23_" gradientUnits="userSpaceOnUse" x1="920.4375" y1="412.3223" x2="972.6709" y2="412.3223" gradientTransform="matrix(-0.9979 0.0653 0.0653 0.9979 969.7485 -357.3262)">
			<stop  offset="0" style="stop-color:#D9D9D9"/>
			<stop  offset="0.0029" style="stop-color:#DADADA"/>
			<stop  offset="0.0586" style="stop-color:#EBEBEB"/>
			<stop  offset="0.1276" style="stop-color:#F6F6F6"/>
			<stop  offset="0.2248" style="stop-color:#FDFDFD"/>
			<stop  offset="0.4945" style="stop-color:#FFFFFF"/>
			<stop  offset="0.7703" style="stop-color:#FDFDFD"/>
			<stop  offset="0.8696" style="stop-color:#F6F6F6"/>
			<stop  offset="0.9401" style="stop-color:#EBEBEB"/>
			<stop  offset="0.997" style="stop-color:#DADADA"/>
			<stop  offset="1" style="stop-color:#D9D9D9"/>
		</linearGradient>
		<path fill="url(#SVGID_23_)" stroke="#231F20" stroke-width="0.379" stroke-dasharray="1.5161,0.758" d="M26.08,118.175
			c0.082,0.944,0.662,1.667,1.301,1.611l49.75-4.271c0.635-0.057,1.082-0.862,1.002-1.81l0,0c-0.082-0.943-0.662-1.663-1.301-1.608
			l-49.752,4.271C26.447,116.421,25.998,117.228,26.08,118.175L26.08,118.175z"/>
		
			<linearGradient id="SVGID_24_" gradientUnits="userSpaceOnUse" x1="919.8906" y1="403.9463" x2="972.123" y2="403.9463" gradientTransform="matrix(-0.9979 0.0653 0.0653 0.9979 969.7485 -357.3262)">
			<stop  offset="0" style="stop-color:#D9D9D9"/>
			<stop  offset="0.0029" style="stop-color:#DADADA"/>
			<stop  offset="0.0586" style="stop-color:#EBEBEB"/>
			<stop  offset="0.1276" style="stop-color:#F6F6F6"/>
			<stop  offset="0.2248" style="stop-color:#FDFDFD"/>
			<stop  offset="0.4945" style="stop-color:#FFFFFF"/>
			<stop  offset="0.7703" style="stop-color:#FDFDFD"/>
			<stop  offset="0.8696" style="stop-color:#F6F6F6"/>
			<stop  offset="0.9401" style="stop-color:#EBEBEB"/>
			<stop  offset="0.997" style="stop-color:#DADADA"/>
			<stop  offset="1" style="stop-color:#D9D9D9"/>
		</linearGradient>
		<path fill="url(#SVGID_24_)" stroke="#231F20" stroke-width="0.379" stroke-dasharray="1.5161,0.758" d="M26.08,109.782
			c0.082,0.943,0.662,1.664,1.301,1.609l49.75-4.27c0.635-0.057,1.082-0.864,1.002-1.811l0,0c-0.082-0.943-0.662-1.663-1.301-1.609
			l-49.752,4.271C26.447,108.03,25.998,108.836,26.08,109.782L26.08,109.782z"/>
		
			<linearGradient id="SVGID_25_" gradientUnits="userSpaceOnUse" x1="891.7998" y1="-25.3154" x2="944.0322" y2="-25.3154" gradientTransform="matrix(-0.9979 -0.0653 0.0653 -0.9979 969.7485 196.334)">
			<stop  offset="0" style="stop-color:#B3B3B3"/>
			<stop  offset="0.0185" style="stop-color:#B6B6B6"/>
			<stop  offset="0.2268" style="stop-color:#DEDEDE"/>
			<stop  offset="0.3927" style="stop-color:#F6F6F6"/>
			<stop  offset="0.4945" style="stop-color:#FFFFFF"/>
			<stop  offset="0.6034" style="stop-color:#F5F5F5"/>
			<stop  offset="0.7911" style="stop-color:#D9D9D9"/>
			<stop  offset="1" style="stop-color:#B3B3B3"/>
		</linearGradient>
		<path fill="url(#SVGID_25_)" stroke="#231F20" stroke-width="0.379" stroke-dasharray="1.5161,0.758" d="M26.08,159.421
			c0.082-0.943,0.662-1.665,1.301-1.611l49.75,4.273c0.635,0.057,1.082,0.862,1.002,1.81l0,0c-0.082,0.942-0.662,1.663-1.301,1.607
			l-49.752-4.271C26.447,161.174,25.998,160.368,26.08,159.421L26.08,159.421z"/>
		
			<linearGradient id="SVGID_26_" gradientUnits="userSpaceOnUse" x1="892.3477" y1="-16.9414" x2="944.5801" y2="-16.9414" gradientTransform="matrix(-0.9979 -0.0653 0.0653 -0.9979 969.7485 196.334)">
			<stop  offset="0" style="stop-color:#B3B3B3"/>
			<stop  offset="0.0185" style="stop-color:#B6B6B6"/>
			<stop  offset="0.2268" style="stop-color:#DEDEDE"/>
			<stop  offset="0.3927" style="stop-color:#F6F6F6"/>
			<stop  offset="0.4945" style="stop-color:#FFFFFF"/>
			<stop  offset="0.6034" style="stop-color:#F5F5F5"/>
			<stop  offset="0.7911" style="stop-color:#D9D9D9"/>
			<stop  offset="1" style="stop-color:#B3B3B3"/>
		</linearGradient>
		<path fill="url(#SVGID_26_)" stroke="#231F20" stroke-width="0.379" stroke-dasharray="1.5161,0.758" d="M26.08,151.027
			c0.082-0.942,0.662-1.664,1.301-1.61l49.75,4.271c0.635,0.055,1.082,0.864,1.002,1.809l0,0c-0.082,0.944-0.662,1.664-1.301,1.611
			l-49.752-4.273C26.447,152.78,25.998,151.975,26.08,151.027L26.08,151.027z"/>
		
			<linearGradient id="SVGID_27_" gradientUnits="userSpaceOnUse" x1="892.8955" y1="-8.5664" x2="945.1289" y2="-8.5664" gradientTransform="matrix(-0.9979 -0.0653 0.0653 -0.9979 969.7485 196.334)">
			<stop  offset="0" style="stop-color:#B3B3B3"/>
			<stop  offset="0.0185" style="stop-color:#B6B6B6"/>
			<stop  offset="0.2268" style="stop-color:#DEDEDE"/>
			<stop  offset="0.3927" style="stop-color:#F6F6F6"/>
			<stop  offset="0.4945" style="stop-color:#FFFFFF"/>
			<stop  offset="0.6034" style="stop-color:#F5F5F5"/>
			<stop  offset="0.7911" style="stop-color:#D9D9D9"/>
			<stop  offset="1" style="stop-color:#B3B3B3"/>
		</linearGradient>
		<path fill="url(#SVGID_27_)" stroke="#231F20" stroke-width="0.379" stroke-dasharray="1.5161,0.758" d="M26.08,142.633
			c0.082-0.942,0.662-1.663,1.301-1.608l49.75,4.271c0.635,0.057,1.082,0.863,1.002,1.811l0,0c-0.082,0.942-0.662,1.662-1.301,1.607
			l-49.752-4.271C26.447,144.388,25.998,143.58,26.08,142.633L26.08,142.633z"/>
		
			<linearGradient id="SVGID_28_" gradientUnits="userSpaceOnUse" x1="893.4473" y1="-0.1377" x2="945.6797" y2="-0.1377" gradientTransform="matrix(-0.9979 -0.0653 0.0653 -0.9979 969.7485 196.334)">
			<stop  offset="0" style="stop-color:#B3B3B3"/>
			<stop  offset="0.0185" style="stop-color:#B6B6B6"/>
			<stop  offset="0.2268" style="stop-color:#DEDEDE"/>
			<stop  offset="0.3927" style="stop-color:#F6F6F6"/>
			<stop  offset="0.4945" style="stop-color:#FFFFFF"/>
			<stop  offset="0.6034" style="stop-color:#F5F5F5"/>
			<stop  offset="0.7911" style="stop-color:#D9D9D9"/>
			<stop  offset="1" style="stop-color:#B3B3B3"/>
		</linearGradient>
		<path fill="url(#SVGID_28_)" stroke="#231F20" stroke-width="0.379" stroke-dasharray="1.5161,0.758" d="M26.08,134.189
			c0.082-0.944,0.662-1.665,1.301-1.612l49.75,4.273c0.635,0.056,1.082,0.861,1.002,1.809l0,0c-0.082,0.945-0.662,1.664-1.301,1.608
			l-49.752-4.271C26.447,135.942,25.998,135.136,26.08,134.189L26.08,134.189z"/>
		
			<linearGradient id="SVGID_29_" gradientUnits="userSpaceOnUse" x1="923.6914" y1="462.0508" x2="975.9248" y2="462.0508" gradientTransform="matrix(-0.9979 0.0653 0.0653 0.9979 969.7485 -357.3262)">
			<stop  offset="0" style="stop-color:#D9D9D9"/>
			<stop  offset="0.0029" style="stop-color:#DADADA"/>
			<stop  offset="0.0586" style="stop-color:#EBEBEB"/>
			<stop  offset="0.1276" style="stop-color:#F6F6F6"/>
			<stop  offset="0.2248" style="stop-color:#FDFDFD"/>
			<stop  offset="0.4945" style="stop-color:#FFFFFF"/>
			<stop  offset="0.7703" style="stop-color:#FDFDFD"/>
			<stop  offset="0.8696" style="stop-color:#F6F6F6"/>
			<stop  offset="0.9401" style="stop-color:#EBEBEB"/>
			<stop  offset="0.997" style="stop-color:#DADADA"/>
			<stop  offset="1" style="stop-color:#D9D9D9"/>
		</linearGradient>
		<path fill="url(#SVGID_29_)" stroke="#231F20" stroke-width="0.379" stroke-dasharray="1.5161,0.758" d="M26.08,168.013
			c0.082,0.943,0.662,1.664,1.301,1.61l49.75-4.271c0.635-0.056,1.082-0.863,1.002-1.81l0,0c-0.082-0.945-0.662-1.663-1.301-1.609
			l-49.752,4.271C26.447,166.259,25.998,167.067,26.08,168.013L26.08,168.013z"/>
		
			<linearGradient id="SVGID_30_" gradientUnits="userSpaceOnUse" x1="923.1445" y1="453.6758" x2="975.377" y2="453.6758" gradientTransform="matrix(-0.9979 0.0653 0.0653 0.9979 969.7485 -357.3262)">
			<stop  offset="0" style="stop-color:#D9D9D9"/>
			<stop  offset="0.0029" style="stop-color:#DADADA"/>
			<stop  offset="0.0586" style="stop-color:#EBEBEB"/>
			<stop  offset="0.1276" style="stop-color:#F6F6F6"/>
			<stop  offset="0.2248" style="stop-color:#FDFDFD"/>
			<stop  offset="0.4945" style="stop-color:#FFFFFF"/>
			<stop  offset="0.7703" style="stop-color:#FDFDFD"/>
			<stop  offset="0.8696" style="stop-color:#F6F6F6"/>
			<stop  offset="0.9401" style="stop-color:#EBEBEB"/>
			<stop  offset="0.997" style="stop-color:#DADADA"/>
			<stop  offset="1" style="stop-color:#D9D9D9"/>
		</linearGradient>
		<path fill="url(#SVGID_30_)" stroke="#231F20" stroke-width="0.379" stroke-dasharray="1.5161,0.758" d="M26.08,159.618
			c0.082,0.946,0.662,1.666,1.301,1.611l49.75-4.271c0.635-0.057,1.082-0.863,1.002-1.811l0,0c-0.082-0.943-0.662-1.662-1.301-1.607
			l-49.752,4.27C26.447,157.865,25.998,158.673,26.08,159.618L26.08,159.618z"/>
		
			<linearGradient id="SVGID_31_" gradientUnits="userSpaceOnUse" x1="922.5957" y1="445.2998" x2="974.8291" y2="445.2998" gradientTransform="matrix(-0.9979 0.0653 0.0653 0.9979 969.7485 -357.3262)">
			<stop  offset="0" style="stop-color:#D9D9D9"/>
			<stop  offset="0.0029" style="stop-color:#DADADA"/>
			<stop  offset="0.0586" style="stop-color:#EBEBEB"/>
			<stop  offset="0.1276" style="stop-color:#F6F6F6"/>
			<stop  offset="0.2248" style="stop-color:#FDFDFD"/>
			<stop  offset="0.4945" style="stop-color:#FFFFFF"/>
			<stop  offset="0.7703" style="stop-color:#FDFDFD"/>
			<stop  offset="0.8696" style="stop-color:#F6F6F6"/>
			<stop  offset="0.9401" style="stop-color:#EBEBEB"/>
			<stop  offset="0.997" style="stop-color:#DADADA"/>
			<stop  offset="1" style="stop-color:#D9D9D9"/>
		</linearGradient>
		<path fill="url(#SVGID_31_)" stroke="#231F20" stroke-width="0.379" stroke-dasharray="1.5161,0.758" d="M26.08,151.226
			c0.082,0.943,0.662,1.664,1.301,1.609l49.75-4.27c0.635-0.057,1.082-0.865,1.002-1.812l0,0c-0.082-0.942-0.662-1.661-1.301-1.608
			l-49.752,4.271C26.447,149.474,25.998,150.28,26.08,151.226L26.08,151.226z"/>
		
			<linearGradient id="SVGID_32_" gradientUnits="userSpaceOnUse" x1="922.0479" y1="436.9258" x2="974.2803" y2="436.9258" gradientTransform="matrix(-0.9979 0.0653 0.0653 0.9979 969.7485 -357.3262)">
			<stop  offset="0" style="stop-color:#D9D9D9"/>
			<stop  offset="0.0029" style="stop-color:#DADADA"/>
			<stop  offset="0.0586" style="stop-color:#EBEBEB"/>
			<stop  offset="0.1276" style="stop-color:#F6F6F6"/>
			<stop  offset="0.2248" style="stop-color:#FDFDFD"/>
			<stop  offset="0.4945" style="stop-color:#FFFFFF"/>
			<stop  offset="0.7703" style="stop-color:#FDFDFD"/>
			<stop  offset="0.8696" style="stop-color:#F6F6F6"/>
			<stop  offset="0.9401" style="stop-color:#EBEBEB"/>
			<stop  offset="0.997" style="stop-color:#DADADA"/>
			<stop  offset="1" style="stop-color:#D9D9D9"/>
		</linearGradient>
		<path fill="url(#SVGID_32_)" stroke="#231F20" stroke-width="0.379" stroke-dasharray="1.5161,0.758" d="M26.08,142.833
			c0.082,0.941,0.662,1.662,1.301,1.609l49.75-4.271c0.635-0.056,1.082-0.863,1.002-1.811l0,0c-0.082-0.943-0.662-1.662-1.301-1.607
			l-49.752,4.271C26.447,141.079,25.998,141.887,26.08,142.833L26.08,142.833z"/>
		<path fill="#FFFFFF" stroke="#231F20" stroke-width="0.379" d="M27.443,166.162H0.795c-0.34-0.003-0.617,0.761-0.617,1.708l0,0
			c0,0.943,0.277,1.705,0.617,1.705h26.648"/>
		<path fill="#FFFFFF" stroke="#231F20" stroke-width="0.379" d="M27.443,99.433H0.795c-0.34-0.001-0.617,0.764-0.617,1.711l0,0
			c0,0.941,0.277,1.705,0.617,1.705h26.648"/>
		
			<linearGradient id="SVGID_33_" gradientUnits="userSpaceOnUse" x1="921.5342" y1="429.0723" x2="973.7666" y2="429.0723" gradientTransform="matrix(-0.9979 0.0653 0.0653 0.9979 969.7485 -357.3262)">
			<stop  offset="0" style="stop-color:#D9D9D9"/>
			<stop  offset="0.0029" style="stop-color:#DADADA"/>
			<stop  offset="0.0586" style="stop-color:#EBEBEB"/>
			<stop  offset="0.1276" style="stop-color:#F6F6F6"/>
			<stop  offset="0.2248" style="stop-color:#FDFDFD"/>
			<stop  offset="0.4945" style="stop-color:#FFFFFF"/>
			<stop  offset="0.7703" style="stop-color:#FDFDFD"/>
			<stop  offset="0.8696" style="stop-color:#F6F6F6"/>
			<stop  offset="0.9401" style="stop-color:#EBEBEB"/>
			<stop  offset="0.997" style="stop-color:#DADADA"/>
			<stop  offset="1" style="stop-color:#D9D9D9"/>
		</linearGradient>
		<path fill="url(#SVGID_33_)" stroke="#231F20" stroke-width="0.379" stroke-dasharray="1.5161,0.758" d="M26.08,134.962
			c0.082,0.945,0.662,1.666,1.301,1.61l49.75-4.271c0.635-0.058,1.082-0.863,1.002-1.813l0,0c-0.082-0.941-0.662-1.66-1.301-1.606
			l-49.752,4.272C26.447,133.208,25.998,134.016,26.08,134.962L26.08,134.962z"/>
	</g>
</g>
</svg>
