<?xml version="1.0" encoding="utf-8"?>
<!-- Generator: Adobe Illustrator 16.0.0, SVG Export Plug-In . SVG Version: 6.00 Build 0)  -->
<!DOCTYPE svg PUBLIC "-//W3C//DTD SVG 1.1//EN" "http://www.w3.org/Graphics/SVG/1.1/DTD/svg11.dtd">
<svg version="1.1" id="Layer_1" xmlns="http://www.w3.org/2000/svg" xmlns:xlink="http://www.w3.org/1999/xlink" x="0px" y="0px"
	 width="213px" height="192px" viewBox="0 0 213 192" enable-background="new 0 0 213 192" xml:space="preserve">
<pattern  width="25.75" height="18.375" patternUnits="userSpaceOnUse" id="concrete" viewBox="0 -18.375 25.75 18.375" overflow="visible">
	<g>
		<polygon fill="none" points="0,0 25.75,0 25.75,-18.375 0,-18.375 		"/>
		<polygon fill="#D1D1D1" points="25.667,-18.375 0.042,-18.375 0.042,0 25.667,0 		"/>
		
			<path fill="#545454" stroke="#010101" stroke-width="0.25" stroke-linecap="round" stroke-linejoin="round" stroke-miterlimit="10" d="
			M17.834-9.625c0,0.46-0.373,0.833-0.833,0.833c-0.461,0-0.834-0.373-0.834-0.833c0-0.461,0.373-0.834,0.834-0.834
			C17.461-10.459,17.834-10.086,17.834-9.625z"/>
		
			<path fill="#949494" stroke="#010101" stroke-width="0.25" stroke-linecap="round" stroke-linejoin="round" stroke-miterlimit="10" d="
			M5.459-8.75c0,0.322-0.485,0.583-1.083,0.583c-0.599,0-1.084-0.261-1.084-0.583s0.485-0.583,1.084-0.583
			C4.974-9.333,5.459-9.072,5.459-8.75z"/>
		
			<path fill="#D4D4D4" stroke="#010101" stroke-width="0.25" stroke-linecap="round" stroke-linejoin="round" stroke-miterlimit="10" d="
			M12.125-5.916c0,0.321-0.299,0.583-0.667,0.583c-0.367,0-0.666-0.262-0.666-0.583c0-0.322,0.299-0.584,0.666-0.584
			C11.826-6.5,12.125-6.238,12.125-5.916z"/>
		
			<path fill="#545454" stroke="#010101" stroke-width="0.25" stroke-linecap="round" stroke-linejoin="round" stroke-miterlimit="10" d="
			M22.709-0.875c0,0.321-0.299,0.583-0.667,0.583c-0.367,0-0.666-0.262-0.666-0.583c0-0.322,0.299-0.584,0.666-0.584
			C22.41-1.459,22.709-1.197,22.709-0.875z"/>
		
			<path fill="#F2F2F2" stroke="#010101" stroke-width="0.25" stroke-linecap="round" stroke-linejoin="round" stroke-miterlimit="10" d="
			M4.959-15.916c0,0.321-0.299,0.583-0.667,0.583s-0.667-0.262-0.667-0.583c0-0.322,0.299-0.584,0.667-0.584
			S4.959-16.238,4.959-15.916z"/>
		
			<path fill="#F2F2F2" stroke="#010101" stroke-width="0.25" stroke-linecap="round" stroke-linejoin="round" stroke-miterlimit="10" d="
			M11.459-12.917c0,0.138-0.112,0.25-0.25,0.25s-0.25-0.112-0.25-0.25s0.112-0.25,0.25-0.25S11.459-13.055,11.459-12.917z"/>
		
			<path fill="#E6E6E6" stroke="#010101" stroke-width="0.25" stroke-linecap="round" stroke-linejoin="round" stroke-miterlimit="10" d="
			M23.792-14.25c0,0.138-0.187,0.25-0.416,0.25c-0.23,0-0.417-0.112-0.417-0.25s0.187-0.25,0.417-0.25
			C23.605-14.5,23.792-14.388,23.792-14.25z"/>
		
			<path fill="#F2F2F2" stroke="#010101" stroke-width="0.25" stroke-linecap="round" stroke-linejoin="round" stroke-miterlimit="10" d="
			M19.459-4.583c0,0.138-0.112,0.25-0.25,0.25s-0.25-0.112-0.25-0.25s0.112-0.25,0.25-0.25S19.459-4.721,19.459-4.583z"/>
		
			<path fill="#949494" stroke="#010101" stroke-width="0.25" stroke-linecap="round" stroke-linejoin="round" stroke-miterlimit="10" d="
			M3.959-2.333c0,0.276-0.261,0.5-0.583,0.5s-0.584-0.224-0.584-0.5s0.262-0.5,0.584-0.5S3.959-2.609,3.959-2.333z"/>
		
			<path fill="#BDBDBD" stroke="#010101" stroke-width="0.25" stroke-linecap="round" stroke-linejoin="round" stroke-miterlimit="10" d="
			M0.459-12c0,0.276-0.075,0.5-0.167,0.5S0.125-11.724,0.125-12s0.075-0.5,0.167-0.5S0.459-12.276,0.459-12z"/>
		
			<path fill="#545454" stroke="#010101" stroke-width="0.25" stroke-linecap="round" stroke-linejoin="round" stroke-miterlimit="10" d="
			M8.625-11.25c0,0.138-0.112,0.25-0.25,0.25s-0.25-0.112-0.25-0.25s0.112-0.25,0.25-0.25S8.625-11.388,8.625-11.25z"/>
		
			<path fill="#545454" stroke="#010101" stroke-width="0.25" stroke-linecap="round" stroke-linejoin="round" stroke-miterlimit="10" d="
			M9.292-16.666c0,0.184-0.149,0.333-0.334,0.333c-0.184,0-0.333-0.149-0.333-0.333C8.625-16.851,8.774-17,8.958-17
			C9.143-17,9.292-16.851,9.292-16.666z"/>
		
			<path fill="#E6E6E6" stroke="#010101" stroke-width="0.25" stroke-linecap="round" stroke-linejoin="round" stroke-miterlimit="10" d="
			M19.125-16c0,0.092-0.224,0.167-0.5,0.167s-0.5-0.075-0.5-0.167s0.224-0.167,0.5-0.167S19.125-16.092,19.125-16z"/>
		
			<path fill="#F2F2F2" stroke="#010101" stroke-width="0.25" stroke-linecap="round" stroke-linejoin="round" stroke-miterlimit="10" d="
			M14.959-14c0,0.276-0.149,0.5-0.333,0.5c-0.185,0-0.334-0.224-0.334-0.5s0.149-0.5,0.334-0.5C14.81-14.5,14.959-14.276,14.959-14z
			"/>
		
			<path fill="#545454" stroke="#010101" stroke-width="0.25" stroke-linecap="round" stroke-linejoin="round" stroke-miterlimit="10" d="
			M15.625-6.166C15.625-6.074,15.551-6,15.458-6c-0.092,0-0.166-0.074-0.166-0.166c0-0.093,0.074-0.167,0.166-0.167
			C15.551-6.333,15.625-6.259,15.625-6.166z"/>
		
			<path fill="#F2F2F2" stroke="#010101" stroke-width="0.25" stroke-linecap="round" stroke-linejoin="round" stroke-miterlimit="10" d="
			M7.917-4.667c0,0.092-0.112,0.167-0.25,0.167s-0.25-0.075-0.25-0.167s0.112-0.167,0.25-0.167S7.917-4.759,7.917-4.667z"/>
		
			<path fill="#545454" stroke="#010101" stroke-width="0.25" stroke-linecap="round" stroke-linejoin="round" stroke-miterlimit="10" d="
			M23.625-8.666c0,0.184-0.112,0.333-0.25,0.333s-0.25-0.149-0.25-0.333c0-0.185,0.112-0.334,0.25-0.334S23.625-8.851,23.625-8.666z
			"/>
		
			<path fill="#545454" stroke="#010101" stroke-width="0.25" stroke-linecap="round" stroke-linejoin="round" stroke-miterlimit="10" d="
			M23.792-6.125c0,0.092-0.037,0.167-0.084,0.167c-0.046,0-0.083-0.075-0.083-0.167s0.037-0.167,0.083-0.167
			C23.755-6.292,23.792-6.217,23.792-6.125z"/>
		
			<path fill="#F2F2F2" stroke="#010101" stroke-width="0.25" stroke-linecap="round" stroke-linejoin="round" stroke-miterlimit="10" d="
			M11.751-0.833c0,0.092-0.037,0.167-0.084,0.167c-0.046,0-0.083-0.075-0.083-0.167S11.621-1,11.667-1
			C11.714-1,11.751-0.925,11.751-0.833z"/>
		
			<path fill="#545454" stroke="#010101" stroke-width="0.25" stroke-linecap="round" stroke-linejoin="round" stroke-miterlimit="10" d="
			M14.959-2.416C14.959-2.187,14.772-2,14.542-2s-0.417-0.187-0.417-0.416c0-0.23,0.187-0.417,0.417-0.417
			S14.959-2.646,14.959-2.416z"/>
		
			<path fill="#E6E6E6" stroke="#010101" stroke-width="0.25" stroke-linecap="round" stroke-linejoin="round" stroke-miterlimit="10" d="
			M25.625-16.584c0,0.23-0.149,0.417-0.333,0.417s-0.333-0.187-0.333-0.417c0-0.229,0.149-0.416,0.333-0.416
			S25.625-16.813,25.625-16.584z"/>
		
			<path fill="#545454" stroke="#010101" stroke-width="0.25" stroke-linecap="round" stroke-linejoin="round" stroke-miterlimit="10" d="
			M0.792-5.166C0.792-5.074,0.718-5,0.626-5C0.533-5,0.459-5.074,0.459-5.166c0-0.093,0.074-0.167,0.167-0.167
			C0.718-5.333,0.792-5.259,0.792-5.166z"/>
		
			<path fill="#545454" stroke="#010101" stroke-width="0.25" stroke-linecap="round" stroke-linejoin="round" stroke-miterlimit="10" d="
			M12.959-9.666c0,0.092-0.075,0.166-0.167,0.166s-0.167-0.074-0.167-0.166c0-0.093,0.075-0.167,0.167-0.167
			S12.959-9.759,12.959-9.666z"/>
		
			<path fill="#F5F5F5" stroke="#010101" stroke-width="0.25" stroke-linecap="round" stroke-linejoin="round" stroke-miterlimit="10" d="
			M20.959-11.333c0,0.276-0.075,0.5-0.167,0.5s-0.167-0.224-0.167-0.5s0.075-0.5,0.167-0.5S20.959-11.609,20.959-11.333z"/>
	</g>
</pattern>
<g>
	
		<rect x="5.518" y="0.446" fill="url(#concrete)" stroke="#010101" stroke-width="1.0085" stroke-linecap="round" stroke-linejoin="round" stroke-miterlimit="10" width="207.932" height="191.166"/>
	<linearGradient id="SVGID_1_" gradientUnits="userSpaceOnUse" x1="111.0508" y1="13.2349" x2="110.3306" y2="175.3032">
		<stop  offset="0" style="stop-color:#28A8E0"/>
		<stop  offset="1" style="stop-color:#2E368F"/>
	</linearGradient>
	
		<rect x="20.886" y="13.632" fill="url(#SVGID_1_)" stroke="#010101" stroke-width="0.9931" stroke-linecap="round" stroke-linejoin="round" stroke-miterlimit="10" width="179.598" height="163.749"/>
	<g>
		
			<linearGradient id="SVGID_2_" gradientUnits="userSpaceOnUse" x1="887.2383" y1="11.9082" x2="939.4727" y2="11.9082" gradientTransform="matrix(-0.9979 -0.0653 0.0653 -0.9979 963.5591 202.1318)">
			<stop  offset="0" style="stop-color:#B3B3B3"/>
			<stop  offset="0.0185" style="stop-color:#B6B6B6"/>
			<stop  offset="0.2268" style="stop-color:#DEDEDE"/>
			<stop  offset="0.3927" style="stop-color:#F6F6F6"/>
			<stop  offset="0.4945" style="stop-color:#FFFFFF"/>
			<stop  offset="0.6034" style="stop-color:#F5F5F5"/>
			<stop  offset="0.7911" style="stop-color:#D9D9D9"/>
			<stop  offset="1" style="stop-color:#B3B3B3"/>
		</linearGradient>
		<path fill="url(#SVGID_2_)" stroke="#231F20" stroke-width="0.379" stroke-dasharray="1.5161,0.758" d="M26.87,128.371
			c0.084-0.942,0.663-1.665,1.301-1.61l49.753,4.271c0.635,0.058,1.082,0.863,1.002,1.811l0,0c-0.084,0.943-0.664,1.661-1.301,1.607
			l-49.753-4.271C27.237,130.124,26.79,129.317,26.87,128.371L26.87,128.371z"/>
		
			<linearGradient id="SVGID_3_" gradientUnits="userSpaceOnUse" x1="887.7861" y1="20.2822" x2="940.0215" y2="20.2822" gradientTransform="matrix(-0.9979 -0.0653 0.0653 -0.9979 963.5591 202.1318)">
			<stop  offset="0" style="stop-color:#B3B3B3"/>
			<stop  offset="0.0185" style="stop-color:#B6B6B6"/>
			<stop  offset="0.2268" style="stop-color:#DEDEDE"/>
			<stop  offset="0.3927" style="stop-color:#F6F6F6"/>
			<stop  offset="0.4945" style="stop-color:#FFFFFF"/>
			<stop  offset="0.6034" style="stop-color:#F5F5F5"/>
			<stop  offset="0.7911" style="stop-color:#D9D9D9"/>
			<stop  offset="1" style="stop-color:#B3B3B3"/>
		</linearGradient>
		<path fill="url(#SVGID_3_)" stroke="#231F20" stroke-width="0.379" stroke-dasharray="1.5161,0.758" d="M26.87,119.978
			c0.084-0.945,0.663-1.666,1.301-1.609l49.753,4.27c0.635,0.058,1.082,0.863,1.002,1.813l0,0c-0.084,0.943-0.664,1.661-1.301,1.607
			l-49.753-4.271C27.237,121.731,26.79,120.923,26.87,119.978L26.87,119.978z"/>
		
			<linearGradient id="SVGID_4_" gradientUnits="userSpaceOnUse" x1="888.334" y1="28.6577" x2="940.5703" y2="28.6577" gradientTransform="matrix(-0.9979 -0.0653 0.0653 -0.9979 963.5591 202.1318)">
			<stop  offset="0" style="stop-color:#B3B3B3"/>
			<stop  offset="0.0185" style="stop-color:#B6B6B6"/>
			<stop  offset="0.2268" style="stop-color:#DEDEDE"/>
			<stop  offset="0.3927" style="stop-color:#F6F6F6"/>
			<stop  offset="0.4945" style="stop-color:#FFFFFF"/>
			<stop  offset="0.6034" style="stop-color:#F5F5F5"/>
			<stop  offset="0.7911" style="stop-color:#D9D9D9"/>
			<stop  offset="1" style="stop-color:#B3B3B3"/>
		</linearGradient>
		<path fill="url(#SVGID_4_)" stroke="#231F20" stroke-width="0.379" stroke-dasharray="1.5161,0.758" d="M26.87,111.584
			c0.084-0.943,0.663-1.663,1.301-1.61l49.753,4.272c0.635,0.056,1.082,0.862,1.002,1.81l0,0c-0.084,0.943-0.664,1.662-1.301,1.608
			l-49.753-4.272C27.237,113.337,26.79,112.53,26.87,111.584L26.87,111.584z"/>
		
			<linearGradient id="SVGID_5_" gradientUnits="userSpaceOnUse" x1="888.8857" y1="37.084" x2="941.1211" y2="37.084" gradientTransform="matrix(-0.9979 -0.0653 0.0653 -0.9979 963.5591 202.1318)">
			<stop  offset="0" style="stop-color:#B3B3B3"/>
			<stop  offset="0.0185" style="stop-color:#B6B6B6"/>
			<stop  offset="0.2268" style="stop-color:#DEDEDE"/>
			<stop  offset="0.3927" style="stop-color:#F6F6F6"/>
			<stop  offset="0.4945" style="stop-color:#FFFFFF"/>
			<stop  offset="0.6034" style="stop-color:#F5F5F5"/>
			<stop  offset="0.7911" style="stop-color:#D9D9D9"/>
			<stop  offset="1" style="stop-color:#B3B3B3"/>
		</linearGradient>
		<path fill="url(#SVGID_5_)" stroke="#231F20" stroke-width="0.379" stroke-dasharray="1.5161,0.758" d="M26.87,103.14
			c0.084-0.943,0.663-1.664,1.301-1.61l49.753,4.271c0.635,0.057,1.082,0.862,1.002,1.81l0,0c-0.084,0.943-0.664,1.664-1.301,1.608
			l-49.753-4.271C27.237,104.894,26.79,104.085,26.87,103.14L26.87,103.14z"/>
		
			<linearGradient id="SVGID_6_" gradientUnits="userSpaceOnUse" x1="914.1367" y1="422.9473" x2="966.3711" y2="422.9473" gradientTransform="matrix(-0.9979 0.0653 0.0653 0.9979 963.5591 -357.124)">
			<stop  offset="0" style="stop-color:#D9D9D9"/>
			<stop  offset="0.0029" style="stop-color:#DADADA"/>
			<stop  offset="0.0586" style="stop-color:#EBEBEB"/>
			<stop  offset="0.1276" style="stop-color:#F6F6F6"/>
			<stop  offset="0.2248" style="stop-color:#FDFDFD"/>
			<stop  offset="0.4945" style="stop-color:#FFFFFF"/>
			<stop  offset="0.7703" style="stop-color:#FDFDFD"/>
			<stop  offset="0.8696" style="stop-color:#F6F6F6"/>
			<stop  offset="0.9401" style="stop-color:#EBEBEB"/>
			<stop  offset="0.997" style="stop-color:#DADADA"/>
			<stop  offset="1" style="stop-color:#D9D9D9"/>
		</linearGradient>
		<path fill="url(#SVGID_6_)" stroke="#231F20" stroke-width="0.379" stroke-dasharray="1.5161,0.758" d="M26.87,128.57
			c0.084,0.942,0.663,1.662,1.301,1.608l49.753-4.271c0.635-0.056,1.082-0.861,1.002-1.809l0,0
			c-0.084-0.944-0.664-1.664-1.301-1.609l-49.753,4.271C27.237,126.817,26.79,127.624,26.87,128.57L26.87,128.57z"/>
		
			<linearGradient id="SVGID_7_" gradientUnits="userSpaceOnUse" x1="913.5879" y1="414.5723" x2="965.8232" y2="414.5723" gradientTransform="matrix(-0.9979 0.0653 0.0653 0.9979 963.5591 -357.124)">
			<stop  offset="0" style="stop-color:#D9D9D9"/>
			<stop  offset="0.0029" style="stop-color:#DADADA"/>
			<stop  offset="0.0586" style="stop-color:#EBEBEB"/>
			<stop  offset="0.1276" style="stop-color:#F6F6F6"/>
			<stop  offset="0.2248" style="stop-color:#FDFDFD"/>
			<stop  offset="0.4945" style="stop-color:#FFFFFF"/>
			<stop  offset="0.7703" style="stop-color:#FDFDFD"/>
			<stop  offset="0.8696" style="stop-color:#F6F6F6"/>
			<stop  offset="0.9401" style="stop-color:#EBEBEB"/>
			<stop  offset="0.997" style="stop-color:#DADADA"/>
			<stop  offset="1" style="stop-color:#D9D9D9"/>
		</linearGradient>
		<path fill="url(#SVGID_7_)" stroke="#231F20" stroke-width="0.379" stroke-dasharray="1.5161,0.758" d="M26.87,120.175
			c0.084,0.944,0.663,1.667,1.301,1.611l49.753-4.271c0.635-0.057,1.082-0.862,1.002-1.81l0,0c-0.084-0.943-0.664-1.663-1.301-1.608
			l-49.753,4.271C27.237,118.421,26.79,119.228,26.87,120.175L26.87,120.175z"/>
		
			<linearGradient id="SVGID_8_" gradientUnits="userSpaceOnUse" x1="913.04" y1="406.1953" x2="965.2754" y2="406.1953" gradientTransform="matrix(-0.9979 0.0653 0.0653 0.9979 963.5591 -357.124)">
			<stop  offset="0" style="stop-color:#D9D9D9"/>
			<stop  offset="0.0029" style="stop-color:#DADADA"/>
			<stop  offset="0.0586" style="stop-color:#EBEBEB"/>
			<stop  offset="0.1276" style="stop-color:#F6F6F6"/>
			<stop  offset="0.2248" style="stop-color:#FDFDFD"/>
			<stop  offset="0.4945" style="stop-color:#FFFFFF"/>
			<stop  offset="0.7703" style="stop-color:#FDFDFD"/>
			<stop  offset="0.8696" style="stop-color:#F6F6F6"/>
			<stop  offset="0.9401" style="stop-color:#EBEBEB"/>
			<stop  offset="0.997" style="stop-color:#DADADA"/>
			<stop  offset="1" style="stop-color:#D9D9D9"/>
		</linearGradient>
		<path fill="url(#SVGID_8_)" stroke="#231F20" stroke-width="0.379" stroke-dasharray="1.5161,0.758" d="M26.87,111.782
			c0.084,0.943,0.663,1.664,1.301,1.609l49.753-4.27c0.635-0.057,1.082-0.864,1.002-1.811l0,0c-0.084-0.943-0.664-1.663-1.301-1.609
			l-49.753,4.271C27.237,110.03,26.79,110.836,26.87,111.782L26.87,111.782z"/>
		
			<linearGradient id="SVGID_9_" gradientUnits="userSpaceOnUse" x1="885.0801" y1="-21.0703" x2="937.3154" y2="-21.0703" gradientTransform="matrix(-0.9979 -0.0653 0.0653 -0.9979 963.5591 202.1318)">
			<stop  offset="0" style="stop-color:#B3B3B3"/>
			<stop  offset="0.0185" style="stop-color:#B6B6B6"/>
			<stop  offset="0.2268" style="stop-color:#DEDEDE"/>
			<stop  offset="0.3927" style="stop-color:#F6F6F6"/>
			<stop  offset="0.4945" style="stop-color:#FFFFFF"/>
			<stop  offset="0.6034" style="stop-color:#F5F5F5"/>
			<stop  offset="0.7911" style="stop-color:#D9D9D9"/>
			<stop  offset="1" style="stop-color:#B3B3B3"/>
		</linearGradient>
		<path fill="url(#SVGID_9_)" stroke="#231F20" stroke-width="0.379" stroke-dasharray="1.5161,0.758" d="M26.87,161.421
			c0.084-0.943,0.663-1.665,1.301-1.611l49.753,4.273c0.635,0.057,1.082,0.862,1.002,1.81l0,0c-0.084,0.942-0.664,1.663-1.301,1.607
			l-49.753-4.271C27.237,163.174,26.79,162.368,26.87,161.421L26.87,161.421z"/>
		
			<linearGradient id="SVGID_10_" gradientUnits="userSpaceOnUse" x1="885.6279" y1="-12.6963" x2="937.8633" y2="-12.6963" gradientTransform="matrix(-0.9979 -0.0653 0.0653 -0.9979 963.5591 202.1318)">
			<stop  offset="0" style="stop-color:#B3B3B3"/>
			<stop  offset="0.0185" style="stop-color:#B6B6B6"/>
			<stop  offset="0.2268" style="stop-color:#DEDEDE"/>
			<stop  offset="0.3927" style="stop-color:#F6F6F6"/>
			<stop  offset="0.4945" style="stop-color:#FFFFFF"/>
			<stop  offset="0.6034" style="stop-color:#F5F5F5"/>
			<stop  offset="0.7911" style="stop-color:#D9D9D9"/>
			<stop  offset="1" style="stop-color:#B3B3B3"/>
		</linearGradient>
		<path fill="url(#SVGID_10_)" stroke="#231F20" stroke-width="0.379" stroke-dasharray="1.5161,0.758" d="M26.87,153.027
			c0.084-0.942,0.663-1.664,1.301-1.61l49.753,4.271c0.635,0.055,1.082,0.864,1.002,1.809l0,0c-0.084,0.944-0.664,1.664-1.301,1.611
			l-49.753-4.273C27.237,154.78,26.79,153.975,26.87,153.027L26.87,153.027z"/>
		
			<linearGradient id="SVGID_11_" gradientUnits="userSpaceOnUse" x1="886.1758" y1="-4.3203" x2="938.4121" y2="-4.3203" gradientTransform="matrix(-0.9979 -0.0653 0.0653 -0.9979 963.5591 202.1318)">
			<stop  offset="0" style="stop-color:#B3B3B3"/>
			<stop  offset="0.0185" style="stop-color:#B6B6B6"/>
			<stop  offset="0.2268" style="stop-color:#DEDEDE"/>
			<stop  offset="0.3927" style="stop-color:#F6F6F6"/>
			<stop  offset="0.4945" style="stop-color:#FFFFFF"/>
			<stop  offset="0.6034" style="stop-color:#F5F5F5"/>
			<stop  offset="0.7911" style="stop-color:#D9D9D9"/>
			<stop  offset="1" style="stop-color:#B3B3B3"/>
		</linearGradient>
		<path fill="url(#SVGID_11_)" stroke="#231F20" stroke-width="0.379" stroke-dasharray="1.5161,0.758" d="M26.87,144.633
			c0.084-0.942,0.663-1.663,1.301-1.608l49.753,4.271c0.635,0.057,1.082,0.863,1.002,1.811l0,0
			c-0.084,0.942-0.664,1.662-1.301,1.607l-49.753-4.271C27.237,146.388,26.79,145.58,26.87,144.633L26.87,144.633z"/>
		
			<linearGradient id="SVGID_12_" gradientUnits="userSpaceOnUse" x1="886.7275" y1="4.1074" x2="938.9629" y2="4.1074" gradientTransform="matrix(-0.9979 -0.0653 0.0653 -0.9979 963.5591 202.1318)">
			<stop  offset="0" style="stop-color:#B3B3B3"/>
			<stop  offset="0.0185" style="stop-color:#B6B6B6"/>
			<stop  offset="0.2268" style="stop-color:#DEDEDE"/>
			<stop  offset="0.3927" style="stop-color:#F6F6F6"/>
			<stop  offset="0.4945" style="stop-color:#FFFFFF"/>
			<stop  offset="0.6034" style="stop-color:#F5F5F5"/>
			<stop  offset="0.7911" style="stop-color:#D9D9D9"/>
			<stop  offset="1" style="stop-color:#B3B3B3"/>
		</linearGradient>
		<path fill="url(#SVGID_12_)" stroke="#231F20" stroke-width="0.379" stroke-dasharray="1.5161,0.758" d="M26.87,136.189
			c0.084-0.944,0.663-1.665,1.301-1.612l49.753,4.273c0.635,0.056,1.082,0.861,1.002,1.809l0,0
			c-0.084,0.945-0.664,1.664-1.301,1.608l-49.753-4.271C27.237,137.942,26.79,137.136,26.87,136.189L26.87,136.189z"/>
		
			<linearGradient id="SVGID_13_" gradientUnits="userSpaceOnUse" x1="916.8418" y1="464.3008" x2="969.0781" y2="464.3008" gradientTransform="matrix(-0.9979 0.0653 0.0653 0.9979 963.5591 -357.124)">
			<stop  offset="0" style="stop-color:#D9D9D9"/>
			<stop  offset="0.0029" style="stop-color:#DADADA"/>
			<stop  offset="0.0586" style="stop-color:#EBEBEB"/>
			<stop  offset="0.1276" style="stop-color:#F6F6F6"/>
			<stop  offset="0.2248" style="stop-color:#FDFDFD"/>
			<stop  offset="0.4945" style="stop-color:#FFFFFF"/>
			<stop  offset="0.7703" style="stop-color:#FDFDFD"/>
			<stop  offset="0.8696" style="stop-color:#F6F6F6"/>
			<stop  offset="0.9401" style="stop-color:#EBEBEB"/>
			<stop  offset="0.997" style="stop-color:#DADADA"/>
			<stop  offset="1" style="stop-color:#D9D9D9"/>
		</linearGradient>
		<path fill="url(#SVGID_13_)" stroke="#231F20" stroke-width="0.379" stroke-dasharray="1.5161,0.758" d="M26.87,170.013
			c0.084,0.943,0.663,1.664,1.301,1.61l49.753-4.271c0.635-0.056,1.082-0.863,1.002-1.81l0,0c-0.084-0.945-0.664-1.663-1.301-1.609
			l-49.753,4.271C27.237,168.259,26.79,169.067,26.87,170.013L26.87,170.013z"/>
		
			<linearGradient id="SVGID_14_" gradientUnits="userSpaceOnUse" x1="916.2939" y1="455.9258" x2="968.5293" y2="455.9258" gradientTransform="matrix(-0.9979 0.0653 0.0653 0.9979 963.5591 -357.124)">
			<stop  offset="0" style="stop-color:#D9D9D9"/>
			<stop  offset="0.0029" style="stop-color:#DADADA"/>
			<stop  offset="0.0586" style="stop-color:#EBEBEB"/>
			<stop  offset="0.1276" style="stop-color:#F6F6F6"/>
			<stop  offset="0.2248" style="stop-color:#FDFDFD"/>
			<stop  offset="0.4945" style="stop-color:#FFFFFF"/>
			<stop  offset="0.7703" style="stop-color:#FDFDFD"/>
			<stop  offset="0.8696" style="stop-color:#F6F6F6"/>
			<stop  offset="0.9401" style="stop-color:#EBEBEB"/>
			<stop  offset="0.997" style="stop-color:#DADADA"/>
			<stop  offset="1" style="stop-color:#D9D9D9"/>
		</linearGradient>
		<path fill="url(#SVGID_14_)" stroke="#231F20" stroke-width="0.379" stroke-dasharray="1.5161,0.758" d="M26.87,161.618
			c0.084,0.946,0.663,1.666,1.301,1.611l49.753-4.271c0.635-0.057,1.082-0.863,1.002-1.811l0,0
			c-0.084-0.943-0.664-1.662-1.301-1.607l-49.753,4.27C27.237,159.865,26.79,160.673,26.87,161.618L26.87,161.618z"/>
		
			<linearGradient id="SVGID_15_" gradientUnits="userSpaceOnUse" x1="915.7461" y1="447.5488" x2="967.9805" y2="447.5488" gradientTransform="matrix(-0.9979 0.0653 0.0653 0.9979 963.5591 -357.124)">
			<stop  offset="0" style="stop-color:#D9D9D9"/>
			<stop  offset="0.0029" style="stop-color:#DADADA"/>
			<stop  offset="0.0586" style="stop-color:#EBEBEB"/>
			<stop  offset="0.1276" style="stop-color:#F6F6F6"/>
			<stop  offset="0.2248" style="stop-color:#FDFDFD"/>
			<stop  offset="0.4945" style="stop-color:#FFFFFF"/>
			<stop  offset="0.7703" style="stop-color:#FDFDFD"/>
			<stop  offset="0.8696" style="stop-color:#F6F6F6"/>
			<stop  offset="0.9401" style="stop-color:#EBEBEB"/>
			<stop  offset="0.997" style="stop-color:#DADADA"/>
			<stop  offset="1" style="stop-color:#D9D9D9"/>
		</linearGradient>
		<path fill="url(#SVGID_15_)" stroke="#231F20" stroke-width="0.379" stroke-dasharray="1.5161,0.758" d="M26.87,153.226
			c0.084,0.943,0.663,1.664,1.301,1.609l49.753-4.27c0.635-0.057,1.082-0.865,1.002-1.812l0,0c-0.084-0.942-0.664-1.661-1.301-1.608
			l-49.753,4.271C27.237,151.474,26.79,152.28,26.87,153.226L26.87,153.226z"/>
		
			<linearGradient id="SVGID_16_" gradientUnits="userSpaceOnUse" x1="915.1973" y1="439.1758" x2="967.4336" y2="439.1758" gradientTransform="matrix(-0.9979 0.0653 0.0653 0.9979 963.5591 -357.124)">
			<stop  offset="0" style="stop-color:#D9D9D9"/>
			<stop  offset="0.0029" style="stop-color:#DADADA"/>
			<stop  offset="0.0586" style="stop-color:#EBEBEB"/>
			<stop  offset="0.1276" style="stop-color:#F6F6F6"/>
			<stop  offset="0.2248" style="stop-color:#FDFDFD"/>
			<stop  offset="0.4945" style="stop-color:#FFFFFF"/>
			<stop  offset="0.7703" style="stop-color:#FDFDFD"/>
			<stop  offset="0.8696" style="stop-color:#F6F6F6"/>
			<stop  offset="0.9401" style="stop-color:#EBEBEB"/>
			<stop  offset="0.997" style="stop-color:#DADADA"/>
			<stop  offset="1" style="stop-color:#D9D9D9"/>
		</linearGradient>
		<path fill="url(#SVGID_16_)" stroke="#231F20" stroke-width="0.379" stroke-dasharray="1.5161,0.758" d="M26.87,144.833
			c0.084,0.941,0.663,1.662,1.301,1.609l49.753-4.271c0.635-0.056,1.082-0.863,1.002-1.811l0,0
			c-0.084-0.943-0.664-1.662-1.301-1.607l-49.753,4.271C27.237,143.079,26.79,143.887,26.87,144.833L26.87,144.833z"/>
		<path fill="#FFFFFF" stroke="#231F20" stroke-width="0.379" d="M28.235,168.162H1.586c-0.342-0.003-0.617,0.761-0.617,1.708l0,0
			c0,0.943,0.275,1.705,0.617,1.705h26.649"/>
		<path fill="#FFFFFF" stroke="#231F20" stroke-width="0.379" d="M28.235,101.433H1.586c-0.342-0.001-0.617,0.764-0.617,1.711l0,0
			c0,0.941,0.275,1.705,0.617,1.705h26.649"/>
		
			<linearGradient id="SVGID_17_" gradientUnits="userSpaceOnUse" x1="914.6836" y1="431.3223" x2="966.9199" y2="431.3223" gradientTransform="matrix(-0.9979 0.0653 0.0653 0.9979 963.5591 -357.124)">
			<stop  offset="0" style="stop-color:#D9D9D9"/>
			<stop  offset="0.0029" style="stop-color:#DADADA"/>
			<stop  offset="0.0586" style="stop-color:#EBEBEB"/>
			<stop  offset="0.1276" style="stop-color:#F6F6F6"/>
			<stop  offset="0.2248" style="stop-color:#FDFDFD"/>
			<stop  offset="0.4945" style="stop-color:#FFFFFF"/>
			<stop  offset="0.7703" style="stop-color:#FDFDFD"/>
			<stop  offset="0.8696" style="stop-color:#F6F6F6"/>
			<stop  offset="0.9401" style="stop-color:#EBEBEB"/>
			<stop  offset="0.997" style="stop-color:#DADADA"/>
			<stop  offset="1" style="stop-color:#D9D9D9"/>
		</linearGradient>
		<path fill="url(#SVGID_17_)" stroke="#231F20" stroke-width="0.379" stroke-dasharray="1.5161,0.758" d="M26.87,136.962
			c0.084,0.945,0.663,1.666,1.301,1.61l49.753-4.271c0.635-0.058,1.082-0.863,1.002-1.813l0,0c-0.084-0.941-0.664-1.66-1.301-1.606
			l-49.753,4.272C27.237,135.208,26.79,136.016,26.87,136.962L26.87,136.962z"/>
	</g>
</g>
</svg>
