<?xml version="1.0" encoding="utf-8"?>
<!-- Generator: Adobe Illustrator 16.0.0, SVG Export Plug-In . SVG Version: 6.00 Build 0)  -->
<!DOCTYPE svg PUBLIC "-//W3C//DTD SVG 1.1//EN" "http://www.w3.org/Graphics/SVG/1.1/DTD/svg11.dtd">
<svg version="1.1" id="Layer_1" xmlns="http://www.w3.org/2000/svg" xmlns:xlink="http://www.w3.org/1999/xlink" x="0px" y="0px"
	 width="104px" height="192px" viewBox="0 0 104 192" enable-background="new 0 0 104 192" xml:space="preserve">
<g>
	<g>
		<path fill="#EDEDED" d="M56.459,10.963c-36.183,0-45.688,14.203-45.688,14.203v161.799c0,0,7.141,4.514,45.646,4.514
			c38.26,0,45.521-4.514,45.521-4.514V25.166C101.938,25.166,94.557,10.963,56.459,10.963z"/>
	</g>
	<g>
		<path fill="none" stroke="#231F20" d="M56.459,10.963c-36.183,0-45.688,14.203-45.688,14.203v161.799
			c0,0,7.141,4.514,45.646,4.514c38.26,0,45.521-4.514,45.521-4.514V25.166C101.938,25.166,94.557,10.963,56.459,10.963z"/>
	</g>
</g>
<g>
	<g>
		<linearGradient id="SVGID_1_" gradientUnits="userSpaceOnUse" x1="56.3555" y1="18.4277" x2="56.3555" y2="185.7207">
			<stop  offset="0" style="stop-color:#F8B7AC"/>
			<stop  offset="0.375" style="stop-color:#DEBCC3"/>
			<stop  offset="0.7619" style="stop-color:#C9C0D7"/>
			<stop  offset="1" style="stop-color:#C0C2E1"/>
		</linearGradient>
		<path fill="url(#SVGID_1_)" d="M89.907,37.471c0.003-0.107,0.015-0.213,0.015-0.32c0-10.342-15.075-18.723-33.672-18.723
			c-18.596,0-33.671,8.381-33.671,18.723c0,0.107,0.011,0.213,0.015,0.32h-0.05v129.928h0.054
			c0.388,10.16,15.3,18.322,33.652,18.322c18.353,0,33.266-8.162,33.653-18.322h0.263V37.471H89.907z"/>
	</g>
	<g>
		<path fill="none" stroke="#231F20" d="M89.907,37.471c0.003-0.107,0.015-0.213,0.015-0.32c0-10.342-15.075-18.723-33.672-18.723
			c-18.596,0-33.671,8.381-33.671,18.723c0,0.107,0.011,0.213,0.015,0.32h-0.05v129.928h0.054
			c0.388,10.16,15.3,18.322,33.652,18.322c18.353,0,33.266-8.162,33.653-18.322h0.263V37.471H89.907z"/>
	</g>
</g>
<g>
	<g>
		<linearGradient id="SVGID_2_" gradientUnits="userSpaceOnUse" x1="56.3535" y1="23.5938" x2="56.3535" y2="116.5938">
			<stop  offset="0" style="stop-color:#F8B7AC"/>
			<stop  offset="0.375" style="stop-color:#DEBCC3"/>
			<stop  offset="0.7619" style="stop-color:#C9C0D7"/>
			<stop  offset="1" style="stop-color:#C0C2E1"/>
		</linearGradient>
		<path fill="url(#SVGID_2_)" d="M80.128,44.369l0.708-1.717c0.981-1.333,1.591-2.763,1.755-4.258l0.24-0.583h-0.203
			c0.003-0.08,0.012-0.159,0.012-0.239c0-7.72-11.806-13.978-26.368-13.978s-26.367,6.258-26.367,13.978
			c0,0.08,0.009,0.159,0.011,0.239h-0.039l0.044,0.114c0.081,1.711,0.739,3.346,1.88,4.852l0.617,1.592l-2.541,4.256l2.541,4.256
			l-2.541,4.256l2.541,4.256l-2.541,4.256l2.541,4.256c0,0-2.514,3.991-2.541,4.256l2.541,4.257l-2.541,4.255l2.541,4.256
			l-2.541,4.257l2.541,4.256l-0.77,2.175c-1.104,1.526-1.72,3.182-1.74,4.911l-0.031,0.089h0.027
			c0.002,7.724,11.806,13.979,26.367,13.979s26.366-6.255,26.368-13.979h0.191l-0.219-0.581c-0.116-1.5-0.674-2.938-1.612-4.279
			l-0.872-2.314l2.703-4.257l-2.703-4.256l2.703-4.256l-2.703-4.256l2.703-4.255l-2.703-4.257l2.703-4.256l-2.703-4.256l2.703-4.257
			l-2.703-4.255l2.703-4.256L80.128,44.369z"/>
	</g>
	<g>
		<path fill="none" stroke="#231F20" d="M80.128,44.369l0.708-1.717c0.981-1.333,1.591-2.763,1.755-4.258l0.24-0.583h-0.203
			c0.003-0.08,0.012-0.159,0.012-0.239c0-7.72-11.806-13.978-26.368-13.978s-26.367,6.258-26.367,13.978
			c0,0.08,0.009,0.159,0.011,0.239h-0.039l0.044,0.114c0.081,1.711,0.739,3.346,1.88,4.852l0.617,1.592l-2.541,4.256l2.541,4.256
			l-2.541,4.256l2.541,4.256l-2.541,4.256l2.541,4.256c0,0-2.514,3.991-2.541,4.256l2.541,4.257l-2.541,4.255l2.541,4.256
			l-2.541,4.257l2.541,4.256l-0.77,2.175c-1.104,1.526-1.72,3.182-1.74,4.911l-0.031,0.089h0.027
			c0.002,7.724,11.806,13.979,26.367,13.979s26.366-6.255,26.368-13.979h0.191l-0.219-0.581c-0.116-1.5-0.674-2.938-1.612-4.279
			l-0.872-2.314l2.703-4.257l-2.703-4.256l2.703-4.256l-2.703-4.256l2.703-4.255l-2.703-4.257l2.703-4.256l-2.703-4.256l2.703-4.257
			l-2.703-4.255l2.703-4.256L80.128,44.369z"/>
	</g>
</g>
<linearGradient id="SVGID_3_" gradientUnits="userSpaceOnUse" x1="623.0332" y1="160.0977" x2="678.0918" y2="160.0977" gradientTransform="matrix(-0.9979 0.0653 0.0653 0.9979 693.3306 -64.8164)">
	<stop  offset="0" style="stop-color:#B3B3B3"/>
	<stop  offset="0.0185" style="stop-color:#B6B6B6"/>
	<stop  offset="0.2268" style="stop-color:#DEDEDE"/>
	<stop  offset="0.3927" style="stop-color:#F6F6F6"/>
	<stop  offset="0.4945" style="stop-color:#FFFFFF"/>
	<stop  offset="0.6034" style="stop-color:#F5F5F5"/>
	<stop  offset="0.7911" style="stop-color:#D9D9D9"/>
	<stop  offset="1" style="stop-color:#B3B3B3"/>
</linearGradient>
<path fill="url(#SVGID_3_)" stroke="#231F20" stroke-width="0.7" stroke-dasharray="2,1" d="M27.189,140.336
	c0.086,1.229,0.697,2.166,1.369,2.096l52.376-5.559c0.668-0.072,1.139-1.123,1.053-2.355l0,0c-0.086-1.228-0.697-2.164-1.367-2.093
	l-52.378,5.559C27.576,138.055,27.104,139.105,27.189,140.336L27.189,140.336z"/>
<linearGradient id="SVGID_4_" gradientUnits="userSpaceOnUse" x1="623.7461" y1="170.9971" x2="678.8047" y2="170.9971" gradientTransform="matrix(-0.9979 0.0653 0.0653 0.9979 693.3306 -64.8164)">
	<stop  offset="0" style="stop-color:#B3B3B3"/>
	<stop  offset="0.0185" style="stop-color:#B6B6B6"/>
	<stop  offset="0.2268" style="stop-color:#DEDEDE"/>
	<stop  offset="0.3927" style="stop-color:#F6F6F6"/>
	<stop  offset="0.4945" style="stop-color:#FFFFFF"/>
	<stop  offset="0.6034" style="stop-color:#F5F5F5"/>
	<stop  offset="0.7911" style="stop-color:#D9D9D9"/>
	<stop  offset="1" style="stop-color:#B3B3B3"/>
</linearGradient>
<path fill="url(#SVGID_4_)" stroke="#231F20" stroke-width="0.7" stroke-dasharray="2,1" d="M27.189,151.259
	c0.086,1.228,0.697,2.167,1.369,2.095l52.376-5.559c0.668-0.072,1.139-1.123,1.053-2.355l0,0c-0.086-1.227-0.697-2.162-1.367-2.092
	l-52.378,5.559C27.576,148.979,27.104,150.027,27.189,151.259L27.189,151.259z"/>
<linearGradient id="SVGID_5_" gradientUnits="userSpaceOnUse" x1="624.459" y1="181.8955" x2="679.5186" y2="181.8955" gradientTransform="matrix(-0.9979 0.0653 0.0653 0.9979 693.3306 -64.8164)">
	<stop  offset="0" style="stop-color:#B3B3B3"/>
	<stop  offset="0.0185" style="stop-color:#B6B6B6"/>
	<stop  offset="0.2268" style="stop-color:#DEDEDE"/>
	<stop  offset="0.3927" style="stop-color:#F6F6F6"/>
	<stop  offset="0.4945" style="stop-color:#FFFFFF"/>
	<stop  offset="0.6034" style="stop-color:#F5F5F5"/>
	<stop  offset="0.7911" style="stop-color:#D9D9D9"/>
	<stop  offset="1" style="stop-color:#B3B3B3"/>
</linearGradient>
<path fill="url(#SVGID_5_)" stroke="#231F20" stroke-width="0.7" stroke-dasharray="2,1" d="M27.189,162.182
	c0.086,1.228,0.697,2.166,1.369,2.095l52.376-5.558c0.668-0.074,1.139-1.123,1.053-2.356l0,0c-0.086-1.228-0.697-2.163-1.367-2.093
	l-52.378,5.559C27.576,159.9,27.104,160.95,27.189,162.182L27.189,162.182z"/>
<linearGradient id="SVGID_6_" gradientUnits="userSpaceOnUse" x1="625.1777" y1="192.8613" x2="680.2363" y2="192.8613" gradientTransform="matrix(-0.9979 0.0653 0.0653 0.9979 693.3306 -64.8164)">
	<stop  offset="0" style="stop-color:#B3B3B3"/>
	<stop  offset="0.0185" style="stop-color:#B6B6B6"/>
	<stop  offset="0.2268" style="stop-color:#DEDEDE"/>
	<stop  offset="0.3927" style="stop-color:#F6F6F6"/>
	<stop  offset="0.4945" style="stop-color:#FFFFFF"/>
	<stop  offset="0.6034" style="stop-color:#F5F5F5"/>
	<stop  offset="0.7911" style="stop-color:#D9D9D9"/>
	<stop  offset="1" style="stop-color:#B3B3B3"/>
</linearGradient>
<path fill="url(#SVGID_6_)" stroke="#231F20" stroke-width="0.7" stroke-dasharray="2,1" d="M27.189,173.172
	c0.086,1.227,0.697,2.165,1.369,2.094l52.376-5.559c0.668-0.072,1.139-1.123,1.053-2.354l0,0c-0.086-1.228-0.697-2.164-1.367-2.093
	l-52.378,5.559C27.576,170.891,27.104,171.939,27.189,173.172L27.189,173.172z"/>
<linearGradient id="SVGID_7_" gradientUnits="userSpaceOnUse" x1="633.0283" y1="312.8457" x2="688.0869" y2="312.8457" gradientTransform="matrix(-0.9979 -0.0653 0.0653 -0.9979 693.3306 487.3867)">
	<stop  offset="0" style="stop-color:#D9D9D9"/>
	<stop  offset="0.0029" style="stop-color:#DADADA"/>
	<stop  offset="0.0586" style="stop-color:#EBEBEB"/>
	<stop  offset="0.1276" style="stop-color:#F6F6F6"/>
	<stop  offset="0.2248" style="stop-color:#FDFDFD"/>
	<stop  offset="0.4945" style="stop-color:#FFFFFF"/>
	<stop  offset="0.7703" style="stop-color:#FDFDFD"/>
	<stop  offset="0.8696" style="stop-color:#F6F6F6"/>
	<stop  offset="0.9401" style="stop-color:#EBEBEB"/>
	<stop  offset="0.997" style="stop-color:#DADADA"/>
	<stop  offset="1" style="stop-color:#D9D9D9"/>
</linearGradient>
<path fill="url(#SVGID_7_)" stroke="#231F20" stroke-width="0.7" stroke-dasharray="2,1" d="M27.189,129.156
	c0.086-1.229,0.697-2.166,1.369-2.096l52.376,5.559c0.668,0.073,1.139,1.123,1.053,2.355l0,0c-0.086,1.229-0.697,2.164-1.367,2.093
	l-52.378-5.558C27.576,131.438,27.104,130.387,27.189,129.156L27.189,129.156z"/>
<linearGradient id="SVGID_8_" gradientUnits="userSpaceOnUse" x1="632.3154" y1="301.9463" x2="687.374" y2="301.9463" gradientTransform="matrix(-0.9979 -0.0653 0.0653 -0.9979 693.3306 487.3867)">
	<stop  offset="0" style="stop-color:#D9D9D9"/>
	<stop  offset="0.0029" style="stop-color:#DADADA"/>
	<stop  offset="0.0586" style="stop-color:#EBEBEB"/>
	<stop  offset="0.1276" style="stop-color:#F6F6F6"/>
	<stop  offset="0.2248" style="stop-color:#FDFDFD"/>
	<stop  offset="0.4945" style="stop-color:#FFFFFF"/>
	<stop  offset="0.7703" style="stop-color:#FDFDFD"/>
	<stop  offset="0.8696" style="stop-color:#F6F6F6"/>
	<stop  offset="0.9401" style="stop-color:#EBEBEB"/>
	<stop  offset="0.997" style="stop-color:#DADADA"/>
	<stop  offset="1" style="stop-color:#D9D9D9"/>
</linearGradient>
<path fill="url(#SVGID_8_)" stroke="#231F20" stroke-width="0.7" stroke-dasharray="2,1" d="M27.189,140.078
	c0.086-1.228,0.697-2.166,1.369-2.095l52.376,5.558c0.668,0.074,1.139,1.124,1.053,2.356l0,0c-0.086,1.228-0.697,2.163-1.367,2.093
	l-52.378-5.559C27.576,142.359,27.104,141.31,27.189,140.078L27.189,140.078z"/>
<linearGradient id="SVGID_9_" gradientUnits="userSpaceOnUse" x1="631.6025" y1="291.0479" x2="686.6611" y2="291.0479" gradientTransform="matrix(-0.9979 -0.0653 0.0653 -0.9979 693.3306 487.3867)">
	<stop  offset="0" style="stop-color:#D9D9D9"/>
	<stop  offset="0.0029" style="stop-color:#DADADA"/>
	<stop  offset="0.0586" style="stop-color:#EBEBEB"/>
	<stop  offset="0.1276" style="stop-color:#F6F6F6"/>
	<stop  offset="0.2248" style="stop-color:#FDFDFD"/>
	<stop  offset="0.4945" style="stop-color:#FFFFFF"/>
	<stop  offset="0.7703" style="stop-color:#FDFDFD"/>
	<stop  offset="0.8696" style="stop-color:#F6F6F6"/>
	<stop  offset="0.9401" style="stop-color:#EBEBEB"/>
	<stop  offset="0.997" style="stop-color:#DADADA"/>
	<stop  offset="1" style="stop-color:#D9D9D9"/>
</linearGradient>
<path fill="url(#SVGID_9_)" stroke="#231F20" stroke-width="0.7" stroke-dasharray="2,1" d="M27.189,151.001
	c0.086-1.228,0.697-2.167,1.369-2.095l52.376,5.559c0.668,0.072,1.139,1.123,1.053,2.355l0,0c-0.086,1.227-0.697,2.162-1.367,2.092
	l-52.378-5.559C27.576,153.281,27.104,152.232,27.189,151.001L27.189,151.001z"/>
<linearGradient id="SVGID_10_" gradientUnits="userSpaceOnUse" x1="630.8887" y1="280.1484" x2="685.9473" y2="280.1484" gradientTransform="matrix(-0.9979 -0.0653 0.0653 -0.9979 693.3306 487.3867)">
	<stop  offset="0" style="stop-color:#D9D9D9"/>
	<stop  offset="0.0029" style="stop-color:#DADADA"/>
	<stop  offset="0.0586" style="stop-color:#EBEBEB"/>
	<stop  offset="0.1276" style="stop-color:#F6F6F6"/>
	<stop  offset="0.2248" style="stop-color:#FDFDFD"/>
	<stop  offset="0.4945" style="stop-color:#FFFFFF"/>
	<stop  offset="0.7703" style="stop-color:#FDFDFD"/>
	<stop  offset="0.8696" style="stop-color:#F6F6F6"/>
	<stop  offset="0.9401" style="stop-color:#EBEBEB"/>
	<stop  offset="0.997" style="stop-color:#DADADA"/>
	<stop  offset="1" style="stop-color:#D9D9D9"/>
</linearGradient>
<path fill="url(#SVGID_10_)" stroke="#231F20" stroke-width="0.7" stroke-dasharray="2,1" d="M27.189,161.924
	c0.086-1.229,0.697-2.166,1.369-2.096l52.376,5.559c0.668,0.072,1.139,1.123,1.053,2.355l0,0c-0.086,1.228-0.697,2.164-1.367,2.093
	l-52.378-5.559C27.576,164.205,27.104,163.154,27.189,161.924L27.189,161.924z"/>
<path fill="#FFFFFF" stroke="#231F20" stroke-width="0.7" d="M0.568,127.119h28.057"/>
<path fill="#FFFFFF" stroke="#231F20" stroke-width="0.7" d="M28.625,131.564H0.568"/>
<path fill="#FFFFFF" stroke="#231F20" stroke-width="0.7" d="M0.568,170.946h28.057"/>
<path fill="#FFFFFF" stroke="#231F20" stroke-width="0.7" d="M28.625,175.391H0.568"/>
<linearGradient id="SVGID_11_" gradientUnits="userSpaceOnUse" x1="623.0332" y1="160.0977" x2="678.0918" y2="160.0977" gradientTransform="matrix(-0.9979 0.0653 0.0653 0.9979 693.3306 -64.8164)">
	<stop  offset="0" style="stop-color:#B3B3B3"/>
	<stop  offset="0.0185" style="stop-color:#B6B6B6"/>
	<stop  offset="0.2268" style="stop-color:#DEDEDE"/>
	<stop  offset="0.3927" style="stop-color:#F6F6F6"/>
	<stop  offset="0.4945" style="stop-color:#FFFFFF"/>
	<stop  offset="0.6034" style="stop-color:#F5F5F5"/>
	<stop  offset="0.7911" style="stop-color:#D9D9D9"/>
	<stop  offset="1" style="stop-color:#B3B3B3"/>
</linearGradient>
<path fill="url(#SVGID_11_)" stroke="#231F20" stroke-width="0.7" stroke-dasharray="2,1" d="M27.189,140.336
	c0.086,1.229,0.697,2.166,1.369,2.096l52.376-5.559c0.668-0.072,1.139-1.123,1.053-2.355l0,0c-0.086-1.228-0.697-2.164-1.367-2.093
	l-52.378,5.559C27.576,138.055,27.104,139.105,27.189,140.336L27.189,140.336z"/>
<linearGradient id="SVGID_12_" gradientUnits="userSpaceOnUse" x1="623.7461" y1="170.9971" x2="678.8047" y2="170.9971" gradientTransform="matrix(-0.9979 0.0653 0.0653 0.9979 693.3306 -64.8164)">
	<stop  offset="0" style="stop-color:#B3B3B3"/>
	<stop  offset="0.0185" style="stop-color:#B6B6B6"/>
	<stop  offset="0.2268" style="stop-color:#DEDEDE"/>
	<stop  offset="0.3927" style="stop-color:#F6F6F6"/>
	<stop  offset="0.4945" style="stop-color:#FFFFFF"/>
	<stop  offset="0.6034" style="stop-color:#F5F5F5"/>
	<stop  offset="0.7911" style="stop-color:#D9D9D9"/>
	<stop  offset="1" style="stop-color:#B3B3B3"/>
</linearGradient>
<path fill="url(#SVGID_12_)" stroke="#231F20" stroke-width="0.7" stroke-dasharray="2,1" d="M27.189,151.259
	c0.086,1.228,0.697,2.167,1.369,2.095l52.376-5.559c0.668-0.072,1.139-1.123,1.053-2.355l0,0c-0.086-1.227-0.697-2.162-1.367-2.092
	l-52.378,5.559C27.576,148.979,27.104,150.027,27.189,151.259L27.189,151.259z"/>
<linearGradient id="SVGID_13_" gradientUnits="userSpaceOnUse" x1="624.459" y1="181.8955" x2="679.5186" y2="181.8955" gradientTransform="matrix(-0.9979 0.0653 0.0653 0.9979 693.3306 -64.8164)">
	<stop  offset="0" style="stop-color:#B3B3B3"/>
	<stop  offset="0.0185" style="stop-color:#B6B6B6"/>
	<stop  offset="0.2268" style="stop-color:#DEDEDE"/>
	<stop  offset="0.3927" style="stop-color:#F6F6F6"/>
	<stop  offset="0.4945" style="stop-color:#FFFFFF"/>
	<stop  offset="0.6034" style="stop-color:#F5F5F5"/>
	<stop  offset="0.7911" style="stop-color:#D9D9D9"/>
	<stop  offset="1" style="stop-color:#B3B3B3"/>
</linearGradient>
<path fill="url(#SVGID_13_)" stroke="#231F20" stroke-width="0.7" stroke-dasharray="2,1" d="M27.189,162.182
	c0.086,1.228,0.697,2.166,1.369,2.095l52.376-5.558c0.668-0.074,1.139-1.123,1.053-2.356l0,0c-0.086-1.228-0.697-2.163-1.367-2.093
	l-52.378,5.559C27.576,159.9,27.104,160.95,27.189,162.182L27.189,162.182z"/>
<linearGradient id="SVGID_14_" gradientUnits="userSpaceOnUse" x1="625.1777" y1="192.8613" x2="680.2363" y2="192.8613" gradientTransform="matrix(-0.9979 0.0653 0.0653 0.9979 693.3306 -64.8164)">
	<stop  offset="0" style="stop-color:#B3B3B3"/>
	<stop  offset="0.0185" style="stop-color:#B6B6B6"/>
	<stop  offset="0.2268" style="stop-color:#DEDEDE"/>
	<stop  offset="0.3927" style="stop-color:#F6F6F6"/>
	<stop  offset="0.4945" style="stop-color:#FFFFFF"/>
	<stop  offset="0.6034" style="stop-color:#F5F5F5"/>
	<stop  offset="0.7911" style="stop-color:#D9D9D9"/>
	<stop  offset="1" style="stop-color:#B3B3B3"/>
</linearGradient>
<path fill="url(#SVGID_14_)" stroke="#231F20" stroke-width="0.7" stroke-dasharray="2,1" d="M27.189,173.172
	c0.086,1.227,0.697,2.165,1.369,2.094l52.376-5.559c0.668-0.072,1.139-1.123,1.053-2.354l0,0c-0.086-1.228-0.697-2.164-1.367-2.093
	l-52.378,5.559C27.576,170.891,27.104,171.939,27.189,173.172L27.189,173.172z"/>
<linearGradient id="SVGID_15_" gradientUnits="userSpaceOnUse" x1="633.0283" y1="312.8457" x2="688.0869" y2="312.8457" gradientTransform="matrix(-0.9979 -0.0653 0.0653 -0.9979 693.3306 487.3867)">
	<stop  offset="0" style="stop-color:#D9D9D9"/>
	<stop  offset="0.0029" style="stop-color:#DADADA"/>
	<stop  offset="0.0586" style="stop-color:#EBEBEB"/>
	<stop  offset="0.1276" style="stop-color:#F6F6F6"/>
	<stop  offset="0.2248" style="stop-color:#FDFDFD"/>
	<stop  offset="0.4945" style="stop-color:#FFFFFF"/>
	<stop  offset="0.7703" style="stop-color:#FDFDFD"/>
	<stop  offset="0.8696" style="stop-color:#F6F6F6"/>
	<stop  offset="0.9401" style="stop-color:#EBEBEB"/>
	<stop  offset="0.997" style="stop-color:#DADADA"/>
	<stop  offset="1" style="stop-color:#D9D9D9"/>
</linearGradient>
<path fill="url(#SVGID_15_)" stroke="#231F20" stroke-width="0.7" stroke-dasharray="2,1" d="M27.189,129.156
	c0.086-1.229,0.697-2.166,1.369-2.096l52.376,5.559c0.668,0.073,1.139,1.123,1.053,2.355l0,0c-0.086,1.229-0.697,2.164-1.367,2.093
	l-52.378-5.558C27.576,131.438,27.104,130.387,27.189,129.156L27.189,129.156z"/>
<linearGradient id="SVGID_16_" gradientUnits="userSpaceOnUse" x1="632.3154" y1="301.9463" x2="687.374" y2="301.9463" gradientTransform="matrix(-0.9979 -0.0653 0.0653 -0.9979 693.3306 487.3867)">
	<stop  offset="0" style="stop-color:#D9D9D9"/>
	<stop  offset="0.0029" style="stop-color:#DADADA"/>
	<stop  offset="0.0586" style="stop-color:#EBEBEB"/>
	<stop  offset="0.1276" style="stop-color:#F6F6F6"/>
	<stop  offset="0.2248" style="stop-color:#FDFDFD"/>
	<stop  offset="0.4945" style="stop-color:#FFFFFF"/>
	<stop  offset="0.7703" style="stop-color:#FDFDFD"/>
	<stop  offset="0.8696" style="stop-color:#F6F6F6"/>
	<stop  offset="0.9401" style="stop-color:#EBEBEB"/>
	<stop  offset="0.997" style="stop-color:#DADADA"/>
	<stop  offset="1" style="stop-color:#D9D9D9"/>
</linearGradient>
<path fill="url(#SVGID_16_)" stroke="#231F20" stroke-width="0.7" stroke-dasharray="2,1" d="M27.189,140.078
	c0.086-1.228,0.697-2.166,1.369-2.095l52.376,5.558c0.668,0.074,1.139,1.124,1.053,2.356l0,0c-0.086,1.228-0.697,2.163-1.367,2.093
	l-52.378-5.559C27.576,142.359,27.104,141.31,27.189,140.078L27.189,140.078z"/>
<linearGradient id="SVGID_17_" gradientUnits="userSpaceOnUse" x1="631.6025" y1="291.0479" x2="686.6611" y2="291.0479" gradientTransform="matrix(-0.9979 -0.0653 0.0653 -0.9979 693.3306 487.3867)">
	<stop  offset="0" style="stop-color:#D9D9D9"/>
	<stop  offset="0.0029" style="stop-color:#DADADA"/>
	<stop  offset="0.0586" style="stop-color:#EBEBEB"/>
	<stop  offset="0.1276" style="stop-color:#F6F6F6"/>
	<stop  offset="0.2248" style="stop-color:#FDFDFD"/>
	<stop  offset="0.4945" style="stop-color:#FFFFFF"/>
	<stop  offset="0.7703" style="stop-color:#FDFDFD"/>
	<stop  offset="0.8696" style="stop-color:#F6F6F6"/>
	<stop  offset="0.9401" style="stop-color:#EBEBEB"/>
	<stop  offset="0.997" style="stop-color:#DADADA"/>
	<stop  offset="1" style="stop-color:#D9D9D9"/>
</linearGradient>
<path fill="url(#SVGID_17_)" stroke="#231F20" stroke-width="0.7" stroke-dasharray="2,1" d="M27.189,151.001
	c0.086-1.228,0.697-2.167,1.369-2.095l52.376,5.559c0.668,0.072,1.139,1.123,1.053,2.355l0,0c-0.086,1.227-0.697,2.162-1.367,2.092
	l-52.378-5.559C27.576,153.281,27.104,152.232,27.189,151.001L27.189,151.001z"/>
<linearGradient id="SVGID_18_" gradientUnits="userSpaceOnUse" x1="630.8887" y1="280.1484" x2="685.9473" y2="280.1484" gradientTransform="matrix(-0.9979 -0.0653 0.0653 -0.9979 693.3306 487.3867)">
	<stop  offset="0" style="stop-color:#D9D9D9"/>
	<stop  offset="0.0029" style="stop-color:#DADADA"/>
	<stop  offset="0.0586" style="stop-color:#EBEBEB"/>
	<stop  offset="0.1276" style="stop-color:#F6F6F6"/>
	<stop  offset="0.2248" style="stop-color:#FDFDFD"/>
	<stop  offset="0.4945" style="stop-color:#FFFFFF"/>
	<stop  offset="0.7703" style="stop-color:#FDFDFD"/>
	<stop  offset="0.8696" style="stop-color:#F6F6F6"/>
	<stop  offset="0.9401" style="stop-color:#EBEBEB"/>
	<stop  offset="0.997" style="stop-color:#DADADA"/>
	<stop  offset="1" style="stop-color:#D9D9D9"/>
</linearGradient>
<path fill="url(#SVGID_18_)" stroke="#231F20" stroke-width="0.7" stroke-dasharray="2,1" d="M27.189,161.924
	c0.086-1.229,0.697-2.166,1.369-2.096l52.376,5.559c0.668,0.072,1.139,1.123,1.053,2.355l0,0c-0.086,1.228-0.697,2.164-1.367,2.093
	l-52.378-5.559C27.576,164.205,27.104,163.154,27.189,161.924L27.189,161.924z"/>
<path fill="#FFFFFF" stroke="#231F20" stroke-width="0.7" d="M0.568,127.119h28.057"/>
<path fill="#FFFFFF" stroke="#231F20" stroke-width="0.7" d="M28.625,131.564H0.568"/>
<path fill="#FFFFFF" stroke="#231F20" stroke-width="0.7" d="M0.568,170.946h28.057"/>
<path fill="#FFFFFF" stroke="#231F20" stroke-width="0.7" d="M28.625,175.391H0.568"/>
<g>
	<rect x="35.104" y="0.586" fill="#999999" stroke="#231F20" width="2.5" height="102.5"/>
	<rect x="75.104" y="0.586" fill="#999999" stroke="#231F20" width="2.5" height="33.508"/>
</g>
</svg>
