<?xml version="1.0" encoding="utf-8"?>
<!-- Generator: Adobe Illustrator 16.0.0, SVG Export Plug-In . SVG Version: 6.00 Build 0)  -->
<!DOCTYPE svg PUBLIC "-//W3C//DTD SVG 1.1//EN" "http://www.w3.org/Graphics/SVG/1.1/DTD/svg11.dtd">
<svg version="1.1" id="Layer_1" xmlns="http://www.w3.org/2000/svg" xmlns:xlink="http://www.w3.org/1999/xlink" x="0px" y="0px"
	 width="30px" height="30px" viewBox="0 0 30 30" enable-background="new 0 0 30 30" xml:space="preserve">
<g>
	<g>
		<path fill="#99A6BF" d="M14.999,1C7.267,1,1,7.268,1,14.999C1,22.73,7.267,29,14.999,29C22.73,29,29,22.73,29,14.999
			C29,7.268,22.73,1,14.999,1z M23.116,10.406h-1.874v9.926c0,1.176-0.701,1.771-1.669,1.771s-1.668-0.596-1.668-1.771v-9.926
			h-1.874c-0.655,0-1.133-0.219-1.42-0.584c-0.279,0.374-0.749,0.584-1.378,0.584h-3.44v2.614h3.008
			c1.051,0,1.668,0.597,1.668,1.545c0,0.948-0.618,1.545-1.668,1.545H9.793v4.222c0,1.176-0.7,1.771-1.668,1.771
			s-1.668-0.596-1.668-1.771V8.984c0-1.071,0.804-1.668,1.668-1.668h5.108c0.619,0,1.082,0.218,1.362,0.583
			c0.285-0.373,0.77-0.583,1.436-0.583h7.085c1.111,0,1.729,0.577,1.729,1.545C24.846,9.786,24.228,10.406,23.116,10.406z"/>
	</g>
</g>
</svg>
