<?xml version="1.0" encoding="utf-8"?>
<!-- Generator: Adobe Illustrator 16.0.0, SVG Export Plug-In . SVG Version: 6.00 Build 0)  -->
<!DOCTYPE svg PUBLIC "-//W3C//DTD SVG 1.1//EN" "http://www.w3.org/Graphics/SVG/1.1/DTD/svg11.dtd">
<svg version="1.1" id="Layer_1" xmlns="http://www.w3.org/2000/svg" xmlns:xlink="http://www.w3.org/1999/xlink" x="0px" y="0px"
	 width="30px" height="30px" viewBox="0 0 30 30" enable-background="new 0 0 30 30" xml:space="preserve">
<g>
	<path fill="#99A6BF" d="M14.998,1C7.267,1,1,7.267,1,14.998C1,22.73,7.267,29,14.998,29C22.73,29,29,22.73,29,14.998
		C29,7.267,22.73,1,14.998,1z M21.452,20.119c0,1.176-0.701,1.772-1.668,1.772c-0.969,0-1.669-0.597-1.669-1.772v-4.325h-6.222
		v4.325c0,1.176-0.701,1.772-1.669,1.772c-0.968,0-1.668-0.597-1.668-1.772V8.75c0-1.174,0.701-1.772,1.668-1.772
		c0.968,0,1.669,0.598,1.669,1.772v3.956h6.222V8.75c0-1.174,0.7-1.772,1.669-1.772c0.967,0,1.668,0.598,1.668,1.772V20.119z"/>
</g>
</svg>
