<!-- Generator: Adobe Illustrator 18.0.0, SVG Export Plug-In  -->
<svg version="1.1"
	 xmlns="http://www.w3.org/2000/svg" xmlns:xlink="http://www.w3.org/1999/xlink" xmlns:a="http://ns.adobe.com/AdobeSVGViewerExtensions/3.0/"
	 x="0px" y="0px" width="127.1px" height="200.7px" viewBox="0 0 127.1 200.7" enable-background="new 0 0 127.1 200.7"
	 xml:space="preserve">
<defs>
</defs>
<g>
	<g>
		<polygon fill="none" stroke="#000000" stroke-width="3" stroke-linejoin="round" stroke-miterlimit="10" points="13.9,49.2 
			13.6,51 13.5,52.8 13.4,54.5 13.5,58.3 14.6,65.5 16.7,72.2 19.8,78.3 23.7,83.8 28.4,88.6 33.7,92.5 39.6,95.7 46,97.8 
			52.9,98.9 56.4,99.1 59.9,98.9 66.7,97.8 73.1,95.7 79.1,92.6 84.4,88.7 89.1,84 93,78.7 96.1,72.8 98.2,66.4 99.3,59.6 99.4,56 
			99.4,54.1 98.8,48.4 97.4,42.9 95.4,37.7 92.7,32.9 89.5,28.5 85.7,24.5 84.3,23.3 81.3,25.5 78.2,27.7 71.9,31.8 65.3,35.6 
			58.5,39.1 51.6,42.1 44.4,44.7 37,46.7 29.5,48.2 21.7,49.1 17.8,49.2 13.9,49.2 13.9,49.2 		"/>
		<polyline fill="none" stroke="#000000" stroke-width="3" stroke-linejoin="round" stroke-miterlimit="10" points="42.1,80.3 
			48.3,83.8 53.5,85.3 57.3,85.6 59.2,85.5 64.7,84.6 71.2,81.8 72.7,80.8 		"/>
		<polyline fill="none" stroke="#000000" stroke-width="3" stroke-linejoin="round" stroke-miterlimit="10" points="78.8,92.5 
			97.4,92.5 98.6,91.1 102,86.4 104.9,81.4 107.3,76 109.1,70.4 110.3,64.6 110.9,58.5 110.9,56.4 110.7,51.9 109.3,43.2 106.6,35 
			102.7,27.5 97.7,20.7 91.8,14.7 85,9.7 77.5,5.8 69.4,3.1 60.7,1.7 56.2,1.5 51.7,1.7 43.1,3.1 34.9,5.8 27.4,9.7 20.6,14.7 
			14.7,20.7 9.7,27.5 5.8,35 3.1,43.2 1.7,51.9 1.5,56.4 1.5,58.5 2.1,64.6 3.3,70.4 5.1,76 7.5,81.4 10.4,86.4 13.8,91.1 15,92.5 
			32.6,92.5 		"/>
	</g>
	<path fill="#1D1D1B" d="M75.1,53.9c0,2.3-1.8,4.1-4.1,4.1c-2.3,0-4.1-1.8-4.1-4.1c0-2.3,1.8-4.1,4.1-4.1
		C73.3,49.8,75.1,51.6,75.1,53.9z"/>
	<path fill="#1D1D1B" d="M47.3,53.9c0,2.3-1.8,4.1-4.1,4.1c-2.3,0-4.1-1.8-4.1-4.1c0-2.3,1.8-4.1,4.1-4.1
		C45.5,49.8,47.3,51.6,47.3,53.9z"/>
	<g>
		<path fill="#FFFFFF" d="M1.7,186.8h115.6v-52.2c0,0-6.8-23.9-23.9-23.9c-11,0-61.1,0-61.1,0s-30.4,3.1-30.4,27.1
			C1.8,160.9,1.7,186.8,1.7,186.8z"/>
		<line fill="none" stroke="#1D1D1B" stroke-width="2.8008" stroke-miterlimit="10" x1="94.4" y1="168.3" x2="94.4" y2="142.3"/>
		<path fill="none" stroke="#1D1D1B" stroke-width="2.8008" stroke-miterlimit="10" d="M24.5,168.3"/>
		<path fill="none" stroke="#1D1D1B" stroke-width="2.8008" stroke-miterlimit="10" d="M117.3,186.8c0,0,0-27.5,0-46.3
			c0-30.7-34.1-30.7-34.1-30.7H65.8H53.1H35.8c0,0-34.1,3.2-34.1,30.7c0,18.8,0,46.3,0,46.3"/>
		<path fill="none" stroke="#1D1D1B" stroke-width="2.8008" stroke-miterlimit="10" d="M94.4,186.8"/>
		<line fill="none" stroke="#1D1D1B" stroke-width="2.8008" stroke-miterlimit="10" x1="24.5" y1="142.3" x2="24.5" y2="168.3"/>
		<line fill="none" stroke="#1D1D1B" stroke-width="2.8008" stroke-miterlimit="10" x1="59" y1="186.8" x2="59" y2="114"/>
		<line fill="none" stroke="#1D1D1B" stroke-width="2.8008" stroke-miterlimit="10" x1="94.4" y1="168.3" x2="94.4" y2="186.8"/>
		<line fill="none" stroke="#1D1D1B" stroke-width="2.8008" stroke-miterlimit="10" x1="24.5" y1="186.8" x2="24.5" y2="168.3"/>
	</g>
	<path fill="#BEC8D2" stroke="#0D1023" stroke-width="3" stroke-miterlimit="10" d="M19,191.9c0,4,3.3,7.3,7.3,7.3h82.8
		c4,0,7.3-3.3,7.3-7.3v-47.1c0-4-3.3-7.3-7.3-7.3H26.3c-4,0-7.3,3.3-7.3,7.3V191.9z"/>
	<polygon fill="none" stroke="#000000" stroke-width="1.5075" stroke-linejoin="round" stroke-miterlimit="10" points="42.3,168.3 
		42.3,169.2 41.7,169.8 41,169.8 40.2,169.8 39.6,169.2 39.6,168.3 39.6,167.5 40.2,166.8 41,166.8 41.7,166.8 42.3,167.5 
		42.3,168.3 42.3,168.3 	"/>
	<polygon fill="#FFFFFF" stroke="#000000" stroke-width="1.5075" stroke-linejoin="round" stroke-miterlimit="10" points="
		122.8,155.5 108.1,164.8 106.8,165.3 105.5,165.1 104.4,164.4 103.7,163.3 103.2,162 103.4,160.7 104.1,159.6 119.3,149.9 
		120.6,149.5 121.9,149.6 123,150.3 123.8,151.4 124.2,152.7 124,154 123.3,155.1 122.8,155.5 122.8,155.5 	"/>
	<polygon fill="#FFFFFF" stroke="#000000" stroke-width="1.5075" stroke-linejoin="round" stroke-miterlimit="10" points="
		124.9,161.9 106.6,173.4 105.4,173.8 104.1,173.7 102.9,173.1 102.1,172.1 101.7,170.8 101.8,169.5 102.5,168.4 121.4,156.3 
		122.7,155.9 124,156 125.1,156.6 125.9,157.6 126.3,158.9 126.2,160.2 125.6,161.3 124.9,161.9 124.9,161.9 	"/>
	<polygon fill="#FFFFFF" stroke="#000000" stroke-width="1.5075" stroke-linejoin="round" stroke-miterlimit="10" points="
		124.5,169.9 111.9,177.9 110.6,178.4 109.2,178.3 108.1,177.6 107.3,176.6 106.9,175.3 107,174 107.6,172.8 121,164.2 122.3,163.8 
		123.6,163.9 124.8,164.5 125.5,165.5 126,166.8 125.9,168.1 125.2,169.3 124.5,169.9 124.5,169.9 	"/>
	<polygon fill="#FFFFFF" stroke="#000000" stroke-width="1.5075" stroke-linejoin="round" stroke-miterlimit="10" points="
		124.2,177.9 114.6,183.9 113.3,184.4 112,184.3 110.8,183.6 110.1,182.6 109.6,181.3 109.7,180 110.4,178.8 120.7,172.2 122,171.7 
		123.3,171.8 124.5,172.5 125.2,173.5 125.7,174.8 125.6,176.1 124.9,177.3 124.2,177.9 124.2,177.9 	"/>
</g>
</svg>
