<!-- Generator: Adobe Illustrator 18.0.0, SVG Export Plug-In  -->
<svg version="1.1"
	 xmlns="http://www.w3.org/2000/svg" xmlns:xlink="http://www.w3.org/1999/xlink" xmlns:a="http://ns.adobe.com/AdobeSVGViewerExtensions/3.0/"
	 x="0px" y="0px" width="184.8px" height="30.1px" viewBox="0 0 184.8 30.1" enable-background="new 0 0 184.8 30.1"
	 xml:space="preserve">
<defs>
</defs>
<g>
	<polygon fill="#124191" points="8.9,29.7 0,29.7 0,0.5 15.4,0.5 33,22.3 33,0.5 41.9,0.5 41.9,29.7 26.9,29.7 8.9,7.5 	"/>
	<path fill="#124191" d="M82.5,2.6c-1.9-2-4.7-2.6-9.9-2.6H57.4c-5.3,0-8,0.6-9.9,2.6c-1.2,1.3-2,2.7-2,6.8v11.3
		c0,4.1,0.8,5.5,2,6.8c1.9,2,4.6,2.6,9.9,2.6h15.2c5.3,0,8-0.6,9.9-2.6c1.2-1.3,2-2.7,2-6.8V9.4C84.5,5.4,83.8,4,82.5,2.6
		 M76.1,19.5c0,1.7-0.2,2.2-0.7,2.6c-0.5,0.4-1.2,0.5-3.2,0.5H57.8c-2,0-2.7-0.1-3.2-0.5c-0.4-0.4-0.6-0.9-0.6-2.6v-8.9
		c0-1.7,0.2-2.2,0.6-2.6c0.5-0.4,1.2-0.5,3.2-0.5h14.4c2,0,2.8,0.1,3.2,0.5c0.5,0.4,0.7,0.9,0.7,2.6V19.5z"/>
	<path fill="#124191" d="M113.1,0.5h12.2l-16.5,13.7l18.7,15.6h-13.1l-17-15.2L113.1,0.5z M97.4,29.7h-9.3V0.5h9.3V29.7z"/>
	<rect x="129.2" y="0.5" fill="#124191" width="9.3" height="29.2"/>
	<path fill="#124191" d="M156.5,18.3H168l-5.8-10.6L156.5,18.3z M174,29.7l-2.7-5.1h-18l-2.7,5.1h-10.3l16.5-29.2h11.6l16.5,29.2
		H174z"/>
</g>
</svg>
