<!-- Generator: Adobe Illustrator 18.0.0, SVG Export Plug-In  -->
<svg version="1.1"
	 xmlns="http://www.w3.org/2000/svg" xmlns:xlink="http://www.w3.org/1999/xlink" xmlns:a="http://ns.adobe.com/AdobeSVGViewerExtensions/3.0/"
	 x="0px" y="0px" width="371px" height="367px" viewBox="0 0 371 367" enable-background="new 0 0 371 367" xml:space="preserve">
<defs>
</defs>
<g>
	<circle fill="none" stroke="#50C2F0" stroke-width="3" stroke-miterlimit="10" cx="184.5" cy="184.5" r="177"/>
	<circle fill="#FFFFFF" stroke="#50C2F0" stroke-width="3" stroke-miterlimit="10" cx="98.5" cy="29.5" r="8"/>
	<circle fill="#FFFFFF" stroke="#50C2F0" stroke-width="3" stroke-miterlimit="10" cx="163.5" cy="9.5" r="8"/>
	<circle fill="#FFFFFF" stroke="#50C2F0" stroke-width="3" stroke-miterlimit="10" cx="243.5" cy="17.5" r="8"/>
	<circle fill="#FFFFFF" stroke="#50C2F0" stroke-width="3" stroke-miterlimit="10" cx="329.5" cy="83.5" r="8"/>
	<circle fill="#FFFFFF" stroke="#50C2F0" stroke-width="3" stroke-miterlimit="10" cx="32.5" cy="93.5" r="8"/>
	<circle fill="#FFFFFF" stroke="#50C2F0" stroke-width="3" stroke-miterlimit="10" cx="9.5" cy="160.5" r="8"/>
	<circle fill="#FFFFFF" stroke="#50C2F0" stroke-width="3" stroke-miterlimit="10" cx="71.5" cy="133.5" r="8"/>
	<circle fill="#FFFFFF" stroke="#50C2F0" stroke-width="3" stroke-miterlimit="10" cx="136.5" cy="163.5" r="8"/>
	<circle fill="#FFFFFF" stroke="#50C2F0" stroke-width="3" stroke-miterlimit="10" cx="71.5" cy="196.5" r="8"/>
	<circle fill="#FFFFFF" stroke="#50C2F0" stroke-width="3" stroke-miterlimit="10" cx="125.5" cy="230.5" r="8"/>
	<circle fill="#FFFFFF" stroke="#50C2F0" stroke-width="3" stroke-miterlimit="10" cx="70.5" cy="259.5" r="8"/>
	<circle fill="#FFFFFF" stroke="#50C2F0" stroke-width="3" stroke-miterlimit="10" cx="123.5" cy="303.5" r="8"/>
	<circle fill="#FFFFFF" stroke="#50C2F0" stroke-width="3" stroke-miterlimit="10" cx="178.5" cy="281.5" r="8"/>
	<circle fill="#FFFFFF" stroke="#50C2F0" stroke-width="3" stroke-miterlimit="10" cx="194.5" cy="224.5" r="8"/>
	<circle fill="#FFFFFF" stroke="#50C2F0" stroke-width="3" stroke-miterlimit="10" cx="235.5" cy="238.2" r="8"/>
	<circle fill="#FFFFFF" stroke="#50C2F0" stroke-width="3" stroke-miterlimit="10" cx="298.5" cy="251.5" r="8"/>
	<circle fill="#FFFFFF" stroke="#50C2F0" stroke-width="3" stroke-miterlimit="10" cx="253.5" cy="295.5" r="8"/>
	<circle fill="#FFFFFF" stroke="#50C2F0" stroke-width="3" stroke-miterlimit="10" cx="176.5" cy="330.5" r="8"/>
	<circle fill="#FFFFFF" stroke="#50C2F0" stroke-width="3" stroke-miterlimit="10" cx="262.5" cy="192.5" r="8"/>
	<circle fill="#FFFFFF" stroke="#50C2F0" stroke-width="3" stroke-miterlimit="10" cx="222.1" cy="110.5" r="8"/>
	<circle fill="#FFFFFF" stroke="#50C2F0" stroke-width="3" stroke-miterlimit="10" cx="152.5" cy="110.5" r="8"/>
	<circle fill="#FFFFFF" stroke="#50C2F0" stroke-width="3" stroke-miterlimit="10" cx="214.5" cy="160.5" r="8"/>
	<circle fill="#FFFFFF" stroke="#50C2F0" stroke-width="3" stroke-miterlimit="10" cx="262.5" cy="152.7" r="8"/>
	<circle fill="#FFFFFF" stroke="#50C2F0" stroke-width="3" stroke-miterlimit="10" cx="316.5" cy="173.5" r="8"/>
	<circle fill="#FFFFFF" stroke="#50C2F0" stroke-width="3" stroke-miterlimit="10" cx="274.5" cy="69.5" r="8"/>
	<circle fill="#FFFFFF" stroke="#50C2F0" stroke-width="3" stroke-miterlimit="10" cx="188.5" cy="51.5" r="8"/>
	<circle fill="#FFFFFF" stroke="#50C2F0" stroke-width="3" stroke-miterlimit="10" cx="106.5" cy="74.5" r="8"/>
	<circle fill="#FFFFFF" stroke="#50C2F0" stroke-width="3" stroke-miterlimit="10" cx="15.5" cy="238.5" r="8"/>
	<circle fill="#FFFFFF" stroke="#50C2F0" stroke-width="3" stroke-miterlimit="10" cx="67.5" cy="317.5" r="8"/>
	<circle fill="#FFFFFF" stroke="#50C2F0" stroke-width="3" stroke-miterlimit="10" cx="144.5" cy="357.5" r="8"/>
	<circle fill="#FFFFFF" stroke="#50C2F0" stroke-width="3" stroke-miterlimit="10" cx="248.5" cy="349.5" r="8"/>
	<circle fill="#FFFFFF" stroke="#50C2F0" stroke-width="3" stroke-miterlimit="10" cx="313.5" cy="306.5" r="8"/>
	<circle fill="#FFFFFF" stroke="#50C2F0" stroke-width="3" stroke-miterlimit="10" cx="350.5" cy="248.5" r="8"/>
	<circle fill="#FFFFFF" stroke="#50C2F0" stroke-width="3" stroke-miterlimit="10" cx="361.5" cy="179.5" r="8"/>
	<line fill="#FFFFFF" stroke="#50C2F0" stroke-width="3" stroke-miterlimit="10" x1="353.5" y1="179.5" x2="324.5" y2="173.5"/>
	<line fill="#FFFFFF" stroke="#50C2F0" stroke-width="3" stroke-miterlimit="10" x1="357.1" y1="186.2" x2="304.7" y2="246.5"/>
	<line fill="#FFFFFF" stroke="#50C2F0" stroke-width="3" stroke-miterlimit="10" x1="313.5" y1="180.9" x2="300.5" y2="243.8"/>
	<line fill="#FFFFFF" stroke="#50C2F0" stroke-width="3" stroke-miterlimit="10" x1="306.4" y1="250" x2="342.5" y2="248.5"/>
	<line fill="#FFFFFF" stroke="#50C2F0" stroke-width="3" stroke-miterlimit="10" x1="300.5" y1="259.5" x2="310.3" y2="299.2"/>
	<line fill="none" stroke="#50C2F0" stroke-width="3" stroke-miterlimit="10" x1="268.3" y1="74.5" x2="228.1" y2="105.2"/>
	<line fill="none" stroke="#50C2F0" stroke-width="3" stroke-miterlimit="10" x1="321" y1="83" x2="281.8" y2="72.7"/>
	<line fill="none" stroke="#50C2F0" stroke-width="3" stroke-miterlimit="10" x1="292.3" y1="256.5" x2="260.2" y2="291.1"/>
	<line fill="none" stroke="#50C2F0" stroke-width="3" stroke-miterlimit="10" x1="237.5" y1="245.9" x2="250.9" y2="287.9"/>
	<line fill="none" stroke="#50C2F0" stroke-width="3" stroke-miterlimit="10" x1="258.7" y1="199.6" x2="237.5" y2="230.4"/>
	<line fill="none" stroke="#50C2F0" stroke-width="3" stroke-miterlimit="10" x1="243.5" y1="238.2" x2="290.6" y2="250"/>
	<line fill="none" stroke="#50C2F0" stroke-width="3" stroke-miterlimit="10" x1="316.5" y1="165.5" x2="328" y2="91.5"/>
	<line fill="none" stroke="#50C2F0" stroke-width="3" stroke-miterlimit="10" x1="274.5" y1="77.5" x2="262.5" y2="144.7"/>
	<line fill="none" stroke="#50C2F0" stroke-width="3" stroke-miterlimit="10" x1="249.5" y1="22.8" x2="270.5" y2="62.6"/>
	<line fill="none" stroke="#50C2F0" stroke-width="3" stroke-miterlimit="10" x1="146.7" y1="105" x2="112.8" y2="79.5"/>
	<line fill="none" stroke="#50C2F0" stroke-width="3" stroke-miterlimit="10" x1="39.7" y1="90" x2="99.1" y2="77.5"/>
	<line fill="none" stroke="#50C2F0" stroke-width="3" stroke-miterlimit="10" x1="38.9" y1="98.2" x2="67.5" y2="126.6"/>
	<line fill="none" stroke="#50C2F0" stroke-width="3" stroke-miterlimit="10" x1="79.5" y1="136.5" x2="129.1" y2="160.5"/>
	<line fill="none" stroke="#50C2F0" stroke-width="3" stroke-miterlimit="10" x1="150.6" y1="118.3" x2="140" y2="156.3"/>
	<line fill="none" stroke="#50C2F0" stroke-width="3" stroke-miterlimit="10" x1="206.5" y1="160.5" x2="143.9" y2="160.5"/>
	<line fill="none" stroke="#50C2F0" stroke-width="3" stroke-miterlimit="10" x1="216.1" y1="152.7" x2="220.6" y2="118.5"/>
	<line fill="none" stroke="#50C2F0" stroke-width="3" stroke-miterlimit="10" x1="222.1" y1="158" x2="254.6" y2="154.1"/>
	<line fill="none" stroke="#50C2F0" stroke-width="3" stroke-miterlimit="10" x1="217.1" y1="104.3" x2="192.3" y2="58.6"/>
	<line fill="none" stroke="#50C2F0" stroke-width="3" stroke-miterlimit="10" x1="214.1" y1="110.5" x2="160.3" y2="108.9"/>
	<line fill="none" stroke="#50C2F0" stroke-width="3" stroke-miterlimit="10" x1="180.8" y1="53.6" x2="114.5" y2="72.7"/>
	<line fill="none" stroke="#50C2F0" stroke-width="3" stroke-miterlimit="10" x1="104.3" y1="66.8" x2="98.5" y2="37.5"/>
	<line fill="none" stroke="#50C2F0" stroke-width="3" stroke-miterlimit="10" x1="106.5" y1="29.5" x2="180.8" y2="49.4"/>
	<line fill="none" stroke="#50C2F0" stroke-width="3" stroke-miterlimit="10" x1="184.5" y1="44.6" x2="167" y2="16.7"/>
	<line fill="none" stroke="#50C2F0" stroke-width="3" stroke-miterlimit="10" x1="195.3" y1="47.3" x2="235.8" y2="19.8"/>
	<line fill="none" stroke="#50C2F0" stroke-width="3" stroke-miterlimit="10" x1="221" y1="165.1" x2="255.6" y2="188.5"/>
	<line fill="none" stroke="#50C2F0" stroke-width="3" stroke-miterlimit="10" x1="270.1" y1="189.9" x2="309.1" y2="176.5"/>
	<line fill="none" stroke="#50C2F0" stroke-width="3" stroke-miterlimit="10" x1="228.1" y1="235.2" x2="201.6" y2="228.1"/>
	<line fill="none" stroke="#50C2F0" stroke-width="3" stroke-miterlimit="10" x1="192.3" y1="232.2" x2="180.8" y2="273.8"/>
	<line fill="none" stroke="#50C2F0" stroke-width="3" stroke-miterlimit="10" x1="133.1" y1="233" x2="186.8" y2="226.7"/>
	<line fill="none" stroke="#50C2F0" stroke-width="3" stroke-miterlimit="10" x1="208.3" y1="165.5" x2="133.1" y2="228.1"/>
	<line fill="none" stroke="#50C2F0" stroke-width="3" stroke-miterlimit="10" x1="133.5" y1="170.9" x2="127.1" y2="222.7"/>
	<line fill="none" stroke="#50C2F0" stroke-width="3" stroke-miterlimit="10" x1="118.5" y1="226.7" x2="78.5" y2="200.4"/>
	<line fill="none" stroke="#50C2F0" stroke-width="3" stroke-miterlimit="10" x1="73.1" y1="188.7" x2="71" y2="141"/>
	<line fill="none" stroke="#50C2F0" stroke-width="3" stroke-miterlimit="10" x1="64.1" y1="136.5" x2="16.3" y2="156.3"/>
	<line fill="none" stroke="#50C2F0" stroke-width="3" stroke-miterlimit="10" x1="23" y1="235.8" x2="65.8" y2="202.1"/>
	<line fill="none" stroke="#50C2F0" stroke-width="3" stroke-miterlimit="10" x1="251.5" y1="303.2" x2="248.5" y2="341.5"/>
	<line fill="none" stroke="#50C2F0" stroke-width="3" stroke-miterlimit="10" x1="184" y1="333.2" x2="240.5" y2="349.5"/>
	<line fill="none" stroke="#50C2F0" stroke-width="3" stroke-miterlimit="10" x1="178.5" y1="322.8" x2="178.5" y2="289.5"/>
	<line fill="none" stroke="#50C2F0" stroke-width="3" stroke-miterlimit="10" x1="186.1" y1="284" x2="245.7" y2="293.7"/>
	<line fill="none" stroke="#50C2F0" stroke-width="3" stroke-miterlimit="10" x1="122" y1="295.6" x2="125.5" y2="238.5"/>
	<line fill="none" stroke="#50C2F0" stroke-width="3" stroke-miterlimit="10" x1="21.7" y1="243.5" x2="63.1" y2="256.5"/>
	<line fill="none" stroke="#50C2F0" stroke-width="3" stroke-miterlimit="10" x1="77.9" y1="256.5" x2="119.5" y2="235.8"/>
	<line fill="none" stroke="#50C2F0" stroke-width="3" stroke-miterlimit="10" x1="116" y1="306.1" x2="75.5" y2="317.5"/>
	<line fill="none" stroke="#50C2F0" stroke-width="3" stroke-miterlimit="10" x1="130.3" y1="307.7" x2="169.4" y2="326.9"/>
	<line fill="none" stroke="#50C2F0" stroke-width="3" stroke-miterlimit="10" x1="70.5" y1="267.5" x2="67.5" y2="309.5"/>
	<line fill="none" stroke="#50C2F0" stroke-width="3" stroke-miterlimit="10" x1="125.5" y1="311.2" x2="140" y2="350.9"/>
	<line fill="none" stroke="#50C2F0" stroke-width="3" stroke-miterlimit="10" x1="171.5" y1="336.7" x2="150.6" y2="352.3"/>
</g>
</svg>
