<!-- Generator: Adobe Illustrator 18.0.0, SVG Export Plug-In  -->
<svg version="1.1"
	 xmlns="http://www.w3.org/2000/svg" xmlns:xlink="http://www.w3.org/1999/xlink" xmlns:a="http://ns.adobe.com/AdobeSVGViewerExtensions/3.0/"
	 x="0px" y="0px" width="612px" height="619.6px" viewBox="0 0 612 619.6" enable-background="new 0 0 612 619.6"
	 xml:space="preserve">
<defs>
</defs>
<g>
	<path fill="#31C3F1" d="M306,0C137,0,0,138.7,0,309.8c0,171.1,137,309.8,306,309.8c169,0,306-138.7,306-309.8
		C612,138.7,475,0,306,0z M260.9,63.8c13-13.1,26-26.2,38.9-39.4c1.5-1.5,2.3-1.8,3.9-0.1c12.9,13.3,26,26.4,39.1,39.6
		c1.4,1.4,1.4,2.1,0,3.6c-12.3,12.4-24.5,24.8-36.9,37.2c-1.4,1.4-2,2.7-1.9,4.7c0.1,5,0.1,10.1,0,15.1c0,1.6,0.6,3.4-2.3,3.4
		c-2.7,0-2.1-1.8-2.1-3.3c0-2.6,0-5.2,0-7.8c1.9-7.6-1.8-12.5-7-17.5c-10.8-10.3-21.1-21.2-31.6-31.8
		C259.3,66,259.4,65.3,260.9,63.8z M508.7,359.1c-17.4-0.1-34.7,0-52.1-0.1c-2.4,0-3,0.6-3,3c0.2,5.8,0.1,11.5,0,17.3
		c0,2,0.6,2.5,2.6,2.6c17.9,0.5,32,14.1,33.9,32.3c1.8,17.2-10,33.6-27,37.7c-0.1,0-0.2,0-0.3,0.1c-5.4,1.2-5.4,1.2-5.4,6.7
		c0,22.6,0,45.2,0.1,67.9c0,2.4-0.6,3.2-3.1,3.2c-15.3-0.1-30.6,0-45.9-0.1c-1.9,0-3.3,0.6-4.7,2c-15.6,15.8-31.2,31.6-46.8,47.5
		c-1.7,1.8-2.5,1.6-4.1-0.1c-15.9-16.2-31.9-32.4-48-48.6c-1.5-1.6-1.7-2.4,0-4c15.3-15.4,30.5-30.8,45.8-46.2
		c1.4-1.4,2.1-2.9,2.1-5c-0.1-7.2-0.1-14.4,0-21.6c0-2-0.3-2.8-2.6-2.8c-33.8,0.1-67.6,0.1-101.5,0c-2,0-2.6,0.5-2.6,2.5
		c0.1,7.5,0.1,15,0,22.4c0,1.7,0.5,2.8,1.7,4c15.4,15.5,30.7,31.1,46.1,46.6c1.7,1.7,1.6,2.5-0.1,4.1c-16,16.1-31.9,32.2-47.8,48.4
		c-1.6,1.7-2.5,1.9-4.3,0.1c-15.2-15.6-30.6-31-45.8-46.5c-1.4-1.4-2.7-2-4.7-2c-12.2,0.1-24.4,0.1-36.6,0c-4.2,0-3.6,0.4-3.6-3.5
		c0-17.1-0.1-34.2,0-51.4c0-2.2-0.7-3.7-2.2-5.2c-12.2-12.2-24.3-24.6-36.5-36.8c-1.5-1.5-1.5-2.3,0-3.8
		c12.3-12.4,24.6-24.8,36.9-37.2c1.2-1.2,1.8-2.5,1.8-4.2c-0.1-3-0.2-6,0-8.9c0.1-2.1-0.6-2.6-2.5-2.6c-16.5,0.1-32.9,0-49.4,0
		c-3.4,0-3.4,0-3.4-3.5c0-17,0.1-34.1-0.1-51.1c0-2.5,0.8-3.1,3.2-3.1c15.5,0.1,31,0,46.5,0.1c2.3,0,3.1-0.5,3-3
		c-0.1-9.6-0.1-19.3,0-28.9c0-2-0.6-2.6-2.6-2.6c-15.7,0.1-31.3,0-47,0.1c-2.5,0-3.1-0.8-3.1-3.2c0.1-17.3,0.1-34.6,0-51.9
		c0-2.2,0.6-2.9,2.8-2.9c16.1,0.1,32.2,0,48.3,0.1c2.2,0,3-0.6,2.9-2.9c-0.1-5.5-0.1-11,0-16.5c0-1.8-0.3-2.6-2.4-2.9
		c-17.7-2.4-30.7-17.8-30.4-35.7c0.3-17.9,13.7-32.7,31.3-34.6c18.9-2,35.5,11,38.4,30.3c0.3,2.2,1.1,2.6,3,2.6
		c10.9-0.1,21.7-0.1,32.6,0c2.3,0,3.1-0.5,3-3c-0.1-11.2,0-22.3-0.1-33.5c0-2.3,0.6-2.9,2.8-2.8c22.5,0.1,45,0.1,67.6,0.1
		c2.1,0,4.3,0,6.4,0c24.4,0,48.8,0,73.2-0.1c2.5,0,3.1,0.7,3.1,3.1c-0.1,9.5,0,18.9-0.1,28.4c0,2.5,0.8,3,3,3c9.5-0.1,19-0.1,28.6,0
		c1.9,0,3.3-0.5,4.7-2c12.2-12.4,24.4-24.7,36.6-37.2c1.6-1.6,2.4-1.5,3.9,0c13,13.3,26,26.4,39.1,39.6c1.4,1.4,1.4,2.1,0,3.5
		c-12.3,12.4-24.6,24.8-36.9,37.2c-1.4,1.5-2,2.9-2,5c0.1,11.1,0.1,22.2,0,33.3c0,2.3,0.5,3,2.9,3c16.9-0.1,33.8,0,50.7-0.1
		c2.2,0,3,0.4,3,2.9c-0.1,36.1-0.1,72.3,0,108.4C511.7,358.7,510.9,359.1,508.7,359.1z"/>
	<path fill="#FEFEFE" d="M511.7,247.8c0-2.5-0.7-2.9-3-2.9c-16.9,0.1-33.8,0-50.7,0.1c-2.4,0-2.9-0.7-2.9-3
		c0.1-11.1,0.1-22.2,0-33.3c0-2.1,0.6-3.5,2-5c12.3-12.4,24.6-24.8,36.9-37.2c1.4-1.4,1.5-2.1,0-3.5c-13.1-13.1-26.1-26.3-39.1-39.6
		c-1.5-1.6-2.3-1.7-3.9,0c-12.1,12.4-24.4,24.7-36.6,37.2c-1.4,1.4-2.8,2-4.7,2c-9.5-0.1-19.1-0.1-28.6,0c-2.3,0-3.1-0.5-3-3
		c0.1-9.5,0-18.9,0.1-28.4c0-2.5-0.6-3.1-3.1-3.1c-24.4,0.1-48.8,0.1-73.2,0.1c-2.1,0-4.3,0-6.4,0c-22.5,0-45,0-67.6-0.1
		c-2.2,0-2.8,0.6-2.8,2.8c0.1,11.2,0,22.4,0.1,33.5c0,2.4-0.7,3-3,3c-10.9-0.1-21.7-0.1-32.6,0c-1.9,0-2.7-0.4-3-2.6
		c-2.9-19.3-19.5-32.3-38.4-30.3c-17.6,1.9-31,16.7-31.3,34.6c-0.3,17.9,12.7,33.3,30.4,35.7c2.1,0.3,2.4,1.1,2.4,2.9
		c-0.1,5.5-0.1,11,0,16.5c0.1,2.3-0.7,2.9-2.9,2.9c-16.1-0.1-32.2,0-48.3-0.1c-2.2,0-2.8,0.6-2.8,2.9c0.1,17.3,0.1,34.6,0,51.9
		c0,2.4,0.6,3.2,3.1,3.2c15.7-0.1,31.3,0,47-0.1c2,0,2.6,0.6,2.6,2.6c-0.1,9.6-0.1,19.3,0,28.9c0,2.5-0.8,3-3,3
		c-15.5-0.1-31,0-46.5-0.1c-2.4,0-3.2,0.6-3.2,3.1c0.1,17,0.1,34.1,0.1,51.1c0,3.5,0,3.5,3.4,3.5c16.5,0,32.9,0,49.4,0
		c2,0,2.7,0.5,2.5,2.6c-0.2,3-0.1,5.9,0,8.9c0.1,1.8-0.5,3-1.8,4.2c-12.3,12.4-24.5,24.9-36.9,37.2c-1.5,1.5-1.5,2.3,0,3.8
		c12.2,12.2,24.3,24.6,36.5,36.8c1.5,1.5,2.2,3,2.2,5.2c-0.1,17.1-0.1,34.2,0,51.4c0,4-0.6,3.5,3.6,3.5c12.2,0,24.4,0,36.6,0
		c2,0,3.3,0.6,4.7,2c15.3,15.5,30.6,31,45.8,46.5c1.8,1.8,2.7,1.6,4.3-0.1c15.9-16.2,31.8-32.3,47.8-48.4c1.6-1.6,1.8-2.4,0.1-4.1
		c-15.4-15.5-30.7-31.1-46.1-46.6c-1.2-1.2-1.7-2.3-1.7-4c0.1-7.5,0.1-15,0-22.4c0-2.1,0.6-2.5,2.6-2.5c33.8,0.1,67.6,0.1,101.5,0
		c2.3,0,2.6,0.8,2.6,2.8c-0.1,7.2-0.1,14.4,0,21.6c0,2.1-0.6,3.5-2.1,5c-15.3,15.4-30.5,30.8-45.8,46.2c-1.6,1.6-1.5,2.4,0,4
		c16,16.1,32,32.3,48,48.6c1.6,1.6,2.4,1.8,4.1,0.1c15.5-15.9,31.2-31.6,46.8-47.5c1.4-1.4,2.7-2,4.7-2c15.3,0.1,30.6,0,45.9,0.1
		c2.5,0,3.1-0.8,3.1-3.2c-0.1-22.6-0.1-45.2-0.1-67.9c0-5.5,0-5.5,5.4-6.7c0.1,0,0.2,0,0.3-0.1c17-4.1,28.8-20.5,27-37.7
		c-1.9-18.2-16-31.8-33.9-32.3c-2-0.1-2.6-0.6-2.6-2.6c0.1-5.8,0.2-11.5,0-17.3c-0.1-2.4,0.6-3,3-3c17.4,0.1,34.7,0,52.1,0.1
		c2.2,0,3-0.3,3-2.9C511.6,320,511.6,283.9,511.7,247.8z M418.1,163.3c11.2-11.2,22.3-22.5,33.4-33.8c1.2-1.2,1.8-1.1,2.9,0.1
		c11,11.2,22.1,22.4,33.2,33.6c0.4,0.4,0.8,0.9,1.3,1.4c-0.4,0.5-0.7,0.9-1,1.3c-11.2,11.4-22.5,22.8-33.7,34.2c-1,1-1.6,0.9-2.6,0
		c-11.2-11.4-22.3-22.7-33.6-34C416.9,165,417.1,164.3,418.1,163.3z M375.2,185.9c2.3,0,3.1-0.5,3-2.9c-0.2-4.6,0-9.2-0.1-13.8
		c0-1.6,0.4-2.2,2.1-2.2c10.2,0.1,20.5,0.1,30.7,0c1.2,0,2,0.4,2.8,1.3c11.9,12.1,23.8,24.1,35.7,36.1c0.9,0.9,1.3,1.8,1.3,3.1
		c0,11.7-0.1,23.4,0,35.1c0,2-0.8,2.3-2.5,2.3c-15.5-0.1-31,0-46.5-0.1c-2.4,0-3,0.6-2.9,3c0.1,13,0,25.9,0.1,38.9
		c0,2.1-0.5,2.8-2.7,2.8c-7.7-0.1-15.5-0.1-23.2,0c-1.9,0-2.4-0.6-2.3-2.5c2.3-37.8-26.3-71-63.5-73.5c-2.5-0.2-3.5-0.8-3.4-3.6
		c0.2-7.2,0.1-14.4,0-21.6c0-1.9,0.6-2.4,2.4-2.4c11.6,0.1,23.1,0,34.7,0C352.4,185.9,363.8,185.8,375.2,185.9z M449.2,380.2
		c0,1.5-0.3,2.2-1.9,2.6c-15.2,4.1-24.1,14.1-26.8,29.8c-0.3,1.8-0.8,2.4-2.6,2.4c-12.4-0.1-24.7-0.1-37.1,0c-2.2,0-2.7-0.8-2.6-2.8
		c0.1-5.5-0.1-11,0.1-16.5c0.1-2.1-0.6-2.6-2.6-2.5c-11.6,0.1-23.1,0-34.7,0c-11.5,0-23,0-34.4,0c-2,0-2.6-0.5-2.6-2.6
		c0.1-11.7,0.1-23.4,0-35.1c0-1.7,0.4-2.3,2.2-2.4c32.1-2.3,57.1-24.7,63.5-56.7c0.3-1.7,0.9-2.4,2.7-2.3c8,0.1,16,0.1,24,0
		c2.1,0,2.5,0.7,2.5,2.6c-0.1,19.7,0,39.5-0.1,59.2c0,2.4,0.5,3.2,3,3.2c14.9-0.1,29.7,0,44.6-0.1c2.2,0,2.8,0.6,2.8,2.8
		C449,367.9,449.1,374.1,449.2,380.2z M245,348.2c-11.5,0.4-22.9,0.6-34.4,1c-1.8,0.1-2.3-0.4-2.3-2.2c0.1-8.2-0.1-16.4,0.1-24.6
		c0-2.4-0.6-3.2-3.1-3.2c-16.4,0.1-32.7,0.1-49.1,0.1c-3.4,0-3.4,0-3.4-3.6c0-9.3,0.1-18.6-0.1-27.8c0-2.3,0.5-3.1,2.9-3.1
		c8.4,0.2,16.7,0.1,25.1,0.1c8.4,0,16.7-0.1,25.1,0.1c2,0,2.6-0.6,2.5-2.6c-0.1-7.7,0-15.3-0.1-23c0-1.9,0.4-2.7,2.5-2.6
		c8.1,0.1,16.2,0.1,24.3,0c2.4,0,2.2,0.7,1.6,2.6c-8.9,28-3.7,52.9,16.6,73.9c11.9,12.3,26.7,18.8,43.8,19.9c2,0.1,2.5,0.8,2.5,2.7
		c-0.1,11.6-0.1,23.2,0,34.9c0,2-0.6,2.6-2.6,2.6c-15.6-0.1-31.1-0.1-46.7,0c-2,0-2.6-0.5-2.5-2.6c0.1-13.2,0-26.5,0.1-39.7
		C247.9,348.6,247.2,348.1,245,348.2z M225.3,426.5c0,2.4-0.7,3-3,3c-8.7-0.1-17.4-0.1-26.2,0c-1.6,0-2.8-0.5-4-1.7
		c-11.5-11.8-23.1-23.5-34.7-35.2c-1.2-1.2-1.9-2.5-1.8-4.3c0.1-2.9,0.1-5.8,0-8.6c-0.1-2.1,0.5-2.8,2.7-2.8c7.9,0.1,15.8,0,23.8,0
		c7.9,0,15.8-0.1,23.8,0c2,0,2.6-0.6,2.5-2.6c-0.1-6.1,0-12.3-0.1-18.4c0-1.7,0.4-2.4,2.2-2.4c10.1-0.2,20.3-0.4,30.4-0.7
		c1.7-0.1,2.3,0.5,2.3,2.3c-0.1,11.9-0.1,23.8,0,35.7c0,1.8-0.7,2.3-2.3,2.3c-4.2-0.1-8.4,0.1-12.5-0.1c-2.4-0.1-3.2,0.5-3.2,3.1
		C225.4,406.3,225.2,416.4,225.3,426.5z M237.1,283.9c0-36.7,28.7-66,64.6-66.1c35.3-0.1,64.6,29.3,64.7,64.7
		c0.1,36.8-28.9,66.4-64.7,66.3C266.3,348.6,237.1,319.3,237.1,283.9z M232.3,132.5c46.3,0.1,92.5,0.1,138.8,0
		c2.2,0,2.6,0.8,2.6,2.8c-0.1,14.3-0.1,28.6,0,43c0,2.4-0.6,3-3,3c-23.1-0.1-46.3-0.1-69.4-0.1c-22.8,0-45.6,0-68.3,0
		c-3.4,0-3.4,0-3.4-3.5c0-14.1,0-28.3,0-42.4C229.7,133.1,230.2,132.5,232.3,132.5z M186.8,174.2c0.2-1.8,0.7-2.4,2.6-2.4
		c11.1,0.1,22.3,0.1,33.4,0c1.9,0,2.7,0.4,2.6,2.5c-0.2,2.8,0.1,5.6-0.1,8.4c-0.2,2.4,0.5,3.2,3,3.2c18.3-0.1,36.7-0.1,55-0.1
		c4.6,0,9.3,0,13.9,0c1.6,0,2.4,0.3,2.4,2.2c-0.1,7.7-0.1,15.3,0,23c0.1,2.7-1.7,2.3-3.2,2.4c-14.3,1.1-26.9,6.2-38.1,15.3
		c-7.6,6.2-13.6,13.7-18.1,22.4c-0.6,1.1-0.9,1.9-2.4,1c-0.8-0.5-2.1-0.1-3.2-0.1c-7.8,0-15.7-0.1-23.5,0c-2.2,0-2.9-0.5-2.9-2.8
		c0.2-6.6,0-13.2,0.1-19.7c0-2-0.5-2.6-2.5-2.6c-8.2,0.1-16.4,0.1-24.6,0.1c-8.2,0-16.4-0.1-24.6,0c-1.8,0-2.5-0.4-2.5-2.4
		c0.1-5.8,0.1-11.5,0-17.3c0-1.6,0.3-2.3,2.1-2.5C172.2,202.9,184.7,190.4,186.8,174.2z M121.6,169.6c0-16.9,13.8-30.8,30.4-30.7
		c17,0.1,30.5,13.9,30.5,31.2c-0.1,16.6-14,30.6-30.4,30.5C135.3,200.5,121.6,186.6,121.6,169.6z M103.1,280.2
		c-2.3,0-2.8-0.7-2.8-2.9c0.1-14.3,0.1-28.6,0-43c0-2.1,0.4-2.9,2.7-2.9c32.7,0.1,65.5,0.1,98.2,0c2.1,0,2.7,0.6,2.7,2.7
		c-0.1,14.4-0.1,28.8,0,43.2c0,2.4-0.8,2.8-2.9,2.8c-16.4-0.1-32.7,0-49.1,0C135.6,280.2,119.4,280.1,103.1,280.2z M103.1,372.5
		c-1.9,0-2.8-0.3-2.8-2.6c0.1-14.5,0.1-29,0-43.5c0-2,0.6-2.5,2.5-2.5c32.8,0.1,65.7,0.1,98.5,0c2,0,2.6,0.5,2.5,2.6
		c-0.1,14.5-0.1,29,0,43.5c0,2-0.6,2.6-2.6,2.6c-16.5-0.1-32.9,0-49.4,0C135.7,372.4,119.4,372.4,103.1,372.5z M154.5,467.2
		c-1.4,1.4-2,0.2-2.7-0.5c-7.2-7.3-14.5-14.6-21.7-22c-3.8-3.9-7.6-7.8-11.5-11.6c-1.1-1-1.2-1.7-0.1-2.8
		c11.2-11.3,22.4-22.6,33.6-34c0.4-0.4,0.8-0.7,1.3-1.1c0.5,0.4,0.9,0.7,1.3,1.1c11.3,11.4,22.5,22.8,33.8,34.2c0.9,0.9,1,1.4,0,2.3
		C177.1,444.3,165.8,455.7,154.5,467.2z M195.9,524.5c-1.1,1.1-2.3,1.5-3.8,1.5c-11.2-0.1-22.4-0.1-33.6,0c-2.3,0-2.8-0.8-2.8-2.9
		c0.1-8.1,0-16.2,0-24.3c0-7.8,0-15.7,0-23.5c0-1.8,0.5-3.2,1.8-4.5c11.6-11.6,23.1-23.3,34.6-35c1.1-1.2,2.3-1.8,3.9-1.7
		c8.9,0.1,17.8,0.1,26.7,0c2.1,0,2.7,0.6,2.7,2.8c-0.2,4,0,8.1-0.1,12.2c0,1.5,0.4,2.1,2,2c4.1-0.1,8.2,0,12.3-0.1
		c1.6,0,2.2,0.5,2.2,2.1c-0.1,7.8,0,15.7,0,23.5c0,1.3-0.6,2.2-1.4,3.1C225.4,494.6,210.6,509.5,195.9,524.5z M288,527.2
		c0.4,0.4,1,0.8,1,1.6c-0.3,0.4-0.7,0.8-1,1.1c-14.2,14.4-28.4,28.8-42.6,43.2c-1.2,1.2-1.8,1.1-3,0c-14.2-14.4-28.4-28.8-42.6-43.2
		c-1.1-1.1-1.1-1.6,0-2.7c14.2-14.4,28.5-28.7,42.6-43.2c1.2-1.2,1.8-1.1,3,0C259.6,498.4,273.8,512.8,288,527.2z M232.4,446.4
		c-2,0-2.7-0.5-2.7-2.7c0.1-14.3,0.1-28.7,0-43c0-2.3,0.6-2.9,2.8-2.8c23,0.1,46.1,0,69.1,0c23,0,46.1,0,69.1,0c2.3,0,3,0.5,3,2.9
		c-0.1,14.2-0.1,28.5,0,42.7c0,2.2-0.6,2.9-2.8,2.9C324.8,446.3,278.6,446.3,232.4,446.4z M398.9,530c-14.2,14.3-28.4,28.6-42.5,43
		c-0.4,0.4-0.9,0.8-1.4,1.3c-0.5-0.4-0.9-0.7-1.3-1.1c-14.4-14.5-28.7-29.1-43.1-43.6c-1.3-1.3-0.5-1.9,0.3-2.8
		c7.7-7.8,15.4-15.5,23-23.3c6.4-6.5,12.9-13,19.2-19.5c1.3-1.3,2-1.4,3.3,0c14.1,14.3,28.2,28.6,42.3,42.8
		C400,528,400.3,528.7,398.9,530z M450.6,525.1c-15-0.1-30.1-0.1-45.1,0c-1.4,0-2.3-0.4-3.3-1.4c-14.5-14.7-29-29.5-43.6-44.1
		c-1-1-1.3-2-1.3-3.3c0.1-7.6,0.1-15.1,0-22.7c0-2.3,0.7-2.7,2.7-2.6c5.3,0.1,10.7,0,16,0.1c1.7,0,2.3-0.5,2.3-2.3
		c-0.1-8.8,0-17.7-0.1-26.5c0-2.2,0.6-2.7,2.7-2.7c12.4,0.1,24.7,0,37.1,0c1.3,0,2.2-0.1,2.5,1.8c2.7,17.4,13.6,28.4,30.7,31.1
		c1.9,0.3,1.7,1.3,1.7,2.6c0,11.3,0,22.5,0,33.8c0,11.3,0,22.5,0,33.8C452.9,524.5,452.5,525.1,450.6,525.1z M456.7,386.5
		c15.9,0.4,29.4,14.9,29,31c-0.4,17.5-14.4,31.1-31.4,30.6c-16.3-0.5-29.9-14.8-29.6-31.1C425,399.5,439,386.1,456.7,386.5z
		 M503.9,354.4c-32.6-0.1-65.1-0.1-97.7,0c-2.3,0-3-0.6-3-3c0.1-16.6,0.1-33.2,0.1-49.7c0-16.4,0.1-32.8-0.1-49.2c0-2.4,0.7-3,3-3
		c32.6,0.1,65.1,0.1,97.7,0c2.4,0,3.2,0.6,3.2,3.2c-0.1,32.9-0.1,65.8,0,98.7C507.1,353.8,506.3,354.4,503.9,354.4z"/>
	<path fill="#FEFEFE" d="M292.5,99.3c5.2,5,8.9,9.9,7,17.5c0,2.6,0,5.2,0,7.8c0,1.5-0.6,3.2,2.1,3.3c2.9,0,2.3-1.8,2.3-3.4
		c0-5,0.1-10.1,0-15.1c-0.1-2,0.6-3.3,1.9-4.7c12.3-12.4,24.5-24.8,36.9-37.2c1.4-1.4,1.4-2.1,0-3.6c-13.1-13.1-26.1-26.3-39.1-39.6
		c-1.6-1.7-2.4-1.4-3.9,0.1c-12.9,13.2-25.9,26.3-38.9,39.4c-1.5,1.5-1.5,2.2,0,3.7C271.4,78.1,281.7,89,292.5,99.3z M266.8,64.3
		c11.2-11.3,22.4-22.6,33.6-34c1.1-1.2,1.7-0.9,2.7,0.1c11.1,11.3,22.2,22.6,33.4,33.8c1.2,1.3,1,1.9-0.1,3
		c-11.1,11.2-22.2,22.4-33.2,33.6c-0.4,0.4-0.9,0.8-1.5,1.3c-0.5-0.4-0.9-0.7-1.2-1.1c-11.3-11.4-22.5-22.8-33.8-34.2
		C265.6,65.8,265.9,65.2,266.8,64.3z"/>
	<path fill="#31C3F2" d="M366.4,282.5c0-35.4-29.4-64.7-64.7-64.7c-35.9,0.1-64.6,29.4-64.6,66.1c0,35.4,29.2,64.7,64.5,64.9
		C337.4,348.9,366.4,319.2,366.4,282.5z"/>
	<path fill="#31C3F2" d="M507.1,252.6c0-2.5-0.7-3.2-3.2-3.2c-32.6,0.1-65.1,0.1-97.7,0c-2.3,0-3,0.6-3,3
		c0.1,16.4,0.1,32.8,0.1,49.2c0,16.6,0.1,33.2-0.1,49.7c0,2.4,0.7,3,3,3c32.6-0.1,65.1-0.1,97.7,0c2.4,0,3.2-0.6,3.2-3.1
		C507,318.4,507,285.5,507.1,252.6z"/>
	<path fill="#31C3F2" d="M341,185.9c-11.6,0-23.1,0-34.7,0c-1.8,0-2.5,0.5-2.4,2.4c0.1,7.2,0.2,14.4,0,21.6
		c-0.1,2.8,0.8,3.4,3.4,3.6c37.2,2.6,65.7,35.7,63.5,73.5c-0.1,1.9,0.3,2.5,2.3,2.5c7.7-0.1,15.5-0.1,23.2,0c2.1,0,2.7-0.7,2.7-2.8
		c-0.1-13,0-26-0.1-38.9c0-2.4,0.6-3,2.9-3c15.5,0.1,31,0,46.5,0.1c1.7,0,2.5-0.3,2.5-2.3c-0.1-11.7-0.1-23.4,0-35.1
		c0-1.3-0.4-2.2-1.3-3.1c-11.9-12-23.8-24.1-35.7-36.1c-0.8-0.8-1.6-1.3-2.8-1.3c-10.2,0-20.5,0.1-30.7,0c-1.7,0-2.1,0.6-2.1,2.2
		c0.1,4.6-0.1,9.2,0.1,13.8c0.1,2.5-0.8,3-3,2.9C363.8,185.8,352.4,185.9,341,185.9z"/>
	<path fill="#31C3F2" d="M446.4,359c-14.9,0.1-29.7,0-44.6,0.1c-2.6,0-3-0.8-3-3.2c0.1-19.7,0-39.5,0.1-59.2c0-1.9-0.4-2.7-2.5-2.6
		c-8,0.1-16,0.1-24,0c-1.8,0-2.4,0.6-2.7,2.3c-6.4,32-31.4,54.3-63.5,56.7c-1.8,0.1-2.2,0.7-2.2,2.4c0.1,11.7,0.1,23.4,0,35.1
		c0,2.1,0.6,2.6,2.6,2.6c11.5-0.1,23,0,34.4,0c11.6,0,23.1,0,34.7,0c1.9,0,2.6,0.5,2.6,2.5c-0.1,5.5,0,11-0.1,16.5
		c0,2,0.4,2.9,2.6,2.8c12.4-0.1,24.7-0.1,37.1,0c1.8,0,2.3-0.6,2.6-2.4c2.7-15.7,11.5-25.7,26.8-29.8c1.6-0.4,1.9-1.1,1.9-2.6
		c-0.1-6.1-0.1-12.3,0-18.4C449.2,359.6,448.7,358.9,446.4,359z M395.9,331.8c-9.9-0.1-19.8,0-29.6-0.1c-2.1,0-2.7,0.6-2.7,2.7
		c0.1,18.3,0,36.6,0.1,54.9c0,1.6,0,2.7-2.2,2.7c-2,0-2.5-0.7-2.5-2.6c0.1-10,0-20,0-30c0-9.9,0.1-19.8,0-29.7c0-2,0.6-2.6,2.6-2.5
		c11.5,0.1,23,0.1,34.4,0c1.7,0,2.6,0.3,2.6,2.3C398.5,331.4,397.6,331.8,395.9,331.8z"/>
	<path fill="#31C3F2" d="M452.9,488.8c0-11.3,0-22.5,0-33.8c0-1.3,0.2-2.3-1.7-2.6c-17.1-2.7-28-13.7-30.7-31.1
		c-0.3-1.9-1.2-1.8-2.5-1.8c-12.4,0-24.7,0.1-37.1,0c-2.1,0-2.7,0.5-2.7,2.7c0.1,8.8,0,17.7,0.1,26.5c0,1.8-0.5,2.3-2.3,2.3
		c-5.3-0.1-10.7,0-16-0.1c-2,0-2.8,0.4-2.7,2.6c0.2,7.6,0.1,15.1,0,22.7c0,1.4,0.4,2.4,1.3,3.3c14.6,14.7,29.1,29.4,43.6,44.1
		c1,1,1.9,1.4,3.3,1.4c15,0,30.1-0.1,45.1,0c1.9,0,2.4-0.6,2.3-2.4C452.8,511.4,452.9,500.1,452.9,488.8z"/>
	<path fill="#31C3F2" d="M250.3,393.2c15.6-0.1,31.1-0.1,46.7,0c2,0,2.6-0.5,2.6-2.6c-0.1-11.6-0.1-23.2,0-34.9
		c0-1.9-0.4-2.6-2.5-2.7c-17-1.1-31.9-7.6-43.8-19.9c-20.3-21.1-25.5-46-16.6-73.9c0.6-1.9,0.8-2.6-1.6-2.6
		c-8.1,0.1-16.2,0.1-24.3,0c-2.1,0-2.5,0.7-2.5,2.6c0.1,7.7,0,15.3,0.1,23c0,2-0.5,2.6-2.5,2.6c-8.4-0.1-16.7-0.1-25.1-0.1
		c-8.4,0-16.7,0.1-25.1-0.1c-2.4,0-2.9,0.7-2.9,3.1c0.1,9.3,0.1,18.6,0.1,27.8c0,3.6,0,3.6,3.4,3.6c16.4,0,32.7,0.1,49.1-0.1
		c2.5,0,3.1,0.7,3.1,3.2c-0.1,8.2,0,16.4-0.1,24.6c0,1.8,0.5,2.3,2.3,2.2c11.5-0.4,22.9-0.6,34.4-1c2.2-0.1,2.9,0.5,2.8,2.8
		c-0.1,13.2,0,26.5-0.1,39.7C247.7,392.7,248.3,393.2,250.3,393.2z"/>
	<path fill="#31C3F2" d="M229.7,177.6c0,3.5,0,3.5,3.4,3.5c22.8,0,45.6,0,68.3,0c23.1,0,46.3,0,69.4,0.1c2.4,0,3-0.6,3-3
		c-0.1-14.3-0.1-28.6,0-43c0-2-0.4-2.8-2.6-2.8c-46.3,0.1-92.5,0.1-138.8,0c-2.1,0-2.7,0.6-2.7,2.7
		C229.7,149.4,229.7,163.5,229.7,177.6z"/>
	<path fill="#31C3F2" d="M373.8,443.5c-0.1-14.2-0.1-28.5,0-42.7c0-2.5-0.8-3-3-2.9c-23,0.1-46.1,0-69.1,0c-23.1,0-46.1,0-69.1,0
		c-2.2,0-2.9,0.6-2.8,2.8c0.1,14.3,0.1,28.6,0,43c0,2.2,0.7,2.7,2.7,2.7c46.2-0.1,92.4-0.1,138.6,0
		C373.2,446.4,373.8,445.7,373.8,443.5z"/>
	<path fill="#31C3F2" d="M156.4,204.8c-1.8,0.2-2.2,0.9-2.1,2.5c0.1,5.8,0.1,11.5,0,17.3c0,2,0.6,2.4,2.5,2.4c8.2-0.1,16.4,0,24.6,0
		c8.2,0,16.4,0.1,24.6-0.1c2,0,2.6,0.6,2.5,2.6c-0.1,6.6,0.1,13.2-0.1,19.7c-0.1,2.3,0.7,2.9,2.9,2.8c7.8-0.1,15.7,0,23.5,0
		c1.1,0,2.4-0.4,3.2,0.1c1.5,0.9,1.8,0.1,2.4-1c4.5-8.8,10.5-16.3,18.1-22.4c11.1-9,23.8-14.2,38.1-15.3c1.5-0.1,3.2,0.3,3.2-2.4
		c-0.2-7.7-0.1-15.3,0-23c0-1.9-0.8-2.2-2.4-2.2c-4.6,0.1-9.3,0-13.9,0c-18.3,0-36.7-0.1-55,0.1c-2.5,0-3.2-0.8-3-3.2
		c0.2-2.8-0.1-5.6,0.1-8.4c0.1-2.1-0.7-2.5-2.6-2.5c-11.1,0.1-22.3,0.1-33.4,0c-1.8,0-2.3,0.6-2.6,2.4
		C184.7,190.4,172.2,202.9,156.4,204.8z"/>
	<path fill="#31C3F2" d="M241.6,476.6c0-7.8-0.1-15.7,0-23.5c0-1.6-0.5-2.2-2.2-2.1c-4.1,0.1-8.2,0-12.3,0.1c-1.5,0-2-0.5-2-2
		c0.1-4.1-0.1-8.1,0.1-12.2c0.1-2.1-0.5-2.8-2.7-2.8c-8.9,0.1-17.8,0.1-26.7,0c-1.7,0-2.8,0.6-3.9,1.7c-11.5,11.7-23,23.4-34.6,35
		c-1.3,1.3-1.8,2.7-1.8,4.5c0.1,7.8,0,15.7,0,23.5c0,8.1,0.1,16.2,0,24.3c0,2.2,0.5,3,2.8,2.9c11.2-0.1,22.4-0.1,33.6,0
		c1.5,0,2.7-0.4,3.8-1.5c14.8-15,29.6-30,44.4-44.9C241.1,478.8,241.6,477.9,241.6,476.6z"/>
	<path fill="#31C3F2" d="M201,280.2c2.1,0,2.9-0.4,2.9-2.8c-0.1-14.4-0.1-28.8,0-43.2c0-2.1-0.5-2.8-2.7-2.7
		c-32.7,0.1-65.5,0.1-98.2,0c-2.3,0-2.7,0.8-2.7,2.9c0.1,14.3,0.1,28.6,0,43c0,2.2,0.5,2.9,2.8,2.9c16.3-0.1,32.6-0.1,48.8-0.1
		C168.3,280.2,184.7,280.1,201,280.2z"/>
	<path fill="#31C3F2" d="M201.4,372.5c2,0,2.6-0.5,2.6-2.6c-0.1-14.5-0.1-29,0-43.5c0-2-0.5-2.6-2.5-2.6c-32.8,0.1-65.7,0.1-98.5,0
		c-2,0-2.5,0.5-2.5,2.5c0.1,14.5,0.1,29,0,43.5c0,2.3,0.9,2.6,2.8,2.6c16.3-0.1,32.6,0,48.9,0C168.4,372.4,184.9,372.4,201.4,372.5z
		"/>
	<path fill="#31C3F2" d="M356.6,484c-1.3-1.4-2-1.3-3.3,0c-6.4,6.6-12.8,13-19.2,19.5c-7.7,7.8-15.3,15.6-23,23.3
		c-0.9,0.9-1.6,1.5-0.3,2.8c14.4,14.5,28.7,29,43.1,43.6c0.4,0.4,0.8,0.7,1.3,1.1c0.5-0.5,1-0.9,1.4-1.3
		c14.2-14.3,28.3-28.7,42.5-43c1.3-1.3,1.1-2-0.1-3.2C384.7,512.6,370.6,498.4,356.6,484z"/>
	<path fill="#31C3F2" d="M242.4,484c-14.2,14.4-28.4,28.8-42.6,43.2c-1.1,1.1-1,1.7,0,2.7c14.2,14.4,28.5,28.7,42.6,43.2
		c1.1,1.2,1.8,1.3,3,0c14.2-14.4,28.4-28.8,42.6-43.2c0.4-0.4,0.7-0.8,1-1.1c-0.1-0.8-0.6-1.1-1-1.6c-14.2-14.4-28.4-28.8-42.6-43.2
		C244.3,482.8,243.6,482.8,242.4,484z"/>
	<path fill="#31C3F2" d="M228.4,393.1c4.2,0.2,8.4,0,12.5,0.1c1.7,0,2.4-0.4,2.3-2.3c-0.1-11.9-0.1-23.8,0-35.7
		c0-1.8-0.6-2.4-2.3-2.3c-10.1,0.3-20.3,0.5-30.4,0.7c-1.8,0-2.2,0.7-2.2,2.4c0.1,6.1,0,12.3,0.1,18.4c0,2-0.5,2.6-2.5,2.6
		c-7.9-0.1-15.8,0-23.8,0c-7.9,0-15.8,0.1-23.8,0c-2.2,0-2.8,0.7-2.7,2.8c0.1,2.9,0.1,5.8,0,8.6c-0.1,1.8,0.6,3,1.8,4.3
		c11.6,11.7,23.2,23.4,34.7,35.2c1.2,1.2,2.3,1.7,4,1.7c8.7-0.1,17.4-0.1,26.2,0c2.3,0,3-0.5,3-3c-0.1-10.1,0-20.2-0.1-30.3
		C225.2,393.6,226,393,228.4,393.1z"/>
	<path fill="#31C3F2" d="M182.5,170.1c0.1-17.3-13.5-31.2-30.5-31.2c-16.6-0.1-30.4,13.8-30.4,30.7c0,17,13.6,31,30.5,31
		C168.5,200.6,182.5,186.7,182.5,170.1z"/>
	<path fill="#31C3F2" d="M424.7,417c-0.3,16.4,13.3,30.7,29.6,31.1c17,0.5,30.9-13.1,31.4-30.6c0.4-16.1-13.1-30.6-29-31
		C439,386.1,425,399.5,424.7,417z"/>
	<path fill="#31C3F2" d="M451.6,200.1c0.9,1,1.5,1.1,2.6,0c11.2-11.4,22.5-22.8,33.7-34.2c0.4-0.4,0.7-0.8,1-1.3
		c-0.5-0.5-0.9-1-1.3-1.4c-11.1-11.2-22.1-22.4-33.2-33.6c-1.1-1.1-1.7-1.3-2.9-0.1c-11.1,11.3-22.2,22.6-33.4,33.8
		c-1,1-1.2,1.7-0.1,2.8C429.3,177.4,440.5,188.7,451.6,200.1z"/>
	<path fill="#31C3F2" d="M188.4,430.5c-11.3-11.4-22.5-22.8-33.8-34.2c-0.4-0.4-0.8-0.7-1.3-1.1c-0.5,0.4-0.9,0.7-1.3,1.1
		c-11.2,11.3-22.4,22.7-33.6,34c-1.1,1.1-1,1.8,0.1,2.8c3.9,3.8,7.7,7.8,11.5,11.6c7.2,7.3,14.5,14.7,21.7,22c0.7,0.7,1.3,2,2.7,0.5
		c11.3-11.5,22.6-23,34-34.4C189.4,431.9,189.3,431.4,188.4,430.5z"/>
	<path fill="#31C3F2" d="M300.5,101c0.4,0.4,0.8,0.7,1.2,1.1c0.6-0.5,1-0.9,1.5-1.3c11.1-11.2,22.1-22.4,33.2-33.6
		c1.1-1.1,1.4-1.7,0.1-3c-11.2-11.2-22.3-22.5-33.4-33.8c-1-1-1.6-1.3-2.7-0.1c-11.2,11.4-22.4,22.7-33.6,34
		c-0.9,0.9-1.2,1.5-0.1,2.6C278,78.2,289.2,89.6,300.5,101z"/>
	<path fill="#FCFDFE" d="M395.9,327.1c-11.5,0.1-23,0.1-34.4,0c-2,0-2.6,0.5-2.6,2.5c0.1,9.9,0,19.8,0,29.7c0,10,0,20,0,30
		c0,2,0.5,2.6,2.5,2.6c2.2,0,2.2-1.1,2.2-2.7c0-18.3,0-36.6-0.1-54.9c0-2.1,0.6-2.7,2.7-2.7c9.9,0.1,19.8,0,29.6,0.1
		c1.7,0,2.6-0.4,2.6-2.4C398.5,327.3,397.6,327.1,395.9,327.1z"/>
</g>
</svg>
