<?xml version="1.0" encoding="utf-8"?>
<!-- Generator: Adobe Illustrator 16.0.0, SVG Export Plug-In . SVG Version: 6.00 Build 0)  -->
<!DOCTYPE svg PUBLIC "-//W3C//DTD SVG 1.1//EN" "http://www.w3.org/Graphics/SVG/1.1/DTD/svg11.dtd">
<svg version="1.1" id="Layer_1" xmlns="http://www.w3.org/2000/svg" xmlns:xlink="http://www.w3.org/1999/xlink" x="0px" y="0px"
	 width="92px" height="181px" viewBox="0 0 92 181" enable-background="new 0 0 92 181" xml:space="preserve">
<g>
	<g>
		<g>
			<path fill="#EDEDED" d="M46.195,0.504C10.079,0.504,0.59,14.641,0.59,14.641v161.066c0,0,7.127,4.493,45.562,4.493
				c38.189,0,45.438-4.493,45.438-4.493V14.641C91.59,14.641,84.221,0.504,46.195,0.504z"/>
		</g>
		<g>
			<path fill="none" stroke="#231F20" d="M46.195,0.504C10.079,0.504,0.59,14.641,0.59,14.641v161.066c0,0,7.127,4.493,45.562,4.493
				c38.189,0,45.438-4.493,45.438-4.493V14.641C91.59,14.641,84.221,0.504,46.195,0.504z"/>
		</g>
	</g>
	<g>
		<g>
			<linearGradient id="SVGID_1_" gradientUnits="userSpaceOnUse" x1="46.0889" y1="0.2002" x2="46.0889" y2="174.0215">
				<stop  offset="0" style="stop-color:#F8B7AC"/>
				<stop  offset="0.375" style="stop-color:#DEBCC3"/>
				<stop  offset="0.7619" style="stop-color:#C9C0D7"/>
				<stop  offset="1" style="stop-color:#C0C2E1"/>
			</linearGradient>
			<path fill="url(#SVGID_1_)" d="M91.588,35.545v-9.102H79.563c0.003-0.106,0.015-0.211,0.015-0.318
				c0-9.951-14.058-18.078-31.76-18.61h0.002V0.2h-3.491v7.308c-17.8,0.474-31.97,8.626-31.97,18.617
				c0,0.107,0.011,0.212,0.015,0.318h-0.015v-0.318H0.59v9.101h11.733v111.054H0.59v9.101h11.733v0.402h0.054
				c0.387,10.114,15.272,18.239,33.59,18.239c18.319,0,33.204-8.125,33.591-18.239h12.029v-9.101H79.821V35.545H91.588z"/>
		</g>
		<g>
			<path fill="none" stroke="#231F20" d="M91.588,35.545v-9.102H79.563c0.003-0.106,0.015-0.211,0.015-0.318
				c0-9.951-14.058-18.078-31.76-18.61h0.002V0.2h-3.491v7.308c-17.8,0.474-31.97,8.626-31.97,18.617
				c0,0.107,0.011,0.212,0.015,0.318h-0.015v-0.318H0.59v9.101h11.733v111.054H0.59v9.101h11.733v0.402h0.054
				c0.387,10.114,15.272,18.239,33.59,18.239c18.319,0,33.204-8.125,33.591-18.239h12.029v-9.101H79.821V35.545H91.588z"/>
		</g>
	</g>
	<path fill="#FAAF42" stroke="#231F20" stroke-width="0.5" d="M7.732,58.658h47.483c3.357,0,6.08,1.188,6.08,2.652
		c0,1.466-2.723,2.653-6.08,2.653H7.732v-1.346h45.073c3.189,0,5.773-0.585,5.773-1.308c0-0.721-2.584-1.307-5.773-1.307H7.732
		V58.658z"/>
	<rect x="0.59" y="53.348" fill="#CCCCCC" stroke="#231F20" width="11.733" height="15.596"/>
</g>
</svg>
