<?xml version="1.0" encoding="utf-8"?>
<!-- Generator: Adobe Illustrator 16.0.0, SVG Export Plug-In . SVG Version: 6.00 Build 0)  -->
<!DOCTYPE svg PUBLIC "-//W3C//DTD SVG 1.1//EN" "http://www.w3.org/Graphics/SVG/1.1/DTD/svg11.dtd">
<svg version="1.1" id="Layer_1" xmlns="http://www.w3.org/2000/svg" xmlns:xlink="http://www.w3.org/1999/xlink" x="0px" y="0px"
	 width="100px" height="194px" viewBox="0 0 100 194" enable-background="new 0 0 100 194" xml:space="preserve">
<g>
	<g>
		<g>
			<g>
				<g>
					<path fill="#EDEDED" d="M54.117,12.585c-38.256,0-45.671,14.195-45.671,14.195v150.098c0,0,7.293,16.122,45.714,16.122
						c38.668,0,45.84-16.122,45.84-16.122V26.78C100,26.78,90.453,12.585,54.117,12.585z"/>
				</g>
				<g>
					<path fill="none" stroke="#231F20" d="M54.117,12.585c-38.256,0-45.671,14.195-45.671,14.195v150.098
						c0,0,7.293,16.122,45.714,16.122c38.668,0,45.84-16.122,45.84-16.122V26.78C100,26.78,90.453,12.585,54.117,12.585z"/>
				</g>
			</g>
			<g>
				<g>
					
						<linearGradient id="SVGID_1_" gradientUnits="userSpaceOnUse" x1="1777.2227" y1="41.4653" x2="1775.9191" y2="173.192" gradientTransform="matrix(-1 0 0 1 1830.8359 0)">
						<stop  offset="0" style="stop-color:#F8B7AC"/>
						<stop  offset="0.375" style="stop-color:#DEBCC3"/>
						<stop  offset="0.7619" style="stop-color:#C9C0D7"/>
						<stop  offset="1" style="stop-color:#C0C2E1"/>
					</linearGradient>
					<path fill="url(#SVGID_1_)" d="M88.128,42.861c0.003-0.1,0.015-0.199,0.015-0.299c0-9.607-15.139-17.398-33.813-17.398
						s-33.813,7.791-33.813,17.398c0,0.1,0.011,0.199,0.015,0.299h-0.26v120.728h0.264c0.389,9.439,15.364,17.025,33.795,17.025
						s33.406-7.586,33.795-17.025h0.054V42.861H88.128z"/>
				</g>
				<g>
					<path fill="none" stroke="#231F20" d="M88.128,42.861c0.003-0.1,0.015-0.199,0.015-0.299c0-9.607-15.139-17.398-33.813-17.398
						s-33.813,7.791-33.813,17.398c0,0.1,0.011,0.199,0.015,0.299h-0.26v120.728h0.264c0.389,9.439,15.364,17.025,33.795,17.025
						s33.406-7.586,33.795-17.025h0.054V42.861H88.128z"/>
				</g>
			</g>
		</g>
		<rect x="34.558" y="1" fill="#FFFFFF" stroke="#231F20" width="4.255" height="48.064"/>
		<rect x="70.184" y="1" fill="#FFFFFF" stroke="#231F20" stroke-width="0.8923" width="4.254" height="124.663"/>
	</g>
	<g>
		<g>
			
				<linearGradient id="SVGID_2_" gradientUnits="userSpaceOnUse" x1="618.1992" y1="154.9648" x2="673.4912" y2="154.9648" gradientTransform="matrix(-0.9979 0.0653 0.0653 0.9979 689.2695 -64.6836)">
				<stop  offset="0" style="stop-color:#B3B3B3"/>
				<stop  offset="0.0185" style="stop-color:#B6B6B6"/>
				<stop  offset="0.2268" style="stop-color:#DEDEDE"/>
				<stop  offset="0.3927" style="stop-color:#F6F6F6"/>
				<stop  offset="0.4945" style="stop-color:#FFFFFF"/>
				<stop  offset="0.6034" style="stop-color:#F5F5F5"/>
				<stop  offset="0.7911" style="stop-color:#D9D9D9"/>
				<stop  offset="1" style="stop-color:#B3B3B3"/>
			</linearGradient>
			<path fill="url(#SVGID_2_)" stroke="#231F20" stroke-width="0.7" stroke-dasharray="2,1" d="M27.384,135.036
				c0.087,1.228,0.7,2.165,1.375,2.095l52.598-5.556c0.671-0.072,1.144-1.122,1.059-2.354l0,0c-0.086-1.227-0.7-2.162-1.374-2.091
				l-52.6,5.555C27.772,132.756,27.298,133.807,27.384,135.036L27.384,135.036z"/>
			
				<linearGradient id="SVGID_3_" gradientUnits="userSpaceOnUse" x1="618.9121" y1="165.8574" x2="674.2041" y2="165.8574" gradientTransform="matrix(-0.9979 0.0653 0.0653 0.9979 689.2695 -64.6836)">
				<stop  offset="0" style="stop-color:#B3B3B3"/>
				<stop  offset="0.0185" style="stop-color:#B6B6B6"/>
				<stop  offset="0.2268" style="stop-color:#DEDEDE"/>
				<stop  offset="0.3927" style="stop-color:#F6F6F6"/>
				<stop  offset="0.4945" style="stop-color:#FFFFFF"/>
				<stop  offset="0.6034" style="stop-color:#F5F5F5"/>
				<stop  offset="0.7911" style="stop-color:#D9D9D9"/>
				<stop  offset="1" style="stop-color:#B3B3B3"/>
			</linearGradient>
			<path fill="url(#SVGID_3_)" stroke="#231F20" stroke-width="0.7" stroke-dasharray="2,1" d="M27.384,145.953
				c0.087,1.227,0.7,2.166,1.375,2.094l52.598-5.556c0.671-0.072,1.144-1.123,1.059-2.354l0,0c-0.086-1.226-0.7-2.161-1.374-2.091
				l-52.6,5.556C27.772,143.674,27.298,144.723,27.384,145.953L27.384,145.953z"/>
			
				<linearGradient id="SVGID_4_" gradientUnits="userSpaceOnUse" x1="619.625" y1="176.75" x2="674.917" y2="176.75" gradientTransform="matrix(-0.9979 0.0653 0.0653 0.9979 689.2695 -64.6836)">
				<stop  offset="0" style="stop-color:#B3B3B3"/>
				<stop  offset="0.0185" style="stop-color:#B6B6B6"/>
				<stop  offset="0.2268" style="stop-color:#DEDEDE"/>
				<stop  offset="0.3927" style="stop-color:#F6F6F6"/>
				<stop  offset="0.4945" style="stop-color:#FFFFFF"/>
				<stop  offset="0.6034" style="stop-color:#F5F5F5"/>
				<stop  offset="0.7911" style="stop-color:#D9D9D9"/>
				<stop  offset="1" style="stop-color:#B3B3B3"/>
			</linearGradient>
			<path fill="url(#SVGID_4_)" stroke="#231F20" stroke-width="0.7" stroke-dasharray="2,1" d="M27.384,156.87
				c0.087,1.227,0.7,2.164,1.375,2.093l52.598-5.554c0.671-0.074,1.144-1.123,1.059-2.355l0,0c-0.086-1.227-0.7-2.162-1.374-2.092
				l-52.6,5.556C27.772,154.59,27.298,155.639,27.384,156.87L27.384,156.87z"/>
			
				<linearGradient id="SVGID_5_" gradientUnits="userSpaceOnUse" x1="620.3418" y1="187.71" x2="675.6338" y2="187.71" gradientTransform="matrix(-0.9979 0.0653 0.0653 0.9979 689.2695 -64.6836)">
				<stop  offset="0" style="stop-color:#B3B3B3"/>
				<stop  offset="0.0185" style="stop-color:#B6B6B6"/>
				<stop  offset="0.2268" style="stop-color:#DEDEDE"/>
				<stop  offset="0.3927" style="stop-color:#F6F6F6"/>
				<stop  offset="0.4945" style="stop-color:#FFFFFF"/>
				<stop  offset="0.6034" style="stop-color:#F5F5F5"/>
				<stop  offset="0.7911" style="stop-color:#D9D9D9"/>
				<stop  offset="1" style="stop-color:#B3B3B3"/>
			</linearGradient>
			<path fill="url(#SVGID_5_)" stroke="#231F20" stroke-width="0.7" stroke-dasharray="2,1" d="M27.384,167.854
				c0.087,1.227,0.7,2.164,1.375,2.093l52.598-5.556c0.671-0.072,1.144-1.122,1.059-2.353l0,0c-0.086-1.228-0.7-2.163-1.374-2.092
				l-52.6,5.556C27.772,165.574,27.298,166.622,27.384,167.854L27.384,167.854z"/>
			
				<linearGradient id="SVGID_6_" gradientUnits="userSpaceOnUse" x1="629.0166" y1="320.2773" x2="684.3086" y2="320.2773" gradientTransform="matrix(-0.9979 -0.0653 0.0653 -0.9979 689.2695 489.2539)">
				<stop  offset="0" style="stop-color:#D9D9D9"/>
				<stop  offset="0.0029" style="stop-color:#DADADA"/>
				<stop  offset="0.0586" style="stop-color:#EBEBEB"/>
				<stop  offset="0.1276" style="stop-color:#F6F6F6"/>
				<stop  offset="0.2248" style="stop-color:#FDFDFD"/>
				<stop  offset="0.4945" style="stop-color:#FFFFFF"/>
				<stop  offset="0.7703" style="stop-color:#FDFDFD"/>
				<stop  offset="0.8696" style="stop-color:#F6F6F6"/>
				<stop  offset="0.9401" style="stop-color:#EBEBEB"/>
				<stop  offset="0.997" style="stop-color:#DADADA"/>
				<stop  offset="1" style="stop-color:#D9D9D9"/>
			</linearGradient>
			<path fill="url(#SVGID_6_)" stroke="#231F20" stroke-width="0.7" stroke-dasharray="2,1" d="M27.384,123.863
				c0.087-1.229,0.7-2.165,1.375-2.095l52.598,5.556c0.671,0.073,1.144,1.122,1.059,2.354l0,0c-0.086,1.228-0.7,2.163-1.374,2.092
				l-52.6-5.555C27.772,126.143,27.298,125.093,27.384,123.863L27.384,123.863z"/>
			
				<linearGradient id="SVGID_7_" gradientUnits="userSpaceOnUse" x1="628.3037" y1="309.3848" x2="683.5957" y2="309.3848" gradientTransform="matrix(-0.9979 -0.0653 0.0653 -0.9979 689.2695 489.2539)">
				<stop  offset="0" style="stop-color:#D9D9D9"/>
				<stop  offset="0.0029" style="stop-color:#DADADA"/>
				<stop  offset="0.0586" style="stop-color:#EBEBEB"/>
				<stop  offset="0.1276" style="stop-color:#F6F6F6"/>
				<stop  offset="0.2248" style="stop-color:#FDFDFD"/>
				<stop  offset="0.4945" style="stop-color:#FFFFFF"/>
				<stop  offset="0.7703" style="stop-color:#FDFDFD"/>
				<stop  offset="0.8696" style="stop-color:#F6F6F6"/>
				<stop  offset="0.9401" style="stop-color:#EBEBEB"/>
				<stop  offset="0.997" style="stop-color:#DADADA"/>
				<stop  offset="1" style="stop-color:#D9D9D9"/>
			</linearGradient>
			<path fill="url(#SVGID_7_)" stroke="#231F20" stroke-width="0.7" stroke-dasharray="2,1" d="M27.384,134.778
				c0.087-1.227,0.7-2.164,1.375-2.094l52.598,5.555c0.671,0.074,1.144,1.124,1.059,2.355l0,0c-0.086,1.227-0.7,2.162-1.374,2.092
				l-52.6-5.556C27.772,137.059,27.298,136.01,27.384,134.778L27.384,134.778z"/>
			
				<linearGradient id="SVGID_8_" gradientUnits="userSpaceOnUse" x1="627.5918" y1="298.4922" x2="682.8828" y2="298.4922" gradientTransform="matrix(-0.9979 -0.0653 0.0653 -0.9979 689.2695 489.2539)">
				<stop  offset="0" style="stop-color:#D9D9D9"/>
				<stop  offset="0.0029" style="stop-color:#DADADA"/>
				<stop  offset="0.0586" style="stop-color:#EBEBEB"/>
				<stop  offset="0.1276" style="stop-color:#F6F6F6"/>
				<stop  offset="0.2248" style="stop-color:#FDFDFD"/>
				<stop  offset="0.4945" style="stop-color:#FFFFFF"/>
				<stop  offset="0.7703" style="stop-color:#FDFDFD"/>
				<stop  offset="0.8696" style="stop-color:#F6F6F6"/>
				<stop  offset="0.9401" style="stop-color:#EBEBEB"/>
				<stop  offset="0.997" style="stop-color:#DADADA"/>
				<stop  offset="1" style="stop-color:#D9D9D9"/>
			</linearGradient>
			<path fill="url(#SVGID_8_)" stroke="#231F20" stroke-width="0.7" stroke-dasharray="2,1" d="M27.384,145.695
				c0.087-1.227,0.7-2.166,1.375-2.094l52.598,5.556c0.671,0.072,1.144,1.122,1.059,2.354l0,0c-0.086,1.226-0.7,2.16-1.374,2.09
				l-52.6-5.555C27.772,147.975,27.298,146.926,27.384,145.695L27.384,145.695z"/>
			
				<linearGradient id="SVGID_9_" gradientUnits="userSpaceOnUse" x1="626.8789" y1="287.5996" x2="682.1699" y2="287.5996" gradientTransform="matrix(-0.9979 -0.0653 0.0653 -0.9979 689.2695 489.2539)">
				<stop  offset="0" style="stop-color:#D9D9D9"/>
				<stop  offset="0.0029" style="stop-color:#DADADA"/>
				<stop  offset="0.0586" style="stop-color:#EBEBEB"/>
				<stop  offset="0.1276" style="stop-color:#F6F6F6"/>
				<stop  offset="0.2248" style="stop-color:#FDFDFD"/>
				<stop  offset="0.4945" style="stop-color:#FFFFFF"/>
				<stop  offset="0.7703" style="stop-color:#FDFDFD"/>
				<stop  offset="0.8696" style="stop-color:#F6F6F6"/>
				<stop  offset="0.9401" style="stop-color:#EBEBEB"/>
				<stop  offset="0.997" style="stop-color:#DADADA"/>
				<stop  offset="1" style="stop-color:#D9D9D9"/>
			</linearGradient>
			<path fill="url(#SVGID_9_)" stroke="#231F20" stroke-width="0.7" stroke-dasharray="2,1" d="M27.384,156.612
				c0.087-1.229,0.7-2.165,1.375-2.095l52.598,5.556c0.671,0.072,1.144,1.122,1.059,2.354l0,0c-0.086,1.228-0.7,2.163-1.374,2.092
				l-52.6-5.556C27.772,158.892,27.298,157.842,27.384,156.612L27.384,156.612z"/>
			<path fill="#FFFFFF" stroke="#231F20" stroke-width="0.7" d="M28.825,126.27H0.652C0.292,126.271,0,125.276,0,124.046l0,0
				c0-1.226,0.292-2.219,0.652-2.219h28.173"/>
			<path fill="#FFFFFF" stroke="#231F20" stroke-width="0.7" d="M28.825,170.071H0.652C0.292,170.073,0,169.079,0,167.85l0,0
				c0-1.228,0.292-2.22,0.652-2.22h28.173"/>
		</g>
		
			<linearGradient id="SVGID_10_" gradientUnits="userSpaceOnUse" x1="618.1992" y1="154.9648" x2="673.4912" y2="154.9648" gradientTransform="matrix(-0.9979 0.0653 0.0653 0.9979 689.2695 -64.6836)">
			<stop  offset="0" style="stop-color:#B3B3B3"/>
			<stop  offset="0.0185" style="stop-color:#B6B6B6"/>
			<stop  offset="0.2268" style="stop-color:#DEDEDE"/>
			<stop  offset="0.3927" style="stop-color:#F6F6F6"/>
			<stop  offset="0.4945" style="stop-color:#FFFFFF"/>
			<stop  offset="0.6034" style="stop-color:#F5F5F5"/>
			<stop  offset="0.7911" style="stop-color:#D9D9D9"/>
			<stop  offset="1" style="stop-color:#B3B3B3"/>
		</linearGradient>
		<path fill="url(#SVGID_10_)" stroke="#231F20" stroke-width="0.7" stroke-dasharray="2,1" d="M27.384,135.036
			c0.087,1.228,0.7,2.165,1.375,2.095l52.598-5.556c0.671-0.072,1.144-1.122,1.059-2.354l0,0c-0.086-1.227-0.7-2.162-1.374-2.091
			l-52.6,5.555C27.772,132.756,27.298,133.807,27.384,135.036L27.384,135.036z"/>
		
			<linearGradient id="SVGID_11_" gradientUnits="userSpaceOnUse" x1="618.9121" y1="165.8574" x2="674.2041" y2="165.8574" gradientTransform="matrix(-0.9979 0.0653 0.0653 0.9979 689.2695 -64.6836)">
			<stop  offset="0" style="stop-color:#B3B3B3"/>
			<stop  offset="0.0185" style="stop-color:#B6B6B6"/>
			<stop  offset="0.2268" style="stop-color:#DEDEDE"/>
			<stop  offset="0.3927" style="stop-color:#F6F6F6"/>
			<stop  offset="0.4945" style="stop-color:#FFFFFF"/>
			<stop  offset="0.6034" style="stop-color:#F5F5F5"/>
			<stop  offset="0.7911" style="stop-color:#D9D9D9"/>
			<stop  offset="1" style="stop-color:#B3B3B3"/>
		</linearGradient>
		<path fill="url(#SVGID_11_)" stroke="#231F20" stroke-width="0.7" stroke-dasharray="2,1" d="M27.384,145.953
			c0.087,1.227,0.7,2.166,1.375,2.094l52.598-5.556c0.671-0.072,1.144-1.123,1.059-2.354l0,0c-0.086-1.226-0.7-2.161-1.374-2.091
			l-52.6,5.556C27.772,143.674,27.298,144.723,27.384,145.953L27.384,145.953z"/>
		
			<linearGradient id="SVGID_12_" gradientUnits="userSpaceOnUse" x1="619.625" y1="176.75" x2="674.917" y2="176.75" gradientTransform="matrix(-0.9979 0.0653 0.0653 0.9979 689.2695 -64.6836)">
			<stop  offset="0" style="stop-color:#B3B3B3"/>
			<stop  offset="0.0185" style="stop-color:#B6B6B6"/>
			<stop  offset="0.2268" style="stop-color:#DEDEDE"/>
			<stop  offset="0.3927" style="stop-color:#F6F6F6"/>
			<stop  offset="0.4945" style="stop-color:#FFFFFF"/>
			<stop  offset="0.6034" style="stop-color:#F5F5F5"/>
			<stop  offset="0.7911" style="stop-color:#D9D9D9"/>
			<stop  offset="1" style="stop-color:#B3B3B3"/>
		</linearGradient>
		<path fill="url(#SVGID_12_)" stroke="#231F20" stroke-width="0.7" stroke-dasharray="2,1" d="M27.384,156.87
			c0.087,1.227,0.7,2.164,1.375,2.093l52.598-5.554c0.671-0.074,1.144-1.123,1.059-2.355l0,0c-0.086-1.227-0.7-2.162-1.374-2.092
			l-52.6,5.556C27.772,154.59,27.298,155.639,27.384,156.87L27.384,156.87z"/>
		
			<linearGradient id="SVGID_13_" gradientUnits="userSpaceOnUse" x1="620.3418" y1="187.71" x2="675.6338" y2="187.71" gradientTransform="matrix(-0.9979 0.0653 0.0653 0.9979 689.2695 -64.6836)">
			<stop  offset="0" style="stop-color:#B3B3B3"/>
			<stop  offset="0.0185" style="stop-color:#B6B6B6"/>
			<stop  offset="0.2268" style="stop-color:#DEDEDE"/>
			<stop  offset="0.3927" style="stop-color:#F6F6F6"/>
			<stop  offset="0.4945" style="stop-color:#FFFFFF"/>
			<stop  offset="0.6034" style="stop-color:#F5F5F5"/>
			<stop  offset="0.7911" style="stop-color:#D9D9D9"/>
			<stop  offset="1" style="stop-color:#B3B3B3"/>
		</linearGradient>
		<path fill="url(#SVGID_13_)" stroke="#231F20" stroke-width="0.7" stroke-dasharray="2,1" d="M27.384,167.854
			c0.087,1.227,0.7,2.164,1.375,2.093l52.598-5.556c0.671-0.072,1.144-1.122,1.059-2.353l0,0c-0.086-1.228-0.7-2.163-1.374-2.092
			l-52.6,5.556C27.772,165.574,27.298,166.622,27.384,167.854L27.384,167.854z"/>
		
			<linearGradient id="SVGID_14_" gradientUnits="userSpaceOnUse" x1="629.0166" y1="320.2773" x2="684.3086" y2="320.2773" gradientTransform="matrix(-0.9979 -0.0653 0.0653 -0.9979 689.2695 489.2539)">
			<stop  offset="0" style="stop-color:#D9D9D9"/>
			<stop  offset="0.0029" style="stop-color:#DADADA"/>
			<stop  offset="0.0586" style="stop-color:#EBEBEB"/>
			<stop  offset="0.1276" style="stop-color:#F6F6F6"/>
			<stop  offset="0.2248" style="stop-color:#FDFDFD"/>
			<stop  offset="0.4945" style="stop-color:#FFFFFF"/>
			<stop  offset="0.7703" style="stop-color:#FDFDFD"/>
			<stop  offset="0.8696" style="stop-color:#F6F6F6"/>
			<stop  offset="0.9401" style="stop-color:#EBEBEB"/>
			<stop  offset="0.997" style="stop-color:#DADADA"/>
			<stop  offset="1" style="stop-color:#D9D9D9"/>
		</linearGradient>
		<path fill="url(#SVGID_14_)" stroke="#231F20" stroke-width="0.7" stroke-dasharray="2,1" d="M27.384,123.863
			c0.087-1.229,0.7-2.165,1.375-2.095l52.598,5.556c0.671,0.073,1.144,1.122,1.059,2.354l0,0c-0.086,1.228-0.7,2.163-1.374,2.092
			l-52.6-5.555C27.772,126.143,27.298,125.093,27.384,123.863L27.384,123.863z"/>
		
			<linearGradient id="SVGID_15_" gradientUnits="userSpaceOnUse" x1="628.3037" y1="309.3848" x2="683.5957" y2="309.3848" gradientTransform="matrix(-0.9979 -0.0653 0.0653 -0.9979 689.2695 489.2539)">
			<stop  offset="0" style="stop-color:#D9D9D9"/>
			<stop  offset="0.0029" style="stop-color:#DADADA"/>
			<stop  offset="0.0586" style="stop-color:#EBEBEB"/>
			<stop  offset="0.1276" style="stop-color:#F6F6F6"/>
			<stop  offset="0.2248" style="stop-color:#FDFDFD"/>
			<stop  offset="0.4945" style="stop-color:#FFFFFF"/>
			<stop  offset="0.7703" style="stop-color:#FDFDFD"/>
			<stop  offset="0.8696" style="stop-color:#F6F6F6"/>
			<stop  offset="0.9401" style="stop-color:#EBEBEB"/>
			<stop  offset="0.997" style="stop-color:#DADADA"/>
			<stop  offset="1" style="stop-color:#D9D9D9"/>
		</linearGradient>
		<path fill="url(#SVGID_15_)" stroke="#231F20" stroke-width="0.7" stroke-dasharray="2,1" d="M27.384,134.778
			c0.087-1.227,0.7-2.164,1.375-2.094l52.598,5.555c0.671,0.074,1.144,1.124,1.059,2.355l0,0c-0.086,1.227-0.7,2.162-1.374,2.092
			l-52.6-5.556C27.772,137.059,27.298,136.01,27.384,134.778L27.384,134.778z"/>
		
			<linearGradient id="SVGID_16_" gradientUnits="userSpaceOnUse" x1="627.5918" y1="298.4922" x2="682.8828" y2="298.4922" gradientTransform="matrix(-0.9979 -0.0653 0.0653 -0.9979 689.2695 489.2539)">
			<stop  offset="0" style="stop-color:#D9D9D9"/>
			<stop  offset="0.0029" style="stop-color:#DADADA"/>
			<stop  offset="0.0586" style="stop-color:#EBEBEB"/>
			<stop  offset="0.1276" style="stop-color:#F6F6F6"/>
			<stop  offset="0.2248" style="stop-color:#FDFDFD"/>
			<stop  offset="0.4945" style="stop-color:#FFFFFF"/>
			<stop  offset="0.7703" style="stop-color:#FDFDFD"/>
			<stop  offset="0.8696" style="stop-color:#F6F6F6"/>
			<stop  offset="0.9401" style="stop-color:#EBEBEB"/>
			<stop  offset="0.997" style="stop-color:#DADADA"/>
			<stop  offset="1" style="stop-color:#D9D9D9"/>
		</linearGradient>
		<path fill="url(#SVGID_16_)" stroke="#231F20" stroke-width="0.7" stroke-dasharray="2,1" d="M27.384,145.695
			c0.087-1.227,0.7-2.166,1.375-2.094l52.598,5.556c0.671,0.072,1.144,1.122,1.059,2.354l0,0c-0.086,1.226-0.7,2.16-1.374,2.09
			l-52.6-5.555C27.772,147.975,27.298,146.926,27.384,145.695L27.384,145.695z"/>
		
			<linearGradient id="SVGID_17_" gradientUnits="userSpaceOnUse" x1="626.8789" y1="287.5996" x2="682.1699" y2="287.5996" gradientTransform="matrix(-0.9979 -0.0653 0.0653 -0.9979 689.2695 489.2539)">
			<stop  offset="0" style="stop-color:#D9D9D9"/>
			<stop  offset="0.0029" style="stop-color:#DADADA"/>
			<stop  offset="0.0586" style="stop-color:#EBEBEB"/>
			<stop  offset="0.1276" style="stop-color:#F6F6F6"/>
			<stop  offset="0.2248" style="stop-color:#FDFDFD"/>
			<stop  offset="0.4945" style="stop-color:#FFFFFF"/>
			<stop  offset="0.7703" style="stop-color:#FDFDFD"/>
			<stop  offset="0.8696" style="stop-color:#F6F6F6"/>
			<stop  offset="0.9401" style="stop-color:#EBEBEB"/>
			<stop  offset="0.997" style="stop-color:#DADADA"/>
			<stop  offset="1" style="stop-color:#D9D9D9"/>
		</linearGradient>
		<path fill="url(#SVGID_17_)" stroke="#231F20" stroke-width="0.7" stroke-dasharray="2,1" d="M27.384,156.612
			c0.087-1.229,0.7-2.165,1.375-2.095l52.598,5.556c0.671,0.072,1.144,1.122,1.059,2.354l0,0c-0.086,1.228-0.7,2.163-1.374,2.092
			l-52.6-5.556C27.772,158.892,27.298,157.842,27.384,156.612L27.384,156.612z"/>
		<path fill="#FFFFFF" stroke="#231F20" stroke-width="0.7" d="M28.825,126.27H0.652C0.292,126.271,0,125.276,0,124.046l0,0
			c0-1.226,0.292-2.219,0.652-2.219h28.173"/>
		<path fill="#FFFFFF" stroke="#231F20" stroke-width="0.7" d="M28.825,170.071H0.652C0.292,170.073,0,169.079,0,167.85l0,0
			c0-1.228,0.292-2.22,0.652-2.22h28.173"/>
	</g>
</g>
</svg>
