<?xml version="1.0" encoding="utf-8"?>
<!-- Generator: Adobe Illustrator 16.0.0, SVG Export Plug-In . SVG Version: 6.00 Build 0)  -->
<!DOCTYPE svg PUBLIC "-//W3C//DTD SVG 1.1//EN" "http://www.w3.org/Graphics/SVG/1.1/DTD/svg11.dtd">
<svg version="1.1" id="Layer_1" xmlns="http://www.w3.org/2000/svg" xmlns:xlink="http://www.w3.org/1999/xlink" x="0px" y="0px"
	 width="106px" height="179px" viewBox="0 0 106 179" enable-background="new 0 0 106 179" xml:space="preserve">
<g>
	<g>
		<g>
			<path fill="#EDEDED" d="M94.806,8.204C94.129,4.207,74.624,1,50.647,1C26.8,1,7.375,4.171,6.497,8.138
				C6.041,8.385,5.832,8.532,5.832,8.532v158.778c0,0,7.006,10.689,44.772,10.689c37.524,0,44.648-10.689,44.648-10.689V8.532
				C95.253,8.532,95.118,8.41,94.806,8.204z"/>
		</g>
		<g>
			<path fill="none" stroke="#231F20" d="M94.806,8.204C94.129,4.207,74.624,1,50.647,1C26.8,1,7.375,4.171,6.497,8.138
				C6.041,8.385,5.832,8.532,5.832,8.532v158.778c0,0,7.006,10.689,44.772,10.689c37.524,0,44.648-10.689,44.648-10.689V8.532
				C95.253,8.532,95.118,8.41,94.806,8.204z"/>
		</g>
	</g>
	<g>
		<g>
			
				<linearGradient id="SVGID_1_" gradientUnits="userSpaceOnUse" x1="85.7471" y1="27.5581" x2="84.4575" y2="157.8622" gradientTransform="matrix(1 0 0 1 -27.8418 0)">
				<stop  offset="0" style="stop-color:#F8B7AC"/>
				<stop  offset="0.375" style="stop-color:#DEBCC3"/>
				<stop  offset="0.7619" style="stop-color:#C9C0D7"/>
				<stop  offset="1" style="stop-color:#C0C2E1"/>
			</linearGradient>
			<path fill="url(#SVGID_1_)" d="M95.532,151.346H81.534v-25.479h13.351v-3.871H81.534v-15.16h13.351v-3.87H81.534V84.259h13.674
				v-3.87H81.534V62.971h13.674v-3.87H81.534V46.521h13.674v-3.871H81.534V31.04h13.674v-3.87H81.534V23.1h-0.24
				c0.003-0.066,0.014-0.132,0.014-0.199c0-6.371-13.929-11.537-31.109-11.537c-17.181,0-31.109,5.166-31.109,11.537
				c0,0.066,0.011,0.132,0.014,0.199h-0.045v130.745h0.048c0.356,6.259,14.135,11.289,31.092,11.289
				c15.698,0,28.665-4.313,30.787-9.918h14.547V151.346z"/>
		</g>
		<g>
			<path fill="none" stroke="#231F20" stroke-width="0.5" d="M95.532,151.346H81.534v-25.479h13.351v-3.871H81.534v-15.16h13.351
				v-3.87H81.534V84.259h13.674v-3.87H81.534V62.971h13.674v-3.87H81.534V46.521h13.674v-3.871H81.534V31.04h13.674v-3.87H81.534
				V23.1h-0.24c0.003-0.066,0.014-0.132,0.014-0.199c0-6.371-13.929-11.537-31.109-11.537c-17.181,0-31.109,5.166-31.109,11.537
				c0,0.066,0.011,0.132,0.014,0.199h-0.045v130.745h0.048c0.356,6.259,14.135,11.289,31.092,11.289
				c15.698,0,28.665-4.313,30.787-9.918h14.547V151.346z"/>
		</g>
	</g>
	<g>
		<g>
			
				<linearGradient id="SVGID_2_" gradientUnits="userSpaceOnUse" x1="-462.6196" y1="267.9033" x2="-388.4307" y2="267.9033" gradientTransform="matrix(0.7959 -0.0818 -0.093 -0.9956 415.0811 346.2344)">
				<stop  offset="0" style="stop-color:#B3B3B3"/>
				<stop  offset="0.0185" style="stop-color:#B6B6B6"/>
				<stop  offset="0.2268" style="stop-color:#DEDEDE"/>
				<stop  offset="0.3927" style="stop-color:#F6F6F6"/>
				<stop  offset="0.4945" style="stop-color:#FFFFFF"/>
				<stop  offset="0.6034" style="stop-color:#F5F5F5"/>
				<stop  offset="0.7911" style="stop-color:#D9D9D9"/>
				<stop  offset="1" style="stop-color:#B3B3B3"/>
			</linearGradient>
			<path fill="url(#SVGID_2_)" stroke="#231F20" stroke-width="0.4522" stroke-dasharray="1.8089,0.9044" d="M81.056,111.777
				c-0.139-0.859-0.832-1.506-1.558-1.445l-56.513,4.857c-0.721,0.064-1.195,0.808-1.061,1.669l0,0
				c0.139,0.856,0.832,1.505,1.556,1.442l56.517-4.856C80.718,113.38,81.19,112.636,81.056,111.777L81.056,111.777z"/>
			
				<linearGradient id="SVGID_3_" gradientUnits="userSpaceOnUse" x1="735.5303" y1="145.3594" x2="809.7344" y2="145.3594" gradientTransform="matrix(-0.7988 -0.1121 0.0626 -0.9927 659.6631 350.8594)">
				<stop  offset="0" style="stop-color:#E0E0E0"/>
				<stop  offset="0.2947" style="stop-color:#F6F6F6"/>
				<stop  offset="0.4945" style="stop-color:#FFFFFF"/>
				<stop  offset="0.7145" style="stop-color:#F5F5F5"/>
				<stop  offset="1" style="stop-color:#E0E0E0"/>
			</linearGradient>
			<path fill="url(#SVGID_3_)" stroke="#231F20" stroke-width="0.4522" stroke-dasharray="1.8089,0.9044" d="M21.907,116.486
				c0.107-0.857,0.777-1.48,1.503-1.396l56.729,6.617c0.725,0.086,1.227,0.843,1.123,1.702l0,0
				c-0.105,0.853-0.777,1.479-1.503,1.395l-56.732-6.614C22.305,118.104,21.805,117.343,21.907,116.486L21.907,116.486z"/>
			
				<linearGradient id="SVGID_4_" gradientUnits="userSpaceOnUse" x1="-461.5903" y1="278.9375" x2="-387.4048" y2="278.9375" gradientTransform="matrix(0.7959 -0.0818 -0.093 -0.9956 415.0811 346.2344)">
				<stop  offset="0" style="stop-color:#B3B3B3"/>
				<stop  offset="0.0185" style="stop-color:#B6B6B6"/>
				<stop  offset="0.2268" style="stop-color:#DEDEDE"/>
				<stop  offset="0.3927" style="stop-color:#F6F6F6"/>
				<stop  offset="0.4945" style="stop-color:#FFFFFF"/>
				<stop  offset="0.6034" style="stop-color:#F5F5F5"/>
				<stop  offset="0.7911" style="stop-color:#D9D9D9"/>
				<stop  offset="1" style="stop-color:#B3B3B3"/>
			</linearGradient>
			<path fill="url(#SVGID_4_)" stroke="#231F20" stroke-width="0.4522" stroke-dasharray="1.8089,0.9044" d="M80.847,100.707
				c-0.137-0.859-0.83-1.506-1.554-1.443l-56.515,4.856c-0.721,0.064-1.195,0.808-1.06,1.671l0,0
				c0.138,0.858,0.832,1.502,1.558,1.441l56.516-4.857C80.509,102.313,80.983,101.567,80.847,100.707L80.847,100.707z"/>
			
				<linearGradient id="SVGID_5_" gradientUnits="userSpaceOnUse" x1="736.6533" y1="156.3838" x2="810.8545" y2="156.3838" gradientTransform="matrix(-0.7988 -0.1121 0.0626 -0.9927 659.6631 350.8594)">
				<stop  offset="0" style="stop-color:#E0E0E0"/>
				<stop  offset="0.2947" style="stop-color:#F6F6F6"/>
				<stop  offset="0.4945" style="stop-color:#FFFFFF"/>
				<stop  offset="0.7145" style="stop-color:#F5F5F5"/>
				<stop  offset="1" style="stop-color:#E0E0E0"/>
			</linearGradient>
			<path fill="url(#SVGID_5_)" stroke="#231F20" stroke-width="0.4522" stroke-dasharray="1.8089,0.9044" d="M21.702,105.417
				c0.105-0.855,0.773-1.48,1.501-1.396l56.729,6.617c0.723,0.086,1.225,0.845,1.123,1.706l0,0
				c-0.105,0.853-0.777,1.477-1.503,1.395l-56.732-6.619C22.1,107.035,21.599,106.275,21.702,105.417L21.702,105.417z"/>
			
				<linearGradient id="SVGID_6_" gradientUnits="userSpaceOnUse" x1="-460.561" y1="289.9688" x2="-386.3755" y2="289.9688" gradientTransform="matrix(0.7959 -0.0818 -0.093 -0.9956 415.0811 346.2344)">
				<stop  offset="0" style="stop-color:#B3B3B3"/>
				<stop  offset="0.0185" style="stop-color:#B6B6B6"/>
				<stop  offset="0.2268" style="stop-color:#DEDEDE"/>
				<stop  offset="0.3927" style="stop-color:#F6F6F6"/>
				<stop  offset="0.4945" style="stop-color:#FFFFFF"/>
				<stop  offset="0.6034" style="stop-color:#F5F5F5"/>
				<stop  offset="0.7911" style="stop-color:#D9D9D9"/>
				<stop  offset="1" style="stop-color:#B3B3B3"/>
			</linearGradient>
			<path fill="url(#SVGID_6_)" stroke="#231F20" stroke-width="0.4522" stroke-dasharray="1.8089,0.9044" d="M80.64,89.639
				c-0.137-0.859-0.829-1.505-1.556-1.443l-56.513,4.855c-0.721,0.064-1.195,0.809-1.06,1.672l0,0
				c0.139,0.858,0.832,1.504,1.556,1.441l56.518-4.856C80.302,91.244,80.776,90.5,80.64,89.639L80.64,89.639z"/>
			
				<linearGradient id="SVGID_7_" gradientUnits="userSpaceOnUse" x1="737.7764" y1="167.4063" x2="811.9805" y2="167.4063" gradientTransform="matrix(-0.7988 -0.1121 0.0626 -0.9927 659.6631 350.8594)">
				<stop  offset="0" style="stop-color:#E0E0E0"/>
				<stop  offset="0.2947" style="stop-color:#F6F6F6"/>
				<stop  offset="0.4945" style="stop-color:#FFFFFF"/>
				<stop  offset="0.7145" style="stop-color:#F5F5F5"/>
				<stop  offset="1" style="stop-color:#E0E0E0"/>
			</linearGradient>
			<path fill="url(#SVGID_7_)" stroke="#231F20" stroke-width="0.4522" stroke-dasharray="1.8089,0.9044" d="M21.493,94.35
				c0.107-0.856,0.775-1.481,1.503-1.396l56.73,6.615c0.722,0.086,1.224,0.843,1.122,1.704l0,0
				c-0.107,0.854-0.777,1.479-1.503,1.394l-56.73-6.615C21.893,95.966,21.392,95.206,21.493,94.35L21.493,94.35z"/>
			
				<linearGradient id="SVGID_8_" gradientUnits="userSpaceOnUse" x1="-459.5322" y1="301.0029" x2="-385.3442" y2="301.0029" gradientTransform="matrix(0.7959 -0.0818 -0.093 -0.9956 415.0811 346.2344)">
				<stop  offset="0" style="stop-color:#B3B3B3"/>
				<stop  offset="0.0185" style="stop-color:#B6B6B6"/>
				<stop  offset="0.2268" style="stop-color:#DEDEDE"/>
				<stop  offset="0.3927" style="stop-color:#F6F6F6"/>
				<stop  offset="0.4945" style="stop-color:#FFFFFF"/>
				<stop  offset="0.6034" style="stop-color:#F5F5F5"/>
				<stop  offset="0.7911" style="stop-color:#D9D9D9"/>
				<stop  offset="1" style="stop-color:#B3B3B3"/>
			</linearGradient>
			<path fill="url(#SVGID_8_)" stroke="#231F20" stroke-width="0.4522" stroke-dasharray="1.8089,0.9044" d="M80.435,78.571
				c-0.139-0.859-0.831-1.505-1.558-1.445l-56.515,4.856c-0.718,0.064-1.193,0.808-1.058,1.673l0,0
				c0.139,0.857,0.832,1.501,1.556,1.441l56.517-4.857C80.095,80.177,80.569,79.432,80.435,78.571L80.435,78.571z"/>
			
				<linearGradient id="SVGID_9_" gradientUnits="userSpaceOnUse" x1="738.8994" y1="178.4297" x2="813.1025" y2="178.4297" gradientTransform="matrix(-0.7988 -0.1121 0.0626 -0.9927 659.6631 350.8594)">
				<stop  offset="0" style="stop-color:#E0E0E0"/>
				<stop  offset="0.2947" style="stop-color:#F6F6F6"/>
				<stop  offset="0.4945" style="stop-color:#FFFFFF"/>
				<stop  offset="0.7145" style="stop-color:#F5F5F5"/>
				<stop  offset="1" style="stop-color:#E0E0E0"/>
			</linearGradient>
			<path fill="url(#SVGID_9_)" stroke="#231F20" stroke-width="0.4522" stroke-dasharray="1.8089,0.9044" d="M21.286,83.281
				c0.107-0.855,0.777-1.48,1.503-1.396L79.52,88.5c0.722,0.085,1.226,0.847,1.122,1.704l0,0c-0.107,0.854-0.776,1.48-1.503,1.395
				l-56.732-6.615C21.685,84.898,21.185,84.139,21.286,83.281L21.286,83.281z"/>
			
				<linearGradient id="SVGID_10_" gradientUnits="userSpaceOnUse" x1="-458.5029" y1="312.0352" x2="-384.3169" y2="312.0352" gradientTransform="matrix(0.7959 -0.0818 -0.093 -0.9956 415.0811 346.2344)">
				<stop  offset="0" style="stop-color:#B3B3B3"/>
				<stop  offset="0.0185" style="stop-color:#B6B6B6"/>
				<stop  offset="0.2268" style="stop-color:#DEDEDE"/>
				<stop  offset="0.3927" style="stop-color:#F6F6F6"/>
				<stop  offset="0.4945" style="stop-color:#FFFFFF"/>
				<stop  offset="0.6034" style="stop-color:#F5F5F5"/>
				<stop  offset="0.7911" style="stop-color:#D9D9D9"/>
				<stop  offset="1" style="stop-color:#B3B3B3"/>
			</linearGradient>
			<path fill="url(#SVGID_10_)" stroke="#231F20" stroke-width="0.4522" stroke-dasharray="1.8089,0.9044" d="M80.226,67.502
				c-0.137-0.859-0.831-1.506-1.554-1.443l-56.515,4.856c-0.72,0.064-1.195,0.809-1.06,1.671l0,0
				c0.139,0.859,0.832,1.503,1.556,1.441l56.517-4.856C79.889,69.109,80.36,68.363,80.226,67.502L80.226,67.502z"/>
			
				<linearGradient id="SVGID_11_" gradientUnits="userSpaceOnUse" x1="740.0254" y1="189.4531" x2="814.2256" y2="189.4531" gradientTransform="matrix(-0.7988 -0.1121 0.0626 -0.9927 659.6631 350.8594)">
				<stop  offset="0" style="stop-color:#E0E0E0"/>
				<stop  offset="0.2947" style="stop-color:#F6F6F6"/>
				<stop  offset="0.4945" style="stop-color:#FFFFFF"/>
				<stop  offset="0.7145" style="stop-color:#F5F5F5"/>
				<stop  offset="1" style="stop-color:#E0E0E0"/>
			</linearGradient>
			<path fill="url(#SVGID_11_)" stroke="#231F20" stroke-width="0.4522" stroke-dasharray="1.8089,0.9044" d="M21.079,72.212
				c0.105-0.855,0.775-1.479,1.503-1.395l56.73,6.615c0.722,0.085,1.224,0.847,1.12,1.704l0,0c-0.104,0.855-0.774,1.479-1.501,1.395
				L22.2,73.914C21.478,73.831,20.976,73.071,21.079,72.212L21.079,72.212z"/>
			
				<linearGradient id="SVGID_12_" gradientUnits="userSpaceOnUse" x1="-457.4736" y1="323.0684" x2="-383.2881" y2="323.0684" gradientTransform="matrix(0.7959 -0.0818 -0.093 -0.9956 415.0811 346.2344)">
				<stop  offset="0" style="stop-color:#B3B3B3"/>
				<stop  offset="0.0185" style="stop-color:#B6B6B6"/>
				<stop  offset="0.2268" style="stop-color:#DEDEDE"/>
				<stop  offset="0.3927" style="stop-color:#F6F6F6"/>
				<stop  offset="0.4945" style="stop-color:#FFFFFF"/>
				<stop  offset="0.6034" style="stop-color:#F5F5F5"/>
				<stop  offset="0.7911" style="stop-color:#D9D9D9"/>
				<stop  offset="1" style="stop-color:#B3B3B3"/>
			</linearGradient>
			<path fill="url(#SVGID_12_)" stroke="#231F20" stroke-width="0.4522" stroke-dasharray="1.8089,0.9044" d="M80.019,56.434
				c-0.136-0.859-0.829-1.506-1.556-1.443L21.95,59.847c-0.722,0.062-1.195,0.808-1.06,1.671l0,0
				c0.139,0.857,0.832,1.501,1.556,1.441l56.515-4.858C79.682,58.039,80.153,57.295,80.019,56.434L80.019,56.434z"/>
			
				<linearGradient id="SVGID_13_" gradientUnits="userSpaceOnUse" x1="741.1445" y1="200.4756" x2="815.3486" y2="200.4756" gradientTransform="matrix(-0.7988 -0.1121 0.0626 -0.9927 659.6631 350.8594)">
				<stop  offset="0" style="stop-color:#E0E0E0"/>
				<stop  offset="0.2947" style="stop-color:#F6F6F6"/>
				<stop  offset="0.4945" style="stop-color:#FFFFFF"/>
				<stop  offset="0.7145" style="stop-color:#F5F5F5"/>
				<stop  offset="1" style="stop-color:#E0E0E0"/>
			</linearGradient>
			<path fill="url(#SVGID_13_)" stroke="#231F20" stroke-width="0.4522" stroke-dasharray="1.8089,0.9044" d="M20.872,61.144
				c0.107-0.855,0.775-1.48,1.503-1.396l56.73,6.617c0.723,0.085,1.224,0.845,1.122,1.705l0,0c-0.107,0.855-0.776,1.478-1.503,1.395
				l-56.732-6.617C21.271,62.761,20.769,62.001,20.872,61.144L20.872,61.144z"/>
			
				<linearGradient id="SVGID_14_" gradientUnits="userSpaceOnUse" x1="-456.4443" y1="334.0996" x2="-382.2583" y2="334.0996" gradientTransform="matrix(0.7959 -0.0818 -0.093 -0.9956 415.0811 346.2344)">
				<stop  offset="0" style="stop-color:#B3B3B3"/>
				<stop  offset="0.0185" style="stop-color:#B6B6B6"/>
				<stop  offset="0.2268" style="stop-color:#DEDEDE"/>
				<stop  offset="0.3927" style="stop-color:#F6F6F6"/>
				<stop  offset="0.4945" style="stop-color:#FFFFFF"/>
				<stop  offset="0.6034" style="stop-color:#F5F5F5"/>
				<stop  offset="0.7911" style="stop-color:#D9D9D9"/>
				<stop  offset="1" style="stop-color:#B3B3B3"/>
			</linearGradient>
			<path fill="url(#SVGID_14_)" stroke="#231F20" stroke-width="0.4522" stroke-dasharray="1.8089,0.9044" d="M79.813,45.366
				c-0.137-0.859-0.83-1.505-1.557-1.443l-56.515,4.856c-0.721,0.062-1.193,0.806-1.059,1.669l0,0
				c0.139,0.859,0.832,1.504,1.556,1.444l56.515-4.858C79.475,46.971,79.948,46.227,79.813,45.366L79.813,45.366z"/>
			
				<linearGradient id="SVGID_15_" gradientUnits="userSpaceOnUse" x1="742.2676" y1="211.498" x2="816.4717" y2="211.498" gradientTransform="matrix(-0.7988 -0.1121 0.0626 -0.9927 659.6631 350.8594)">
				<stop  offset="0" style="stop-color:#E0E0E0"/>
				<stop  offset="0.2947" style="stop-color:#F6F6F6"/>
				<stop  offset="0.4945" style="stop-color:#FFFFFF"/>
				<stop  offset="0.7145" style="stop-color:#F5F5F5"/>
				<stop  offset="1" style="stop-color:#E0E0E0"/>
			</linearGradient>
			<path fill="url(#SVGID_15_)" stroke="#231F20" stroke-width="0.4522" stroke-dasharray="1.8089,0.9044" d="M20.665,50.076
				c0.105-0.855,0.775-1.48,1.503-1.396l56.728,6.617c0.725,0.086,1.226,0.846,1.124,1.705l0,0
				c-0.107,0.853-0.776,1.476-1.503,1.395l-56.732-6.617C21.063,51.693,20.563,50.933,20.665,50.076L20.665,50.076z"/>
			
				<linearGradient id="SVGID_16_" gradientUnits="userSpaceOnUse" x1="-454.897" y1="345.1172" x2="-380.7119" y2="345.1172" gradientTransform="matrix(0.7959 -0.0818 -0.093 -0.9956 415.0811 346.2344)">
				<stop  offset="0" style="stop-color:#B3B3B3"/>
				<stop  offset="0.0185" style="stop-color:#B6B6B6"/>
				<stop  offset="0.2268" style="stop-color:#DEDEDE"/>
				<stop  offset="0.3927" style="stop-color:#F6F6F6"/>
				<stop  offset="0.4945" style="stop-color:#FFFFFF"/>
				<stop  offset="0.6034" style="stop-color:#F5F5F5"/>
				<stop  offset="0.7911" style="stop-color:#D9D9D9"/>
				<stop  offset="1" style="stop-color:#B3B3B3"/>
			</linearGradient>
			<path fill="url(#SVGID_16_)" stroke="#231F20" stroke-width="0.4522" stroke-dasharray="1.8089,0.9044" d="M80.019,34.271
				c-0.136-0.859-0.829-1.506-1.556-1.443L21.95,37.684c-0.722,0.062-1.195,0.808-1.06,1.671l0,0
				c0.139,0.857,0.832,1.501,1.556,1.441l56.515-4.858C79.682,35.876,80.153,35.132,80.019,34.271L80.019,34.271z"/>
			
				<linearGradient id="SVGID_17_" gradientUnits="userSpaceOnUse" x1="742.8789" y1="222.6055" x2="817.083" y2="222.6055" gradientTransform="matrix(-0.7988 -0.1121 0.0626 -0.9927 659.6631 350.8594)">
				<stop  offset="0" style="stop-color:#E0E0E0"/>
				<stop  offset="0.2947" style="stop-color:#F6F6F6"/>
				<stop  offset="0.4945" style="stop-color:#FFFFFF"/>
				<stop  offset="0.7145" style="stop-color:#F5F5F5"/>
				<stop  offset="1" style="stop-color:#E0E0E0"/>
			</linearGradient>
			<path fill="url(#SVGID_17_)" stroke="#231F20" stroke-width="0.4522" stroke-dasharray="1.8089,0.9044" d="M20.872,38.981
				c0.107-0.855,0.775-1.48,1.503-1.396l56.73,6.617c0.723,0.086,1.224,0.845,1.122,1.704l0,0c-0.107,0.855-0.776,1.479-1.503,1.395
				l-56.732-6.617C21.271,40.598,20.769,39.838,20.872,38.981L20.872,38.981z"/>
			
				<linearGradient id="SVGID_18_" gradientUnits="userSpaceOnUse" x1="-453.8682" y1="356.1494" x2="-379.6821" y2="356.1494" gradientTransform="matrix(0.7959 -0.0818 -0.093 -0.9956 415.0811 346.2344)">
				<stop  offset="0" style="stop-color:#B3B3B3"/>
				<stop  offset="0.0185" style="stop-color:#B6B6B6"/>
				<stop  offset="0.2268" style="stop-color:#DEDEDE"/>
				<stop  offset="0.3927" style="stop-color:#F6F6F6"/>
				<stop  offset="0.4945" style="stop-color:#FFFFFF"/>
				<stop  offset="0.6034" style="stop-color:#F5F5F5"/>
				<stop  offset="0.7911" style="stop-color:#D9D9D9"/>
				<stop  offset="1" style="stop-color:#B3B3B3"/>
			</linearGradient>
			<path fill="url(#SVGID_18_)" stroke="#231F20" stroke-width="0.4522" stroke-dasharray="1.8089,0.9044" d="M79.813,23.204
				c-0.137-0.859-0.83-1.506-1.557-1.444l-56.515,4.856c-0.721,0.062-1.193,0.807-1.059,1.669l0,0
				c0.139,0.859,0.832,1.503,1.556,1.443l56.515-4.858C79.475,24.809,79.948,24.065,79.813,23.204L79.813,23.204z"/>
			
				<linearGradient id="SVGID_19_" gradientUnits="userSpaceOnUse" x1="744.002" y1="233.6279" x2="818.2061" y2="233.6279" gradientTransform="matrix(-0.7988 -0.1121 0.0626 -0.9927 659.6631 350.8594)">
				<stop  offset="0" style="stop-color:#E0E0E0"/>
				<stop  offset="0.2947" style="stop-color:#F6F6F6"/>
				<stop  offset="0.4945" style="stop-color:#FFFFFF"/>
				<stop  offset="0.7145" style="stop-color:#F5F5F5"/>
				<stop  offset="1" style="stop-color:#E0E0E0"/>
			</linearGradient>
			<path fill="url(#SVGID_19_)" stroke="#231F20" stroke-width="0.4522" stroke-dasharray="1.8089,0.9044" d="M20.665,27.914
				c0.105-0.855,0.775-1.48,1.503-1.397l56.728,6.617c0.725,0.086,1.226,0.845,1.124,1.704l0,0
				c-0.107,0.854-0.776,1.477-1.503,1.395l-56.732-6.617C21.063,29.53,20.563,28.771,20.665,27.914L20.665,27.914z"/>
		</g>
		<path fill="#FFFFFF" stroke="#231F20" stroke-width="0.4522" d="M77.775,21.696h27.477c0.486-0.002,0.879,0.697,0.879,1.561l0,0
			c0,0.861-0.393,1.558-0.879,1.558H77.775"/>
		<path fill="#FFFFFF" stroke="#231F20" stroke-width="0.4522" d="M79.068,121.429h26.184c0.486-0.002,0.879,0.697,0.879,1.56l0,0
			c0,0.863-0.393,1.559-0.879,1.559H79.068"/>
	</g>
	<g>
		
			<linearGradient id="SVGID_20_" gradientUnits="userSpaceOnUse" x1="723.666" y1="151.2842" x2="745.3398" y2="151.2842" gradientTransform="matrix(-0.7765 0.0554 0.0607 0.9981 611.5156 -61.2559)">
			<stop  offset="0" style="stop-color:#B3B3B3"/>
			<stop  offset="0.0185" style="stop-color:#B6B6B6"/>
			<stop  offset="0.2268" style="stop-color:#DEDEDE"/>
			<stop  offset="0.3927" style="stop-color:#F6F6F6"/>
			<stop  offset="0.4945" style="stop-color:#FFFFFF"/>
			<stop  offset="0.6034" style="stop-color:#F5F5F5"/>
			<stop  offset="0.7911" style="stop-color:#D9D9D9"/>
			<stop  offset="1" style="stop-color:#B3B3B3"/>
		</linearGradient>
		<path fill="url(#SVGID_20_)" stroke="#231F20" stroke-width="0.5" stroke-dasharray="2,1" d="M42.045,132.687
			c0.035,0.995,0.229,1.76,0.434,1.705l15.888-4.307c0.203-0.057,0.338-0.908,0.301-1.907l0,0c-0.035-0.997-0.229-1.759-0.432-1.704
			l-15.89,4.309C42.145,130.836,42.008,131.688,42.045,132.687L42.045,132.687z"/>
		
			<linearGradient id="SVGID_21_" gradientUnits="userSpaceOnUse" x1="724.2441" y1="160.1299" x2="745.917" y2="160.1299" gradientTransform="matrix(-0.7765 0.0554 0.0607 0.9981 611.5156 -61.2559)">
			<stop  offset="0" style="stop-color:#B3B3B3"/>
			<stop  offset="0.0185" style="stop-color:#B6B6B6"/>
			<stop  offset="0.2268" style="stop-color:#DEDEDE"/>
			<stop  offset="0.3927" style="stop-color:#F6F6F6"/>
			<stop  offset="0.4945" style="stop-color:#FFFFFF"/>
			<stop  offset="0.6034" style="stop-color:#F5F5F5"/>
			<stop  offset="0.7911" style="stop-color:#D9D9D9"/>
			<stop  offset="1" style="stop-color:#B3B3B3"/>
		</linearGradient>
		<path fill="url(#SVGID_21_)" stroke="#231F20" stroke-width="0.5" stroke-dasharray="2,1" d="M42.133,141.547
			c0.035,0.997,0.229,1.76,0.434,1.706l15.888-4.308c0.203-0.057,0.338-0.907,0.301-1.907l0,0c-0.035-0.997-0.229-1.758-0.432-1.704
			l-15.89,4.309C42.233,139.697,42.096,140.548,42.133,141.547L42.133,141.547z"/>
		
			<linearGradient id="SVGID_22_" gradientUnits="userSpaceOnUse" x1="724.8223" y1="168.9756" x2="746.4961" y2="168.9756" gradientTransform="matrix(-0.7765 0.0554 0.0607 0.9981 611.5156 -61.2559)">
			<stop  offset="0" style="stop-color:#B3B3B3"/>
			<stop  offset="0.0185" style="stop-color:#B6B6B6"/>
			<stop  offset="0.2268" style="stop-color:#DEDEDE"/>
			<stop  offset="0.3927" style="stop-color:#F6F6F6"/>
			<stop  offset="0.4945" style="stop-color:#FFFFFF"/>
			<stop  offset="0.6034" style="stop-color:#F5F5F5"/>
			<stop  offset="0.7911" style="stop-color:#D9D9D9"/>
			<stop  offset="1" style="stop-color:#B3B3B3"/>
		</linearGradient>
		<path fill="url(#SVGID_22_)" stroke="#231F20" stroke-width="0.5" stroke-dasharray="2,1" d="M42.221,150.409
			c0.035,0.995,0.229,1.759,0.434,1.704l15.888-4.308c0.203-0.056,0.338-0.907,0.301-1.906l0,0
			c-0.035-0.997-0.229-1.759-0.432-1.704l-15.89,4.308C42.321,148.558,42.184,149.409,42.221,150.409L42.221,150.409z"/>
		
			<linearGradient id="SVGID_23_" gradientUnits="userSpaceOnUse" x1="725.4033" y1="177.875" x2="747.0791" y2="177.875" gradientTransform="matrix(-0.7765 0.0554 0.0607 0.9981 611.5156 -61.2559)">
			<stop  offset="0" style="stop-color:#B3B3B3"/>
			<stop  offset="0.0185" style="stop-color:#B6B6B6"/>
			<stop  offset="0.2268" style="stop-color:#DEDEDE"/>
			<stop  offset="0.3927" style="stop-color:#F6F6F6"/>
			<stop  offset="0.4945" style="stop-color:#FFFFFF"/>
			<stop  offset="0.6034" style="stop-color:#F5F5F5"/>
			<stop  offset="0.7911" style="stop-color:#D9D9D9"/>
			<stop  offset="1" style="stop-color:#B3B3B3"/>
		</linearGradient>
		<path fill="url(#SVGID_23_)" stroke="#231F20" stroke-width="0.5" stroke-dasharray="2,1" d="M42.309,159.324
			c0.035,0.995,0.229,1.759,0.434,1.704l15.888-4.307c0.203-0.059,0.338-0.908,0.303-1.907l0,0c-0.037-0.997-0.23-1.759-0.434-1.704
			l-15.89,4.309C42.409,157.473,42.274,158.325,42.309,159.324L42.309,159.324z"/>
		
			<linearGradient id="SVGID_24_" gradientUnits="userSpaceOnUse" x1="733.2988" y1="296.3496" x2="754.9727" y2="296.3496" gradientTransform="matrix(-0.7778 -0.0751 0.041 -0.9968 616.9517 477.3662)">
			<stop  offset="0" style="stop-color:#D9D9D9"/>
			<stop  offset="0.0029" style="stop-color:#DADADA"/>
			<stop  offset="0.0586" style="stop-color:#EBEBEB"/>
			<stop  offset="0.1276" style="stop-color:#F6F6F6"/>
			<stop  offset="0.2248" style="stop-color:#FDFDFD"/>
			<stop  offset="0.4945" style="stop-color:#FFFFFF"/>
			<stop  offset="0.7703" style="stop-color:#FDFDFD"/>
			<stop  offset="0.8696" style="stop-color:#F6F6F6"/>
			<stop  offset="0.9401" style="stop-color:#EBEBEB"/>
			<stop  offset="0.997" style="stop-color:#DADADA"/>
			<stop  offset="1" style="stop-color:#D9D9D9"/>
		</linearGradient>
		<path fill="url(#SVGID_24_)" stroke="#231F20" stroke-width="0.5" stroke-dasharray="2,1" d="M41.956,123.615
			c0.016-0.995,0.193-1.753,0.398-1.694l15.98,4.713c0.203,0.062,0.355,0.915,0.338,1.914l0,0c-0.016,0.995-0.193,1.753-0.398,1.692
			l-15.978-4.71C42.09,125.468,41.938,124.614,41.956,123.615L41.956,123.615z"/>
		
			<linearGradient id="SVGID_25_" gradientUnits="userSpaceOnUse" x1="732.7197" y1="287.5029" x2="754.3936" y2="287.5029" gradientTransform="matrix(-0.7778 -0.0751 0.041 -0.9968 616.9517 477.3662)">
			<stop  offset="0" style="stop-color:#D9D9D9"/>
			<stop  offset="0.0029" style="stop-color:#DADADA"/>
			<stop  offset="0.0586" style="stop-color:#EBEBEB"/>
			<stop  offset="0.1276" style="stop-color:#F6F6F6"/>
			<stop  offset="0.2248" style="stop-color:#FDFDFD"/>
			<stop  offset="0.4945" style="stop-color:#FFFFFF"/>
			<stop  offset="0.7703" style="stop-color:#FDFDFD"/>
			<stop  offset="0.8696" style="stop-color:#F6F6F6"/>
			<stop  offset="0.9401" style="stop-color:#EBEBEB"/>
			<stop  offset="0.997" style="stop-color:#DADADA"/>
			<stop  offset="1" style="stop-color:#D9D9D9"/>
		</linearGradient>
		<path fill="url(#SVGID_25_)" stroke="#231F20" stroke-width="0.5" stroke-dasharray="2,1" d="M42.043,132.477
			c0.016-0.995,0.193-1.753,0.398-1.694l15.98,4.712c0.203,0.063,0.354,0.915,0.338,1.914l0,0c-0.016,0.996-0.193,1.753-0.398,1.693
			l-15.978-4.712C42.178,134.329,42.026,133.476,42.043,132.477L42.043,132.477z"/>
		
			<linearGradient id="SVGID_26_" gradientUnits="userSpaceOnUse" x1="732.1396" y1="278.6582" x2="753.8145" y2="278.6582" gradientTransform="matrix(-0.7778 -0.0751 0.041 -0.9968 616.9517 477.3662)">
			<stop  offset="0" style="stop-color:#D9D9D9"/>
			<stop  offset="0.0029" style="stop-color:#DADADA"/>
			<stop  offset="0.0586" style="stop-color:#EBEBEB"/>
			<stop  offset="0.1276" style="stop-color:#F6F6F6"/>
			<stop  offset="0.2248" style="stop-color:#FDFDFD"/>
			<stop  offset="0.4945" style="stop-color:#FFFFFF"/>
			<stop  offset="0.7703" style="stop-color:#FDFDFD"/>
			<stop  offset="0.8696" style="stop-color:#F6F6F6"/>
			<stop  offset="0.9401" style="stop-color:#EBEBEB"/>
			<stop  offset="0.997" style="stop-color:#DADADA"/>
			<stop  offset="1" style="stop-color:#D9D9D9"/>
		</linearGradient>
		<path fill="url(#SVGID_26_)" stroke="#231F20" stroke-width="0.5" stroke-dasharray="2,1" d="M42.131,141.337
			c0.016-0.995,0.193-1.753,0.398-1.694l15.98,4.712c0.203,0.063,0.354,0.916,0.338,1.915l0,0c-0.016,0.995-0.193,1.753-0.398,1.692
			l-15.978-4.711C42.266,143.19,42.114,142.337,42.131,141.337L42.131,141.337z"/>
		
			<linearGradient id="SVGID_27_" gradientUnits="userSpaceOnUse" x1="731.5605" y1="269.8125" x2="753.2344" y2="269.8125" gradientTransform="matrix(-0.7778 -0.0751 0.041 -0.9968 616.9517 477.3662)">
			<stop  offset="0" style="stop-color:#D9D9D9"/>
			<stop  offset="0.0029" style="stop-color:#DADADA"/>
			<stop  offset="0.0586" style="stop-color:#EBEBEB"/>
			<stop  offset="0.1276" style="stop-color:#F6F6F6"/>
			<stop  offset="0.2248" style="stop-color:#FDFDFD"/>
			<stop  offset="0.4945" style="stop-color:#FFFFFF"/>
			<stop  offset="0.7703" style="stop-color:#FDFDFD"/>
			<stop  offset="0.8696" style="stop-color:#F6F6F6"/>
			<stop  offset="0.9401" style="stop-color:#EBEBEB"/>
			<stop  offset="0.997" style="stop-color:#DADADA"/>
			<stop  offset="1" style="stop-color:#D9D9D9"/>
		</linearGradient>
		<path fill="url(#SVGID_27_)" stroke="#231F20" stroke-width="0.5" stroke-dasharray="2,1" d="M42.219,150.198
			c0.016-0.996,0.193-1.753,0.398-1.695l15.98,4.713c0.203,0.063,0.354,0.915,0.338,1.914l0,0c-0.016,0.995-0.193,1.753-0.398,1.692
			l-15.978-4.711C42.354,152.051,42.202,151.198,42.219,150.198L42.219,150.198z"/>
		<path fill="#FFFFFF" stroke="#231F20" stroke-width="0.5" d="M42.87,125.556L2.4,125.558c-0.518,0-0.937-0.807-0.937-1.806l0,0
			c0-0.995,0.419-1.802,0.937-1.802l40.47-0.002"/>
		<path fill="#FFFFFF" stroke="#231F20" stroke-width="0.5" d="M42.87,161.126l-40.792,0.002c-0.525,0-0.947-0.807-0.947-1.806l0,0
			c0-0.995,0.424-1.803,0.947-1.803l40.792-0.002"/>
	</g>
</g>
</svg>
