<?xml version="1.0" encoding="utf-8"?>
<!-- Generator: Adobe Illustrator 16.0.0, SVG Export Plug-In . SVG Version: 6.00 Build 0)  -->
<!DOCTYPE svg PUBLIC "-//W3C//DTD SVG 1.1//EN" "http://www.w3.org/Graphics/SVG/1.1/DTD/svg11.dtd">
<svg version="1.1" id="Layer_1" xmlns="http://www.w3.org/2000/svg" xmlns:xlink="http://www.w3.org/1999/xlink" x="0px" y="0px"
	 width="65px" height="84px" viewBox="0 0 65 84" enable-background="new 0 0 65 84" xml:space="preserve">
<rect x="0.779" y="0.551" fill="#FFFFFF" stroke="#929497" stroke-width="0.5" stroke-miterlimit="3.864" width="64.8" height="82.799"/>
<rect x="11.579" y="7.75" fill="#CDDBE2" width="3.601" height="28.801"/>
<rect x="11.579" y="7.75" fill="none" stroke="#CDDBE2" stroke-miterlimit="3.864" width="3.601" height="28.801"/>
<line fill="none" stroke="#8463AA" stroke-miterlimit="3.864" x1="40.38" y1="-0.35" x2="40.38" y2="7.75"/>
<line fill="none" stroke="#231F20" stroke-miterlimit="3.864" x1="25.979" y1="-0.35" x2="25.979" y2="7.75"/>
<path fill="#231F20" d="M24.18,25.75c0-0.993,0.806-1.8,1.8-1.8s1.8,0.807,1.8,1.8c0,0.994-0.806,1.801-1.8,1.801
	S24.18,26.744,24.18,25.75"/>
<path fill="#231F20" d="M24.18,7.75c0-0.993,0.806-1.8,1.8-1.8s1.8,0.807,1.8,1.8c0,0.994-0.806,1.801-1.8,1.801
	S24.18,8.744,24.18,7.75"/>
<path fill="none" stroke="#231F20" stroke-width="0.5" stroke-miterlimit="3.864" d="M26.005,31.43v10.8 M22.404,26.029
	c0,0-3.6-1.8-3.6-9s3.6-9,3.6-9"/>
<line fill="none" stroke="#8463AA" stroke-miterlimit="3.864" x1="40.38" y1="25.75" x2="40.38" y2="76.15"/>
<line fill="none" stroke="#231F20" stroke-miterlimit="3.864" x1="25.979" y1="25.75" x2="25.979" y2="76.15"/>
<path fill="#231F20" d="M24.18,47.35c0-0.994,0.806-1.799,1.8-1.799s1.8,0.805,1.8,1.799s-0.806,1.801-1.8,1.801
	S24.18,48.344,24.18,47.35"/>
<path fill="#231F20" d="M24.18,54.551c0-0.994,0.806-1.801,1.8-1.801s1.8,0.807,1.8,1.801c0,0.992-0.806,1.799-1.8,1.799
	S24.18,55.543,24.18,54.551"/>
<path fill="#231F20" d="M24.18,61.75c0-0.994,0.806-1.801,1.8-1.801s1.8,0.807,1.8,1.801s-0.806,1.801-1.8,1.801
	S24.18,62.744,24.18,61.75"/>
<path fill="#231F20" d="M24.18,68.949c0-0.994,0.806-1.799,1.8-1.799s1.8,0.805,1.8,1.799s-0.806,1.801-1.8,1.801
	S24.18,69.943,24.18,68.949"/>
<path fill="#231F20" d="M24.18,76.15c0-0.994,0.806-1.801,1.8-1.801s1.8,0.807,1.8,1.801s-0.806,1.799-1.8,1.799
	S24.18,77.145,24.18,76.15"/>
<line fill="none" stroke="#8463AA" stroke-miterlimit="3.864" x1="47.579" y1="47.35" x2="40.38" y2="47.35"/>
<path fill="#8463AA" d="M38.579,47.35c0-0.994,0.807-1.799,1.801-1.799c0.993,0,1.8,0.805,1.8,1.799s-0.807,1.801-1.8,1.801
	C39.386,49.15,38.579,48.344,38.579,47.35"/>
<path fill="#8463AA" d="M38.579,54.551c0-0.994,0.807-1.801,1.801-1.801c0.993,0,1.8,0.807,1.8,1.801c0,0.992-0.807,1.799-1.8,1.799
	C39.386,56.35,38.579,55.543,38.579,54.551"/>
<path fill="#8463AA" d="M38.579,61.75c0-0.994,0.807-1.801,1.801-1.801c0.993,0,1.8,0.807,1.8,1.801s-0.807,1.801-1.8,1.801
	C39.386,63.551,38.579,62.744,38.579,61.75"/>
<path fill="#8463AA" d="M38.579,68.949c0-0.994,0.807-1.799,1.801-1.799c0.993,0,1.8,0.805,1.8,1.799s-0.807,1.801-1.8,1.801
	C39.386,70.75,38.579,69.943,38.579,68.949"/>
<path fill="#8463AA" d="M38.579,76.15c0-0.994,0.807-1.801,1.801-1.801c0.993,0,1.8,0.807,1.8,1.801s-0.807,1.799-1.8,1.799
	C39.386,77.949,38.579,77.145,38.579,76.15"/>
<rect x="51.18" y="7.75" fill="#03A550" width="3.6" height="28.801"/>
<rect x="51.18" y="7.75" fill="none" stroke="#03A550" stroke-miterlimit="3.864" width="3.6" height="28.801"/>
<path fill="#231F20" d="M38.579,25.75c0-0.993,0.807-1.8,1.801-1.8c0.993,0,1.8,0.807,1.8,1.8c0,0.994-0.807,1.801-1.8,1.801
	C39.386,27.551,38.579,26.744,38.579,25.75"/>
<path fill="#231F20" d="M38.579,7.75c0-0.993,0.807-1.8,1.801-1.8c0.993,0,1.8,0.807,1.8,1.8c0,0.994-0.807,1.801-1.8,1.801
	C39.386,9.551,38.579,8.744,38.579,7.75"/>
<path fill="none" stroke="#231F20" stroke-width="0.5" stroke-miterlimit="3.864" d="M44.154,26.229c0,0,3.601-1.8,3.601-9
	s-3.601-9-3.601-9"/>
<path fill="#8463AA" d="M45.779,47.35c0-0.994,0.807-1.799,1.8-1.799c0.994,0,1.801,0.805,1.801,1.799s-0.807,1.801-1.801,1.801
	C46.586,49.15,45.779,48.344,45.779,47.35"/>
<line fill="none" stroke="#8463AA" stroke-miterlimit="3.864" x1="47.579" y1="47.35" x2="40.38" y2="47.35"/>
<path fill="#231F20" d="M45.779,47.35c0-0.994,0.807-1.799,1.8-1.799c0.994,0,1.801,0.805,1.801,1.799s-0.807,1.801-1.801,1.801
	C46.586,49.15,45.779,48.344,45.779,47.35"/>
<line fill="none" stroke="#8463AA" stroke-miterlimit="3.864" x1="47.579" y1="54.551" x2="40.38" y2="54.551"/>
<path fill="#231F20" d="M45.779,54.551c0-0.994,0.807-1.801,1.8-1.801c0.994,0,1.801,0.807,1.801,1.801
	c0,0.992-0.807,1.799-1.801,1.799C46.586,56.35,45.779,55.543,45.779,54.551"/>
<line fill="none" stroke="#8463AA" stroke-miterlimit="3.864" x1="47.579" y1="61.75" x2="40.38" y2="61.75"/>
<path fill="#231F20" d="M45.779,61.75c0-0.994,0.807-1.801,1.8-1.801c0.994,0,1.801,0.807,1.801,1.801s-0.807,1.801-1.801,1.801
	C46.586,63.551,45.779,62.744,45.779,61.75"/>
<line fill="none" stroke="#8463AA" stroke-miterlimit="3.864" x1="47.579" y1="68.949" x2="40.38" y2="68.949"/>
<path fill="#231F20" d="M45.779,68.949c0-0.994,0.807-1.799,1.8-1.799c0.994,0,1.801,0.805,1.801,1.799s-0.807,1.801-1.801,1.801
	C46.586,70.75,45.779,69.943,45.779,68.949"/>
<line fill="none" stroke="#8463AA" stroke-miterlimit="3.864" x1="47.579" y1="76.15" x2="40.38" y2="76.15"/>
<path fill="#231F20" d="M45.779,76.15c0-0.994,0.807-1.801,1.8-1.801c0.994,0,1.801,0.807,1.801,1.801s-0.807,1.799-1.801,1.799
	C46.586,77.949,45.779,77.145,45.779,76.15"/>
<path fill="#231F20" d="M56.579,47.35c0-0.994,0.807-1.799,1.801-1.799c0.993,0,1.8,0.805,1.8,1.799s-0.807,1.801-1.8,1.801
	C57.386,49.15,56.579,48.344,56.579,47.35"/>
<path fill="#231F20" d="M56.579,61.75c0-0.994,0.807-1.801,1.801-1.801c0.993,0,1.8,0.807,1.8,1.801s-0.807,1.801-1.8,1.801
	C57.386,63.551,56.579,62.744,56.579,61.75"/>
<path fill="#231F20" d="M56.579,68.949c0-0.994,0.807-1.799,1.801-1.799c0.993,0,1.8,0.805,1.8,1.799s-0.807,1.801-1.8,1.801
	C57.386,70.75,56.579,69.943,56.579,68.949"/>
<path fill="#231F20" d="M56.579,76.15c0-0.994,0.807-1.801,1.801-1.801c0.993,0,1.8,0.807,1.8,1.801s-0.807,1.799-1.8,1.799
	C57.386,77.949,56.579,77.145,56.579,76.15"/>
<path fill="none" stroke="#231F20" stroke-width="0.5" stroke-miterlimit="3.864" d="M47.579,73.449c0-3.6,10.801-3.6,10.801,0
	 M47.579,66.25c0-3.6,10.801-3.6,10.801,0 M47.579,59.051c0-3.602,10.801-3.602,10.801,0 M47.579,51.85c0-3.6,10.801-3.6,10.801,0
	 M47.579,44.65c0-3.6,10.801-3.6,10.801,0"/>
<path fill="#8463AA" d="M16.979,47.35c0-0.994,0.806-1.799,1.8-1.799s1.8,0.805,1.8,1.799s-0.806,1.801-1.8,1.801
	S16.979,48.344,16.979,47.35"/>
<line fill="none" stroke="#231F20" stroke-miterlimit="3.864" x1="18.779" y1="47.35" x2="25.979" y2="47.35"/>
<path fill="#231F20" d="M16.979,47.35c0-0.994,0.806-1.799,1.8-1.799s1.8,0.805,1.8,1.799s-0.806,1.801-1.8,1.801
	S16.979,48.344,16.979,47.35"/>
<line fill="none" stroke="#231F20" stroke-miterlimit="3.864" x1="18.779" y1="54.551" x2="25.979" y2="54.551"/>
<path fill="#231F20" d="M16.979,54.551c0-0.994,0.806-1.801,1.8-1.801s1.8,0.807,1.8,1.801c0,0.992-0.806,1.799-1.8,1.799
	S16.979,55.543,16.979,54.551"/>
<line fill="none" stroke="#231F20" stroke-miterlimit="3.864" x1="18.779" y1="61.75" x2="25.979" y2="61.75"/>
<path fill="#231F20" d="M16.979,61.75c0-0.994,0.806-1.801,1.8-1.801s1.8,0.807,1.8,1.801s-0.806,1.801-1.8,1.801
	S16.979,62.744,16.979,61.75"/>
<line fill="none" stroke="#231F20" stroke-miterlimit="3.864" x1="18.779" y1="68.949" x2="25.979" y2="68.949"/>
<path fill="#231F20" d="M16.979,68.949c0-0.994,0.806-1.799,1.8-1.799s1.8,0.805,1.8,1.799s-0.806,1.801-1.8,1.801
	S16.979,69.943,16.979,68.949"/>
<line fill="none" stroke="#231F20" stroke-miterlimit="3.864" x1="18.779" y1="76.15" x2="25.979" y2="76.15"/>
<path fill="#231F20" d="M16.979,76.15c0-0.994,0.806-1.801,1.8-1.801s1.8,0.807,1.8,1.801s-0.806,1.799-1.8,1.799
	S16.979,77.145,16.979,76.15"/>
<path fill="#231F20" d="M6.18,47.35c0-0.994,0.806-1.799,1.8-1.799s1.8,0.805,1.8,1.799s-0.806,1.801-1.8,1.801
	S6.18,48.344,6.18,47.35"/>
<path fill="#231F20" d="M6.18,54.551c0-0.994,0.806-1.801,1.8-1.801s1.8,0.807,1.8,1.801c0,0.992-0.806,1.799-1.8,1.799
	S6.18,55.543,6.18,54.551"/>
<path fill="#231F20" d="M6.18,61.75c0-0.994,0.806-1.801,1.8-1.801s1.8,0.807,1.8,1.801s-0.806,1.801-1.8,1.801
	S6.18,62.744,6.18,61.75"/>
<path fill="#231F20" d="M6.18,68.949c0-0.994,0.806-1.799,1.8-1.799s1.8,0.805,1.8,1.799s-0.806,1.801-1.8,1.801
	S6.18,69.943,6.18,68.949"/>
<path fill="#231F20" d="M6.18,76.15c0-0.994,0.806-1.801,1.8-1.801s1.8,0.807,1.8,1.801s-0.806,1.799-1.8,1.799
	S6.18,77.145,6.18,76.15"/>
<path fill="none" stroke="#231F20" stroke-width="0.5" stroke-miterlimit="3.864" d="M18.779,73.449c0-3.6-10.8-3.6-10.8,0
	 M18.779,66.25c0-3.6-10.8-3.6-10.8,0 M18.779,59.051c0-3.602-10.8-3.602-10.8,0 M18.779,51.85c0-3.6-10.8-3.6-10.8,0 M18.779,44.65
	c0-3.6-10.8-3.6-10.8,0"/>
<path fill="none" stroke="#CDDBE2" stroke-miterlimit="3.864" d="M33.18-0.182v36.732h-3.601c0,0,0-3.601-3.6-3.601
	s-3.6,3.601-3.6,3.601H11.579"/>
<path fill="none" stroke="#03A550" stroke-miterlimit="3.864" d="M33.18,36.551h3.6c0,0,0-3.601,3.601-3.601
	c3.6,0,3.6,3.601,3.6,3.601h10.8"/>
<path fill="#03A550" d="M31.38,36.551c0-0.994,0.806-1.801,1.8-1.801s1.8,0.807,1.8,1.801c0,0.993-0.806,1.8-1.8,1.8
	S31.38,37.544,31.38,36.551"/>
<line fill="none" stroke="#231F20" stroke-width="0.5" stroke-miterlimit="3.864" stroke-dasharray="2,2" x1="51.18" y1="50.949" x2="15.18" y2="50.949"/>
<path fill="#231F20" d="M56.579,54.551c0-0.994,0.807-1.801,1.801-1.801c0.993,0,1.8,0.807,1.8,1.801c0,0.992-0.807,1.799-1.8,1.799
	C57.386,56.35,56.579,55.543,56.579,54.551"/>
</svg>
