<?xml version="1.0" encoding="utf-8"?>
<!-- Generator: Adobe Illustrator 16.0.0, SVG Export Plug-In . SVG Version: 6.00 Build 0)  -->
<!DOCTYPE svg PUBLIC "-//W3C//DTD SVG 1.1//EN" "http://www.w3.org/Graphics/SVG/1.1/DTD/svg11.dtd">
<svg version="1.1" id="Layer_1" xmlns="http://www.w3.org/2000/svg" xmlns:xlink="http://www.w3.org/1999/xlink" x="0px" y="0px"
	 width="56px" height="42px" viewBox="0 0 56 42" enable-background="new 0 0 56 42" xml:space="preserve">
<polygon fill-rule="evenodd" clip-rule="evenodd" fill="#BBBDBF" points="7.955,17.186 11.943,22.808 7.402,25.444 3.951,27.452 "/>
<polygon fill-rule="evenodd" clip-rule="evenodd" fill="#BBBDBF" points="7.265,14.295 8.397,14.634 10.366,18.665 13.466,23.032 
	7.265,26.637 2.187,30.578 1.066,30.238 "/>
<polygon fill="none" stroke="#231F20" stroke-width="0.241" stroke-miterlimit="22.926" points="7.955,17.186 11.943,22.808 
	7.402,25.444 3.951,27.452 "/>
<polygon fill="none" stroke="#231F20" stroke-width="0.241" stroke-miterlimit="22.926" points="7.265,14.295 8.397,14.634 
	10.366,18.665 13.466,23.032 7.265,26.637 2.187,30.578 1.066,30.238 "/>
<polygon fill-rule="evenodd" clip-rule="evenodd" fill="#E7E7E7" points="8.535,16.749 13.076,23.145 8.535,25.781 3.998,28.419 "/>
<polygon fill-rule="evenodd" clip-rule="evenodd" fill="#E7E7E7" points="8.397,14.634 14.599,23.37 2.199,30.575 "/>
<polygon fill="none" stroke="#231F20" stroke-width="0.241" stroke-miterlimit="22.926" points="8.535,16.749 13.076,23.145 
	8.535,25.781 3.998,28.419 "/>
<polygon fill="none" stroke="#231F20" stroke-width="0.241" stroke-miterlimit="22.926" points="8.397,14.634 14.599,23.37 
	2.199,30.575 "/>
<line fill="none" stroke="#231F20" stroke-width="0.241" stroke-miterlimit="22.926" x1="11.923" y1="22.779" x2="13.061" y2="23.12"/>
<path fill-rule="evenodd" clip-rule="evenodd" fill="none" d="M52.758-14v43.517c0,2.998-2.456,5.44-5.467,5.44H3.563
	c-3.012,0-5.468-2.442-5.468-5.44V-14"/>
<polygon fill-rule="evenodd" clip-rule="evenodd" fill="#BBBDBF" points="25.99,22.547 29.98,28.17 25.441,30.806 21.987,32.813 "/>
<polygon fill-rule="evenodd" clip-rule="evenodd" fill="#BBBDBF" points="25.303,19.656 26.436,19.997 28.402,24.026 31.501,28.396 
	25.303,31.996 20.224,35.939 19.104,35.6 "/>
<polygon fill="none" stroke="#231F20" stroke-width="0.241" stroke-miterlimit="22.926" points="25.99,22.547 29.98,28.17 
	25.441,30.806 21.987,32.813 "/>
<polygon fill="none" stroke="#231F20" stroke-width="0.241" stroke-miterlimit="22.926" points="25.303,19.656 26.436,19.997 
	28.402,24.026 31.501,28.396 25.303,31.996 20.224,35.939 19.104,35.6 "/>
<polygon fill-rule="evenodd" clip-rule="evenodd" fill="#E7E7E7" points="26.574,22.108 31.112,28.505 26.574,31.143 22.036,33.78 
	"/>
<polygon fill-rule="evenodd" clip-rule="evenodd" fill="#E7E7E7" points="26.436,19.994 29.535,24.363 32.634,28.73 26.436,32.334 
	20.236,35.935 "/>
<polygon fill="none" stroke="#231F20" stroke-width="0.241" stroke-miterlimit="22.926" points="26.574,22.108 31.112,28.505 
	26.574,31.143 22.036,33.78 "/>
<polygon fill="none" stroke="#231F20" stroke-width="0.241" stroke-miterlimit="22.926" points="26.436,19.994 29.535,24.363 
	32.634,28.73 26.436,32.334 20.236,35.935 "/>
<line fill="none" stroke="#231F20" stroke-width="0.241" stroke-miterlimit="22.926" x1="29.959" y1="28.141" x2="31.097" y2="28.481"/>
<path fill-rule="evenodd" clip-rule="evenodd" fill="none" d="M52.758-14v43.517c0,2.998-2.456,5.44-5.467,5.44H3.563
	c-3.012,0-5.468-2.442-5.468-5.44V-14"/>
<polygon fill-rule="evenodd" clip-rule="evenodd" fill="#BBBDBF" points="46.173,28.607 50.161,34.229 45.622,36.866 42.17,38.873 
	"/>
<polygon fill-rule="evenodd" clip-rule="evenodd" fill="#BBBDBF" points="45.483,25.718 46.616,26.057 48.583,30.087 51.685,34.456 
	45.483,38.057 40.406,42 39.284,41.66 "/>
<polygon fill="none" stroke="#231F20" stroke-width="0.241" stroke-miterlimit="22.926" points="46.173,28.607 50.161,34.229 
	45.622,36.866 42.17,38.873 "/>
<polygon fill="none" stroke="#231F20" stroke-width="0.241" stroke-miterlimit="22.926" points="45.483,25.718 46.616,26.057 
	48.583,30.087 51.685,34.456 45.483,38.057 40.406,42 39.284,41.66 "/>
<polygon fill-rule="evenodd" clip-rule="evenodd" fill="#E7E7E7" points="46.755,28.17 51.295,34.567 46.755,37.203 42.217,39.839 
	"/>
<polygon fill-rule="evenodd" clip-rule="evenodd" fill="#E7E7E7" points="46.616,26.053 52.817,34.792 40.417,41.995 "/>
<polygon fill="none" stroke="#231F20" stroke-width="0.241" stroke-miterlimit="22.926" points="46.755,28.17 51.295,34.567 
	46.755,37.203 42.217,39.839 "/>
<polygon fill="none" stroke="#231F20" stroke-width="0.241" stroke-miterlimit="22.926" points="46.616,26.053 52.817,34.792 
	40.417,41.995 "/>
<line fill="none" stroke="#231F20" stroke-width="0.241" stroke-miterlimit="22.926" x1="50.141" y1="34.201" x2="51.279" y2="34.542"/>
<path fill-rule="evenodd" clip-rule="evenodd" fill="#E7E7E7" d="M9.129,6.287l7.541,2.229l-4.812,16.263l-7.529-2.265
	c-1.213-0.154-2.213-0.921-2.676-2.757c-0.37-3.455-0.182-7.689,2.343-10.847C5.124,7.018,7.611,5.695,9.129,6.287z"/>
<path fill="none" stroke="#231F20" stroke-width="0.241" stroke-miterlimit="22.926" d="M9.129,6.287l7.541,2.229l-4.812,16.263
	l-7.529-2.265c-1.213-0.154-2.213-0.921-2.676-2.757c-0.37-3.455-0.182-7.689,2.343-10.847C5.124,7.018,7.611,5.695,9.129,6.287z"/>
<path fill-rule="evenodd" clip-rule="evenodd" fill="#D1D2D3" d="M12.835,10.602c2.532-3.066,5.291-2.833,6.163,0.521
	c0.874,3.353-0.472,8.557-3.003,11.624c-2.533,3.063-5.293,2.831-6.164-0.524C8.958,18.871,10.304,13.667,12.835,10.602z"/>
<path fill="none" stroke="#231F20" stroke-width="0.241" stroke-miterlimit="22.926" d="M12.835,10.602
	c2.532-3.066,5.291-2.833,6.163,0.521c0.874,3.353-0.472,8.557-3.003,11.624c-2.533,3.063-5.293,2.831-6.164-0.524
	C8.958,18.871,10.304,13.667,12.835,10.602z"/>
<path fill-rule="evenodd" clip-rule="evenodd" fill="#D1D2D3" d="M13.857,11.729c2.092-2.617,4.372-2.418,5.092,0.443
	c0.719,2.864-0.391,7.302-2.482,9.918c-2.093,2.615-4.371,2.416-5.092-0.445C10.655,18.785,11.765,14.344,13.857,11.729z"/>
<path fill="none" stroke="#231F20" stroke-width="0.241" stroke-miterlimit="22.926" d="M13.857,11.729
	c2.092-2.617,4.372-2.418,5.092,0.443c0.719,2.864-0.391,7.302-2.482,9.918c-2.093,2.615-4.371,2.416-5.092-0.445
	C10.655,18.785,11.765,14.344,13.857,11.729z"/>
<path fill-rule="evenodd" clip-rule="evenodd" fill="#D1D2D3" d="M10.85,6.797l1.533-0.906L12.381,7.85
	c-0.236,0.072-0.318,0.048-0.742,0.282c-0.293,0.187-0.56,0.417-0.789,0.629V6.797z"/>
<path fill="none" stroke="#231F20" stroke-width="0.241" stroke-miterlimit="22.926" d="M10.85,6.797l1.533-0.906L12.381,7.85
	c-0.236,0.072-0.318,0.048-0.742,0.282c-0.293,0.187-0.56,0.417-0.789,0.629V6.797z"/>
<polygon fill-rule="evenodd" clip-rule="evenodd" fill="#D1D2D3" points="8.801,6.192 10.85,6.797 10.85,8.761 8.801,8.147 "/>
<polygon fill="none" stroke="#231F20" stroke-width="0.241" stroke-miterlimit="22.926" points="8.801,6.192 10.85,6.797 
	10.85,8.761 8.801,8.147 "/>
<polygon fill-rule="evenodd" clip-rule="evenodd" fill="#D1D2D3" points="10.338,5.28 12.381,5.894 10.848,6.797 8.796,6.192 "/>
<polygon fill="none" stroke="#231F20" stroke-width="0.241" stroke-miterlimit="22.926" points="10.338,5.28 12.381,5.894 
	10.848,6.797 8.796,6.192 "/>
<path fill="none" stroke="#231F20" stroke-width="0.241" stroke-miterlimit="22.926" d="M8.372,13.12
	c-1.018,1.233-1.71,3.061-1.876,4.719l-3.519-1.042"/>
<path fill="none" stroke="#231F20" stroke-width="0.241" stroke-miterlimit="22.926" d="M8.655,13.907
	c-1.019,1.233-1.711,3.061-1.877,4.718L3.26,17.583"/>
<path fill-rule="evenodd" clip-rule="evenodd" fill="#E7E7E7" d="M17.062,8.601l5.795,1.708l-3.067,16.783l-7.527-2.263
	c-1.213-0.155-2.212-0.922-2.675-2.759c-0.373-3.454-0.185-7.689,2.341-10.848C13.058,9.331,15.544,8.009,17.062,8.601z"/>
<path fill="none" stroke="#231F20" stroke-width="0.241" stroke-miterlimit="22.926" d="M17.062,8.601l5.795,1.708l-3.067,16.783
	l-7.527-2.263c-1.213-0.155-2.212-0.922-2.675-2.759c-0.373-3.454-0.185-7.689,2.341-10.848C13.058,9.331,15.544,8.009,17.062,8.601
	z"/>
<path fill-rule="evenodd" clip-rule="evenodd" fill="#D1D2D3" d="M20.767,12.917c2.532-3.067,5.291-2.833,6.164,0.522
	c0.872,3.351-0.473,8.555-3.006,11.622c-2.532,3.064-5.292,2.832-6.163-0.522C16.89,21.183,18.234,15.979,20.767,12.917z"/>
<path fill="none" stroke="#231F20" stroke-width="0.241" stroke-miterlimit="22.926" d="M20.767,12.917
	c2.532-3.067,5.291-2.833,6.164,0.522c0.872,3.351-0.473,8.555-3.006,11.622c-2.532,3.064-5.292,2.832-6.163-0.522
	C16.89,21.183,18.234,15.979,20.767,12.917z"/>
<path fill-rule="evenodd" clip-rule="evenodd" fill="#D1D2D3" d="M21.788,14.044c2.092-2.618,4.371-2.417,5.092,0.443
	c0.721,2.863-0.391,7.303-2.482,9.918c-2.092,2.616-4.37,2.416-5.092-0.446C18.585,21.1,19.696,16.658,21.788,14.044z"/>
<path fill="none" stroke="#231F20" stroke-width="0.241" stroke-miterlimit="22.926" d="M21.788,14.044
	c2.092-2.618,4.371-2.417,5.092,0.443c0.721,2.863-0.391,7.303-2.482,9.918c-2.092,2.616-4.37,2.416-5.092-0.446
	C18.585,21.1,19.696,16.658,21.788,14.044z"/>
<path fill-rule="evenodd" clip-rule="evenodd" fill="#D1D2D3" d="M18.78,9.112l1.533-0.908l-0.002,1.958
	c-0.235,0.07-0.318,0.048-0.742,0.28c-0.292,0.188-0.559,0.418-0.789,0.631V9.112z"/>
<path fill="none" stroke="#231F20" stroke-width="0.241" stroke-miterlimit="22.926" d="M18.78,9.112l1.533-0.908l-0.002,1.958
	c-0.235,0.07-0.318,0.048-0.742,0.28c-0.292,0.188-0.559,0.418-0.789,0.631V9.112z"/>
<polygon fill-rule="evenodd" clip-rule="evenodd" fill="#D1D2D3" points="16.733,8.506 18.78,9.112 18.78,11.075 16.733,10.461 "/>
<polygon fill="none" stroke="#231F20" stroke-width="0.241" stroke-miterlimit="22.926" points="16.733,8.506 18.78,9.112 
	18.78,11.075 16.733,10.461 "/>
<polygon fill-rule="evenodd" clip-rule="evenodd" fill="#D1D2D3" points="18.271,7.591 20.312,8.207 18.78,9.112 16.729,8.503 "/>
<polygon fill="none" stroke="#231F20" stroke-width="0.241" stroke-miterlimit="22.926" points="18.271,7.591 20.312,8.207 
	18.78,9.112 16.729,8.503 "/>
<path fill="none" stroke="#231F20" stroke-width="0.241" stroke-miterlimit="22.926" d="M16.304,15.434
	c-1.019,1.233-1.709,3.061-1.877,4.719l-3.516-1.043"/>
<path fill="none" stroke="#231F20" stroke-width="0.241" stroke-miterlimit="22.926" d="M16.587,16.219
	c-1.019,1.235-1.709,3.063-1.877,4.722l-3.517-1.044"/>
<path fill-rule="evenodd" clip-rule="evenodd" fill="none" d="M52.758-14v43.517c0,2.998-2.456,5.44-5.467,5.44H3.563
	c-3.012,0-5.468-2.442-5.468-5.44V-14"/>
<polygon fill-rule="evenodd" clip-rule="evenodd" fill="#D1D2D3" points="54.904,22.701 52.792,28.086 50.896,32.142 44.117,36.152 
	42.849,34.011 40.378,31.297 40.378,27.104 41.823,24.755 44.741,23.013 44.741,18.688 45.703,15.138 48.909,13.191 48.904,8.462 
	51.308,7.042 52.026,7.558 52.021,18.722 53.211,18.018 54.904,18.526 "/>
<polygon fill="none" stroke="#231F20" stroke-width="0.241" stroke-miterlimit="22.926" points="54.904,22.701 52.792,28.086 
	50.896,32.142 44.117,36.152 42.849,34.011 40.378,31.297 40.378,27.104 41.823,24.755 44.741,23.013 44.741,18.688 45.703,15.138 
	48.909,13.191 48.904,8.462 51.308,7.042 52.026,7.558 52.021,18.722 53.211,18.018 54.904,18.526 "/>
<polygon fill-rule="evenodd" clip-rule="evenodd" fill="#D1D2D3" points="44.741,18.687 44.753,23.011 21.69,16.099 21.69,11.773 
	"/>
<polygon fill="none" stroke="#231F20" stroke-width="0.241" stroke-miterlimit="22.926" points="44.741,18.687 44.753,23.011 
	21.69,16.099 21.69,11.773 "/>
<polygon fill-rule="evenodd" clip-rule="evenodd" fill="#D1D2D3" points="25.912,1.567 48.911,8.465 48.915,13.194 25.912,6.293 "/>
<polygon fill="none" stroke="#231F20" stroke-width="0.241" stroke-miterlimit="22.926" points="25.912,1.567 48.911,8.465 
	48.915,13.194 25.912,6.293 "/>
<polygon fill-rule="evenodd" clip-rule="evenodd" fill="#D1D2D3" points="18.734,17.829 41.824,24.755 40.378,27.102 17.314,20.187 
	"/>
<polygon fill="none" stroke="#231F20" stroke-width="0.241" stroke-miterlimit="22.926" points="18.734,17.829 41.824,24.755 
	40.378,27.102 17.314,20.187 "/>
<polygon fill-rule="evenodd" clip-rule="evenodd" fill="#BBBDBF" points="18.753,17.835 41.824,24.755 44.761,23.018 21.69,16.099 
	"/>
<polygon fill="none" stroke="#231F20" stroke-width="0.241" stroke-miterlimit="22.926" points="18.753,17.835 41.824,24.755 
	44.761,23.018 21.69,16.099 "/>
<polygon fill-rule="evenodd" clip-rule="evenodd" fill="#D1D2D3" points="25.912,1.567 48.911,8.462 51.31,7.042 28.315,0.144 "/>
<polygon fill="none" stroke="#231F20" stroke-width="0.241" stroke-miterlimit="22.926" points="25.912,1.567 48.911,8.462 
	51.31,7.042 28.315,0.144 "/>
<polygon fill-rule="evenodd" clip-rule="evenodd" fill="#BBBDBF" points="45.703,15.138 48.909,13.191 25.921,6.297 22.657,8.227 
	"/>
<polygon fill="none" stroke="#231F20" stroke-width="0.241" stroke-miterlimit="22.926" points="45.703,15.138 48.909,13.191 
	25.921,6.297 22.657,8.227 "/>
<polygon fill-rule="evenodd" clip-rule="evenodd" fill="#D1D2D3" points="17.302,24.376 40.378,31.297 42.824,33.983 19.751,27.065 
	"/>
<polygon fill="none" stroke="#231F20" stroke-width="0.241" stroke-miterlimit="22.926" points="17.302,24.376 40.378,31.297 
	42.824,33.983 19.751,27.065 "/>
<polygon fill-rule="evenodd" clip-rule="evenodd" fill="#BBBDBF" points="17.314,24.392 40.379,31.297 40.379,27.104 17.314,20.187 
	"/>
<polygon fill="none" stroke="#231F20" stroke-width="0.241" stroke-miterlimit="22.926" points="17.314,24.392 40.379,31.297 
	40.379,27.104 17.314,20.187 "/>
<path fill-rule="evenodd" clip-rule="evenodd" fill="none" d="M52.758-14v43.517c0,2.998-2.456,5.44-5.467,5.44H3.563
	c-3.012,0-5.468-2.442-5.468-5.44V-14"/>
<polygon fill-rule="evenodd" clip-rule="evenodd" fill="#BBBDBF" points="21.049,29.235 44.117,36.152 42.849,33.983 19.778,27.073 
	"/>
<polygon fill="none" stroke="#231F20" stroke-width="0.241" stroke-miterlimit="22.926" points="21.049,29.235 44.117,36.152 
	42.849,33.983 19.778,27.073 "/>
<polygon fill-rule="evenodd" clip-rule="evenodd" fill="#D1D2D3" points="37.109,17.217 39.998,18.084 39.998,20.933 37.109,20.065 
	"/>
<polygon fill="none" stroke="#231F20" stroke-width="0.241" stroke-miterlimit="22.926" points="37.109,17.217 39.998,18.084 
	39.998,20.933 37.109,20.065 "/>
<path fill-rule="evenodd" clip-rule="evenodd" fill="#D1D2D3" d="M46.805,22.2c1.637-2.047,3.422-1.892,3.985,0.349
	c0.564,2.239-0.305,5.716-1.943,7.761c-1.637,2.05-3.421,1.893-3.984-0.347C44.298,27.72,45.167,24.247,46.805,22.2z"/>
<path fill="none" stroke="#231F20" stroke-width="0.241" stroke-miterlimit="22.926" d="M46.805,22.2
	c1.637-2.047,3.422-1.892,3.985,0.349c0.564,2.239-0.305,5.716-1.943,7.761c-1.637,2.05-3.421,1.893-3.984-0.347
	C44.298,27.72,45.167,24.247,46.805,22.2z"/>
<path fill-rule="evenodd" clip-rule="evenodd" fill="#929497" d="M47.192,22.768c1.484-1.858,3.104-1.718,3.616,0.314
	c0.51,2.03-0.279,5.186-1.765,7.042c-1.486,1.856-3.104,1.716-3.615-0.317C44.919,27.776,45.706,24.622,47.192,22.768z"/>
<path fill="none" stroke="#231F20" stroke-width="0.241" stroke-miterlimit="22.926" d="M47.192,22.768
	c1.484-1.858,3.104-1.718,3.616,0.314c0.51,2.03-0.279,5.186-1.765,7.042c-1.486,1.856-3.104,1.716-3.615-0.317
	C44.919,27.776,45.706,24.622,47.192,22.768z"/>
<path fill-rule="evenodd" clip-rule="evenodd" fill="#D1D2D3" d="M48.188,22.708c1.638-2.046,3.423-1.891,3.986,0.349
	c0.563,2.24-0.306,5.716-1.942,7.762c-1.638,2.048-3.422,1.894-3.986-0.348C45.682,28.229,46.551,24.755,48.188,22.708z"/>
<path fill="none" stroke="#231F20" stroke-width="0.241" stroke-miterlimit="22.926" d="M48.188,22.708
	c1.638-2.046,3.423-1.891,3.986,0.349c0.563,2.24-0.306,5.716-1.942,7.762c-1.638,2.048-3.422,1.894-3.986-0.348
	C45.682,28.229,46.551,24.755,48.188,22.708z"/>
<path fill-rule="evenodd" clip-rule="evenodd" fill="#E7E7E7" d="M48.731,24.862c0.768-0.959,1.606-0.887,1.868,0.163
	c0.266,1.05-0.143,2.683-0.91,3.642c-0.77,0.959-1.605,0.887-1.869-0.162C47.555,27.452,47.963,25.822,48.731,24.862z"/>
<path fill="none" stroke="#231F20" stroke-width="0.241" stroke-miterlimit="22.926" d="M48.731,24.862
	c0.768-0.959,1.606-0.887,1.868,0.163c0.266,1.05-0.143,2.683-0.91,3.642c-0.77,0.959-1.605,0.887-1.869-0.162
	C47.555,27.452,47.963,25.822,48.731,24.862z"/>
<polygon fill-rule="evenodd" clip-rule="evenodd" fill="#D1D2D3" points="21.69,11.776 44.741,18.688 45.703,15.138 22.657,8.227 
	"/>
<polygon fill="none" stroke="#231F20" stroke-width="0.241" stroke-miterlimit="22.926" points="21.69,11.776 44.741,18.688 
	45.703,15.138 22.657,8.227 "/>
<polygon fill-rule="evenodd" clip-rule="evenodd" fill="#D1D2D3" points="40.885,9.764 43.874,10.662 43.874,14.147 40.885,13.25 
	"/>
<polygon fill="none" stroke="#231F20" stroke-width="0.241" stroke-miterlimit="22.926" points="40.885,9.764 43.874,10.662 
	43.874,14.147 40.885,13.25 "/>
<polygon fill-rule="evenodd" clip-rule="evenodd" fill="#D1D2D3" points="46.105,9.339 43.872,10.662 43.872,14.147 46.105,12.826 
	"/>
<polygon fill="none" stroke="#231F20" stroke-width="0.241" stroke-miterlimit="22.926" points="46.105,9.339 43.872,10.662 
	43.872,14.147 46.105,12.826 "/>
<polygon fill-rule="evenodd" clip-rule="evenodd" fill="#BBBDBF" points="43.091,8.459 46.078,9.354 43.872,10.658 40.885,9.764 "/>
<polygon fill="none" stroke="#231F20" stroke-width="0.241" stroke-miterlimit="22.926" points="43.091,8.459 46.078,9.354 
	43.872,10.658 40.885,9.764 "/>
<polygon fill-rule="evenodd" clip-rule="evenodd" fill="#FFFFFF" points="42.519,8.506 43.678,8.853 43.678,9.975 42.519,9.625 "/>
<polygon fill="none" stroke="#231F20" stroke-width="0.241" stroke-miterlimit="22.926" points="42.519,8.506 43.678,8.853 
	43.678,9.975 42.519,9.625 "/>
<polygon fill-rule="evenodd" clip-rule="evenodd" fill="#FFFFFF" points="44.546,8.341 43.679,8.853 43.679,9.978 44.546,9.462 "/>
<polygon fill="none" stroke="#231F20" stroke-width="0.241" stroke-miterlimit="22.926" points="44.546,8.341 43.679,8.853 
	43.679,9.978 44.546,9.462 "/>
<polygon fill-rule="evenodd" clip-rule="evenodd" fill="#F2F2F2" points="43.375,7.997 44.534,8.346 43.678,8.853 42.519,8.506 "/>
<polygon fill="none" stroke="#231F20" stroke-width="0.241" stroke-miterlimit="22.926" points="43.375,7.997 44.534,8.346 
	43.678,8.853 42.519,8.506 "/>
<polygon fill-rule="evenodd" clip-rule="evenodd" fill="#D1D2D3" points="32.653,7.34 35.642,8.238 35.642,11.723 32.653,10.827 "/>
<polygon fill="none" stroke="#231F20" stroke-width="0.241" stroke-miterlimit="22.926" points="32.653,7.34 35.642,8.238 
	35.642,11.723 32.653,10.827 "/>
<polygon fill-rule="evenodd" clip-rule="evenodd" fill="#D1D2D3" points="37.875,6.913 35.642,8.238 35.642,11.723 37.875,10.402 
	"/>
<polygon fill="none" stroke="#231F20" stroke-width="0.241" stroke-miterlimit="22.926" points="37.875,6.913 35.642,8.238 
	35.642,11.723 37.875,10.402 "/>
<polygon fill-rule="evenodd" clip-rule="evenodd" fill="#BBBDBF" points="34.86,6.035 37.849,6.929 35.642,8.238 32.654,7.34 "/>
<polygon fill="none" stroke="#231F20" stroke-width="0.241" stroke-miterlimit="22.926" points="34.86,6.035 37.849,6.929 
	35.642,8.238 32.654,7.34 "/>
<polygon fill-rule="evenodd" clip-rule="evenodd" fill="#FFFFFF" points="34.288,6.083 35.447,6.431 35.447,7.553 34.288,7.204 "/>
<polygon fill="none" stroke="#231F20" stroke-width="0.241" stroke-miterlimit="22.926" points="34.288,6.083 35.447,6.431 
	35.447,7.553 34.288,7.204 "/>
<polygon fill-rule="evenodd" clip-rule="evenodd" fill="#FFFFFF" points="36.313,5.917 35.447,6.429 35.447,7.551 36.313,7.039 "/>
<polygon fill="none" stroke="#231F20" stroke-width="0.241" stroke-miterlimit="22.926" points="36.313,5.917 35.447,6.429 
	35.447,7.551 36.313,7.039 "/>
<polygon fill-rule="evenodd" clip-rule="evenodd" fill="#F2F2F2" points="35.145,5.577 36.304,5.924 35.447,6.429 34.288,6.083 "/>
<polygon fill="none" stroke="#231F20" stroke-width="0.241" stroke-miterlimit="22.926" points="35.145,5.577 36.304,5.924 
	35.447,6.429 34.288,6.083 "/>
<polygon fill-rule="evenodd" clip-rule="evenodd" fill="#D1D2D3" points="25.057,5.062 28.046,5.958 28.046,9.447 25.057,8.549 "/>
<polygon fill="none" stroke="#231F20" stroke-width="0.241" stroke-miterlimit="22.926" points="25.057,5.062 28.046,5.958 
	28.046,9.447 25.057,8.549 "/>
<polygon fill-rule="evenodd" clip-rule="evenodd" fill="#D1D2D3" points="30.278,4.637 28.046,5.959 28.046,9.447 30.278,8.122 "/>
<polygon fill="none" stroke="#231F20" stroke-width="0.241" stroke-miterlimit="22.926" points="30.278,4.637 28.046,5.959 
	28.046,9.447 30.278,8.122 "/>
<polygon fill-rule="evenodd" clip-rule="evenodd" fill="#BBBDBF" points="27.265,3.757 30.252,4.652 28.046,5.958 25.059,5.062 "/>
<polygon fill="none" stroke="#231F20" stroke-width="0.241" stroke-miterlimit="22.926" points="27.265,3.757 30.252,4.652 
	28.046,5.958 25.059,5.062 "/>
<polygon fill-rule="evenodd" clip-rule="evenodd" fill="#FFFFFF" points="26.688,3.804 27.85,4.153 27.85,5.273 26.688,4.923 "/>
<polygon fill="none" stroke="#231F20" stroke-width="0.241" stroke-miterlimit="22.926" points="26.688,3.804 27.85,4.153 
	27.85,5.273 26.688,4.923 "/>
<polygon fill-rule="evenodd" clip-rule="evenodd" fill="#FFFFFF" points="28.718,3.64 27.85,4.153 27.85,5.273 28.718,4.76 "/>
<polygon fill="none" stroke="#231F20" stroke-width="0.241" stroke-miterlimit="22.926" points="28.718,3.64 27.85,4.153 
	27.85,5.273 28.718,4.76 "/>
<polygon fill-rule="evenodd" clip-rule="evenodd" fill="#F2F2F2" points="27.547,3.297 28.706,3.644 27.852,4.151 26.69,3.804 "/>
<polygon fill="none" stroke="#231F20" stroke-width="0.241" stroke-miterlimit="22.926" points="27.547,3.297 28.706,3.644 
	27.852,4.151 26.69,3.804 "/>
<polygon fill-rule="evenodd" clip-rule="evenodd" fill="#D1D2D3" points="31.364,15.5 34.253,16.368 34.253,19.214 31.364,18.347 
	"/>
<polygon fill="none" stroke="#231F20" stroke-width="0.241" stroke-miterlimit="22.926" points="31.364,15.5 34.253,16.368 
	34.253,19.214 31.364,18.347 "/>
<polygon fill-rule="evenodd" clip-rule="evenodd" fill="#D1D2D3" points="25.597,13.769 28.485,14.634 28.485,17.482 25.597,16.615 
	"/>
<polygon fill="none" stroke="#231F20" stroke-width="0.241" stroke-miterlimit="22.926" points="25.597,13.769 28.485,14.634 
	28.485,17.482 25.597,16.615 "/>
<path fill-rule="evenodd" clip-rule="evenodd" fill="none" d="M52.758-14v43.517c0,2.998-2.456,5.44-5.467,5.44H3.563
	c-3.012,0-5.468-2.442-5.468-5.44V-14"/>
<polygon fill-rule="evenodd" clip-rule="evenodd" fill="#BBBDBF" points="52.023,17.66 52.025,18.719 53.211,18.018 "/>
<polygon fill="none" stroke="#231F20" stroke-width="0.241" stroke-miterlimit="22.926" points="52.023,17.66 52.025,18.719 
	53.211,18.018 "/>
</svg>
