<?xml version="1.0" encoding="utf-8"?>
<!-- Generator: Adobe Illustrator 16.0.0, SVG Export Plug-In . SVG Version: 6.00 Build 0)  -->
<!DOCTYPE svg PUBLIC "-//W3C//DTD SVG 1.1//EN" "http://www.w3.org/Graphics/SVG/1.1/DTD/svg11.dtd">
<svg version="1.1" id="Layer_1" xmlns="http://www.w3.org/2000/svg" xmlns:xlink="http://www.w3.org/1999/xlink" x="0px" y="0px"
	 width="47px" height="47px" viewBox="0 0 47 47" enable-background="new 0 0 47 47" xml:space="preserve">
<g>
	<path fill="#903434" stroke="#903434" stroke-width="5" d="M7.747,37.336"/>
	<path fill="#903434" stroke="#903434" stroke-width="5" d="M7.819,11.468"/>
	<radialGradient id="SVGID_1_" cx="28.7852" cy="17.8462" r="19.8701" gradientUnits="userSpaceOnUse">
		<stop  offset="0" style="stop-color:#FFFFFF"/>
		<stop  offset="0.202" style="stop-color:#F2D8D2"/>
		<stop  offset="0.4537" style="stop-color:#E8B3AC"/>
		<stop  offset="0.6797" style="stop-color:#E29A93"/>
		<stop  offset="0.8695" style="stop-color:#DE8C85"/>
		<stop  offset="1" style="stop-color:#DC8780"/>
	</radialGradient>
	<circle fill="url(#SVGID_1_)" cx="23.427" cy="24.316" r="20.486"/>
	<circle fill="none" stroke="#903434" stroke-width="5" cx="23.427" cy="24.689" r="20.486"/>
	<path fill="#903434" d="M24.42,40.224l-0.301-0.011l-1.402-0.051l-0.283-0.01v-0.283v-3.65l-2.566,1.497l-0.141,0.082l-0.143-0.076
		l-1.705-0.902l-0.482-0.252l0.479-0.263l4.514-2.477l0.033-1.161l-1.273,0.599l-0.176,0.084l-0.145-0.13l-1.004-0.903l-0.291-0.261
		l0.334-0.206l2.467-1.519v-3.654l-2.924,1.585v3.286v0.467l-0.42-0.203l-1.455-0.702l-0.148-0.071l-0.014-0.166l-0.111-1.178
		l-0.857,0.43l0.049,5.081l0.004,0.457l-0.416-0.188l-1.455-0.65l-0.162-0.072l-0.01-0.178l-0.176-3.011l-3.508,1.801l-0.258,0.131
		l-0.135-0.253l-0.803-1.505L9.4,31.483l0.248-0.141l3.488-1.967l-2.799-1.792l-0.145-0.093l0.01-0.172l0.1-1.704l0.031-0.51
		l0.424,0.283l4.227,2.817l1.17-0.535l-1.078-0.856l-0.117-0.093l0.006-0.147l0.051-1.354l0.016-0.476l0.418,0.23l2.332,1.284
		l3.346-1.423l-2.832-1.685l-2.871,1.244l-0.41,0.177v-0.445v-1.504v-0.176l0.156-0.082l0.969-0.52l-0.891-0.583l-4.256,2.467
		l-0.4,0.232L10.555,23.5l-0.15-1.854l-0.014-0.183l0.156-0.094l2.486-1.456L9.59,17.812l-0.27-0.166l0.186-0.257l1.053-1.453
		l0.158-0.218l0.23,0.138l3.33,1.998l0.086-3.207l0.004-0.125l0.092-0.084l1.102-1.004l0.484-0.439l0.008,0.654l0.049,5.337
		l1.209,0.623l0.111-1.222l0.014-0.153l0.135-0.075l1.254-0.702l0.428-0.24l0.008,0.491l0.047,3.336l3.072,1.641l-0.043-3.506
		l-2.572-1.619l-0.334-0.211l0.299-0.259l1.104-0.952l0.158-0.138l0.182,0.106l1.262,0.742v-1.313l-4.703-2.425l-0.652-0.335
		l0.703-0.207l2.057-0.602l0.113-0.033l0.105,0.057l2.346,1.236l0.158-4.098l0.01-0.282h0.281h1.381h0.289l0.002,0.289l0.045,4.084
		l3.287-1.731l0.189-0.101l0.154,0.151l0.9,0.902l0.264,0.266l-0.318,0.192l-4.426,2.675l-0.031,1.2l1.314-0.676l0.186-0.095
		l0.15,0.144l1.104,1.053l0.295,0.28l-0.361,0.19l-2.703,1.424l-0.043,3.666l2.975-1.427l0.146-3.684l0.016-0.462l0.41,0.214
		l1.354,0.701l0.145,0.076l0.012,0.161l0.115,1.486l0.809-0.479l0.146-5.453l0.016-0.54l0.443,0.307l1.453,1.003l0.127,0.087v0.153
		v3.108l3.824-2.159l0.32-0.18l0.105,0.349l0.5,1.655l0.066,0.217l-0.193,0.118l-3.355,2.058l2.656,1.654l0.133,0.083l0.004,0.157
		l0.051,1.705l0.016,0.563l-0.469-0.311l-4.123-2.715L30.85,21.88l0.936,0.484l0.152,0.078l0.006,0.172l0.051,1.503l0.018,0.542
		l-0.018-0.011v0.332v1.955v0.198l-0.184,0.073l-0.908,0.363l0.846,0.438l4.525-2.435l0.418-0.225l0.014,0.475l0.051,1.756
		l0.004,0.18l-0.156,0.086l-2.807,1.51l3.82,2.291l0.264,0.16l-0.172,0.256l-0.953,1.403l-0.152,0.228l-0.236-0.138l-3.721-2.15
		v3.552v0.144l-0.115,0.089l-1.104,0.852l-0.443,0.343l-0.027-0.56l-0.244-5.083l-1.01-0.813l-0.066,1.136l-0.01,0.176l-0.158,0.073
		l-1.404,0.651l-0.41,0.19v-0.01l-0.234,0.185l-1.154,0.903l-0.15,0.118l-0.168-0.091l-1.41-0.763l0.033,1.381l4.563,2.477
		l0.775,0.419l-0.871,0.128l-2.057,0.301l-0.092,0.013l-0.084-0.041l-2.336-1.19l-0.045,3.94L24.42,40.224L24.42,40.224z
		 M24.576,30.179l2.813,1.669l0.266,0.156l-0.004-0.302l-0.049-3.393l-2.984-1.723L24.576,30.179L24.576,30.179z M25.756,24.596
		l3.084,1.751l2.711-1.617l0.291-0.173l-0.293-0.179l-2.418-1.469L25.756,24.596L25.756,24.596z"/>
</g>
<radialGradient id="SVGID_2_" cx="23.4941" cy="4.0747" r="3.1013" gradientUnits="userSpaceOnUse">
	<stop  offset="0" style="stop-color:#D7635A"/>
	<stop  offset="0.4166" style="stop-color:#D56159"/>
	<stop  offset="0.5667" style="stop-color:#CD5D55"/>
	<stop  offset="0.6736" style="stop-color:#C2564F"/>
	<stop  offset="0.7601" style="stop-color:#B24D46"/>
	<stop  offset="0.8342" style="stop-color:#9E413B"/>
	<stop  offset="0.8998" style="stop-color:#87332D"/>
	<stop  offset="0.9577" style="stop-color:#6E231E"/>
	<stop  offset="1" style="stop-color:#59150F"/>
</radialGradient>
<circle fill="url(#SVGID_2_)" stroke="#832F2F" stroke-width="1.2739" stroke-linecap="round" stroke-miterlimit="10" cx="23.494" cy="4.075" r="3.102"/>
</svg>
