<?xml version="1.0" encoding="utf-8"?>
<!-- Generator: Adobe Illustrator 16.0.0, SVG Export Plug-In . SVG Version: 6.00 Build 0)  -->
<!DOCTYPE svg PUBLIC "-//W3C//DTD SVG 1.1//EN" "http://www.w3.org/Graphics/SVG/1.1/DTD/svg11.dtd">
<svg version="1.1" id="Layer_1" xmlns="http://www.w3.org/2000/svg" xmlns:xlink="http://www.w3.org/1999/xlink" x="0px" y="0px"
	 width="47px" height="47px" viewBox="0 0 47 47" enable-background="new 0 0 47 47" xml:space="preserve">
<g>
	<path fill="#8F3333" d="M27.004,31.487c0,0.079-0.052,0.183-0.115,0.229l-10.216,7.602c-0.064,0.047-0.116,0.021-0.116-0.058
		V17.228c0-0.079,0.052-0.183,0.116-0.229l10.216-7.604c0.063-0.047,0.115-0.021,0.115,0.059V31.487z"/>
	<path fill="none" stroke="#8F3333" stroke-width="1.4623" d="M27.004,31.487c0,0.079-0.052,0.183-0.115,0.229l-10.216,7.602
		c-0.064,0.047-0.116,0.021-0.116-0.058V17.228c0-0.079,0.052-0.183,0.116-0.229l10.216-7.604c0.063-0.047,0.115-0.021,0.115,0.059
		V31.487z"/>
</g>
<path fill="#BA6767" d="M12.655,27.078c-2.759,0-2.759-2.06-5.517-2.06c-1.672,0-2.181,0.607-2.915,1.169v4.953
	c0.775-0.429,1.683-0.803,2.911-0.803c1.626,0,3.515,2.06,5.523,2.06c1.027,0,2.086-0.685,3.159-1.265v-5.377
	C14.965,26.348,14.3,27.078,12.655,27.078z"/>
<path fill="#BA6767" d="M13.155,18.599c-2.759,0-2.759-2.06-5.517-2.06c-1.672,0-2.181,0.607-2.915,1.169v4.953
	c0.775-0.429,1.683-0.803,2.911-0.803c1.626,0,3.515,2.06,5.523,2.06c0.867,0,1.757-0.49,2.659-0.992V17.64
	C15.158,18.129,14.471,18.599,13.155,18.599z"/>
<path fill="#BA6767" d="M35.654,18.029c-2.652,0.406-3.316-2.018-6.08-2.018c-0.811,0-1.38,0.18-1.854,0.432v5.511
	c0.654-0.348,1.281-0.624,1.873-0.624c3.295,0,2.758,2.061,5.518,2.061c0.582,0,1.021-0.078,1.379-0.197v-5.352
	C36.238,17.916,35.969,17.98,35.654,18.029z"/>
<path fill="#BA6767" d="M24.059,18.07c-1.329,0-2.017-0.477-2.682-0.973v5.275c0.916,0.511,1.82,1.018,2.702,1.018
	c1.275,0,2.5-0.83,3.643-1.437v-5.511C26.582,17.047,26.006,18.07,24.059,18.07z"/>
<g>
	<path fill="#BA6767" d="M35.061,26.428c-2.652,0.406-3.316-2.018-6.08-2.018c-0.5,0-0.908,0.068-1.26,0.18v5.469
		c0.441-0.197,0.868-0.33,1.279-0.33c3.295,0,2.758,2.061,5.518,2.061c0.582,0,1.021-0.078,1.379-0.197V26.24
		C35.645,26.314,35.375,26.379,35.061,26.428z"/>
	<path fill="#BA6767" d="M23.464,26.469c-1.005,0-1.642-0.273-2.182-0.621v5.198c0.745,0.401,1.481,0.743,2.201,0.743
		c1.5,0,2.93-1.15,4.237-1.73V24.59C26.134,25.092,25.723,26.469,23.464,26.469z"/>
</g>
<path fill="#8F3333" stroke="#8F3333" stroke-width="5" d="M7.067,36.642"/>
<path fill="#8F3333" stroke="#8F3333" stroke-width="5" d="M7.14,10.773"/>
<radialGradient id="SVGID_1_" cx="28.3203" cy="16.7925" r="19.8704" gradientUnits="userSpaceOnUse">
	<stop  offset="0" style="stop-color:#FFFFFF"/>
	<stop  offset="0.1377" style="stop-color:#F8E7E6"/>
	<stop  offset="0.4098" style="stop-color:#ECBEBA"/>
	<stop  offset="0.6539" style="stop-color:#E3A09A"/>
	<stop  offset="0.859" style="stop-color:#DE8E87"/>
	<stop  offset="1" style="stop-color:#DC8780"/>
</radialGradient>
<circle fill="url(#SVGID_1_)" cx="22.963" cy="23.264" r="20.486"/>
<circle fill="none" stroke="#8F3333" stroke-width="5" cx="22.963" cy="23.637" r="20.486"/>
<polygon fill="#BA6767" points="41.846,29.186 34.739,33.199 34.814,25.038 "/>
<polygon fill="#BA6767" points="43.498,20.731 36.391,24.746 36.466,16.584 "/>
</svg>
