<?xml version="1.0" encoding="utf-8"?>
<!-- Generator: Adobe Illustrator 16.0.0, SVG Export Plug-In . SVG Version: 6.00 Build 0)  -->
<!DOCTYPE svg PUBLIC "-//W3C//DTD SVG 1.1//EN" "http://www.w3.org/Graphics/SVG/1.1/DTD/svg11.dtd">
<svg version="1.1" id="Layer_1" xmlns="http://www.w3.org/2000/svg" xmlns:xlink="http://www.w3.org/1999/xlink" x="0px" y="0px"
	 width="47px" height="47px" viewBox="0 0 47 47" enable-background="new 0 0 47 47" xml:space="preserve">
<path fill="#903434" stroke="#903434" stroke-width="5" d="M8.283,36.336"/>
<path fill="#903434" stroke="#903434" stroke-width="5" d="M8.355,10.468"/>
<radialGradient id="SVGID_1_" cx="29.3203" cy="16.8462" r="19.8704" gradientUnits="userSpaceOnUse">
	<stop  offset="0" style="stop-color:#FFFFFF"/>
	<stop  offset="0.202" style="stop-color:#F2D8D2"/>
	<stop  offset="0.4537" style="stop-color:#E8B3AC"/>
	<stop  offset="0.6797" style="stop-color:#E29A93"/>
	<stop  offset="0.8695" style="stop-color:#DE8C85"/>
	<stop  offset="1" style="stop-color:#DC8780"/>
</radialGradient>
<circle fill="url(#SVGID_1_)" cx="23.963" cy="23.316" r="20.486"/>
<circle fill="none" stroke="#903434" stroke-width="5" cx="23.963" cy="23.689" r="20.486"/>
<path fill="#903434" d="M24.955,39.224l-0.3-0.011l-1.402-0.051l-0.283-0.01v-0.283v-3.65l-2.566,1.497l-0.142,0.082l-0.143-0.076
	l-1.705-0.902l-0.481-0.252l0.478-0.263l4.515-2.477l0.033-1.161l-1.274,0.599l-0.176,0.084l-0.145-0.13l-1.003-0.903l-0.292-0.261
	l0.335-0.206l2.466-1.519v-3.654l-2.923,1.585v3.286v0.467l-0.42-0.203l-1.455-0.702l-0.148-0.071l-0.015-0.166l-0.11-1.178
	l-0.858,0.43l0.049,5.081l0.005,0.457l-0.417-0.188l-1.454-0.65l-0.163-0.072l-0.01-0.178l-0.175-3.011l-3.509,1.801l-0.257,0.131
	l-0.136-0.253l-0.803-1.505l-0.134-0.253l0.248-0.141l3.487-1.967l-2.798-1.792l-0.146-0.093l0.01-0.172l0.101-1.704l0.031-0.51
	l0.424,0.283l4.226,2.817l1.171-0.535l-1.079-0.856l-0.116-0.093l0.006-0.147l0.05-1.354l0.017-0.476l0.418,0.23l2.331,1.284
	l3.347-1.423l-2.833-1.685l-2.87,1.244l-0.41,0.177v-0.445v-1.504v-0.176l0.155-0.082l0.969-0.52l-0.89-0.583l-4.256,2.467
	l-0.401,0.232L11.09,22.5l-0.149-1.854l-0.015-0.183l0.157-0.094l2.485-1.456l-3.442-2.102l-0.271-0.166l0.187-0.257l1.053-1.453
	l0.158-0.218l0.23,0.138l3.329,1.998l0.087-3.207l0.004-0.125l0.092-0.084l1.102-1.004l0.483-0.439l0.008,0.654l0.049,5.337
	l1.21,0.623l0.111-1.222l0.014-0.153l0.135-0.075l1.253-0.702l0.429-0.24l0.007,0.491l0.048,3.336l3.071,1.641l-0.042-3.506
	L20.3,16.559l-0.335-0.211l0.299-0.259l1.104-0.952l0.158-0.138l0.182,0.106l1.263,0.742v-1.313l-4.703-2.425l-0.652-0.335
	l0.702-0.207l2.057-0.602l0.114-0.033l0.105,0.057l2.346,1.236l0.157-4.098l0.011-0.282h0.281h1.38h0.29l0.002,0.289l0.045,4.084
	l3.286-1.731l0.19-0.101l0.153,0.151l0.901,0.902l0.264,0.266l-0.319,0.192l-4.425,2.675l-0.032,1.2l1.314-0.676l0.186-0.095
	l0.15,0.144l1.104,1.053l0.295,0.28l-0.36,0.19l-2.704,1.424l-0.042,3.666l2.975-1.427l0.146-3.684l0.017-0.462l0.41,0.214
	l1.353,0.701l0.146,0.076l0.012,0.161l0.114,1.486l0.81-0.479l0.146-5.453l0.015-0.54l0.443,0.307l1.454,1.003l0.127,0.087v0.153
	v3.108l3.824-2.159l0.319-0.18l0.105,0.349l0.501,1.655l0.066,0.217l-0.193,0.118l-3.356,2.058l2.656,1.654l0.133,0.083l0.004,0.157
	l0.051,1.705l0.017,0.563l-0.47-0.311l-4.123-2.715l-1.38,0.674l0.936,0.484l0.152,0.078l0.005,0.172l0.052,1.503l0.018,0.542
	l-0.018-0.011v0.332v1.955v0.198l-0.185,0.073l-0.908,0.363l0.847,0.438l4.525-2.435l0.418-0.225l0.014,0.475l0.05,1.756l0.005,0.18
	l-0.157,0.086l-2.807,1.51l3.82,2.291l0.265,0.16l-0.173,0.256l-0.952,1.403l-0.153,0.228l-0.235-0.138l-3.722-2.15v3.552v0.144
	l-0.115,0.089l-1.103,0.852l-0.443,0.343l-0.027-0.56l-0.245-5.083l-1.009-0.813l-0.066,1.136l-0.011,0.176l-0.158,0.073
	l-1.403,0.651l-0.41,0.19v-0.01l-0.235,0.185l-1.153,0.903l-0.15,0.118l-0.168-0.091l-1.411-0.763l0.033,1.381l4.563,2.477
	l0.774,0.419l-0.871,0.128l-2.057,0.301l-0.092,0.013l-0.083-0.041l-2.336-1.19l-0.046,3.94L24.955,39.224L24.955,39.224z
	 M25.111,29.179l2.813,1.669l0.266,0.156l-0.004-0.302l-0.049-3.393l-2.983-1.723L25.111,29.179L25.111,29.179z M26.291,23.596
	l3.085,1.751l2.711-1.617l0.291-0.173l-0.293-0.179l-2.418-1.469L26.291,23.596L26.291,23.596z"/>
</svg>
