<?xml version="1.0" encoding="utf-8"?>
<!-- Generator: Adobe Illustrator 16.0.0, SVG Export Plug-In . SVG Version: 6.00 Build 0)  -->
<!DOCTYPE svg PUBLIC "-//W3C//DTD SVG 1.1//EN" "http://www.w3.org/Graphics/SVG/1.1/DTD/svg11.dtd">
<svg version="1.1" id="Layer_1" xmlns="http://www.w3.org/2000/svg" xmlns:xlink="http://www.w3.org/1999/xlink" x="0px" y="0px"
	 width="69px" height="47px" viewBox="0 0 69 47" enable-background="new 0 0 69 47" xml:space="preserve">
<g>
	<path fill="#903434" d="M49.364,31.487c0,0.079-0.052,0.183-0.115,0.229l-10.217,7.602c-0.063,0.047-0.115,0.021-0.115-0.058
		V17.228c0-0.079,0.052-0.183,0.115-0.23l10.217-7.604c0.063-0.047,0.115-0.021,0.115,0.058V31.487z"/>
	<path fill="none" stroke="#903434" stroke-width="1.4623" d="M49.364,31.487c0,0.079-0.052,0.183-0.115,0.229l-10.217,7.602
		c-0.063,0.047-0.115,0.021-0.115-0.058V17.228c0-0.079,0.052-0.183,0.115-0.23l10.217-7.604c0.063-0.047,0.115-0.021,0.115,0.058
		V31.487z"/>
</g>
<path fill="#BA6868" d="M35.016,27.078c-2.759,0-2.759-2.06-5.517-2.06c-1.672,0-2.181,0.607-2.915,1.169v4.953
	c0.775-0.429,1.683-0.803,2.911-0.803c1.626,0,3.515,2.06,5.523,2.06c1.026,0,2.087-0.685,3.159-1.265v-5.377
	C37.325,26.348,36.66,27.078,35.016,27.078z"/>
<path fill="#BA6868" d="M35.516,18.599c-2.759,0-2.759-2.06-5.517-2.06c-1.672,0-2.181,0.607-2.915,1.169v4.953
	c0.775-0.429,1.683-0.803,2.911-0.803c1.626,0,3.515,2.06,5.523,2.06c0.867,0,1.757-0.49,2.659-0.992V17.64
	C37.519,18.129,36.831,18.599,35.516,18.599z"/>
<path fill="#BA6868" d="M58.014,18.029c-2.65,0.406-3.314-2.018-6.078-2.018c-0.811,0-1.381,0.18-1.855,0.432v5.511
	c0.654-0.348,1.281-0.624,1.873-0.624c3.295,0,2.76,2.061,5.518,2.061c0.584,0,1.021-0.078,1.381-0.197v-5.352
	C58.6,17.916,58.328,17.98,58.014,18.029z"/>
<path fill="#BA6868" d="M46.418,18.07c-1.328,0-2.016-0.477-2.682-0.973v5.275c0.916,0.511,1.82,1.018,2.701,1.018
	c1.275,0,2.502-0.83,3.643-1.437v-5.511C48.941,17.047,48.366,18.07,46.418,18.07z"/>
<g>
	<path fill="#BA6868" d="M57.42,26.428c-2.65,0.406-3.314-2.018-6.078-2.018c-0.502,0-0.909,0.068-1.262,0.18v5.469
		c0.441-0.197,0.869-0.33,1.279-0.33c3.295,0,2.76,2.061,5.518,2.061c0.584,0,1.021-0.078,1.381-0.197V26.24
		C58.006,26.314,57.734,26.379,57.42,26.428z"/>
	<path fill="#BA6868" d="M45.824,26.469c-1.004,0-1.642-0.273-2.182-0.621v5.198c0.746,0.401,1.481,0.743,2.201,0.743
		c1.5,0,2.932-1.15,4.236-1.73V24.59C48.494,25.092,48.082,26.469,45.824,26.469z"/>
</g>
<path fill="#903434" stroke="#903434" stroke-width="2" stroke-linecap="round" stroke-linejoin="round" d="M24.951,15.266
	c-3.281,8.371-17.709,8.371-23.809,8.371c6.1,0,20.652,0,23.809,8.367"/>
<path fill="#903434" stroke="#903434" stroke-width="5" d="M29.428,36.642"/>
<path fill="#903434" stroke="#903434" stroke-width="5" d="M29.5,10.773"/>
<radialGradient id="SVGID_1_" cx="50.6807" cy="16.7925" r="19.8701" gradientUnits="userSpaceOnUse">
	<stop  offset="0" style="stop-color:#FFFFFF"/>
	<stop  offset="0.202" style="stop-color:#F2D8D2"/>
	<stop  offset="0.4537" style="stop-color:#E8B3AC"/>
	<stop  offset="0.6797" style="stop-color:#E29A93"/>
	<stop  offset="0.8695" style="stop-color:#DE8C85"/>
	<stop  offset="1" style="stop-color:#DC8780"/>
</radialGradient>
<circle fill="url(#SVGID_1_)" cx="45.323" cy="23.264" r="20.485"/>
<circle fill="none" stroke="#903434" stroke-width="5" cx="45.323" cy="23.637" r="20.485"/>
<polygon fill="#BA6868" points="64.207,29.186 57.1,33.199 57.175,25.038 "/>
<polygon fill="#BA6868" points="65.857,20.731 58.751,24.746 58.826,16.584 "/>
</svg>
