<?xml version="1.0" encoding="utf-8"?>
<!-- Generator: Adobe Illustrator 16.0.0, SVG Export Plug-In . SVG Version: 6.00 Build 0)  -->
<!DOCTYPE svg PUBLIC "-//W3C//DTD SVG 1.1//EN" "http://www.w3.org/Graphics/SVG/1.1/DTD/svg11.dtd">
<svg version="1.1" id="Layer_1" xmlns="http://www.w3.org/2000/svg" xmlns:xlink="http://www.w3.org/1999/xlink" x="0px" y="0px"
	 width="23px" height="23px" viewBox="0 0 23 23" enable-background="new 0 0 23 23" xml:space="preserve">
<g>
	<g>
		<ellipse fill="#4769B3" cx="11.5" cy="8.427" rx="8.5" ry="8.427"/>
	</g>
</g>
<path fill="#B3B3B3" d="M13.328,20c0.244,0,0.447-0.199,0.447-0.439c0-2.313,0-7.353,0-9.665c0.545,0,1.088,0,1.635,0
	c0.414,0,0.557-0.468,0.313-0.75c-1.296-1.533-2.592-3.062-3.892-4.592c-0.096-0.113-0.207-0.154-0.314-0.146
	c-0.108-0.008-0.221,0.033-0.315,0.145c-1.299,1.531-2.594,3.06-3.892,4.592c-0.242,0.282-0.1,0.75,0.314,0.75
	c0.544,0,1.089,0,1.634,0c0,2.312,0,7.351,0,9.666c0,0.24,0.202,0.439,0.444,0.439C10.91,20,12.117,20,13.328,20z"/>
</svg>
