<?xml version="1.0" encoding="utf-8"?>
<!-- Generator: Adobe Illustrator 16.0.0, SVG Export Plug-In . SVG Version: 6.00 Build 0)  -->
<!DOCTYPE svg PUBLIC "-//W3C//DTD SVG 1.1//EN" "http://www.w3.org/Graphics/SVG/1.1/DTD/svg11.dtd">
<svg version="1.1" id="Layer_1" xmlns="http://www.w3.org/2000/svg" xmlns:xlink="http://www.w3.org/1999/xlink" x="0px" y="0px"
	 width="23px" height="23px" viewBox="0 0 23 23" enable-background="new 0 0 23 23" xml:space="preserve">
<g>
	<g>
		<ellipse fill="#4769B3" cx="8.428" cy="11.5" rx="8.425" ry="8.5"/>
	</g>
</g>
<path fill="#B3B3B3" d="M7.409,13.328c0,0.244,0.199,0.447,0.439,0.447c2.313,0,7.351,0,9.664,0c0,0.545,0,1.088,0,1.635
	c0,0.414,0.467,0.557,0.748,0.313c1.533-1.296,3.063-2.592,4.592-3.892c0.113-0.096,0.154-0.207,0.146-0.314
	c0.008-0.108-0.033-0.222-0.145-0.315c-1.531-1.299-3.061-2.594-4.592-3.893c-0.283-0.242-0.752-0.101-0.752,0.313
	c0,0.544,0,1.089,0,1.634c-2.311,0-7.349,0-9.664,0c-0.24,0-0.439,0.202-0.439,0.444C7.409,10.91,7.409,12.117,7.409,13.328z"/>
</svg>
