<?xml version="1.0" encoding="UTF-8" standalone="no"?>
<svg width="41px" height="41px" viewBox="0 0 41 41" version="1.1" xmlns="http://www.w3.org/2000/svg" xmlns:xlink="http://www.w3.org/1999/xlink">
    <!-- Generator: Sketch 41 (35326) - http://www.bohemiancoding.com/sketch -->
    <title>Group</title>
    <desc>Created with Sketch.</desc>
    <defs></defs>
    <g id="Inner" stroke="none" stroke-width="1" fill="none" fill-rule="evenodd" stroke-linejoin="round">
        <g id="Balance-Transfer" transform="translate(-957.000000, -3828.000000)" stroke="#C2424F" stroke-width="2">
            <g id="Group-13" transform="translate(915.000000, 3752.000000)">
                <g id="Group" transform="translate(43.000000, 77.000000)">
                    <polygon id="Stroke-2856" points="11.5499922 34.9613421 0 38.3577708 3.39705653 26.8099134 23.7793957 6.43134144 31.9323314 14.5827702"></polygon>
                    <path d="M23.7793957,6.43134144 L29.3308655,0.880897735 C30.3880295,-0.176750147 32.1171313,-0.176750147 33.1742953,0.880897735 L37.4838012,5.18892784 C38.5409652,6.24657572 38.5409652,7.97467862 37.4838012,9.0323265 L31.9323314,14.5827702" id="Stroke-2857" stroke-linecap="round"></path>
                    <path d="M27.8558636,10.5070558 L9.51175829,28.8477706" id="Stroke-2858"></path>
                    <polyline id="Stroke-2859" points="3.39705653 26.8099134 4.75587914 28.8477706 9.51175829 28.8477706 9.51175829 33.6027707 11.5499922 34.9613421"></polyline>
                    <path d="M1.70844767,32.5937596 L5.8025802,36.6864562" id="Stroke-2860"></path>
                    <path d="M26.4970409,3.71419852 L34.6499766,11.8656273" id="Stroke-2861"></path>
                </g>
            </g>
        </g>
    </g>
</svg>