<?xml version="1.0" encoding="UTF-8" standalone="no"?>
<svg width="44px" height="38px" viewBox="0 0 44 38" version="1.1" xmlns="http://www.w3.org/2000/svg" xmlns:xlink="http://www.w3.org/1999/xlink">
    <!-- Generator: Sketch 41 (35326) - http://www.bohemiancoding.com/sketch -->
    <title>Stroke 9392 + Stroke 9393 + Stroke 9394</title>
    <desc>Created with Sketch.</desc>
    <defs></defs>
    <g id="Inner" stroke="none" stroke-width="1" fill="none" fill-rule="evenodd">
        <g id="Balance-Transfer" transform="translate(-953.000000, -4023.000000)" stroke="#C2424F" stroke-width="2">
            <g id="Group-13" transform="translate(915.000000, 3752.000000)">
                <g id="Stroke-9392-+-Stroke-9393-+-Stroke-9394" transform="translate(39.000000, 272.000000)">
                    <polygon id="Stroke-9392" stroke-linecap="round" stroke-linejoin="round" points="42 28.0497791 19.5517241 28.0497791 11.5862069 35.3415345 11.586931 28.0497791 0 28.0497791 0 0.341108321 42 0.341108321"></polygon>
                    <path d="M16.4345276,9.91576658 C16.4345276,6.86927115 18.8879069,4.39955358 21.912631,4.39955358 C24.9388034,4.39955358 27.3914586,6.86927115 27.3914586,9.91576658 C27.3914586,12.9629912 24.9388034,15.4319796 21.912631,15.4319796 L21.912631,17.2709603" id="Stroke-9393" stroke-linecap="round" stroke-linejoin="round"></path>
                    <path d="M23.0146966,21.8681205 C23.0146966,22.4798987 22.5215586,22.9771965 21.9132828,22.9771965 C21.3042828,22.9771965 20.8111448,22.4798987 20.8111448,21.8681205 C20.8111448,21.2548838 21.3042828,20.7583153 21.9132828,20.7583153 C22.5215586,20.7583153 23.0146966,21.2548838 23.0146966,21.8681205 L23.0146966,21.8681205 Z" id="Stroke-9394"></path>
                </g>
            </g>
        </g>
    </g>
</svg>
