<?xml version="1.0" encoding="utf-8"?>
<!-- Generator: Adobe Illustrator 16.0.0, SVG Export Plug-In . SVG Version: 6.00 Build 0)  -->
<!DOCTYPE svg PUBLIC "-//W3C//DTD SVG 1.1//EN" "http://www.w3.org/Graphics/SVG/1.1/DTD/svg11.dtd">
<svg version="1.1" id="Layer_1" xmlns="http://www.w3.org/2000/svg" xmlns:xlink="http://www.w3.org/1999/xlink" x="0px" y="0px"
	 width="47px" height="47px" viewBox="0 0 47 47" enable-background="new 0 0 47 47" xml:space="preserve">
<g>
	<path fill="#903434" stroke="#903434" stroke-width="5" d="M8.076,35.834"/>
	<path fill="#903434" stroke="#903434" stroke-width="5" d="M8.148,9.967"/>
	<radialGradient id="SVGID_1_" cx="29.1143" cy="16.3452" r="19.8701" gradientUnits="userSpaceOnUse">
		<stop  offset="0" style="stop-color:#FFFFFF"/>
		<stop  offset="0.036" style="stop-color:#F8FBF5"/>
		<stop  offset="0.2819" style="stop-color:#D9EBCA"/>
		<stop  offset="0.5098" style="stop-color:#C1DFA8"/>
		<stop  offset="0.7126" style="stop-color:#B0D792"/>
		<stop  offset="0.8829" style="stop-color:#A5D285"/>
		<stop  offset="1" style="stop-color:#A2D180"/>
	</radialGradient>
	<circle fill="url(#SVGID_1_)" cx="23.757" cy="22.814" r="20.485"/>
	<circle fill="none" stroke="#648339" stroke-width="5" cx="23.757" cy="23.188" r="20.485"/>
	<polygon fill="none" points="27.93,26.809 24.947,25.086 24.904,28.678 27.717,30.346 27.982,30.502 27.979,30.201 	"/>
	<path fill="#648339" d="M32.324,25.633v-0.199v-1.955v-0.307h-0.35l-0.094,0.057l-2.711,1.617l-2.947-1.674h-5.041l0.275,0.164
		l-3.348,1.422l-2.33-1.283l-0.418-0.23l-0.018,0.475l-0.049,1.354l-0.006,0.148l0.115,0.092l1.08,0.857l-1.172,0.535l-4.225-2.818
		l-0.424-0.283l-0.031,0.51l-0.102,1.705l-0.01,0.172l0.146,0.092l2.797,1.793l-3.486,1.967L9.73,29.982l0.133,0.252l0.803,1.506
		l0.137,0.252l0.256-0.131l3.51-1.801l0.174,3.012l0.01,0.178l0.164,0.072l1.453,0.65l0.418,0.188l-0.006-0.457l-0.049-5.08
		l0.859-0.43l0.109,1.178l0.016,0.166l0.148,0.07l1.455,0.703l0.42,0.203v-0.467V26.76l2.922-1.584v3.654l-2.465,1.518l-0.336,0.207
		l0.293,0.26l1.002,0.904l0.145,0.129l0.176-0.084l1.275-0.598l-0.033,1.16l-4.516,2.477l-0.477,0.264l0.48,0.252l1.705,0.902
		l0.143,0.076l0.143-0.082l2.566-1.498v3.65v0.283l0.283,0.01l1.402,0.051l0.299,0.012l0.004-0.301l0.047-3.939l2.336,1.189
		l0.082,0.041l0.092-0.012l2.057-0.301l0.871-0.129l-0.773-0.418l-4.564-2.477l-0.033-1.381l1.412,0.762l0.168,0.092l0.15-0.119
		l1.152-0.902l0.236-0.186v0.01l0.41-0.189l1.402-0.652l0.158-0.072l0.012-0.176l0.066-1.137l1.008,0.814l0.246,5.082l0.027,0.561
		l0.443-0.344l1.102-0.852l0.115-0.088v-0.145v-3.551l3.723,2.15l0.234,0.137l0.154-0.227l0.951-1.404l0.174-0.256l-0.266-0.16
		l-3.82-2.291l2.807-1.51l0.158-0.086l-0.006-0.18l-0.049-1.756l-0.014-0.475l-0.418,0.225l-4.525,2.436l-0.848-0.439l0.908-0.363
		L32.324,25.633z M27.717,30.346l-2.813-1.668l0.043-3.592l2.982,1.723l0.049,3.393l0.004,0.301L27.717,30.346z"/>
	<polyline fill="none" stroke="#648339" stroke-width="0.51" points="32.324,23.146 32.342,23.158 32.324,22.615 32.271,21.113 
		32.268,20.941 32.115,20.863 31.18,20.379 32.559,19.705 36.682,22.42 37.152,22.73 37.135,22.168 37.084,20.463 37.08,20.305 
		36.947,20.223 34.291,18.568 37.648,16.51 37.842,16.393 37.775,16.176 37.273,14.52 37.168,14.172 36.85,14.352 33.025,16.51 
		33.025,13.402 33.025,13.248 32.898,13.162 31.443,12.158 31,11.852 30.986,12.393 30.84,17.846 30.029,18.324 29.916,16.838 
		29.904,16.678 29.758,16.602 28.406,15.9 27.996,15.686 27.979,16.148 27.834,19.832 24.859,21.258 24.9,17.592 27.605,16.168 
		27.965,15.979 27.67,15.697 26.566,14.645 26.416,14.502 26.23,14.596 24.916,15.271 24.949,14.072 29.373,11.396 29.693,11.205 
		29.43,10.939 28.527,10.037 28.375,9.885 28.184,9.986 24.898,11.717 24.854,7.633 24.852,7.344 24.561,7.344 23.182,7.344 
		22.9,7.344 22.889,7.627 22.732,11.725 20.387,10.488 20.281,10.432 20.166,10.465 18.109,11.066 17.408,11.273 18.061,11.607 
		22.764,14.033 22.764,15.346 21.5,14.604 21.318,14.498 21.16,14.635 20.057,15.588 19.758,15.846 20.094,16.057 22.666,17.676 
		22.707,21.182 19.637,19.541 19.588,16.205 19.582,15.715 19.152,15.955 17.9,16.656 17.766,16.732 17.752,16.885 17.641,18.107 
		16.43,17.484 16.381,12.146 16.373,11.492 15.891,11.932 14.789,12.936 14.697,13.02 14.693,13.145 14.605,16.352 11.277,14.354 
		11.047,14.217 10.889,14.434 9.836,15.887 9.648,16.145 9.92,16.311 13.361,18.412 10.877,19.867 10.719,19.961 10.734,20.145 
		10.883,21.998 10.92,22.461 11.322,22.229 15.578,19.762 16.467,20.346 15.498,20.865 15.344,20.947 15.344,21.123 15.344,22.627 
		15.344,23.072 15.754,22.895 18.623,21.65 21.182,23.172 25.895,23.172 26.084,23.094 29.461,21.408 31.879,22.877 32.172,23.055 	
		"/>
</g>
<g>
	<g opacity="0.35">
		<path fill="#437136" d="M24.04,4.121L24.04,4.121l-0.001,18.16l15.023-11.82c0,0-0.124-0.123-0.125-0.125
			C34.7,5.92,30.3,4.121,24.04,4.121z"/>
	</g>
</g>
<path fill="none" stroke="#76A942" stroke-width="5" stroke-linecap="round" stroke-miterlimit="10" d="M24.35,2.849
	c5.484,0.122,10.313,2.388,13.824,5.898"/>
<radialGradient id="SVGID_2_" cx="39.3809" cy="10.4009" r="3.1013" gradientUnits="userSpaceOnUse">
	<stop  offset="0" style="stop-color:#90C95D"/>
	<stop  offset="0.4474" style="stop-color:#8EC45B"/>
	<stop  offset="0.6086" style="stop-color:#86BA56"/>
	<stop  offset="0.7234" style="stop-color:#7AAB50"/>
	<stop  offset="0.8164" style="stop-color:#6B9847"/>
	<stop  offset="0.8959" style="stop-color:#57813D"/>
	<stop  offset="0.965" style="stop-color:#416831"/>
	<stop  offset="1" style="stop-color:#345A2B"/>
</radialGradient>
<circle fill="url(#SVGID_2_)" stroke="#688340" stroke-width="1.2739" stroke-linecap="round" stroke-miterlimit="10" cx="39.381" cy="10.401" r="3.102"/>
</svg>
