<?xml version="1.0" encoding="utf-8"?>
<!-- Generator: Adobe Illustrator 16.0.0, SVG Export Plug-In . SVG Version: 6.00 Build 0)  -->
<!DOCTYPE svg PUBLIC "-//W3C//DTD SVG 1.1//EN" "http://www.w3.org/Graphics/SVG/1.1/DTD/svg11.dtd">
<svg version="1.1" id="Layer_1" xmlns="http://www.w3.org/2000/svg" xmlns:xlink="http://www.w3.org/1999/xlink" x="0px" y="0px"
	 width="69px" height="47px" viewBox="0 0 69 47" enable-background="new 0 0 69 47" xml:space="preserve">
<g>
	<path fill="#648339" stroke="#648339" stroke-width="2" stroke-linecap="round" stroke-linejoin="round" d="M25.194,15.319
		c-3.281,8.37-17.71,8.37-23.81,8.37c6.1,0,20.653,0,23.81,8.368"/>
	<path fill="#903434" stroke="#903434" stroke-width="5" d="M29.886,36.336"/>
	<path fill="#903434" stroke="#903434" stroke-width="5" d="M29.958,10.468"/>
	<radialGradient id="SVGID_1_" cx="50.9238" cy="16.8462" r="19.8701" gradientUnits="userSpaceOnUse">
		<stop  offset="0" style="stop-color:#FFFFFF"/>
		<stop  offset="0.036" style="stop-color:#F8FBF5"/>
		<stop  offset="0.2819" style="stop-color:#D9EBCA"/>
		<stop  offset="0.5098" style="stop-color:#C1DFA8"/>
		<stop  offset="0.7126" style="stop-color:#B0D792"/>
		<stop  offset="0.8829" style="stop-color:#A5D285"/>
		<stop  offset="1" style="stop-color:#A2D180"/>
	</radialGradient>
	<circle fill="url(#SVGID_1_)" cx="45.566" cy="23.316" r="20.486"/>
	<circle fill="none" stroke="#648339" stroke-width="5" cx="45.566" cy="23.689" r="20.486"/>
	<g>
		<polygon fill="none" points="49.74,27.31 46.756,25.587 46.715,29.179 49.527,30.848 49.793,31.004 49.789,30.702 		"/>
		<path fill="#648339" d="M54.133,26.134v-0.198V23.98v-0.307h-0.35l-0.094,0.056l-2.711,1.617l-2.947-1.673h-5.039l0.273,0.163
			L39.92,25.26l-2.332-1.284l-0.418-0.23l-0.016,0.476l-0.051,1.354l-0.006,0.147l0.117,0.093l1.078,0.856l-1.17,0.535l-4.227-2.817
			l-0.424-0.283l-0.031,0.51l-0.1,1.704l-0.01,0.172l0.145,0.093l2.799,1.792l-3.488,1.967l-0.248,0.141l0.135,0.253l0.803,1.505
			l0.135,0.253l0.258-0.131l3.508-1.801l0.176,3.011l0.01,0.178l0.162,0.072l1.455,0.65l0.416,0.188l-0.004-0.457l-0.049-5.081
			l0.857-0.43l0.111,1.178l0.014,0.166l0.148,0.071l1.455,0.702l0.42,0.203v-0.467v-3.286l2.924-1.585v3.654l-2.467,1.519
			l-0.334,0.206l0.291,0.261l1.004,0.903l0.145,0.13l0.176-0.084l1.273-0.599l-0.033,1.161l-4.514,2.477l-0.479,0.263l0.482,0.252
			l1.705,0.902l0.143,0.076l0.141-0.082l2.566-1.497v3.65v0.283l0.283,0.01l1.402,0.051l0.301,0.011l0.004-0.3l0.045-3.94
			l2.336,1.19l0.084,0.041l0.092-0.013l2.057-0.301l0.871-0.128l-0.775-0.419l-4.563-2.477l-0.033-1.381l1.41,0.763l0.168,0.091
			l0.15-0.118l1.154-0.903l0.234-0.185v0.01l0.41-0.19l1.404-0.651l0.158-0.073l0.01-0.176l0.066-1.136l1.01,0.813l0.244,5.083
			l0.027,0.56l0.443-0.343l1.104-0.852l0.115-0.089v-0.144v-3.552l3.721,2.15l0.236,0.138l0.152-0.228l0.953-1.403l0.172-0.256
			l-0.264-0.16l-3.82-2.291l2.807-1.51l0.156-0.086l-0.004-0.18l-0.051-1.756L58.83,24.35l-0.418,0.225l-4.525,2.435l-0.846-0.438
			l0.908-0.363L54.133,26.134z M49.527,30.848l-2.813-1.669l0.041-3.592l2.984,1.723l0.049,3.393l0.004,0.302L49.527,30.848z"/>
		<polyline fill="none" stroke="#648339" stroke-width="0.51" points="54.133,23.648 54.15,23.659 54.133,23.117 54.082,21.614 
			54.076,21.442 53.924,21.364 52.988,20.88 54.369,20.206 58.492,22.921 58.961,23.231 58.945,22.669 58.895,20.964 58.891,20.807 
			58.758,20.724 56.102,19.069 59.457,17.012 59.65,16.894 59.584,16.677 59.084,15.021 58.979,14.673 58.658,14.853 54.834,17.012 
			54.834,13.903 54.834,13.75 54.707,13.663 53.254,12.66 52.811,12.354 52.795,12.894 52.648,18.347 51.84,18.826 51.725,17.34 
			51.713,17.179 51.568,17.103 50.215,16.401 49.805,16.188 49.789,16.649 49.643,20.333 46.668,21.76 46.711,18.094 49.414,16.67 
			49.775,16.479 49.48,16.199 48.377,15.146 48.227,15.003 48.041,15.098 46.727,15.773 46.758,14.573 51.184,11.898 51.502,11.706 
			51.238,11.44 50.338,10.538 50.184,10.387 49.994,10.487 46.707,12.219 46.662,8.135 46.66,7.846 46.371,7.846 44.99,7.846 
			44.709,7.846 44.699,8.128 44.541,12.226 42.195,10.989 42.09,10.933 41.977,10.966 39.92,11.567 39.217,11.774 39.869,12.109 
			44.572,14.534 44.572,15.848 43.311,15.105 43.129,14.999 42.971,15.137 41.867,16.089 41.568,16.348 41.902,16.559 
			44.475,18.178 44.518,21.684 41.445,20.043 41.398,16.707 41.391,16.216 40.963,16.456 39.709,17.158 39.574,17.233 
			39.561,17.387 39.449,18.608 38.24,17.985 38.191,12.648 38.184,11.994 37.699,12.434 36.598,13.438 36.506,13.521 36.502,13.646 
			36.416,16.854 33.086,14.855 32.855,14.718 32.697,14.936 31.645,16.389 31.459,16.646 31.729,16.812 35.172,18.913 
			32.686,20.369 32.529,20.463 32.543,20.646 32.693,22.5 32.73,22.963 33.131,22.73 37.387,20.264 38.277,20.847 37.309,21.366 
			37.152,21.448 37.152,21.624 37.152,23.128 37.152,23.573 37.563,23.396 40.434,22.152 42.992,23.674 47.705,23.674 
			47.895,23.596 51.27,21.909 53.688,23.378 53.98,23.557 		"/>
	</g>
</g>
</svg>
