<?xml version="1.0" encoding="utf-8"?>
<!-- Generator: Adobe Illustrator 16.0.0, SVG Export Plug-In . SVG Version: 6.00 Build 0)  -->
<!DOCTYPE svg PUBLIC "-//W3C//DTD SVG 1.1//EN" "http://www.w3.org/Graphics/SVG/1.1/DTD/svg11.dtd">
<svg version="1.1" id="Layer_1" xmlns="http://www.w3.org/2000/svg" xmlns:xlink="http://www.w3.org/1999/xlink" x="0px" y="0px"
	 width="69px" height="47px" viewBox="0 0 69 47" enable-background="new 0 0 69 47" xml:space="preserve">
<radialGradient id="SVGID_1_" cx="51.2637" cy="16.7925" r="19.8701" gradientUnits="userSpaceOnUse">
	<stop  offset="0" style="stop-color:#FFFFFF"/>
	<stop  offset="0.0282" style="stop-color:#F9FCF7"/>
	<stop  offset="0.2761" style="stop-color:#DDEDCB"/>
	<stop  offset="0.5058" style="stop-color:#C7E1AA"/>
	<stop  offset="0.7103" style="stop-color:#B8DA93"/>
	<stop  offset="0.882" style="stop-color:#AED586"/>
	<stop  offset="1" style="stop-color:#ABD481"/>
</radialGradient>
<circle fill="url(#SVGID_1_)" cx="45.906" cy="23.264" r="20.486"/>
<g>
	<path fill="#648339" d="M49.947,31.487c0,0.079-0.052,0.183-0.115,0.229l-10.217,7.602c-0.063,0.047-0.115,0.021-0.115-0.058
		V17.228c0-0.079,0.052-0.183,0.115-0.23l10.217-7.604c0.063-0.047,0.115-0.021,0.115,0.058V31.487z"/>
	<path fill="none" stroke="#648339" stroke-width="1.4623" d="M49.947,31.487c0,0.079-0.052,0.183-0.115,0.229l-10.217,7.602
		c-0.063,0.047-0.115,0.021-0.115-0.058V17.228c0-0.079,0.052-0.183,0.115-0.23l10.217-7.604c0.063-0.047,0.115-0.021,0.115,0.058
		V31.487z"/>
</g>
<path fill="#80B04B" d="M35.598,27.078c-2.758,0-2.758-2.06-5.516-2.06c-1.672,0-2.182,0.607-2.916,1.169v4.953
	c0.775-0.429,1.684-0.803,2.912-0.803c1.625,0,3.514,2.06,5.523,2.06c1.026,0,2.086-0.685,3.158-1.265v-5.377
	C37.908,26.348,37.242,27.078,35.598,27.078z"/>
<path fill="#80B04B" d="M36.098,18.599c-2.758,0-2.758-2.06-5.516-2.06c-1.672,0-2.182,0.607-2.916,1.169v4.953
	c0.775-0.429,1.684-0.803,2.912-0.803c1.625,0,3.514,2.06,5.523,2.06c0.867,0,1.757-0.49,2.658-0.992V17.64
	C38.102,18.129,37.414,18.599,36.098,18.599z"/>
<path fill="#80B04B" d="M58.597,18.029c-2.651,0.406-3.315-2.018-6.079-2.018c-0.811,0-1.381,0.18-1.854,0.432v5.511
	c0.654-0.348,1.281-0.624,1.873-0.624c3.295,0,2.759,2.061,5.518,2.061c0.583,0,1.021-0.078,1.38-0.197v-5.352
	C59.182,17.916,58.911,17.98,58.597,18.029z"/>
<path fill="#80B04B" d="M47.001,18.07c-1.328,0-2.017-0.477-2.682-0.973v5.275c0.916,0.511,1.82,1.018,2.701,1.018
	c1.275,0,2.501-0.83,3.643-1.437v-5.511C49.524,17.047,48.949,18.07,47.001,18.07z"/>
<g>
	<path fill="#80B04B" d="M58.003,26.428c-2.651,0.406-3.315-2.018-6.079-2.018c-0.501,0-0.908,0.068-1.261,0.18v5.469
		c0.441-0.197,0.868-0.33,1.279-0.33c3.295,0,2.759,2.061,5.518,2.061c0.583,0,1.021-0.078,1.38-0.197V26.24
		C58.588,26.314,58.317,26.379,58.003,26.428z"/>
	<path fill="#80B04B" d="M46.407,26.469c-1.005,0-1.642-0.273-2.182-0.621v5.198c0.745,0.401,1.481,0.743,2.201,0.743
		c1.499,0,2.931-1.15,4.236-1.73V24.59C49.076,25.092,48.665,26.469,46.407,26.469z"/>
</g>
<path fill="#648339" stroke="#648339" stroke-width="2" stroke-linecap="round" stroke-linejoin="round" d="M25.534,15.266
	c-3.281,8.371-17.71,8.371-23.81,8.371c6.1,0,20.653,0,23.81,8.367"/>
<path fill="#903434" stroke="#903434" stroke-width="5" d="M30.01,36.642"/>
<path fill="#903434" stroke="#903434" stroke-width="5" d="M30.082,10.773"/>
<circle fill="none" stroke="#648339" stroke-width="5" cx="45.906" cy="23.637" r="20.486"/>
<polygon fill="#80B04B" points="64.789,29.186 57.682,33.199 57.758,25.038 "/>
<polygon fill="#80B04B" points="66.44,20.731 59.334,24.746 59.408,16.584 "/>
</svg>
