<?xml version="1.0" encoding="utf-8"?>
<!-- Generator: Adobe Illustrator 16.0.0, SVG Export Plug-In . SVG Version: 6.00 Build 0)  -->
<!DOCTYPE svg PUBLIC "-//W3C//DTD SVG 1.1//EN" "http://www.w3.org/Graphics/SVG/1.1/DTD/svg11.dtd">
<svg version="1.1" id="Layer_1" xmlns="http://www.w3.org/2000/svg" xmlns:xlink="http://www.w3.org/1999/xlink" x="0px" y="0px"
	 width="24px" height="32px" viewBox="0 0 24 32" enable-background="new 0 0 24 32" xml:space="preserve">
<g>
	<polyline fill-rule="evenodd" clip-rule="evenodd" fill="#CFBF30" points="5.375,17.99 18.621,17.99 18.621,20.11 20.91,20.11 
		20.91,26.471 18.621,26.471 18.621,28.428 5.375,28.428 5.375,26.471 3.084,26.471 3.084,20.11 5.375,20.11 	"/>
	
		<line fill="none" stroke="#231F20" stroke-width="0.2733" stroke-linecap="round" stroke-miterlimit="2.818" x1="18.626" y1="28.431" x2="5.38" y2="28.431"/>
	
		<line fill="none" stroke="#231F20" stroke-width="0.2733" stroke-linecap="round" stroke-miterlimit="2.818" x1="6.695" y1="16.656" x2="17.313" y2="16.656"/>
	
		<line fill="none" stroke="#231F20" stroke-width="0.2733" stroke-linecap="round" stroke-miterlimit="2.818" x1="5.38" y1="28.431" x2="5.38" y2="26.477"/>
	
		<line fill="none" stroke="#231F20" stroke-width="0.2733" stroke-linecap="round" stroke-miterlimit="2.818" x1="18.626" y1="28.431" x2="5.38" y2="28.431"/>
	
		<line fill="none" stroke="#231F20" stroke-width="0.2733" stroke-linecap="round" stroke-miterlimit="2.818" x1="18.626" y1="26.477" x2="18.626" y2="28.431"/>
	
		<line fill="none" stroke="#231F20" stroke-width="0.2733" stroke-linecap="round" stroke-miterlimit="2.818" x1="18.626" y1="17.995" x2="18.626" y2="20.115"/>
	
		<line fill="none" stroke="#231F20" stroke-width="0.2733" stroke-linecap="round" stroke-miterlimit="2.818" x1="5.38" y1="17.995" x2="18.626" y2="17.995"/>
	
		<line fill="none" stroke="#231F20" stroke-width="0.2733" stroke-linecap="round" stroke-miterlimit="2.818" x1="5.38" y1="20.113" x2="5.38" y2="17.993"/>
	<polygon fill="none" stroke="#231F20" stroke-width="0.5466" stroke-linecap="round" stroke-miterlimit="2.818" points="
		5.38,17.995 18.626,17.995 18.626,20.115 20.917,20.115 20.917,26.477 18.626,26.477 18.626,28.433 5.38,28.433 5.38,26.477 
		3.088,26.477 3.088,20.115 5.38,20.115 	"/>
	<rect x="5.374" y="28.425" fill="#CFBF30" width="13.246" height="0.37"/>
	
		<rect x="5.38" y="28.431" fill="none" stroke="#231F20" stroke-width="0.2733" stroke-linecap="round" stroke-miterlimit="2.818" width="13.246" height="0.368"/>
	<rect x="10.496" y="15.805" fill="#CFBF30" width="3.005" height="0.845"/>
	
		<line fill="none" stroke="#231F20" stroke-width="0.2733" stroke-linecap="round" stroke-miterlimit="2.818" x1="5.38" y1="17.995" x2="18.626" y2="17.995"/>
	
		<line fill="none" stroke="#231F20" stroke-width="0.2733" stroke-linecap="round" stroke-miterlimit="2.818" x1="18.626" y1="17.995" x2="17.312" y2="16.656"/>
	
		<line fill="none" stroke="#231F20" stroke-width="0.2733" stroke-linecap="round" stroke-miterlimit="2.818" x1="5.38" y1="17.995" x2="6.695" y2="16.656"/>
	
		<rect x="10.5" y="15.813" fill="none" stroke="#231F20" stroke-width="0.2733" stroke-linecap="round" stroke-miterlimit="2.818" width="3.006" height="0.843"/>
	<polyline fill-rule="evenodd" clip-rule="evenodd" fill="#CFBF30" points="6.688,16.653 17.306,16.653 18.619,17.992 5.374,17.992 
			"/>
	
		<line fill="none" stroke="#231F20" stroke-width="0.2733" stroke-linecap="round" stroke-miterlimit="2.818" x1="0.006" y1="8.158" x2="24" y2="8.158"/>
	
		<line fill="none" stroke="#231F20" stroke-width="0.2733" stroke-linecap="round" stroke-miterlimit="2.818" x1="0.651" y1="0.503" x2="23.354" y2="0.503"/>
	
		<line fill="none" stroke="#231F20" stroke-width="0.2733" stroke-linecap="round" stroke-miterlimit="2.818" x1="0.006" y1="8.158" x2="0.651" y2="0.503"/>
	
		<line fill="none" stroke="#231F20" stroke-width="0.2733" stroke-linecap="round" stroke-miterlimit="2.818" x1="24" y1="8.158" x2="23.355" y2="0.503"/>
	
		<line fill="none" stroke="#231F20" stroke-width="0.2733" stroke-linecap="round" stroke-miterlimit="2.818" x1="23.355" y1="15.813" x2="24" y2="8.159"/>
	
		<line fill="none" stroke="#231F20" stroke-width="0.2733" stroke-linecap="round" stroke-miterlimit="2.818" x1="0.651" y1="15.813" x2="0.006" y2="8.159"/>
	
		<line fill="none" stroke="#231F20" stroke-width="0.2733" stroke-linecap="round" stroke-miterlimit="2.818" x1="0.651" y1="15.813" x2="23.354" y2="15.813"/>
	
		<polygon fill="none" stroke="#231F20" stroke-width="0.5466" stroke-linecap="round" stroke-linejoin="round" stroke-miterlimit="2.818" points="
		6.695,16.656 17.313,16.656 18.626,17.995 5.38,17.995 	"/>
	<polyline fill-rule="evenodd" clip-rule="evenodd" fill="#696A6A" points="0,8.155 23.993,8.155 23.351,15.808 0.645,15.808 	"/>
	<polygon fill="none" stroke="#231F20" stroke-width="0.2733" stroke-linecap="round" stroke-miterlimit="2.818" points="
		0.006,8.158 24,8.158 23.355,15.813 0.651,15.813 	"/>
	<polyline fill-rule="evenodd" clip-rule="evenodd" fill="#D5D6D4" points="23.993,8.155 0,8.155 0.645,0.5 23.351,0.5 	"/>
	<polygon fill="none" stroke="#231F20" stroke-width="0.2733" stroke-linecap="round" stroke-miterlimit="2.818" points="24,8.158 
		0.006,8.158 0.651,0.503 23.355,0.503 	"/>
	
		<line fill="none" stroke="#231F20" stroke-width="0.2733" stroke-linecap="round" stroke-miterlimit="2.818" x1="20.917" y1="21.072" x2="20.917" y2="25.657"/>
	<path fill="none" stroke="#231F20" stroke-width="0.2733" stroke-linecap="round" stroke-miterlimit="2.818" d="M18.626,20.113
		c-1.725,1.494-1.934,4.134-0.467,5.89c0.144,0.171,0.3,0.328,0.467,0.474"/>
	
		<line fill="none" stroke="#231F20" stroke-width="0.2733" stroke-linecap="round" stroke-miterlimit="2.818" x1="21.794" y1="26.477" x2="18.627" y2="26.477"/>
	
		<line fill="none" stroke="#231F20" stroke-width="0.2733" stroke-linecap="round" stroke-miterlimit="2.818" x1="18.626" y1="20.113" x2="21.792" y2="20.113"/>
	
		<polyline fill-rule="evenodd" clip-rule="evenodd" fill="#CFBF30" stroke="#231F20" stroke-width="0.5466" stroke-miterlimit="2.818" points="
		23.528,20.11 23.528,26.611 23.104,27.309 21.337,27.309 20.91,26.611 20.91,20.11 21.337,19.41 23.104,19.41 	"/>
	
		<line fill="none" stroke="#231F20" stroke-width="0.2733" stroke-linecap="round" stroke-miterlimit="2.818" x1="14.45" y1="28.799" x2="9.559" y2="28.799"/>
	
		<line fill="none" stroke="#231F20" stroke-width="0.2733" stroke-linecap="round" stroke-miterlimit="2.818" x1="23.535" y1="20.429" x2="23.005" y2="21.559"/>
	
		<line fill="none" stroke="#231F20" stroke-width="0.2733" stroke-linecap="round" stroke-miterlimit="2.818" x1="23.535" y1="22.688" x2="23.005" y2="21.559"/>
	
		<line fill="none" stroke="#231F20" stroke-width="0.2733" stroke-linecap="round" stroke-miterlimit="2.818" x1="23.535" y1="24.039" x2="23.005" y2="25.17"/>
	
		<line fill="none" stroke="#231F20" stroke-width="0.2733" stroke-linecap="round" stroke-miterlimit="2.818" x1="23.535" y1="26.296" x2="23.005" y2="25.17"/>
	
		<line fill="none" stroke="#231F20" stroke-width="0.2733" stroke-linecap="round" stroke-miterlimit="2.818" x1="23.535" y1="20.429" x2="23.005" y2="21.559"/>
	
		<line fill="none" stroke="#231F20" stroke-width="0.2733" stroke-linecap="round" stroke-miterlimit="2.818" x1="23.535" y1="22.688" x2="23.005" y2="21.559"/>
	
		<line fill="none" stroke="#231F20" stroke-width="0.2733" stroke-linecap="round" stroke-miterlimit="2.818" x1="23.535" y1="24.039" x2="23.005" y2="25.17"/>
	
		<line fill="none" stroke="#231F20" stroke-width="0.2733" stroke-linecap="round" stroke-miterlimit="2.818" x1="23.535" y1="26.296" x2="23.005" y2="25.17"/>
	
		<line fill="none" stroke="#231F20" stroke-width="0.2733" stroke-linecap="round" stroke-miterlimit="2.818" x1="23.535" y1="20.113" x2="23.535" y2="26.614"/>
	
		<line fill="none" stroke="#231F20" stroke-width="0.2733" stroke-linecap="round" stroke-miterlimit="2.818" x1="23.109" y1="19.415" x2="23.535" y2="20.115"/>
	
		<line fill="none" stroke="#231F20" stroke-width="0.2733" stroke-linecap="round" stroke-miterlimit="2.818" x1="23.535" y1="26.614" x2="23.109" y2="27.312"/>
	
		<line fill="none" stroke="#231F20" stroke-width="0.2733" stroke-linecap="round" stroke-miterlimit="2.818" x1="20.917" y1="20.429" x2="21.445" y2="21.559"/>
	
		<line fill="none" stroke="#231F20" stroke-width="0.2733" stroke-linecap="round" stroke-miterlimit="2.818" x1="20.917" y1="22.688" x2="21.445" y2="21.559"/>
	
		<line fill="none" stroke="#231F20" stroke-width="0.2733" stroke-linecap="round" stroke-miterlimit="2.818" x1="20.917" y1="24.039" x2="21.445" y2="25.17"/>
	
		<line fill="none" stroke="#231F20" stroke-width="0.2733" stroke-linecap="round" stroke-miterlimit="2.818" x1="20.917" y1="26.296" x2="21.445" y2="25.17"/>
	
		<line fill="none" stroke="#231F20" stroke-width="0.2733" stroke-linecap="round" stroke-miterlimit="2.818" x1="20.917" y1="20.429" x2="21.445" y2="21.559"/>
	
		<line fill="none" stroke="#231F20" stroke-width="0.2733" stroke-linecap="round" stroke-miterlimit="2.818" x1="20.917" y1="22.688" x2="21.445" y2="21.559"/>
	
		<line fill="none" stroke="#231F20" stroke-width="0.2733" stroke-linecap="round" stroke-miterlimit="2.818" x1="20.917" y1="24.039" x2="21.445" y2="25.17"/>
	
		<line fill="none" stroke="#231F20" stroke-width="0.2733" stroke-linecap="round" stroke-miterlimit="2.818" x1="20.917" y1="26.296" x2="21.445" y2="25.17"/>
	
		<line fill="none" stroke="#231F20" stroke-width="0.2733" stroke-linecap="round" stroke-miterlimit="2.818" x1="20.917" y1="20.113" x2="20.917" y2="26.614"/>
	
		<line fill="none" stroke="#231F20" stroke-width="0.2733" stroke-linecap="round" stroke-miterlimit="2.818" x1="21.344" y1="19.415" x2="20.918" y2="20.115"/>
	
		<line fill="none" stroke="#231F20" stroke-width="0.2733" stroke-linecap="round" stroke-miterlimit="2.818" x1="20.917" y1="26.614" x2="21.342" y2="27.312"/>
	
		<line fill="none" stroke="#231F20" stroke-width="0.2733" stroke-linecap="round" stroke-miterlimit="2.818" x1="23.005" y1="21.559" x2="21.448" y2="21.559"/>
	
		<line fill="none" stroke="#231F20" stroke-width="0.2733" stroke-linecap="round" stroke-miterlimit="2.818" x1="23.005" y1="25.17" x2="21.448" y2="25.17"/>
	
		<line fill="none" stroke="#231F20" stroke-width="0.2733" stroke-linecap="round" stroke-miterlimit="2.818" x1="23.109" y1="19.415" x2="21.344" y2="19.415"/>
	
		<line fill="none" stroke="#231F20" stroke-width="0.2733" stroke-linecap="round" stroke-miterlimit="2.818" x1="21.344" y1="27.312" x2="23.109" y2="27.312"/>
	<polygon fill="none" stroke="#231F20" stroke-width="0.2733" stroke-linecap="round" stroke-miterlimit="2.818" points="
		23.535,20.113 23.535,26.614 23.109,27.312 21.344,27.312 20.918,26.614 20.918,20.113 21.344,19.412 23.109,19.412 	"/>
	<polyline fill-rule="evenodd" clip-rule="evenodd" fill="#CFBF30" points="15.463,31.495 8.531,31.495 7.782,31.057 7.782,29.234 
		8.531,28.795 15.463,28.795 16.208,29.234 16.208,31.057 	"/>
	
		<line fill="none" stroke="#231F20" stroke-width="0.2733" stroke-linecap="round" stroke-miterlimit="2.818" x1="3.088" y1="21.072" x2="3.088" y2="25.657"/>
	<path fill="none" stroke="#231F20" stroke-width="0.2733" stroke-linecap="round" stroke-miterlimit="2.818" d="M5.38,20.113
		c1.723,1.494,1.933,4.134,0.465,5.89c-0.142,0.171-0.296,0.328-0.465,0.474"/>
	
		<line fill="none" stroke="#231F20" stroke-width="0.2733" stroke-linecap="round" stroke-miterlimit="2.818" x1="2.213" y1="26.477" x2="5.38" y2="26.477"/>
	
		<line fill="none" stroke="#231F20" stroke-width="0.2733" stroke-linecap="round" stroke-miterlimit="2.818" x1="5.38" y1="20.113" x2="2.213" y2="20.113"/>
	
		<line fill="none" stroke="#231F20" stroke-width="0.2733" stroke-linecap="round" stroke-miterlimit="2.818" x1="15.133" y1="31.5" x2="13.929" y2="30.954"/>
	
		<line fill="none" stroke="#231F20" stroke-width="0.2733" stroke-linecap="round" stroke-miterlimit="2.818" x1="12.726" y1="31.5" x2="13.929" y2="30.954"/>
	
		<line fill="none" stroke="#231F20" stroke-width="0.2733" stroke-linecap="round" stroke-miterlimit="2.818" x1="11.282" y1="31.5" x2="10.077" y2="30.954"/>
	
		<line fill="none" stroke="#231F20" stroke-width="0.2733" stroke-linecap="round" stroke-miterlimit="2.818" x1="8.873" y1="31.5" x2="10.077" y2="30.954"/>
	
		<line fill="none" stroke="#231F20" stroke-width="0.2733" stroke-linecap="round" stroke-miterlimit="2.818" x1="15.133" y1="31.5" x2="13.929" y2="30.954"/>
	
		<line fill="none" stroke="#231F20" stroke-width="0.2733" stroke-linecap="round" stroke-miterlimit="2.818" x1="12.726" y1="31.5" x2="13.929" y2="30.954"/>
	
		<line fill="none" stroke="#231F20" stroke-width="0.2733" stroke-linecap="round" stroke-miterlimit="2.818" x1="11.282" y1="31.5" x2="10.077" y2="30.954"/>
	
		<line fill="none" stroke="#231F20" stroke-width="0.2733" stroke-linecap="round" stroke-miterlimit="2.818" x1="8.873" y1="31.5" x2="10.077" y2="30.954"/>
	
		<line fill="none" stroke="#231F20" stroke-width="0.2733" stroke-linecap="round" stroke-miterlimit="2.818" x1="15.472" y1="31.5" x2="8.537" y2="31.5"/>
	
		<line fill="none" stroke="#231F20" stroke-width="0.2733" stroke-linecap="round" stroke-miterlimit="2.818" x1="16.219" y1="31.06" x2="15.472" y2="31.499"/>
	
		<line fill="none" stroke="#231F20" stroke-width="0.2733" stroke-linecap="round" stroke-miterlimit="2.818" x1="8.537" y1="31.5" x2="7.789" y2="31.063"/>
	
		<line fill="none" stroke="#231F20" stroke-width="0.2733" stroke-linecap="round" stroke-miterlimit="2.818" x1="15.133" y1="28.799" x2="13.929" y2="29.346"/>
	
		<line fill="none" stroke="#231F20" stroke-width="0.2733" stroke-linecap="round" stroke-miterlimit="2.818" x1="12.726" y1="28.799" x2="13.929" y2="29.346"/>
	
		<line fill="none" stroke="#231F20" stroke-width="0.2733" stroke-linecap="round" stroke-miterlimit="2.818" x1="11.282" y1="28.799" x2="10.077" y2="29.346"/>
	
		<line fill="none" stroke="#231F20" stroke-width="0.2733" stroke-linecap="round" stroke-miterlimit="2.818" x1="8.873" y1="28.799" x2="10.077" y2="29.346"/>
	
		<line fill="none" stroke="#231F20" stroke-width="0.2733" stroke-linecap="round" stroke-miterlimit="2.818" x1="15.133" y1="28.799" x2="13.929" y2="29.346"/>
	
		<line fill="none" stroke="#231F20" stroke-width="0.2733" stroke-linecap="round" stroke-miterlimit="2.818" x1="12.726" y1="28.799" x2="13.929" y2="29.346"/>
	
		<line fill="none" stroke="#231F20" stroke-width="0.2733" stroke-linecap="round" stroke-miterlimit="2.818" x1="11.282" y1="28.799" x2="10.077" y2="29.346"/>
	
		<line fill="none" stroke="#231F20" stroke-width="0.2733" stroke-linecap="round" stroke-miterlimit="2.818" x1="8.873" y1="28.799" x2="10.077" y2="29.346"/>
	
		<line fill="none" stroke="#231F20" stroke-width="0.2733" stroke-linecap="round" stroke-miterlimit="2.818" x1="15.472" y1="28.799" x2="8.537" y2="28.799"/>
	
		<line fill="none" stroke="#231F20" stroke-width="0.2733" stroke-linecap="round" stroke-miterlimit="2.818" x1="16.219" y1="29.236" x2="15.472" y2="28.799"/>
	
		<line fill="none" stroke="#231F20" stroke-width="0.2733" stroke-linecap="round" stroke-miterlimit="2.818" x1="8.537" y1="28.799" x2="7.789" y2="29.236"/>
	
		<line fill="none" stroke="#231F20" stroke-width="0.2733" stroke-linecap="round" stroke-miterlimit="2.818" x1="13.929" y1="30.954" x2="13.929" y2="29.346"/>
	
		<line fill="none" stroke="#231F20" stroke-width="0.2733" stroke-linecap="round" stroke-miterlimit="2.818" x1="10.077" y1="30.954" x2="10.077" y2="29.346"/>
	
		<line fill="none" stroke="#231F20" stroke-width="0.2733" stroke-linecap="round" stroke-miterlimit="2.818" x1="16.219" y1="31.06" x2="16.219" y2="29.236"/>
	
		<line fill="none" stroke="#231F20" stroke-width="0.2733" stroke-linecap="round" stroke-miterlimit="2.818" x1="7.789" y1="29.236" x2="7.789" y2="31.06"/>
	<polygon fill="none" stroke="#231F20" stroke-width="0.5466" stroke-linecap="round" stroke-miterlimit="2.818" points="
		15.472,31.5 8.537,31.5 7.792,31.063 7.792,29.24 8.537,28.799 15.472,28.799 16.219,29.24 16.219,31.063 	"/>
	<polyline fill-rule="evenodd" clip-rule="evenodd" fill="#CFBF30" points="0.465,20.11 0.465,26.611 0.89,27.309 2.656,27.309 
		3.083,26.611 3.083,20.11 2.656,19.41 0.89,19.41 	"/>
	
		<line fill="none" stroke="#231F20" stroke-width="0.2733" stroke-linecap="round" stroke-miterlimit="2.818" x1="0.472" y1="20.429" x2="1.002" y2="21.559"/>
	
		<line fill="none" stroke="#231F20" stroke-width="0.2733" stroke-linecap="round" stroke-miterlimit="2.818" x1="0.472" y1="22.688" x2="1.002" y2="21.559"/>
	
		<line fill="none" stroke="#231F20" stroke-width="0.2733" stroke-linecap="round" stroke-miterlimit="2.818" x1="0.472" y1="24.039" x2="1.002" y2="25.17"/>
	
		<line fill="none" stroke="#231F20" stroke-width="0.2733" stroke-linecap="round" stroke-miterlimit="2.818" x1="0.472" y1="26.296" x2="1.002" y2="25.17"/>
	
		<line fill="none" stroke="#231F20" stroke-width="0.2733" stroke-linecap="round" stroke-miterlimit="2.818" x1="0.472" y1="20.429" x2="1.002" y2="21.559"/>
	
		<line fill="none" stroke="#231F20" stroke-width="0.2733" stroke-linecap="round" stroke-miterlimit="2.818" x1="0.472" y1="22.688" x2="1.002" y2="21.559"/>
	
		<line fill="none" stroke="#231F20" stroke-width="0.2733" stroke-linecap="round" stroke-miterlimit="2.818" x1="0.472" y1="24.039" x2="1.002" y2="25.17"/>
	
		<line fill="none" stroke="#231F20" stroke-width="0.2733" stroke-linecap="round" stroke-miterlimit="2.818" x1="0.472" y1="26.296" x2="1.002" y2="25.17"/>
	
		<line fill="none" stroke="#231F20" stroke-width="0.2733" stroke-linecap="round" stroke-miterlimit="2.818" x1="0.472" y1="20.113" x2="0.472" y2="26.614"/>
	
		<line fill="none" stroke="#231F20" stroke-width="0.2733" stroke-linecap="round" stroke-miterlimit="2.818" x1="0.897" y1="19.415" x2="0.472" y2="20.115"/>
	
		<line fill="none" stroke="#231F20" stroke-width="0.2733" stroke-linecap="round" stroke-miterlimit="2.818" x1="0.472" y1="26.614" x2="0.897" y2="27.312"/>
	
		<line fill="none" stroke="#231F20" stroke-width="0.2733" stroke-linecap="round" stroke-miterlimit="2.818" x1="3.088" y1="20.429" x2="2.56" y2="21.559"/>
	
		<line fill="none" stroke="#231F20" stroke-width="0.2733" stroke-linecap="round" stroke-miterlimit="2.818" x1="3.088" y1="22.688" x2="2.56" y2="21.559"/>
	
		<line fill="none" stroke="#231F20" stroke-width="0.2733" stroke-linecap="round" stroke-miterlimit="2.818" x1="3.088" y1="24.039" x2="2.56" y2="25.17"/>
	
		<line fill="none" stroke="#231F20" stroke-width="0.2733" stroke-linecap="round" stroke-miterlimit="2.818" x1="3.088" y1="26.296" x2="2.56" y2="25.17"/>
	
		<line fill="none" stroke="#231F20" stroke-width="0.2733" stroke-linecap="round" stroke-miterlimit="2.818" x1="3.088" y1="20.429" x2="2.56" y2="21.559"/>
	
		<line fill="none" stroke="#231F20" stroke-width="0.2733" stroke-linecap="round" stroke-miterlimit="2.818" x1="3.088" y1="22.688" x2="2.56" y2="21.559"/>
	
		<line fill="none" stroke="#231F20" stroke-width="0.2733" stroke-linecap="round" stroke-miterlimit="2.818" x1="3.088" y1="24.039" x2="2.56" y2="25.17"/>
	
		<line fill="none" stroke="#231F20" stroke-width="0.2733" stroke-linecap="round" stroke-miterlimit="2.818" x1="3.088" y1="26.296" x2="2.56" y2="25.17"/>
	
		<line fill="none" stroke="#231F20" stroke-width="0.2733" stroke-linecap="round" stroke-miterlimit="2.818" x1="3.088" y1="20.113" x2="3.088" y2="26.614"/>
	
		<line fill="none" stroke="#231F20" stroke-width="0.2733" stroke-linecap="round" stroke-miterlimit="2.818" x1="2.662" y1="19.415" x2="3.088" y2="20.115"/>
	
		<line fill="none" stroke="#231F20" stroke-width="0.2733" stroke-linecap="round" stroke-miterlimit="2.818" x1="3.088" y1="26.614" x2="2.662" y2="27.312"/>
	
		<line fill="none" stroke="#231F20" stroke-width="0.2733" stroke-linecap="round" stroke-miterlimit="2.818" x1="1.002" y1="21.559" x2="2.56" y2="21.559"/>
	
		<line fill="none" stroke="#231F20" stroke-width="0.2733" stroke-linecap="round" stroke-miterlimit="2.818" x1="1.002" y1="25.17" x2="2.56" y2="25.17"/>
	
		<line fill="none" stroke="#231F20" stroke-width="0.2733" stroke-linecap="round" stroke-miterlimit="2.818" x1="0.897" y1="19.415" x2="2.662" y2="19.415"/>
	
		<line fill="none" stroke="#231F20" stroke-width="0.2733" stroke-linecap="round" stroke-miterlimit="2.818" x1="2.662" y1="27.312" x2="0.897" y2="27.312"/>
	<polygon fill="none" stroke="#231F20" stroke-width="0.5466" stroke-linecap="round" stroke-miterlimit="2.818" points="
		0.472,20.113 0.472,26.614 0.897,27.312 2.662,27.312 3.088,26.614 3.088,20.113 2.662,19.412 0.897,19.412 	"/>
</g>
</svg>
