<?xml version="1.0" encoding="utf-8"?>
<!-- Generator: Adobe Illustrator 16.0.0, SVG Export Plug-In . SVG Version: 6.00 Build 0)  -->
<!DOCTYPE svg PUBLIC "-//W3C//DTD SVG 1.1//EN" "http://www.w3.org/Graphics/SVG/1.1/DTD/svg11.dtd">
<svg version="1.1" id="Layer_1" xmlns="http://www.w3.org/2000/svg" xmlns:xlink="http://www.w3.org/1999/xlink" x="0px" y="0px"
	 width="72px" height="14px" viewBox="0 0 72 14" enable-background="new 0 0 72 14" xml:space="preserve">
<g>
	<rect x="1" y="5.444" fill="#FFFFFF" stroke="#231F20" stroke-width="1.2406" width="70" height="2.722"/>
	<g>
		<path fill="none" stroke="#D0682D" stroke-width="1.145" stroke-linecap="round" d="M64.235,1.312
			c0,1.821-2.023,1.821-2.023,3.642c0,1.824,2.023,1.824,2.023,3.647c0,1.824-2.023,1.824-2.023,3.648"/>
	</g>
	<g>
		<path fill="none" stroke="#D0682D" stroke-width="1.145" stroke-linecap="round" d="M60.917,1.312
			c0,1.821-2.023,1.821-2.023,3.642c0,1.824,2.023,1.824,2.023,3.647c0,1.824-2.023,1.824-2.023,3.648"/>
	</g>
	<g>
		<path fill="none" stroke="#D0682D" stroke-width="1.145" stroke-linecap="round" d="M57.601,1.312
			c0,1.821-2.023,1.821-2.023,3.642c0,1.824,2.023,1.824,2.023,3.647c0,1.824-2.023,1.824-2.023,3.648"/>
	</g>
	<g>
		<path fill="none" stroke="#D0682D" stroke-width="1.145" stroke-linecap="round" d="M54.282,1.312
			c0,1.821-2.023,1.821-2.023,3.642c0,1.824,2.023,1.824,2.023,3.647c0,1.824-2.023,1.824-2.023,3.648"/>
	</g>
	<g>
		<path fill="none" stroke="#D0682D" stroke-width="1.145" stroke-linecap="round" d="M50.966,1.312
			c0,1.821-2.023,1.821-2.023,3.642c0,1.824,2.023,1.824,2.023,3.647c0,1.824-2.023,1.824-2.023,3.648"/>
	</g>
	<g>
		<path fill="none" stroke="#D0682D" stroke-width="1.145" stroke-linecap="round" d="M47.647,1.312
			c0,1.821-2.023,1.821-2.023,3.642c0,1.824,2.023,1.824,2.023,3.647c0,1.824-2.023,1.824-2.023,3.648"/>
	</g>
	<g>
		<path fill="none" stroke="#D0682D" stroke-width="1.145" stroke-linecap="round" d="M44.331,1.312
			c0,1.821-2.023,1.821-2.023,3.642c0,1.824,2.023,1.824,2.023,3.647c0,1.824-2.023,1.824-2.023,3.648"/>
	</g>
	<g>
		<path fill="none" stroke="#D0682D" stroke-width="1.145" stroke-linecap="round" d="M41.014,1.312
			c0,1.821-2.023,1.821-2.023,3.642c0,1.824,2.023,1.824,2.023,3.647c0,1.824-2.023,1.824-2.023,3.648"/>
	</g>
	<g>
		<path fill="none" stroke="#D0682D" stroke-width="1.145" stroke-linecap="round" d="M37.695,1.312
			c0,1.821-2.024,1.821-2.024,3.642c0,1.824,2.024,1.824,2.024,3.647c0,1.824-2.024,1.824-2.024,3.648"/>
	</g>
	<g>
		<path fill="none" stroke="#D0682D" stroke-width="1.145" stroke-linecap="round" d="M34.379,1.312
			c0,1.821-2.024,1.821-2.024,3.642c0,1.824,2.024,1.824,2.024,3.647c0,1.824-2.024,1.824-2.024,3.648"/>
	</g>
	<g>
		<path fill="none" stroke="#D0682D" stroke-width="1.145" stroke-linecap="round" d="M31.061,1.312
			c0,1.821-2.024,1.821-2.024,3.642c0,1.824,2.024,1.824,2.024,3.647c0,1.824-2.024,1.824-2.024,3.648"/>
	</g>
	<g>
		<path fill="none" stroke="#D0682D" stroke-width="1.145" stroke-linecap="round" d="M27.745,1.312
			c0,1.821-2.024,1.821-2.024,3.642c0,1.824,2.024,1.824,2.024,3.647c0,1.824-2.024,1.824-2.024,3.648"/>
	</g>
	<g>
		<path fill="none" stroke="#D0682D" stroke-width="1.145" stroke-linecap="round" d="M24.426,1.312
			c0,1.821-2.024,1.821-2.024,3.642c0,1.824,2.024,1.824,2.024,3.647c0,1.824-2.024,1.824-2.024,3.648"/>
	</g>
	<g>
		<path fill="none" stroke="#D0682D" stroke-width="1.145" stroke-linecap="round" d="M21.11,1.312c0,1.821-2.024,1.821-2.024,3.642
			c0,1.824,2.024,1.824,2.024,3.647c0,1.824-2.024,1.824-2.024,3.648"/>
	</g>
	<g>
		<path fill="none" stroke="#D0682D" stroke-width="1.145" stroke-linecap="round" d="M17.792,1.312
			c0,1.821-2.024,1.821-2.024,3.642c0,1.824,2.024,1.824,2.024,3.647c0,1.824-2.024,1.824-2.024,3.648"/>
	</g>
	<g>
		<path fill="none" stroke="#D0682D" stroke-width="1.145" stroke-linecap="round" d="M14.475,1.312
			c0,1.821-2.024,1.821-2.024,3.642c0,1.824,2.024,1.824,2.024,3.647c0,1.824-2.024,1.824-2.024,3.648"/>
	</g>
	<g>
		<path fill="none" stroke="#D0682D" stroke-width="1.145" stroke-linecap="round" d="M11.157,1.312
			c0,1.821-2.024,1.821-2.024,3.642c0,1.824,2.024,1.824,2.024,3.647c0,1.824-2.024,1.824-2.024,3.648"/>
	</g>
	<rect x="6.192" fill="none" stroke="#231F20" stroke-width="0.6203" stroke-dasharray="1.145,1.145" width="60.288" height="14"/>
</g>
</svg>
