<!-- Generator: Adobe Illustrator 18.0.0, SVG Export Plug-In  -->
<svg version="1.1"
	 xmlns="http://www.w3.org/2000/svg" xmlns:xlink="http://www.w3.org/1999/xlink" xmlns:a="http://ns.adobe.com/AdobeSVGViewerExtensions/3.0/"
	 x="0px" y="0px" width="1417px" height="701.9px" viewBox="0 0 1417 701.9" enable-background="new 0 0 1417 701.9"
	 xml:space="preserve">
<defs>
</defs>
<g>
	<g>
		<rect x="735" y="192.9" fill="#FFFFFF" width="52.3" height="81.7"/>
		<rect x="787.3" y="192.9" fill="#FFFFFF" width="52.3" height="81.7"/>
		<rect x="839.7" y="192.9" fill="#FFFFFF" width="52.3" height="81.7"/>
		<rect x="892" y="192.9" fill="#B2D235" width="52.3" height="81.7"/>
		<rect x="944.4" y="192.9" fill="#B2D235" width="52.3" height="81.7"/>
		<rect x="996.7" y="192.9" fill="#B2D235" width="52.3" height="81.7"/>
		<rect x="1049.1" y="192.9" fill="#8DC640" width="52.3" height="81.7"/>
		<rect x="1101.4" y="192.9" fill="#FFFFFF" width="52.3" height="81.7"/>
		<rect x="1153.8" y="192.9" fill="#FFFFFF" width="52.3" height="81.7"/>
		<rect x="1206.1" y="192.9" fill="#FFFFFF" width="52.3" height="81.7"/>
		<rect x="1258.5" y="192.9" fill="#FFFFFF" width="52.3" height="81.7"/>
		<rect x="1310.8" y="192.9" fill="#FFFFFF" width="52.3" height="81.7"/>
		<rect x="1363.2" y="192.9" fill="#B2D235" width="52.3" height="81.7"/>
		<rect x="735" y="274.6" fill="#7AC044" width="52.3" height="81.7"/>
		<rect x="787.3" y="274.6" fill="#7AC044" width="52.3" height="81.7"/>
		<rect x="839.7" y="274.6" fill="#7AC044" width="52.3" height="81.7"/>
		<rect x="892" y="274.6" fill="#7AC044" width="52.3" height="81.7"/>
		<rect x="944.4" y="274.6" fill="#7AC044" width="52.3" height="81.7"/>
		<rect x="996.7" y="274.6" fill="#7AC044" width="52.3" height="81.7"/>
		<rect x="1049.1" y="274.6" fill="#7AC044" width="52.3" height="81.7"/>
		<rect x="1101.4" y="274.6" fill="#8DC640" width="52.3" height="81.7"/>
		<rect x="1153.8" y="274.6" fill="#B2D235" width="52.3" height="81.7"/>
		<rect x="1206.1" y="274.6" fill="#FFFFFF" width="52.3" height="81.7"/>
		<rect x="1258.5" y="274.6" fill="#FFFFFF" width="52.3" height="81.7"/>
		<rect x="1310.8" y="274.6" fill="#FFFFFF" width="52.3" height="81.7"/>
		<rect x="1363.2" y="274.6" fill="#FFFFFF" width="52.3" height="81.7"/>
		<rect x="735" y="356.3" fill="#B2D235" width="52.3" height="81.7"/>
		<rect x="787.3" y="356.3" fill="#B2D235" width="52.3" height="81.7"/>
		<rect x="839.7" y="356.3" fill="#B2D235" width="52.3" height="81.7"/>
		<rect x="892" y="356.3" fill="#FFFFFF" width="52.3" height="81.7"/>
		<rect x="944.4" y="356.3" fill="#FFFFFF" width="52.3" height="81.7"/>
		<rect x="996.7" y="356.3" fill="#FFFFFF" width="52.3" height="81.7"/>
		<rect x="1049.1" y="356.3" fill="#FFFFFF" width="52.3" height="81.7"/>
		<rect x="1101.4" y="356.3" fill="#FFFFFF" width="52.3" height="81.7"/>
		<rect x="1153.8" y="356.3" fill="#FFFFFF" width="52.3" height="81.7"/>
		<rect x="1206.1" y="356.3" fill="#FFFFFF" width="52.3" height="81.7"/>
		<rect x="1258.5" y="356.3" fill="#FFFFFF" width="52.3" height="81.7"/>
		<rect x="1310.8" y="356.3" fill="#FFFFFF" width="52.3" height="81.7"/>
		<rect x="1363.2" y="356.3" fill="#B2D235" width="52.3" height="81.7"/>
		<rect x="735" y="438" fill="#FFFFFF" width="52.3" height="81.7"/>
		<rect x="787.3" y="438" fill="#FFFFFF" width="52.3" height="81.7"/>
		<rect x="839.7" y="438" fill="#FFFFFF" width="52.3" height="81.7"/>
		<rect x="892" y="438" fill="#F2C52A" width="52.3" height="81.7"/>
		<rect x="944.4" y="438" fill="#F2C52A" width="52.3" height="81.7"/>
		<rect x="996.7" y="438" fill="#F2C52A" width="52.3" height="81.7"/>
		<rect x="1049.1" y="438" fill="#F2C52A" width="52.3" height="81.7"/>
		<rect x="1101.4" y="438" fill="#F2C52A" width="52.3" height="81.7"/>
		<rect x="1153.8" y="438" fill="#F2C52A" width="52.3" height="81.7"/>
		<rect x="1206.1" y="438" fill="#F2C52A" width="52.3" height="81.7"/>
		<rect x="1258.5" y="438" fill="#F2C52A" width="52.3" height="81.7"/>
		<rect x="1310.8" y="438" fill="#F2C52A" width="52.3" height="81.7"/>
		<rect x="1363.2" y="438" fill="#FFFFFF" width="52.3" height="81.7"/>
		<rect x="735" y="519.7" fill="#FF8B10" width="52.3" height="81.7"/>
		<rect x="787.3" y="519.7" fill="#FF8B10" width="52.3" height="81.7"/>
		<rect x="839.7" y="519.7" fill="#FF8B10" width="52.3" height="81.7"/>
		<rect x="892" y="519.7" fill="#FF8B10" width="52.3" height="81.7"/>
		<rect x="944.4" y="519.7" fill="#FF8B10" width="52.3" height="81.7"/>
		<rect x="996.7" y="519.7" fill="#FF8B10" width="52.3" height="81.7"/>
		<rect x="1049.1" y="519.7" fill="#FF8B10" width="52.3" height="81.7"/>
		<rect x="1101.4" y="519.7" fill="#FF8B10" width="52.3" height="81.7"/>
		<rect x="1153.8" y="519.7" fill="#FF8B10" width="52.3" height="81.7"/>
		<rect x="1206.1" y="519.7" fill="#FF8B10" width="52.3" height="81.7"/>
		<rect x="1258.5" y="519.7" fill="#FF8B10" width="52.3" height="81.7"/>
		<rect x="1310.8" y="519.7" fill="#FF8B10" width="52.3" height="81.7"/>
		<rect x="1363.2" y="519.7" fill="#FF8B10" width="52.3" height="81.7"/>
		<line fill="none" stroke="#0D1023" stroke-width="3" stroke-miterlimit="10" x1="735" y1="192.9" x2="1415.5" y2="192.9"/>
		<line fill="none" stroke="#0D1023" stroke-width="3" stroke-miterlimit="10" x1="735" y1="274.6" x2="1415.5" y2="274.6"/>
		<line fill="none" stroke="#0D1023" stroke-width="3" stroke-miterlimit="10" x1="735" y1="356.3" x2="1415.5" y2="356.3"/>
		<line fill="none" stroke="#0D1023" stroke-width="3" stroke-miterlimit="10" x1="735" y1="438" x2="1415.5" y2="438"/>
		<line fill="none" stroke="#0D1023" stroke-width="3" stroke-miterlimit="10" x1="735" y1="519.7" x2="1415.5" y2="519.7"/>
		<line fill="none" stroke="#0D1023" stroke-width="3" stroke-miterlimit="10" x1="735" y1="601.4" x2="1415.5" y2="601.4"/>
		<line fill="none" stroke="#0D1023" stroke-width="3" stroke-miterlimit="10" x1="735" y1="192.9" x2="735" y2="601.4"/>
		<line fill="none" stroke="#0D1023" stroke-width="3" stroke-miterlimit="10" x1="787.3" y1="192.9" x2="787.3" y2="601.4"/>
		<line fill="none" stroke="#0D1023" stroke-width="3" stroke-miterlimit="10" x1="839.7" y1="192.9" x2="839.7" y2="601.4"/>
		<line fill="none" stroke="#0D1023" stroke-width="3" stroke-miterlimit="10" x1="890.7" y1="192.9" x2="890.7" y2="601.4"/>
		<line fill="none" stroke="#0D1023" stroke-width="3" stroke-miterlimit="10" x1="944.4" y1="192.9" x2="944.4" y2="601.4"/>
		<line fill="none" stroke="#0D1023" stroke-width="3" stroke-miterlimit="10" x1="1049.1" y1="192.9" x2="1049.1" y2="601.4"/>
		<line fill="none" stroke="#0D1023" stroke-width="3" stroke-miterlimit="10" x1="996.7" y1="192.9" x2="996.7" y2="601.4"/>
		<line fill="none" stroke="#0D1023" stroke-width="3" stroke-miterlimit="10" x1="1101.4" y1="192.9" x2="1101.4" y2="601.4"/>
		<line fill="none" stroke="#0D1023" stroke-width="3" stroke-miterlimit="10" x1="1153.8" y1="192.9" x2="1153.8" y2="601.4"/>
		<line fill="none" stroke="#0D1023" stroke-width="3" stroke-miterlimit="10" x1="1258.5" y1="192.9" x2="1258.5" y2="601.4"/>
		<line fill="none" stroke="#0D1023" stroke-width="3" stroke-miterlimit="10" x1="1206.1" y1="192.9" x2="1206.1" y2="601.4"/>
		<line fill="none" stroke="#0D1023" stroke-width="3" stroke-miterlimit="10" x1="1310.8" y1="192.9" x2="1310.8" y2="601.4"/>
		<line fill="none" stroke="#0D1023" stroke-width="3" stroke-miterlimit="10" x1="1363.2" y1="192.9" x2="1363.2" y2="601.4"/>
		<line fill="none" stroke="#0D1023" stroke-width="3" stroke-miterlimit="10" x1="1415.5" y1="192.9" x2="1415.5" y2="601.4"/>
	</g>
	<text transform="matrix(1 0 0 1 345.6569 242.1338)" font-family="'NokiaPureText-Regular'" font-size="15.4582">android-c972f1ac5f93eab3 - 5GHz - 50mbsb - 7472</text>
	<text transform="matrix(1 0 0 1 311.5719 323.4025)" font-family="'NokiaPureText-Regular'" font-size="15.4582">android-893b895bbb9237278 - 2.4GHz - 24mbsb - 7472</text>
	<text transform="matrix(1 0 0 1 338.8241 404.6715)" font-family="'NokiaPureText-Regular'" font-size="15.4582">android-305937860fc63de3 - 5GHz - 50mbsb - 7472</text>
	<text transform="matrix(1 0 0 1 413.7647 485.94)" font-family="'NokiaPureText-Regular'" font-size="15.4582">WLAN-Repeater-2 - 5GHz - 50mbsb - 7472</text>
	<text transform="matrix(1 0 0 1 371.7032 567.2091)" font-family="'NokiaPureText-Regular'" font-size="15.4582">ipad-fw295048443pa53 2.4GHz – 50mbsb-7442</text>
	
		<text transform="matrix(0.7071 -0.7071 0.7071 0.7071 732.5855 642.1666)" font-family="'NokiaPureText-Regular'" font-size="11.0416">1:00 AM</text>
	
		<text transform="matrix(0.7071 -0.7071 0.7071 0.7071 784.9355 642.167)" font-family="'NokiaPureText-Regular'" font-size="11.0416">2:00 AM</text>
	
		<text transform="matrix(0.7071 -0.7071 0.7071 0.7071 837.2855 642.1666)" font-family="'NokiaPureText-Regular'" font-size="11.0416">3:00 AM</text>
	
		<text transform="matrix(0.7071 -0.7071 0.7071 0.7071 889.6356 642.1668)" font-family="'NokiaPureText-Regular'" font-size="11.0416">4:00 AM</text>
	
		<text transform="matrix(0.7071 -0.7071 0.7071 0.7071 941.9857 642.167)" font-family="'NokiaPureText-Regular'" font-size="11.0416">5:00 AM</text>
	
		<text transform="matrix(0.7071 -0.7071 0.7071 0.7071 994.3355 642.1668)" font-family="'NokiaPureText-Regular'" font-size="11.0416">6:00 AM</text>
	
		<text transform="matrix(0.7071 -0.7071 0.7071 0.7071 1046.6854 642.1664)" font-family="'NokiaPureText-Regular'" font-size="11.0416">7:00 AM</text>
	
		<text transform="matrix(0.7071 -0.7071 0.7071 0.7071 1099.036 642.167)" font-family="'NokiaPureText-Regular'" font-size="11.0416">8:00 AM</text>
	
		<text transform="matrix(0.7071 -0.7071 0.7071 0.7071 1151.3853 642.1666)" font-family="'NokiaPureText-Regular'" font-size="11.0416">9:00 AM</text>
	
		<text transform="matrix(0.7071 -0.7071 0.7071 0.7071 1199.1135 646.7887)" font-family="'NokiaPureText-Regular'" font-size="11.0416">10:00 AM</text>
	
		<text transform="matrix(0.7071 -0.7071 0.7071 0.7071 1251.4637 646.7888)" font-family="'NokiaPureText-Regular'" font-size="11.0416">11:00 AM</text>
	
		<text transform="matrix(0.7071 -0.7071 0.7071 0.7071 1303.9227 646.6794)" font-family="'NokiaPureText-Regular'" font-size="11.0416">12:00 PM</text>
	
		<text transform="matrix(0.7071 -0.7071 0.7071 0.7071 1360.8953 642.0579)" font-family="'NokiaPureText-Regular'" font-size="11.0416">1:00 PM</text>
</g>
<rect x="0" y="241" fill="#BEC8D2" width="269.4" height="459.9"/>
<rect x="0" y="167.3" fill="#FFFFFF" width="269.4" height="36.9"/>
<rect x="0" y="31.3" fill="#D7D8DB" width="1414.4" height="52.3"/>
<rect x="0" y="115" fill="#124191" width="1414.4" height="52.3"/>
<rect x="0" y="83.7" fill="#EDF2F5" width="1414.4" height="31.3"/>
<rect x="0" y="0" fill="#124191" width="1414.4" height="31.3"/>
<rect x="0" y="204.2" fill="#EDF2F5" width="269.4" height="36.9"/>
<rect x="0" y="550.9" fill="#00C9FF" width="269.4" height="36.9"/>
<path fill="#FFFFFF" d="M1394,136.6l4.2,1.1l1.1-4.2l-0.8-0.2l-0.7,2.6c-1.7-2.8-4.9-4.7-8.4-4.7c-5.5,0-9.9,4.4-9.9,9.9
	c0,5.5,4.4,9.9,9.9,9.9c3.7,0,6.8-2,8.6-4.9l-0.7-0.4c-1.6,2.7-4.5,4.5-7.9,4.5c-5,0-9.1-4.1-9.1-9.1c0-5,4.1-9.1,9.1-9.1
	c3.4,0,6.3,1.8,7.9,4.6l-3-0.8L1394,136.6z M1394,136.6"/>
<g>
	<path fill="#FFFFFF" d="M1404.1,21.5c0.5,0.5,0.5,1.2,0,1.6l-0.5,0.5c-0.5,0.5-1.2,0.5-1.6,0l-2.9-2.9c-0.5-0.5-0.5-1.2,0-1.6
		l0.5-0.5c0.5-0.5,1.2-0.5,1.6,0L1404.1,21.5z"/>
	<path fill="#FFFFFF" d="M1394.4,7.7c-3.4,0-6.2,2.8-6.2,6.2s2.8,6.2,6.2,6.2c3.4,0,6.2-2.8,6.2-6.2S1397.9,7.7,1394.4,7.7z
		 M1394.4,19c-2.8,0-5.1-2.3-5.1-5.1s2.3-5.1,5.1-5.1s5.1,2.3,5.1,5.1S1397.2,19,1394.4,19z"/>
</g>
<path fill="#FFFFFF" d="M1377.5,26.6h-199.4c-1.2,0-2.2-1-2.2-2.2V7.7c0-1.2,1-2.2,2.2-2.2h199.4c1.2,0,2.2,1,2.2,2.2v16.7
	C1379.7,25.7,1378.8,26.6,1377.5,26.6z"/>
<polygon fill="#0D1023" points="68.6,57.5 63.4,66.5 58.2,57.5 "/>
<polygon fill="#0D1023" points="254.9,57.5 249.7,66.5 244.5,57.5 "/>
<line fill="none" stroke="#98A2AE" stroke-width="2" stroke-linecap="round" stroke-miterlimit="10" x1="14.4" y1="72.6" x2="68.6" y2="72.6"/>
<line fill="none" stroke="#98A2AE" stroke-width="2" stroke-linecap="round" stroke-miterlimit="10" x1="95" y1="72.6" x2="254.9" y2="72.6"/>
<polyline fill="none" stroke="#98A2AE" stroke-width="3" stroke-linecap="round" stroke-miterlimit="10" points="249.7,185.7 
	255.6,191.6 261.5,185.8 "/>
<polyline fill="none" stroke="#98A2AE" stroke-width="3" stroke-linecap="round" stroke-miterlimit="10" points="249.7,222.6 
	255.6,228.5 261.5,222.6 "/>
<g>
	
		<rect x="504.3" y="642.4" fill="none" stroke="#98A2AE" stroke-width="2" stroke-linecap="round" stroke-miterlimit="10" width="178.9" height="58.5"/>
	<linearGradient id="SVGID_1_" gradientUnits="userSpaceOnUse" x1="515.3099" y1="663.9249" x2="668.7877" y2="663.9249">
		<stop  offset="0" style="stop-color:#FF3154"/>
		<stop  offset="0.5" style="stop-color:#FFFB00"/>
		<stop  offset="1" style="stop-color:#4BDD33"/>
	</linearGradient>
	<rect x="515.3" y="658.6" fill="url(#SVGID_1_)" width="153.5" height="10.7"/>
	<text transform="matrix(1 0 0 1 515.3098 684.3516)" font-family="'NokiaPureText-Regular'" font-size="11.0416">0</text>
	<text transform="matrix(1 0 0 1 584.0217 684.3516)" font-family="'NokiaPureText-Regular'" font-size="11.0416">0.5</text>
	<text transform="matrix(1 0 0 1 665.1839 685.4561)" font-family="'NokiaPureText-Regular'" font-size="11.0416">1</text>
</g>
</svg>
