<!-- Generator: Adobe Illustrator 18.0.0, SVG Export Plug-In  -->

<svg version="1.1"

	 xmlns="http://www.w3.org/2000/svg" xmlns:xlink="http://www.w3.org/1999/xlink" xmlns:a="http://ns.adobe.com/AdobeSVGViewerExtensions/3.0/"

	 x="0px" y="0px" width="1541.4px" height="697.3px" viewBox="0 0 1541.4 697.3" enable-background="new 0 0 1541.4 697.3"

	 xml:space="preserve">

<defs>

</defs>

<g>

	<rect x="0" y="59.5" fill="#FFFFFF" width="1541.4" height="547.5"/>

	<g>

		<text transform="matrix(1 0 0 1 80.3845 210.5874)" font-family="'NokiaPureText-Regular'" font-size="20">Network Experience Index</text>

		<text transform="matrix(1 0 0 1 80.3845 246.5874)" font-family="'NokiaPureText-Regular'" font-size="20">Voice Index</text>

		<text transform="matrix(1 0 0 1 80.3845 282.5874)" font-family="'NokiaPureText-Regular'" font-size="20">SMS Index</text>

		<text transform="matrix(1 0 0 1 80.3845 318.5874)" font-family="'NokiaPureText-Regular'" font-size="20">Data Index</text>

		<text transform="matrix(1 0 0 1 380.7049 210.5874)" font-family="'NokiaPureText-Regular'" font-size="20">22</text>

		<text transform="matrix(1 0 0 1 380.7049 246.5874)" font-family="'NokiaPureText-Regular'" font-size="20">92</text>

		<text transform="matrix(1 0 0 1 392.5447 282.5874)" font-family="'NokiaPureText-Regular'" font-size="20">5</text>

		<text transform="matrix(1 0 0 1 380.7049 318.5874)" font-family="'NokiaPureText-Regular'" font-size="20">88</text>

		<rect x="56.4" y="196.6" fill="#124191" width="13" height="13"/>

		<rect x="56.4" y="232.8" fill="#FF8B10" width="13" height="13"/>

		<rect x="56.4" y="269" width="13" height="13"/>

		<rect x="56.4" y="305.2" fill="#00C9FF" width="13" height="13"/>

	</g>

	<g>

		<text transform="matrix(1 0 0 1 502.865 210.5874)" font-family="'NokiaPureText-Regular'" font-size="20">100</text>

		<text transform="matrix(1 0 0 1 514.7048 264.0874)" font-family="'NokiaPureText-Regular'" font-size="20">75</text>

		<text transform="matrix(1 0 0 1 514.7048 317.5874)" font-family="'NokiaPureText-Regular'" font-size="20">50</text>

		<text transform="matrix(1 0 0 1 514.7048 371.0874)" font-family="'NokiaPureText-Regular'" font-size="20">25</text>

		<text transform="matrix(1 0 0 1 526.5447 424.5874)" font-family="'NokiaPureText-Regular'" font-size="20">0</text>

		

			<line fill="none" stroke="#EDF2F5" stroke-width="3" stroke-linecap="round" stroke-miterlimit="10" x1="600.4" y1="203.1" x2="1476.4" y2="203.1"/>

		

			<line fill="none" stroke="#EDF2F5" stroke-width="3" stroke-linecap="round" stroke-miterlimit="10" x1="600.4" y1="257.2" x2="1476.4" y2="257.2"/>

		

			<line fill="none" stroke="#EDF2F5" stroke-width="3" stroke-linecap="round" stroke-miterlimit="10" x1="600.4" y1="311.3" x2="1476.4" y2="311.3"/>

		

			<line fill="none" stroke="#EDF2F5" stroke-width="3" stroke-linecap="round" stroke-miterlimit="10" x1="600.4" y1="365.5" x2="1476.4" y2="365.5"/>

		

			<line fill="none" stroke="#EDF2F5" stroke-width="3" stroke-linecap="round" stroke-miterlimit="10" x1="600.4" y1="419.6" x2="1476.4" y2="419.6"/>

	</g>

	<polyline fill="none" stroke="#FF8B10" stroke-width="3" stroke-linecap="round" stroke-miterlimit="10" points="608.4,220.6 

		770.9,209.6 948.4,414.6 1114.4,226.6 1299.4,218.6 1465.9,226.6 	"/>

	<circle fill="#FF8B10" cx="608.4" cy="220.6" r="4.5"/>

	<circle fill="#FF8B10" cx="770.9" cy="210.6" r="4.5"/>

	<circle fill="#FF8B10" cx="948.4" cy="414.6" r="4.5"/>

	<circle fill="#0D1023" cx="608.4" cy="410.1" r="4.5"/>

	<circle fill="#00C9FF" cx="608.4" cy="232.8" r="4.5"/>

	<circle fill="#0D1023" cx="770.9" cy="203.1" r="4.5"/>

	<circle fill="#00C9FF" cx="770.9" cy="318.6" r="4.5"/>

	<circle fill="#0D1023" cx="948.4" cy="410.1" r="4.5"/>

	<circle fill="#00C9FF" cx="948.4" cy="226.6" r="4.5"/>

	<circle fill="#0D1023" cx="1114.4" cy="414.6" r="4.5"/>

	<circle fill="#00C9FF" cx="1114.4" cy="365.5" r="4.5"/>

	<circle fill="#0D1023" cx="1300.9" cy="407.1" r="4.5"/>

	<circle fill="#00C9FF" cx="1299.4" cy="235.8" r="4.5"/>

	<circle fill="#0D1023" cx="1465.9" cy="406.6" r="4.5"/>

	<circle fill="#00C9FF" cx="1465.9" cy="235.8" r="4.5"/>

	<polyline fill="none" stroke="#124191" stroke-width="3" stroke-linecap="round" stroke-miterlimit="10" points="608.4,376.6 

		770.9,376.6 948.4,376.6 1114.4,376.6 1299.4,376.6 1465.9,376.6 	"/>

	<polyline fill="none" stroke="#0D1023" stroke-width="3" stroke-linecap="round" stroke-miterlimit="10" points="608.4,409.6 

		770.9,203.1 948.4,409.6 1114.4,414.6 1299.4,406.6 1465.9,406.6 	"/>

	<polyline fill="none" stroke="#00C9FF" stroke-width="3" stroke-linecap="round" stroke-miterlimit="10" points="608.4,232.8 

		770.9,318.6 948.4,226.6 1114.4,365.5 1299.4,235.8 1465.9,235.8 	"/>

	<circle fill="#FF8B10" cx="1465.9" cy="226.6" r="4.5"/>

	<circle fill="#FF8B10" cx="1114.2" cy="226.6" r="4.5"/>

	<circle fill="#FF8B10" cx="1300.9" cy="217.6" r="4.5"/>

	<circle fill="#124191" cx="948.4" cy="376.6" r="4.5"/>

	<circle fill="#124191" cx="770.9" cy="376.6" r="4.5"/>

	<circle fill="#124191" cx="1114.4" cy="376.6" r="4.5"/>

	<circle fill="#124191" cx="608.4" cy="376.6" r="4.5"/>

	<circle fill="#124191" cx="1465.9" cy="376.6" r="4.5"/>

	<circle fill="#124191" cx="1300.9" cy="376.6" r="4.5"/>

	<text transform="matrix(1 0 0 1 742.0291 453.5752)" font-family="'NokiaPureText-Regular'" font-size="20">28 oct</text>

	<text transform="matrix(1 0 0 1 1085.4851 453.5752)" font-family="'NokiaPureText-Regular'" font-size="20">30 oct</text>

	<text transform="matrix(1 0 0 1 1441.1609 453.5752)" font-family="'NokiaPureText-Regular'" font-size="20">1 nov</text>

</g>

<rect x="105.5" y="573.3" fill="#124191" width="1330.4" height="124.1"/>

<rect x="65.3" y="0" fill="none" width="1395.2" height="632.4"/>

<text transform="matrix(1 0 0 1 543.8484 54.3674)" fill="#0D1023" font-family="'NokiaPureText-Light'" font-size="36">Customer Experience Index</text>

<text transform="matrix(1 0 0 1 386.532 646.5154)" fill="#FFFFFF" font-family="'NokiaPureText-Regular'" font-size="40">CEI shows Jackie’s OTT Services at home have been poor lately</text>

</svg>

