<!-- Generator: Adobe Illustrator 18.0.0, SVG Export Plug-In  -->
<svg version="1.1"
	 xmlns="http://www.w3.org/2000/svg" xmlns:xlink="http://www.w3.org/1999/xlink" xmlns:a="http://ns.adobe.com/AdobeSVGViewerExtensions/3.0/"
	 x="0px" y="0px" width="35px" height="67.7px" viewBox="0 0 35 67.7" enable-background="new 0 0 35 67.7" xml:space="preserve">
<defs>
</defs>
<g>
	<path fill="#BEC8D2" d="M35,5c0-2.7-2.2-5-5-5H5C2.2,0,0,2.2,0,5v57.8c0,2.7,2.2,5,5,5H30c2.7,0,5-2.2,5-5V5z M21.3,5.4
		c0,0.4-0.3,0.7-0.7,0.7h-5.4c-0.4,0-0.7-0.3-0.7-0.7V5.3c0-0.4,0.3-0.7,0.7-0.7h5.4C21,4.6,21.3,4.9,21.3,5.4L21.3,5.4z M17.5,64.4
		c-1.8,0-3.2-1.5-3.2-3.2c0-1.8,1.5-3.2,3.2-3.2c1.8,0,3.2,1.5,3.2,3.2C20.8,63,19.3,64.4,17.5,64.4z M32,55.6H3V11.4H32V55.6z"/>
</g>
<path fill="#BEC8D2" d="M13.4,47.2h6V33.9H23l0.5-4.5h-4.1l0-2.5c0-1.2,0.1-1.8,1.8-1.8h2.6v-4.5h-4.5c-4.4,0-6,2.2-6,6v2.9h-2.3
	v4.5h2.3V47.2z"/>
</svg>
