<!-- Generator: Adobe Illustrator 18.0.0, SVG Export Plug-In  -->
<svg version="1.1"
	 xmlns="http://www.w3.org/2000/svg" xmlns:xlink="http://www.w3.org/1999/xlink" xmlns:a="http://ns.adobe.com/AdobeSVGViewerExtensions/3.0/"
	 x="0px" y="0px" width="1631.3px" height="1613.6px" viewBox="0 0 1631.3 1613.6" enable-background="new 0 0 1631.3 1613.6"
	 xml:space="preserve">
<defs>
</defs>
<g>
	<path fill-rule="evenodd" clip-rule="evenodd" fill="#FFFFFF" d="M1569.1,885.8c-3.6,0-6.6-2.9-6.6-6.6c0-3.6,2.9-6.6,6.6-6.6
		s6.6,2.9,6.6,6.6C1575.7,882.8,1572.7,885.8,1569.1,885.8L1569.1,885.8z"/>
	<path fill-rule="evenodd" clip-rule="evenodd" fill="#FFFFFF" d="M1571.1,807.4c-3.6,0-6.6-2.9-6.6-6.6c0-3.6,2.9-6.6,6.6-6.6
		c3.6,0,6.6,2.9,6.6,6.6C1577.7,804.4,1574.7,807.4,1571.1,807.4L1571.1,807.4z"/>
	<path fill="none" stroke="#EDF2F5" stroke-width="3" stroke-miterlimit="10" d="M1594.4,811.2c0,432.5-350.6,783.2-783.2,783.2
		S28,1243.8,28,811.2C28,378.7,378.7,28.1,811.2,28.1S1594.4,378.7,1594.4,811.2z"/>
	<circle fill="#FFFFFF" stroke="#EDF2F5" stroke-width="3" stroke-miterlimit="10" cx="430.7" cy="125.4" r="35.4"/>
	<path fill="#FFFFFF" stroke="#EDF2F5" stroke-width="3" stroke-miterlimit="10" d="M753.7,36.9c0,19.6-15.8,35.4-35.4,35.4
		c-19.6,0-35.4-15.8-35.4-35.4c0-19.5,15.8-35.4,35.4-35.4C737.8,1.5,753.7,17.4,753.7,36.9z"/>
	<circle fill="#FFFFFF" stroke="#EDF2F5" stroke-width="3" stroke-miterlimit="10" cx="1072.3" cy="72.3" r="35.4"/>
	<path fill="#FFFFFF" stroke="#EDF2F5" stroke-width="3" stroke-miterlimit="10" d="M1488.2,364.3c0,19.6-15.8,35.4-35.4,35.4
		c-19.5,0-35.4-15.8-35.4-35.4c0-19.6,15.8-35.4,35.4-35.4C1472.3,328.9,1488.2,344.8,1488.2,364.3z"/>
	<circle fill="#FFFFFF" stroke="#EDF2F5" stroke-width="3" stroke-miterlimit="10" cx="138.7" cy="408.6" r="35.4"/>
	<path fill="#FFFFFF" stroke="#EDF2F5" stroke-width="3" stroke-miterlimit="10" d="M72.3,705c0,19.6-15.8,35.4-35.4,35.4
		c-19.6,0-35.4-15.8-35.4-35.4c0-19.5,15.8-35.4,35.4-35.4C56.4,669.6,72.3,685.5,72.3,705z"/>
	<path fill="#FFFFFF" stroke="#EDF2F5" stroke-width="3" stroke-miterlimit="10" d="M346.6,585.6c0,19.5-15.8,35.4-35.4,35.4
		c-19.6,0-35.4-15.8-35.4-35.4c0-19.6,15.8-35.4,35.4-35.4C330.8,550.2,346.6,566,346.6,585.6z"/>
	<circle fill="#FFFFFF" stroke="#EDF2F5" stroke-width="3" stroke-miterlimit="10" cx="311.2" cy="864.3" r="35.4"/>
	<circle fill="#FFFFFF" stroke="#EDF2F5" stroke-width="3" stroke-miterlimit="10" cx="306.8" cy="1143.1" r="35.4"/>
	<circle fill="#FFFFFF" stroke="#EDF2F5" stroke-width="3" stroke-miterlimit="10" cx="541.3" cy="1337.8" r="35.4"/>
	<path fill="#FFFFFF" stroke="#EDF2F5" stroke-width="3" stroke-miterlimit="10" d="M820.1,1240.4c0,19.6-15.8,35.4-35.4,35.4
		c-19.6,0-35.4-15.8-35.4-35.4c0-19.6,15.8-35.4,35.4-35.4C804.2,1205,820.1,1220.9,820.1,1240.4z"/>
	<path fill="#FFFFFF" stroke="#EDF2F5" stroke-width="3" stroke-miterlimit="10" d="M1072.3,1048.6c0,19.6-15.8,35.4-35.4,35.4
		c-19.5,0-35.4-15.9-35.4-35.4c0-19.5,15.9-35.4,35.4-35.4C1056.4,1013.3,1072.3,1029.1,1072.3,1048.6z"/>
	<circle fill="#FFFFFF" stroke="#EDF2F5" stroke-width="3" stroke-miterlimit="10" cx="1315.6" cy="1107.7" r="35.4"/>
	<circle fill="#FFFFFF" stroke="#EDF2F5" stroke-width="3" stroke-miterlimit="10" cx="1116.5" cy="1302.4" r="35.4"/>
	<path fill="#FFFFFF" stroke="#EDF2F5" stroke-width="3" stroke-miterlimit="10" d="M811.2,1457.2c0,19.6-15.8,35.4-35.4,35.4
		c-19.5,0-35.4-15.8-35.4-35.4c0-19.6,15.9-35.4,35.4-35.4C795.4,1421.8,811.2,1437.7,811.2,1457.2z"/>
	<path fill="#FFFFFF" stroke="#EDF2F5" stroke-width="3" stroke-miterlimit="10" d="M1191.7,846.6c0,19.6-15.8,35.4-35.4,35.4
		c-19.5,0-35.4-15.8-35.4-35.4c0-19.5,15.9-35.4,35.4-35.4C1175.9,811.2,1191.7,827.1,1191.7,846.6z"/>
	<path fill="#FFFFFF" stroke="#EDF2F5" stroke-width="3" stroke-miterlimit="10" d="M1012.9,483.8c0,19.5-15.8,35.4-35.4,35.4
		c-19.6,0-35.4-15.9-35.4-35.4c0-19.5,15.8-35.4,35.4-35.4C997.1,448.4,1012.9,464.2,1012.9,483.8z"/>
	<path fill="#FFFFFF" stroke="#EDF2F5" stroke-width="3" stroke-miterlimit="10" d="M705,483.8c0,19.5-15.9,35.4-35.4,35.4
		c-19.6,0-35.4-15.9-35.4-35.4c0-19.5,15.8-35.4,35.4-35.4C689.2,448.4,705,464.2,705,483.8z"/>
	<path fill="#FFFFFF" stroke="#EDF2F5" stroke-width="3" stroke-miterlimit="10" d="M1430.7,762.6c0,19.5-15.8,35.4-35.4,35.4
		c-19.6,0-35.4-15.9-35.4-35.4c0-19.6,15.8-35.4,35.4-35.4C1414.8,727.2,1430.7,743,1430.7,762.6z"/>
	<path fill="#FFFFFF" stroke="#EDF2F5" stroke-width="3" stroke-miterlimit="10" d="M1244.8,302.4c0,19.6-15.8,35.4-35.4,35.4
		c-19.5,0-35.4-15.8-35.4-35.4c0-19.5,15.8-35.4,35.4-35.4C1229,267,1244.8,282.8,1244.8,302.4z"/>
	<path fill="#FFFFFF" stroke="#EDF2F5" stroke-width="3" stroke-miterlimit="10" d="M864.3,222.7c0,19.5-15.8,35.4-35.4,35.4
		c-19.5,0-35.4-15.9-35.4-35.4c0-19.5,15.8-35.4,35.4-35.4C848.5,187.3,864.3,203.2,864.3,222.7z"/>
	<circle fill="#FFFFFF" stroke="#EDF2F5" stroke-width="3" stroke-miterlimit="10" cx="466.1" cy="324.5" r="35.4"/>
	<path fill="#FFFFFF" stroke="#EDF2F5" stroke-width="3" stroke-miterlimit="10" d="M98.8,1050.2c0,19.6-15.8,35.4-35.4,35.4
		c-19.5,0-35.4-15.8-35.4-35.4c0-19.5,15.8-35.4,35.4-35.4C83,1014.8,98.8,1030.6,98.8,1050.2z"/>
	<path fill="#FFFFFF" stroke="#EDF2F5" stroke-width="3" stroke-miterlimit="10" d="M328.9,1399.7c0,19.6-15.8,35.4-35.4,35.4
		c-19.6,0-35.4-15.8-35.4-35.4c0-19.6,15.8-35.4,35.4-35.4C313.1,1364.3,328.9,1380.2,328.9,1399.7z"/>
	<circle fill="#FFFFFF" stroke="#EDF2F5" stroke-width="3" stroke-miterlimit="10" cx="634.2" cy="1576.7" r="35.4"/>
	<path fill="#FFFFFF" stroke="#EDF2F5" stroke-width="3" stroke-miterlimit="10" d="M1129.8,1541.3c0,19.5-15.9,35.4-35.4,35.4
		c-19.5,0-35.4-15.8-35.4-35.4c0-19.6,15.8-35.4,35.4-35.4C1113.9,1505.9,1129.8,1521.7,1129.8,1541.3z"/>
	<path fill="#FFFFFF" stroke="#EDF2F5" stroke-width="3" stroke-miterlimit="10" d="M1417.4,1351c0,19.6-15.8,35.4-35.4,35.4
		s-35.4-15.8-35.4-35.4c0-19.5,15.8-35.4,35.4-35.4S1417.4,1331.5,1417.4,1351z"/>
	<path fill="#FFFFFF" stroke="#EDF2F5" stroke-width="3" stroke-miterlimit="10" d="M1581.1,1094.4c0,19.5-15.8,35.4-35.4,35.4
		c-19.6,0-35.4-15.9-35.4-35.4c0-19.6,15.8-35.4,35.4-35.4C1565.3,1059,1581.1,1074.9,1581.1,1094.4z"/>
	<path fill="#FFFFFF" stroke="#EDF2F5" stroke-width="3" stroke-miterlimit="10" d="M1629.8,789.1c0,19.6-15.8,35.4-35.4,35.4
		c-19.5,0-35.4-15.8-35.4-35.4s15.9-35.4,35.4-35.4C1613.9,753.7,1629.8,769.5,1629.8,789.1z"/>
	<line fill="#FFFFFF" stroke="#EDF2F5" stroke-width="3" stroke-miterlimit="10" x1="1559" y1="789.1" x2="1430.7" y2="762.6"/>
	<line fill="#FFFFFF" stroke="#EDF2F5" stroke-width="3" stroke-miterlimit="10" x1="1574.9" y1="818.6" x2="1343.2" y2="1085.6"/>
	<line fill="#FFFFFF" stroke="#EDF2F5" stroke-width="3" stroke-miterlimit="10" x1="1382" y1="795.3" x2="1324.4" y2="1073.4"/>
	<line fill="#FFFFFF" stroke="#EDF2F5" stroke-width="3" stroke-miterlimit="10" x1="1350.4" y1="1101" x2="1510.3" y2="1094.4"/>
	<line fill="#FFFFFF" stroke="#EDF2F5" stroke-width="3" stroke-miterlimit="10" x1="1324.4" y1="1143.1" x2="1367.7" y2="1318.7"/>
	<line fill="none" stroke="#EDF2F5" stroke-width="3" stroke-miterlimit="10" x1="1181.8" y1="324.5" x2="1004.1" y2="460.4"/>
	<line fill="none" stroke="#EDF2F5" stroke-width="3" stroke-miterlimit="10" x1="1415.2" y1="362.1" x2="1241.8" y2="316.7"/>
	<line fill="none" stroke="#EDF2F5" stroke-width="3" stroke-miterlimit="10" x1="1288" y1="1129.8" x2="1146.1" y2="1282.9"/>
	<line fill="none" stroke="#EDF2F5" stroke-width="3" stroke-miterlimit="10" x1="1045.7" y1="1082.9" x2="1104.9" y2="1268.9"/>
	<line fill="none" stroke="#EDF2F5" stroke-width="3" stroke-miterlimit="10" x1="1139.7" y1="877.8" x2="1045.7" y2="1014.4"/>
	<line fill="none" stroke="#EDF2F5" stroke-width="3" stroke-miterlimit="10" x1="1072.3" y1="1048.6" x2="1280.9" y2="1101"/>
	<line fill="none" stroke="#EDF2F5" stroke-width="3" stroke-miterlimit="10" x1="1395.3" y1="727.2" x2="1446.2" y2="399.7"/>
	<line fill="none" stroke="#EDF2F5" stroke-width="3" stroke-miterlimit="10" x1="1209.4" y1="337.8" x2="1156.3" y2="634.9"/>
	<line fill="none" stroke="#EDF2F5" stroke-width="3" stroke-miterlimit="10" x1="1098.8" y1="95.7" x2="1191.7" y2="271.8"/>
	<line fill="none" stroke="#EDF2F5" stroke-width="3" stroke-miterlimit="10" x1="644" y1="459.5" x2="493.8" y2="346.5"/>
	<line fill="none" stroke="#EDF2F5" stroke-width="3" stroke-miterlimit="10" x1="170.4" y1="393.1" x2="433.3" y2="337.8"/>
	<line fill="none" stroke="#EDF2F5" stroke-width="3" stroke-miterlimit="10" x1="167.2" y1="429.5" x2="293.5" y2="554.9"/>
	<line fill="none" stroke="#EDF2F5" stroke-width="3" stroke-miterlimit="10" x1="346.6" y1="598.8" x2="644" y2="708.1"/>
	<line fill="none" stroke="#EDF2F5" stroke-width="3" stroke-miterlimit="10" x1="661.2" y1="518.1" x2="644" y2="708.1"/>
	<line fill="none" stroke="#EDF2F5" stroke-width="3" stroke-miterlimit="10" x1="937.9" y1="705" x2="644" y2="708.1"/>
	<line fill="none" stroke="#EDF2F5" stroke-width="3" stroke-miterlimit="10" x1="944.7" y1="670.3" x2="970.9" y2="519.2"/>
	<line fill="none" stroke="#EDF2F5" stroke-width="3" stroke-miterlimit="10" x1="937.9" y1="705" x2="1151.9" y2="672.7"/>
	<line fill="none" stroke="#EDF2F5" stroke-width="3" stroke-miterlimit="10" x1="955.4" y1="456.2" x2="845.6" y2="253.9"/>
	<line fill="none" stroke="#EDF2F5" stroke-width="3" stroke-miterlimit="10" x1="942.1" y1="483.8" x2="704.3" y2="476.9"/>
	<line fill="none" stroke="#EDF2F5" stroke-width="3" stroke-miterlimit="10" x1="794.8" y1="231.9" x2="501.5" y2="316.7"/>
	<line fill="none" stroke="#EDF2F5" stroke-width="3" stroke-miterlimit="10" x1="456.3" y1="290.5" x2="430.7" y2="160.8"/>
	<line fill="none" stroke="#EDF2F5" stroke-width="3" stroke-miterlimit="10" x1="466.1" y1="125.4" x2="794.8" y2="213.6"/>
	<line fill="none" stroke="#EDF2F5" stroke-width="3" stroke-miterlimit="10" x1="811.2" y1="192.1" x2="733.8" y2="68.7"/>
	<line fill="none" stroke="#EDF2F5" stroke-width="3" stroke-miterlimit="10" x1="859.1" y1="204.3" x2="1038.4" y2="82.4"/>
	<line fill="none" stroke="#EDF2F5" stroke-width="3" stroke-miterlimit="10" x1="937.9" y1="705" x2="1125.7" y2="828.9"/>
	<line fill="none" stroke="#EDF2F5" stroke-width="3" stroke-miterlimit="10" x1="1189.9" y1="835.3" x2="1362.5" y2="775.8"/>
	<line fill="none" stroke="#EDF2F5" stroke-width="3" stroke-miterlimit="10" x1="1004.1" y1="1035.4" x2="887" y2="1004.3"/>
	<line fill="none" stroke="#EDF2F5" stroke-width="3" stroke-miterlimit="10" x1="845.6" y1="1022.2" x2="794.8" y2="1206.5"/>
	<line fill="none" stroke="#EDF2F5" stroke-width="3" stroke-miterlimit="10" x1="937.9" y1="705" x2="583.8" y2="1004.3"/>
	<line fill="none" stroke="#EDF2F5" stroke-width="3" stroke-miterlimit="10" x1="644" y1="708.1" x2="557" y2="980"/>
	<line fill="none" stroke="#EDF2F5" stroke-width="3" stroke-miterlimit="10" x1="519" y1="998" x2="342.2" y2="881.4"/>
	<line fill="none" stroke="#EDF2F5" stroke-width="3" stroke-miterlimit="10" x1="318.1" y1="829.6" x2="309" y2="618.7"/>
	<line fill="none" stroke="#EDF2F5" stroke-width="3" stroke-miterlimit="10" x1="278.4" y1="598.8" x2="67" y2="686.5"/>
	<line fill="none" stroke="#EDF2F5" stroke-width="3" stroke-miterlimit="10" x1="96.8" y1="1038.3" x2="286.1" y2="889.2"/>
	<line fill="none" stroke="#EDF2F5" stroke-width="3" stroke-miterlimit="10" x1="1107.7" y1="1336.6" x2="1094.4" y2="1505.9"/>
	<line fill="none" stroke="#EDF2F5" stroke-width="3" stroke-miterlimit="10" x1="809.1" y1="1469.3" x2="1059" y2="1541.3"/>
	<line fill="none" stroke="#EDF2F5" stroke-width="3" stroke-miterlimit="10" x1="784.7" y1="1423" x2="784.7" y2="1275.8"/>
	<line fill="none" stroke="#EDF2F5" stroke-width="3" stroke-miterlimit="10" x1="818.2" y1="1251.6" x2="1082.1" y2="1294.3"/>
	<line fill="none" stroke="#EDF2F5" stroke-width="3" stroke-miterlimit="10" x1="534.7" y1="1303" x2="550.2" y2="1050.2"/>
	<line fill="none" stroke="#EDF2F5" stroke-width="3" stroke-miterlimit="10" x1="91.1" y1="1072.3" x2="274" y2="1129.8"/>
	<line fill="none" stroke="#EDF2F5" stroke-width="3" stroke-miterlimit="10" x1="339.6" y1="1129.8" x2="523.8" y2="1038.3"/>
	<line fill="none" stroke="#EDF2F5" stroke-width="3" stroke-miterlimit="10" x1="507.9" y1="1349.4" x2="328.9" y2="1399.7"/>
	<line fill="none" stroke="#EDF2F5" stroke-width="3" stroke-miterlimit="10" x1="571.3" y1="1356.5" x2="744.3" y2="1441.1"/>
	<line fill="none" stroke="#EDF2F5" stroke-width="3" stroke-miterlimit="10" x1="306.8" y1="1178.5" x2="293.5" y2="1364.3"/>
	<line fill="none" stroke="#EDF2F5" stroke-width="3" stroke-miterlimit="10" x1="550.2" y1="1372" x2="614.4" y2="1547.4"/>
	<line fill="none" stroke="#EDF2F5" stroke-width="3" stroke-miterlimit="10" x1="753.7" y1="1484.8" x2="661.2" y2="1553.8"/>
	<path fill="#FFFFFF" stroke="#EDF2F5" stroke-width="3" stroke-miterlimit="10" d="M585.6,1014.8c0,19.5-15.8,35.4-35.4,35.4
		c-19.6,0-35.4-15.8-35.4-35.4c0-19.6,15.8-35.4,35.4-35.4C569.7,979.4,585.6,995.2,585.6,1014.8z"/>
	<path fill="#FFFFFF" stroke="#EDF2F5" stroke-width="3" stroke-miterlimit="10" d="M890.9,988.2c0,19.5-15.9,35.4-35.4,35.4
		c-19.6,0-35.4-15.9-35.4-35.4c0-19.6,15.8-35.4,35.4-35.4C875,952.8,890.9,968.7,890.9,988.2z"/>
	<line fill="none" stroke="#EDF2F5" stroke-width="3" stroke-miterlimit="10" x1="583.8" y1="1025.8" x2="821.5" y2="998"/>
	<path fill="#FFFFFF" stroke="#00C9FF" stroke-width="3" stroke-miterlimit="10" d="M679.4,708.1c0,19.6-15.9,35.4-35.4,35.4
		c-19.6,0-35.4-15.8-35.4-35.4c0-19.5,15.8-35.4,35.4-35.4C663.5,672.7,679.4,688.5,679.4,708.1z"/>
	<path fill="#FFFFFF" stroke="#00C9FF" stroke-width="3" stroke-miterlimit="10" d="M973.3,705c0,19.6-15.8,35.4-35.4,35.4
		c-19.5,0-35.4-15.8-35.4-35.4c0-19.5,15.9-35.4,35.4-35.4C957.4,669.6,973.3,685.5,973.3,705z"/>
	<path fill="#FFFFFF" stroke="#EDF2F5" stroke-width="3" stroke-miterlimit="10" d="M1191.7,670.3c0,19.6-15.8,35.4-35.4,35.4
		c-19.5,0-35.4-15.8-35.4-35.4c0-19.5,15.9-35.4,35.4-35.4C1175.9,634.9,1191.7,650.8,1191.7,670.3z"/>
</g>
</svg>
