<!-- Generator: Adobe Illustrator 18.0.0, SVG Export Plug-In  -->
<svg version="1.1"
	 xmlns="http://www.w3.org/2000/svg" xmlns:xlink="http://www.w3.org/1999/xlink" xmlns:a="http://ns.adobe.com/AdobeSVGViewerExtensions/3.0/"
	 x="0px" y="0px" width="63.9px" height="149.9px" viewBox="0 0 63.9 149.9" enable-background="new 0 0 63.9 149.9"
	 xml:space="preserve">
<defs>
</defs>
<path fill="#FF3154" d="M30.9,32.9l0.6-0.8l14.7,14.7l8.2-8.1L39.5,23.8l0.7-0.6c7.2-6.6,15.1-11.9,23.7-16L56.7,0
	C23.1,17.2,0,52.3,0,92.6c0,20,5.7,39.4,16.5,56.2l0.8,1.2h12.9l17.5-15.3l-7.6-8.7l-17.1,14.9l-0.6-0.9
	c-8.4-14.4-12.9-30.8-12.9-47.4c0-0.5,0-0.9,0.1-1.5l0.1-1.7l20.8,0V77.7H10.9l0.2-1.1C13.8,60.6,20.7,45.5,30.9,32.9z"/>
</svg>
