<!-- Generator: Adobe Illustrator 18.0.0, SVG Export Plug-In  -->
<svg version="1.1"
	 xmlns="http://www.w3.org/2000/svg" xmlns:xlink="http://www.w3.org/1999/xlink" xmlns:a="http://ns.adobe.com/AdobeSVGViewerExtensions/3.0/"
	 x="0px" y="0px" width="207.9px" height="161.3px" viewBox="0 0 207.9 161.3" enable-background="new 0 0 207.9 161.3"
	 xml:space="preserve">
<defs>
</defs>
<path fill="#BEC8D2" d="M103.9,0C46.6,0,0,46.6,0,103.9c0,20,5.7,39.4,16.5,56.2l0.8,1.2h12.9L47.7,146l-7.6-8.7l-17.1,14.9
	l-0.6-0.9c-8.4-14.4-12.9-30.8-12.9-47.4c0-0.5,0-0.9,0.1-1.5l0.1-1.7l20.8,0V89.1H10.9l0.2-1.1c2.7-16.1,9.6-31.2,19.8-43.7
	l0.6-0.8l14.7,14.7l8.2-8.1L39.5,35.2l0.7-0.6c15.3-14.1,34.2-22.5,54.7-24.5l1-0.1l0,24h11.5V9.8l0.9,0.1
	c22.7,1,44.2,10.2,60.6,25.9l0.7,0.6l-15.2,15.2l8.2,8.1l14.8-14.8l0.6,0.8c9.7,12.3,16.2,26.9,18.8,42.3l0.2,1.1l-20.5,0v11.5h21.6
	l0.1,1.9c0,0.5,0.1,0.9,0.1,1.4c0,16.5-4.4,32.8-12.7,47.2l-0.6,1L168.8,136l-8.1,8.1l17.1,17.1h12.8l0.8-1.2
	c10.8-16.8,16.5-36.2,16.5-56.2C207.9,46.6,161.3,0,103.9,0L103.9,0z M103.9,0"/>
</svg>
