<!-- Generator: Adobe Illustrator 18.0.0, SVG Export Plug-In  -->
<svg version="1.1"
	 xmlns="http://www.w3.org/2000/svg" xmlns:xlink="http://www.w3.org/1999/xlink" xmlns:a="http://ns.adobe.com/AdobeSVGViewerExtensions/3.0/"
	 x="0px" y="0px" width="228px" height="445px" viewBox="0 0 228 445" enable-background="new 0 0 228 445" xml:space="preserve">
<defs>
</defs>
<path fill="#333333" d="M228,32.8C228,14.7,213.3,0,195.2,0H32.8C14.7,0,0,14.7,0,32.8v379.4C0,430.3,14.7,445,32.8,445h162.4
	c18.1,0,32.8-14.7,32.8-32.8V32.8z M137,37.8c0,2.9-2.3,5.2-5.2,5.2H96.2c-2.9,0-5.2-2.3-5.2-5.2v-0.6c0-2.9,2.3-5.2,5.2-5.2h35.6
	c2.9,0,5.2,2.3,5.2,5.2V37.8z M112.8,427.4c-11.8,0-21.4-9.6-21.4-21.4c0-11.8,9.6-21.4,21.4-21.4c11.8,0,21.4,9.6,21.4,21.4
	C134.3,417.8,124.7,427.4,112.8,427.4z M211,367H16V75h195V367z"/>
<rect x="154.6" y="144" fill="none" stroke="#124191" stroke-linecap="round" stroke-miterlimit="10" width="28" height="99.6"/>
<rect x="117.2" y="170.3" fill="none" stroke="#124191" stroke-linecap="round" stroke-miterlimit="10" width="28" height="73.4"/>
<rect x="79.7" y="194.9" fill="none" stroke="#124191" stroke-linecap="round" stroke-miterlimit="10" width="28" height="48.8"/>
</svg>
