<!-- Generator: Adobe Illustrator 18.0.0, SVG Export Plug-In  -->
<svg version="1.1"
	 xmlns="http://www.w3.org/2000/svg" xmlns:xlink="http://www.w3.org/1999/xlink" xmlns:a="http://ns.adobe.com/AdobeSVGViewerExtensions/3.0/"
	 x="0px" y="0px" width="45.8px" height="96.4px" viewBox="0 0 45.8 96.4" enable-background="new 0 0 45.8 96.4"
	 xml:space="preserve">
<defs>
</defs>
<g>
	<path fill="#124191" d="M22.9,16.6c12,0,22.2-3.8,22.2-8.3C45.1,3.8,34.9,0,22.9,0S0.7,3.8,0.7,8.3C0.7,12.8,10.9,16.6,22.9,16.6z"
		/>
	<path fill="#124191" d="M22.9,18.7c-11.2,0-20.4-3.1-22.9-7.3v76.1c0,2.3,2.2,4.4,5.9,5.9c4.2,1.8,10.3,2.9,17,2.9
		c12.6,0,22.9-4,22.9-8.9V11.4C43.3,15.6,34.1,18.7,22.9,18.7z"/>
</g>
<path fill="none" stroke="#00C9FF" stroke-width="2" stroke-miterlimit="10" d="M22.9,3.5c-9.7,0-15.6,3.1-15.6,4.8
	c0,1.7,5.9,4.8,15.6,4.8c9.7,0,15.6-3.1,15.6-4.8C38.5,6.6,32.6,3.5,22.9,3.5z"/>
</svg>
