<!-- Generator: Adobe Illustrator 18.0.0, SVG Export Plug-In  -->
<svg version="1.1"
	 xmlns="http://www.w3.org/2000/svg" xmlns:xlink="http://www.w3.org/1999/xlink" xmlns:a="http://ns.adobe.com/AdobeSVGViewerExtensions/3.0/"
	 x="0px" y="0px" width="1330.4px" height="835.6px" viewBox="0 0 1330.4 835.6" enable-background="new 0 0 1330.4 835.6"
	 xml:space="preserve">
<defs>
</defs>
<g>
	<rect x="5.9" y="0" fill="#FFFFFF" width="1318.7" height="770.8"/>
	<g>
		<text transform="matrix(1 0 0 1 88.1457 179.8419)" font-family="'NokiaPureText-Regular'" font-size="18.3347">KQIs</text>
		<text transform="matrix(1 0 0 1 126.917 247.6802)" font-family="'NokiaPureText-Regular'" font-size="9.1673">Wi-Fi Connection Signal Score</text>
		<text transform="matrix(1 0 0 1 244.4099 316.4354)" font-family="'NokiaPureText-Regular'" font-size="9.1673">16-Dec 00:00</text>
		<text transform="matrix(1 0 0 1 319.2029 316.4354)" font-family="'NokiaPureText-Regular'" font-size="9.1673">16-Dec 02:00</text>
		<text transform="matrix(1 0 0 1 420.3913 316.4354)" font-family="'NokiaPureText-Regular'" font-size="9.1673">16-Dec 04:46</text>
		<text transform="matrix(1 0 0 1 526.353 315.5189)" font-family="'NokiaPureText-Regular'" font-size="9.1673">16-Dec 07:33</text>
		<text transform="matrix(1 0 0 1 629.3748 315.5189)" font-family="'NokiaPureText-Regular'" font-size="9.1673">16-Dec 10:20</text>
		<text transform="matrix(1 0 0 1 734.407 315.5189)" font-family="'NokiaPureText-Regular'" font-size="9.1673">16-Dec 13:06</text>
		<text transform="matrix(1 0 0 1 840.7485 315.5189)" font-family="'NokiaPureText-Regular'" font-size="9.1673">16-Dec 15:53</text>
		<text transform="matrix(1 0 0 1 943.5234 315.5189)" font-family="'NokiaPureText-Regular'" font-size="9.1673">16-Dec 18:40</text>
		<text transform="matrix(1 0 0 1 1046.1978 315.5189)" font-family="'NokiaPureText-Regular'" font-size="9.1673">16-Dec 21:26</text>
		<text transform="matrix(1 0 0 1 1145.2046 315.5189)" font-family="'NokiaPureText-Regular'" font-size="9.1673">16-Dec 23:59</text>
		<text transform="matrix(1 0 0 1 1148.3093 244.0167)" font-family="'NokiaPureText-Regular'" font-size="9.1673">Bad</text>
		<text transform="matrix(1 0 0 1 1076.2026 244.0167)" font-family="'NokiaPureText-Regular'" font-size="9.1673">Average</text>
		<text transform="matrix(1 0 0 1 1021.3042 244.0167)" font-family="'NokiaPureText-Regular'" font-size="9.1673">Good</text>
		<text transform="matrix(1 0 0 1 122.3886 284.3499)" font-family="'NokiaPureText-Regular'" font-size="9.1673">Wi-Fi Connection Quality Score</text>
		<circle fill="#FF8B10" cx="272.9" cy="245.4" r="11"/>
		<circle fill="#FF8B10" cx="310.3" cy="245.4" r="11"/>
		<circle fill="#4BDD33" stroke="#231F20" stroke-miterlimit="10" cx="347.7" cy="245.4" r="11"/>
		<circle fill="#FF8B10" cx="385.1" cy="245.4" r="11"/>
		<circle fill="#FF8B10" cx="422.5" cy="245.4" r="11"/>
		<circle fill="#FF8B10" cx="459.8" cy="245.4" r="11"/>
		<circle fill="#FF8B10" cx="497.2" cy="245.4" r="11"/>
		<circle fill="#FF8B10" cx="534.6" cy="245.4" r="11"/>
		<circle fill="#FF8B10" cx="572" cy="245.4" r="11"/>
		<circle fill="#FF8B10" cx="609.4" cy="245.4" r="11"/>
		<circle fill="#FF3154" cx="646.8" cy="245.4" r="11"/>
		<circle fill="#FF3154" cx="684.2" cy="245.4" r="11"/>
		<circle fill="#FF3154" cx="721.6" cy="245.4" r="11"/>
		<circle fill="#FFFFFF" stroke="#231F20" stroke-miterlimit="10" cx="1006.6" cy="241.3" r="6"/>
		<circle fill="#FF8B10" cx="1062.6" cy="241.3" r="6"/>
		<circle fill="#FF3154" cx="1129.6" cy="241.3" r="6"/>
		<circle fill="#4BDD33" stroke="#231F20" stroke-miterlimit="10" cx="272.9" cy="283" r="11"/>
		<circle fill="#4BDD33" stroke="#231F20" stroke-miterlimit="10" cx="310.3" cy="283" r="11"/>
		<circle fill="#4BDD33" stroke="#231F20" stroke-miterlimit="10" cx="347.7" cy="283" r="11"/>
		<circle fill="#4BDD33" stroke="#231F20" stroke-miterlimit="10" cx="385.1" cy="283" r="11"/>
		<circle fill="#4BDD33" stroke="#231F20" stroke-miterlimit="10" cx="422.5" cy="283" r="11"/>
		<circle fill="#4BDD33" stroke="#231F20" stroke-miterlimit="10" cx="459.8" cy="283" r="11"/>
		<circle fill="#4BDD33" stroke="#231F20" stroke-miterlimit="10" cx="497.2" cy="283" r="11"/>
		<circle fill="#4BDD33" stroke="#231F20" stroke-miterlimit="10" cx="534.6" cy="283" r="11"/>
		<circle fill="#4BDD33" stroke="#231F20" stroke-miterlimit="10" cx="572" cy="283" r="11"/>
		<circle fill="#4BDD33" stroke="#231F20" stroke-miterlimit="10" cx="609.4" cy="283" r="11"/>
		<circle fill="#4BDD33" stroke="#231F20" stroke-miterlimit="10" cx="646.8" cy="283" r="11"/>
		<circle fill="#4BDD33" stroke="#231F20" stroke-miterlimit="10" cx="684.2" cy="283" r="11"/>
		<circle fill="#4BDD33" stroke="#231F20" stroke-miterlimit="10" cx="721.6" cy="283" r="11"/>
	</g>
	<g>
		
			<line fill="none" stroke="#EDF2F5" stroke-width="2" stroke-linecap="round" stroke-miterlimit="10" x1="1212.5" y1="541" x2="140.4" y2="541"/>
		
			<line fill="none" stroke="#BEC8D2" stroke-width="2" stroke-linecap="round" stroke-miterlimit="10" x1="1212.5" y1="591.5" x2="140.4" y2="591.5"/>
		
			<line fill="none" stroke="#EDF2F5" stroke-width="2" stroke-linecap="round" stroke-miterlimit="10" x1="1212.5" y1="492.4" x2="140.4" y2="492.4"/>
		<text transform="matrix(1 0 0 1 88.1457 405.9476)" font-family="'NokiaPureText-Regular'" font-size="18.3347">Observations</text>
		<rect x="150.3" y="449.9" fill="#124191" width="42.8" height="141.6"/>
		<rect x="198.9" y="449.9" fill="#124191" width="42.8" height="141.6"/>
		<rect x="247.5" y="449.9" fill="#124191" width="42.8" height="141.6"/>
		<rect x="296.1" y="449.9" fill="#124191" width="42.8" height="141.6"/>
		<rect x="344.7" y="449.9" fill="#124191" width="42.8" height="141.6"/>
		<rect x="393.3" y="449.9" fill="#124191" width="42.8" height="141.6"/>
		<rect x="441.9" y="449.9" fill="#124191" width="42.8" height="141.6"/>
		<rect x="490.5" y="449.9" fill="#124191" width="42.8" height="141.6"/>
		<rect x="539.1" y="449.9" fill="#124191" width="42.8" height="141.6"/>
		<rect x="587.7" y="449.9" fill="#124191" width="42.8" height="141.6"/>
		<rect x="636.2" y="449.9" fill="#124191" width="42.8" height="141.6"/>
		<rect x="684.8" y="449.9" fill="#124191" width="42.8" height="141.6"/>
		<text transform="matrix(1 0 0 1 143.2798 610.7974)" font-family="'NokiaPureText-Regular'" font-size="9.1673">16-Dec 00:00</text>
		<text transform="matrix(1 0 0 1 120.1504 591.544)" font-family="'NokiaPureText-Regular'" font-size="9.1673">0.0</text>
		<text transform="matrix(1 0 0 1 120.1504 456.7855)" font-family="'NokiaPureText-Regular'" font-size="9.1673">1.0</text>
		<text transform="matrix(0 -1 1 0 110.1496 531.963)" font-family="'NokiaPureText-Regular'" font-size="9.1673">Value</text>
		<text transform="matrix(1 0 0 1 286.1655 610.7974)" font-family="'NokiaPureText-Regular'" font-size="9.1673">16-Dec 03:00</text>
		<text transform="matrix(1 0 0 1 386.0779 609.5211)" font-family="'NokiaPureText-Regular'" font-size="9.1673">16-Dec 05:00</text>
		<text transform="matrix(1 0 0 1 483.4128 609.8807)" font-family="'NokiaPureText-Regular'" font-size="9.1673">16-Dec 07:00</text>
		<text transform="matrix(1 0 0 1 580.5935 609.8807)" font-family="'NokiaPureText-Regular'" font-size="9.1673">16-Dec 09:00</text>
		<text transform="matrix(1 0 0 1 677.7749 609.8807)" font-family="'NokiaPureText-Regular'" font-size="9.1673">16-Dec 11:00</text>
		<text transform="matrix(1 0 0 1 777.2527 609.8807)" font-family="'NokiaPureText-Regular'" font-size="9.1673">16-Dec 13:00</text>
		<text transform="matrix(1 0 0 1 873.8481 609.8807)" font-family="'NokiaPureText-Regular'" font-size="9.1673">16-Dec 17:00</text>
		<text transform="matrix(1 0 0 1 969.6733 609.8807)" font-family="'NokiaPureText-Regular'" font-size="9.1673">16-Dec 19:00</text>
		<text transform="matrix(1 0 0 1 1062.1421 609.8807)" font-family="'NokiaPureText-Regular'" font-size="9.1673">16-Dec 21:00</text>
		<text transform="matrix(1 0 0 1 1149.4529 609.8807)" font-family="'NokiaPureText-Bold'" font-size="9.1673">16-Dec 23:00</text>
		<text transform="matrix(1 0 0 1 968.4741 409.8072)" font-family="'NokiaPureText-Regular'" font-size="12.8343">WiFi_Connection_Qaulity_Observation</text>
		<polygon points="1199.7,401.9 1212.5,401.9 1206.1,410 		"/>
		
			<line fill="#BEC8D2" stroke="#EDF2F5" stroke-width="2" stroke-linecap="round" stroke-miterlimit="10" x1="968.7" y1="417.5" x2="1216.2" y2="417.5"/>
		<text transform="matrix(1 0 0 1 1169.4302 465.501)" font-family="'NokiaPureText-Regular'" font-size="9.1673">Good</text>
		<circle fill="#124191" cx="1154.8" cy="462.7" r="6"/>
		
			<line fill="none" stroke="#BEC8D2" stroke-width="2" stroke-linecap="round" stroke-miterlimit="10" x1="140.4" y1="449.9" x2="140.4" y2="591.5"/>
		
			<line fill="none" stroke="#EDF2F5" stroke-width="2" stroke-linecap="round" stroke-miterlimit="10" x1="805.7" y1="449.9" x2="805.7" y2="591.5"/>
		
			<line fill="none" stroke="#EDF2F5" stroke-width="2" stroke-linecap="round" stroke-miterlimit="10" x1="902.3" y1="449.9" x2="902.3" y2="591.5"/>
		
			<line fill="none" stroke="#EDF2F5" stroke-width="2" stroke-linecap="round" stroke-miterlimit="10" x1="998.1" y1="449.9" x2="998.1" y2="591.5"/>
	</g>
</g>
<text transform="matrix(1 0 0 1 542.2076 118.597)" fill="#0D1023" font-family="'NokiaPureText-Light'" font-size="36">Home Analytics</text>
<g>
	<rect x="0" y="711.5" fill="#124191" width="1330.4" height="124"/>
	<text transform="matrix(1 0 0 1 391.0808 784.7669)" fill="#FFFFFF" font-family="'NokiaPureText-Regular'" font-size="40">Tests confirm slow connection</text>
</g>
</svg>
