<!-- Generator: Adobe Illustrator 18.0.0, SVG Export Plug-In  -->
<svg version="1.1"
	 xmlns="http://www.w3.org/2000/svg" xmlns:xlink="http://www.w3.org/1999/xlink" xmlns:a="http://ns.adobe.com/AdobeSVGViewerExtensions/3.0/"
	 x="0px" y="0px" width="64.6px" height="64.6px" viewBox="0 0 64.6 64.6" enable-background="new 0 0 64.6 64.6"
	 xml:space="preserve">
<defs>
</defs>
<path fill="#BEC8D2" d="M32.3,0C14.5,0,0,14.5,0,32.3s14.5,32.3,32.3,32.3c17.8,0,32.3-14.5,32.3-32.3S50.2,0,32.3,0z M26,21
	c0-3.5,2.8-6.3,6.3-6.3c3.5,0,6.3,2.8,6.3,6.3v14.8c0,3.5-2.8,6.3-6.3,6.3c-3.5,0-6.3-2.8-6.3-6.3V21z M33,44.9v2.9h3.5v1.4h-8.4
	v-1.4h3.5v-2.9c-4.7-0.4-8.4-4.3-8.4-9.1h1.4c0,4.3,3.5,7.7,7.7,7.7c4.3,0,7.7-3.5,7.7-7.7h1.4C41.5,40.6,37.7,44.5,33,44.9z"/>
</svg>
