<?xml version="1.0" encoding="UTF-8" standalone="no"?>
<svg width="31px" height="31px" viewBox="0 0 31 31" version="1.1" xmlns="http://www.w3.org/2000/svg" xmlns:xlink="http://www.w3.org/1999/xlink">
    <!-- Generator: Sketch 41 (35326) - http://www.bohemiancoding.com/sketch -->
    <title>Group</title>
    <desc>Created with Sketch.</desc>
    <defs></defs>
    <g id="Inner" stroke="none" stroke-width="1" fill="none" fill-rule="evenodd">
        <g id="BT-Detail" transform="translate(-962.000000, -1370.000000)" stroke="#649EE6" stroke-width="1.5">
            <g id="Group" transform="translate(963.000000, 1371.000000)">
                <polyline id="Stroke-3628" stroke-linecap="round" points="25.5368764 19.7587851 21.0303688 24.7650903 18.5267534 22.2619377"></polyline>
                <path d="M29.0419378,22.2619377 C29.0419378,26.1328129 25.9029049,29.2707649 22.0318149,29.2707649 C18.1607249,29.2707649 15.021692,26.1328129 15.021692,22.2619377 C15.021692,18.3910625 18.1607249,15.2531105 22.0318149,15.2531105 C25.9029049,15.2531105 29.0419378,18.3910625 29.0419378,22.2619377 L29.0419378,22.2619377 Z" id="Stroke-3629"></path>
                <path d="M11.9953718,26.2669818 L2.00294234,26.2669818 C0.614437274,26.2669818 5.00723067e-05,25.6532088 5.00723067e-05,24.2644598 L5.00723067e-05,4.23923909 L5.00728073,4.23923909" id="Stroke-3630" stroke-linecap="round" stroke-linejoin="round"></path>
                <polyline id="Stroke-3631" stroke-linecap="round" stroke-linejoin="round" points="11.3640602 24.2644598 2.00304248 24.2644598 2.00304248 6.24176116 5.00738087 6.24176116"></polyline>
                <polyline id="Stroke-3632" stroke-linecap="round" stroke-linejoin="round" points="20.0289226 11.5961547 20.0289226 4.23938928 15.021692 4.23938928"></polyline>
                <path d="M12.6266334,2.23671702 C12.6266334,1.1914005 11.9952216,0.234194956 10.101487,0.234194956 C8.20725163,0.234194956 7.57634056,1.1914005 7.57634056,2.23671702 L5.00713051,2.23671702 L5.00713051,8.24428323 L15.0215918,8.24428323 L15.0215918,2.23671702 L12.6266334,2.23671702 L12.6266334,2.23671702 Z" id="Stroke-3633" stroke-linecap="round" stroke-linejoin="round"></path>
                <polyline id="Stroke-3634" stroke-linecap="round" stroke-linejoin="round" points="15.021692 6.24176116 18.0260304 6.24176116 18.0260304 11.7486968"></polyline>
                <path d="M6.3133167,11 L12.6264331,11" id="Stroke-3635" stroke-linecap="round" stroke-linejoin="round"></path>
                <path d="M6.3133167,14 L12.6264331,14" id="Stroke-3636" stroke-linecap="round" stroke-linejoin="round"></path>
                <path d="M6.3133167,17 L12.6264331,17" id="Stroke-3637" stroke-linecap="round" stroke-linejoin="round"></path>
                <path d="M6.3133167,20 L10.1012867,20" id="Stroke-3638" stroke-linecap="round" stroke-linejoin="round"></path>
            </g>
        </g>
    </g>
</svg>