<?xml version="1.0" encoding="UTF-8" standalone="no"?>
<svg width="31px" height="28px" viewBox="0 0 31 28" version="1.1" xmlns="http://www.w3.org/2000/svg" xmlns:xlink="http://www.w3.org/1999/xlink">
    <!-- Generator: Sketch 41 (35326) - http://www.bohemiancoding.com/sketch -->
    <title>Stroke 4285 + Stroke 4286 + Fill 4287 Copy</title>
    <desc>Created with Sketch.</desc>
    <defs></defs>
    <g id="Inner" stroke="none" stroke-width="1" fill="none" fill-rule="evenodd" opacity="0.5">
        <g id="BT-Detail" transform="translate(-946.000000, -4569.000000)">
            <g id="Stroke-4285-+-Stroke-4286-+-Fill-4287-Copy" transform="translate(947.000000, 4570.000000)">
                <path d="M24.5354302,18.2568936 L24.5354302,18.2568936 C25.5814407,18.2568936 26.5383225,18.7575241 26.5383225,20.2594156 C26.5383225,21.3057334 25.5814407,21.7613072 24.5354302,21.7613072 L23.033261,21.7613072 C24.0792715,21.7613072 25.0361533,22.216881 25.0361533,23.2631987 C25.0361533,24.3095165 24.5799946,24.7650903 23.5339841,24.7650903 L15.021692,24.7650903 C11.4229953,24.7650903 10.4280586,23.8944938 6.00867679,23.2631987 L6.00867679,12.7499579 C9.10264461,12.7499579 14.5209689,6.94664893 14.5209689,1.8967889 C14.5209689,-0.098724338 17.2849602,-0.842160656 18.3089389,2.80443203 C18.9403507,5.05276368 17.0245842,9.74617478 17.0245842,9.74617478 L27.0390456,9.74617478 C28.085056,9.74617478 29.0419378,10.7023791 29.0419378,11.7486968 C29.0419378,12.7950146 28.398008,14.2518494 27.0390456,14.2518494 L25.4632701,14.2518494 C26.8222325,14.2518494 28.0404917,15.2080537 28.0404917,16.2543715 C28.0404917,17.3006893 27.0836099,18.2568936 26.0375994,18.2568936 L24.5354302,18.2568936" id="Stroke-4285" stroke="#1F2833" stroke-width="1.5" stroke-linecap="round" stroke-linejoin="round"></path>
                <polygon id="Stroke-4286" stroke="#1F2833" stroke-width="1.5" stroke-linecap="round" stroke-linejoin="round" points="6.00867679 25.7663513 0 25.7663513 0 10.7344194 6.00867679 10.7474358"></polygon>
                <path d="M3.78817028,22.7283251 C3.43966703,22.7283251 3.1567585,23.0096794 3.1567585,23.3586189 C3.1567585,23.7070578 3.43966703,23.9904146 3.78817028,23.9904146 C4.13667354,23.9904146 4.41958207,23.7070578 4.41958207,23.3586189 C4.41958207,23.0096794 4.13667354,22.7283251 3.78817028,22.7283251" id="Fill-4287" fill="#1F2833"></path>
            </g>
        </g>
    </g>
</svg>