<?xml version="1.0" encoding="UTF-8" standalone="no"?>
<svg width="27px" height="33px" viewBox="0 0 27 33" version="1.1" xmlns="http://www.w3.org/2000/svg" xmlns:xlink="http://www.w3.org/1999/xlink">
    <!-- Generator: Sketch 41 (35326) - http://www.bohemiancoding.com/sketch -->
    <title>thin-0661_like_thumb_up_vote</title>
    <desc>Created with Sketch.</desc>
    <defs></defs>
    <g id="Inner" stroke="none" stroke-width="1" fill="none" fill-rule="evenodd">
        <g id="BT-Detail" transform="translate(-964.000000, -1191.000000)" stroke="#649EE6" stroke-width="1.5">
            <g id="thin-0661_like_thumb_up_vote" transform="translate(964.000000, 1192.000000)">
                <path d="M10.2854987,19.7427715 C11.6376298,20.2000622 12.3918486,20.3885493 13.3665999,21.6961954 C13.5517067,21.9443114 13.4567871,22.2969472 13.1771664,22.4206672 C7.62896665,24.8749205 8.81776035,24.6053055 5.35549335,24.6053055 C3.61827526,24.6053055 1.68391645,24.2529401 1.68391645,22.5073388 C1.68391645,22.1325281 1.82683671,21.7393283 2.10929691,21.3377454 L2.56685809,20.6231441 M12.0938389,22.8998625 C13.0188318,23.4627547 13.5084385,23.6258217 14.2411584,24.4667121 C14.4269412,24.7054984 14.6220537,24.884791 14.5475513,25.169009 C14.5107733,25.3093602 14.4122029,25.4255083 14.2796941,25.4847316 C8.85115799,27.9068041 9.63918002,27.7563119 7.119078,27.7563119 C5.38524024,27.7563119 3.57189716,27.4002958 3.57189716,25.672137 L3.93643172,24.5079521 M12.9233713,26.0896751 C13.7239682,26.8974382 15.8823751,28.5467678 14.8370426,29.0178503 L11.0295765,30.7338399 C10.1064765,31.1498907 8.21687327,31.112031 7.2953959,30.4793688 C6.29657663,29.7945144 6.44328286,28.8930486 6.50507525,27.7388694 M4.48120536,17.5220313 L5.41282371,17.47998 C6.28048627,17.1249104 7.50997911,16.6374671 8.45133281,16.6374671 C10.8007959,16.6374671 12.3957698,18.7916824 11.5374369,19.1785272 L7.6614178,20.9253454 C5.73909296,21.7916558 1.6071154,21.6430566 0.848569834,18.0350299 C0.486063475,16.310657 1.27124603,15.0500652 3.1670691,14.2999028 C4.61817624,13.7322781 6.78361426,13.4453559 9.60402461,13.4453559 L10.0552308,13.4453559 C10.0552308,13.4453559 9.37943563,9.11704892 8.06502895,6.93470926 L8.06097255,6.92916552 C7.37517164,5.75172972 6.76400836,4.74276947 6.76400836,3.33601223 C6.76400836,-0.446845066 10.3010482,-0.317986968 10.7579333,1.80296594 L10.7579333,1.80296594 C11.4936279,5.21885484 13.2906102,6.65251949 16.5346432,10.1068089 C16.5435673,10.1170851 16.552897,10.1279022 16.5616858,10.1380431 C17.0160019,10.705803 20.2596293,15.0353269 20.920551,15.3383395 C21.2021999,15.4697667 25.1874712,15.6880006 25.1874712,15.6880006 C25.8155361,17.4263004 26.2241502,19.1009148 26.2241502,21.2197043 C26.2241502,23.0838875 25.8278405,24.651954 25.2719794,26.2615309 L22.0145603,26.2615309 C21.7252042,26.2615309 21.4549132,26.396068 21.2718347,26.6201161 C19.8684577,28.3381339 18.1862714,29.734615 16.0282701,30.9801982 C14.5948759,31.3971954 12.8669875,30.8720277 11.5236452,30.5110087" id="Shape"></path>
            </g>
        </g>
    </g>
</svg>