<?xml version="1.0" encoding="UTF-8" standalone="no"?>
<svg width="55px" height="55px" viewBox="0 0 55 55" version="1.1" xmlns="http://www.w3.org/2000/svg" xmlns:xlink="http://www.w3.org/1999/xlink">
    <!-- Generator: Sketch 41 (35326) - http://www.bohemiancoding.com/sketch -->
    <title>Group 12</title>
    <desc>Created with Sketch.</desc>
    <defs>
        <linearGradient x1="100%" y1="100%" x2="-24.1249127%" y2="-44.4103207%" id="linearGradient-1">
            <stop stop-color="#75E0C6" offset="0%"></stop>
            <stop stop-color="#3AA6DD" offset="87.6251177%"></stop>
            <stop stop-color="#3AA6DD" offset="87.6251177%"></stop>
            <stop stop-color="#329DE4" offset="100%"></stop>
        </linearGradient>
    </defs>
    <g id="Inner" stroke="none" stroke-width="1" fill="none" fill-rule="evenodd">
        <g id="Product-FF" transform="translate(-120.000000, -1376.000000)">
            <g id="Group-4" transform="translate(85.000000, 830.000000)">
                <g id="Group-12" transform="translate(35.000000, 546.000000)">
                    <rect id="Rectangle-4" fill="url(#linearGradient-1)" x="0" y="0" width="55" height="55" rx="27.5"></rect>
                    <path d="M26.9117668,23.1181456 C24.5425068,23.1181456 22.615606,25.0360316 22.615606,27.3942074 C22.615606,29.7523832 24.5425068,31.6710771 26.9117668,31.6710771 C27.9831691,31.6710771 29.0099296,31.2760281 29.8013063,30.5586385 C29.8224097,30.5400575 30.905987,29.5625335 32.7362992,27.196279 C30.8507935,24.9738256 29.652771,24.0972854 29.6397843,24.087591 C28.8191876,23.4396783 27.8938856,23.1181456 26.9117668,23.1181456 M27.300556,16.0476577 C21.0141843,16.0476577 15.9006735,21.1380535 15.9006735,27.3942074 C15.9006735,33.6511692 21.0141843,38.7407572 27.300556,38.7407572 C31.3418529,38.7407572 35.0211457,36.6491789 37.0787251,33.2326919 C36.2362133,31.8811236 35.3823382,30.6200368 34.526028,29.4615496 C32.7720126,31.6670377 31.7314537,32.5944737 31.679507,32.6397145 C30.3832725,33.8143591 28.6852623,34.4679269 26.9117668,34.4679269 C22.9930319,34.4679269 19.8047984,31.2946091 19.8047984,27.3942074 C19.8047984,23.4938057 22.9930319,20.320488 26.9117668,20.320488 C28.5140002,20.320488 30.0845786,20.8666088 31.3361712,21.8578667 C31.3459112,21.8627139 32.5479921,22.7263281 34.4399912,24.876881 C35.2370495,23.7393985 36.0462829,22.5130502 36.8595746,21.2091462 C34.7646585,18.0059372 31.1722142,16.0476577 27.300556,16.0476577 M27.300556,41.5384148 C19.4647094,41.5384148 13.0898658,35.1933951 13.0898658,27.3942074 C13.0898658,19.5950197 19.4647094,13.25 27.300556,13.25 C32.4619553,13.25 37.2264487,16.0428104 39.7328807,20.539421 L40.1297866,21.2503476 L39.7044723,21.9459246 C38.5543382,23.824225 37.4066391,25.5635715 36.2832901,27.1292257 C37.5040393,28.725579 38.7207302,30.518245 39.9073894,32.4732931 L40.312412,33.1405946 L39.9552779,33.8345559 C37.5105327,38.5872616 32.660814,41.5384148 27.300556,41.5384148" id="Fill-1" fill="#FFFFFF"></path>
                </g>
            </g>
        </g>
    </g>
</svg>