<?xml version="1.0" encoding="UTF-8" standalone="no"?>
<svg width="31px" height="21px" viewBox="0 0 31 21" version="1.1" xmlns="http://www.w3.org/2000/svg" xmlns:xlink="http://www.w3.org/1999/xlink">
    <!-- Generator: Sketch 41 (35326) - http://www.bohemiancoding.com/sketch -->
    <title>Group</title>
    <desc>Created with Sketch.</desc>
    <defs></defs>
    <g id="Inner" stroke="none" stroke-width="1" fill="none" fill-rule="evenodd" stroke-linecap="round">
        <g id="BT-Detail" transform="translate(-961.000000, -1251.000000)" stroke="#649EE6" stroke-width="1.5">
            <g id="Group" transform="translate(962.000000, 1252.000000)">
                <polygon id="Stroke-4432" points="29.0419378 18.2569937 0 18.2569937 0 0.234295082 29.0419378 0.234295082"></polygon>
                <path d="M18.0260304,9.24554426 C18.0260304,11.1814825 16.4567643,12.7499579 14.5204682,12.7499579 C12.5841721,12.7499579 11.0159074,11.1814825 11.0159074,9.24554426 C11.0159074,7.31010668 12.5841721,5.74113064 14.5204682,5.74113064 C16.4567643,5.74113064 18.0260304,7.31010668 18.0260304,9.24554426 L18.0260304,9.24554426 Z" id="Stroke-4433" stroke-linejoin="round"></path>
                <path d="M24.0347072,12.2483261 C24.0347072,12.8010222 23.58656,13.2505884 23.033261,13.2505884 C22.479962,13.2505884 22.0318149,12.8010222 22.0318149,12.2483261 C22.0318149,11.69563 22.479962,11.2480663 23.033261,11.2480663 C23.58656,11.2480663 24.0347072,11.69563 24.0347072,12.2483261 L24.0347072,12.2483261 Z" id="Stroke-4434" stroke-linejoin="round"></path>
                <path d="M7.01012292,6.2407599 C7.01012292,6.79345599 6.56197578,7.24302219 6.00867679,7.24302219 C5.4553778,7.24302219 5.00723066,6.79345599 5.00723066,6.2407599 C5.00723066,5.68806381 5.4553778,5.24050013 6.00867679,5.24050013 C6.56197578,5.24050013 7.01012292,5.68806381 7.01012292,6.2407599 L7.01012292,6.2407599 Z" id="Stroke-4435" stroke-linejoin="round"></path>
                <path d="M27.0390456,13.7512189 C27.0390456,15.1459755 25.929944,16.2543715 24.5354302,16.2543715 L4.50650759,16.2543715 C3.11199385,16.2543715 2.00289226,15.1459755 2.00289226,13.7512189 L2.00289226,4.73986961 C2.00289226,3.34561362 3.11199385,2.23671702 4.50650759,2.23671702 L24.5354302,2.23671702 C25.929944,2.23671702 27.0390456,3.34561362 27.0390456,4.73986961 L27.0390456,13.7512189 L27.0390456,13.7512189 Z" id="Stroke-4436"></path>
            </g>
        </g>
    </g>
</svg>