<?xml version="1.0" encoding="UTF-8" standalone="no"?>
<svg width="25px" height="26px" viewBox="0 0 25 26" version="1.1" xmlns="http://www.w3.org/2000/svg" xmlns:xlink="http://www.w3.org/1999/xlink">
    <!-- Generator: Sketch 41 (35326) - http://www.bohemiancoding.com/sketch -->
    <title>Group 12</title>
    <desc>Created with Sketch.</desc>
    <defs>
        <linearGradient x1="100%" y1="8.50672728%" x2="0%" y2="97.8853988%" id="linearGradient-1">
            <stop stop-color="#10B5E9" offset="0%"></stop>
            <stop stop-color="#336FE9" offset="57.4418048%"></stop>
            <stop stop-color="#4B46E7" offset="100%"></stop>
        </linearGradient>
    </defs>
    <g id="Inner" stroke="none" stroke-width="1" fill="none" fill-rule="evenodd">
        <g id="BT-Detail" transform="translate(-236.000000, -5497.000000)" fill="url(#linearGradient-1)">
            <g id="Group-14" transform="translate(83.000000, 4691.000000)">
                <g id="Group-10-Copy" transform="translate(93.000000, 795.000000)">
                    <g id="Group-12" transform="translate(60.000000, 11.000000)">
                        <path d="M12.7632037,9.22270093 C10.6766395,9.22270093 8.97965305,10.8759802 8.97965305,12.9088034 C8.97965305,14.9416266 10.6766395,16.5956023 12.7632037,16.5956023 C13.7067683,16.5956023 14.6110176,16.2550574 15.3079686,15.6366446 C15.326554,15.6206271 16.2808408,14.77797 17.8927635,12.7381827 C16.2322329,10.8223566 15.1771563,10.0667508 15.1657191,10.0583939 C14.4430345,9.49987243 13.6281379,9.22270093 12.7632037,9.22270093 M13.1056033,3.12771345 C7.56931005,3.12771345 3.06593401,7.51579801 3.06593401,12.9088034 C3.06593401,18.3025052 7.56931005,22.6898933 13.1056033,22.6898933 C16.6647,22.6898933 19.9049863,20.8868857 21.717059,17.9417644 C20.9750742,16.7766691 20.2230819,15.6895718 19.4689451,14.6909187 C17.9242157,16.5921202 17.0078144,17.3915998 16.9620658,17.4305988 C15.8204957,18.4431802 14.3250889,19.0065765 12.7632037,19.0065765 C9.3120451,19.0065765 6.50422588,16.2710748 6.50422588,12.9088034 C6.50422588,9.54653196 9.3120451,6.81103026 12.7632037,6.81103026 C14.1742616,6.81103026 15.5574414,7.28180398 16.6596963,8.13630005 C16.6682741,8.14047852 17.7269249,8.88494168 19.393174,10.7387873 C20.0951288,9.75824085 20.807806,8.70108923 21.5240572,7.57708216 C19.6791027,4.81581327 16.5153023,3.12771345 13.1056033,3.12771345 M13.1056033,25.101564 C6.20471563,25.101564 0.590506836,19.6319534 0.590506836,12.9088034 C0.590506836,6.18565335 6.20471563,0.716042781 13.1056033,0.716042781 C17.6511538,0.716042781 21.8471566,3.12353498 24.0545256,6.9997576 L24.4040734,7.61259912 L24.0295069,8.21220883 C23.0166047,9.83136398 22.0058469,11.3307365 21.0165339,12.6803806 C22.0916255,14.0564884 23.1631431,15.601824 24.2082123,17.2871382 L24.5649083,17.8623735 L24.2503868,18.4605904 C22.0973441,22.5575753 17.8262851,25.101564 13.1056033,25.101564" id="Fill-1"></path>
                    </g>
                </g>
            </g>
        </g>
    </g>
</svg>