<?xml version="1.0" encoding="UTF-8" standalone="no"?>
<svg width="31px" height="31px" viewBox="0 0 31 31" version="1.1" xmlns="http://www.w3.org/2000/svg" xmlns:xlink="http://www.w3.org/1999/xlink">
    <!-- Generator: Sketch 41 (35326) - http://www.bohemiancoding.com/sketch -->
    <title>Group</title>
    <desc>Created with Sketch.</desc>
    <defs></defs>
    <g id="Inner" stroke="none" stroke-width="1" fill="none" fill-rule="evenodd">
        <g id="BT-Detail" transform="translate(-962.000000, -1142.000000)" stroke="#649EE6" stroke-width="1.5">
            <g id="Group" transform="translate(963.000000, 1143.000000)">
                <path d="M29.0419378,23.2631987 C29.0419378,26.5813778 26.3515528,29.2707649 23.033261,29.2707649 C19.7144685,29.2707649 17.0245842,26.5813778 17.0245842,23.2631987 C17.0245842,19.9455203 19.7144685,17.2556325 23.033261,17.2556325 C26.3515528,17.2556325 29.0419378,19.9455203 29.0419378,23.2631987 L29.0419378,23.2631987 Z" id="Stroke-2448"></path>
                <path d="M23,20.1071238 L23,26.4190734" id="Stroke-2449" stroke-linecap="round" stroke-linejoin="round"></path>
                <path d="M26.1901697,23 L19.8765526,23" id="Stroke-2450" stroke-linecap="round" stroke-linejoin="round"></path>
                <path d="M17.0030531,16.3712187 C16.0216359,16.0468101 15.0942968,15.6583208 14.0202458,15.2533107 L14.0202458,12.2495276 C14.0202458,12.2495276 15.7837925,11.3554015 15.7837925,8.35011652 C16.7712184,8.35011652 16.7712184,5.7348227 15.7837925,5.7348227 C15.7837925,5.43995132 16.829803,3.70626784 16.4147035,2.03766633 C15.8168402,-0.366862043 8.80521511,-0.366862043 8.20735177,2.03766633 C5.2165329,1.43640908 6.94502892,5.42242926 6.94502892,5.82543682 C5.95610087,5.82543682 5.95610087,8.35011652 6.94502892,8.35011652 C6.94502892,11.3554015 9.01301518,12.7501581 9.01301518,12.7501581 L9.01301518,15.2533107 C5.50494939,16.5859892 1.15166305,17.5101531 0.631411786,19.0811317 C0.0330477223,20.8849034 0,24.26466 0,24.26466 L13.0187997,24.26466" id="Stroke-2451" stroke-linejoin="round"></path>
            </g>
        </g>
    </g>
</svg>