<?xml version="1.0" encoding="UTF-8" standalone="no"?>
<svg width="46px" height="33px" viewBox="0 0 46 33" version="1.1" xmlns="http://www.w3.org/2000/svg" xmlns:xlink="http://www.w3.org/1999/xlink">
    <!-- Generator: Sketch 41 (35326) - http://www.bohemiancoding.com/sketch -->
    <title>thin-0704_users_profile_group_couple_man_woman</title>
    <desc>Created with Sketch.</desc>
    <defs></defs>
    <g id="Inner" stroke="none" stroke-width="1" fill="none" fill-rule="evenodd">
        <g id="BT-Detail" transform="translate(-1020.000000, -871.000000)" stroke="#FFFFFF" stroke-width="2">
            <g id="thin-0704_users_profile_group_couple_man_woman" transform="translate(1021.000000, 872.000000)">
                <path d="M29.8792522,24.9465455 C24.9640696,23.0388242 19.507687,20.6698606 19.0491304,19.1935091 L19.0491304,17.6450121 C20.0687826,16.5974 20.8730261,15.1362667 21.3488,13.4256303 C22.4931826,12.6186909 22.776313,10.9561515 21.8301217,9.7871697 L21.8301217,6.32061818 C21.8301217,2.74190303 19.8461043,0.292151515 15.3102783,0.292151515 C10.8915304,0.292151515 8.78794783,2.74190303 8.78794783,6.32061818 L8.78794783,9.78848485 C7.84328696,10.9563394 8.12718261,12.6175636 9.26926957,13.4250667 C9.74523478,15.1362667 10.5500522,16.5974 11.570087,17.6452 L11.570087,19.193697 C11.1128696,20.6681697 5.65514783,23.037697 0.739965217,24.9467333 C0.321008696,25.11 0.0438086957,25.5193879 0.0438086957,25.9768727 L0.0438086957,29.8498061 C0.0438086957,30.4579697 0.528,30.9522788 1.12525217,30.9522788 L29.4937739,30.9522788 C30.0908348,30.9522788 30.5752174,30.4579697 30.5752174,29.8498061 L30.5752174,25.9768727 C30.5754087,25.5192 30.2980174,25.1086848 29.8792522,24.9465455 L29.8792522,24.9465455 Z" id="Shape"></path>
                <path d="M34.5704174,30.9520909 L42.9441913,30.9520909 C43.5094957,30.9520909 43.9680522,30.5008061 43.9680522,29.9454364 L43.9680522,26.4091818 C43.9680522,25.9915273 43.7055826,25.6167091 43.3090087,25.4686606 C38.6555304,23.7266485 33.4895478,23.8181455 33.055287,22.470303 L33.055287,20.4430909 C37.7024522,20.4306909 39.5462435,18.9759455 39.5462435,18.9759455 C37.6069913,17.9087939 36.9921391,10.4533879 36.9921391,10.4533879 C36.9921391,4.247 29.8501739,0.523430303 25.1727826,4.21769091" id="Shape"></path>
            </g>
        </g>
    </g>
</svg>