<?xml version="1.0" encoding="UTF-8" standalone="no"?>
<svg width="32px" height="30px" viewBox="0 0 32 30" version="1.1" xmlns="http://www.w3.org/2000/svg" xmlns:xlink="http://www.w3.org/1999/xlink">
    <!-- Generator: Sketch 41 (35326) - http://www.bohemiancoding.com/sketch -->
    <title>Shape</title>
    <desc>Created with Sketch.</desc>
    <defs>
        <path d="M986.361164,1328.16782 C986.040638,1328.16782 985.720113,1327.98975 985.292745,1327.52676 C985.114676,1327.34869 984.97222,1327.17063 984.829764,1326.99256 C984.616081,1326.67203 984.580467,1326.28028 984.758536,1325.92414 C984.97222,1325.49677 985.470815,1325.28309 985.933796,1325.38993 C986.14748,1325.46116 986.32555,1325.42554 986.361164,1325.42554 C986.788531,1325.21186 987.215898,1325.3187 987.429582,1325.63923 C987.607651,1325.92414 987.572037,1326.28028 987.358354,1326.70764 C987.287126,1326.81449 987.251512,1326.99256 987.215898,1327.13501 C987.109056,1327.59799 986.930987,1328.16782 986.361164,1328.16782 L986.361164,1328.16782 Z M986.254322,1324.25028 C985.96941,1324.25028 985.684499,1324.17905 985.435201,1324.0366 C985.007834,1323.82292 984.509239,1323.75169 983.868188,1323.71607 C982.051877,1323.64485 981.410826,1323.07502 981.26837,1321.32994 C981.26837,1321.29433 981.197143,1321.25871 981.019073,1321.15187 C980.805389,1321.04503 980.378022,1320.83134 980.44925,1320.29714 C980.09311,1320.01222 979.986269,1319.65608 979.986269,1319.26433 L979.167148,1319.97661 C979.024692,1320.08345 978.91785,1320.08345 978.811009,1320.08345 C978.704167,1320.04784 978.597325,1319.97661 978.561711,1319.86977 C977.991888,1318.48082 976.781014,1317.94662 975.676982,1317.59048 C975.427685,1317.51925 975.178387,1317.59048 974.929089,1317.6617 C974.822248,1317.69732 974.715406,1317.73293 974.57295,1317.76855 C974.288038,1317.83977 974.038741,1317.87539 973.753829,1317.911 C972.542956,1318.12468 971.438923,1318.33837 970.619803,1319.29994 C970.299277,1319.6917 969.800682,1319.90538 969.266473,1319.90538 L969.195245,1319.90538 L968.589808,1319.90538 C967.735074,1319.90538 967.129637,1320.04784 966.737884,1320.86696 C966.5242,1321.25871 965.989991,1321.25871 965.811921,1321.25871 C965.064028,1321.25871 964.031224,1320.9738 963.603857,1320.65327 C963.497015,1320.58205 963.425787,1320.40398 963.461401,1320.26152 C963.959996,1318.19591 962.99842,1316.70013 961.965616,1315.13311 C961.787546,1314.88382 961.64509,1314.63452 961.467021,1314.38522 C961.324565,1314.17154 961.288951,1313.88663 961.395793,1313.63733 C961.467021,1313.49487 961.538249,1313.35242 961.680704,1313.28119 C961.64509,1313.17435 961.573863,1313.03189 961.467021,1312.88944 C961.324565,1312.67575 961.182109,1312.46207 961.110881,1312.17716 C960.683514,1310.11155 961.467021,1309.00752 963.888769,1308.15278 C964.102452,1308.08155 964.280522,1308.01033 964.494205,1307.9391 C965.598238,1307.58296 966.631042,1307.26243 967.272093,1306.26524 L967.343321,1306.12279 C967.485776,1305.9091 967.557004,1305.83788 967.485776,1305.58858 C967.378934,1305.23244 967.735074,1304.91191 968.87472,1304.09279 C969.124017,1303.91472 969.373315,1303.73665 969.480157,1303.62981 C969.658227,1303.41613 970.833486,1302.09841 972.614183,1302.09841 C972.934709,1302.09841 973.21962,1302.13403 973.540146,1302.20525 C973.57576,1301.70666 973.753829,1301.24368 974.074355,1300.88754 C974.501722,1300.38894 975.142773,1300.10403 975.855052,1300.06842 C975.961894,1300.06842 975.997508,1300.0328 975.997508,1300.0328 C976.318033,1299.71228 976.887856,1299.53421 977.422065,1299.60544 C977.742591,1299.64105 978.027502,1299.67666 978.312414,1299.71228 C978.704167,1299.74789 979.131534,1299.81912 979.558901,1299.85473 C979.879427,1299.89035 980.128724,1300.10403 980.235566,1300.38894 C980.342408,1300.67386 980.306794,1300.99438 980.09311,1301.24368 C979.986269,1301.35052 979.915041,1301.49298 979.808199,1301.63543 C979.558901,1302.0628 979.665743,1302.63262 980.057497,1302.95315 L980.378022,1303.20244 C981.054687,1303.73665 981.695738,1304.27086 982.44363,1304.627 C982.479244,1304.66262 982.550472,1304.66262 982.586086,1304.69823 C982.692928,1304.76946 982.79977,1304.80507 982.870998,1304.80507 C982.870998,1304.80507 982.906612,1304.80507 982.942226,1304.76946 L983.120295,1304.59139 C983.333979,1304.16402 983.405207,1303.66543 983.512049,1303.13122 C983.547662,1303.02438 983.547662,1302.88192 983.583276,1302.77508 C983.61889,1302.49017 983.654504,1302.20525 983.690118,1301.92034 C983.79696,1300.92315 983.939416,1299.85473 984.758536,1299 C984.900992,1299.10684 985.007834,1299.07123 985.114676,1299.07123 C985.221518,1299.07123 985.292745,1299.10684 985.363973,1299.17807 L985.577657,1299.39175 C985.613271,1299.42737 985.648885,1299.4986 985.684499,1299.56982 C985.755727,1299.85473 985.862568,1300.13965 985.96941,1300.42456 C986.183094,1300.92315 986.396778,1301.45736 986.396778,1302.09841 C986.396778,1302.09841 986.396778,1302.09841 986.396778,1302.13403 C987.678879,1302.56139 987.714493,1303.5942 987.750107,1304.41332 C987.750107,1304.84069 987.785721,1305.23244 987.928177,1305.51735 C988.035019,1305.73103 988.106247,1305.98033 988.141861,1306.1584 C988.284316,1306.657 988.355544,1306.87068 988.854139,1306.94191 C989.281507,1306.97752 989.815716,1307.4405 989.922557,1307.86787 C990.207469,1308.93629 990.599222,1309.61295 991.275887,1310.11155 C991.489571,1310.254 991.489571,1310.46769 991.489571,1310.64576 C991.489571,1310.71699 991.489571,1310.85944 991.525185,1310.89506 L991.560799,1310.93067 L991.774482,1311.14435 C991.774482,1311.14435 991.810096,1311.17997 991.810096,1311.21558 C991.916938,1311.39365 992.02378,1311.53611 992.166236,1311.71418 C992.593603,1312.284 993.092198,1312.88944 992.985356,1313.74417 L992.949742,1313.99347 C992.771672,1315.80978 992.557989,1317.69732 991.311501,1319.33556 C990.527994,1320.36836 989.780102,1321.4724 989.423962,1322.79011 C989.245893,1323.46678 988.925367,1323.60923 988.67607,1323.60923 L988.67607,1323.60923 C988.604842,1323.60923 988.569228,1323.60923 988.498,1323.57362 C987.999405,1323.39555 987.678879,1323.538 987.14467,1323.92976 C986.930987,1324.14344 986.610461,1324.25028 986.254322,1324.25028 L986.254322,1324.25028 Z" id="path-1"></path>
        <mask id="mask-2" maskContentUnits="userSpaceOnUse" maskUnits="objectBoundingBox" x="0" y="0" width="32" height="29.1678155" fill="white">
            <use xlink:href="#path-1"></use>
        </mask>
    </defs>
    <g id="Inner" stroke="none" stroke-width="1" fill="none" fill-rule="evenodd">
        <g id="BT-Detail" transform="translate(-961.000000, -1299.000000)" stroke="#649EE6" stroke-width="3">
            <use id="Shape" mask="url(#mask-2)" xlink:href="#path-1"></use>
        </g>
    </g>
</svg>