<?xml version="1.0" encoding="UTF-8" standalone="no"?>
<svg width="36px" height="37px" viewBox="0 0 36 37" version="1.1" xmlns="http://www.w3.org/2000/svg" xmlns:xlink="http://www.w3.org/1999/xlink">
    <!-- Generator: Sketch 41 (35326) - http://www.bohemiancoding.com/sketch -->
    <title>Fill 1</title>
    <desc>Created with Sketch.</desc>
    <defs></defs>
    <g id="Inner" stroke="none" stroke-width="1" fill="none" fill-rule="evenodd">
        <g id="BT-Detail" transform="translate(-85.000000, -23.000000)" fill="#FFFFFF">
            <g id="Page-1" transform="translate(85.000000, 23.000000)">
                <path d="M17.9753722,12.83308 C14.8942056,12.83308 12.3883167,15.3272454 12.3883167,18.3939973 C12.3883167,21.4607491 14.8942056,23.9559652 17.9753722,23.9559652 C19.3687056,23.9559652 20.7039833,23.4422133 21.73315,22.5092652 C21.7605944,22.485101 23.1697611,21.2138541 25.5500389,18.136596 C23.0979833,15.2463479 21.5399833,14.1064281 21.5230944,14.0938207 C20.4559278,13.2512257 19.2525944,12.83308 17.9753722,12.83308 M18.4809833,3.63807753 C10.3057056,3.63807753 3.65570556,10.258017 3.65570556,18.3939973 C3.65570556,26.5310281 10.3057056,33.149917 18.4809833,33.149917 C23.7365944,33.149917 28.5214278,30.4298689 31.1972611,25.9868084 C30.1015944,24.2291257 28.99115,22.5891121 27.8775389,21.0825269 C25.5964833,23.9507121 24.2432611,25.1568207 24.1757056,25.2156553 C22.4899833,26.7432528 20.2817611,27.5932022 17.9753722,27.5932022 C12.87915,27.5932022 8.73292778,23.4663775 8.73292778,18.3939973 C8.73292778,13.321617 12.87915,9.19479235 17.9753722,9.19479235 C20.0590389,9.19479235 22.1015389,9.90500963 23.7292056,11.194117 C23.7418722,11.2004207 25.30515,12.3235306 27.76565,15.1202738 C28.8022056,13.6410047 29.8545944,12.0461677 30.9122611,10.3504714 C28.1878722,6.18477383 23.5159833,3.63807753 18.4809833,3.63807753 M18.4809833,36.7882047 C8.29065,36.7882047 0.000316666667,28.5366565 0.000316666667,18.3939973 C0.000316666667,8.25133802 8.29065,-0.000210123457 18.4809833,-0.000210123457 C25.1932611,-0.000210123457 31.3893722,3.63177383 34.6489278,9.47950963 L35.1650944,10.4040528 L34.6119833,11.3086343 C33.1162611,13.7513195 31.6237056,16.0132985 30.1628167,18.0493948 C31.7503722,20.1254146 33.33265,22.4567343 34.8758722,24.9992281 L35.4025944,25.867038 L34.93815,26.7695183 C31.7588167,32.9502998 25.4518722,36.7882047 18.4809833,36.7882047" id="Fill-1"></path>
            </g>
        </g>
    </g>
</svg>