<?xml version="1.0" encoding="UTF-8" standalone="no"?>
<svg width="35px" height="42px" viewBox="0 0 35 42" version="1.1" xmlns="http://www.w3.org/2000/svg" xmlns:xlink="http://www.w3.org/1999/xlink">
    <!-- Generator: Sketch 41 (35326) - http://www.bohemiancoding.com/sketch -->
    <title>Page 1</title>
    <desc>Created with Sketch.</desc>
    <defs></defs>
    <g id="Inner" stroke="none" stroke-width="1" fill="none" fill-rule="evenodd" stroke-linecap="round" stroke-linejoin="round">
        <g id="Product-FF" transform="translate(-848.000000, -651.000000)" stroke="#53BED3" stroke-width="2">
            <g id="Page-1" transform="translate(849.000000, 652.000000)">
                <path d="M26,4.66666667 C22.62,4.66666667 18.6426667,3.12266667 16.6666667,0.666666667 L16.6386667,0.666666667 C14.664,3.12266667 10.7133333,4.66666667 7.33333333,4.66666667 C4.37466667,4.66666667 2.61333333,3.948 0.666666667,2 L0.666666667,26 C0.666666667,26 2.29333333,35.3066667 16.6666667,39.3333333 C31.04,35.3066667 32.6666667,26 32.6666667,26 L32.6666667,2 C30.7173333,3.948 28.9586667,4.66666667 26,4.66666667 Z" id="Stroke-1"></path>
                <polygon id="Stroke-3" points="26 16.6666667 19.3333333 16.6666667 19.3333333 10 14 10 14 16.6666667 7.33333333 16.6666667 7.33333333 22 14 22 14 28.6666667 19.3333333 28.6666667 19.3333333 22 26 22"></polygon>
            </g>
        </g>
    </g>
</svg>