<?xml version="1.0" encoding="utf-8"?>
<!-- Generator: Adobe Illustrator 16.0.0, SVG Export Plug-In . SVG Version: 6.00 Build 0)  -->
<!DOCTYPE svg PUBLIC "-//W3C//DTD SVG 1.1//EN" "http://www.w3.org/Graphics/SVG/1.1/DTD/svg11.dtd">
<svg version="1.1" id="Layer_1" xmlns="http://www.w3.org/2000/svg" xmlns:xlink="http://www.w3.org/1999/xlink" x="0px" y="0px"
	 width="83px" height="41px" viewBox="0 0 83 41" enable-background="new 0 0 83 41" xml:space="preserve">
<g>
	<g>
		
			<linearGradient id="SVGID_1_" gradientUnits="userSpaceOnUse" x1="597.6787" y1="32.7285" x2="652.6201" y2="32.7285" gradientTransform="matrix(-0.9979 0.0653 0.0653 0.9979 676.3164 -64.2578)">
			<stop  offset="0" style="stop-color:#B3B3B3"/>
			<stop  offset="0.0185" style="stop-color:#B6B6B6"/>
			<stop  offset="0.2268" style="stop-color:#DEDEDE"/>
			<stop  offset="0.3927" style="stop-color:#F6F6F6"/>
			<stop  offset="0.4945" style="stop-color:#FFFFFF"/>
			<stop  offset="0.6034" style="stop-color:#F5F5F5"/>
			<stop  offset="0.7911" style="stop-color:#D9D9D9"/>
			<stop  offset="1" style="stop-color:#B3B3B3"/>
		</linearGradient>
		<path fill="url(#SVGID_1_)" stroke="#231F20" stroke-width="0.7" stroke-dasharray="2,1" d="M27.243,11.602
			c0.087,1.004,0.697,1.77,1.368,1.712l52.327-4.542c0.667-0.06,1.138-0.918,1.053-1.925l0,0c-0.086-1.003-0.696-1.769-1.367-1.711
			L28.295,9.679C27.629,9.738,27.158,10.596,27.243,11.602L27.243,11.602z"/>
		
			<linearGradient id="SVGID_2_" gradientUnits="userSpaceOnUse" x1="598.2627" y1="41.6367" x2="653.2031" y2="41.6367" gradientTransform="matrix(-0.9979 0.0653 0.0653 0.9979 676.3164 -64.2578)">
			<stop  offset="0" style="stop-color:#B3B3B3"/>
			<stop  offset="0.0185" style="stop-color:#B6B6B6"/>
			<stop  offset="0.2268" style="stop-color:#DEDEDE"/>
			<stop  offset="0.3927" style="stop-color:#F6F6F6"/>
			<stop  offset="0.4945" style="stop-color:#FFFFFF"/>
			<stop  offset="0.6034" style="stop-color:#F5F5F5"/>
			<stop  offset="0.7911" style="stop-color:#D9D9D9"/>
			<stop  offset="1" style="stop-color:#B3B3B3"/>
		</linearGradient>
		<path fill="url(#SVGID_2_)" stroke="#231F20" stroke-width="0.7" stroke-dasharray="2,1" d="M27.243,20.528
			c0.087,1.004,0.697,1.771,1.368,1.713l52.327-4.543c0.667-0.06,1.138-0.918,1.053-1.925l0,0c-0.086-1.003-0.696-1.769-1.367-1.71
			l-52.328,4.543C27.629,18.665,27.158,19.523,27.243,20.528L27.243,20.528z"/>
		
			<linearGradient id="SVGID_3_" gradientUnits="userSpaceOnUse" x1="598.8447" y1="50.543" x2="653.7861" y2="50.543" gradientTransform="matrix(-0.9979 0.0653 0.0653 0.9979 676.3164 -64.2578)">
			<stop  offset="0" style="stop-color:#B3B3B3"/>
			<stop  offset="0.0185" style="stop-color:#B6B6B6"/>
			<stop  offset="0.2268" style="stop-color:#DEDEDE"/>
			<stop  offset="0.3927" style="stop-color:#F6F6F6"/>
			<stop  offset="0.4945" style="stop-color:#FFFFFF"/>
			<stop  offset="0.6034" style="stop-color:#F5F5F5"/>
			<stop  offset="0.7911" style="stop-color:#D9D9D9"/>
			<stop  offset="1" style="stop-color:#B3B3B3"/>
		</linearGradient>
		<path fill="url(#SVGID_3_)" stroke="#231F20" stroke-width="0.7" stroke-dasharray="2,1" d="M27.243,29.455
			c0.087,1.004,0.697,1.771,1.368,1.713l52.327-4.544c0.667-0.058,1.138-0.917,1.053-1.924l0,0
			c-0.086-1.005-0.696-1.769-1.367-1.711l-52.328,4.543C27.629,27.592,27.158,28.448,27.243,29.455L27.243,29.455z"/>
		
			<linearGradient id="SVGID_4_" gradientUnits="userSpaceOnUse" x1="599.4307" y1="59.5059" x2="654.3721" y2="59.5059" gradientTransform="matrix(-0.9979 0.0653 0.0653 0.9979 676.3164 -64.2578)">
			<stop  offset="0" style="stop-color:#B3B3B3"/>
			<stop  offset="0.0185" style="stop-color:#B6B6B6"/>
			<stop  offset="0.2268" style="stop-color:#DEDEDE"/>
			<stop  offset="0.3927" style="stop-color:#F6F6F6"/>
			<stop  offset="0.4945" style="stop-color:#FFFFFF"/>
			<stop  offset="0.6034" style="stop-color:#F5F5F5"/>
			<stop  offset="0.7911" style="stop-color:#D9D9D9"/>
			<stop  offset="1" style="stop-color:#B3B3B3"/>
		</linearGradient>
		<path fill="url(#SVGID_4_)" stroke="#231F20" stroke-width="0.7" stroke-dasharray="2,1" d="M27.243,38.437
			c0.087,1.004,0.697,1.771,1.368,1.713l52.327-4.543c0.667-0.06,1.138-0.919,1.053-1.925l0,0c-0.086-1.004-0.696-1.77-1.367-1.709
			l-52.328,4.542C27.629,36.573,27.158,37.431,27.243,38.437L27.243,38.437z"/>
		
			<linearGradient id="SVGID_5_" gradientUnits="userSpaceOnUse" x1="614.4277" y1="288.6758" x2="669.3682" y2="288.6758" gradientTransform="matrix(-0.9979 -0.0653 0.0653 -0.9979 676.3164 334.8281)">
			<stop  offset="0" style="stop-color:#D9D9D9"/>
			<stop  offset="0.0029" style="stop-color:#DADADA"/>
			<stop  offset="0.0586" style="stop-color:#EBEBEB"/>
			<stop  offset="0.1276" style="stop-color:#F6F6F6"/>
			<stop  offset="0.2248" style="stop-color:#FDFDFD"/>
			<stop  offset="0.4945" style="stop-color:#FFFFFF"/>
			<stop  offset="0.7703" style="stop-color:#FDFDFD"/>
			<stop  offset="0.8696" style="stop-color:#F6F6F6"/>
			<stop  offset="0.9401" style="stop-color:#EBEBEB"/>
			<stop  offset="0.997" style="stop-color:#DADADA"/>
			<stop  offset="1" style="stop-color:#D9D9D9"/>
		</linearGradient>
		<path fill="url(#SVGID_5_)" stroke="#231F20" stroke-width="0.7" stroke-dasharray="2,1" d="M27.243,2.465
			c0.087-1.004,0.697-1.77,1.368-1.712l52.327,4.542c0.667,0.06,1.138,0.918,1.053,1.925l0,0c-0.086,1.003-0.696,1.769-1.367,1.711
			L28.295,4.388C27.629,4.329,27.158,3.472,27.243,2.465L27.243,2.465z"/>
		
			<linearGradient id="SVGID_6_" gradientUnits="userSpaceOnUse" x1="613.8447" y1="279.7695" x2="668.7861" y2="279.7695" gradientTransform="matrix(-0.9979 -0.0653 0.0653 -0.9979 676.3164 334.8281)">
			<stop  offset="0" style="stop-color:#D9D9D9"/>
			<stop  offset="0.0029" style="stop-color:#DADADA"/>
			<stop  offset="0.0586" style="stop-color:#EBEBEB"/>
			<stop  offset="0.1276" style="stop-color:#F6F6F6"/>
			<stop  offset="0.2248" style="stop-color:#FDFDFD"/>
			<stop  offset="0.4945" style="stop-color:#FFFFFF"/>
			<stop  offset="0.7703" style="stop-color:#FDFDFD"/>
			<stop  offset="0.8696" style="stop-color:#F6F6F6"/>
			<stop  offset="0.9401" style="stop-color:#EBEBEB"/>
			<stop  offset="0.997" style="stop-color:#DADADA"/>
			<stop  offset="1" style="stop-color:#D9D9D9"/>
		</linearGradient>
		<path fill="url(#SVGID_6_)" stroke="#231F20" stroke-width="0.7" stroke-dasharray="2,1" d="M27.243,11.392
			c0.087-1.003,0.697-1.771,1.368-1.713l52.327,4.542c0.667,0.06,1.138,0.918,1.053,1.925l0,0c-0.086,1.003-0.696,1.769-1.367,1.71
			l-52.328-4.543C27.629,13.256,27.158,12.398,27.243,11.392L27.243,11.392z"/>
		
			<linearGradient id="SVGID_7_" gradientUnits="userSpaceOnUse" x1="613.2617" y1="270.8623" x2="668.2031" y2="270.8623" gradientTransform="matrix(-0.9979 -0.0653 0.0653 -0.9979 676.3164 334.8281)">
			<stop  offset="0" style="stop-color:#D9D9D9"/>
			<stop  offset="0.0029" style="stop-color:#DADADA"/>
			<stop  offset="0.0586" style="stop-color:#EBEBEB"/>
			<stop  offset="0.1276" style="stop-color:#F6F6F6"/>
			<stop  offset="0.2248" style="stop-color:#FDFDFD"/>
			<stop  offset="0.4945" style="stop-color:#FFFFFF"/>
			<stop  offset="0.7703" style="stop-color:#FDFDFD"/>
			<stop  offset="0.8696" style="stop-color:#F6F6F6"/>
			<stop  offset="0.9401" style="stop-color:#EBEBEB"/>
			<stop  offset="0.997" style="stop-color:#DADADA"/>
			<stop  offset="1" style="stop-color:#D9D9D9"/>
		</linearGradient>
		<path fill="url(#SVGID_7_)" stroke="#231F20" stroke-width="0.7" stroke-dasharray="2,1" d="M27.243,20.318
			c0.087-1.003,0.697-1.77,1.368-1.712l52.327,4.542c0.667,0.06,1.138,0.918,1.053,1.924l0,0c-0.086,1.005-0.696,1.77-1.367,1.712
			l-52.328-4.543C27.629,22.182,27.158,21.325,27.243,20.318L27.243,20.318z"/>
		
			<linearGradient id="SVGID_8_" gradientUnits="userSpaceOnUse" x1="612.6797" y1="261.9561" x2="667.6201" y2="261.9561" gradientTransform="matrix(-0.9979 -0.0653 0.0653 -0.9979 676.3164 334.8281)">
			<stop  offset="0" style="stop-color:#D9D9D9"/>
			<stop  offset="0.0029" style="stop-color:#DADADA"/>
			<stop  offset="0.0586" style="stop-color:#EBEBEB"/>
			<stop  offset="0.1276" style="stop-color:#F6F6F6"/>
			<stop  offset="0.2248" style="stop-color:#FDFDFD"/>
			<stop  offset="0.4945" style="stop-color:#FFFFFF"/>
			<stop  offset="0.7703" style="stop-color:#FDFDFD"/>
			<stop  offset="0.8696" style="stop-color:#F6F6F6"/>
			<stop  offset="0.9401" style="stop-color:#EBEBEB"/>
			<stop  offset="0.997" style="stop-color:#DADADA"/>
			<stop  offset="1" style="stop-color:#D9D9D9"/>
		</linearGradient>
		<path fill="url(#SVGID_8_)" stroke="#231F20" stroke-width="0.7" stroke-dasharray="2,1" d="M27.243,29.244
			c0.087-1.004,0.697-1.771,1.368-1.712l52.327,4.543c0.667,0.059,1.138,0.918,1.053,1.924l0,0c-0.086,1.005-0.696,1.77-1.367,1.71
			l-52.328-4.541C27.629,31.108,27.158,30.252,27.243,29.244L27.243,29.244z"/>
		<path fill="#FFFFFF" stroke="#231F20" stroke-width="0.7" d="M28.677,4.434H0.649C0.291,4.435,0,3.622,0,2.616l0,0
			c0-1.003,0.291-1.815,0.649-1.815h28.028"/>
		<path fill="#FFFFFF" stroke="#231F20" stroke-width="0.7" d="M28.677,40.25H0.649C0.291,40.252,0,39.438,0,38.435l0,0
			c0-1.004,0.291-1.816,0.649-1.816h28.028"/>
	</g>
	
		<linearGradient id="SVGID_9_" gradientUnits="userSpaceOnUse" x1="597.6787" y1="32.7285" x2="652.6201" y2="32.7285" gradientTransform="matrix(-0.9979 0.0653 0.0653 0.9979 676.3164 -64.2578)">
		<stop  offset="0" style="stop-color:#B3B3B3"/>
		<stop  offset="0.0185" style="stop-color:#B6B6B6"/>
		<stop  offset="0.2268" style="stop-color:#DEDEDE"/>
		<stop  offset="0.3927" style="stop-color:#F6F6F6"/>
		<stop  offset="0.4945" style="stop-color:#FFFFFF"/>
		<stop  offset="0.6034" style="stop-color:#F5F5F5"/>
		<stop  offset="0.7911" style="stop-color:#D9D9D9"/>
		<stop  offset="1" style="stop-color:#B3B3B3"/>
	</linearGradient>
	<path fill="url(#SVGID_9_)" stroke="#231F20" stroke-width="0.7" stroke-dasharray="2,1" d="M27.243,11.602
		c0.087,1.004,0.697,1.77,1.368,1.712l52.327-4.542c0.667-0.06,1.138-0.918,1.053-1.925l0,0c-0.086-1.003-0.696-1.769-1.367-1.711
		L28.295,9.679C27.629,9.738,27.158,10.596,27.243,11.602L27.243,11.602z"/>
	
		<linearGradient id="SVGID_10_" gradientUnits="userSpaceOnUse" x1="598.2627" y1="41.6367" x2="653.2031" y2="41.6367" gradientTransform="matrix(-0.9979 0.0653 0.0653 0.9979 676.3164 -64.2578)">
		<stop  offset="0" style="stop-color:#B3B3B3"/>
		<stop  offset="0.0185" style="stop-color:#B6B6B6"/>
		<stop  offset="0.2268" style="stop-color:#DEDEDE"/>
		<stop  offset="0.3927" style="stop-color:#F6F6F6"/>
		<stop  offset="0.4945" style="stop-color:#FFFFFF"/>
		<stop  offset="0.6034" style="stop-color:#F5F5F5"/>
		<stop  offset="0.7911" style="stop-color:#D9D9D9"/>
		<stop  offset="1" style="stop-color:#B3B3B3"/>
	</linearGradient>
	<path fill="url(#SVGID_10_)" stroke="#231F20" stroke-width="0.7" stroke-dasharray="2,1" d="M27.243,20.528
		c0.087,1.004,0.697,1.771,1.368,1.713l52.327-4.543c0.667-0.06,1.138-0.918,1.053-1.925l0,0c-0.086-1.003-0.696-1.769-1.367-1.71
		l-52.328,4.543C27.629,18.665,27.158,19.523,27.243,20.528L27.243,20.528z"/>
	
		<linearGradient id="SVGID_11_" gradientUnits="userSpaceOnUse" x1="598.8447" y1="50.543" x2="653.7861" y2="50.543" gradientTransform="matrix(-0.9979 0.0653 0.0653 0.9979 676.3164 -64.2578)">
		<stop  offset="0" style="stop-color:#B3B3B3"/>
		<stop  offset="0.0185" style="stop-color:#B6B6B6"/>
		<stop  offset="0.2268" style="stop-color:#DEDEDE"/>
		<stop  offset="0.3927" style="stop-color:#F6F6F6"/>
		<stop  offset="0.4945" style="stop-color:#FFFFFF"/>
		<stop  offset="0.6034" style="stop-color:#F5F5F5"/>
		<stop  offset="0.7911" style="stop-color:#D9D9D9"/>
		<stop  offset="1" style="stop-color:#B3B3B3"/>
	</linearGradient>
	<path fill="url(#SVGID_11_)" stroke="#231F20" stroke-width="0.7" stroke-dasharray="2,1" d="M27.243,29.455
		c0.087,1.004,0.697,1.771,1.368,1.713l52.327-4.544c0.667-0.058,1.138-0.917,1.053-1.924l0,0c-0.086-1.005-0.696-1.769-1.367-1.711
		l-52.328,4.543C27.629,27.592,27.158,28.448,27.243,29.455L27.243,29.455z"/>
	
		<linearGradient id="SVGID_12_" gradientUnits="userSpaceOnUse" x1="599.4307" y1="59.5059" x2="654.3721" y2="59.5059" gradientTransform="matrix(-0.9979 0.0653 0.0653 0.9979 676.3164 -64.2578)">
		<stop  offset="0" style="stop-color:#B3B3B3"/>
		<stop  offset="0.0185" style="stop-color:#B6B6B6"/>
		<stop  offset="0.2268" style="stop-color:#DEDEDE"/>
		<stop  offset="0.3927" style="stop-color:#F6F6F6"/>
		<stop  offset="0.4945" style="stop-color:#FFFFFF"/>
		<stop  offset="0.6034" style="stop-color:#F5F5F5"/>
		<stop  offset="0.7911" style="stop-color:#D9D9D9"/>
		<stop  offset="1" style="stop-color:#B3B3B3"/>
	</linearGradient>
	<path fill="url(#SVGID_12_)" stroke="#231F20" stroke-width="0.7" stroke-dasharray="2,1" d="M27.243,38.437
		c0.087,1.004,0.697,1.771,1.368,1.713l52.327-4.543c0.667-0.06,1.138-0.919,1.053-1.925l0,0c-0.086-1.004-0.696-1.77-1.367-1.709
		l-52.328,4.542C27.629,36.573,27.158,37.431,27.243,38.437L27.243,38.437z"/>
	
		<linearGradient id="SVGID_13_" gradientUnits="userSpaceOnUse" x1="614.4277" y1="288.6758" x2="669.3682" y2="288.6758" gradientTransform="matrix(-0.9979 -0.0653 0.0653 -0.9979 676.3164 334.8281)">
		<stop  offset="0" style="stop-color:#D9D9D9"/>
		<stop  offset="0.0029" style="stop-color:#DADADA"/>
		<stop  offset="0.0586" style="stop-color:#EBEBEB"/>
		<stop  offset="0.1276" style="stop-color:#F6F6F6"/>
		<stop  offset="0.2248" style="stop-color:#FDFDFD"/>
		<stop  offset="0.4945" style="stop-color:#FFFFFF"/>
		<stop  offset="0.7703" style="stop-color:#FDFDFD"/>
		<stop  offset="0.8696" style="stop-color:#F6F6F6"/>
		<stop  offset="0.9401" style="stop-color:#EBEBEB"/>
		<stop  offset="0.997" style="stop-color:#DADADA"/>
		<stop  offset="1" style="stop-color:#D9D9D9"/>
	</linearGradient>
	<path fill="url(#SVGID_13_)" stroke="#231F20" stroke-width="0.7" stroke-dasharray="2,1" d="M27.243,2.465
		c0.087-1.004,0.697-1.77,1.368-1.712l52.327,4.542c0.667,0.06,1.138,0.918,1.053,1.925l0,0c-0.086,1.003-0.696,1.769-1.367,1.711
		L28.295,4.388C27.629,4.329,27.158,3.472,27.243,2.465L27.243,2.465z"/>
	
		<linearGradient id="SVGID_14_" gradientUnits="userSpaceOnUse" x1="613.8447" y1="279.7695" x2="668.7861" y2="279.7695" gradientTransform="matrix(-0.9979 -0.0653 0.0653 -0.9979 676.3164 334.8281)">
		<stop  offset="0" style="stop-color:#D9D9D9"/>
		<stop  offset="0.0029" style="stop-color:#DADADA"/>
		<stop  offset="0.0586" style="stop-color:#EBEBEB"/>
		<stop  offset="0.1276" style="stop-color:#F6F6F6"/>
		<stop  offset="0.2248" style="stop-color:#FDFDFD"/>
		<stop  offset="0.4945" style="stop-color:#FFFFFF"/>
		<stop  offset="0.7703" style="stop-color:#FDFDFD"/>
		<stop  offset="0.8696" style="stop-color:#F6F6F6"/>
		<stop  offset="0.9401" style="stop-color:#EBEBEB"/>
		<stop  offset="0.997" style="stop-color:#DADADA"/>
		<stop  offset="1" style="stop-color:#D9D9D9"/>
	</linearGradient>
	<path fill="url(#SVGID_14_)" stroke="#231F20" stroke-width="0.7" stroke-dasharray="2,1" d="M27.243,11.392
		c0.087-1.003,0.697-1.771,1.368-1.713l52.327,4.542c0.667,0.06,1.138,0.918,1.053,1.925l0,0c-0.086,1.003-0.696,1.769-1.367,1.71
		l-52.328-4.543C27.629,13.256,27.158,12.398,27.243,11.392L27.243,11.392z"/>
	
		<linearGradient id="SVGID_15_" gradientUnits="userSpaceOnUse" x1="613.2617" y1="270.8623" x2="668.2031" y2="270.8623" gradientTransform="matrix(-0.9979 -0.0653 0.0653 -0.9979 676.3164 334.8281)">
		<stop  offset="0" style="stop-color:#D9D9D9"/>
		<stop  offset="0.0029" style="stop-color:#DADADA"/>
		<stop  offset="0.0586" style="stop-color:#EBEBEB"/>
		<stop  offset="0.1276" style="stop-color:#F6F6F6"/>
		<stop  offset="0.2248" style="stop-color:#FDFDFD"/>
		<stop  offset="0.4945" style="stop-color:#FFFFFF"/>
		<stop  offset="0.7703" style="stop-color:#FDFDFD"/>
		<stop  offset="0.8696" style="stop-color:#F6F6F6"/>
		<stop  offset="0.9401" style="stop-color:#EBEBEB"/>
		<stop  offset="0.997" style="stop-color:#DADADA"/>
		<stop  offset="1" style="stop-color:#D9D9D9"/>
	</linearGradient>
	<path fill="url(#SVGID_15_)" stroke="#231F20" stroke-width="0.7" stroke-dasharray="2,1" d="M27.243,20.318
		c0.087-1.003,0.697-1.77,1.368-1.712l52.327,4.542c0.667,0.06,1.138,0.918,1.053,1.924l0,0c-0.086,1.005-0.696,1.77-1.367,1.712
		l-52.328-4.543C27.629,22.182,27.158,21.325,27.243,20.318L27.243,20.318z"/>
	
		<linearGradient id="SVGID_16_" gradientUnits="userSpaceOnUse" x1="612.6797" y1="261.9561" x2="667.6201" y2="261.9561" gradientTransform="matrix(-0.9979 -0.0653 0.0653 -0.9979 676.3164 334.8281)">
		<stop  offset="0" style="stop-color:#D9D9D9"/>
		<stop  offset="0.0029" style="stop-color:#DADADA"/>
		<stop  offset="0.0586" style="stop-color:#EBEBEB"/>
		<stop  offset="0.1276" style="stop-color:#F6F6F6"/>
		<stop  offset="0.2248" style="stop-color:#FDFDFD"/>
		<stop  offset="0.4945" style="stop-color:#FFFFFF"/>
		<stop  offset="0.7703" style="stop-color:#FDFDFD"/>
		<stop  offset="0.8696" style="stop-color:#F6F6F6"/>
		<stop  offset="0.9401" style="stop-color:#EBEBEB"/>
		<stop  offset="0.997" style="stop-color:#DADADA"/>
		<stop  offset="1" style="stop-color:#D9D9D9"/>
	</linearGradient>
	<path fill="url(#SVGID_16_)" stroke="#231F20" stroke-width="0.7" stroke-dasharray="2,1" d="M27.243,29.244
		c0.087-1.004,0.697-1.771,1.368-1.712l52.327,4.543c0.667,0.059,1.138,0.918,1.053,1.924l0,0c-0.086,1.005-0.696,1.77-1.367,1.71
		l-52.328-4.541C27.629,31.108,27.158,30.252,27.243,29.244L27.243,29.244z"/>
	<path fill="#FFFFFF" stroke="#231F20" stroke-width="0.7" d="M28.677,4.434H0.649C0.291,4.435,0,3.622,0,2.616l0,0
		c0-1.003,0.291-1.815,0.649-1.815h28.028"/>
	<path fill="#FFFFFF" stroke="#231F20" stroke-width="0.7" d="M28.677,40.25H0.649C0.291,40.252,0,39.438,0,38.435l0,0
		c0-1.004,0.291-1.816,0.649-1.816h28.028"/>
</g>
</svg>
