<?xml version="1.0" encoding="utf-8"?>
<!-- Generator: Adobe Illustrator 16.0.0, SVG Export Plug-In . SVG Version: 6.00 Build 0)  -->
<!DOCTYPE svg PUBLIC "-//W3C//DTD SVG 1.1//EN" "http://www.w3.org/Graphics/SVG/1.1/DTD/svg11.dtd">
<svg version="1.1" id="Layer_1" xmlns="http://www.w3.org/2000/svg" xmlns:xlink="http://www.w3.org/1999/xlink" x="0px" y="0px"
	 width="20px" height="109px" viewBox="0 0 20 109" enable-background="new 0 0 20 109" xml:space="preserve">
<g>
	<g>
		<path fill="#DCD4BD" d="M17.291,16.193L5.516,16.292C5.329,15,4.997,14.17,4.997,14.17H0.393v7.554h4.604
			c0,0,0.3-0.894,0.491-2.044l11.831-0.1c0.737-0.005,1.329-0.768,1.321-1.705C18.633,16.939,18.027,16.188,17.291,16.193z"/>
	</g>
	<g>
		<path fill="none" stroke="#231F20" stroke-width="0.7951" d="M17.291,16.193L5.516,16.292C5.329,15,4.997,14.17,4.997,14.17H0.393
			v7.554h4.604c0,0,0.3-0.894,0.491-2.044l11.831-0.1c0.737-0.005,1.329-0.768,1.321-1.705
			C18.633,16.939,18.027,16.188,17.291,16.193z"/>
	</g>
</g>
<g>
	<g>
		<path fill="#DCD4BD" d="M17.291,88.141l-11.775,0.1c-0.188-1.293-0.519-2.123-0.519-2.123H0.393v7.553h4.604
			c0,0,0.3-0.894,0.491-2.043l11.831-0.1c0.737-0.006,1.329-0.77,1.321-1.705S18.027,88.135,17.291,88.141z"/>
	</g>
	<g>
		<path fill="none" stroke="#231F20" stroke-width="0.7951" d="M17.291,88.141l-11.775,0.1c-0.188-1.293-0.519-2.123-0.519-2.123
			H0.393v7.553h4.604c0,0,0.3-0.894,0.491-2.043l11.831-0.1c0.737-0.006,1.329-0.77,1.321-1.705S18.027,88.135,17.291,88.141z"/>
	</g>
</g>
<rect x="8.517" y="13.962" fill="#CFBF30" stroke="#231F20" stroke-width="0.7951" stroke-linejoin="bevel" width="11.132" height="81.101"/>
<polygon fill="#CFBF30" stroke="#231F20" stroke-width="0.7951" stroke-linejoin="bevel" points="16.07,7.998 16.07,0.842 
	12.095,0.842 12.095,7.998 8.517,13.962 19.648,13.962 "/>
<polygon fill="#CFBF30" stroke="#231F20" stroke-width="0.7951" stroke-linejoin="bevel" points="12.221,100.998 12.221,108.154 
	16.196,108.154 16.196,100.998 19.774,95.033 8.644,95.033 "/>
<g>
	<g>
		<path fill="#DBD2B0" d="M14.066,15.816c-0.949,0-1.762,0.558-2.146,1.359H8.666v1.589h3.014V89H8.931v1.59h2.749v0.967
			c0,1.316,1.068,2.385,2.387,2.385c1.316,0,2.384-1.068,2.384-2.385V18.201C16.45,16.885,15.383,15.816,14.066,15.816z"/>
	</g>
	<g>
		<path fill="none" stroke="#231F20" stroke-width="0.7951" d="M14.066,15.816c-0.949,0-1.762,0.558-2.146,1.359H8.666v1.589h3.014
			V89H8.931v1.59h2.749v0.967c0,1.316,1.068,2.385,2.387,2.385c1.316,0,2.384-1.068,2.384-2.385V18.201
			C16.45,16.885,15.383,15.816,14.066,15.816z"/>
	</g>
</g>
</svg>
