<!-- Generator: Adobe Illustrator 18.0.0, SVG Export Plug-In  -->
<svg version="1.1"
	 xmlns="http://www.w3.org/2000/svg" xmlns:xlink="http://www.w3.org/1999/xlink" xmlns:a="http://ns.adobe.com/AdobeSVGViewerExtensions/3.0/"
	 x="0px" y="0px" width="198.4px" height="198.4px" viewBox="0 0 198.4 198.4" enable-background="new 0 0 198.4 198.4"
	 xml:space="preserve">
<defs>
</defs>
<g>
	<circle fill="#FFFFFF" stroke="#00C9FF" stroke-width="3" stroke-miterlimit="10" cx="99.2" cy="99.2" r="97.7"/>
	<g>
		
			<line fill="none" stroke="#BEC8D2" stroke-width="3.0856" stroke-linejoin="round" stroke-miterlimit="10" stroke-dasharray="117563.0547,39187.6875" x1="44.7" y1="137.7" x2="157.8" y2="63.1"/>
		<g>
			
				<polygon fill="none" stroke="#BEC8D2" stroke-width="3.0856" stroke-linejoin="round" stroke-miterlimit="10" stroke-dasharray="117563.0547,39187.6875" points="
				98.2,172.6 37.3,142.2 37.3,61.9 98.2,31.4 159.2,61.9 159.2,142.2 98.2,172.6 			"/>
			
				<line fill="none" stroke="#BEC8D2" stroke-width="3.0856" stroke-linejoin="round" stroke-miterlimit="10" stroke-dasharray="117563.0547,39187.6875" x1="37.3" y1="62" x2="159.1" y2="142.4"/>
			
				<line fill="none" stroke="#BEC8D2" stroke-width="3.0856" stroke-linejoin="round" stroke-miterlimit="10" stroke-dasharray="117563.0547,39187.6875" x1="98.2" y1="31.4" x2="98.2" y2="172.7"/>
			<g>
				<path fill="#FFFFFF" stroke="#BEC8D2" stroke-width="3.4971" stroke-linejoin="round" stroke-miterlimit="10" d="M37.5,148.9
					c-3.7,0-6.7-3-6.7-6.7c0-3.7,3-6.7,6.7-6.7c3.7,0,6.7,3,6.7,6.7C44.2,145.9,41.2,148.9,37.5,148.9L37.5,148.9z"/>
				<path fill="#FFFFFF" stroke="#BEC8D2" stroke-width="3.4971" stroke-linejoin="round" stroke-miterlimit="10" d="M98.4,177.6
					c-3.7,0-6.7-3-6.7-6.7c0-3.7,3-6.7,6.7-6.7c3.7,0,6.7,3,6.7,6.7C105.1,174.6,102.1,177.6,98.4,177.6L98.4,177.6z"/>
				<path fill="#FFFFFF" stroke="#BEC8D2" stroke-width="3.4971" stroke-linejoin="round" stroke-miterlimit="10" d="M98.4,108.8
					c-3.7,0-6.7-3-6.7-6.7c0-3.7,3-6.7,6.7-6.7c3.7,0,6.7,3,6.7,6.7C105.1,105.7,102.1,108.8,98.4,108.8L98.4,108.8z"/>
				<path fill="#FFFFFF" stroke="#BEC8D2" stroke-width="3.4971" stroke-linejoin="round" stroke-miterlimit="10" d="M159.3,148.9
					c-3.7,0-6.7-3-6.7-6.7c0-3.7,3-6.7,6.7-6.7c3.7,0,6.7,3,6.7,6.7C166,145.9,163,148.9,159.3,148.9L159.3,148.9z"/>
				<path fill="#FFFFFF" stroke="#BEC8D2" stroke-width="3.4971" stroke-linejoin="round" stroke-miterlimit="10" d="M159.3,68.6
					c-3.7,0-6.7-3-6.7-6.7s3-6.7,6.7-6.7c3.7,0,6.7,3,6.7,6.7S163,68.6,159.3,68.6L159.3,68.6z"/>
				<path fill="#FFFFFF" stroke="#BEC8D2" stroke-width="3.4971" stroke-linejoin="round" stroke-miterlimit="10" d="M98.4,38
					c-3.7,0-6.7-3-6.7-6.6c0-3.7,3-6.6,6.7-6.6c3.7,0,6.7,3,6.7,6.6C105.1,35.1,102.1,38,98.4,38L98.4,38z"/>
				<path fill="#FFFFFF" stroke="#BEC8D2" stroke-width="3.4971" stroke-linejoin="round" stroke-miterlimit="10" d="M39.5,68.6
					c-3.7,0-6.7-3-6.7-6.7s3-6.7,6.7-6.7s6.7,3,6.7,6.7S43.2,68.6,39.5,68.6L39.5,68.6z"/>
			</g>
		</g>
	</g>
</g>
</svg>
