<!-- Generator: Adobe Illustrator 18.0.0, SVG Export Plug-In  -->
<svg version="1.1"
	 xmlns="http://www.w3.org/2000/svg" xmlns:xlink="http://www.w3.org/1999/xlink" xmlns:a="http://ns.adobe.com/AdobeSVGViewerExtensions/3.0/"
	 x="0px" y="0px" width="879px" height="219.5px" viewBox="0 0 879 219.5" enable-background="new 0 0 879 219.5"
	 xml:space="preserve">
<defs>
</defs>
<line fill="none" stroke="#EDF2F5" stroke-width="3" stroke-linecap="round" stroke-miterlimit="10" x1="1.5" y1="1.5" x2="877.5" y2="1.5"/>
<line fill="none" stroke="#EDF2F5" stroke-width="3" stroke-linecap="round" stroke-miterlimit="10" x1="1.5" y1="55.6" x2="877.5" y2="55.6"/>
<line fill="none" stroke="#EDF2F5" stroke-width="3" stroke-linecap="round" stroke-miterlimit="10" x1="1.5" y1="109.8" x2="877.5" y2="109.8"/>
<line fill="none" stroke="#EDF2F5" stroke-width="3" stroke-linecap="round" stroke-miterlimit="10" x1="1.5" y1="163.9" x2="877.5" y2="163.9"/>
<line fill="none" stroke="#EDF2F5" stroke-width="3" stroke-linecap="round" stroke-miterlimit="10" x1="1.5" y1="218" x2="877.5" y2="218"/>
<polyline fill="none" stroke="#FF8B10" stroke-width="3" stroke-linecap="round" stroke-miterlimit="10" points="9.5,43.2 172,8 
	349.5,34 515.5,50.7 700.5,6.6 867,187.6 "/>
<circle fill="#FF8B10" cx="9.5" cy="43.2" r="4.5"/>
<circle fill="#FF8B10" cx="172" cy="9" r="4.5"/>
<circle fill="#FF8B10" cx="349.5" cy="34" r="4.5"/>
<circle fill="#0D1023" cx="9.5" cy="211.2" r="4.5"/>
<circle fill="#00C9FF" cx="9.5" cy="31.2" r="4.5"/>
<circle fill="#0D1023" cx="172" cy="48.8" r="4.5"/>
<circle fill="#00C9FF" cx="172" cy="98.7" r="4.5"/>
<circle fill="#0D1023" cx="349.5" cy="82.4" r="4.5"/>
<circle fill="#00C9FF" cx="349.5" cy="46.2" r="4.5"/>
<circle fill="#0D1023" cx="515.5" cy="15.5" r="4.5"/>
<circle fill="#00C9FF" cx="515.5" cy="175" r="4.5"/>
<circle fill="#0D1023" cx="702" cy="133.7" r="4.5"/>
<circle fill="#00C9FF" cx="700.5" cy="159.4" r="4.5"/>
<circle fill="#0D1023" cx="867" cy="157.7" r="4.5"/>
<circle fill="#00C9FF" cx="867" cy="200.2" r="4.5"/>
<polyline fill="none" stroke="#124191" stroke-width="3" stroke-linecap="round" stroke-miterlimit="10" points="9.5,78.7 172,70.1 
	349.5,94.2 515.5,94.2 700.5,145.9 867,175 "/>
<polyline fill="none" stroke="#0D1023" stroke-width="3" stroke-linecap="round" stroke-miterlimit="10" points="9.5,211.7 
	172,48.8 349.5,82.2 515.5,15.5 700.5,134.6 867,157.7 "/>
<polyline fill="none" stroke="#00C9FF" stroke-width="3" stroke-linecap="round" stroke-miterlimit="10" points="9.5,31.2 172,99.1 
	349.5,46.1 515.5,175 700.5,160.1 867,200.2 "/>
<circle fill="#FF8B10" cx="867" cy="187.6" r="4.5"/>
<circle fill="#FF8B10" cx="515.3" cy="51.1" r="4.5"/>
<circle fill="#FF8B10" cx="700.5" cy="6.6" r="4.5"/>
<circle fill="#124191" cx="349.5" cy="94.2" r="4.5"/>
<circle fill="#124191" cx="172" cy="70.1" r="4.5"/>
<circle fill="#124191" cx="515.5" cy="94.2" r="4.5"/>
<circle fill="#124191" cx="9.5" cy="78.7" r="4.5"/>
<circle fill="#124191" cx="867" cy="175" r="4.5"/>
<circle fill="#124191" cx="702" cy="146.2" r="4.5"/>
</svg>
