<?xml version="1.0" encoding="utf-8"?>
<!-- Generator: Adobe Illustrator 16.0.0, SVG Export Plug-In . SVG Version: 6.00 Build 0)  -->
<!DOCTYPE svg PUBLIC "-//W3C//DTD SVG 1.1//EN" "http://www.w3.org/Graphics/SVG/1.1/DTD/svg11.dtd">
<svg version="1.1" id="Layer_1" xmlns="http://www.w3.org/2000/svg" xmlns:xlink="http://www.w3.org/1999/xlink" x="0px" y="0px"
	 width="23px" height="48px" viewBox="0 0 23 48" enable-background="new 0 0 23 48" xml:space="preserve">
<g>
	<linearGradient id="SVGID_1_" gradientUnits="userSpaceOnUse" x1="16.8848" y1="0.5176" x2="16.8848" y2="47.3506">
		<stop  offset="0" style="stop-color:#F8B7AC"/>
		<stop  offset="0.375" style="stop-color:#DEBCC3"/>
		<stop  offset="0.7619" style="stop-color:#C9C0D7"/>
		<stop  offset="1" style="stop-color:#C0C2E1"/>
	</linearGradient>
	<path fill="url(#SVGID_1_)" stroke="#231F20" stroke-width="0.358" stroke-linecap="round" stroke-miterlimit="2.818" d="
		M15.335,0.518h-4.101v46.833h4.101c3.977,0,7.2-3.224,7.2-7.2V7.718C22.535,3.741,19.312,0.518,15.335,0.518z"/>
	
		<linearGradient id="SVGID_2_" gradientUnits="userSpaceOnUse" x1="528.8652" y1="-245.9844" x2="528.8652" y2="-199.1514" gradientTransform="matrix(-1 0 0 -1 534.4492 -198.6338)">
		<stop  offset="0" style="stop-color:#F8B7AC"/>
		<stop  offset="0.375" style="stop-color:#DEBCC3"/>
		<stop  offset="0.7619" style="stop-color:#C9C0D7"/>
		<stop  offset="1" style="stop-color:#C0C2E1"/>
	</linearGradient>
	<path fill="url(#SVGID_2_)" stroke="#231F20" stroke-width="0.358" stroke-linecap="round" stroke-miterlimit="2.818" d="
		M7.134,47.351h4.101V0.518H7.134c-3.977,0-7.2,3.224-7.2,7.2V40.15C-0.066,44.127,3.157,47.351,7.134,47.351z"/>
</g>
<g>
	<path fill-rule="evenodd" clip-rule="evenodd" fill="#FFFFFF" stroke="#010101" stroke-width="0.5" stroke-miterlimit="2.818" d="
		M8.165,6.382c0-1.424-1.154-2.578-2.578-2.578S3.009,4.958,3.009,6.382S4.163,8.96,5.587,8.96S8.165,7.806,8.165,6.382"/>
	<path fill-rule="evenodd" clip-rule="evenodd" fill="#FFFFFF" stroke="#010101" stroke-width="0.5" stroke-miterlimit="2.818" d="
		M8.165,41.486c0-1.424-1.154-2.578-2.578-2.578s-2.578,1.154-2.578,2.578s1.154,2.578,2.578,2.578S8.165,42.91,8.165,41.486"/>
	<path fill-rule="evenodd" clip-rule="evenodd" fill="#FFFFFF" stroke="#010101" stroke-width="0.5" stroke-miterlimit="2.818" d="
		M19.461,6.382c0-1.424-1.154-2.578-2.578-2.578s-2.578,1.154-2.578,2.578s1.154,2.578,2.578,2.578S19.461,7.806,19.461,6.382"/>
	<path fill-rule="evenodd" clip-rule="evenodd" fill="#FFFFFF" stroke="#010101" stroke-width="0.5" stroke-miterlimit="2.818" d="
		M19.461,41.486c0-1.424-1.154-2.578-2.578-2.578s-2.578,1.154-2.578,2.578s1.154,2.578,2.578,2.578S19.461,42.91,19.461,41.486"/>
	<g>
		<g>
			
				<line fill="none" stroke="#231F20" stroke-width="0.8" stroke-linecap="round" stroke-miterlimit="2.818" x1="16.984" y1="14.675" x2="16.984" y2="32.342"/>
			<path fill="#231F20" d="M17.395,33.286c0.199-0.661,0.384-1.091,0.597-1.621h-2.018c0.09,0.189,0.396,0.96,0.597,1.621
				c0.214,0.708,0.359,1.35,0.412,1.767C17.034,34.636,17.181,33.994,17.395,33.286z"/>
		</g>
	</g>
	<g>
		<g>
			
				<line fill="none" stroke="#231F20" stroke-width="0.8" stroke-linecap="round" stroke-miterlimit="2.818" x1="5.522" y1="32.337" x2="5.522" y2="14.67"/>
			<path fill="#231F20" d="M5.112,13.726c-0.2,0.661-0.384,1.091-0.597,1.621h2.018c-0.09-0.189-0.397-0.96-0.597-1.621
				c-0.214-0.708-0.36-1.35-0.413-1.766C5.473,12.376,5.326,13.018,5.112,13.726z"/>
		</g>
	</g>
</g>
</svg>
